<svg width="1387" height="872" viewBox="0 0 1387 872" fill="none" xmlns="http://www.w3.org/2000/svg">
<path d="M1144.76 676.322C1103.71 755.464 1041.69 821.973 966.043 868.491" stroke="#0D0D0D" stroke-width="5.15632" stroke-miterlimit="10" stroke-linecap="round"/>
<path d="M1352.62 442.586C1352.7 444.059 1352.77 445.525 1352.84 446.998" stroke="#0D0D0D" stroke-width="7.36618" stroke-miterlimit="10" stroke-linecap="round"/>
<path d="M1353.44 477.126C1353.32 499.32 1351.93 521.735 1349.23 544.298C1346.64 565.91 1342.9 587.103 1338.09 607.824" stroke="#0D0D0D" stroke-width="7.36618" stroke-miterlimit="10" stroke-linecap="round" stroke-dasharray="30.14 30.14 60.28 22.6"/>
<path d="M1335.43 618.807C1321.17 675.246 1298.89 728.069 1269.99 776.185" stroke="#0D0D0D" stroke-width="7.36618" stroke-miterlimit="10" stroke-linecap="round" stroke-dasharray="9.04 30.14 30.14 30.14 60.28 22.6"/>
<path d="M1264.08 785.806C1263.3 787.05 1262.51 788.295 1261.71 789.54" stroke="#0D0D0D" stroke-width="7.36618" stroke-miterlimit="10" stroke-linecap="round"/>
<path d="M1286.32 107.174C1304.99 134.915 1321.53 164.638 1335.61 196.217C1363.98 259.816 1380.11 325.773 1385 391.442" stroke="#0D0D0D" stroke-width="3.68309" stroke-miterlimit="10" stroke-linecap="round"/>
<path d="M268.194 832.264C193.692 747.177 143.411 640.346 128.104 522.538" stroke="#6EA31A" stroke-width="6.62956" stroke-miterlimit="10" stroke-linecap="round"/>
<path d="M209.603 864.469C135.102 779.382 84.8201 672.55 69.5132 554.743" stroke="#0D0D0D" stroke-width="6.62956" stroke-miterlimit="10" stroke-linecap="round" stroke-dasharray="8.84 29.46 29.46 29.46 58.93 22.1"/>
<path d="M1237.88 157.242C1287.38 242.889 1316.27 341.713 1317.83 447.101" stroke="#189E32" stroke-width="7.36618" stroke-miterlimit="10" stroke-linecap="round"/>
<path d="M106.749 371.922C123.882 250.579 177.523 140.816 256.311 53.858" stroke="#0D0D0D" stroke-width="8.10279" stroke-miterlimit="10" stroke-linecap="round"/>
<path d="M2.63525 428.944C8.5061 276.582 63.5388 136.691 152.463 24.3785" stroke="#0D0D0D" stroke-width="5.15632" stroke-miterlimit="10" stroke-linecap="round" stroke-dasharray="8.84 29.46 29.46 29.46 58.93 22.1"/>
<path d="M247.384 676.322C288.435 755.464 350.459 821.973 426.102 868.491" stroke="#0D0D0D" stroke-width="5.15632" stroke-miterlimit="10" stroke-linecap="round"/>
<path d="M381.124 757.004C302.46 676.749 253.954 566.824 253.954 445.562C253.954 318.525 307.189 203.929 392.571 122.857" stroke="#0D0D0D" stroke-width="10.3126" stroke-miterlimit="10" stroke-linecap="round"/>
<path d="M530.04 857.338C492.553 841.95 457.63 821.598 426.096 797.09" stroke="#0D0D0D" stroke-width="10.3126" stroke-miterlimit="10" stroke-linecap="round" stroke-dasharray="8.84 29.46 29.46 29.46 58.93 22.1"/>
<path d="M1113.57 607.117C1073.16 710.766 995.02 795.536 896.019 844.551" stroke="#0D0D0D" stroke-width="13.2591" stroke-miterlimit="10" stroke-linecap="round"/>
<path d="M1098.79 250.307C1127.63 309.258 1143.81 375.524 1143.81 445.569C1143.81 491.549 1136.84 535.893 1123.89 577.615" stroke="#0D0D0D" stroke-width="8.83941" stroke-miterlimit="10" stroke-linecap="round" stroke-dasharray="8.84 29.46 29.46 29.46 58.93 22.1"/>
<path d="M815.588 16.099C856.139 27.0893 894.391 43.678 929.462 64.9662C977.651 94.2247 1019.84 132.374 1053.75 177.138" stroke="#0D0D0D" stroke-width="6.62956" stroke-miterlimit="10" stroke-linecap="round"/>
<path d="M864.941 11.5099C904.608 25.3583 941.586 44.6208 975.058 68.3547C1021.05 100.965 1060.42 142.016 1091.06 189.079" stroke="#189E32" stroke-width="15.469" stroke-miterlimit="10" stroke-linecap="round"/>
<path d="M436.849 96.9353C497.613 48.046 571.488 14.8024 652.369 3.30383" stroke="#0D0D0D" stroke-width="5.15632" stroke-miterlimit="10" stroke-linecap="round" stroke-dasharray="8.84 29.46 29.46 29.46 58.93 22.1"/>
<path d="M358.51 772.451C276.075 688.351 225.241 573.151 225.241 446.077C225.241 312.949 281.032 192.85 370.509 107.889" stroke="#189E32" stroke-width="27.2548" stroke-miterlimit="10" stroke-linecap="round"/>
</svg>
