<svg width="1342" height="869" viewBox="0 0 1342 869" fill="none" xmlns="http://www.w3.org/2000/svg">
<path d="M277.181 629.222C249.909 569.428 234.95 504.418 234.95 436.449C234.95 348.986 259.717 266.434 303.615 193.576" stroke="#0D0D0D" stroke-width="12.7735" stroke-miterlimit="10" stroke-linecap="round"/>
<path d="M504.4 844.541C428.951 811.592 364.303 758.533 317.211 692.139" stroke="#0D0D0D" stroke-width="14.8998" stroke-miterlimit="10" stroke-linecap="round"/>
<path d="M250.789 638.739C222.46 576.106 206.926 508.023 206.926 436.825C206.926 345.218 232.651 258.756 278.252 182.441" stroke="#FF4412" stroke-width="21.9988" stroke-miterlimit="10" stroke-linecap="round"/>
<path d="M497.438 862.977C419.073 828.467 351.913 772.889 303.004 703.351" stroke="#FF4412" stroke-width="10.6446" stroke-miterlimit="10" stroke-linecap="round"/>
<path d="M259.142 799.841C187.369 717.87 138.929 614.952 124.183 501.459" stroke="#0D0D0D" stroke-width="6.38674" stroke-miterlimit="10" stroke-linecap="round"/>
<path d="M202.697 830.866C130.924 748.896 82.4846 645.977 67.7383 532.485" stroke="#0D0D0D" stroke-width="6.38674" stroke-miterlimit="10" stroke-linecap="round" stroke-dasharray="8.52 28.39 28.39 28.39 56.77 21.29"/>
<path d="M103.61 356.352C120.116 239.454 171.792 133.711 247.695 49.9379" stroke="#0D0D0D" stroke-width="7.80602" stroke-miterlimit="10" stroke-linecap="round"/>
<path d="M3.31055 411.293C8.96636 264.511 61.9834 129.744 147.651 21.5453" stroke="#0D0D0D" stroke-width="4.96746" stroke-miterlimit="10" stroke-linecap="round" stroke-dasharray="8.52 28.39 28.39 28.39 56.77 21.29"/>
<path d="M378.964 137.401C434.287 80.9704 505.145 39.8185 584.61 20.8569" stroke="#0D0D0D" stroke-width="4.96746" stroke-miterlimit="10" stroke-linecap="round" stroke-dasharray="8.52 28.39 28.39 28.39 56.77 21.29"/>
<path d="M368.823 125.912C424.665 69.2401 495.664 27.5418 575.257 7.40933" stroke="#FF4412" stroke-width="10.6446" stroke-miterlimit="10" stroke-linecap="round"/>
<path d="M1078.06 627.466C1105.33 567.671 1120.29 502.662 1120.29 434.692C1120.29 347.23 1095.53 264.677 1051.63 191.819" stroke="#0D0D0D" stroke-width="9.31237" stroke-miterlimit="10" stroke-linecap="round"/>
<path d="M850.844 842.784C926.293 809.835 990.941 756.776 1038.03 690.382" stroke="#0D0D0D" stroke-width="10.2436" stroke-miterlimit="10" stroke-linecap="round"/>
<path d="M826.722 820.27C902.171 787.321 966.819 734.262 1013.91 667.868" stroke="#0D0D0D" stroke-width="6.51866" stroke-miterlimit="10" stroke-linecap="round"/>
<path d="M1104.46 636.982C1132.78 574.349 1148.32 506.266 1148.32 435.068C1148.32 343.461 1122.59 256.999 1076.99 180.685" stroke="#FF4412" stroke-width="15.831" stroke-miterlimit="10" stroke-linecap="round"/>
<path d="M857.806 861.22C936.171 826.71 1003.33 771.132 1052.24 701.594" stroke="#FF4412" stroke-width="10.6446" stroke-miterlimit="10" stroke-linecap="round"/>
<path d="M1096.1 798.084C1167.88 716.113 1216.32 613.195 1231.06 499.702" stroke="#0D0D0D" stroke-width="6.38674" stroke-miterlimit="10" stroke-linecap="round"/>
<path d="M1152.55 829.109C1224.32 747.139 1272.76 644.22 1287.5 530.728" stroke="#0D0D0D" stroke-width="6.38674" stroke-miterlimit="10" stroke-linecap="round" stroke-dasharray="8.52 28.39 28.39 28.39 56.77 21.29"/>
<path d="M1246.66 356.753C1234.45 239.327 1206.93 170.084 1134.15 83.5819" stroke="#0D0D0D" stroke-width="7.80602" stroke-miterlimit="10" stroke-linecap="round"/>
<path d="M1337.42 413.564C1345.62 266.903 1315.42 177 1266.61 102.198" stroke="#0D0D0D" stroke-width="4.96746" stroke-miterlimit="10" stroke-linecap="round" stroke-dasharray="8.52 28.39 28.39 28.39 56.77 21.29"/>
<path d="M976.28 135.644C920.957 79.2135 850.1 38.0616 770.634 19.1001" stroke="#0D0D0D" stroke-width="4.96746" stroke-miterlimit="10" stroke-linecap="round" stroke-dasharray="8.52 28.39 28.39 28.39 56.77 21.29"/>
<path d="M986.421 124.155C930.579 67.4832 859.58 25.7849 779.987 5.65245" stroke="#FF4412" stroke-width="10.6446" stroke-miterlimit="10" stroke-linecap="round"/>
</svg>
