<svg width="510" height="452" viewBox="0 0 510 452" fill="none" xmlns="http://www.w3.org/2000/svg">
    <rect x="1.21593" y="1.41344" width="227.477" height="207.991" rx="40.8801" fill="#FFD363"
        stroke="#0D0D0D" stroke-width="2.43185" />
    <path
        d="M85.0009 21.7173C78.4895 21.7173 74.1629 23.4837 70.5191 27.6952C65.6092 33.3702 60.5244 39.3037 58.7808 46.0275C57.6159 50.5197 58.2861 55.4215 58.2861 59.976C58.2861 66.5074 58.2861 73.0388 58.2861 79.5702C58.2861 96.7253 55.5292 115.611 68.8101 130.748C76.321 139.308 84.3458 145.363 98.7631 145.46C109.338 145.532 114.808 143.87 122.689 138.685C129.612 134.131 135.747 130.825 140.005 124.537C144.443 117.982 145.689 110.042 147.335 102.884C149.542 93.2879 152.193 84.1543 152.193 74.3894C152.193 67.1769 151.236 61.5759 148.505 54.7287C145.532 47.2757 138.472 41.8253 130.92 36.5624C127.006 33.835 121.851 28.8908 116.078 28.8908C111.835 28.8908 106.895 28.5366 102.856 29.6878C99.8681 30.5393 96.4844 33.404 93.9058 34.8687"
        stroke="#0D0D0D" stroke-width="2.43185" stroke-linecap="round" />
    <path
        d="M101.192 80.8987C97.5395 81.1984 94.6114 87.0144 94.0411 89.4006C93.4868 91.72 94.3905 94.1428 93.5464 96.4413C93.0065 97.9113 92.2871 99.0319 92.2871 100.593C92.2871 100.873 91.9583 102.331 92.6019 101.821C95.8907 99.2194 99.4921 97.1514 103.441 95.1128C108.159 92.677 112.6 91.5314 114.954 87.4744"
        stroke="#0D0D0D" stroke-width="2.43185" stroke-linecap="round" />
    <path
        d="M133.785 62.4624C135.908 61.8204 138.033 61.1992 140.186 60.7066C144.503 59.7188 150.026 57.7215 154.533 57.5848C158.922 57.4516 173.083 57.8563 170.274 63.6955C167.592 69.2697 154.699 68.6957 148.461 68.8764C141.863 69.0675 135.231 68.9428 128.627 68.9428C128.094 68.9428 121.611 69.3439 121.611 68.5111C121.611 66.9781 124.294 65.7221 126.902 64.6955C126.837 64.6393 126.772 64.5818 126.709 64.523C126.049 63.9138 125.49 63.1701 125.138 62.4226C124.286 60.6126 124.647 58.7803 127.728 58.7803C128.731 58.7803 137.329 58.7835 137.128 59.3781C136.815 60.3009 134.489 61.3996 132.756 62.1959C133.105 62.2786 133.449 62.3681 133.785 62.4624Z"
        fill="#FFD363" />
    <path
        d="M118.193 65.9538C125.912 65.5264 132.883 62.3776 140.186 60.7066C144.503 59.7188 150.026 57.7215 154.533 57.5848C158.922 57.4516 173.083 57.8563 170.274 63.6955C167.592 69.2697 154.699 68.6957 148.461 68.8764C141.863 69.0675 135.231 68.9428 128.627 68.9428C128.094 68.9428 121.611 69.3439 121.611 68.5111C121.611 65.9774 128.941 64.2004 131.146 62.9649C132.351 62.2898 136.693 60.6632 137.128 59.3781C137.329 58.7835 128.731 58.7803 127.728 58.7803C122.093 58.7803 125.558 64.9076 128.897 65.821C130.626 66.2938 140.533 65.171 136.903 63.5627C133.257 61.9473 125.004 59.9376 123.86 64.1605"
        stroke="#0D0D0D" stroke-width="2.43185" stroke-linecap="round" />
    <path
        d="M76.0989 63.5625C77.3223 63.6354 78.632 63.832 79.9748 64.1239C81.2803 61.7854 84.7351 61.5588 88.3319 63.0312C91.4112 64.2917 98.6795 69.777 95.4379 72.7951C92.8881 75.1691 87.1161 74.9206 83.5197 74.9206C74.239 74.9206 64.813 75.5699 56.0853 72.7951C51.9837 71.491 48.313 70.3926 47.0455 67.0496C46.5375 65.7101 45.3695 62.8495 46.3259 61.437C47.4542 59.7706 55.0142 59.9758 57.0298 59.9758C63.8495 59.9758 69.2612 63.1553 76.0989 63.5625Z"
        fill="#FFD363" />
    <path
        d="M93.0992 69.5404C88.9663 66.766 81.6454 63.8928 76.0989 63.5625C69.2612 63.1553 63.8495 59.9758 57.0298 59.9758C55.0142 59.9758 47.4542 59.7706 46.3259 61.437C45.3695 62.8495 46.5375 65.7101 47.0455 67.0496C48.313 70.3926 51.9837 71.491 56.0853 72.7951C64.813 75.5699 74.239 74.9206 83.5197 74.9206C87.1161 74.9206 92.8881 75.1691 95.4379 72.7951C98.6795 69.777 91.4112 64.2917 88.3319 63.0312C83.765 61.1617 79.427 62.0311 79.427 66.4851C79.427 69.4552 82.9123 68.9427 85.8134 68.9427"
        stroke="#0D0D0D" stroke-width="2.43185" stroke-linecap="round" />
    <path
        d="M88.2402 112.582C94.5627 113.691 107.619 117.343 113.651 114.176C118.754 111.496 120.894 107.379 121.431 103.017"
        stroke="#0D0D0D" stroke-width="2.43185" stroke-linecap="round" />
    <path
        d="M56.6664 45.0314C56.0587 46.9761 52.5946 39.3355 52.2589 38.8543C50.5433 36.395 50.3996 33.3668 52.9785 31.1162C55.7038 28.7378 64.5075 35.6718 67.1005 36.6291C73.037 38.821 72.0476 35.1606 72.0476 31.3154C72.0476 27.7287 72.0476 24.1419 72.0476 20.5552C72.0476 18.8212 71.3023 15.7777 72.4074 14.1455C73.2845 12.8503 76.0848 16.1065 76.2752 16.3042C80.008 20.1804 83.8486 23.7731 87.9686 27.4298C90.2201 29.4281 91.9784 31.6353 93.8152 33.8394C94.68 34.8772 95.2718 32.5735 95.4343 32.2785C98.8459 26.0885 102.268 20.2698 107.757 14.9426C115.71 7.22397 112.296 33.5059 117.247 32.2453C120.812 31.3377 123.702 29.05 126.017 26.9648C127.39 25.7279 129.716 24.187 129.345 26.9981C129.303 27.3185 126.518 36.9399 127.321 36.762C130.059 36.1555 133.776 32.9519 135.911 31.7472C137.46 30.8734 149.302 22.983 151.113 23.5774C151.82 23.8094 150.211 24.5059 149.763 24.9722C147.989 26.8218 146.46 28.7853 144.861 30.7176C141.595 34.6648 137.885 38.484 135.282 42.7067C134.351 44.217 131.527 47.8043 135.147 45.1311C138.44 42.6989 142.109 40.4969 145.986 38.5886C149.867 36.6775 144.906 44.9446 144.906 46.8248"
        stroke="#0D0D0D" stroke-width="2.43185" stroke-linecap="round" />
    <path
        d="M126.286 141.874C126.286 145.682 126.286 149.49 126.286 153.298C126.286 156.295 124.618 160.582 129.569 161.07C138.365 161.936 150.043 168.239 155.699 173.025C158.434 175.339 162.208 177.273 164.334 179.933C166.254 182.335 167.969 184.38 170.496 186.442C172.59 188.152 174.423 189.961 176.432 191.723C180.218 195.042 174.053 192.389 171.62 191.49"
        stroke="#0D0D0D" stroke-width="2.43185" stroke-linecap="round" />
    <path
        d="M75.2885 141.276C80.0205 143.678 78.5267 148.547 78.5267 152.302C78.5267 156.287 78.5267 160.272 78.5267 164.258C78.5267 166.708 78.6495 169.18 78.5267 171.63C78.4704 172.751 76.2478 172.355 75.1536 172.793C71.7906 174.138 68.8336 176.228 65.9338 178.04C59.9901 181.754 52.7108 184.106 46.6848 187.771C42.8397 190.109 41.8074 192.883 39.1291 195.708C37.2853 197.653 35.6211 198.612 35.6211 201.055"
        stroke="#0D0D0D" stroke-width="2.43185" stroke-linecap="round" />
    <path
        d="M44.5273 164.59C47.7303 167.685 50.6139 170.88 55.5461 172.594C61.1173 174.53 68.2922 174.548 74.3004 174.686C83.7486 174.902 93.228 174.752 102.679 174.752C109.899 174.752 118.079 175.407 125.166 174.022C128.421 173.386 144.16 164.634 140.053 161.601"
        stroke="#0D0D0D" stroke-width="2.43185" stroke-linecap="round" />
    <rect x="253.795" y="1.41221" width="227.477" height="207.991" rx="40.8801" fill="#FFD363"
        stroke="#0D0D0D" stroke-width="2.43185" />
    <rect x="263.504" y="239.213" width="227.477" height="207.991" rx="40.8801" fill="#FFD363"
        stroke="#0D0D0D" stroke-width="2.43185" />
    <path
        d="M347.289 259.518C340.778 259.518 336.451 261.284 332.807 265.495C327.897 271.17 322.813 277.104 321.069 283.828C319.904 288.32 320.574 293.222 320.574 297.776C320.574 304.308 320.574 310.839 320.574 317.371C320.574 334.526 317.817 353.411 331.098 368.548C338.609 377.109 346.634 383.163 361.051 383.26C371.626 383.332 377.096 381.671 384.978 376.485C391.9 371.931 398.035 368.626 402.293 362.338C406.731 355.783 407.978 347.842 409.623 340.684C411.83 331.088 414.481 321.955 414.481 312.19C414.481 304.977 413.524 299.376 410.793 292.529C407.82 285.076 400.76 279.626 393.208 274.363C389.294 271.635 384.139 266.691 378.366 266.691C374.123 266.691 369.183 266.337 365.144 267.488C362.156 268.34 358.773 271.204 356.194 272.669"
        stroke="#0D0D0D" stroke-width="2.43185" stroke-linecap="round" />
    <path
        d="M363.48 318.699C359.828 318.999 356.899 324.815 356.329 327.201C355.775 329.521 356.679 331.943 355.834 334.242C355.295 335.712 354.575 336.832 354.575 338.393C354.575 338.673 354.246 340.131 354.89 339.622C358.179 337.02 361.78 334.952 365.729 332.913C370.447 330.478 374.888 329.332 377.242 325.275"
        stroke="#0D0D0D" stroke-width="2.43185" stroke-linecap="round" />
    <path
        d="M396.073 300.263C398.196 299.621 400.321 299 402.474 298.507C406.791 297.519 412.314 295.522 416.821 295.385C421.21 295.252 435.371 295.657 432.562 301.496C429.88 307.07 416.987 306.496 410.749 306.677C404.151 306.868 397.519 306.743 390.916 306.743C390.382 306.743 383.899 307.144 383.899 306.312C383.899 304.779 386.582 303.523 389.19 302.496C389.125 302.44 389.06 302.382 388.997 302.324C388.337 301.714 387.779 300.971 387.427 300.223C386.574 298.413 386.935 296.581 390.016 296.581C391.02 296.581 399.617 296.584 399.416 297.179C399.103 298.101 396.777 299.2 395.044 299.996C395.393 300.079 395.737 300.169 396.073 300.263Z"
        fill="#FFD363" />
    <path
        d="M380.481 303.754C388.2 303.327 395.171 300.178 402.474 298.507C406.791 297.519 412.314 295.522 416.821 295.385C421.21 295.252 435.371 295.657 432.562 301.496C429.88 307.07 416.987 306.496 410.749 306.677C404.151 306.868 397.519 306.743 390.916 306.743C390.382 306.743 383.899 307.144 383.899 306.312C383.899 303.778 391.229 302.001 393.434 300.765C394.639 300.09 398.981 298.464 399.416 297.179C399.617 296.584 391.02 296.581 390.016 296.581C384.381 296.581 387.846 302.708 391.185 303.622C392.914 304.094 402.821 302.972 399.191 301.363C395.545 299.748 387.292 297.738 386.148 301.961"
        stroke="#0D0D0D" stroke-width="2.43185" stroke-linecap="round" />
    <path
        d="M338.386 301.363C339.609 301.436 340.919 301.633 342.262 301.925C343.567 299.586 347.022 299.36 350.619 300.832C353.698 302.092 360.967 307.578 357.725 310.596C355.175 312.97 349.403 312.721 345.807 312.721C336.526 312.721 327.1 313.371 318.372 310.596C314.271 309.292 310.6 308.193 309.333 304.85C308.825 303.511 307.657 300.65 308.613 299.238C309.741 297.571 317.301 297.777 319.317 297.777C326.137 297.777 331.548 300.956 338.386 301.363Z"
        fill="#FFD363" />
    <path
        d="M355.386 307.341C351.253 304.567 343.933 301.694 338.386 301.363C331.548 300.956 326.137 297.777 319.317 297.777C317.301 297.777 309.741 297.571 308.613 299.238C307.657 300.65 308.825 303.511 309.333 304.85C310.6 308.193 314.271 309.292 318.372 310.596C327.1 313.371 336.526 312.721 345.807 312.721C349.403 312.721 355.175 312.97 357.725 310.596C360.967 307.578 353.698 302.092 350.619 300.832C346.052 298.962 341.714 299.832 341.714 304.286C341.714 307.256 345.199 306.743 348.1 306.743"
        stroke="#0D0D0D" stroke-width="2.43185" stroke-linecap="round" />
    <path
        d="M350.529 350.382C356.852 351.491 369.909 355.143 375.94 351.976C381.043 349.296 383.183 345.179 383.72 340.817"
        stroke="#0D0D0D" stroke-width="2.43185" stroke-linecap="round" />
    <path
        d="M318.956 282.831C318.349 284.776 314.885 277.135 314.549 276.654C312.833 274.195 312.69 271.167 315.269 268.916C317.994 266.538 326.798 273.472 329.39 274.429C335.327 276.621 334.338 272.96 334.338 269.115C334.338 265.528 334.338 261.942 334.338 258.355C334.338 256.621 333.592 253.577 334.697 251.945C335.575 250.65 338.375 253.906 338.565 254.104C342.298 257.98 346.139 261.573 350.259 265.23C352.51 267.228 354.268 269.435 356.105 271.639C356.97 272.677 357.562 270.373 357.724 270.078C361.136 263.888 364.558 258.07 370.047 252.742C378 245.024 374.586 271.306 379.537 270.045C383.102 269.137 385.992 266.85 388.307 264.765C389.68 263.528 392.006 261.987 391.635 264.798C391.593 265.118 388.808 274.74 389.611 274.562C392.349 273.955 396.066 270.752 398.201 269.547C399.75 268.673 411.592 260.783 413.403 261.377C414.11 261.609 412.501 262.306 412.053 262.772C410.279 264.622 408.75 266.585 407.151 268.517C403.885 272.465 400.175 276.284 397.572 280.506C396.641 282.017 393.817 285.604 397.437 282.931C400.73 280.499 404.399 278.297 408.276 276.388C412.157 274.477 407.196 282.744 407.196 284.625"
        stroke="#0D0D0D" stroke-width="2.43185" stroke-linecap="round" />
    <path
        d="M388.572 379.674C388.572 383.482 388.572 387.29 388.572 391.098C388.572 394.095 386.904 398.382 391.855 398.869C400.651 399.735 412.329 406.039 417.985 410.825C420.72 413.139 424.494 415.072 426.62 417.733C428.54 420.135 430.255 422.18 432.782 424.242C434.876 425.952 436.709 427.76 438.718 429.523C442.504 432.842 436.34 430.189 433.906 429.29"
        stroke="#0D0D0D" stroke-width="2.43185" stroke-linecap="round" />
    <path
        d="M337.578 379.076C342.31 381.478 340.816 386.347 340.816 390.102C340.816 394.087 340.816 398.073 340.816 402.058C340.816 404.509 340.939 406.981 340.816 409.431C340.759 410.552 338.537 410.155 337.443 410.593C334.08 411.938 331.123 414.028 328.223 415.84C322.279 419.554 315 421.907 308.974 425.571C305.129 427.909 304.096 430.683 301.418 433.508C299.574 435.453 297.91 436.412 297.91 438.855"
        stroke="#0D0D0D" stroke-width="2.43185" stroke-linecap="round" />
    <path
        d="M306.815 402.39C310.018 405.485 312.902 408.679 317.834 410.393C323.405 412.329 330.58 412.348 336.588 412.486C346.037 412.702 355.516 412.552 364.967 412.552C372.187 412.552 380.367 413.207 387.454 411.821C390.709 411.185 406.448 402.433 402.341 399.401"
        stroke="#0D0D0D" stroke-width="2.43185" stroke-linecap="round" />
    <rect x="1.21593" y="242.342" width="227.477" height="207.991" rx="40.8801" fill="#FFD363"
        stroke="#0D0D0D" stroke-width="2.43185" />
    <path
        d="M85.0009 262.646C78.4895 262.646 74.1629 264.413 70.5191 268.624C65.6092 274.299 60.5244 280.233 58.7808 286.956C57.6159 291.449 58.2861 296.35 58.2861 300.905C58.2861 307.436 58.2861 313.968 58.2861 320.499C58.2861 337.654 55.5292 356.54 68.8101 371.677C76.321 380.237 84.3458 386.291 98.7631 386.389C109.338 386.461 114.808 384.799 122.689 379.614C129.612 375.06 135.747 371.754 140.005 365.466C144.443 358.911 145.689 350.971 147.335 343.813C149.542 334.217 152.193 325.083 152.193 315.318C152.193 308.106 151.236 302.505 148.505 295.658C145.532 288.205 138.472 282.754 130.92 277.491C127.006 274.764 121.851 269.82 116.078 269.82C111.835 269.82 106.895 269.466 102.856 270.617C99.8681 271.468 96.4844 274.333 93.9058 275.798"
        stroke="#0D0D0D" stroke-width="2.43185" stroke-linecap="round" />
    <path
        d="M101.192 321.828C97.5395 322.128 94.6114 327.944 94.0411 330.33C93.4868 332.649 94.3905 335.072 93.5464 337.371C93.0065 338.841 92.2871 339.961 92.2871 341.522C92.2871 341.802 91.9583 343.26 92.6019 342.751C95.8907 340.149 99.4921 338.081 103.441 336.042C108.159 333.606 112.6 332.461 114.954 328.404"
        stroke="#0D0D0D" stroke-width="2.43185" stroke-linecap="round" />
    <path
        d="M133.785 303.392C135.908 302.75 138.033 302.129 140.186 301.636C144.503 300.648 150.026 298.651 154.533 298.514C158.922 298.381 173.083 298.786 170.274 304.625C167.592 310.199 154.699 309.625 148.461 309.806C141.863 309.997 135.231 309.872 128.627 309.872C128.094 309.872 121.611 310.273 121.611 309.441C121.611 307.908 124.294 306.652 126.902 305.625C126.837 305.569 126.772 305.511 126.709 305.452C126.049 304.843 125.49 304.099 125.138 303.352C124.286 301.542 124.647 299.71 127.728 299.71C128.731 299.71 137.329 299.713 137.128 300.308C136.815 301.23 134.489 302.329 132.756 303.125C133.105 303.208 133.449 303.298 133.785 303.392Z"
        fill="#FFD363" />
    <path
        d="M118.193 306.883C125.912 306.456 132.883 303.307 140.186 301.636C144.503 300.648 150.026 298.651 154.533 298.514C158.922 298.381 173.083 298.786 170.274 304.625C167.592 310.199 154.699 309.625 148.461 309.806C141.863 309.997 135.231 309.872 128.627 309.872C128.094 309.872 121.611 310.273 121.611 309.441C121.611 306.907 128.941 305.13 131.146 303.894C132.351 303.219 136.693 301.593 137.128 300.308C137.329 299.713 128.731 299.71 127.728 299.71C122.093 299.71 125.558 305.837 128.897 306.75C130.626 307.223 140.533 306.1 136.903 304.492C133.257 302.877 125.004 300.867 123.86 305.09"
        stroke="#0D0D0D" stroke-width="2.43185" stroke-linecap="round" />
    <path
        d="M76.0989 304.492C77.3223 304.565 78.632 304.761 79.9748 305.053C81.2803 302.715 84.7351 302.488 88.3319 303.96C91.4112 305.221 98.6795 310.706 95.4379 313.724C92.8881 316.098 87.1161 315.85 83.5197 315.85C74.239 315.85 64.813 316.499 56.0853 313.724C51.9837 312.42 48.313 311.322 47.0455 307.979C46.5375 306.639 45.3695 303.779 46.3259 302.366C47.4542 300.7 55.0142 300.905 57.0298 300.905C63.8495 300.905 69.2612 304.085 76.0989 304.492Z"
        fill="#FFD363" />
    <path
        d="M93.0992 310.47C88.9663 307.695 81.6454 304.822 76.0989 304.492C69.2612 304.085 63.8495 300.905 57.0298 300.905C55.0142 300.905 47.4542 300.7 46.3259 302.366C45.3695 303.779 46.5375 306.639 47.0455 307.979C48.313 311.322 51.9837 312.42 56.0853 313.724C64.813 316.499 74.239 315.85 83.5197 315.85C87.1161 315.85 92.8881 316.098 95.4379 313.724C98.6795 310.706 91.4112 305.221 88.3319 303.96C83.765 302.091 79.427 302.96 79.427 307.414C79.427 310.384 82.9123 309.872 85.8134 309.872"
        stroke="#0D0D0D" stroke-width="2.43185" stroke-linecap="round" />
    <path
        d="M88.2402 353.511C94.5627 354.621 107.619 358.272 113.651 355.105C118.754 352.425 120.894 348.309 121.431 343.947"
        stroke="#0D0D0D" stroke-width="2.43185" stroke-linecap="round" />
    <path
        d="M56.6664 285.961C56.0587 287.906 52.5946 280.265 52.2589 279.784C50.5433 277.324 50.3996 274.296 52.9785 272.046C55.7038 269.667 64.5075 276.601 67.1005 277.559C73.037 279.75 72.0476 276.09 72.0476 272.245C72.0476 268.658 72.0476 265.071 72.0476 261.485C72.0476 259.751 71.3023 256.707 72.4074 255.075C73.2845 253.78 76.0848 257.036 76.2752 257.234C80.008 261.11 83.8486 264.703 87.9686 268.359C90.2201 270.358 91.9784 272.565 93.8152 274.769C94.68 275.807 95.2718 273.503 95.4343 273.208C98.8459 267.018 102.268 261.199 107.757 255.872C115.71 248.153 112.296 274.435 117.247 273.175C120.812 272.267 123.702 269.979 126.017 267.894C127.39 266.657 129.716 265.116 129.345 267.927C129.303 268.248 126.518 277.869 127.321 277.691C130.059 277.085 133.776 273.881 135.911 272.677C137.46 271.803 149.302 263.912 151.113 264.507C151.82 264.739 150.211 265.435 149.763 265.902C147.989 267.751 146.46 269.715 144.861 271.647C141.595 275.594 137.885 279.413 135.282 283.636C134.351 285.146 131.527 288.734 135.147 286.061C138.44 283.628 142.109 281.426 145.986 279.518C149.867 277.607 144.906 285.874 144.906 287.754"
        stroke="#0D0D0D" stroke-width="2.43185" stroke-linecap="round" />
    <path
        d="M126.286 382.802C126.286 386.61 126.286 390.419 126.286 394.227C126.286 397.224 124.618 401.511 129.569 401.998C138.365 402.864 150.043 409.168 155.699 413.954C158.434 416.268 162.208 418.201 164.334 420.862C166.254 423.264 167.969 425.308 170.496 427.371C172.59 429.08 174.423 430.889 176.432 432.651C180.218 435.971 174.053 433.317 171.62 432.419"
        stroke="#0D0D0D" stroke-width="2.43185" stroke-linecap="round" />
    <path
        d="M75.2885 382.205C80.0205 384.607 78.5267 389.476 78.5267 393.231C78.5267 397.216 78.5267 401.202 78.5267 405.187C78.5267 407.638 78.6495 410.11 78.5267 412.56C78.4704 413.68 76.2478 413.284 75.1536 413.722C71.7906 415.067 68.8336 417.157 65.9338 418.969C59.9901 422.683 52.7108 425.035 46.6848 428.7C42.8397 431.038 41.8074 433.812 39.1291 436.637C37.2853 438.582 35.6211 439.541 35.6211 441.984"
        stroke="#0D0D0D" stroke-width="2.43185" stroke-linecap="round" />
    <path
        d="M44.5273 405.519C47.7303 408.614 50.6139 411.809 55.5461 413.523C61.1173 415.459 68.2922 415.477 74.3004 415.615C83.7486 415.831 93.228 415.681 102.679 415.681C109.899 415.681 118.079 416.336 125.166 414.951C128.421 414.315 144.16 405.563 140.053 402.53"
        stroke="#0D0D0D" stroke-width="2.43185" stroke-linecap="round" />
    <path
        d="M334.339 58.8649C331.451 54.33 334.612 46.8997 337.172 42.9593C341.537 36.2419 352.933 37.1684 358.895 41.9163C365.439 47.1282 365.528 57.1265 365.551 64.5144C365.579 73.4316 365.163 83.4918 360.604 91.5017C358.614 94.998 355.668 97.7048 352.778 100.497C346.545 106.521 341.123 112.959 337.217 120.662C331.099 132.729 336.326 149.605 352.149 149.605C355.246 149.605 362.954 151.109 365.416 148.605C367.416 146.571 366.72 142.822 366.72 140.218"
        stroke="#0D0D0D" stroke-width="2.43185" stroke-linecap="round" />
    <path
        d="M354.58 171.453C354.696 171.486 354.809 171.521 354.92 171.557C355.294 171.522 355.717 171.507 356.197 171.507C357.278 171.507 360.972 170.853 361.054 172.289C361.266 175.975 358.969 178.687 355.279 179.803C355.194 180.118 355.08 180.453 354.938 180.807C354.138 182.795 353.439 181.848 352.942 180.295C350.511 180.554 350.741 179.287 349.271 177.461C347.491 175.25 347.019 170.725 351.07 170.725C351.235 170.725 353.072 171.011 354.58 171.453Z"
        fill="#FFD363" />
    <path
        d="M354.578 169.943C354.489 170.494 354.417 174.564 356.377 172.941C357.792 171.769 351.386 170.725 351.07 170.725C347.019 170.725 347.491 175.25 349.271 177.461C351.017 179.631 350.365 181.01 354.623 179.981C358.694 178.998 361.278 176.189 361.054 172.289C360.972 170.853 357.278 171.507 356.197 171.507C352.459 171.507 352.149 172.429 352.149 176.157C352.149 177.048 353.341 184.775 354.938 180.807C356.14 177.819 355.311 176.201 352.149 176.201"
        stroke="#0D0D0D" stroke-width="2.43185" stroke-linecap="round" />
    <path
        d="M441.424 191.237C450.466 202.997 460.216 213.737 471.917 222.97C471.928 222.191 471.962 221.403 471.962 220.614C471.962 217.806 470.569 213.764 473.581 216.529C475.913 218.67 479.684 219.702 482.486 221.136C485.353 222.602 487.632 225.364 490.311 227.09C495.28 230.29 501.063 234.868 507.222 234.868C511.222 234.868 502.399 231.098 501.465 230.088C497.184 225.455 491.516 222.873 486.893 218.876C484.362 216.687 479.592 214.001 476.19 213.14C474.671 212.755 469.888 210.619 473.401 210.619C476.334 210.619 492.674 212.093 486.354 206.664C484.226 204.837 481.377 204.044 478.753 203.144C474.755 201.774 471.657 199.676 468.229 197.321C459.868 191.576 450.116 187.764 441.514 182.458C441.249 182.295 434.706 179.234 434.858 179.894C435.753 183.786 439.044 188.141 441.424 191.237Z"
        fill="#FFD363" />
    <path
        d="M475.2 225.482C462.017 215.706 451.298 204.08 441.424 191.237C439.044 188.141 435.753 183.786 434.858 179.894C434.706 179.234 441.249 182.295 441.514 182.458C450.116 187.764 459.868 191.576 468.229 197.321C471.657 199.676 474.755 201.774 478.753 203.144C481.377 204.044 484.226 204.837 486.354 206.664C492.674 212.093 476.334 210.619 473.401 210.619C469.888 210.619 474.671 212.755 476.19 213.14C479.592 214.001 484.362 216.687 486.893 218.876C491.516 222.873 497.184 225.455 501.465 230.088C502.399 231.098 511.222 234.868 507.222 234.868C501.063 234.868 495.28 230.29 490.311 227.09C487.632 225.364 485.353 222.602 482.486 221.136C479.684 219.702 475.913 218.67 473.581 216.529C470.569 213.764 471.962 217.806 471.962 220.614C471.962 223.111 471.619 225.6 472.771 227.828"
        stroke="#0D0D0D" stroke-width="2.43185" stroke-linecap="round" />
</svg>