<svg width="1882" height="505" viewBox="0 0 1882 505" fill="none" xmlns="http://www.w3.org/2000/svg">
    <path d="M403.012 130.223H394.131" stroke="black" stroke-width="2" stroke-miterlimit="10"
        stroke-linecap="round" />
    <path d="M377.226 130.223H81.3364" stroke="black" stroke-width="2" stroke-miterlimit="10"
        stroke-linecap="round" stroke-dasharray="16.91 16.91" />
    <path d="M72.8815 130.223H64" stroke="black" stroke-width="2" stroke-miterlimit="10"
        stroke-linecap="round" />
    <g clip-path="url(#clip0_0_1)">
        <path
            d="M820.095 176.517C821.108 176.404 821.805 177.519 821.25 178.38C815.453 187.37 808.908 200.907 810.488 216.283C815.713 267.128 906.398 304.816 978.082 304.59C1030.37 304.426 1077.34 283.982 1091.77 277.698C1110.89 269.376 1115.9 264.937 1142.94 250.806C1195.71 223.224 1241.72 196.972 1253.37 202.311C1264.26 207.298 1491.78 240.627 1567.79 282.125C1629.67 315.913 1663.77 369.475 1670.85 406.518C1673.05 418.027 1669.89 432.419 1656.74 433.794C1629.77 436.614 1581.79 438.471 1520.71 439.62C1526.03 429.486 1529.9 418.469 1532.06 406.857C1532.27 405.697 1532.47 404.531 1532.65 403.359C1532.65 403.353 1532.65 403.353 1532.65 403.353C1532.92 401.592 1533.16 399.82 1533.35 398.037C1533.48 396.848 1533.59 395.648 1533.68 394.448C1533.77 393.247 1533.85 392.047 1533.9 390.836C1533.99 389.018 1534.03 387.19 1534.03 385.355V384.778C1534.03 384.467 1534.02 384.155 1534.02 383.844C1534.01 383.34 1534 382.836 1533.99 382.332C1533.98 381.874 1533.97 381.415 1533.95 380.957C1533.94 380.804 1533.95 380.668 1533.9 380.481C1533.82 380.107 1533.87 379.728 1533.88 379.343C1533.88 379.332 1533.88 379.326 1533.87 379.315C1533.85 378.822 1533.82 378.33 1533.79 377.837C1533.76 377.339 1533.73 376.841 1533.69 376.348C1533.65 375.895 1533.62 375.448 1533.58 375.001C1533.5 374.106 1533.41 373.217 1533.31 372.329C1533.31 372.323 1533.31 372.323 1533.31 372.317C1533.27 371.893 1533.22 371.468 1533.17 371.043C1533.07 370.2 1532.96 369.362 1532.83 368.524C1532.83 368.518 1532.83 368.518 1532.83 368.513C1532.78 368.116 1532.72 367.72 1532.66 367.324C1532.54 366.531 1532.41 365.75 1532.27 364.963C1532.27 364.963 1532.27 364.957 1532.27 364.952C1532.14 364.204 1532 363.463 1531.85 362.715V362.71C1522.73 315.782 1485.75 279.068 1438.73 270.316C1438.72 270.316 1438.72 270.316 1438.72 270.316C1437.55 270.095 1436.37 269.891 1435.18 269.71C1435.18 269.704 1435.18 269.704 1435.17 269.71C1434.34 269.574 1433.5 269.455 1432.67 269.347C1431.82 269.234 1430.98 269.132 1430.13 269.036C1428.79 268.883 1427.45 268.759 1426.1 268.657C1423.09 268.425 1420.05 268.306 1416.98 268.306C1352.34 268.306 1299.93 320.708 1299.93 385.355C1299.93 405.589 1305.07 424.629 1314.1 441.234C1107.41 441.319 875.067 438.222 798.451 437.106C800.139 433.693 801.661 430.183 803.015 426.593C803.349 425.704 803.677 424.804 803.988 423.904C804.453 422.574 804.894 421.232 805.307 419.879C805.54 419.137 805.76 418.395 805.97 417.648C807.136 413.595 808.087 409.45 808.806 405.227C808.936 404.48 809.055 403.727 809.169 402.968C809.627 399.934 809.972 396.865 810.193 393.757C810.261 392.783 810.318 391.804 810.363 390.824C810.448 388.99 810.488 387.15 810.488 385.299C810.488 384.116 810.471 382.932 810.431 381.755C810.425 381.421 810.414 381.092 810.397 380.764C810.38 380.283 810.363 379.807 810.335 379.332C810.289 378.364 810.227 377.395 810.154 376.439C810.114 375.884 810.069 375.335 810.018 374.786C809.899 373.466 809.763 372.147 809.599 370.84C809.446 369.611 809.282 368.394 809.089 367.177C808.851 365.62 808.58 364.074 808.274 362.54C808.138 361.844 807.997 361.147 807.844 360.457C798.621 317.537 765.978 283.507 723.857 272.28C723.177 272.099 722.498 271.923 721.813 271.754C721.807 271.748 721.807 271.748 721.802 271.754C720.392 271.403 718.971 271.074 717.544 270.78H717.539C716.395 270.536 715.246 270.316 714.091 270.112C713.706 270.044 713.315 269.976 712.93 269.914C712.121 269.778 711.311 269.653 710.501 269.534C710.065 269.472 709.63 269.41 709.188 269.353C707.892 269.178 706.584 269.025 705.27 268.895C704.829 268.849 704.393 268.81 703.951 268.77C700.362 268.453 696.727 268.294 693.053 268.306C627.805 268.515 575.652 321.472 576.4 386.72C576.569 401.389 579.428 415.412 584.524 428.309C508.457 428.309 459.01 421.022 426.876 411.551C413.843 407.712 403.16 398.196 398.201 385.542C387.303 357.756 397.669 318.924 466.908 276.645C548.959 226.541 728.992 190.427 728.992 190.427H729.009C745.534 187.195 762.819 184.205 780.827 181.562C794.262 179.591 807.362 177.921 820.095 176.517Z"
            fill="#2E29FF" />
        <path
            d="M936.182 109.905C933.261 108.575 952.091 108.699 952.091 108.699C952.091 108.699 978.734 109.373 983.614 112.849C983.874 113.03 940.394 116.784 936.182 109.905Z"
            stroke="black" stroke-width="1.69842" stroke-miterlimit="10" stroke-linecap="round" />
        <path d="M983.286 104.872L939.619 100.609" stroke="black" stroke-width="2.26457"
            stroke-miterlimit="10" stroke-linecap="round" />
        <path d="M1001.16 103.53L1036.15 102.138" stroke="black" stroke-width="2.26457"
            stroke-miterlimit="10" stroke-linecap="round" />
        <path
            d="M1042.2 109.339C1044.82 108.009 1027.9 108.133 1027.9 108.133C1027.9 108.133 1003.95 108.807 999.567 112.283C999.335 112.464 1038.41 116.218 1042.2 109.339Z"
            stroke="black" stroke-width="1.69842" stroke-miterlimit="10" stroke-linecap="round" />
        <path
            d="M994.903 109.424L1017.59 147.672C1017.94 148.261 1017.34 148.963 1016.7 148.714L989.575 138.274"
            stroke="black" stroke-width="2.83071" stroke-miterlimit="10" stroke-linecap="round" />
        <path
            d="M968.13 142C968.13 142 978.513 149.767 1000.77 152.343C1000.83 152.349 1000.84 152.445 1000.78 152.45C998.515 152.824 986.756 154.545 981.921 150.984"
            stroke="black" stroke-width="2.26457" stroke-miterlimit="10" stroke-linecap="round" />
        <path
            d="M961.455 164.747C961.455 164.747 968 166.395 975.399 167.544H975.405H975.41C983.286 168.772 992.117 169.424 995.05 166.916C997.75 164.606 1003.29 159.148 1008.79 151.856"
            stroke="black" stroke-width="3.39685" stroke-miterlimit="10" stroke-linecap="round" />
        <path d="M1015.91 137.074C1020.06 131.26 1023.78 124.438 1025.28 117.361" stroke="black"
            stroke-width="3.39685" stroke-miterlimit="10" stroke-linecap="round" />
        <path
            d="M1041.39 73.8647C1044.76 82.2776 1049.89 99.109 1049.89 99.109C1042.81 93.0286 1028.04 80.7547 1028.02 80.9642L1026.05 99.5449C1026.17 100.083 1011.55 81.0491 1011.56 81.2755C1011.56 81.2755 1003.97 100.066 1003.64 99.5279C1003.64 99.5279 994.184 80.9132 994.093 81.117C994.093 81.117 984.526 101.175 984.214 100.739L970.349 81.4284C970.191 81.2133 960.867 100.173 960.47 99.7317L950.433 83.2514C943.09 88.0522 935.741 95.095 928.398 99.9016C929.412 94.5289 930.431 89.1562 931.444 83.7835"
            stroke="black" stroke-width="3.96299" stroke-miterlimit="10" stroke-linecap="round"
            stroke-linejoin="round" />
        <path
            d="M895.664 33.8386C915.246 6.13161 963.867 1.7327 963.867 1.7327C1011.56 0.402264 1031.83 39.4603 1031.83 39.4603"
            stroke="black" stroke-width="3.39685" stroke-miterlimit="10" stroke-linecap="round"
            stroke-linejoin="round" />
        <path
            d="M889.901 169.995C889.901 169.995 900.193 155.383 905.192 151.205C911.069 150.996 871.592 94.9874 899.622 42.3306"
            stroke="black" stroke-width="4.52913" stroke-miterlimit="10" stroke-linecap="round"
            stroke-linejoin="round" />
        <path
            d="M876.857 169.995C876.857 169.995 887.149 155.383 892.148 151.205C898.025 150.996 858.548 94.9874 886.578 42.3306"
            stroke="black" stroke-width="2.26457" stroke-miterlimit="10" stroke-linecap="round"
            stroke-linejoin="round" />
        <path
            d="M1034.33 44.8724C1035.14 44.8724 1035.95 44.9007 1036.77 44.963C1049.42 45.8971 1054.35 49.7582 1056.09 58.0182C1057.64 65.4177 1045.61 66.7198 1034.23 66.7198C1032.91 66.7198 1031.59 66.7028 1030.31 66.6745C1017.98 66.4084 1011.86 56.5519 1008.79 54.8195C1006.36 53.4495 1003.74 52.838 1001.31 52.838C997.247 52.838 993.72 54.5534 992.548 57.3558C989.575 64.4553 982.957 69.743 982.957 69.743C972.744 76.2933 962.01 77.8162 953.41 77.8162C945.943 77.8162 940.089 76.6669 937.587 76.6669C937.524 76.6669 937.456 76.6669 937.4 76.6669C937.36 76.6669 937.321 76.6669 937.281 76.6669C932.135 76.6669 919.046 68.0786 922.878 60.413C926.303 53.5684 944.986 47.0181 961.099 47.0181C963.171 47.0181 965.203 47.1257 967.156 47.3578C977.89 48.626 987.673 50.8905 990.662 50.8905C990.962 50.8905 991.189 50.8679 991.347 50.8169C993.08 50.2847 1000.41 48.8184 1000.41 48.8184C1000.41 48.8184 1007.34 48.9543 1009.58 49.8828C1009.72 49.9451 1009.91 49.9734 1010.13 49.9734C1013.18 49.9734 1023.38 44.8724 1034.33 44.8724ZM1034.33 41.4756C1026.64 41.4756 1019.37 43.7968 1014.55 45.3367C1013.02 45.8292 1011.15 46.4237 1010.34 46.5595C1007.51 45.6367 1002.14 45.4612 1000.47 45.4329L1000.11 45.4272L999.743 45.5009C999.007 45.648 992.78 46.8992 990.623 47.505C989.44 47.4937 986.241 46.9332 982.85 46.3444C978.553 45.5971 973.208 44.663 967.553 43.9949C965.52 43.7571 963.346 43.6326 961.099 43.6326C953.054 43.6326 943.944 45.2065 936.109 47.9522C931.223 49.662 922.612 53.3646 919.844 58.9014C918.196 62.202 918.508 65.9952 920.727 69.5902C924.373 75.495 932.622 80.0694 937.281 80.0694C937.349 80.0694 937.417 80.0694 937.485 80.0694H937.587C938.311 80.0694 939.659 80.2223 941.221 80.3978C944.29 80.7431 948.491 81.2187 953.41 81.2187C965.322 81.2187 975.88 78.3201 984.792 72.6077L984.939 72.5115L985.075 72.4039C985.375 72.1661 992.412 66.482 995.678 58.675C996.182 57.4691 998.277 56.2462 1001.3 56.2462C1003.31 56.2462 1005.33 56.7784 1007.12 57.7918C1007.49 58.0069 1008.5 58.9807 1009.3 59.7676C1013.16 63.5381 1019.61 69.8562 1030.24 70.0827C1031.67 70.1167 1032.98 70.128 1034.23 70.128C1047.3 70.128 1054.58 68.3503 1057.82 64.3647C1059.41 62.4002 1059.97 59.9658 1059.41 57.3332C1057.28 47.1653 1050.8 42.6022 1037.02 41.5888C1036.15 41.5039 1035.24 41.4756 1034.33 41.4756Z"
            fill="black" />
        <path d="M974.612 180.916C989.972 193.7 1091.1 219.21 1091.1 219.21" stroke="black"
            stroke-width="2.26457" stroke-miterlimit="10" stroke-linecap="round" />
        <path d="M914.851 115.657C920.976 135.597 944.12 160.62 966.681 175.6" stroke="black"
            stroke-width="3.39685" stroke-miterlimit="10" stroke-linecap="round" />
        <path d="M973.004 167.782C969.155 171.496 955.126 192.432 967.615 201.105" stroke="black"
            stroke-width="2.83071" stroke-miterlimit="10" stroke-linecap="round" />
        <path d="M935.729 265.181C1025.28 293.55 1082.75 274.494 1095.38 269.931" stroke="black"
            stroke-width="2.26457" stroke-miterlimit="10" stroke-linecap="round" />
        <path
            d="M1140.53 193.145C1169.88 171.603 1191.36 149.994 1198.62 149.167C1203.68 148.595 1208.33 149.92 1208.33 149.92C1211.32 150.781 1215.75 152.038 1218.2 155.819C1218.96 156.991 1219.34 158.107 1219.77 168.495C1220.14 177.219 1220.1 177.899 1219.77 178.839C1219.25 180.39 1217.07 185.587 1207.26 188.752"
            stroke="black" stroke-width="4.52913" stroke-miterlimit="10" stroke-linecap="round" />
        <path
            d="M936.788 191.424C936.788 191.424 991.432 251.22 1059.88 236.981C1085.55 231.643 1109.95 218.565 1131.12 204.224"
            stroke="black" stroke-width="3.39685" stroke-miterlimit="10" stroke-linecap="round" />
        <path
            d="M823.509 466.631C832.607 457.578 840.227 447.037 845.968 435.408C847.655 431.994 849.178 428.484 850.531 424.895C850.865 424.006 851.193 423.106 851.505 422.206C851.969 420.875 852.411 419.534 852.824 418.18C853.056 417.439 853.277 416.697 853.486 415.95C854.652 411.896 855.604 407.752 856.323 403.529C856.453 402.781 856.572 402.028 856.685 401.27C857.143 398.235 857.489 395.167 857.71 392.059C857.778 391.085 857.834 390.105 857.879 389.126C857.964 387.292 858.004 385.452 858.004 383.601C858.004 382.417 857.987 381.234 857.947 380.056C857.942 379.722 857.93 379.394 857.913 379.066C857.896 378.585 857.879 378.109 857.851 377.633C857.806 376.665 857.744 375.697 857.67 374.74C857.63 374.186 857.585 373.636 857.534 373.087C857.415 371.768 857.279 370.449 857.115 369.141C856.962 367.913 856.798 366.696 856.606 365.478C856.368 363.921 856.096 362.376 855.79 360.842C846.993 316.366 813.013 280.942 769.329 270.055C769.324 270.05 769.324 270.05 769.318 270.055C767.908 269.704 766.487 269.382 765.061 269.081H765.055C763.911 268.844 762.762 268.623 761.607 268.413C761.222 268.345 760.831 268.278 760.447 268.215C759.637 268.079 758.827 267.955 758.018 267.836C757.582 267.774 757.146 267.711 756.704 267.655C755.408 267.479 754.1 267.326 752.787 267.196C752.345 267.151 751.909 267.111 751.468 267.072C748.003 266.766 744.498 266.607 740.954 266.607C716.712 266.607 694.191 273.979 675.514 286.598M675.508 286.598C644.371 307.63 623.899 343.252 623.899 383.657C623.899 398.818 626.781 413.312 632.029 426.61H632.034C649.16 469.999 691.468 500.701 740.949 500.701C754.23 500.701 766.997 498.488 778.903 494.411M760.481 364.125C765.48 369.124 768.571 376.031 768.571 383.657C768.571 398.909 756.206 411.274 740.954 411.274C725.702 411.274 713.338 398.909 713.338 383.657C713.338 372.289 720.211 362.517 730.028 358.283"
            stroke="black" stroke-width="6.7937" stroke-miterlimit="10" stroke-linecap="round"
            stroke-linejoin="round" />
        <path
            d="M812.639 380.056C812.633 379.722 812.622 379.394 812.605 379.066C812.588 378.585 812.571 378.109 812.543 377.633C812.497 376.665 812.435 375.697 812.362 374.74C812.322 374.186 812.277 373.636 812.226 373.087C812.107 371.768 811.971 370.449 811.807 369.141C811.654 367.913 811.49 366.696 811.297 365.478C811.059 363.921 810.788 362.376 810.482 360.842C801.684 316.366 767.704 280.942 724.021 270.055C724.015 270.05 724.015 270.05 724.01 270.055C722.6 269.704 721.179 269.382 719.752 269.081H719.747C718.603 268.844 717.454 268.623 716.299 268.413C715.914 268.345 715.523 268.278 715.138 268.215C714.329 268.079 713.519 267.955 712.709 267.836C712.273 267.774 711.838 267.711 711.396 267.655C710.099 267.479 708.792 267.326 707.478 267.196C707.037 267.151 706.601 267.111 706.159 267.072C702.694 266.766 699.19 266.607 695.646 266.607C631.004 266.607 578.596 319.009 578.596 383.657C578.596 398.818 581.478 413.312 586.726 426.61H586.732C603.857 469.999 646.165 500.701 695.646 500.701C741.707 500.701 781.564 474.093 800.659 435.408C802.347 431.994 803.87 428.484 805.223 424.895C805.557 424.006 805.885 423.106 806.196 422.206C806.661 420.875 807.102 419.534 807.515 418.18C807.748 417.439 807.968 416.697 808.178 415.95C809.344 411.896 810.295 407.752 811.014 403.529C811.144 402.781 811.263 402.028 811.377 401.27C811.835 398.235 812.18 395.167 812.401 392.059C812.469 391.085 812.526 390.105 812.571 389.126C812.656 387.292 812.696 385.452 812.696 383.601C812.696 382.417 812.679 381.234 812.639 380.056Z"
            stroke="black" stroke-width="3.39685" stroke-miterlimit="10" stroke-linecap="round" />
        <path
            d="M778.88 380.056C778.875 379.722 778.863 379.394 778.846 379.066C778.829 378.585 778.812 378.109 778.784 377.633C778.739 376.665 778.676 375.697 778.603 374.74C778.563 374.186 778.518 373.636 778.467 373.087C778.348 371.768 778.212 370.449 778.048 369.141C777.895 367.913 777.731 366.696 777.538 365.478C777.301 363.921 777.029 362.376 776.723 360.842C767.925 316.366 733.946 280.942 690.262 270.055C690.256 270.05 690.256 270.05 690.251 270.055C688.841 269.704 687.42 269.382 685.993 269.081H685.988C684.844 268.844 683.695 268.623 682.54 268.413C682.155 268.345 681.764 268.278 681.379 268.215C680.57 268.079 679.76 267.955 678.951 267.836C678.515 267.774 678.079 267.711 677.637 267.655C676.341 267.479 675.033 267.326 673.719 267.196C673.278 267.151 672.842 267.111 672.4 267.072C668.936 266.766 665.431 266.607 661.887 266.607C597.245 266.607 544.837 319.009 544.837 383.657C544.837 398.818 547.719 413.312 552.967 426.61H552.973C570.099 469.999 612.406 500.701 661.887 500.701C707.948 500.701 747.805 474.093 766.901 435.408C768.588 431.994 770.111 428.484 771.464 424.895C771.798 424.006 772.126 423.106 772.438 422.206C772.902 420.875 773.343 419.534 773.757 418.18C773.989 417.439 774.21 416.697 774.419 415.95C775.585 411.896 776.536 407.752 777.255 403.529C777.386 402.781 777.505 402.028 777.618 401.27C778.076 398.235 778.422 395.167 778.642 392.059C778.71 391.085 778.767 390.105 778.812 389.126C778.897 387.292 778.937 385.452 778.937 383.601C778.937 382.417 778.92 381.234 778.88 380.056Z"
            stroke="black" stroke-width="1.69842" stroke-miterlimit="10" stroke-linecap="round"
            stroke-linejoin="round" />
        <path
            d="M1502.99 380.056C1502.99 379.722 1502.98 379.394 1502.96 379.066C1502.94 378.585 1502.92 378.109 1502.9 377.633C1502.85 376.665 1502.79 375.697 1502.71 374.74C1502.68 374.186 1502.63 373.636 1502.58 373.087C1502.46 371.768 1502.32 370.449 1502.16 369.141C1502.01 367.913 1501.84 366.696 1501.65 365.478C1501.41 363.921 1501.14 362.376 1500.84 360.842C1492.04 316.366 1458.06 280.942 1414.37 270.055C1414.37 270.05 1414.37 270.05 1414.36 270.055C1412.95 269.704 1411.53 269.382 1410.11 269.081H1410.1C1408.96 268.844 1407.81 268.623 1406.65 268.413C1406.27 268.345 1405.88 268.278 1405.49 268.215C1404.68 268.079 1403.87 267.955 1403.06 267.836C1402.63 267.774 1402.19 267.711 1401.75 267.655C1400.45 267.479 1399.14 267.326 1397.83 267.196C1397.39 267.151 1396.95 267.111 1396.51 267.072C1393.05 266.766 1389.54 266.607 1386 266.607C1321.36 266.607 1268.95 319.009 1268.95 383.657C1268.95 398.818 1271.83 413.312 1277.08 426.61H1277.08C1294.21 469.999 1336.52 500.701 1386 500.701C1432.06 500.701 1471.92 474.093 1491.01 435.408C1492.7 431.994 1494.22 428.484 1495.58 424.895C1495.91 424.006 1496.24 423.106 1496.55 422.206C1497.01 420.875 1497.46 419.534 1497.87 418.18C1498.1 417.439 1498.32 416.697 1498.53 415.95C1499.7 411.896 1500.65 407.752 1501.37 403.529C1501.5 402.781 1501.62 402.028 1501.73 401.27C1502.19 398.235 1502.53 395.167 1502.75 392.059C1502.82 391.085 1502.88 390.105 1502.92 389.126C1503.01 387.292 1503.05 385.452 1503.05 383.601C1503.05 382.417 1503.03 381.234 1502.99 380.056Z"
            stroke="black" stroke-width="1.69842" stroke-miterlimit="10" stroke-linecap="round"
            stroke-linejoin="round" />
        <path
            d="M1534.04 380.056C1534.04 379.722 1534.03 379.394 1534.01 379.066C1533.99 378.585 1533.98 378.109 1533.95 377.633C1533.9 376.665 1533.84 375.697 1533.77 374.74C1533.73 374.186 1533.68 373.636 1533.63 373.087C1533.51 371.768 1533.38 370.449 1533.21 369.141C1533.06 367.913 1532.9 366.696 1532.7 365.478C1532.47 363.921 1532.19 362.376 1531.89 360.842C1523.09 316.366 1489.11 280.942 1445.43 270.055C1445.42 270.05 1445.42 270.05 1445.42 270.055C1444.01 269.704 1442.58 269.382 1441.16 269.081H1441.15C1440.01 268.844 1438.86 268.623 1437.7 268.413C1437.32 268.345 1436.93 268.278 1436.54 268.215C1435.73 268.079 1434.92 267.955 1434.12 267.836C1433.68 267.774 1433.24 267.711 1432.8 267.655C1431.51 267.479 1430.2 267.326 1428.88 267.196C1428.44 267.151 1428.01 267.111 1427.56 267.072C1424.1 266.766 1420.6 266.607 1417.05 266.607C1352.41 266.607 1300 319.009 1300 383.657C1300 398.818 1302.88 413.312 1308.13 426.61H1308.14C1325.26 469.999 1367.57 500.701 1417.05 500.701C1463.11 500.701 1502.97 474.093 1522.07 435.408C1523.75 431.994 1525.28 428.484 1526.63 424.895C1526.96 424.006 1527.29 423.106 1527.6 422.206C1528.07 420.875 1528.51 419.534 1528.92 418.18C1529.15 417.439 1529.37 416.697 1529.58 415.95C1530.75 411.896 1531.7 407.752 1532.42 403.529C1532.55 402.781 1532.67 402.028 1532.78 401.27C1533.24 398.235 1533.59 395.167 1533.81 392.059C1533.87 391.085 1533.93 390.105 1533.98 389.126C1534.06 387.292 1534.1 385.452 1534.1 383.601C1534.1 382.417 1534.08 381.234 1534.04 380.056Z"
            stroke="black" stroke-width="3.39685" stroke-miterlimit="10" stroke-linecap="round" />
        <path
            d="M1388.29 295.328C1408.84 277.438 1435.7 266.607 1465.09 266.607C1468.16 266.607 1471.2 266.726 1474.22 266.958C1475.56 267.06 1476.9 267.185 1478.24 267.338C1479.09 267.434 1479.93 267.536 1480.78 267.649C1481.61 267.762 1482.45 267.881 1483.28 268.011C1483.29 268.006 1483.3 268.006 1483.3 268.011C1484.48 268.193 1485.66 268.396 1486.83 268.617C1486.83 268.617 1486.83 268.617 1486.84 268.617C1533.75 277.438 1570.79 314.237 1579.96 361.011V361.017C1580.11 361.759 1580.25 362.506 1580.38 363.253C1580.38 363.259 1580.38 363.265 1580.38 363.265C1580.51 364.052 1580.64 364.839 1580.77 365.626C1580.83 366.022 1580.89 366.418 1580.94 366.814C1580.94 366.82 1580.94 366.82 1580.94 366.826C1581.07 367.664 1581.18 368.502 1581.28 369.345C1581.33 369.77 1581.38 370.194 1581.43 370.619C1581.43 370.625 1581.43 370.625 1581.43 370.63C1581.52 371.519 1581.61 372.408 1581.69 373.302C1581.73 373.75 1581.76 374.197 1581.8 374.65C1581.84 375.142 1581.87 375.641 1581.9 376.139C1581.93 376.631 1581.96 377.124 1581.99 377.616C1581.99 377.633 1581.99 377.65 1581.99 377.673C1582.01 378.115 1582.03 378.562 1582.05 379.009C1582.05 379.094 1582.05 379.173 1582.06 379.258C1582.08 379.717 1582.09 380.175 1582.1 380.634C1582.12 381.138 1582.12 381.642 1582.13 382.146C1582.13 382.649 1582.14 383.153 1582.14 383.657C1582.14 385.491 1582.1 387.32 1582.01 389.137C1581.96 390.349 1581.88 391.549 1581.79 392.749C1581.7 393.95 1581.59 395.15 1581.46 396.339C1581.27 398.122 1581.03 399.894 1580.76 401.655C1580.76 401.655 1580.76 401.655 1580.76 401.66C1580.58 402.832 1580.38 403.999 1580.17 405.159C1578.01 416.771 1574.14 427.788 1568.82 437.922C1566.64 442.089 1564.21 446.108 1561.56 449.958C1558.67 454.159 1555.51 458.161 1552.1 461.937C1549.13 465.244 1545.98 468.375 1542.65 471.318M1529.63 481.311C1525.47 484.068 1521.13 486.565 1516.61 488.778C1512.24 490.924 1507.71 492.809 1503.05 494.406M1484.59 499.082C1478.25 500.146 1471.73 500.701 1465.09 500.701C1420.68 500.701 1382.05 475.972 1362.22 439.535C1353.18 422.93 1348.04 403.891 1348.04 383.657C1348.04 373.948 1349.22 364.516 1351.45 355.492C1353.38 347.673 1356.1 340.166 1359.51 333.055M1375.04 308.87C1372.27 312.21 1369.68 315.703 1367.28 319.343"
            stroke="black" stroke-width="6.7937" stroke-miterlimit="10" stroke-linecap="round"
            stroke-linejoin="round" />
        <path
            d="M1348.04 383.657C1348.04 403.891 1353.18 422.93 1362.22 439.535C1155.52 439.62 923.178 436.523 846.562 435.408"
            stroke="black" stroke-width="6.7937" stroke-miterlimit="10" stroke-linecap="round" />
        <path
            d="M632.629 426.61C556.562 426.61 507.116 419.324 474.981 409.852C461.949 406.014 451.266 396.497 446.306 383.844C435.408 356.058 445.774 317.226 515.013 274.947C597.064 224.843 777.097 188.729 777.097 188.729H777.114C793.64 185.496 810.924 182.507 828.933 179.863C842.368 177.893 855.468 176.223 868.206 174.819C869.22 174.706 869.916 175.821 869.361 176.681C863.564 185.672 857.019 199.208 858.599 214.585C863.824 265.43 954.509 303.118 1026.19 302.891C1078.48 302.727 1125.45 282.284 1139.89 276C1159 267.677 1164.02 263.239 1191.05 249.108C1243.82 221.525 1289.83 195.273 1301.49 200.612C1312.37 205.6 1539.89 238.929 1615.9 280.427C1677.78 314.214 1711.88 367.777 1718.96 404.819C1721.17 416.329 1718 430.72 1704.86 432.096C1677.88 434.915 1629.9 436.772 1568.82 437.922"
            stroke="black" stroke-width="6.7937" stroke-miterlimit="10" stroke-linecap="round" />
        <path
            d="M1209.49 222.063C1225.51 178 1240.99 138.189 1244.48 139.282C1244.54 139.299 1244.58 139.322 1244.61 139.344C1248.47 141.762 1279.04 175.566 1301.49 200.618"
            stroke="black" stroke-width="2.83071" stroke-miterlimit="10" stroke-linecap="round" />
        <path
            d="M1492.71 383.657C1492.71 398.909 1480.34 411.273 1465.09 411.273C1449.84 411.273 1437.47 398.909 1437.47 383.657C1437.47 368.405 1449.84 356.035 1465.09 356.035C1480.34 356.035 1492.71 368.405 1492.71 383.657Z"
            stroke="black" stroke-width="3.96299" stroke-miterlimit="10" stroke-linecap="round"
            stroke-linejoin="round" />
        <path d="M567.874 375.533H2.83057" stroke="black" stroke-width="5.66141"
            stroke-miterlimit="10" stroke-linecap="round" />
        <path d="M678.011 165.047H322.508" stroke="black" stroke-width="1.69842"
            stroke-miterlimit="10" stroke-linecap="round" />
        <path d="M518.874 295.328H132.075" stroke="black" stroke-width="1.69842"
            stroke-miterlimit="10" stroke-linecap="round" />
        <path d="M593.695 195.517H585.203" stroke="black" stroke-width="5.09527"
            stroke-miterlimit="10" stroke-linecap="round" />
        <path d="M569.04 195.517H286.122" stroke="black" stroke-width="5.09527"
            stroke-miterlimit="10" stroke-linecap="round" stroke-dasharray="16.17 16.17" />
        <path d="M278.038 195.517H269.545" stroke="black" stroke-width="5.09527"
            stroke-miterlimit="10" stroke-linecap="round" />
        <path d="M376.767 239.172H192.596" stroke="black" stroke-width="5.66141"
            stroke-miterlimit="10" stroke-linecap="round" />
        <path d="M579.468 257.968H395.297" stroke="black" stroke-width="6.7937"
            stroke-miterlimit="10" stroke-linecap="round" />
        <path d="M575.743 331.295H50.5508" stroke="black" stroke-width="3.96299"
            stroke-miterlimit="10" stroke-linecap="round" />
        <path d="M1161.99 186.023C1161.99 186.023 1176.53 196.565 1184.77 195.953" stroke="black"
            stroke-width="3.39685" stroke-miterlimit="10" stroke-linecap="round" />
        <path
            d="M971.107 110.692C971.107 110.692 969.613 114.032 967.767 114.032C965.921 114.032 964.427 110.692 964.427 110.692H971.107Z"
            fill="black" stroke="black" stroke-width="2.26457" stroke-miterlimit="10"
            stroke-linecap="round" />
        <path
            d="M1032.9 109.163C1032.9 109.163 1031.4 112.504 1029.56 112.504C1027.71 112.504 1026.22 109.163 1026.22 109.163H1032.9Z"
            fill="black" stroke="black" stroke-width="2.26457" stroke-miterlimit="10"
            stroke-linecap="round" />
        <path
            d="M382.627 385.933C370.919 360.089 378.856 322.723 442.513 279.193C517.946 227.611 687.075 184.505 687.075 184.505H687.092C702.621 180.627 718.886 176.942 735.848 173.551C748.507 171.02 760.86 168.795 772.879 166.836"
            stroke="black" stroke-width="2.83071" stroke-miterlimit="10" stroke-linecap="round" />
        <path
            d="M1210.66 198.795C1214.71 205.798 1195.37 224.526 1167.47 240.633C1139.57 256.739 1113.68 259.763 1109.64 257.119"
            stroke="black" stroke-width="5.09527" stroke-miterlimit="10" stroke-linecap="round" />
        <path
            d="M1205.97 187.885C1210.01 194.889 1190.67 213.622 1162.78 229.723C1134.88 245.83 1111.4 250.806 1104.95 246.209"
            stroke="black" stroke-width="2.26457" stroke-miterlimit="10" stroke-linecap="round" />
        <path
            d="M1207.26 188.757C1207.26 188.757 1201.42 181.562 1194.23 188.757C1187.04 195.953 1168.27 210.746 1134.54 228.67"
            stroke="black" stroke-width="2.26457" stroke-miterlimit="10" stroke-linecap="round" />
        <path d="M223.122 395.178H773.338" stroke="black" stroke-width="5.09527"
            stroke-miterlimit="10" stroke-linecap="round" stroke-dasharray="28.31 28.31" />
        <path
            d="M1140.53 98.871L1153.83 62.1851C1153.83 62.1851 1211.63 88.5616 1212.2 88.2162C1212.23 88.1993 1212.27 88.2276 1212.27 88.2672"
            stroke="black" stroke-width="2.26457" stroke-miterlimit="10" stroke-linecap="round" />
        <path
            d="M1135.1 106.163L1163.36 100.071L1180.19 96.4368L1197.03 92.8078L1212.83 89.3997L1209.99 98.5315L1206.96 108.258L1203.93 117.99L1193.39 151.851"
            stroke="black" stroke-width="3.96299" stroke-miterlimit="10" stroke-linecap="round"
            stroke-linejoin="round" />
        <path d="M1113.1 192.975L1132.27 112.957" stroke="black" stroke-width="5.66141"
            stroke-miterlimit="10" stroke-linecap="round" stroke-linejoin="round" />
        <path d="M1196.47 92.8076L1157.23 75.478" stroke="black" stroke-width="1.69842"
            stroke-miterlimit="10" stroke-linecap="round" stroke-linejoin="round" />
        <path d="M1179.63 96.4367L1153.14 84.7402" stroke="black" stroke-width="1.69842"
            stroke-miterlimit="10" stroke-linecap="round" stroke-linejoin="round" />
        <path d="M1162.79 100.071L1149.05 94.0022" stroke="black" stroke-width="1.69842"
            stroke-miterlimit="10" stroke-linecap="round" stroke-linejoin="round" />
    </g>
    <path d="M1689 21L1932 21" stroke="black" stroke-width="5.32889" stroke-miterlimit="10"
        stroke-linecap="round" stroke-dasharray="29.6 29.6" />
    <path d="M1561 85L1932 85" stroke="black" stroke-width="5.32889" stroke-miterlimit="10"
        stroke-linecap="round" stroke-dasharray="29.6 29.6" />
    <defs>
        <clipPath id="clip0_0_1">
            <rect width="1723" height="504.098" fill="white" />
        </clipPath>
    </defs>
</svg>