<svg width="62" height="62" viewBox="0 0 62 62" fill="none" xmlns="http://www.w3.org/2000/svg">
<mask id="mask0_1137_7273" style="mask-type:luminance" maskUnits="userSpaceOnUse" x="1" y="1" width="61" height="61">
<path d="M54.0369 61.4745H8.43736C4.33246 61.4745 1 58.147 1 54.0372V8.4376C1 4.33269 4.32751 1.00024 8.43736 1.00024H54.0369C58.1418 1.00024 61.4743 4.32774 61.4743 8.4376V54.0372C61.4743 58.1421 58.1468 61.4745 54.0369 61.4745Z" fill="white"/>
</mask>
<g mask="url(#mask0_1137_7273)">
<path d="M58.4096 23.8766L58.2412 23.7825V25.877L59.9297 26.5801L58.4096 23.8766Z" fill="#FF7A00"/>
<path d="M43.7272 9.02663C52.6699 16.7908 54.0217 21.3463 54.0217 21.3463L63.0485 26.5802L67.0989 -5.81836L-1.08008 -4.12986L0.425237 16.0579C6.18398 13.5326 18.0827 10.2645 24.9903 8.02145C35.5571 4.58502 43.7272 9.02663 43.7272 9.02663Z" fill="#FF7A00"/>
<path d="M52.6705 25.3967C53.6806 25.3967 55.8792 27.2536 55.8792 27.2536C57.9044 34.171 51.6604 36.3646 51.6604 36.3646L55.5425 43.1137L47.2732 40.0783C42.7177 52.5663 37.9939 50.7095 37.9939 50.7095L27.8678 48.3475L25.5059 50.3727L29.893 53.9181L32.6758 61.4545L67.3274 62.5785L63.9503 29.051L53.854 24.0449L52.6705 25.3967Z" fill="#FF7A00"/>
<path d="M0.272474 16.9048L-1.97559 25.4513L7.44738 27.7588L0.272474 16.9048Z" fill="#FF7A00"/>
<path d="M12.5974 43.1781C5.01154 44.4606 4.97194 40.6033 -2.61396 41.8858C-10.1999 43.1682 -10.1602 47.0256 -17.7461 48.308C-25.332 49.5905 -25.3717 45.7332 -32.9576 47.0157C-40.5435 48.2981 -40.5088 52.1555 -48.0996 53.4379C-55.6905 54.7204 -55.7252 50.8631 -63.316 52.1455C-70.9069 53.428 -76.1903 58.1568 -78.473 58.5678C-79.2504 58.6966 -79.8099 58.6272 -80.0228 58.5926C-80.0674 58.5827 -80.0822 58.5332 -80.0525 58.4935L-76.7547 54.1064C-76.725 54.0618 -76.7399 54.0074 -76.7894 54.0074L-83.2761 53.4033C-83.3256 53.3983 -83.3454 53.3389 -83.3107 53.2993L-76.5072 48.2486C-76.4725 48.209 -76.4874 48.1545 -76.5319 48.1446L-86.7075 44.0843C-86.7521 44.0744 -86.7669 44.0199 -86.7323 43.9803L-82.7165 38.9693C-82.6819 38.9296 -82.6967 38.8752 -82.7462 38.8653L-89.8865 37.667C-89.9459 37.6571 -89.9508 37.5729 -89.8914 37.5432C-88.9556 37.053 -84.6823 34.8198 -84.2911 34.6762C-83.8504 34.5128 -76.6805 29.8731 -69.2283 28.9521C-61.7761 28.0311 -61.9296 31.9132 -54.4773 30.9922C-47.0251 30.0712 -46.8766 26.1891 -39.4244 25.2681C-31.9772 24.3471 -32.1207 28.2292 -24.6735 27.3082C-17.2262 26.3872 -17.0777 22.5051 -9.63042 21.5841C-2.18316 20.6631 -0.341161 28.353 7.10609 27.432L8.5173 31.7597L12.5974 43.1781Z" fill="#F9AC12"/>
<path d="M-79.3591 59.0283C-79.7057 59.0283 -79.9582 58.9937 -80.087 58.9689C-80.2405 58.9441 -80.3643 58.8402 -80.4237 58.6966C-80.4831 58.548 -80.4584 58.3846 -80.3593 58.2509L-77.4081 54.3292L-83.3055 53.7845C-83.469 53.7697 -83.6125 53.6657 -83.6769 53.5122C-83.7413 53.3587 -83.7116 53.1755 -83.6026 53.0467L-83.5729 53.0121L-77.2101 48.2882L-86.8262 44.4507C-86.9549 44.4111 -87.0589 44.3121 -87.1084 44.1833C-87.1629 44.0348 -87.1331 43.8664 -87.0341 43.7377L-83.365 39.1574L-89.9506 38.0532C-90.1388 38.0235 -90.2873 37.875 -90.317 37.6868C-90.3468 37.4887 -90.2477 37.2956 -90.0695 37.2015C-88.5047 36.3845 -84.8208 34.4633 -84.4246 34.3147C-84.3801 34.2949 -84.1572 34.1662 -83.9245 34.0325C-78.5124 30.9377 -73.5805 29.0957 -69.2726 28.5659C-65.445 28.0955 -63.5436 28.8679 -61.7016 29.6107C-59.8744 30.3534 -58.1463 31.0566 -54.5168 30.606C-50.8773 30.1554 -49.065 29.0115 -47.1487 27.7984C-45.2423 26.5951 -43.2765 25.3473 -39.4638 24.8769C-35.6411 24.4065 -33.7348 25.179 -31.8927 25.9217C-30.0656 26.6645 -28.3375 27.3676 -24.7079 26.917C-21.0685 26.4664 -19.2611 25.3226 -17.3448 24.1094C-15.4434 22.9062 -13.4727 21.6584 -9.66486 21.1879C-5.78773 20.7076 -3.3664 22.4754 -1.01933 24.1837C1.30299 25.8771 3.50152 27.4765 7.07165 27.0358L7.38856 26.9962L8.48781 32.1459L13.1225 43.4752L12.667 43.5545C8.77996 44.213 6.79436 43.5396 4.87312 42.891C2.96179 42.2423 1.15446 41.6332 -2.54441 42.2571C-6.25318 42.886 -8.05064 44.1091 -9.95702 45.4064C-11.8485 46.6938 -13.7995 48.0258 -17.6766 48.6794C-21.5686 49.338 -23.5542 48.6645 -25.4705 48.0159C-27.3818 47.3722 -29.1892 46.7582 -32.888 47.3821C-36.5968 48.0109 -38.3992 49.234 -40.3056 50.5313C-42.1971 51.8187 -44.153 53.1507 -48.0301 53.8043C-51.9221 54.4629 -53.9077 53.7895 -55.8289 53.1408C-57.7403 52.4971 -59.5476 51.8831 -63.2465 52.507C-68.104 53.329 -71.9713 55.5622 -74.7937 57.1913C-76.3832 58.1123 -77.5319 58.7758 -78.3985 58.9293C-78.7698 59.0085 -79.0917 59.0283 -79.3591 59.0283ZM-79.3839 58.2509C-79.1511 58.2509 -78.8639 58.2361 -78.5322 58.1816C-77.8043 58.0528 -76.6456 57.3844 -75.1799 56.5377C-72.308 54.8789 -68.3714 52.606 -63.3752 51.7593C-59.4832 51.1008 -57.4976 51.7742 -55.5764 52.4228C-53.6651 53.0666 -51.8577 53.6806 -48.1588 53.0567C-44.4451 52.4278 -42.6477 51.2047 -40.7413 49.9074C-38.8498 48.62 -36.8939 47.288 -33.0168 46.6344C-29.1248 45.9758 -27.1392 46.6492 -25.2229 47.2979C-23.3116 47.9466 -21.5042 48.5556 -17.8053 47.9317C-14.0966 47.3029 -12.2991 46.0798 -10.3928 44.7825C-8.50124 43.495 -6.55029 42.1631 -2.67316 41.5094C1.21387 40.8509 3.19947 41.5243 5.12071 42.173C6.95281 42.7919 8.69083 43.3762 12.0777 42.8761L8.16102 31.8983L6.84386 27.8578C3.14995 28.2044 0.797923 26.4862 -1.47983 24.8274C-3.80214 23.1339 -6.00065 21.5346 -9.57078 21.9753C-13.2053 22.4259 -15.0176 23.5697 -16.9289 24.7828C-18.8304 25.9861 -20.8011 27.2339 -24.6089 27.7043C-28.4315 28.1747 -30.3379 27.4072 -32.1799 26.6595C-34.0071 25.9168 -35.7352 25.2136 -39.3598 25.6642C-42.9993 26.1148 -44.8066 27.2587 -46.7229 28.4718C-48.6293 29.675 -50.5951 30.9229 -54.4078 31.3933C-58.2354 31.8637 -60.1369 31.0912 -61.9789 30.3485C-63.806 29.6057 -65.5341 28.9026 -69.1637 29.3532C-73.3676 29.8731 -78.2004 31.6805 -83.5234 34.7257C-83.9196 34.9535 -84.0532 35.0278 -84.1374 35.0575C-84.38 35.1466 -86.5588 36.2706 -88.8464 37.464L-82.6668 38.4989C-82.5083 38.5236 -82.3845 38.6276 -82.3251 38.7761C-82.2657 38.9247 -82.2954 39.098 -82.3994 39.2267L-86.1428 43.8961L-76.3931 47.7881C-76.2594 47.8277 -76.1603 47.9268 -76.1108 48.0604C-76.0563 48.209 -76.0861 48.3823 -76.1901 48.5061L-76.2198 48.5408L-82.3697 53.1012L-76.7397 53.6211C-76.5812 53.636 -76.4376 53.735 -76.3733 53.8836C-76.3089 54.0321 -76.3287 54.2104 -76.4277 54.3441L-79.3839 58.2509Z" fill="#0D0D0D"/>
<path d="M37.4342 32.7153C36.845 32.7153 36.2953 32.6806 35.7754 32.6113C35.607 32.5865 35.4882 32.433 35.508 32.2597C35.5328 32.0914 35.6863 31.9725 35.8596 31.9923C38.2265 32.3092 41.346 31.8685 45.1538 30.6752C43.4653 30.388 40.1031 29.9275 36.0527 30.0018C35.8794 30.0018 35.7408 29.8681 35.7358 29.6948C35.7308 29.5215 35.8695 29.3828 36.0428 29.3779C41.9501 29.2739 46.4214 30.284 46.466 30.2939C46.5997 30.3236 46.6987 30.4425 46.7086 30.5811C46.7136 30.7198 46.6294 30.8485 46.4957 30.8931C42.9206 32.1062 39.8853 32.7153 37.4342 32.7153Z" fill="#0D0D0D"/>
<path d="M45.332 30.1604C45.2033 30.9576 44.5397 31.6013 43.8416 31.6013C43.1434 31.6013 42.6829 30.9576 42.8116 30.1604" fill="#0D0D0D"/>
<path d="M48.3926 30.007H48.3877C48.1599 30.002 47.9321 29.9971 47.6994 29.9921C47.5756 29.9921 47.4766 29.8881 47.4766 29.7643C47.4766 29.6405 47.5806 29.5415 47.6994 29.5415C47.6994 29.5415 47.6994 29.5415 47.7043 29.5415C47.9371 29.5465 48.1698 29.5514 48.3976 29.5564C48.5214 29.5613 48.6204 29.6653 48.6154 29.7891C48.6105 29.9129 48.5115 30.007 48.3926 30.007Z" fill="#0D0D0D"/>
<path d="M49.0101 32.4725C48.9011 32.4725 48.8021 32.3884 48.7872 32.2794C48.7724 32.1556 48.8566 32.0417 48.9804 32.0269C50.6342 31.814 52.5109 31.3683 54.5707 30.7097C53.3279 30.4869 50.7877 30.1007 47.6038 30.0116C47.48 30.0066 47.381 29.9026 47.3859 29.7788C47.3909 29.6551 47.4949 29.556 47.6187 29.561C52.2039 29.6897 55.4719 30.4275 55.5066 30.4325C55.6056 30.4572 55.675 30.5414 55.6799 30.6404C55.6849 30.7395 55.6254 30.8335 55.5264 30.8633C53.1199 31.6803 50.9363 32.22 49.0398 32.4676C49.0299 32.4725 49.02 32.4725 49.0101 32.4725Z" fill="#0D0D0D"/>
<path d="M54.5175 30.4326C54.3938 31.205 53.9432 31.621 53.3688 31.621C52.7944 31.621 52.4279 30.9971 52.5468 30.2246" fill="#0D0D0D"/>
<path d="M39.0628 51.3829C37.4931 51.3829 34.2746 50.5015 29.7637 49.2141C28.0157 48.714 26.3619 48.2436 25.119 47.9415C24.8665 47.8821 24.713 47.6296 24.7774 47.377C24.8368 47.1245 25.0893 46.971 25.3418 47.0354C26.6045 47.3424 28.2683 47.8128 30.0261 48.3179C33.725 49.3725 38.33 50.6897 39.4243 50.4223C43.1677 49.5013 46.822 40.0536 46.8567 39.9595C46.9458 39.7218 47.2082 39.603 47.4509 39.6872L54.6951 42.2719L47.6588 30.2048C47.5301 29.982 47.6044 29.6948 47.8272 29.566C48.05 29.4373 48.3372 29.5116 48.466 29.7344L56.1459 42.9057C56.245 43.0741 56.2252 43.287 56.1014 43.4405C55.9776 43.589 55.7696 43.6485 55.5864 43.5841L47.5598 40.722C46.7725 42.6581 43.4103 50.4074 39.6471 51.3334C39.4837 51.3631 39.2906 51.3829 39.0628 51.3829Z" fill="#0D0D0D"/>
<path d="M45.5105 43.8912C43.6933 43.8912 39.8805 41.4154 39.0784 40.8806C38.8654 40.737 38.806 40.4498 38.9496 40.2319C39.0932 40.019 39.3804 39.9596 39.5983 40.1032C41.6037 41.4401 44.8074 43.2029 45.6541 42.9405C45.9017 42.8662 46.1592 42.9999 46.2384 43.2475C46.3127 43.495 46.179 43.7525 45.9314 43.8318C45.8076 43.8714 45.664 43.8912 45.5105 43.8912Z" fill="#0D0D0D"/>
<path d="M35.0771 31.7746C35.0721 31.7746 35.0721 31.7746 35.0672 31.7746L24.8718 31.6063C24.5697 31.6013 24.332 31.3537 24.337 31.0517C24.3419 30.7496 24.5895 30.507 24.8916 30.5169L35.087 30.6853C35.389 30.6902 35.6267 30.9378 35.6217 31.2398C35.6168 31.5369 35.3742 31.7746 35.0771 31.7746Z" fill="#0D0D0D"/>
<path d="M40.6876 37.043C38.9149 37.043 37.3155 36.3596 36.2955 35.1613C35.3695 34.072 34.9882 32.6608 35.2209 31.1852C35.315 30.6009 35.4982 30.0265 35.7755 29.4769C36.9788 27.0555 39.6576 25.4314 42.4355 25.4314C44.2032 25.4314 45.8026 26.1147 46.8226 27.3081C47.7486 28.3974 48.1348 29.8086 47.8971 31.2842C47.397 34.4632 44.1586 37.043 40.6876 37.043ZM42.4355 26.0602C39.925 26.0602 37.4195 27.5804 36.335 29.7591C36.0875 30.2543 35.9241 30.7693 35.8399 31.2892C35.6319 32.5816 35.9637 33.8145 36.7708 34.7603C37.672 35.815 39.0981 36.4191 40.6876 36.4191C43.8665 36.4191 46.8276 34.072 47.2881 31.1901C47.496 29.8978 47.1593 28.6648 46.3522 27.719C45.451 26.6644 44.0249 26.0602 42.4355 26.0602Z" fill="#0D0D0D"/>
<path d="M51.8188 36.4737C51.7148 36.4737 51.6207 36.4044 51.5959 36.3004C51.5613 36.1766 51.6356 36.0479 51.7643 36.0182C53.7895 35.4883 55.5424 33.3096 55.9336 30.8437C56.1861 29.2344 55.8444 27.744 54.9928 26.7438C54.3639 26.006 53.5271 25.6197 52.5665 25.6197C51.695 25.6197 50.8037 25.9466 49.9867 26.5655C49.8827 26.6447 49.7391 26.6249 49.6599 26.5209C49.5806 26.417 49.6004 26.2734 49.7044 26.1941C50.6007 25.5108 51.591 25.1543 52.5665 25.1543C53.6459 25.1543 54.6362 25.6098 55.3443 26.4417C56.2851 27.541 56.6664 29.175 56.3891 30.918C55.9633 33.6018 54.1064 35.8845 51.8782 36.4688C51.8584 36.4737 51.8386 36.4737 51.8188 36.4737Z" fill="#0D0D0D"/>
<path d="M54.1699 20.7176C53.9768 20.7176 53.7935 20.6136 53.6945 20.4353C53.64 20.3313 47.9259 10.1656 37.8691 7.36796C35.2348 6.63512 30.5308 7.13524 23.8906 8.85345C23.5985 8.92773 23.3014 8.75442 23.2271 8.46228C23.1529 8.17013 23.3262 7.87304 23.6183 7.79876C30.4466 6.03103 35.3388 5.53586 38.1612 6.31822C43.6576 7.84827 47.8466 11.458 50.3967 14.221C53.1498 17.2069 54.5908 19.7966 54.6502 19.9055C54.7938 20.1679 54.6997 20.4997 54.4373 20.6433C54.3531 20.6928 54.259 20.7176 54.1699 20.7176Z" fill="#0D0D0D"/>
<path d="M24.4402 52.3536C23.2964 52.3536 21.8753 52.1258 20.3056 51.3682C17.8347 50.1748 15.5669 47.9367 13.5565 44.7132C11.0461 40.6776 8.47615 34.7505 6.84212 27.7489C6.58463 27.2884 4.48019 23.0795 0.038579 16.5731C-0.015889 16.4938 -0.030727 16.3948 -0.00596881 16.3057C0.0187893 16.2165 0.0881098 16.1423 0.177239 16.1027C0.236659 16.0779 5.98054 13.6714 13.0416 11.255C13.205 11.2005 13.3882 11.2847 13.4427 11.4531C13.4971 11.6165 13.4129 11.7997 13.2446 11.8542C7.21348 13.914 2.13807 15.9739 0.781324 16.5335C5.33187 23.2182 7.53039 27.2834 7.55515 27.333C7.57001 27.3577 7.54032 27.3676 7.54527 27.3973C11.1847 43.0098 16.8048 48.9567 20.5631 50.7839C23.2172 52.0713 25.4405 51.7198 26.4456 51.4425C25.5345 50.8087 23.6183 49.3578 21.8604 47.293C18.7013 43.5892 17.6218 39.6873 18.7409 36.0132C18.7904 35.8448 18.9687 35.7507 19.137 35.8052C19.3054 35.8547 19.3995 36.033 19.345 36.2013C18.2754 39.7021 19.2806 43.2921 22.3308 46.8721C24.6333 49.5707 27.2924 51.2493 27.3171 51.2642C27.4162 51.3236 27.4706 51.4375 27.4657 51.5514C27.4607 51.6653 27.3914 51.7693 27.2874 51.8188C27.2131 51.8584 26.1287 52.3536 24.4402 52.3536Z" fill="#0D0D0D"/>
<path d="M0.687546 23.5844C0.60832 23.5844 0.529112 23.5448 0.489499 23.4706C-0.693941 21.4998 -2.66471 18.3357 -5.31879 14.4536C-5.3584 14.3942 -5.3683 14.3249 -5.34849 14.2556C-5.32869 14.1862 -5.27916 14.1318 -5.21479 14.107C-5.02663 14.0278 13.8688 6.12499 25.7032 4.49095C25.8319 4.4761 25.9508 4.56028 25.9656 4.68902C25.9854 4.81776 25.8963 4.9366 25.7676 4.95146C14.7551 6.46666 -2.43692 13.4584 -4.77409 14.4239C-2.19924 18.207 -0.27801 21.2918 0.885623 23.2279C0.949995 23.3369 0.915316 23.4805 0.80638 23.5498C0.766767 23.5745 0.727159 23.5844 0.687546 23.5844Z" fill="#0D0D0D"/>
<path d="M25.7236 50.4125C25.6493 50.4125 25.58 50.3828 25.5256 50.3284C25.4166 50.2194 25.4216 50.0411 25.5305 49.9322C26.1346 49.3479 26.8526 48.6498 27.8132 47.7634C27.9271 47.6594 28.1004 47.6644 28.2093 47.7783C28.3133 47.8922 28.3084 48.0655 28.1945 48.1744C28.1846 48.1843 27.1299 49.1598 25.9217 50.3333C25.8623 50.3828 25.7929 50.4125 25.7236 50.4125Z" fill="#0D0D0D"/>
<path d="M34.2304 67.6242C34.0967 67.6242 33.968 67.5351 33.9333 67.3965C32.5122 62.3458 30.1751 54.5717 29.571 53.8686C29.4125 53.6804 29.0015 53.3041 27.9716 52.5614C27.8329 52.4624 27.7983 52.2692 27.9023 52.1256C28.0013 51.987 28.1944 51.9523 28.338 52.0563C29.2194 52.6901 29.7789 53.1506 30.0463 53.4626C30.9376 54.4975 34.171 65.9258 34.5374 67.2232C34.582 67.3866 34.4879 67.5599 34.3245 67.6044C34.2849 67.6193 34.2552 67.6242 34.2304 67.6242Z" fill="#0D0D0D"/>
<path d="M-5.75888 40.2567C-7.74448 40.2567 -9.03685 39.6229 -10.2995 39.0039C-11.8197 38.2562 -13.2556 37.5581 -15.8305 37.8452C-15.9147 37.8552 -15.9939 37.7957 -16.0038 37.7066C-16.0137 37.6224 -15.9543 37.5432 -15.8651 37.5333C-13.1962 37.2313 -11.6563 37.9888 -10.1609 38.7217C-8.47235 39.5486 -6.87793 40.331 -3.72374 39.7417C-1.21326 39.2713 0.0890115 38.0681 1.46557 36.7856C3.05999 35.3051 4.86732 33.6314 8.84843 32.8887C8.93261 32.8738 9.01187 32.9283 9.03167 33.0125C9.04653 33.0966 8.99206 33.1759 8.90788 33.1957C5.0159 33.9236 3.32242 35.4932 1.67848 37.0183C0.267267 38.3305 -1.06966 39.5635 -3.66432 40.0487C-4.45163 40.1923 -5.13993 40.2567 -5.75888 40.2567Z" fill="#0D0D0D"/>
<path d="M45.005 28.9073C44.9951 28.9073 44.9852 28.9073 44.9753 28.9073L37.5132 28.0012C37.3845 27.9863 37.2954 27.8675 37.3102 27.7437C37.3251 27.615 37.4439 27.5258 37.5677 27.5407L45.0298 28.4468C45.1585 28.4617 45.2477 28.5805 45.2328 28.7043C45.2229 28.8182 45.1239 28.9073 45.005 28.9073Z" fill="#0D0D0D"/>
<path d="M53.0753 29.1848C53.0654 29.1848 53.0555 29.1848 53.0456 29.1848L47.4107 28.5014C47.2819 28.4866 47.1928 28.3677 47.2077 28.2439C47.2225 28.1152 47.3414 28.0261 47.4652 28.0409L53.1001 28.7243C53.2289 28.7391 53.318 28.8579 53.3031 28.9817C53.2932 29.0956 53.1942 29.1848 53.0753 29.1848Z" fill="#0D0D0D"/>
<path d="M188.087 144.766C187.582 144.766 187.166 144.36 187.157 143.85C187.147 143.335 187.558 142.909 188.073 142.899C217.936 142.34 236.876 141.661 244.373 140.889C248.606 140.453 249.948 135.591 249.814 132.426C249.25 118.814 238.188 104.291 220.233 93.5759C202.264 82.8408 149.113 71.5808 123.573 66.1637C113.536 64.0394 109.059 63.0788 108.138 62.6183C107.336 62.2222 104.851 62.3905 97.5716 65.4556C91.9168 67.8373 84.4943 71.4768 76.6311 75.3242C73.9325 76.6463 71.1447 78.0129 68.3075 79.3895C58.731 84.0292 31.4673 94.0216 11.2151 97.4233L11.1557 97.4332C-4.8628 99.1118 -17.2023 99.404 -25.526 98.3047C-33.2307 97.2847 -37.707 95.0961 -39.2123 91.62C-42.624 83.7321 -29.1258 72.071 -19.2671 63.5542C-15.3999 60.2861 -13.0379 58.043 -11.8297 56.7457C-16.2763 57.3151 -27.3234 58.3946 -38.9102 59.5285C-53.78 60.9793 -69.1498 62.4846 -72.1703 63.059L-72.2892 63.0739C-73.3538 63.2125 -88.7484 65.2427 -107.52 69.2337C-125.356 73.0266 -149.975 79.4093 -165.964 88.2975C-177.833 94.8881 -186.221 101.672 -190.901 108.47C-194.56 113.784 -196.075 119.206 -195.53 125.044C-195.144 129.163 -187.801 132.857 -174.847 135.452C-163.81 137.66 -148.772 138.982 -134.62 138.982C-134.105 138.982 -133.689 139.398 -133.689 139.913C-133.689 140.428 -134.105 140.844 -134.62 140.844C-149.104 140.844 -163.899 139.547 -175.214 137.279C-189.445 134.427 -196.907 130.371 -197.387 125.212C-197.976 118.923 -196.357 113.1 -192.441 107.411C-187.528 100.275 -179.165 93.4868 -166.875 86.6634C-150.678 77.6614 -125.861 71.2193 -107.896 67.4016C-88.6494 63.3115 -72.9329 61.2715 -72.4773 61.217C-69.2835 60.6228 -53.9384 59.1225 -39.0934 57.6716C-26.0459 56.3941 -12.5576 55.077 -10.468 54.6561C-9.7451 54.5125 -9.29947 54.8541 -9.12121 55.2255C-8.77955 55.9286 -9.05189 56.6615 -11.5723 59.1472C-13.1518 60.707 -15.3949 62.7223 -18.0589 64.9703C-22.451 68.7633 -28.4722 73.9625 -32.6415 78.8547C-37.0682 84.0539 -38.7072 88.0994 -37.504 90.8723C-36.3007 93.6601 -32.1859 95.5318 -25.2833 96.4479C-17.1131 97.5273 -4.92718 97.2352 10.9279 95.5764C31.0019 92.1994 58.0031 82.306 67.4855 77.7109C70.3178 76.3393 73.1056 74.9726 75.7993 73.6505C83.6823 69.7883 91.1295 66.1389 96.8338 63.7374C103.558 60.905 107.183 60.0732 108.955 60.9496C109.708 61.321 116.304 62.7223 123.949 64.3415C137.036 67.1144 156.818 71.3084 175.53 76.1462C197.941 81.9396 213.301 87.2675 221.184 91.9765C230.572 97.5768 238.332 104.366 243.615 111.61C248.606 118.443 251.389 125.613 251.671 132.347C251.869 137.13 249.493 142.236 244.556 142.746C237.01 143.523 218.015 144.201 188.097 144.766C188.097 144.766 188.092 144.766 188.087 144.766Z" fill="#0D0D0D"/>
<path d="M48.3926 30.007H48.3877C48.1599 30.002 47.9321 29.9971 47.6994 29.9921C47.5756 29.9921 47.4766 29.8881 47.4766 29.7643C47.4766 29.6405 47.5806 29.5415 47.6994 29.5415C47.6994 29.5415 47.6994 29.5415 47.7043 29.5415C47.9371 29.5465 48.1698 29.5514 48.3976 29.5564C48.5214 29.5613 48.6204 29.6653 48.6154 29.7891C48.6105 29.9129 48.5115 30.007 48.3926 30.007Z" fill="#0D0D0D"/>
<path d="M-19.2168 33.7057C-21.2619 33.7057 -22.5295 33.1165 -23.7624 32.547C-25.342 31.8142 -26.8374 31.1209 -29.9321 31.5765C-32.2446 31.9132 -33.631 32.646 -34.5817 33.2452C-34.6907 33.3145 -34.8343 33.2799 -34.9036 33.1709C-34.9729 33.062 -34.9383 32.9184 -34.8293 32.8491C-33.3587 31.9231 -31.8682 31.3834 -29.9965 31.111C-26.7631 30.6357 -25.134 31.3933 -23.5594 32.1212C-21.9798 32.854 -20.4845 33.5472 -17.3897 33.0917C-14.285 32.6361 -12.755 31.4973 -11.1407 30.294C-9.55126 29.1056 -7.90234 27.8776 -4.67883 27.4072C-1.44541 26.9319 0.183674 27.6895 1.75829 28.4174C3.34282 29.1502 4.39749 29.7741 7.49226 29.3235C7.621 29.3037 7.73986 29.3928 7.75471 29.5216C7.77452 29.6503 7.68538 29.7691 7.55664 29.784C4.32322 30.2594 3.12988 29.5711 1.55526 28.8382C-0.024311 28.1054 -1.51971 27.4122 -4.61448 27.8677C-7.71916 28.3233 -9.24921 29.4621 -10.8634 30.6654C-12.4529 31.8538 -14.1018 33.0818 -17.3253 33.5522C-18.0235 33.6611 -18.6524 33.7057 -19.2168 33.7057Z" fill="#0D0D0D"/>
<path d="M19.2375 35.5204L18.8252 35.8035L19.268 36.4484L19.6803 36.1654L19.2375 35.5204Z" fill="#0D0D0D"/>
<path d="M46.9207 23.3617L50.3818 27.2785C50.4116 27.2983 50.4561 27.2785 50.4561 27.2388C50.4561 27.2388 53.8183 23.9311 54.0015 24.0203L68.0592 30.7694C68.1087 30.7892 68.1533 30.7198 68.1136 30.6951L53.2092 20.7472C53.1845 20.7373 53.1449 20.7175 53.1152 20.7076C52.1446 19.9698 49.753 20.1184 48.0298 20.1283H48.0001C42.0185 20.0738 35.8934 22.1684 32.4867 23.5598C32.4768 23.5647 32.4718 23.5647 32.4619 23.5697C31.1051 24.2084 29.7336 24.9561 28.3669 25.8276L28.357 25.8326L28.3471 25.8375L23.9005 29.1799C23.8906 29.1848 23.8857 29.1898 23.8758 29.1997C23.6183 29.4275 23.3559 29.6602 23.0984 29.9028C22.4249 30.5267 21.8406 31.1457 21.3257 31.7646L21.3207 31.7696C21.2613 31.834 21.2118 31.9033 21.1573 31.9676C21.1425 31.9825 21.1326 32.0023 21.1227 32.0221C20.8602 32.5222 20.1076 34.0077 19.5728 35.1664C19.4441 35.4437 19.3302 35.7012 19.2361 35.919C19.0232 36.4291 18.9291 36.741 19.0727 36.642L37.6611 23.6241C37.7799 23.54 37.9335 23.5449 38.0226 23.6341L41.6967 28.0361C41.7115 28.0509 42.1819 28.0361 42.1819 28.0361C42.1968 28.0509 42.2265 28.046 42.2463 28.0261L46.6335 23.4855C46.7424 23.3815 46.9008 23.3667 47.0048 23.4409" fill="#F9AC12"/>
<path d="M19.0527 37.053C18.9487 37.053 18.8546 37.0134 18.7952 36.9639C18.513 36.7361 18.6417 36.3796 18.8992 35.7706C19.0082 35.518 19.122 35.2605 19.2409 35.0031C19.7757 33.8444 20.5332 32.349 20.7957 31.8439C20.8155 31.8043 20.8403 31.7647 20.87 31.73C20.9195 31.6657 20.9739 31.6013 21.0284 31.5369L21.0631 31.4973C21.588 30.8684 22.1871 30.2346 22.8506 29.6256C23.0883 29.4028 23.3458 29.175 23.633 28.9175C23.6478 28.9026 23.6676 28.8878 23.6825 28.8779L28.1637 25.5058C29.4759 24.664 30.8723 23.8965 32.3033 23.2231L32.3429 23.2033C35.5614 21.8862 41.8748 19.6827 48.0049 19.7421H48.0296C48.2475 19.7421 48.4753 19.7372 48.713 19.7322C50.4163 19.7025 52.3475 19.6728 53.318 20.371L53.4319 20.4255L68.5245 30.0861C68.7126 30.2049 68.5839 30.7397 68.475 30.9427C68.3611 31.1457 68.1135 31.2299 67.9055 31.1358L54.0211 24.466C53.5557 24.8225 52.09 26.199 50.7877 27.4766C50.7382 27.5508 50.6689 27.6103 50.5847 27.6449C50.4411 27.7093 50.2728 27.6845 50.149 27.5905L50.0945 27.5409L46.8462 23.8619L42.5581 28.2985C42.4739 28.3877 42.3601 28.4372 42.2363 28.4372C42.2115 28.4372 42.1818 28.4322 42.157 28.4273C41.6965 28.4421 41.5876 28.4421 41.4589 28.3233L41.4242 28.2886L37.8441 24.0005L19.33 36.9688C19.226 37.0283 19.1369 37.053 19.0527 37.053ZM21.6177 32.0469C21.5681 32.1014 21.5236 32.1608 21.479 32.2153C21.2215 32.7055 20.4738 34.186 19.944 35.3299C19.8895 35.4437 19.84 35.5576 19.7905 35.6715L37.453 23.3023C37.7303 23.1092 38.0917 23.129 38.3145 23.3568L38.3344 23.3816L41.8995 27.6499C41.954 27.6499 42.0184 27.6499 42.0828 27.6449L46.3808 23.1984C46.6333 22.9656 46.9997 22.9409 47.2522 23.129L47.2424 23.1439L50.4114 26.7338C53.7389 23.4707 53.8825 23.54 54.1647 23.6737L63.8056 28.3035L53.0061 21.0989L52.9021 21.0543L52.8674 21.0246C52.1296 20.4601 50.2331 20.4948 48.713 20.5146C48.4753 20.5195 48.2426 20.5245 48.0198 20.5245H47.9901C41.9837 20.47 35.7892 22.6339 32.6251 23.9263C31.2189 24.5898 29.8572 25.3375 28.5747 26.1644L24.138 29.5018C23.8558 29.7543 23.6033 29.9771 23.3705 30.195C22.7318 30.7892 22.1524 31.3983 21.6474 32.0024L21.6177 32.0469ZM67.8907 31.0219C67.8956 31.0219 67.8956 31.0269 67.9005 31.0269L67.8907 31.0219Z" fill="#0D0D0D"/>
</g>
<path d="M54.0369 61.4743H8.43736C4.33246 61.4743 1 58.1468 1 54.0369V8.43735C1 4.33245 4.32751 1 8.43736 1H54.0369C58.1418 1 61.4743 4.3275 61.4743 8.43735V54.0369C61.4743 58.1418 58.1468 61.4743 54.0369 61.4743Z" stroke="#0D0D0D" stroke-miterlimit="10"/>
</svg>
