<svg width="30" height="27" viewBox="0 0 24 22" fill="none" xmlns="http://www.w3.org/2000/svg">
<path d="M1.5 10.5645V12.4398C1.5 15.4482 3.6 17.4538 6.75 17.4538H10.95L15.6225 20.422C16.3155 20.8632 17.25 20.3919 17.25 19.5897V17.4538C20.4 17.4538 22.5 15.4482 22.5 12.4398V6.42309C22.5 3.41474 20.4 1.40918 17.25 1.40918H6.75C3.6 1.40918 1.5 3.41474 1.5 6.42309" stroke="#0D0D0D" stroke-width="1.75" stroke-miterlimit="10" stroke-linecap="round" stroke-linejoin="round"/>
<path d="M11.9998 10.3641V10.1535C11.9998 9.47161 12.4408 9.11061 12.8818 8.81982C13.3123 8.53904 13.7428 8.17805 13.7428 7.51621C13.7428 6.59365 12.9658 5.85156 11.9998 5.85156C11.0338 5.85156 10.2568 6.59365 10.2568 7.51621" stroke="#0D0D0D" stroke-width="1.75" stroke-linecap="round" stroke-linejoin="round"/>
<path d="M11.9951 12.7607H12.0043" stroke="#0D0D0D" stroke-width="1.75" stroke-linecap="round" stroke-linejoin="round"/>
</svg>
