<svg width="2036" height="417" viewBox="0 0 2036 417" fill="none" xmlns="http://www.w3.org/2000/svg">
<path d="M1549.94 335.427C1549.22 332.067 1548.19 328.299 1546.73 324.349C1543.56 315.778 1537.04 299.3 1521.86 282.201C1502.26 260.115 1476.65 248.034 1445.93 235.307C1384.45 209.832 1254.23 178.826 1229.97 175.897C1226.83 175.518 1223.5 176.285 1220.57 178.051C1208.71 185.217 1178.02 218.467 1143.65 233.533C1121.77 243.12 960.626 237.159 920.851 237.159C839.372 237.159 969.145 163.666 952.731 165.358C952.671 165.367 952.628 165.371 952.624 165.371C949.544 165.733 769.574 178.046 607.947 255.92C573.694 272.425 541.215 299.791 548.627 326.938C557.435 359.192 655.939 350.699 687.837 350.794H689.951H690.942C689.542 342.529 689.378 333.756 690.623 324.668C697.368 275.487 742.703 235.622 791.875 235.622C794.571 235.622 797.22 235.742 799.826 235.975C800.157 236.005 800.485 236.035 800.816 236.07C801.803 236.169 802.78 236.285 803.749 236.419C804.081 236.462 804.404 236.509 804.731 236.556C805.334 236.647 805.937 236.742 806.54 236.845C806.829 236.892 807.117 236.944 807.402 236.996C808.259 237.155 809.112 237.323 809.956 237.504H809.96C811.015 237.732 812.062 237.978 813.096 238.245C813.1 238.24 813.1 238.24 813.104 238.245C845.2 246.527 867.359 273.476 869.409 307.311C869.482 308.478 869.525 309.654 869.547 310.838C869.568 311.764 869.564 312.69 869.551 313.625C869.538 314.62 869.504 315.623 869.456 316.627C869.439 317.045 869.413 317.462 869.387 317.884C869.344 318.612 869.288 319.349 869.224 320.085C869.198 320.447 869.159 320.809 869.12 321.175C869.099 321.425 869.073 321.675 869.043 321.929C868.948 322.825 868.84 323.725 868.715 324.625C868.522 326.033 868.302 327.433 868.044 328.828C867.906 329.574 867.764 330.319 867.609 331.059C867.118 333.424 866.532 335.758 865.869 338.067C865.705 338.644 865.533 339.217 865.356 339.785C864.37 342.998 863.211 346.151 861.902 349.235C861.674 349.782 861.437 350.32 861.196 350.863L1056.14 350.936C1120.61 350.962 1184.77 350.983 1240.43 351.005C1238.94 342.593 1238.75 333.635 1240.02 324.354C1246.76 275.172 1292.09 235.307 1341.27 235.307C1343.6 235.307 1345.9 235.398 1348.17 235.574C1349.19 235.652 1350.2 235.747 1351.2 235.863C1351.83 235.936 1352.46 236.014 1353.09 236.1C1353.72 236.186 1354.34 236.276 1354.96 236.375C1354.97 236.371 1354.97 236.371 1354.97 236.375C1355.85 236.513 1356.73 236.668 1357.59 236.836C1357.59 236.836 1357.6 236.836 1357.6 236.836C1392.37 243.547 1416.71 271.542 1418.81 307.126V307.13C1418.84 307.694 1418.87 308.263 1418.89 308.831C1418.89 308.836 1418.89 308.84 1418.89 308.84C1418.92 309.439 1418.93 310.037 1418.95 310.636C1418.95 310.937 1418.95 311.239 1418.95 311.54C1418.95 311.545 1418.95 311.545 1418.95 311.549C1418.96 312.186 1418.95 312.824 1418.95 313.466C1418.94 313.789 1418.93 314.112 1418.92 314.435C1418.92 314.439 1418.92 314.439 1418.92 314.443C1418.9 315.119 1418.88 315.796 1418.85 316.476C1418.83 316.816 1418.81 317.157 1418.79 317.501C1418.76 317.876 1418.74 318.255 1418.71 318.634C1418.68 319.009 1418.65 319.383 1418.62 319.758C1418.62 319.771 1418.62 319.784 1418.61 319.801C1418.59 320.137 1418.55 320.477 1418.52 320.818C1418.52 320.882 1418.51 320.942 1418.51 321.007C1418.47 321.356 1418.43 321.705 1418.39 322.054C1418.36 322.437 1418.31 322.82 1418.26 323.204C1418.21 323.587 1418.16 323.97 1418.11 324.354C1417.92 325.749 1417.69 327.14 1417.44 328.523C1417.27 329.444 1417.09 330.357 1416.89 331.27C1416.7 332.184 1416.49 333.097 1416.27 334.001C1415.93 335.358 1415.57 336.706 1415.18 338.045C1415.18 338.045 1415.18 338.045 1415.18 338.05C1414.92 338.941 1414.65 339.828 1414.36 340.711C1413.23 344.243 1411.89 347.701 1410.36 351.07C1410.36 351.07 1410.36 351.07 1410.36 351.07C1434.91 350.006 1513.08 349.571 1538.19 349.424C1545.41 349.381 1551.4 342.236 1549.94 335.427Z" fill="#F9AC12"/>
<path d="M879.461 348.92C880.771 345.837 881.929 342.684 882.915 339.471C883.092 338.902 883.26 338.33 883.428 337.752C884.091 335.444 884.677 333.11 885.168 330.745C885.323 330.004 885.465 329.259 885.603 328.514C885.857 327.119 886.081 325.719 886.275 324.31C886.4 323.41 886.507 322.51 886.602 321.614C886.632 321.36 886.658 321.11 886.68 320.861C886.718 320.495 886.753 320.133 886.783 319.771C886.848 319.034 886.904 318.298 886.947 317.57C886.973 317.148 886.998 316.73 887.016 316.312C887.063 315.309 887.097 314.305 887.11 313.311C887.123 312.376 887.123 311.45 887.106 310.524C887.089 309.34 887.041 308.164 886.968 306.997C884.914 273.161 862.759 246.213 830.659 237.93C830.655 237.926 830.655 237.926 830.651 237.93C829.617 237.663 828.566 237.418 827.515 237.19H827.511C826.667 237.009 825.814 236.841 824.957 236.681C824.672 236.63 824.38 236.578 824.095 236.531C823.492 236.427 822.889 236.332 822.286 236.242C821.959 236.195 821.636 236.147 821.304 236.104C820.335 235.971 819.358 235.854 818.371 235.755C818.04 235.721 817.712 235.691 817.381 235.661C814.775 235.428 812.126 235.307 809.43 235.307C760.253 235.307 714.919 275.173 708.178 324.354C706.916 333.558 707.093 342.443 708.544 350.794" stroke="#0D0D0D" stroke-width="5.16834" stroke-miterlimit="10" stroke-linecap="round"/>
<path d="M1064.47 362.965C1060.89 362.965 1057.3 362.961 1053.71 362.961" stroke="#0D0D0D" stroke-width="5.16834" stroke-linecap="round" stroke-linejoin="round"/>
<path d="M1030.74 362.953C955.031 362.922 880.039 362.892 812.587 362.866" stroke="#0D0D0D" stroke-width="5.16834" stroke-linecap="round" stroke-linejoin="round" stroke-dasharray="22.96 22.96"/>
<path d="M801.105 362.862C797.491 362.862 793.904 362.858 790.337 362.858C790.393 362.741 790.441 362.634 790.492 362.522" stroke="#0D0D0D" stroke-width="5.16834" stroke-linecap="round" stroke-linejoin="round"/>
<path d="M708.109 350.794H705.994C674.097 350.699 575.597 359.192 566.785 326.938C559.369 299.791 591.847 272.425 626.105 255.92C787.736 178.046 952.804 165.733 955.884 165.371C955.888 165.371 970.829 165.367 970.889 165.358C987.303 163.666 842.632 237.159 924.111 237.159C963.886 237.159 1139.92 243.12 1161.8 233.533C1196.18 218.467 1226.1 190.817 1237.96 183.65C1240.89 181.884 1244.22 181.117 1247.36 181.496C1271.63 184.425 1402.61 209.832 1464.09 235.307C1494.8 248.034 1520.42 260.115 1540.02 282.201C1555.2 299.3 1561.72 315.778 1564.89 324.349C1566.35 328.299 1567.38 332.067 1568.1 335.427C1569.56 342.236 1563.57 349.381 1556.35 349.424C1531.24 349.571 1453.07 350.006 1428.52 351.07C1428.52 351.07 1428.52 351.07 1428.52 351.07C1430.04 347.701 1431.38 344.243 1432.52 340.711C1432.81 339.828 1433.08 338.941 1433.34 338.05C1433.34 338.045 1433.34 338.045 1433.34 338.045C1433.73 336.706 1434.09 335.358 1434.42 334.001C1434.65 333.097 1434.86 332.184 1435.05 331.27C1435.25 330.357 1435.43 329.444 1435.6 328.523C1435.85 327.14 1436.07 325.749 1436.26 324.354C1436.32 323.97 1436.36 323.587 1436.41 323.204C1436.46 322.82 1436.51 322.437 1436.55 322.054C1436.59 321.705 1436.63 321.356 1436.66 321.007C1436.67 320.942 1436.68 320.882 1436.68 320.818C1436.72 320.477 1436.75 320.137 1436.77 319.801C1436.78 319.784 1436.78 319.771 1436.78 319.758C1436.81 319.383 1436.84 319.009 1436.87 318.634C1436.9 318.255 1436.92 317.876 1436.94 317.501C1436.97 317.157 1436.99 316.816 1437 316.476C1437.04 315.796 1437.06 315.119 1437.08 314.443C1437.08 314.439 1437.08 314.439 1437.08 314.435C1437.09 314.112 1437.1 313.789 1437.1 313.466C1437.11 312.824 1437.12 312.186 1437.11 311.549C1437.11 311.545 1437.11 311.545 1437.11 311.54C1437.11 311.239 1437.11 310.937 1437.1 310.636C1437.09 310.037 1437.07 309.439 1437.05 308.84C1437.05 308.84 1437.05 308.836 1437.05 308.831C1437.03 308.263 1437 307.694 1436.97 307.13V307.126C1434.87 271.542 1410.53 243.547 1375.76 236.836C1375.76 236.836 1375.75 236.836 1375.75 236.836C1374.88 236.668 1374.01 236.513 1373.13 236.375C1373.13 236.371 1373.12 236.371 1373.12 236.375C1372.5 236.276 1371.87 236.186 1371.25 236.1C1370.62 236.014 1369.99 235.936 1369.36 235.863C1368.36 235.747 1367.35 235.652 1366.33 235.574C1364.07 235.398 1361.77 235.307 1359.42 235.307C1310.25 235.307 1264.92 275.172 1258.18 324.354C1256.91 333.635 1257.09 342.593 1258.58 351.005C1202.93 350.983 1138.77 350.962 1074.3 350.936" stroke="#0D0D0D" stroke-width="6" stroke-miterlimit="10" stroke-linecap="round"/>
<path d="M719.893 380.073C733.395 400.565 756.756 413.706 784.988 413.706C820.029 413.706 853.124 393.463 871.687 364.033C873.328 361.436 874.852 358.766 876.256 356.035C876.605 355.359 876.946 354.674 877.277 353.99C877.768 352.978 878.246 351.957 878.698 350.927C878.953 350.363 879.198 349.799 879.435 349.23C880.744 346.147 881.903 342.994 882.889 339.781C883.066 339.213 883.234 338.64 883.402 338.063C884.065 335.754 884.651 333.42 885.142 331.055C885.297 330.314 885.439 329.569 885.577 328.824C885.831 327.429 886.055 326.029 886.249 324.621C886.373 323.72 886.481 322.82 886.576 321.924C886.606 321.67 886.632 321.42 886.653 321.171C886.692 320.805 886.727 320.443 886.757 320.081C886.821 319.345 886.877 318.608 886.92 317.88C886.946 317.458 886.972 317.04 886.989 316.623C887.037 315.619 887.071 314.616 887.084 313.621C887.097 312.686 887.097 311.76 887.08 310.834C887.063 309.65 887.015 308.474 886.942 307.307C884.888 273.471 862.733 246.523 830.637 238.24C830.633 238.236 830.633 238.236 830.629 238.24C829.591 237.973 828.544 237.728 827.493 237.5H827.489C826.645 237.319 825.792 237.151 824.935 236.991C824.651 236.94 824.358 236.888 824.073 236.841C823.47 236.737 822.867 236.642 822.264 236.552C821.941 236.505 821.614 236.457 821.282 236.414C820.313 236.281 819.336 236.164 818.349 236.065C818.018 236.031 817.69 236.001 817.359 235.971C814.753 235.738 812.104 235.617 809.408 235.617C760.231 235.617 714.897 275.483 708.156 324.664C706.575 336.198 707.256 347.223 709.862 357.34H709.866M794.317 345.673C782.714 345.673 774.595 336.267 776.189 324.664C777.778 313.061 788.476 303.65 800.079 303.65C811.682 303.65 819.797 313.061 818.207 324.664C816.618 336.267 805.92 345.673 794.317 345.673Z" stroke="#0D0D0D" stroke-width="5.16834" stroke-miterlimit="10" stroke-linecap="round" stroke-linejoin="round"/>
<path d="M851.655 321.924C851.686 321.67 851.711 321.42 851.733 321.171C851.772 320.805 851.806 320.443 851.836 320.081C851.901 319.345 851.957 318.608 852 317.88C852.026 317.458 852.052 317.04 852.069 316.623C852.116 315.619 852.151 314.616 852.164 313.621C852.177 312.686 852.177 311.76 852.159 310.834C852.142 309.65 852.095 308.474 852.021 307.307C849.967 273.471 827.812 246.523 795.712 238.24C795.708 238.236 795.708 238.236 795.704 238.24C794.67 237.973 793.619 237.728 792.568 237.5H792.564C791.72 237.319 790.867 237.151 790.01 236.991C789.726 236.94 789.433 236.888 789.149 236.841C788.546 236.737 787.943 236.642 787.34 236.552C787.012 236.505 786.689 236.457 786.358 236.414C785.389 236.281 784.411 236.164 783.425 236.065C783.093 236.031 782.766 236.001 782.434 235.971C779.828 235.738 777.18 235.617 774.483 235.617C725.307 235.617 679.972 275.483 673.231 324.664C671.651 336.198 672.331 347.223 674.937 357.34H674.941C683.443 390.349 712.429 413.706 750.072 413.706C785.113 413.706 818.208 393.463 836.771 364.033C838.412 361.436 839.936 358.766 841.34 356.035C841.689 355.359 842.029 354.674 842.361 353.99C842.852 352.978 843.33 351.957 843.782 350.927C844.036 350.363 844.282 349.799 844.519 349.23C845.828 346.147 846.987 342.994 847.973 339.781C848.15 339.213 848.317 338.64 848.485 338.063C849.149 335.754 849.734 333.42 850.225 331.055C850.381 330.314 850.523 329.569 850.66 328.824C850.915 327.429 851.139 326.029 851.332 324.621C851.453 323.72 851.565 322.82 851.655 321.924Z" stroke="#0D0D0D" stroke-width="3.01486" stroke-miterlimit="10" stroke-linecap="round"/>
<path d="M819.512 321.924C819.543 321.67 819.568 321.42 819.59 321.171C819.629 320.805 819.663 320.443 819.693 320.081C819.758 319.345 819.814 318.608 819.857 317.88C819.883 317.458 819.909 317.04 819.926 316.623C819.973 315.619 820.008 314.616 820.021 313.621C820.034 312.686 820.034 311.76 820.016 310.834C819.999 309.65 819.952 308.474 819.878 307.307C817.824 273.471 795.669 246.523 763.574 238.24C763.569 238.236 763.569 238.236 763.565 238.24C762.527 237.973 761.481 237.728 760.43 237.5H760.425C759.581 237.319 758.728 237.151 757.871 236.991C757.587 236.94 757.294 236.888 757.01 236.841C756.407 236.737 755.804 236.642 755.201 236.552C754.878 236.505 754.551 236.457 754.219 236.414C753.25 236.281 752.272 236.164 751.286 236.065C750.954 236.031 750.627 236.001 750.295 235.971C747.69 235.738 745.041 235.617 742.345 235.617C693.168 235.617 647.833 275.483 641.093 324.664C639.512 336.198 640.193 347.223 642.798 357.34H642.803C651.304 390.349 680.29 413.706 717.933 413.706C752.974 413.706 786.069 393.463 804.632 364.033C806.273 361.436 807.797 358.766 809.202 356.035C809.55 355.359 809.891 354.674 810.222 353.99C810.713 352.978 811.191 351.957 811.644 350.927C811.898 350.363 812.143 349.799 812.38 349.23C813.689 346.147 814.848 342.994 815.834 339.781C816.011 339.213 816.179 338.64 816.347 338.063C817.01 335.754 817.596 333.42 818.087 331.055C818.242 330.314 818.384 329.569 818.522 328.824C818.776 327.429 819 326.029 819.194 324.621C819.31 323.72 819.422 322.82 819.512 321.924Z" stroke="#0D0D0D" stroke-width="2.15348" stroke-miterlimit="10" stroke-linecap="round" stroke-linejoin="round"/>
<path d="M1286.66 398.127C1299.63 407.956 1316.18 413.706 1334.86 413.706C1369.9 413.706 1402.99 393.463 1421.56 364.033C1423.2 361.436 1424.72 358.766 1426.12 356.035C1426.47 355.359 1426.81 354.674 1427.15 353.99C1427.64 352.978 1428.11 351.957 1428.57 350.927C1428.82 350.363 1429.07 349.799 1429.3 349.23C1430.61 346.147 1431.77 342.994 1432.76 339.781C1432.93 339.213 1433.1 338.64 1433.27 338.063C1433.93 335.754 1434.52 333.42 1435.01 331.055C1435.17 330.314 1435.31 329.569 1435.45 328.824C1435.7 327.429 1435.92 326.029 1436.12 324.621C1436.24 323.72 1436.35 322.82 1436.44 321.924C1436.47 321.67 1436.5 321.42 1436.52 321.171C1436.56 320.805 1436.6 320.443 1436.63 320.081C1436.69 319.345 1436.75 318.608 1436.79 317.88C1436.81 317.458 1436.84 317.04 1436.86 316.623C1436.91 315.619 1436.94 314.616 1436.95 313.621C1436.97 312.686 1436.97 311.76 1436.95 310.834C1436.93 309.65 1436.88 308.474 1436.81 307.307C1434.76 273.471 1412.6 246.523 1380.5 238.24C1380.5 238.236 1380.5 238.236 1380.49 238.24C1379.45 237.973 1378.41 237.728 1377.36 237.5H1377.35C1376.51 237.319 1375.66 237.151 1374.8 236.991C1374.51 236.94 1374.22 236.888 1373.94 236.841C1373.33 236.737 1372.73 236.642 1372.13 236.552C1371.81 236.505 1371.48 236.457 1371.15 236.414C1370.18 236.281 1369.2 236.164 1368.21 236.065C1367.88 236.031 1367.55 236.001 1367.22 235.971C1364.62 235.738 1361.97 235.617 1359.27 235.617C1310.1 235.617 1264.76 275.483 1258.02 324.664C1256.44 336.198 1257.12 347.223 1259.73 357.34H1259.73C1261.48 364.141 1264.11 370.537 1267.49 376.399M1344.19 345.673C1332.58 345.673 1324.46 336.267 1326.06 324.664C1327.65 313.061 1338.35 303.65 1349.95 303.65C1361.55 303.65 1369.67 313.061 1368.08 324.664C1366.48 336.267 1355.79 345.673 1344.19 345.673Z" stroke="#0D0D0D" stroke-width="5.16834" stroke-miterlimit="10" stroke-linecap="round" stroke-linejoin="round"/>
<path d="M1401.52 321.924C1401.55 321.67 1401.58 321.42 1401.6 321.171C1401.64 320.805 1401.67 320.443 1401.7 320.081C1401.77 319.345 1401.83 318.608 1401.87 317.88C1401.89 317.458 1401.92 317.04 1401.94 316.623C1401.98 315.619 1402.02 314.616 1402.03 313.621C1402.04 312.686 1402.04 311.76 1402.03 310.834C1402.01 309.65 1401.96 308.474 1401.89 307.307C1399.84 273.471 1377.68 246.523 1345.58 238.24C1345.58 238.236 1345.58 238.236 1345.57 238.24C1344.53 237.973 1343.49 237.728 1342.44 237.5H1342.43C1341.59 237.319 1340.74 237.151 1339.88 236.991C1339.59 236.94 1339.3 236.888 1339.02 236.841C1338.41 236.737 1337.81 236.642 1337.21 236.552C1336.88 236.505 1336.56 236.457 1336.23 236.414C1335.26 236.281 1334.28 236.164 1333.29 236.065C1332.96 236.031 1332.63 236.001 1332.3 235.971C1329.7 235.738 1327.05 235.617 1324.35 235.617C1275.17 235.617 1229.84 275.483 1223.1 324.664C1221.52 336.198 1222.2 347.223 1224.81 357.34H1224.81C1233.31 390.349 1262.3 413.706 1299.94 413.706C1334.98 413.706 1368.08 393.463 1386.64 364.033C1388.28 361.436 1389.8 358.766 1391.21 356.035C1391.56 355.359 1391.9 354.674 1392.23 353.99C1392.72 352.978 1393.2 351.957 1393.65 350.927C1393.9 350.363 1394.15 349.799 1394.39 349.23C1395.7 346.147 1396.85 342.994 1397.84 339.781C1398.02 339.213 1398.19 338.64 1398.35 338.063C1399.02 335.754 1399.6 333.42 1400.09 331.055C1400.25 330.314 1400.39 329.569 1400.53 328.824C1400.78 327.429 1401.01 326.029 1401.2 324.621C1401.32 323.72 1401.43 322.82 1401.52 321.924Z" stroke="#0D0D0D" stroke-width="3.01486" stroke-miterlimit="10" stroke-linecap="round"/>
<path d="M1369.38 321.924C1369.41 321.67 1369.44 321.42 1369.46 321.171C1369.5 320.805 1369.53 320.443 1369.56 320.081C1369.63 319.345 1369.68 318.608 1369.73 317.88C1369.75 317.458 1369.78 317.04 1369.79 316.623C1369.84 315.619 1369.88 314.616 1369.89 313.621C1369.9 312.686 1369.9 311.76 1369.88 310.834C1369.87 309.65 1369.82 308.474 1369.75 307.307C1367.69 273.471 1345.54 246.523 1313.44 238.24C1313.44 238.236 1313.44 238.236 1313.43 238.24C1312.4 237.973 1311.35 237.728 1310.3 237.5H1310.29C1309.45 237.319 1308.6 237.151 1307.74 236.991C1307.46 236.94 1307.16 236.888 1306.88 236.841C1306.28 236.737 1305.67 236.642 1305.07 236.552C1304.75 236.505 1304.42 236.457 1304.09 236.414C1303.12 236.281 1302.14 236.164 1301.15 236.065C1300.82 236.031 1300.5 236.001 1300.16 235.971C1297.56 235.738 1294.91 235.617 1292.21 235.617C1243.04 235.617 1197.7 275.483 1190.96 324.664C1189.38 336.198 1190.06 347.223 1192.67 357.34H1192.67C1201.17 390.349 1230.16 413.706 1267.8 413.706C1302.84 413.706 1335.94 393.463 1354.5 364.033C1356.14 361.436 1357.67 358.766 1359.07 356.035C1359.42 355.359 1359.76 354.674 1360.09 353.99C1360.58 352.978 1361.06 351.957 1361.51 350.927C1361.77 350.363 1362.01 349.799 1362.25 349.23C1363.56 346.147 1364.72 342.994 1365.7 339.781C1365.88 339.213 1366.05 338.64 1366.22 338.063C1366.88 335.754 1367.46 333.42 1367.96 331.055C1368.11 330.314 1368.25 329.569 1368.39 328.824C1368.64 327.429 1368.87 326.029 1369.06 324.621C1369.18 323.72 1369.29 322.82 1369.38 321.924Z" stroke="#0D0D0D" stroke-width="2.15348" stroke-miterlimit="10" stroke-linecap="round" stroke-linejoin="round"/>
<path d="M878.053 376.399H1110.31" stroke="#0D0D0D" stroke-width="3.44556" stroke-miterlimit="10" stroke-linecap="round"/>
<path d="M1585.08 94.3279H1578.86" stroke="#0D0D0D" stroke-width="3.73206" stroke-miterlimit="10" stroke-linecap="round"/>
<path d="M1567.01 94.3279H1359.79" stroke="#0D0D0D" stroke-width="3.73206" stroke-miterlimit="10" stroke-linecap="round" stroke-dasharray="11.84 11.84"/>
<path d="M1353.87 94.3279H1347.65" stroke="#0D0D0D" stroke-width="3.73206" stroke-miterlimit="10" stroke-linecap="round"/>
<path d="M997.997 219.462H737.612" stroke="#0D0D0D" stroke-width="3.01486" stroke-miterlimit="10" stroke-linecap="round" stroke-dasharray="12.44 12.44"/>
<path d="M790.63 314.887H507.315" stroke="#0D0D0D" stroke-width="4" stroke-miterlimit="10" stroke-linecap="round"/>
<path d="M719 151H512" stroke="#0D0D0D" stroke-width="3" stroke-miterlimit="10" stroke-linecap="round"/>
<path d="M590.684 114H206" stroke="#0D0D0D" stroke-width="4" stroke-miterlimit="10" stroke-linecap="round"/>
<path d="M617 223L79 223" stroke="#0D0D0D" stroke-width="7" stroke-miterlimit="10" stroke-linecap="round" stroke-dasharray="70 70"/>
<path d="M353.036 298.641H680.997" stroke="#0D0D0D" stroke-width="3.3667" stroke-miterlimit="10" stroke-linecap="round" stroke-dasharray="18.7 18.7"/>
<path d="M1098.68 91.6061C1098.68 91.6061 1089.87 40.53 1020.18 65.4586L1011.61 70.3212C1011.61 70.3212 1030.7 37.485 1065.99 41.7446C1101.28 45.9998 1114.56 73.3619 1114.35 83.6986C1114.15 94.0352 1113.35 90.9945 1113.35 90.9945L1098.68 91.6061Z" fill="#F9AC12"/>
<path d="M1216.45 201.717C1232.61 169.445 1247.94 140.287 1250.39 141.08C1250.44 141.093 1250.46 141.11 1250.48 141.123C1253.06 142.893 1272.06 167.654 1285.99 186.006" stroke="#0D0D0D" stroke-width="2.15348" stroke-miterlimit="10" stroke-linecap="round"/>
<path d="M1060.85 105.031C1066.48 103.532 1089.46 109.988 1091.94 111.504" stroke="#0D0D0D" stroke-width="1.71679" stroke-miterlimit="10" stroke-linecap="round" stroke-linejoin="round"/>
<path d="M1057.45 108.627C1057.45 108.627 1064.57 117.461 1095.72 118.693C1095.72 118.697 1075.69 108.627 1057.45 108.627Z" stroke="#0D0D0D" stroke-width="1.58858" stroke-miterlimit="10" stroke-linecap="round" stroke-linejoin="round"/>
<path d="M1081.07 113.197C1080.24 115.251 1081.17 117.362 1083.15 117.909C1085.13 118.456 1087.41 117.232 1088.24 115.178" fill="#0D0D0D"/>
<path d="M1078.68 142.967C1074.52 142.053 1067.37 140.137 1065.16 137.359" stroke="#0D0D0D" stroke-width="1.87878" stroke-miterlimit="10" stroke-linecap="round" stroke-linejoin="round"/>
<path d="M1076.42 141.691C1076.42 141.691 1071.06 135.61 1069.61 135.123C1068.17 134.637 1068.98 139.749 1068.98 139.749" stroke="#0D0D0D" stroke-width="1.28791" stroke-miterlimit="10" stroke-linecap="round" stroke-linejoin="round"/>
<path d="M1102.97 109.264L1105.4 99.871L1113.55 108.713L1116.15 97.8898L1129.88 112.163C1129.23 109.118 1128.99 99.871 1117.85 86.3945" stroke="#0D0D0D" stroke-width="2.58417" stroke-miterlimit="10" stroke-linecap="round" stroke-linejoin="round"/>
<path d="M1111.13 86.4936C1111.13 86.4936 1091.88 93.122 1046.57 79.8049" stroke="#0D0D0D" stroke-width="1.97392" stroke-miterlimit="10" stroke-linecap="round" stroke-linejoin="round"/>
<path d="M996.097 102.175C994.189 63.1241 1023.27 44.9574 1023.27 44.9574C1034.04 37.6915 1045.4 35.6328 1055.37 35.8826" stroke="#0D0D0D" stroke-width="1.72278" stroke-miterlimit="10" stroke-linecap="round" stroke-linejoin="round"/>
<path d="M920.976 65.9453C920.976 65.9453 928.918 75.4723 942.321 73.9692C955.724 72.466 951.413 87.0149 960.587 89.2072C969.76 91.3994 970.829 86.1708 975.601 96.8132C980.373 107.456 988.689 94.2291 990.994 101.267C993.298 108.304 1000.68 110.113 1003.95 109.799" stroke="#0D0D0D" stroke-width="1.72278" stroke-miterlimit="10" stroke-linecap="round" stroke-linejoin="round"/>
<path d="M965.803 99.3413C970.118 99.2939 971.587 98.3679 975.106 106.207C978.086 112.852 982.471 110.022 985.852 108.855" stroke="#0D0D0D" stroke-width="1.72278" stroke-miterlimit="10" stroke-linecap="round" stroke-linejoin="round"/>
<path d="M954.794 101.378C957.077 101.766 958.834 101.736 960.268 101.624" stroke="#0D0D0D" stroke-width="1.72278" stroke-miterlimit="10" stroke-linecap="round" stroke-linejoin="round"/>
<path d="M924.572 84.7192C924.572 84.7192 932.562 93.1221 944.974 90.8954C946.525 90.6155 947.834 90.5896 948.954 90.7576" stroke="#0D0D0D" stroke-width="1.72278" stroke-miterlimit="10" stroke-linecap="round" stroke-linejoin="round"/>
<path d="M916.312 91.0073C916.312 91.0073 924.788 100.069 938.187 97.9243C951.585 95.7751 948.002 110.423 957.34 112.146C966.677 113.873 967.482 108.631 972.832 118.959C978.181 129.283 985.86 115.755 988.539 122.625C990.555 127.793 1002.72 125.795 1009.03 122.461" stroke="#0D0D0D" stroke-width="2.58417" stroke-miterlimit="10" stroke-linecap="round" stroke-linejoin="round"/>
<path d="M1219.2 177.943C1221 172.383 1219.01 169.295 1219.01 169.295C1206.75 155.396 1198.78 160.646 1196.28 161.262C1193.78 161.878 1170.8 173.309 1170.8 173.309L1174.36 171.65C1174.36 171.65 1118.53 195.003 1108.15 195.003C1099.71 195.003 1077.66 187.164 1069.7 184.231" stroke="#0D0D0D" stroke-width="3.44556" stroke-miterlimit="10" stroke-linecap="round" stroke-linejoin="round"/>
<path d="M1174.33 182.689C1174.33 182.689 1185.14 193.069 1183.62 196.032" stroke="#0D0D0D" stroke-width="1.57527" stroke-miterlimit="10" stroke-linecap="round" stroke-linejoin="round"/>
<path d="M1187.54 189.064C1187.54 189.064 1211.85 171.272 1212.89 177.202" stroke="#0D0D0D" stroke-width="2.58417" stroke-miterlimit="10" stroke-linecap="round" stroke-linejoin="round"/>
<path d="M1081.25 176.397C1091.99 179.998 1109.92 185.528 1115.18 184.257C1115.18 184.257 1140.57 180.178 1161.47 168.321C1161.47 168.321 1183.28 157.942 1187.42 160.168" stroke="#0D0D0D" stroke-width="2.15348" stroke-miterlimit="10" stroke-linecap="round" stroke-linejoin="round"/>
<path d="M1179.1 193.892C1179.1 193.892 1133.69 225.027 1102.88 227.99C1102.88 227.99 1062.6 231.724 1019.84 214.823" stroke="#0D0D0D" stroke-width="3.87626" stroke-miterlimit="10" stroke-linecap="round" stroke-linejoin="round"/>
<path d="M1191.39 190.735C1191.39 190.735 1188.8 209.638 1178.72 215.568" stroke="#0D0D0D" stroke-width="1.72278" stroke-miterlimit="10" stroke-linecap="round" stroke-linejoin="round"/>
<path d="M896.805 108.412C903.658 113.714 904.872 115.436 908.451 116.883C910.389 117.667 913.469 118.555 917.914 118.412C936.287 119.067 941.244 110.458 953.799 116.186C961.573 119.73 960.608 125.446 968.494 130.661C978.194 137.079 990.873 131.984 1000.3 129.843C1000.56 129.783 1000.81 129.688 1001.04 129.555C1003.04 128.426 1013.43 122.961 1017.87 128.611C1017.97 128.745 1018.09 128.874 1018.21 128.986C1025.66 135.632 1027.65 136.687 1028 136.377C1028.62 135.825 1029.57 135.877 1030.35 136.161C1033.27 137.225 1037.51 142.635 1037.84 142.682C1045 143.69 1052.79 149.233 1056.08 152.76C1059.38 156.288 1064.17 158.303 1068.61 160.823C1073.05 163.343 1074.85 165.104 1074.4 168.382C1073.95 171.659 1073.78 174.175 1073.16 178.71C1072.54 183.245 1067.25 188.788 1061.27 184.757C1055.28 180.725 1049 177.301 1043.55 172.663C1036.89 166.999 1015.16 162.421 1013.5 162.076C1013.43 162.063 1013.37 162.046 1013.3 162.029C1012.08 161.68 999.573 158.196 987.187 158.346C987.135 158.346 987.083 158.346 987.032 158.342C978.383 157.864 937.471 157.838 920.558 149.427C903.597 140.989 908.029 134.899 896.68 138.539C877.032 144.836 884.418 130.769 881.167 123.482C877.609 115.51 864.417 113.912 864.96 113.434C865.998 112.521 880.943 102.167 890.31 103.691C891.167 103.833 893.002 105.47 896.805 108.412Z" fill="#FF4412"/>
<path d="M1215.12 182.582C1215.12 182.582 1212.8 194.072 1206.18 201.855" stroke="#0D0D0D" stroke-width="3.01486" stroke-miterlimit="10" stroke-linecap="round" stroke-linejoin="round"/>
<path d="M994.285 158.846C994.285 158.846 937.549 157.3 920.584 148.876C903.623 140.451 907.418 133.104 896.706 138.005C880.495 145.417 866.932 144.306 859.257 135.412" stroke="#0D0D0D" stroke-width="1.57527" stroke-miterlimit="10" stroke-linecap="round" stroke-linejoin="round"/>
<path d="M1019.22 129.434C1011.99 123.809 1007.62 127.052 1000.74 129.231C994.822 131.105 978.37 136.644 968.529 130.144C960.643 124.933 961.607 119.231 953.833 115.69C941.274 109.971 931.963 121.754 917.948 117.913C917.577 117.809 917.216 117.702 916.867 117.59" stroke="#0D0D0D" stroke-width="2.58417" stroke-miterlimit="10" stroke-linecap="round" stroke-linejoin="round"/>
<path d="M973.146 171.074C982.07 165.612 989.551 161.818 991.842 160.685C992.23 160.496 992.583 160.255 992.949 160.022C998.733 156.331 1034.61 165.552 1043.58 172.077C1049.38 176.298 1055.31 180.127 1061.3 184.154C1067.29 188.181 1072.57 182.646 1073.19 178.115C1073.81 173.585 1073.98 171.074 1074.43 167.8C1074.88 164.531 1073.08 162.77 1068.64 160.255C1064.2 157.739 1059.41 155.728 1056.11 152.205C1052.82 148.682 1045.03 143.147 1037.87 142.144" stroke="#0D0D0D" stroke-width="2.58417" stroke-miterlimit="10" stroke-linecap="round" stroke-linejoin="round"/>
<path d="M1114.76 91.6922C1114.76 91.6922 1118.9 59.136 1087.43 47.0981C1087.43 47.0981 1054.67 32.7473 1027.8 51.1552" stroke="#0D0D0D" stroke-width="3.44556" stroke-miterlimit="10" stroke-linecap="round" stroke-linejoin="round"/>
<path d="M1022.08 55.2898C1022.08 55.2898 997.842 80.2658 1005.57 109.209L1009.82 121.78L1039.91 144.125L1043.86 102.145L1053.74 89.9823L1043.78 102.399L1062.99 91.2011L1056.78 99.4619L1080.23 97.2395L1070.11 102.055L1090.01 99.6686L1084.71 105.991L1096.57 100.629L1097.42 102.33L1113.63 139.262L1089.21 133.439C1089.21 133.439 1072.43 150.736 1062.69 156.96" stroke="#0D0D0D" stroke-width="3" stroke-miterlimit="10" stroke-linecap="round" stroke-linejoin="round"/>
<path d="M527 274L241 274" stroke="#0D0D0D" stroke-width="6" stroke-miterlimit="10" stroke-linecap="round"/>
<path d="M2034 41L1744 41" stroke="#0D0D0D" stroke-width="4" stroke-miterlimit="10" stroke-linecap="round"/>
<path d="M2023 216H1700" stroke="#0D0D0D" stroke-width="4" stroke-miterlimit="10" stroke-linecap="round" stroke-dasharray="40 40"/>
<path d="M1968 259H1735" stroke="#0D0D0D" stroke-width="3" stroke-miterlimit="10" stroke-linecap="round"/>
<path d="M235 183H2" stroke="#0D0D0D" stroke-width="3" stroke-miterlimit="10" stroke-linecap="round"/>
<path d="M1967 145.06L1573 151" stroke="#0D0D0D" stroke-width="7" stroke-miterlimit="10" stroke-linecap="round" stroke-dasharray="40 40"/>
</svg>
