<svg width="585" height="662" viewBox="0 0 585 662" fill="none" xmlns="http://www.w3.org/2000/svg">
<line x1="386" y1="1" x2="551" y2="1" stroke="#0D0D0D" stroke-width="2" stroke-dasharray="10 10"/>
<line x1="93" y1="51.5" x2="229" y2="51.5" stroke="#0D0D0D" stroke-dasharray="30 30"/>
<line x1="329" y1="17.5" x2="388" y2="17.5" stroke="#0D0D0D" stroke-dasharray="30 30"/>
<line x1="394" y1="32.25" x2="453" y2="32.25" stroke="#0D0D0D" stroke-width="1.5"/>
<line x1="157" y1="12.25" x2="255" y2="12.25" stroke="#0D0D0D" stroke-width="1.5" stroke-dasharray="20 20"/>
<line x1="97" y1="25.25" x2="195" y2="25.25" stroke="#0D0D0D" stroke-width="1.5"/>
<path d="M303 193L109 193" stroke="#0D0D0D" stroke-width="2" stroke-linecap="round" stroke-dasharray="6 6"/>
<path d="M421 170H319" stroke="#0D0D0D" stroke-width="2" stroke-linecap="round"/>
<path d="M204 419L370 419" stroke="#0D0D0D" stroke-linecap="round" stroke-dasharray="15 15"/>
<path d="M583 567.457L210 567.457" stroke="black" stroke-width="3" stroke-linecap="round"/>
<path d="M469 617H275" stroke="black" stroke-width="3" stroke-linecap="round" stroke-dasharray="6 6"/>
<path d="M302 597H108" stroke="#FFCB46" stroke-width="5" stroke-linecap="round"/>
<path d="M543 659H349" stroke="#FFCB46" stroke-width="5" stroke-linecap="round"/>
<path d="M375 541.457L2 541.457" stroke="black" stroke-width="3" stroke-linecap="round" stroke-dasharray="20 20"/>
<path d="M262.611 46.5762L166 46.5762" stroke="#0D0D0D" stroke-width="1.33257" stroke-miterlimit="10" stroke-linecap="round"/>
<path d="M444.105 137.888C443.88 136.846 443.561 135.677 443.108 134.453C442.127 131.795 440.105 126.686 435.399 121.384C429.319 114.535 421.377 110.789 411.853 106.843C392.79 98.9437 352.413 89.3295 344.889 88.4214C343.914 88.3039 342.883 88.5416 341.973 89.0891C338.295 91.3114 328.781 101.621 318.122 106.293C311.337 109.266 261.372 107.417 249.038 107.417C223.774 107.417 264.013 84.6286 258.924 85.1535C258.905 85.1561 258.892 85.1575 258.89 85.1575C257.935 85.2696 202.131 89.0878 152.014 113.235C141.393 118.352 131.322 126.838 133.621 135.255C136.352 145.257 166.895 142.623 176.786 142.653H177.442H177.749C177.315 140.09 177.264 137.37 177.65 134.552C179.741 119.302 193.799 106.941 209.046 106.941C209.882 106.941 210.703 106.978 211.511 107.05C211.614 107.059 211.716 107.069 211.818 107.079C212.124 107.11 212.427 107.146 212.728 107.188C212.831 107.201 212.931 107.216 213.032 107.23C213.219 107.258 213.406 107.288 213.593 107.32C213.683 107.335 213.772 107.351 213.86 107.367C214.126 107.416 214.391 107.468 214.652 107.524H214.654C214.981 107.595 215.305 107.671 215.626 107.754C215.627 107.753 215.627 107.753 215.629 107.754C225.581 110.322 232.452 118.678 233.087 129.17C233.11 129.532 233.123 129.896 233.13 130.263C233.137 130.551 233.135 130.838 233.131 131.127C233.127 131.436 233.117 131.747 233.102 132.058C233.097 132.188 233.089 132.317 233.081 132.448C233.067 132.674 233.05 132.902 233.03 133.131C233.022 133.243 233.01 133.355 232.998 133.469C232.991 133.546 232.983 133.624 232.974 133.702C232.944 133.98 232.911 134.259 232.872 134.538C232.812 134.975 232.744 135.409 232.664 135.842C232.621 136.073 232.577 136.304 232.529 136.534C232.377 137.267 232.195 137.991 231.99 138.706C231.939 138.885 231.885 139.063 231.831 139.239C231.525 140.235 231.166 141.213 230.76 142.169C230.689 142.339 230.615 142.506 230.541 142.674L290.989 142.697C310.978 142.705 330.874 142.711 348.131 142.718C347.671 140.11 347.61 137.332 348.004 134.454C350.096 119.204 364.152 106.843 379.399 106.843C380.124 106.843 380.837 106.871 381.541 106.926C381.856 106.95 382.169 106.979 382.479 107.015C382.676 107.038 382.871 107.062 383.066 107.089C383.26 107.115 383.454 107.144 383.646 107.174C383.647 107.173 383.649 107.173 383.649 107.174C383.922 107.217 384.193 107.265 384.462 107.317C384.462 107.317 384.463 107.317 384.464 107.317C395.245 109.398 402.791 118.078 403.444 129.112V129.114C403.454 129.289 403.463 129.465 403.47 129.641C403.47 129.642 403.47 129.644 403.47 129.644C403.476 129.829 403.482 130.015 403.486 130.201C403.487 130.294 403.488 130.388 403.488 130.481C403.488 130.482 403.488 130.482 403.488 130.484C403.491 130.681 403.488 130.879 403.486 131.078C403.484 131.178 403.482 131.278 403.479 131.379C403.479 131.38 403.479 131.38 403.479 131.381C403.472 131.591 403.466 131.801 403.455 132.012C403.45 132.117 403.443 132.223 403.436 132.329C403.43 132.446 403.422 132.563 403.412 132.681C403.404 132.797 403.395 132.913 403.384 133.029C403.386 133.033 403.384 133.037 403.383 133.043C403.375 133.147 403.364 133.252 403.355 133.358C403.354 133.378 403.351 133.396 403.35 133.417C403.339 133.525 403.327 133.633 403.315 133.741C403.303 133.86 403.288 133.979 403.272 134.098C403.257 134.216 403.243 134.335 403.225 134.454C403.167 134.887 403.097 135.318 403.018 135.747C402.966 136.033 402.91 136.316 402.849 136.599C402.79 136.882 402.725 137.165 402.655 137.446C402.552 137.866 402.44 138.284 402.319 138.7C402.319 138.7 402.319 138.7 402.319 138.701C402.238 138.977 402.153 139.253 402.065 139.526C401.712 140.621 401.297 141.694 400.823 142.738C400.824 142.738 400.824 142.738 400.824 142.738C408.436 142.408 432.674 142.273 440.46 142.228C442.701 142.215 444.557 139.999 444.105 137.888Z" fill="#F9AC12"/>
<path d="M236.205 142.072C236.611 141.116 236.97 140.139 237.276 139.142C237.331 138.966 237.383 138.789 237.435 138.61C237.64 137.894 237.822 137.17 237.974 136.437C238.022 136.207 238.066 135.976 238.109 135.745C238.188 135.312 238.257 134.878 238.318 134.442C238.356 134.162 238.39 133.883 238.419 133.606C238.428 133.527 238.436 133.449 238.443 133.372C238.455 133.258 238.466 133.146 238.475 133.034C238.495 132.806 238.513 132.577 238.526 132.351C238.534 132.221 238.542 132.091 238.547 131.962C238.562 131.65 238.573 131.339 238.577 131.031C238.581 130.741 238.581 130.454 238.575 130.167C238.57 129.799 238.555 129.435 238.533 129.073C237.896 118.581 231.026 110.225 221.072 107.657C221.071 107.656 221.071 107.656 221.07 107.657C220.749 107.574 220.423 107.498 220.098 107.427H220.096C219.834 107.371 219.57 107.319 219.304 107.27C219.216 107.254 219.125 107.238 219.037 107.223C218.85 107.191 218.663 107.162 218.476 107.134C218.375 107.119 218.275 107.104 218.172 107.091C217.871 107.049 217.568 107.013 217.262 106.983C217.159 106.972 217.058 106.963 216.955 106.953C216.147 106.881 215.326 106.844 214.49 106.844C199.241 106.844 185.184 119.205 183.094 134.455C182.703 137.309 182.757 140.064 183.207 142.653" stroke="#0D0D0D" stroke-width="1.60258" stroke-miterlimit="10" stroke-linecap="round"/>
<path d="M293.573 146.427C292.461 146.427 291.347 146.426 290.234 146.426" stroke="#0D0D0D" stroke-width="1.60258" stroke-linecap="round" stroke-linejoin="round"/>
<path d="M283.114 146.423C259.637 146.414 236.384 146.404 215.469 146.396" stroke="#0D0D0D" stroke-width="1.60258" stroke-linecap="round" stroke-linejoin="round" stroke-dasharray="7.12 7.12"/>
<path d="M211.908 146.395C210.788 146.395 209.675 146.393 208.569 146.393C208.587 146.357 208.601 146.324 208.617 146.289" stroke="#0D0D0D" stroke-width="1.60258" stroke-linecap="round" stroke-linejoin="round"/>
<path d="M183.071 142.653H182.415C172.525 142.623 141.982 145.257 139.25 135.255C136.95 126.838 147.021 118.352 157.643 113.235C207.761 89.0878 258.945 85.2696 259.9 85.1575C259.901 85.1575 264.534 85.1561 264.553 85.1535C269.642 84.6286 224.784 107.417 250.048 107.417C262.381 107.417 316.967 109.266 323.751 106.293C334.411 101.621 343.687 93.0475 347.365 90.8253C348.273 90.2777 349.305 90.04 350.28 90.1575C357.804 91.0656 398.419 98.9437 417.482 106.843C427.006 110.789 434.949 114.535 441.028 121.384C445.735 126.686 447.756 131.795 448.737 134.453C449.19 135.677 449.509 136.846 449.734 137.888C450.186 139.999 448.33 142.215 446.089 142.228C438.303 142.273 414.066 142.408 406.453 142.738C406.453 142.738 406.453 142.738 406.452 142.738C406.925 141.694 407.34 140.621 407.694 139.526C407.782 139.253 407.866 138.977 407.948 138.701C407.948 138.7 407.948 138.7 407.948 138.7C408.069 138.284 408.182 137.866 408.284 137.446C408.354 137.165 408.419 136.882 408.478 136.599C408.539 136.316 408.596 136.033 408.648 135.747C408.726 135.318 408.795 134.887 408.855 134.454C408.871 134.335 408.885 134.216 408.901 134.098C408.916 133.979 408.931 133.86 408.944 133.741C408.956 133.633 408.968 133.525 408.979 133.417C408.98 133.396 408.983 133.378 408.984 133.358C408.995 133.252 409.006 133.147 409.012 133.043C409.015 133.037 409.015 133.033 409.014 133.029C409.024 132.913 409.034 132.797 409.042 132.681C409.051 132.563 409.059 132.446 409.066 132.329C409.072 132.223 409.079 132.117 409.084 132.012C409.095 131.801 409.102 131.591 409.108 131.381C409.108 131.38 409.108 131.38 409.108 131.379C409.111 131.278 409.114 131.178 409.115 131.078C409.118 130.879 409.12 130.681 409.118 130.484C409.118 130.482 409.118 130.482 409.118 130.481C409.118 130.388 409.116 130.294 409.115 130.201C409.111 130.015 409.106 129.829 409.099 129.644C409.099 129.644 409.099 129.642 409.099 129.641C409.092 129.465 409.083 129.289 409.074 129.114V129.112C408.422 118.078 400.875 109.398 390.094 107.317C390.092 107.317 390.091 107.317 390.091 107.317C389.821 107.265 389.55 107.217 389.278 107.174C389.278 107.173 389.276 107.173 389.275 107.174C389.083 107.144 388.889 107.115 388.695 107.089C388.5 107.062 388.304 107.038 388.108 107.015C387.798 106.979 387.486 106.95 387.17 106.926C386.468 106.871 385.755 106.843 385.028 106.843C369.78 106.843 355.724 119.204 353.634 134.454C353.24 137.332 353.298 140.11 353.761 142.718C336.503 142.711 316.607 142.705 296.618 142.697" stroke="#0D0D0D" stroke-width="2" stroke-miterlimit="10" stroke-linecap="round"/>
<path d="M186.725 151.732C190.912 158.086 198.155 162.16 206.91 162.16C217.775 162.16 228.037 155.884 233.793 146.758C234.302 145.953 234.774 145.125 235.21 144.278C235.318 144.069 235.423 143.856 235.526 143.644C235.679 143.33 235.827 143.014 235.967 142.694C236.046 142.519 236.122 142.344 236.195 142.168C236.601 141.212 236.961 140.234 237.266 139.238C237.321 139.062 237.373 138.884 237.425 138.705C237.631 137.989 237.813 137.266 237.965 136.532C238.013 136.303 238.057 136.072 238.1 135.841C238.179 135.408 238.248 134.974 238.308 134.537C238.347 134.258 238.38 133.979 238.41 133.701C238.419 133.622 238.427 133.545 238.434 133.468C238.446 133.354 238.456 133.242 238.466 133.13C238.486 132.901 238.503 132.673 238.516 132.447C238.524 132.316 238.532 132.187 238.538 132.057C238.552 131.746 238.563 131.435 238.567 131.126C238.571 130.837 238.571 130.549 238.566 130.262C238.56 129.895 238.546 129.531 238.523 129.169C237.886 118.677 231.016 110.321 221.064 107.753C221.063 107.751 221.063 107.751 221.062 107.753C220.74 107.67 220.415 107.594 220.089 107.523H220.088C219.826 107.467 219.562 107.415 219.296 107.365C219.208 107.349 219.117 107.333 219.029 107.319C218.842 107.287 218.655 107.257 218.468 107.229C218.368 107.215 218.266 107.2 218.164 107.187C217.863 107.145 217.56 107.109 217.254 107.078C217.151 107.068 217.05 107.058 216.947 107.049C216.139 106.977 215.318 106.939 214.482 106.939C199.233 106.939 185.176 119.301 183.086 134.551C182.596 138.127 182.807 141.546 183.615 144.683H183.616M209.802 141.065C206.204 141.065 203.687 138.148 204.181 134.551C204.674 130.953 207.991 128.035 211.589 128.035C215.187 128.035 217.703 130.953 217.21 134.551C216.717 138.148 213.4 141.065 209.802 141.065Z" stroke="#0D0D0D" stroke-width="1.60258" stroke-miterlimit="10" stroke-linecap="round" stroke-linejoin="round"/>
<path d="M227.582 133.701C227.591 133.622 227.599 133.545 227.606 133.468C227.618 133.354 227.629 133.242 227.638 133.13C227.658 132.901 227.675 132.673 227.689 132.447C227.697 132.316 227.705 132.187 227.71 132.057C227.725 131.746 227.735 131.435 227.739 131.126C227.743 130.837 227.743 130.549 227.738 130.262C227.733 129.895 227.718 129.531 227.695 129.169C227.058 118.677 220.189 110.321 210.235 107.753C210.234 107.751 210.234 107.751 210.233 107.753C209.912 107.67 209.586 107.594 209.26 107.523H209.259C208.997 107.467 208.733 107.415 208.467 107.365C208.379 107.349 208.288 107.333 208.2 107.319C208.013 107.287 207.826 107.257 207.639 107.229C207.538 107.215 207.437 107.2 207.335 107.187C207.034 107.145 206.731 107.109 206.425 107.078C206.322 107.068 206.221 107.058 206.118 107.049C205.31 106.977 204.489 106.939 203.653 106.939C188.404 106.939 174.347 119.301 172.257 134.551C171.767 138.127 171.978 141.546 172.786 144.683H172.787C175.423 154.918 184.411 162.16 196.083 162.16C206.949 162.16 217.21 155.884 222.966 146.758C223.475 145.953 223.948 145.125 224.383 144.278C224.492 144.069 224.597 143.856 224.7 143.644C224.852 143.33 225 143.014 225.141 142.694C225.219 142.519 225.295 142.344 225.369 142.168C225.775 141.212 226.134 140.234 226.44 139.238C226.495 139.062 226.547 138.884 226.599 138.705C226.805 137.989 226.986 137.266 227.138 136.532C227.187 136.303 227.231 136.072 227.273 135.841C227.352 135.408 227.422 134.974 227.482 134.537C227.519 134.258 227.554 133.979 227.582 133.701Z" stroke="#0D0D0D" stroke-width="0.934839" stroke-miterlimit="10" stroke-linecap="round"/>
<path d="M217.616 133.701C217.625 133.622 217.633 133.545 217.64 133.468C217.652 133.354 217.662 133.242 217.672 133.13C217.692 132.901 217.709 132.673 217.722 132.447C217.73 132.316 217.739 132.187 217.744 132.057C217.759 131.746 217.769 131.435 217.773 131.126C217.777 130.837 217.777 130.549 217.772 130.262C217.767 129.895 217.752 129.531 217.729 129.169C217.092 118.677 210.222 110.321 200.27 107.753C200.269 107.751 200.269 107.751 200.268 107.753C199.946 107.67 199.621 107.594 199.295 107.523H199.294C199.032 107.467 198.768 107.415 198.502 107.365C198.414 107.349 198.323 107.333 198.235 107.319C198.048 107.287 197.861 107.257 197.674 107.229C197.574 107.215 197.473 107.2 197.37 107.187C197.069 107.145 196.766 107.109 196.46 107.078C196.357 107.068 196.256 107.058 196.153 107.049C195.345 106.977 194.524 106.939 193.688 106.939C178.439 106.939 164.382 119.301 162.292 134.551C161.802 138.127 162.013 141.546 162.821 144.683H162.822C165.458 154.918 174.446 162.16 186.118 162.16C196.984 162.16 207.246 155.884 213.002 146.758C213.51 145.953 213.983 145.125 214.418 144.278C214.527 144.069 214.632 143.856 214.735 143.644C214.887 143.33 215.035 143.014 215.176 142.694C215.254 142.519 215.331 142.344 215.404 142.168C215.81 141.212 216.169 140.234 216.475 139.238C216.53 139.062 216.582 138.884 216.634 138.705C216.84 137.989 217.021 137.266 217.174 136.532C217.222 136.303 217.266 136.072 217.308 135.841C217.387 135.408 217.457 134.974 217.517 134.537C217.553 134.258 217.588 133.979 217.616 133.701Z" stroke="#0D0D0D" stroke-width="0.667742" stroke-miterlimit="10" stroke-linecap="round" stroke-linejoin="round"/>
<path d="M362.468 157.33C366.489 160.378 371.62 162.16 377.412 162.16C388.277 162.16 398.539 155.884 404.295 146.758C404.804 145.953 405.277 145.125 405.712 144.278C405.82 144.069 405.926 143.856 406.029 143.644C406.181 143.33 406.329 143.014 406.469 142.694C406.548 142.519 406.624 142.344 406.698 142.168C407.104 141.212 407.463 140.234 407.769 139.238C407.823 139.062 407.876 138.884 407.928 138.705C408.133 137.989 408.315 137.266 408.467 136.532C408.515 136.303 408.559 136.072 408.602 135.841C408.681 135.408 408.75 134.974 408.81 134.537C408.849 134.258 408.883 133.979 408.912 133.701C408.921 133.622 408.929 133.545 408.936 133.468C408.948 133.354 408.959 133.242 408.968 133.13C408.988 132.901 409.005 132.673 409.019 132.447C409.027 132.316 409.035 132.187 409.04 132.057C409.055 131.746 409.065 131.435 409.069 131.126C409.073 130.837 409.073 130.549 409.068 130.262C409.063 129.895 409.048 129.531 409.025 129.169C408.388 118.677 401.519 110.321 391.565 107.753C391.564 107.751 391.564 107.751 391.563 107.753C391.241 107.67 390.916 107.594 390.59 107.523H390.589C390.327 107.467 390.063 107.415 389.797 107.365C389.709 107.349 389.618 107.333 389.53 107.319C389.343 107.287 389.156 107.257 388.969 107.229C388.869 107.215 388.767 107.2 388.665 107.187C388.364 107.145 388.061 107.109 387.755 107.078C387.652 107.068 387.551 107.058 387.448 107.049C386.64 106.977 385.819 106.939 384.983 106.939C369.734 106.939 355.677 119.301 353.587 134.551C353.097 138.127 353.308 141.546 354.116 144.683H354.117C354.661 146.792 355.474 148.775 356.524 150.592M380.304 141.065C376.707 141.065 374.189 138.148 374.683 134.551C375.176 130.953 378.494 128.035 382.091 128.035C385.689 128.035 388.205 130.953 387.712 134.551C387.218 138.148 383.902 141.065 380.304 141.065Z" stroke="#0D0D0D" stroke-width="2" stroke-miterlimit="10" stroke-linecap="round" stroke-linejoin="round"/>
<path d="M398.084 133.701C398.093 133.622 398.101 133.545 398.108 133.468C398.12 133.354 398.131 133.242 398.14 133.13C398.16 132.901 398.177 132.673 398.191 132.447C398.199 132.316 398.207 132.187 398.212 132.057C398.227 131.746 398.237 131.435 398.241 131.126C398.245 130.837 398.245 130.549 398.24 130.262C398.235 129.895 398.22 129.531 398.197 129.169C397.56 118.677 390.691 110.321 380.737 107.753C380.736 107.751 380.736 107.751 380.734 107.753C380.413 107.67 380.088 107.594 379.762 107.523H379.761C379.499 107.467 379.235 107.415 378.969 107.365C378.881 107.349 378.79 107.333 378.702 107.319C378.515 107.287 378.328 107.257 378.141 107.229C378.041 107.215 377.939 107.2 377.837 107.187C377.536 107.145 377.233 107.109 376.927 107.078C376.824 107.068 376.723 107.058 376.62 107.049C375.812 106.977 374.991 106.939 374.155 106.939C358.906 106.939 344.849 119.301 342.759 134.551C342.269 138.127 342.48 141.546 343.288 144.683H343.289C345.925 154.918 354.913 162.16 366.585 162.16C377.451 162.16 387.712 155.884 393.468 146.758C393.977 145.953 394.45 145.125 394.885 144.278C394.993 144.069 395.099 143.856 395.202 143.644C395.354 143.33 395.502 143.014 395.642 142.694C395.721 142.519 395.797 142.344 395.871 142.168C396.277 141.212 396.636 140.234 396.942 139.238C396.997 139.062 397.049 138.884 397.101 138.705C397.307 137.989 397.488 137.266 397.64 136.532C397.688 136.303 397.733 136.072 397.775 135.841C397.854 135.408 397.924 134.974 397.984 134.537C398.021 134.258 398.054 133.979 398.084 133.701Z" stroke="#0D0D0D" stroke-width="0.934839" stroke-miterlimit="10" stroke-linecap="round"/>
<path d="M388.117 133.701C388.126 133.622 388.134 133.545 388.141 133.468C388.153 133.354 388.163 133.242 388.173 133.13C388.193 132.901 388.21 132.673 388.223 132.447C388.231 132.316 388.239 132.187 388.245 132.057C388.26 131.746 388.27 131.435 388.274 131.126C388.278 130.837 388.278 130.549 388.273 130.262C388.268 129.895 388.253 129.531 388.23 129.169C387.593 118.677 380.723 110.321 370.771 107.753C370.77 107.751 370.77 107.751 370.769 107.753C370.447 107.67 370.122 107.594 369.796 107.523H369.795C369.533 107.467 369.269 107.415 369.003 107.365C368.915 107.349 368.824 107.333 368.736 107.319C368.549 107.287 368.362 107.257 368.175 107.229C368.075 107.215 367.973 107.2 367.871 107.187C367.57 107.145 367.267 107.109 366.961 107.078C366.858 107.068 366.757 107.058 366.654 107.049C365.846 106.977 365.025 106.939 364.189 106.939C348.94 106.939 334.883 119.301 332.793 134.551C332.303 138.127 332.514 141.546 333.322 144.683H333.323C335.959 154.918 344.947 162.16 356.619 162.16C367.485 162.16 377.747 155.884 383.503 146.758C384.011 145.953 384.484 145.125 384.919 144.278C385.028 144.069 385.133 143.856 385.236 143.644C385.388 143.33 385.536 143.014 385.677 142.694C385.755 142.519 385.832 142.344 385.905 142.168C386.311 141.212 386.67 140.234 386.976 139.238C387.031 139.062 387.083 138.884 387.135 138.705C387.341 137.989 387.522 137.266 387.675 136.532C387.723 136.303 387.767 136.072 387.809 135.841C387.888 135.408 387.958 134.974 388.018 134.537C388.054 134.258 388.087 133.979 388.117 133.701Z" stroke="#0D0D0D" stroke-width="0.667742" stroke-miterlimit="10" stroke-linecap="round" stroke-linejoin="round"/>
<path d="M235.767 150.593H307.785" stroke="#0D0D0D" stroke-width="1.06839" stroke-miterlimit="10" stroke-linecap="round"/>
<path d="M455.001 63.1289H453.072" stroke="#0D0D0D" stroke-width="1.15722" stroke-miterlimit="10" stroke-linecap="round"/>
<path d="M449.399 63.1289H385.144" stroke="#0D0D0D" stroke-width="1.15722" stroke-miterlimit="10" stroke-linecap="round" stroke-dasharray="3.67 3.67"/>
<path d="M383.309 63.1289H381.379" stroke="#0D0D0D" stroke-width="1.15722" stroke-miterlimit="10" stroke-linecap="round"/>
<path d="M272.959 101.93H192.22" stroke="#0D0D0D" stroke-miterlimit="10" stroke-linecap="round" stroke-dasharray="3.86 3.86"/>
<path d="M208.66 131.519H120.811" stroke="#0D0D0D" stroke-width="1.24031" stroke-miterlimit="10" stroke-linecap="round"/>
<path d="M186.449 80.7012H122.263" stroke="#0D0D0D" stroke-width="0.93023" stroke-miterlimit="10" stroke-linecap="round"/>
<path d="M179 69H81" stroke="#0D0D0D" stroke-width="1.24031" stroke-miterlimit="10" stroke-linecap="round"/>
<path d="M186 103L49 103" stroke="#0D0D0D" stroke-width="2.17054" stroke-miterlimit="10" stroke-linecap="round" stroke-dasharray="21.71 21.71"/>
<path d="M72.9707 126.481H174.664" stroke="#0D0D0D" stroke-width="1.04393" stroke-miterlimit="10" stroke-linecap="round" stroke-dasharray="5.8 5.8"/>
<path d="M304.18 62.2852C304.18 62.2852 301.449 46.4477 279.838 54.1775L277.181 55.6852C277.181 55.6852 283.101 45.5035 294.044 46.8243C304.987 48.1437 309.103 56.6281 309.04 59.8332C308.977 63.0384 308.73 62.0955 308.73 62.0955L304.18 62.2852Z" fill="#F9AC12"/>
<path d="M340.698 96.4273C345.708 86.4205 350.462 77.3793 351.222 77.625C351.235 77.629 351.243 77.6344 351.249 77.6384C352.049 78.1873 357.941 85.8649 362.258 91.5554" stroke="#0D0D0D" stroke-miterlimit="10" stroke-linecap="round"/>
<path d="M292.449 66.4474C294.195 65.9827 301.318 67.9845 302.089 68.4546" stroke="#0D0D0D" stroke-width="0.532337" stroke-miterlimit="10" stroke-linecap="round" stroke-linejoin="round"/>
<path d="M291.396 67.5625C291.396 67.5625 293.602 70.3016 303.261 70.6835C303.261 70.6849 297.05 67.5625 291.396 67.5625Z" stroke="#0D0D0D" stroke-width="0.49258" stroke-miterlimit="10" stroke-linecap="round" stroke-linejoin="round"/>
<path d="M298.718 68.9795C298.46 69.6165 298.75 70.2709 299.365 70.4405C299.979 70.6101 300.685 70.2308 300.942 69.5938" fill="#0D0D0D"/>
<path d="M297.978 78.2105C296.688 77.9274 294.471 77.3331 293.784 76.4717" stroke="#0D0D0D" stroke-width="0.582565" stroke-miterlimit="10" stroke-linecap="round" stroke-linejoin="round"/>
<path d="M297.277 77.8153C297.277 77.8153 295.613 75.9296 295.165 75.7787C294.718 75.6278 294.97 77.213 294.97 77.213" stroke="#0D0D0D" stroke-width="0.39935" stroke-miterlimit="10" stroke-linecap="round" stroke-linejoin="round"/>
<path d="M305.507 67.7604L306.263 64.8477L308.789 67.5894L309.593 64.2334L313.852 68.6591C313.651 67.715 313.576 64.8477 310.122 60.6689" stroke="#0D0D0D" stroke-width="0.80129" stroke-miterlimit="10" stroke-linecap="round" stroke-linejoin="round"/>
<path d="M308.038 60.699C308.038 60.699 302.069 62.7543 288.02 58.625" stroke="#0D0D0D" stroke-width="0.612066" stroke-miterlimit="10" stroke-linecap="round" stroke-linejoin="round"/>
<path d="M272.371 65.5619C271.779 53.4531 280.798 47.82 280.798 47.82C284.135 45.5671 287.658 44.9287 290.75 45.0062" stroke="#0D0D0D" stroke-width="0.534194" stroke-miterlimit="10" stroke-linecap="round" stroke-linejoin="round"/>
<path d="M249.077 54.3281C249.077 54.3281 251.54 57.2822 255.696 56.8161C259.852 56.35 258.515 60.8613 261.36 61.5411C264.204 62.2208 264.535 60.5996 266.015 63.8995C267.495 67.1995 270.074 63.0982 270.788 65.2804C271.503 67.4626 273.79 68.0235 274.805 67.926" stroke="#0D0D0D" stroke-miterlimit="10" stroke-linecap="round" stroke-linejoin="round"/>
<path d="M262.978 64.6836C264.316 64.6689 264.771 64.3818 265.862 66.8124C266.786 68.8731 268.146 67.9956 269.194 67.6337" stroke="#0D0D0D" stroke-width="0.534194" stroke-miterlimit="10" stroke-linecap="round" stroke-linejoin="round"/>
<path d="M259.563 65.3145C260.271 65.4346 260.816 65.4253 261.261 65.3906" stroke="#0D0D0D" stroke-miterlimit="10" stroke-linecap="round" stroke-linejoin="round"/>
<path d="M250.193 60.1494C250.193 60.1494 252.671 62.7549 256.52 62.0645C257 61.9777 257.406 61.9697 257.754 62.0218" stroke="#0D0D0D" stroke-miterlimit="10" stroke-linecap="round" stroke-linejoin="round"/>
<path d="M247.631 62.0986C247.631 62.0986 250.259 64.9085 254.414 64.2434C258.568 63.577 257.457 68.119 260.353 68.6532C263.248 69.1887 263.498 67.5634 265.156 70.7659C266.815 73.9671 269.196 69.7723 270.027 71.9024C270.652 73.505 274.423 72.8853 276.38 71.8517" stroke="#0D0D0D" stroke-miterlimit="10" stroke-linecap="round" stroke-linejoin="round"/>
<path d="M341.551 89.0559C342.109 87.3318 341.491 86.3743 341.491 86.3743C337.691 82.0647 335.219 83.6926 334.443 83.8836C333.667 84.0746 326.543 87.619 326.543 87.619L327.647 87.1048C327.647 87.1048 310.334 94.3458 307.117 94.3458C304.5 94.3458 297.661 91.9152 295.193 91.0057" stroke="#0D0D0D" stroke-width="1.06839" stroke-miterlimit="10" stroke-linecap="round" stroke-linejoin="round"/>
<path d="M327.637 90.5273C327.637 90.5273 330.989 93.7459 330.517 94.6647" stroke="#0D0D0D" stroke-width="0.488453" stroke-miterlimit="10" stroke-linecap="round" stroke-linejoin="round"/>
<path d="M331.733 92.5044C331.733 92.5044 339.271 86.9875 339.593 88.8265" stroke="#0D0D0D" stroke-width="0.80129" stroke-miterlimit="10" stroke-linecap="round" stroke-linejoin="round"/>
<path d="M298.774 88.5765C302.105 89.6929 307.665 91.4077 309.295 91.0137C309.295 91.0137 317.169 89.749 323.649 86.0724C323.649 86.0724 330.412 82.8539 331.695 83.5444" stroke="#0D0D0D" stroke-width="0.667742" stroke-miterlimit="10" stroke-linecap="round" stroke-linejoin="round"/>
<path d="M329 94C329 94 317.595 103.942 309.858 104.888C309.858 104.888 299.74 106.08 289 100.684" stroke="#0D0D0D" stroke-width="1.20194" stroke-miterlimit="10" stroke-linecap="round" stroke-linejoin="round"/>
<path d="M332.925 93.0225C332.925 93.0225 332.121 98.8839 328.996 100.723" stroke="#0D0D0D" stroke-miterlimit="10" stroke-linecap="round" stroke-linejoin="round"/>
<path d="M241.582 67.4955C243.707 69.1395 244.083 69.6737 245.193 70.1224C245.794 70.3654 246.749 70.6406 248.127 70.5965C253.824 70.7995 255.361 68.1298 259.254 69.906C261.665 71.0051 261.366 72.7773 263.811 74.3946C266.818 76.3845 270.75 74.8046 273.672 74.1409C273.754 74.1222 273.83 74.0928 273.903 74.0514C274.524 73.7015 277.745 72.0068 279.121 73.7589C279.153 73.8003 279.189 73.8404 279.228 73.8751C281.537 75.9358 282.155 76.2629 282.262 76.1668C282.453 75.9959 282.749 76.0119 282.99 76.1C283.897 76.4299 285.211 78.1073 285.314 78.1219C287.533 78.4344 289.95 80.1532 290.971 81.247C291.991 82.3407 293.479 82.9657 294.854 83.747C296.23 84.5283 296.789 85.0745 296.65 86.0908C296.512 87.1071 296.458 87.887 296.266 89.2933C296.074 90.6995 294.434 92.4183 292.577 91.1683C290.72 89.9183 288.775 88.8566 287.084 87.4182C285.018 85.6621 278.282 84.2425 277.767 84.1356C277.745 84.1316 277.725 84.1263 277.705 84.1209C277.326 84.0128 273.448 82.9324 269.607 82.9791C269.591 82.9791 269.575 82.9791 269.559 82.9778C266.877 82.8295 254.191 82.8215 248.947 80.2133C243.688 77.5971 245.062 75.7087 241.543 76.8372C235.451 78.7897 237.741 74.428 236.733 72.1684C235.63 69.6964 231.539 69.2009 231.707 69.0527C232.029 68.7695 236.663 65.559 239.568 66.0318C239.834 66.0759 240.403 66.5834 241.582 67.4955Z" fill="#FF4412"/>
<path d="M340.283 90.4941C340.283 90.4941 339.565 94.0572 337.511 96.4704" stroke="#0D0D0D" stroke-width="0.934839" stroke-miterlimit="10" stroke-linecap="round" stroke-linejoin="round"/>
<path d="M271.808 83.1345C271.808 83.1345 254.216 82.6551 248.955 80.0429C243.696 77.4307 244.873 75.1523 241.551 76.6721C236.525 78.9705 232.319 78.6259 229.939 75.8682" stroke="#0D0D0D" stroke-width="0.488453" stroke-miterlimit="10" stroke-linecap="round" stroke-linejoin="round"/>
<path d="M279.541 74.0144C277.298 72.2702 275.945 73.2759 273.811 73.9516C271.976 74.5326 266.874 76.25 263.823 74.2347C261.378 72.6188 261.677 70.8506 259.266 69.7529C255.372 67.9793 252.485 71.6332 248.139 70.442C248.024 70.4099 247.912 70.3765 247.804 70.3418" stroke="#0D0D0D" stroke-width="0.80129" stroke-miterlimit="10" stroke-linecap="round" stroke-linejoin="round"/>
<path d="M265.254 86.9255C268.021 85.2321 270.341 84.0556 271.051 83.7043C271.171 83.6456 271.281 83.5708 271.394 83.4987C273.188 82.3542 284.314 85.2134 287.094 87.2367C288.893 88.5455 290.731 89.7327 292.587 90.9814C294.445 92.2301 296.084 90.514 296.276 89.109C296.468 87.7041 296.522 86.9255 296.66 85.9106C296.799 84.8969 296.24 84.3507 294.864 83.5708C293.489 82.7909 292.001 82.1672 290.981 81.0748C289.96 79.9823 287.543 78.2662 285.324 77.9551" stroke="#0D0D0D" stroke-width="0.80129" stroke-miterlimit="10" stroke-linecap="round" stroke-linejoin="round"/>
<path d="M309.165 62.3114C309.165 62.3114 310.449 52.2164 300.691 48.4838C300.691 48.4838 290.532 44.0339 282.201 49.7418" stroke="#0D0D0D" stroke-width="1.06839" stroke-miterlimit="10" stroke-linecap="round" stroke-linejoin="round"/>
<path d="M280.428 51.0234C280.428 51.0234 272.912 58.7679 275.309 67.7424L276.624 71.6406L285.957 78.5691L287.181 65.5522L290.244 61.7808L287.157 65.631L293.113 62.1587L291.186 64.7202L298.457 64.0311L295.32 65.5241L301.49 64.7843L299.847 66.7448L303.526 65.0821L303.789 65.6096L308.816 77.0614L301.241 75.2558C301.241 75.2558 296.038 80.6191 293.019 82.5489" stroke="#0D0D0D" stroke-miterlimit="10" stroke-linecap="round" stroke-linejoin="round"/>
</svg>
