<svg width="585" height="662" viewBox="0 0 585 662" fill="none" xmlns="http://www.w3.org/2000/svg">
<line x1="414" y1="1" x2="579" y2="1" stroke="#0D0D0D" stroke-width="2" stroke-dasharray="10 10"/>
<line x1="121" y1="51.5" x2="257" y2="51.5" stroke="#0D0D0D" stroke-dasharray="30 30"/>
<line x1="357" y1="17.5" x2="416" y2="17.5" stroke="#0D0D0D" stroke-dasharray="30 30"/>
<line x1="422" y1="32.25" x2="481" y2="32.25" stroke="#0D0D0D" stroke-width="1.5"/>
<line x1="185" y1="12.25" x2="283" y2="12.25" stroke="#0D0D0D" stroke-width="1.5" stroke-dasharray="20 20"/>
<line x1="125" y1="25.25" x2="223" y2="25.25" stroke="#0D0D0D" stroke-width="1.5"/>
<path d="M331 193L137 193" stroke="#0D0D0D" stroke-width="2" stroke-linecap="round" stroke-dasharray="6 6"/>
<path d="M449 170H347" stroke="#0D0D0D" stroke-width="2" stroke-linecap="round"/>
<line x1="233" y1="419" x2="399" y2="419" stroke="#0D0D0D" stroke-width="2" stroke-linecap="round" stroke-dasharray="15 15"/>
<path d="M583 567.457L210 567.457" stroke="black" stroke-width="3" stroke-linecap="round"/>
<path d="M469 617H275" stroke="black" stroke-width="3" stroke-linecap="round" stroke-dasharray="6 6"/>
<path d="M302 597H108" stroke="#FFCB46" stroke-width="5" stroke-linecap="round"/>
<path d="M543 659H349" stroke="#FFCB46" stroke-width="5" stroke-linecap="round"/>
<path d="M375 541.457L2 541.457" stroke="black" stroke-width="3" stroke-linecap="round" stroke-dasharray="20 20"/>
<path d="M290.611 46.5762L194 46.5762" stroke="#0D0D0D" stroke-width="1.33257" stroke-miterlimit="10" stroke-linecap="round"/>
<path d="M472.105 137.888C471.88 136.846 471.561 135.677 471.108 134.453C470.127 131.795 468.105 126.686 463.399 121.384C457.319 114.535 449.377 110.789 439.853 106.843C420.79 98.9437 380.413 89.3295 372.889 88.4214C371.914 88.3039 370.883 88.5416 369.973 89.0891C366.295 91.3114 356.781 101.621 346.122 106.293C339.337 109.266 289.372 107.417 277.038 107.417C251.774 107.417 292.013 84.6286 286.924 85.1535C286.905 85.1561 286.892 85.1575 286.89 85.1575C285.935 85.2696 230.131 89.0878 180.014 113.235C169.393 118.352 159.322 126.838 161.621 135.255C164.352 145.257 194.895 142.623 204.786 142.653H205.442H205.749C205.315 140.09 205.264 137.37 205.65 134.552C207.741 119.302 221.799 106.941 237.046 106.941C237.882 106.941 238.703 106.978 239.511 107.05C239.614 107.059 239.716 107.069 239.818 107.079C240.124 107.11 240.427 107.146 240.728 107.188C240.831 107.201 240.931 107.216 241.032 107.23C241.219 107.258 241.406 107.288 241.593 107.32C241.683 107.335 241.772 107.351 241.86 107.367C242.126 107.416 242.391 107.468 242.652 107.524H242.654C242.981 107.595 243.305 107.671 243.626 107.754C243.627 107.753 243.627 107.753 243.629 107.754C253.581 110.322 260.452 118.678 261.087 129.17C261.11 129.532 261.123 129.896 261.13 130.263C261.137 130.551 261.135 130.838 261.131 131.127C261.127 131.436 261.117 131.747 261.102 132.058C261.097 132.188 261.089 132.317 261.081 132.448C261.067 132.674 261.05 132.902 261.03 133.131C261.022 133.243 261.01 133.355 260.998 133.469C260.991 133.546 260.983 133.624 260.974 133.702C260.944 133.98 260.911 134.259 260.872 134.538C260.812 134.975 260.744 135.409 260.664 135.842C260.621 136.073 260.577 136.304 260.529 136.534C260.377 137.267 260.195 137.991 259.99 138.706C259.939 138.885 259.885 139.063 259.831 139.239C259.525 140.235 259.166 141.213 258.76 142.169C258.689 142.339 258.615 142.506 258.541 142.674L318.989 142.697C338.978 142.705 358.874 142.711 376.131 142.718C375.671 140.11 375.61 137.332 376.004 134.454C378.096 119.204 392.152 106.843 407.399 106.843C408.124 106.843 408.837 106.871 409.541 106.926C409.856 106.95 410.169 106.979 410.479 107.015C410.676 107.038 410.871 107.062 411.066 107.089C411.26 107.115 411.454 107.144 411.646 107.174C411.647 107.173 411.649 107.173 411.649 107.174C411.922 107.217 412.193 107.265 412.462 107.317C412.462 107.317 412.463 107.317 412.464 107.317C423.245 109.398 430.791 118.078 431.444 129.112V129.114C431.454 129.289 431.463 129.465 431.47 129.641C431.47 129.642 431.47 129.644 431.47 129.644C431.476 129.829 431.482 130.015 431.486 130.201C431.487 130.294 431.488 130.388 431.488 130.481C431.488 130.482 431.488 130.482 431.488 130.484C431.491 130.681 431.488 130.879 431.486 131.078C431.484 131.178 431.482 131.278 431.479 131.379C431.479 131.38 431.479 131.38 431.479 131.381C431.472 131.591 431.466 131.801 431.455 132.012C431.45 132.117 431.443 132.223 431.436 132.329C431.43 132.446 431.422 132.563 431.412 132.681C431.404 132.797 431.395 132.913 431.384 133.029C431.386 133.033 431.384 133.037 431.383 133.043C431.375 133.147 431.364 133.252 431.355 133.358C431.354 133.378 431.351 133.396 431.35 133.417C431.339 133.525 431.327 133.633 431.315 133.741C431.303 133.86 431.288 133.979 431.272 134.098C431.257 134.216 431.243 134.335 431.225 134.454C431.167 134.887 431.097 135.318 431.018 135.747C430.966 136.033 430.91 136.316 430.849 136.599C430.79 136.882 430.725 137.165 430.655 137.446C430.552 137.866 430.44 138.284 430.319 138.7C430.319 138.7 430.319 138.7 430.319 138.701C430.238 138.977 430.153 139.253 430.065 139.526C429.712 140.621 429.297 141.694 428.823 142.738C428.824 142.738 428.824 142.738 428.824 142.738C436.436 142.408 460.674 142.273 468.46 142.228C470.701 142.215 472.557 139.999 472.105 137.888Z" fill="#F9AC12"/>
<path d="M264.205 142.072C264.611 141.116 264.97 140.139 265.276 139.142C265.331 138.966 265.383 138.789 265.435 138.61C265.64 137.894 265.822 137.17 265.974 136.437C266.022 136.207 266.066 135.976 266.109 135.745C266.188 135.312 266.257 134.878 266.318 134.442C266.356 134.162 266.39 133.883 266.419 133.606C266.428 133.527 266.436 133.449 266.443 133.372C266.455 133.258 266.466 133.146 266.475 133.034C266.495 132.806 266.513 132.577 266.526 132.351C266.534 132.221 266.542 132.091 266.547 131.962C266.562 131.65 266.573 131.339 266.577 131.031C266.581 130.741 266.581 130.454 266.575 130.167C266.57 129.799 266.555 129.435 266.533 129.073C265.896 118.581 259.026 110.225 249.072 107.657C249.071 107.656 249.071 107.656 249.07 107.657C248.749 107.574 248.423 107.498 248.098 107.427H248.096C247.834 107.371 247.57 107.319 247.304 107.27C247.216 107.254 247.125 107.238 247.037 107.223C246.85 107.191 246.663 107.162 246.476 107.134C246.375 107.119 246.275 107.104 246.172 107.091C245.871 107.049 245.568 107.013 245.262 106.983C245.159 106.972 245.058 106.963 244.955 106.953C244.147 106.881 243.326 106.844 242.49 106.844C227.241 106.844 213.184 119.205 211.094 134.455C210.703 137.309 210.757 140.064 211.207 142.653" stroke="#0D0D0D" stroke-width="1.60258" stroke-miterlimit="10" stroke-linecap="round"/>
<path d="M321.573 146.427C320.461 146.427 319.347 146.426 318.234 146.426" stroke="#0D0D0D" stroke-width="1.60258" stroke-linecap="round" stroke-linejoin="round"/>
<path d="M311.114 146.423C287.637 146.414 264.384 146.404 243.469 146.396" stroke="#0D0D0D" stroke-width="1.60258" stroke-linecap="round" stroke-linejoin="round" stroke-dasharray="7.12 7.12"/>
<path d="M239.908 146.395C238.788 146.395 237.675 146.393 236.569 146.393C236.587 146.357 236.601 146.324 236.617 146.289" stroke="#0D0D0D" stroke-width="1.60258" stroke-linecap="round" stroke-linejoin="round"/>
<path d="M211.071 142.653H210.415C200.525 142.623 169.982 145.257 167.25 135.255C164.95 126.838 175.021 118.352 185.643 113.235C235.761 89.0878 286.945 85.2696 287.9 85.1575C287.901 85.1575 292.534 85.1561 292.553 85.1535C297.642 84.6286 252.784 107.417 278.048 107.417C290.381 107.417 344.967 109.266 351.751 106.293C362.411 101.621 371.687 93.0475 375.365 90.8253C376.273 90.2777 377.305 90.04 378.28 90.1575C385.804 91.0656 426.419 98.9437 445.482 106.843C455.006 110.789 462.949 114.535 469.028 121.384C473.735 126.686 475.756 131.795 476.737 134.453C477.19 135.677 477.509 136.846 477.734 137.888C478.186 139.999 476.33 142.215 474.089 142.228C466.303 142.273 442.066 142.408 434.453 142.738C434.453 142.738 434.453 142.738 434.452 142.738C434.925 141.694 435.34 140.621 435.694 139.526C435.782 139.253 435.866 138.977 435.948 138.701C435.948 138.7 435.948 138.7 435.948 138.7C436.069 138.284 436.182 137.866 436.284 137.446C436.354 137.165 436.419 136.882 436.478 136.599C436.539 136.316 436.596 136.033 436.648 135.747C436.726 135.318 436.795 134.887 436.855 134.454C436.871 134.335 436.885 134.216 436.901 134.098C436.916 133.979 436.931 133.86 436.944 133.741C436.956 133.633 436.968 133.525 436.979 133.417C436.98 133.396 436.983 133.378 436.984 133.358C436.995 133.252 437.006 133.147 437.012 133.043C437.015 133.037 437.015 133.033 437.014 133.029C437.024 132.913 437.034 132.797 437.042 132.681C437.051 132.563 437.059 132.446 437.066 132.329C437.072 132.223 437.079 132.117 437.084 132.012C437.095 131.801 437.102 131.591 437.108 131.381C437.108 131.38 437.108 131.38 437.108 131.379C437.111 131.278 437.114 131.178 437.115 131.078C437.118 130.879 437.12 130.681 437.118 130.484C437.118 130.482 437.118 130.482 437.118 130.481C437.118 130.388 437.116 130.294 437.115 130.201C437.111 130.015 437.106 129.829 437.099 129.644C437.099 129.644 437.099 129.642 437.099 129.641C437.092 129.465 437.083 129.289 437.074 129.114V129.112C436.422 118.078 428.875 109.398 418.094 107.317C418.092 107.317 418.091 107.317 418.091 107.317C417.821 107.265 417.55 107.217 417.278 107.174C417.278 107.173 417.276 107.173 417.275 107.174C417.083 107.144 416.889 107.115 416.695 107.089C416.5 107.062 416.304 107.038 416.108 107.015C415.798 106.979 415.486 106.95 415.17 106.926C414.468 106.871 413.755 106.843 413.028 106.843C397.78 106.843 383.724 119.204 381.634 134.454C381.24 137.332 381.298 140.11 381.761 142.718C364.503 142.711 344.607 142.705 324.618 142.697" stroke="#0D0D0D" stroke-width="2" stroke-miterlimit="10" stroke-linecap="round"/>
<path d="M214.725 151.732C218.912 158.086 226.155 162.16 234.91 162.16C245.775 162.16 256.037 155.884 261.793 146.758C262.302 145.953 262.774 145.125 263.21 144.278C263.318 144.069 263.423 143.856 263.526 143.644C263.679 143.33 263.827 143.014 263.967 142.694C264.046 142.519 264.122 142.344 264.195 142.168C264.601 141.212 264.961 140.234 265.266 139.238C265.321 139.062 265.373 138.884 265.425 138.705C265.631 137.989 265.813 137.266 265.965 136.532C266.013 136.303 266.057 136.072 266.1 135.841C266.179 135.408 266.248 134.974 266.308 134.537C266.347 134.258 266.38 133.979 266.41 133.701C266.419 133.622 266.427 133.545 266.434 133.468C266.446 133.354 266.456 133.242 266.466 133.13C266.486 132.901 266.503 132.673 266.516 132.447C266.524 132.316 266.532 132.187 266.538 132.057C266.552 131.746 266.563 131.435 266.567 131.126C266.571 130.837 266.571 130.549 266.566 130.262C266.56 129.895 266.546 129.531 266.523 129.169C265.886 118.677 259.016 110.321 249.064 107.753C249.063 107.751 249.063 107.751 249.062 107.753C248.74 107.67 248.415 107.594 248.089 107.523H248.088C247.826 107.467 247.562 107.415 247.296 107.365C247.208 107.349 247.117 107.333 247.029 107.319C246.842 107.287 246.655 107.257 246.468 107.229C246.368 107.215 246.266 107.2 246.164 107.187C245.863 107.145 245.56 107.109 245.254 107.078C245.151 107.068 245.05 107.058 244.947 107.049C244.139 106.977 243.318 106.939 242.482 106.939C227.233 106.939 213.176 119.301 211.086 134.551C210.596 138.127 210.807 141.546 211.615 144.683H211.616M237.802 141.065C234.204 141.065 231.687 138.148 232.181 134.551C232.674 130.953 235.991 128.035 239.589 128.035C243.187 128.035 245.703 130.953 245.21 134.551C244.717 138.148 241.4 141.065 237.802 141.065Z" stroke="#0D0D0D" stroke-width="1.60258" stroke-miterlimit="10" stroke-linecap="round" stroke-linejoin="round"/>
<path d="M255.582 133.701C255.591 133.622 255.599 133.545 255.606 133.468C255.618 133.354 255.629 133.242 255.638 133.13C255.658 132.901 255.675 132.673 255.689 132.447C255.697 132.316 255.705 132.187 255.71 132.057C255.725 131.746 255.735 131.435 255.739 131.126C255.743 130.837 255.743 130.549 255.738 130.262C255.733 129.895 255.718 129.531 255.695 129.169C255.058 118.677 248.189 110.321 238.235 107.753C238.234 107.751 238.234 107.751 238.233 107.753C237.912 107.67 237.586 107.594 237.26 107.523H237.259C236.997 107.467 236.733 107.415 236.467 107.365C236.379 107.349 236.288 107.333 236.2 107.319C236.013 107.287 235.826 107.257 235.639 107.229C235.538 107.215 235.437 107.2 235.335 107.187C235.034 107.145 234.731 107.109 234.425 107.078C234.322 107.068 234.221 107.058 234.118 107.049C233.31 106.977 232.489 106.939 231.653 106.939C216.404 106.939 202.347 119.301 200.257 134.551C199.767 138.127 199.978 141.546 200.786 144.683H200.787C203.423 154.918 212.411 162.16 224.083 162.16C234.949 162.16 245.21 155.884 250.966 146.758C251.475 145.953 251.948 145.125 252.383 144.278C252.492 144.069 252.597 143.856 252.7 143.644C252.852 143.33 253 143.014 253.141 142.694C253.219 142.519 253.295 142.344 253.369 142.168C253.775 141.212 254.134 140.234 254.44 139.238C254.495 139.062 254.547 138.884 254.599 138.705C254.805 137.989 254.986 137.266 255.138 136.532C255.187 136.303 255.231 136.072 255.273 135.841C255.352 135.408 255.422 134.974 255.482 134.537C255.519 134.258 255.554 133.979 255.582 133.701Z" stroke="#0D0D0D" stroke-width="0.934839" stroke-miterlimit="10" stroke-linecap="round"/>
<path d="M245.616 133.701C245.625 133.622 245.633 133.545 245.64 133.468C245.652 133.354 245.662 133.242 245.672 133.13C245.692 132.901 245.709 132.673 245.722 132.447C245.73 132.316 245.739 132.187 245.744 132.057C245.759 131.746 245.769 131.435 245.773 131.126C245.777 130.837 245.777 130.549 245.772 130.262C245.767 129.895 245.752 129.531 245.729 129.169C245.092 118.677 238.222 110.321 228.27 107.753C228.269 107.751 228.269 107.751 228.268 107.753C227.946 107.67 227.621 107.594 227.295 107.523H227.294C227.032 107.467 226.768 107.415 226.502 107.365C226.414 107.349 226.323 107.333 226.235 107.319C226.048 107.287 225.861 107.257 225.674 107.229C225.574 107.215 225.473 107.2 225.37 107.187C225.069 107.145 224.766 107.109 224.46 107.078C224.357 107.068 224.256 107.058 224.153 107.049C223.345 106.977 222.524 106.939 221.688 106.939C206.439 106.939 192.382 119.301 190.292 134.551C189.802 138.127 190.013 141.546 190.821 144.683H190.822C193.458 154.918 202.446 162.16 214.118 162.16C224.984 162.16 235.246 155.884 241.002 146.758C241.51 145.953 241.983 145.125 242.418 144.278C242.527 144.069 242.632 143.856 242.735 143.644C242.887 143.33 243.035 143.014 243.176 142.694C243.254 142.519 243.331 142.344 243.404 142.168C243.81 141.212 244.169 140.234 244.475 139.238C244.53 139.062 244.582 138.884 244.634 138.705C244.84 137.989 245.021 137.266 245.174 136.532C245.222 136.303 245.266 136.072 245.308 135.841C245.387 135.408 245.457 134.974 245.517 134.537C245.553 134.258 245.588 133.979 245.616 133.701Z" stroke="#0D0D0D" stroke-width="0.667742" stroke-miterlimit="10" stroke-linecap="round" stroke-linejoin="round"/>
<path d="M390.468 157.33C394.489 160.378 399.62 162.16 405.412 162.16C416.277 162.16 426.539 155.884 432.295 146.758C432.804 145.953 433.277 145.125 433.712 144.278C433.82 144.069 433.926 143.856 434.029 143.644C434.181 143.33 434.329 143.014 434.469 142.694C434.548 142.519 434.624 142.344 434.698 142.168C435.104 141.212 435.463 140.234 435.769 139.238C435.823 139.062 435.876 138.884 435.928 138.705C436.133 137.989 436.315 137.266 436.467 136.532C436.515 136.303 436.559 136.072 436.602 135.841C436.681 135.408 436.75 134.974 436.81 134.537C436.849 134.258 436.883 133.979 436.912 133.701C436.921 133.622 436.929 133.545 436.936 133.468C436.948 133.354 436.959 133.242 436.968 133.13C436.988 132.901 437.005 132.673 437.019 132.447C437.027 132.316 437.035 132.187 437.04 132.057C437.055 131.746 437.065 131.435 437.069 131.126C437.073 130.837 437.073 130.549 437.068 130.262C437.063 129.895 437.048 129.531 437.025 129.169C436.388 118.677 429.519 110.321 419.565 107.753C419.564 107.751 419.564 107.751 419.563 107.753C419.241 107.67 418.916 107.594 418.59 107.523H418.589C418.327 107.467 418.063 107.415 417.797 107.365C417.709 107.349 417.618 107.333 417.53 107.319C417.343 107.287 417.156 107.257 416.969 107.229C416.869 107.215 416.767 107.2 416.665 107.187C416.364 107.145 416.061 107.109 415.755 107.078C415.652 107.068 415.551 107.058 415.448 107.049C414.64 106.977 413.819 106.939 412.983 106.939C397.734 106.939 383.677 119.301 381.587 134.551C381.097 138.127 381.308 141.546 382.116 144.683H382.117C382.661 146.792 383.474 148.775 384.524 150.592M408.304 141.065C404.707 141.065 402.189 138.148 402.683 134.551C403.176 130.953 406.494 128.035 410.091 128.035C413.689 128.035 416.205 130.953 415.712 134.551C415.218 138.148 411.902 141.065 408.304 141.065Z" stroke="#0D0D0D" stroke-width="2" stroke-miterlimit="10" stroke-linecap="round" stroke-linejoin="round"/>
<path d="M426.084 133.701C426.093 133.622 426.101 133.545 426.108 133.468C426.12 133.354 426.131 133.242 426.14 133.13C426.16 132.901 426.177 132.673 426.191 132.447C426.199 132.316 426.207 132.187 426.212 132.057C426.227 131.746 426.237 131.435 426.241 131.126C426.245 130.837 426.245 130.549 426.24 130.262C426.235 129.895 426.22 129.531 426.197 129.169C425.56 118.677 418.691 110.321 408.737 107.753C408.736 107.751 408.736 107.751 408.734 107.753C408.413 107.67 408.088 107.594 407.762 107.523H407.761C407.499 107.467 407.235 107.415 406.969 107.365C406.881 107.349 406.79 107.333 406.702 107.319C406.515 107.287 406.328 107.257 406.141 107.229C406.041 107.215 405.939 107.2 405.837 107.187C405.536 107.145 405.233 107.109 404.927 107.078C404.824 107.068 404.723 107.058 404.62 107.049C403.812 106.977 402.991 106.939 402.155 106.939C386.906 106.939 372.849 119.301 370.759 134.551C370.269 138.127 370.48 141.546 371.288 144.683H371.289C373.925 154.918 382.913 162.16 394.585 162.16C405.451 162.16 415.712 155.884 421.468 146.758C421.977 145.953 422.45 145.125 422.885 144.278C422.993 144.069 423.099 143.856 423.202 143.644C423.354 143.33 423.502 143.014 423.642 142.694C423.721 142.519 423.797 142.344 423.871 142.168C424.277 141.212 424.636 140.234 424.942 139.238C424.997 139.062 425.049 138.884 425.101 138.705C425.307 137.989 425.488 137.266 425.64 136.532C425.688 136.303 425.733 136.072 425.775 135.841C425.854 135.408 425.924 134.974 425.984 134.537C426.021 134.258 426.054 133.979 426.084 133.701Z" stroke="#0D0D0D" stroke-width="0.934839" stroke-miterlimit="10" stroke-linecap="round"/>
<path d="M416.117 133.701C416.126 133.622 416.134 133.545 416.141 133.468C416.153 133.354 416.163 133.242 416.173 133.13C416.193 132.901 416.21 132.673 416.223 132.447C416.231 132.316 416.239 132.187 416.245 132.057C416.26 131.746 416.27 131.435 416.274 131.126C416.278 130.837 416.278 130.549 416.273 130.262C416.268 129.895 416.253 129.531 416.23 129.169C415.593 118.677 408.723 110.321 398.771 107.753C398.77 107.751 398.77 107.751 398.769 107.753C398.447 107.67 398.122 107.594 397.796 107.523H397.795C397.533 107.467 397.269 107.415 397.003 107.365C396.915 107.349 396.824 107.333 396.736 107.319C396.549 107.287 396.362 107.257 396.175 107.229C396.075 107.215 395.973 107.2 395.871 107.187C395.57 107.145 395.267 107.109 394.961 107.078C394.858 107.068 394.757 107.058 394.654 107.049C393.846 106.977 393.025 106.939 392.189 106.939C376.94 106.939 362.883 119.301 360.793 134.551C360.303 138.127 360.514 141.546 361.322 144.683H361.323C363.959 154.918 372.947 162.16 384.619 162.16C395.485 162.16 405.747 155.884 411.503 146.758C412.011 145.953 412.484 145.125 412.919 144.278C413.028 144.069 413.133 143.856 413.236 143.644C413.388 143.33 413.536 143.014 413.677 142.694C413.755 142.519 413.832 142.344 413.905 142.168C414.311 141.212 414.67 140.234 414.976 139.238C415.031 139.062 415.083 138.884 415.135 138.705C415.341 137.989 415.522 137.266 415.675 136.532C415.723 136.303 415.767 136.072 415.809 135.841C415.888 135.408 415.958 134.974 416.018 134.537C416.054 134.258 416.087 133.979 416.117 133.701Z" stroke="#0D0D0D" stroke-width="0.667742" stroke-miterlimit="10" stroke-linecap="round" stroke-linejoin="round"/>
<path d="M263.767 150.593H335.785" stroke="#0D0D0D" stroke-width="1.06839" stroke-miterlimit="10" stroke-linecap="round"/>
<path d="M483.001 63.1289H481.072" stroke="#0D0D0D" stroke-width="1.15722" stroke-miterlimit="10" stroke-linecap="round"/>
<path d="M477.399 63.1289H413.144" stroke="#0D0D0D" stroke-width="1.15722" stroke-miterlimit="10" stroke-linecap="round" stroke-dasharray="3.67 3.67"/>
<path d="M411.309 63.1289H409.379" stroke="#0D0D0D" stroke-width="1.15722" stroke-miterlimit="10" stroke-linecap="round"/>
<path d="M300.959 101.93H220.22" stroke="#0D0D0D" stroke-miterlimit="10" stroke-linecap="round" stroke-dasharray="3.86 3.86"/>
<path d="M236.66 131.519H148.811" stroke="#0D0D0D" stroke-width="1.24031" stroke-miterlimit="10" stroke-linecap="round"/>
<path d="M214.449 80.7012H150.263" stroke="#0D0D0D" stroke-width="0.93023" stroke-miterlimit="10" stroke-linecap="round"/>
<path d="M207 69H109" stroke="#0D0D0D" stroke-width="1.24031" stroke-miterlimit="10" stroke-linecap="round"/>
<path d="M214 103L77 103" stroke="#0D0D0D" stroke-width="2.17054" stroke-miterlimit="10" stroke-linecap="round" stroke-dasharray="21.71 21.71"/>
<path d="M100.971 126.481H202.664" stroke="#0D0D0D" stroke-width="1.04393" stroke-miterlimit="10" stroke-linecap="round" stroke-dasharray="5.8 5.8"/>
<path d="M332.18 62.2852C332.18 62.2852 329.449 46.4477 307.838 54.1775L305.181 55.6852C305.181 55.6852 311.101 45.5035 322.044 46.8243C332.987 48.1437 337.103 56.6281 337.04 59.8332C336.977 63.0384 336.73 62.0955 336.73 62.0955L332.18 62.2852Z" fill="#F9AC12"/>
<path d="M368.698 96.4273C373.708 86.4205 378.462 77.3793 379.222 77.625C379.235 77.629 379.243 77.6344 379.249 77.6384C380.049 78.1873 385.941 85.8649 390.258 91.5554" stroke="#0D0D0D" stroke-miterlimit="10" stroke-linecap="round"/>
<path d="M320.449 66.4474C322.195 65.9827 329.318 67.9845 330.089 68.4546" stroke="#0D0D0D" stroke-width="0.532337" stroke-miterlimit="10" stroke-linecap="round" stroke-linejoin="round"/>
<path d="M319.396 67.5625C319.396 67.5625 321.602 70.3016 331.261 70.6835C331.261 70.6849 325.05 67.5625 319.396 67.5625Z" stroke="#0D0D0D" stroke-width="0.49258" stroke-miterlimit="10" stroke-linecap="round" stroke-linejoin="round"/>
<path d="M326.718 68.9795C326.46 69.6165 326.75 70.2709 327.365 70.4405C327.979 70.6101 328.685 70.2308 328.942 69.5938" fill="#0D0D0D"/>
<path d="M325.978 78.2105C324.688 77.9274 322.471 77.3331 321.784 76.4717" stroke="#0D0D0D" stroke-width="0.582565" stroke-miterlimit="10" stroke-linecap="round" stroke-linejoin="round"/>
<path d="M325.277 77.8153C325.277 77.8153 323.613 75.9296 323.165 75.7787C322.718 75.6278 322.97 77.213 322.97 77.213" stroke="#0D0D0D" stroke-width="0.39935" stroke-miterlimit="10" stroke-linecap="round" stroke-linejoin="round"/>
<path d="M333.507 67.7604L334.263 64.8477L336.789 67.5894L337.593 64.2334L341.852 68.6591C341.651 67.715 341.576 64.8477 338.122 60.6689" stroke="#0D0D0D" stroke-width="0.80129" stroke-miterlimit="10" stroke-linecap="round" stroke-linejoin="round"/>
<path d="M336.038 60.699C336.038 60.699 330.069 62.7543 316.02 58.625" stroke="#0D0D0D" stroke-width="0.612066" stroke-miterlimit="10" stroke-linecap="round" stroke-linejoin="round"/>
<path d="M300.371 65.5619C299.779 53.4531 308.798 47.82 308.798 47.82C312.135 45.5671 315.658 44.9287 318.75 45.0062" stroke="#0D0D0D" stroke-width="0.534194" stroke-miterlimit="10" stroke-linecap="round" stroke-linejoin="round"/>
<path d="M277.077 54.3281C277.077 54.3281 279.54 57.2822 283.696 56.8161C287.852 56.35 286.515 60.8613 289.36 61.5411C292.204 62.2208 292.535 60.5996 294.015 63.8995C295.495 67.1995 298.074 63.0982 298.788 65.2804C299.503 67.4626 301.79 68.0235 302.805 67.926" stroke="#0D0D0D" stroke-miterlimit="10" stroke-linecap="round" stroke-linejoin="round"/>
<path d="M290.978 64.6836C292.316 64.6689 292.771 64.3818 293.862 66.8124C294.786 68.8731 296.146 67.9956 297.194 67.6337" stroke="#0D0D0D" stroke-width="0.534194" stroke-miterlimit="10" stroke-linecap="round" stroke-linejoin="round"/>
<path d="M287.563 65.3145C288.271 65.4346 288.816 65.4253 289.261 65.3906" stroke="#0D0D0D" stroke-miterlimit="10" stroke-linecap="round" stroke-linejoin="round"/>
<path d="M278.193 60.1494C278.193 60.1494 280.671 62.7549 284.52 62.0645C285 61.9777 285.406 61.9697 285.754 62.0218" stroke="#0D0D0D" stroke-miterlimit="10" stroke-linecap="round" stroke-linejoin="round"/>
<path d="M275.631 62.0986C275.631 62.0986 278.259 64.9085 282.414 64.2434C286.568 63.577 285.457 68.119 288.353 68.6532C291.248 69.1887 291.498 67.5634 293.156 70.7659C294.815 73.9671 297.196 69.7723 298.027 71.9024C298.652 73.505 302.423 72.8853 304.38 71.8517" stroke="#0D0D0D" stroke-miterlimit="10" stroke-linecap="round" stroke-linejoin="round"/>
<path d="M369.551 89.0559C370.109 87.3318 369.491 86.3743 369.491 86.3743C365.691 82.0647 363.219 83.6926 362.443 83.8836C361.667 84.0746 354.543 87.619 354.543 87.619L355.647 87.1048C355.647 87.1048 338.334 94.3458 335.117 94.3458C332.5 94.3458 325.661 91.9152 323.193 91.0057" stroke="#0D0D0D" stroke-width="1.06839" stroke-miterlimit="10" stroke-linecap="round" stroke-linejoin="round"/>
<path d="M355.637 90.5273C355.637 90.5273 358.989 93.7459 358.517 94.6647" stroke="#0D0D0D" stroke-width="0.488453" stroke-miterlimit="10" stroke-linecap="round" stroke-linejoin="round"/>
<path d="M359.733 92.5044C359.733 92.5044 367.271 86.9875 367.593 88.8265" stroke="#0D0D0D" stroke-width="0.80129" stroke-miterlimit="10" stroke-linecap="round" stroke-linejoin="round"/>
<path d="M326.774 88.5765C330.105 89.6929 335.665 91.4077 337.295 91.0137C337.295 91.0137 345.169 89.749 351.649 86.0724C351.649 86.0724 358.412 82.8539 359.695 83.5444" stroke="#0D0D0D" stroke-width="0.667742" stroke-miterlimit="10" stroke-linecap="round" stroke-linejoin="round"/>
<path d="M357 94C357 94 345.595 103.942 337.858 104.888C337.858 104.888 327.74 106.08 317 100.684" stroke="#0D0D0D" stroke-width="1.20194" stroke-miterlimit="10" stroke-linecap="round" stroke-linejoin="round"/>
<path d="M360.925 93.0225C360.925 93.0225 360.121 98.8839 356.996 100.723" stroke="#0D0D0D" stroke-miterlimit="10" stroke-linecap="round" stroke-linejoin="round"/>
<path d="M269.582 67.4955C271.707 69.1395 272.083 69.6737 273.193 70.1224C273.794 70.3654 274.749 70.6406 276.127 70.5965C281.824 70.7995 283.361 68.1298 287.254 69.906C289.665 71.0051 289.366 72.7773 291.811 74.3946C294.818 76.3845 298.75 74.8046 301.672 74.1409C301.754 74.1222 301.83 74.0928 301.903 74.0514C302.524 73.7015 305.745 72.0068 307.121 73.7589C307.153 73.8003 307.189 73.8404 307.228 73.8751C309.537 75.9358 310.155 76.2629 310.262 76.1668C310.453 75.9959 310.749 76.0119 310.99 76.1C311.897 76.4299 313.211 78.1073 313.314 78.1219C315.533 78.4344 317.95 80.1532 318.971 81.247C319.991 82.3407 321.479 82.9657 322.854 83.747C324.23 84.5283 324.789 85.0745 324.65 86.0908C324.512 87.1071 324.458 87.887 324.266 89.2933C324.074 90.6995 322.434 92.4183 320.577 91.1683C318.72 89.9183 316.775 88.8566 315.084 87.4182C313.018 85.6621 306.282 84.2425 305.767 84.1356C305.745 84.1316 305.725 84.1263 305.705 84.1209C305.326 84.0128 301.448 82.9324 297.607 82.9791C297.591 82.9791 297.575 82.9791 297.559 82.9778C294.877 82.8295 282.191 82.8215 276.947 80.2133C271.688 77.5971 273.062 75.7087 269.543 76.8372C263.451 78.7897 265.741 74.428 264.733 72.1684C263.63 69.6964 259.539 69.2009 259.707 69.0527C260.029 68.7695 264.663 65.559 267.568 66.0318C267.834 66.0759 268.403 66.5834 269.582 67.4955Z" fill="#FF4412"/>
<path d="M368.283 90.4941C368.283 90.4941 367.565 94.0572 365.511 96.4704" stroke="#0D0D0D" stroke-width="0.934839" stroke-miterlimit="10" stroke-linecap="round" stroke-linejoin="round"/>
<path d="M299.808 83.1345C299.808 83.1345 282.216 82.6551 276.955 80.0429C271.696 77.4307 272.873 75.1523 269.551 76.6721C264.525 78.9705 260.319 78.6259 257.939 75.8682" stroke="#0D0D0D" stroke-width="0.488453" stroke-miterlimit="10" stroke-linecap="round" stroke-linejoin="round"/>
<path d="M307.541 74.0144C305.298 72.2702 303.945 73.2759 301.811 73.9516C299.976 74.5326 294.874 76.25 291.823 74.2347C289.378 72.6188 289.677 70.8506 287.266 69.7529C283.372 67.9793 280.485 71.6332 276.139 70.442C276.024 70.4099 275.912 70.3765 275.804 70.3418" stroke="#0D0D0D" stroke-width="0.80129" stroke-miterlimit="10" stroke-linecap="round" stroke-linejoin="round"/>
<path d="M293.254 86.9255C296.021 85.2321 298.341 84.0556 299.051 83.7043C299.171 83.6456 299.281 83.5708 299.394 83.4987C301.188 82.3542 312.314 85.2134 315.094 87.2367C316.893 88.5455 318.731 89.7327 320.587 90.9814C322.445 92.2301 324.084 90.514 324.276 89.109C324.468 87.7041 324.522 86.9255 324.66 85.9106C324.799 84.8969 324.24 84.3507 322.864 83.5708C321.489 82.7909 320.001 82.1672 318.981 81.0748C317.96 79.9823 315.543 78.2662 313.324 77.9551" stroke="#0D0D0D" stroke-width="0.80129" stroke-miterlimit="10" stroke-linecap="round" stroke-linejoin="round"/>
<path d="M337.165 62.3114C337.165 62.3114 338.449 52.2164 328.691 48.4838C328.691 48.4838 318.532 44.0339 310.201 49.7418" stroke="#0D0D0D" stroke-width="1.06839" stroke-miterlimit="10" stroke-linecap="round" stroke-linejoin="round"/>
<path d="M308.428 51.0234C308.428 51.0234 300.912 58.7679 303.309 67.7424L304.624 71.6406L313.957 78.5691L315.181 65.5522L318.244 61.7808L315.157 65.631L321.113 62.1587L319.186 64.7202L326.457 64.0311L323.32 65.5241L329.49 64.7843L327.847 66.7448L331.526 65.0821L331.789 65.6096L336.816 77.0614L329.241 75.2558C329.241 75.2558 324.038 80.6191 321.019 82.5489" stroke="#0D0D0D" stroke-miterlimit="10" stroke-linecap="round" stroke-linejoin="round"/>
</svg>
