<svg width="2114" height="456" viewBox="0 0 2114 456" fill="none" xmlns="http://www.w3.org/2000/svg">
<path d="M1123 92.5C1144.6 88.9 1162.67 113 1169 125.5C1131.8 116.7 1102.83 138.167 1093 150C1078.2 169.6 1095.17 187.5 1105.5 194C1098.3 196 1094.17 194.833 1093 194C1080.5 196 1063 149 1062.5 144C1062.1 140 1051 123 1045.5 115C1048.3 110.6 1086.67 99.8333 1105.5 95L1123 92.5Z" fill="#FF4412"/>
<path d="M1073.57 175.098C1056.32 178.013 1056.22 169.241 1038.98 172.156C1021.73 175.071 1021.83 183.844 1004.57 186.759C987.317 189.675 987.232 180.902 969.981 183.817C952.725 186.733 952.805 195.505 935.545 198.42C918.281 201.336 918.21 192.563 900.945 195.478C883.68 198.394 871.663 209.151 866.483 210.081C864.711 210.375 863.438 210.219 862.962 210.135C862.86 210.117 862.824 209.997 862.895 209.908L870.399 199.934C870.47 199.836 870.43 199.711 870.319 199.702L855.565 198.336C855.453 198.327 855.409 198.193 855.489 198.1L870.964 186.617C871.04 186.523 871.009 186.403 870.907 186.381L847.771 177.146C847.669 177.128 847.638 177.003 847.709 176.914L856.838 165.52C856.913 165.427 856.878 165.302 856.771 165.284L840.534 162.565C840.396 162.543 840.392 162.351 840.53 162.28C842.653 161.167 852.369 156.089 853.264 155.755C854.265 155.381 870.568 144.828 887.517 142.732C904.466 140.636 904.118 149.471 921.067 147.374C938.011 145.278 938.354 136.448 955.293 134.351C972.233 132.255 971.899 141.09 988.839 138.993C1005.78 136.897 1006.11 128.067 1023.04 125.97C1039.98 123.874 1044.16 141.366 1061.1 139.269L1064.31 149.115L1073.57 175.098Z" fill="#F9AC12" stroke="#0D0D0D" stroke-width="2.22539" stroke-miterlimit="10"/>
<path d="M1009.98 265.961C1080.65 265.832 1125.95 241.415 1135.51 236.519" stroke="#0D0D0D" stroke-width="1.52074" stroke-miterlimit="10" stroke-linecap="round"/>
<path d="M1143.6 235.469C1142.98 234.694 1143.3 233.439 1144.27 232.821C1169.34 216.856 1188.38 201.064 1194.01 200.57C1198.03 200.219 1201.47 201.354 1201.47 201.354C1203.68 202.088 1206.94 203.165 1208.31 206.183C1208.73 207.117 1208.87 208.003 1207.72 216.175C1206.75 223.038 1206.62 223.572 1206.24 224.306C1205.84 225.067 1204.73 226.946 1201.95 228.806C1198.79 230.92 1194.98 231.103 1192.07 229.532C1190.41 228.637 1188.44 228.272 1187.17 230.391C1185.11 233.813 1165.96 244.9 1158.63 249.062C1156.98 249.996 1155.08 249.751 1154.05 248.478L1143.6 235.469Z" stroke="#0D0D0D" stroke-width="2.67047" stroke-miterlimit="10" stroke-linecap="round"/>
<path d="M1563.64 401.185C1542.12 403.401 1483.54 404.861 1435.43 405.765C1436.1 404.768 1436.76 403.762 1437.4 402.747C1437.71 402.235 1438.03 401.723 1438.35 401.212C1438.96 400.188 1439.57 399.155 1440.16 398.114C1440.18 398.083 1440.2 398.052 1440.21 398.02C1440.46 397.571 1440.71 397.121 1440.96 396.667C1441.03 396.534 1441.1 396.405 1441.17 396.271C1441.36 395.928 1441.54 395.586 1441.72 395.239C1441.86 394.976 1442 394.718 1442.13 394.455C1442.21 394.299 1442.29 394.144 1442.36 393.988C1442.54 393.654 1442.71 393.316 1442.87 392.982C1442.89 392.955 1442.9 392.929 1442.91 392.902C1442.94 392.84 1442.97 392.777 1443 392.715C1443.2 392.31 1443.4 391.905 1443.59 391.495C1444.26 390.085 1444.9 388.669 1445.5 387.245C1445.7 386.769 1445.9 386.293 1446.09 385.816C1446.29 385.34 1446.48 384.864 1446.66 384.388C1447.23 382.941 1447.76 381.481 1448.26 380.008C1448.57 379.096 1448.87 378.179 1449.15 377.257C1449.15 377.253 1449.15 377.253 1449.15 377.253C1449.57 375.869 1449.97 374.476 1450.33 373.074C1450.58 372.139 1450.81 371.195 1451.02 370.252C1451.14 369.74 1451.25 369.233 1451.36 368.721C1451.47 368.213 1451.57 367.706 1451.67 367.199C1451.75 366.807 1451.83 366.411 1451.89 366.019C1451.95 365.717 1452 365.409 1452.06 365.107C1452.11 364.8 1452.16 364.493 1452.21 364.186C1452.31 363.607 1452.39 363.033 1452.48 362.454C1452.5 362.276 1452.53 362.094 1452.56 361.916C1452.58 361.715 1452.61 361.515 1452.64 361.315C1452.71 360.758 1452.78 360.202 1452.85 359.646C1452.85 359.579 1452.86 359.517 1452.87 359.45C1452.89 359.272 1452.91 359.098 1452.93 358.925C1452.95 358.747 1452.97 358.573 1452.98 358.399C1452.98 358.395 1452.98 358.391 1452.99 358.386C1452.99 358.377 1452.99 358.368 1452.99 358.359C1452.99 358.319 1453 358.284 1453 358.244C1453.04 357.888 1453.07 357.527 1453.1 357.171C1453.13 356.891 1453.15 356.61 1453.18 356.33C1453.2 355.969 1453.23 355.613 1453.26 355.253C1453.29 354.754 1453.32 354.26 1453.34 353.762C1453.47 351.274 1453.5 348.795 1453.42 346.333C1453.3 342.719 1452.97 339.132 1452.4 335.607C1451.89 332.385 1451.19 329.207 1450.3 326.091C1450.16 325.57 1450 325.054 1449.85 324.538C1449.69 324.044 1449.53 323.55 1449.37 323.06C1449.36 323.025 1449.35 322.989 1449.34 322.949C1449.19 322.499 1449.04 322.054 1448.88 321.609C1448.85 321.525 1448.82 321.44 1448.79 321.356C1448.69 321.066 1448.59 320.781 1448.48 320.497C1448.35 320.141 1448.22 319.785 1448.08 319.433C1448.07 319.42 1448.07 319.406 1448.06 319.393C1447.87 318.899 1447.68 318.409 1447.48 317.924C1447.27 317.43 1447.07 316.94 1446.86 316.451C1446.65 315.961 1446.43 315.476 1446.2 314.995C1445.98 314.515 1445.75 314.034 1445.52 313.558C1445.29 313.082 1445.06 312.605 1444.81 312.138C1444.57 311.666 1444.33 311.199 1444.08 310.736C1443.83 310.273 1443.57 309.81 1443.31 309.352C1443.05 308.893 1442.79 308.439 1442.52 307.99C1442.52 307.981 1442.52 307.972 1442.51 307.963C1442.24 307.518 1441.98 307.078 1441.7 306.641C1441.46 306.25 1441.21 305.858 1440.95 305.466C1440.85 305.302 1440.74 305.141 1440.63 304.977C1440.45 304.701 1440.26 304.425 1440.09 304.153C1439.89 303.864 1439.69 303.575 1439.48 303.285C1439.45 303.25 1439.43 303.21 1439.4 303.174C1439.23 302.929 1439.06 302.685 1438.88 302.444C1438.73 302.235 1438.58 302.026 1438.43 301.821C1438.29 301.634 1438.15 301.447 1438.01 301.265C1437.98 301.229 1437.96 301.189 1437.93 301.154C1437.5 300.597 1437.07 300.041 1436.64 299.498C1436.45 299.266 1436.26 299.035 1436.08 298.808C1435.86 298.55 1435.65 298.292 1435.43 298.038C1435.24 297.802 1435.04 297.571 1434.84 297.348C1434.8 297.299 1434.76 297.25 1434.72 297.201C1434.68 297.157 1434.64 297.108 1434.6 297.068C1434.4 296.832 1434.19 296.605 1433.99 296.378C1433.93 296.307 1433.87 296.24 1433.8 296.169C1433.62 295.964 1433.44 295.764 1433.25 295.568C1433.24 295.546 1433.21 295.528 1433.19 295.505C1433.14 295.448 1433.08 295.385 1433.03 295.327C1432.86 295.145 1432.69 294.967 1432.52 294.793C1432.51 294.78 1432.51 294.771 1432.5 294.762C1432.25 294.504 1432 294.246 1431.75 293.988C1431.5 293.73 1431.24 293.471 1430.98 293.218L1430.91 293.151C1430.56 292.804 1430.21 292.461 1429.85 292.123C1424.55 287.094 1418.49 282.839 1411.78 279.492C1410.82 279.015 1409.85 278.557 1408.86 278.116C1408.37 277.898 1407.88 277.68 1407.37 277.471C1406.87 277.262 1406.37 277.057 1405.86 276.857C1405.45 276.688 1405.03 276.527 1404.6 276.372C1404.35 276.269 1404.09 276.176 1403.83 276.087C1403.73 276.047 1403.62 276.007 1403.52 275.971C1403.05 275.802 1402.58 275.637 1402.11 275.477C1402.11 275.477 1402.1 275.477 1402.1 275.473C1401.61 275.308 1401.12 275.148 1400.63 274.992C1400.59 274.983 1400.55 274.97 1400.51 274.952C1400.02 274.8 1399.52 274.649 1399.03 274.502C1398.13 274.24 1397.22 273.99 1396.31 273.755C1396.3 273.75 1396.29 273.75 1396.28 273.746C1393.53 273.042 1390.74 272.477 1387.91 272.054C1387.89 272.05 1387.86 272.045 1387.84 272.041C1387.32 271.965 1386.81 271.894 1386.29 271.827C1385.84 271.765 1385.39 271.712 1384.93 271.658C1384.39 271.596 1383.85 271.542 1383.3 271.485C1382.85 271.445 1382.4 271.404 1381.95 271.373C1381.89 271.364 1381.83 271.36 1381.77 271.356C1381.22 271.311 1380.66 271.275 1380.1 271.244C1380.08 271.24 1380.07 271.24 1380.05 271.24C1379.19 271.191 1378.33 271.151 1377.46 271.124C1377.43 271.124 1377.4 271.12 1377.37 271.12C1376.58 271.097 1375.78 271.088 1374.98 271.084C1374.66 271.084 1374.34 271.08 1374.03 271.084C1373.81 271.08 1373.6 271.08 1373.39 271.088C1373.11 271.093 1372.83 271.097 1372.55 271.106C1371.94 271.12 1371.33 271.137 1370.72 271.164C1370.47 271.173 1370.21 271.186 1369.95 271.2C1369.75 271.209 1369.55 271.222 1369.34 271.235C1368.97 271.253 1368.6 271.28 1368.22 271.307C1367.96 271.32 1367.7 271.342 1367.45 271.36C1367.03 271.396 1366.61 271.431 1366.19 271.467C1365.81 271.502 1365.42 271.538 1365.04 271.578C1364.96 271.587 1364.89 271.591 1364.81 271.605C1364.6 271.623 1364.4 271.645 1364.19 271.672C1364.12 271.676 1364.04 271.685 1363.97 271.694C1362.99 271.805 1362.01 271.934 1361.04 272.072C1360.47 272.157 1359.89 272.246 1359.32 272.339C1358.08 272.539 1356.85 272.766 1355.61 273.02C1353.99 273.349 1352.35 273.719 1350.72 274.133C1350.15 274.28 1349.58 274.431 1349.01 274.587C1348.44 274.743 1347.87 274.903 1347.3 275.072C1346.83 275.21 1346.36 275.348 1345.88 275.495C1345.71 275.548 1345.53 275.602 1345.35 275.659C1344.95 275.788 1344.54 275.918 1344.13 276.051C1343.9 276.127 1343.65 276.202 1343.42 276.287C1343.25 276.345 1343.07 276.403 1342.89 276.461V276.465C1342.74 276.514 1342.59 276.567 1342.43 276.621C1341.91 276.799 1341.39 276.986 1340.87 277.173C1340.63 277.262 1340.39 277.351 1340.15 277.44C1339.46 277.693 1338.77 277.961 1338.08 278.236C1337.46 278.481 1336.83 278.739 1336.21 278.998C1335.78 279.176 1335.35 279.362 1334.92 279.545C1334.76 279.616 1334.59 279.687 1334.43 279.759C1326.46 283.257 1318.88 287.721 1311.89 293.004C1311.67 293.164 1311.46 293.325 1311.24 293.489C1311.17 293.543 1311.09 293.601 1311.02 293.658C1309.21 295.051 1307.43 296.507 1305.66 298.034C1301.91 301.291 1298.42 304.736 1295.2 308.333C1288.91 315.343 1283.66 322.927 1279.49 330.831C1279.29 331.196 1279.11 331.561 1278.91 331.931C1278.72 332.305 1278.53 332.674 1278.34 333.048C1278.16 333.413 1277.98 333.782 1277.81 334.152C1277.67 334.428 1277.54 334.699 1277.41 334.971C1277.26 335.291 1277.11 335.616 1276.96 335.936C1276.81 336.252 1276.67 336.564 1276.52 336.88C1276.51 336.898 1276.51 336.92 1276.5 336.938C1276.35 337.249 1276.22 337.565 1276.08 337.877C1275.94 338.202 1275.79 338.527 1275.66 338.852C1275.38 339.501 1275.1 340.156 1274.84 340.806C1273.92 343.089 1273.08 345.385 1272.33 347.695C1272.34 347.7 1272.33 347.704 1272.33 347.709C1272.01 348.701 1271.7 349.698 1271.41 350.695C1271.22 351.358 1271.04 352.026 1270.86 352.689C1270.76 353.023 1270.68 353.357 1270.6 353.686C1270.51 354.02 1270.43 354.354 1270.34 354.688C1270.18 355.355 1270.02 356.023 1269.87 356.69C1269.39 358.809 1268.98 360.945 1268.65 363.1C1268.57 363.598 1268.49 364.092 1268.43 364.586C1268.35 365.085 1268.29 365.579 1268.23 366.073C1268.17 366.562 1268.11 367.056 1268.06 367.546C1268.01 368.022 1267.96 368.498 1267.91 368.97C1267.91 369.015 1267.91 369.059 1267.9 369.104C1267.86 369.562 1267.82 370.025 1267.79 370.483C1267.75 370.897 1267.72 371.307 1267.7 371.721C1267.68 371.908 1267.68 372.09 1267.67 372.273C1267.65 372.491 1267.64 372.709 1267.64 372.927C1267.62 373.181 1267.61 373.43 1267.6 373.679C1267.6 373.826 1267.59 373.977 1267.59 374.129C1267.56 374.614 1267.55 375.103 1267.55 375.588C1267.53 375.904 1267.53 376.22 1267.53 376.536C1267.52 376.973 1267.52 377.409 1267.52 377.849C1267.53 378.722 1267.55 379.594 1267.57 380.458C1267.57 380.484 1267.58 380.515 1267.58 380.547C1267.6 381.018 1267.62 381.486 1267.64 381.953C1267.66 382.425 1267.69 382.888 1267.73 383.355C1267.75 383.747 1267.78 384.138 1267.81 384.526C1267.84 384.784 1267.86 385.042 1267.88 385.296C1267.91 385.616 1267.94 385.932 1267.97 386.252C1268.01 386.64 1268.05 387.022 1268.1 387.405C1268.11 387.485 1268.12 387.565 1268.13 387.646C1268.18 388.055 1268.23 388.465 1268.29 388.87V388.874C1268.35 389.31 1268.41 389.742 1268.48 390.174C1268.84 392.622 1269.32 395.025 1269.9 397.379C1269.96 397.651 1270.03 397.922 1270.11 398.189C1270.18 398.492 1270.26 398.79 1270.34 399.093C1270.34 399.097 1270.35 399.102 1270.35 399.106C1270.44 399.454 1270.54 399.801 1270.64 400.152C1270.65 400.206 1270.66 400.259 1270.68 400.312C1270.79 400.695 1270.9 401.078 1271.02 401.456C1271.12 401.777 1271.21 402.097 1271.31 402.413C1271.33 402.484 1271.35 402.551 1271.38 402.622C1271.5 403.005 1271.63 403.392 1271.76 403.775H1271.75L1233.87 403.317L1209.38 403.019L911.497 399.409L870.995 398.919C871.654 397.798 872.295 396.663 872.914 395.519C873.292 394.82 873.666 394.113 874.022 393.405C874.556 392.359 875.077 391.304 875.575 390.24C875.851 389.657 876.123 389.074 876.381 388.487C877.818 385.3 879.096 382.042 880.204 378.722C880.404 378.134 880.591 377.542 880.778 376.946C881.526 374.56 882.193 372.148 882.768 369.704C882.946 368.939 883.115 368.169 883.279 367.399C883.582 365.957 883.849 364.51 884.089 363.055C884.241 362.125 884.379 361.195 884.499 360.269C884.539 360.006 884.57 359.748 884.601 359.49C884.65 359.112 884.699 358.738 884.735 358.364C884.824 357.603 884.9 356.842 884.966 356.09C885.006 355.653 885.042 355.222 885.073 354.79C885.149 353.753 885.211 352.716 885.251 351.688C885.291 350.722 885.318 349.765 885.322 348.808C885.336 347.584 885.322 346.369 885.278 345.163C884.098 310.198 862.036 282.349 829.22 273.79C829.216 273.786 829.216 273.786 829.211 273.79C828.152 273.514 827.079 273.26 826.002 273.025H825.998C825.134 272.838 824.262 272.664 823.385 272.499C823.091 272.446 822.793 272.393 822.504 272.344C821.885 272.237 821.271 272.139 820.652 272.045C820.319 271.996 819.985 271.947 819.647 271.903C818.654 271.765 817.648 271.645 816.638 271.542C816.3 271.507 815.961 271.476 815.619 271.445C812.944 271.204 810.22 271.08 807.443 271.08C788.451 271.08 769.847 276.874 753.566 286.795C726.407 303.33 705.68 331.334 700.37 363.1C698.376 375.019 698.737 386.413 701.109 396.868C641.642 396.836 564.79 389.048 560.967 363.246C556.129 341.402 569.446 310.874 629.34 277.636C700.223 238.246 843.307 220.011 843.307 220.011H843.32C856.673 217.47 974.316 207.108 984.459 205.07C987.98 204.367 979.02 213.317 965.401 224.818C924.97 259.717 860.954 316.166 1032.92 298.145C1077.82 290.605 1139.27 268.431 1162.2 257.322C1206.94 235.638 1246.21 215 1254.67 219.197C1262.57 223.118 1455.09 257.037 1509.67 289.662C1554.17 316.224 1576.72 350.615 1577.91 379.737C1578.3 388.789 1574.13 400.103 1563.64 401.185Z" fill="#8A0EE2"/>
<path d="M1208.37 234.285C1228.55 195.434 1247.64 160.335 1250.55 161.292C1250.6 161.31 1250.63 161.328 1250.65 161.345C1253.7 163.477 1275.84 193.284 1292.09 215.374" stroke="#0D0D0D" stroke-width="2.49587" stroke-miterlimit="10" stroke-linecap="round"/>
<path d="M694.686 354.937H251.326" stroke="#0D0D0D" stroke-width="4.45078" stroke-miterlimit="10" stroke-linecap="round"/>
<path d="M833.796 188.518H555.76" stroke="#0D0D0D" stroke-width="1.33523" stroke-miterlimit="10" stroke-linecap="round"/>
<path d="M666.834 291.883H363.704" stroke="#0D0D0D" stroke-width="2" stroke-miterlimit="10" stroke-linecap="round"/>
<path d="M431.499 259.369H287.258" stroke="#0D0D0D" stroke-width="2" stroke-miterlimit="10" stroke-linecap="round"/>
<path d="M527 319.863H295" stroke="#0D0D0D" stroke-width="3.11555" stroke-miterlimit="10" stroke-linecap="round"/>
<path d="M845.693 211.506H379.678" stroke="#0D0D0D" stroke-width="3.56063" stroke-miterlimit="10" stroke-linecap="round" stroke-dasharray="13.43 13.43"/>
<path d="M1203.6 201.718C1206.46 198.327 1214.49 188.744 1216.5 185.736C1221.5 178.218 1227.06 181.97 1227.06 181.97C1230.43 185.446 1209.23 213.388 1209.23 213.388" stroke="#0D0D0D" stroke-width="1.87908" stroke-miterlimit="10" stroke-linecap="round"/>
<path d="M421.511 370.381H853.37" stroke="#0D0D0D" stroke-width="4.0057" stroke-miterlimit="10" stroke-linecap="round" stroke-dasharray="22.25 22.25"/>
<path d="M1151.81 216.575C1141 224.017 1129.83 231.792 1120.83 238.081" stroke="#0D0D0D" stroke-width="1.78031" stroke-miterlimit="10" stroke-linecap="round"/>
<path d="M1213.36 186.564C1213.36 186.564 1197.2 187.979 1190.73 190.334C1188.35 191.201 1175.61 199.676 1160.45 210.033" stroke="#0D0D0D" stroke-width="2.22539" stroke-miterlimit="10" stroke-linecap="round"/>
<path d="M1052.87 179.109L1020.61 207.95" stroke="#0D0D0D" stroke-width="2.67047" stroke-miterlimit="10" stroke-linecap="round"/>
<path d="M1126.36 150.361C1131.35 151.033 1138.93 150.388 1150.41 146.489C1150.41 146.489 1140.38 144.183 1126.88 144.428" stroke="#0D0D0D" stroke-width="1.78031" stroke-miterlimit="10" stroke-linecap="round" stroke-linejoin="round"/>
<path d="M1148.01 145.492C1147.72 147.303 1146.21 148.768 1144.63 148.768C1143.04 148.768 1141.99 147.299 1142.28 145.492" fill="#0D0D0D"/>
<path d="M1154.96 144.637C1154.45 144.624 1153.93 144.611 1153.39 144.606" stroke="#0D0D0D" stroke-width="1.2845" stroke-miterlimit="10" stroke-linecap="round" stroke-linejoin="round"/>
<path d="M1156.38 150.241C1160.34 149.724 1165.16 148.612 1171.03 146.613C1171.03 146.613 1163.7 144.927 1153.2 144.637" stroke="#0D0D0D" stroke-width="1.2845" stroke-miterlimit="10" stroke-linecap="round" stroke-linejoin="round"/>
<path d="M1169.15 145.643C1168.87 147.397 1167.59 148.821 1166.28 148.821C1164.97 148.821 1164.13 147.397 1164.41 145.643" fill="#0D0D0D"/>
<path d="M1154.2 145.056L1171.66 175.001L1152.45 168.146C1152.45 168.146 1143.97 190.338 1134.81 192.59C1130.85 193.565 1111.61 187.147 1102.29 184.895" stroke="#0D0D0D" stroke-width="3" stroke-miterlimit="10" stroke-linecap="round" stroke-linejoin="round"/>
<path d="M1134.38 168.992C1134.38 168.992 1145.78 176.589 1149.05 175.575" stroke="#0D0D0D" stroke-width="2.67047" stroke-miterlimit="10" stroke-linecap="round" stroke-linejoin="round"/>
<path d="M1101.51 147.543L1124.69 147.922" stroke="#0D0D0D" stroke-width="3.11555" stroke-miterlimit="10" stroke-linecap="round" stroke-linejoin="round"/>
<path d="M1126.92 144.263C1129.46 139.163 1135.26 135.455 1141.43 135.455C1149 135.455 1154.25 141.05 1153.15 147.949C1152.06 154.847 1145.03 160.442 1137.45 160.442C1129.87 160.442 1124.62 154.847 1125.73 147.949C1125.93 146.667 1126.34 145.43 1126.92 144.263Z" stroke="#0D0D0D" stroke-width="1.78031" stroke-miterlimit="10" stroke-linecap="round" stroke-linejoin="round"/>
<path d="M1158.28 136.902C1160.15 135.478 1162.3 134.641 1164.47 134.641C1170.07 134.641 1173.73 140.235 1172.64 147.134C1171.69 153.098 1167.51 158.083 1162.77 159.325" stroke="#0D0D0D" stroke-width="1.33359" stroke-miterlimit="10" stroke-linecap="round" stroke-linejoin="round"/>
<path d="M1098.95 95.8432C1112.06 92.4517 1124.34 90.5201 1131.38 92.474C1155.04 99.0523 1168.12 122.779 1168.12 122.779" stroke="#0D0D0D" stroke-width="3.11555" stroke-miterlimit="10" stroke-linecap="round" stroke-linejoin="round"/>
<path d="M1088.23 159.022C1082.18 178.85 1106.67 194.099 1106.67 194.099C1106.67 194.099 1077.9 207.709 1062.22 140.507C1062.22 140.507 1056.37 129.941 1045.61 114.189C1045.61 114.189 1058.6 108.728 1074.82 103.187" stroke="#0D0D0D" stroke-width="1.812" stroke-miterlimit="10" stroke-linecap="round" stroke-linejoin="round"/>
<path d="M1046.49 130.008C1043.7 125.379 1039.24 118.231 1033.27 109.476C1033.27 109.476 1076.29 91.3925 1103.45 87.6494" stroke="#0D0D0D" stroke-width="1.33523" stroke-miterlimit="10" stroke-linecap="round" stroke-linejoin="round"/>
<path d="M1108.6 185.989C1108.6 185.989 1106.21 188.201 1103.42 190.907" stroke="#0D0D0D" stroke-width="1.59734" stroke-miterlimit="10" stroke-linecap="round" stroke-linejoin="round"/>
<path d="M1108.94 195.866C1110.61 197.067 1112.06 198.207 1112.7 198.946C1114.68 201.242 1122.76 229.972 1122.76 229.972" stroke="#0D0D0D" stroke-width="1.78031" stroke-miterlimit="10" stroke-linecap="round" stroke-linejoin="round"/>
<path d="M1153.81 248.67L1159.63 257.109C1160.38 257.816 1160.03 259.174 1158.97 259.708L1104.55 286.475" stroke="#0D0D0D" stroke-width="2.67047" stroke-miterlimit="10" stroke-linecap="round"/>
<path d="M1018.68 222.851C1018.68 222.851 949.543 278.775 961.062 288.829" stroke="#0D0D0D" stroke-width="1.78031" stroke-miterlimit="10" stroke-linecap="round"/>
<path d="M1198.2 230.537C1188.15 243.921 1174.15 261.444 1163.84 269.976" stroke="#0D0D0D" stroke-width="2.3428" stroke-miterlimit="10" stroke-linecap="round"/>
<path d="M1179 239.75C1175.27 244.37 1170.44 250.201 1165.34 255.916" stroke="#0D0D0D" stroke-width="1.87908" stroke-miterlimit="10" stroke-linecap="round"/>
<path d="M1204.19 240.445L1188.07 258.502" stroke="#0D0D0D" stroke-width="1.87908" stroke-miterlimit="10" stroke-linecap="round"/>
<path d="M875.179 193.823C888.642 191.179 888.153 182.487 901.403 179.883C914.697 177.27 915.076 185.981 928.37 183.368C932.465 182.562 935.264 181.178 937.565 179.571" stroke="#0D0D0D" stroke-width="0.890157" stroke-miterlimit="10" stroke-linecap="round"/>
<path d="M998.39 168.876C994.829 171.987 991.064 175.009 983.747 176.447C968.222 179.5 967.773 169.321 952.253 172.375" stroke="#0D0D0D" stroke-width="1.78031" stroke-miterlimit="10" stroke-linecap="round"/>
<path d="M1065.1 152.048C1048.4 155.163 1049.02 165.298 1036.51 167.63C1022.66 170.216 1021.46 161.19 1008.88 162.614" stroke="#0D0D0D" stroke-width="0.890157" stroke-miterlimit="10" stroke-linecap="round"/>
<path d="M954.724 159.289C952.823 160.077 950.602 160.714 947.865 161.114C933.462 163.219 933.596 154.5 919.197 156.606C904.795 158.711 904.661 167.434 890.254 169.54C875.847 171.645 875.989 162.926 861.582 165.031" stroke="#0D0D0D" stroke-width="1.33523" stroke-miterlimit="10" stroke-linecap="round"/>
<path d="M1063.02 144.272C1048.64 146.377 1048.75 137.658 1034.36 139.763C1019.97 141.869 1019.85 150.592 1005.45 152.697C991.06 154.803 991.18 146.084 976.786 148.189C971.935 148.897 968.708 150.356 966.002 152.065" stroke="#0D0D0D" stroke-width="1.33523" stroke-miterlimit="10" stroke-linecap="round"/>
<path d="M1147.27 142.109L1130.3 140.044" stroke="#0D0D0D" stroke-width="1.33523" stroke-miterlimit="10" stroke-linecap="round" stroke-linejoin="round"/>
<path d="M1165.62 142.737L1152.8 141.179" stroke="#0D0D0D" stroke-width="1.33523" stroke-miterlimit="10" stroke-linecap="round" stroke-linejoin="round"/>
<path d="M738.82 395.092C679.086 395.092 600.374 384.788 598.193 361.47C596.017 338.153 606.636 309.098 666.499 275.86C737.351 236.47 880.417 218.235 880.417 218.235H880.431C893.778 215.694 1011.41 205.333 1021.56 203.294C1025.08 202.586 1016.13 211.541 1002.52 223.042C962.111 257.936 898.14 314.39 1070.09 296.369C1114.98 288.829 1176.41 266.655 1199.34 255.546C1244.06 233.862 1283.31 213.224 1291.77 217.421C1299.68 221.342 1492.22 255.261 1546.82 287.886C1591.33 314.448 1613.9 348.839 1615.12 377.961C1615.5 387.009 1611.32 398.323 1600.84 399.405C1579.32 401.621 1520.75 403.081 1472.63 403.984" stroke="#0D0D0D" stroke-width="6" stroke-miterlimit="10" stroke-linecap="round"/>
<path d="M885.718 358.493C885.758 358.23 885.789 357.972 885.82 357.714C885.869 357.336 885.918 356.962 885.954 356.588C886.043 355.827 886.119 355.066 886.185 354.314C886.225 353.877 886.261 353.446 886.292 353.014C886.368 351.977 886.43 350.94 886.47 349.912C886.51 348.946 886.537 347.989 886.541 347.032C886.555 345.808 886.541 344.593 886.497 343.387C885.317 308.422 863.255 280.573 830.439 272.014C830.435 272.01 830.435 272.01 830.43 272.014C829.371 271.738 828.299 271.485 827.221 271.249H827.217C826.354 271.062 825.481 270.888 824.604 270.724C824.311 270.67 824.012 270.617 823.723 270.568C823.104 270.461 822.49 270.363 821.872 270.27C821.538 270.221 821.204 270.172 820.866 270.127C819.873 269.989 818.867 269.869 817.857 269.767C817.519 269.731 817.18 269.7 816.838 269.669C814.163 269.428 811.439 269.304 808.662 269.304C758.025 269.304 710.086 310.5 701.594 361.324C699.6 373.243 699.96 384.637 702.332 395.092H702.337C710.099 429.203 739.336 453.339 778.236 453.339C814.448 453.339 849.213 432.42 869.197 402.008C870.959 399.324 872.61 396.565 874.133 393.743C874.511 393.044 874.885 392.337 875.245 391.629C875.779 390.583 876.3 389.528 876.799 388.465C877.075 387.881 877.346 387.298 877.604 386.711C879.042 383.524 880.319 380.266 881.427 376.946C881.628 376.358 881.815 375.766 882.002 375.17C882.754 372.784 883.417 370.372 883.991 367.929C884.169 367.163 884.338 366.393 884.503 365.623C884.806 364.181 885.073 362.735 885.313 361.279C885.455 360.349 885.598 359.419 885.718 358.493Z" stroke="#0D0D0D" stroke-width="2.67047" stroke-miterlimit="10" stroke-linecap="round"/>
<path d="M859.669 358.493C859.709 358.23 859.74 357.972 859.771 357.714C859.82 357.336 859.869 356.962 859.909 356.588C859.998 355.827 860.074 355.066 860.14 354.314C860.181 353.877 860.216 353.446 860.247 353.014C860.323 351.977 860.39 350.94 860.425 349.912C860.465 348.946 860.492 347.989 860.497 347.032C860.51 345.808 860.497 344.593 860.456 343.387C859.295 308.422 837.246 280.573 804.434 272.014C804.43 272.01 804.43 272.01 804.426 272.014C803.366 271.738 802.294 271.485 801.217 271.249H801.212C800.349 271.062 799.476 270.888 798.599 270.724C798.306 270.67 798.008 270.617 797.718 270.568C797.1 270.461 796.485 270.363 795.867 270.27C795.533 270.221 795.199 270.172 794.861 270.127C793.868 269.989 792.862 269.869 791.852 269.767C791.514 269.731 791.176 269.7 790.833 269.669C788.158 269.428 785.434 269.304 782.657 269.304C732.02 269.304 684.063 310.5 675.544 361.324C673.546 373.243 673.897 384.637 676.27 395.092H676.274C684.019 429.203 713.242 453.339 752.142 453.339C788.354 453.339 823.128 432.42 843.13 402.008C844.897 399.324 846.543 396.565 848.07 393.743C848.448 393.044 848.822 392.337 849.183 391.629C849.717 390.583 850.237 389.528 850.736 388.465C851.012 387.881 851.283 387.298 851.542 386.711C852.979 383.524 854.261 380.266 855.369 376.946C855.57 376.358 855.756 375.766 855.943 375.17C856.696 372.784 857.363 370.372 857.937 367.929C858.115 367.163 858.289 366.393 858.449 365.623C858.752 364.181 859.019 362.735 859.259 361.279C859.411 360.349 859.548 359.419 859.669 358.493Z" stroke="#0D0D0D" stroke-width="1.33523" stroke-miterlimit="10" stroke-linecap="round" stroke-linejoin="round"/>
<path d="M1009.98 265.961C1080.65 265.832 1125.95 241.415 1135.51 236.519" stroke="#0D0D0D" stroke-width="3.11555" stroke-miterlimit="10" stroke-linecap="round"/>
<path d="M1427.89 358.493C1427.92 358.23 1427.95 357.972 1427.98 357.714C1428.02 357.336 1428.07 356.962 1428.11 356.588C1428.19 355.827 1428.25 355.066 1428.31 354.314C1428.35 353.877 1428.38 353.446 1428.4 353.014C1428.47 351.977 1428.52 350.94 1428.55 349.912C1428.58 348.946 1428.59 347.989 1428.59 347.032C1428.59 345.808 1428.56 344.593 1428.51 343.387C1426.96 308.422 1404.6 280.573 1371.7 272.014C1371.69 272.01 1371.69 272.01 1371.69 272.014C1370.62 271.738 1369.55 271.485 1368.47 271.249H1368.46C1367.6 271.062 1366.72 270.888 1365.84 270.724C1365.55 270.67 1365.25 270.617 1364.96 270.568C1364.34 270.461 1363.72 270.363 1363.1 270.27C1362.77 270.221 1362.43 270.172 1362.1 270.127C1361.1 269.989 1360.1 269.869 1359.08 269.767C1358.74 269.731 1358.41 269.7 1358.06 269.669C1355.39 269.428 1352.66 269.304 1349.88 269.304C1299.25 269.304 1251.75 310.5 1243.79 361.324C1241.93 373.243 1242.41 384.637 1244.89 395.092H1244.9C1253.02 429.203 1282.51 453.339 1321.41 453.339C1357.62 453.339 1392.16 432.42 1411.83 402.008C1413.56 399.324 1415.18 396.565 1416.68 393.743C1417.04 393.044 1417.41 392.337 1417.76 391.629C1418.29 390.583 1418.79 389.528 1419.28 388.465C1419.56 387.881 1419.82 387.298 1420.07 386.711C1421.47 383.524 1422.72 380.266 1423.79 376.946C1423.98 376.358 1424.17 375.766 1424.35 375.17C1425.07 372.784 1425.72 370.372 1426.26 367.929C1426.43 367.163 1426.6 366.393 1426.75 365.623C1427.04 364.181 1427.29 362.735 1427.51 361.279C1427.65 360.349 1427.78 359.419 1427.89 358.493Z" stroke="#0D0D0D" stroke-width="1.33523" stroke-miterlimit="10" stroke-linecap="round" stroke-linejoin="round"/>
<path d="M1452.25 358.493C1452.29 358.23 1452.32 357.972 1452.34 357.714C1452.39 357.336 1452.43 356.962 1452.47 356.588C1452.55 355.827 1452.61 355.066 1452.67 354.314C1452.71 353.877 1452.74 353.446 1452.77 353.014C1452.83 351.977 1452.88 350.94 1452.91 349.912C1452.94 348.946 1452.95 347.989 1452.95 347.032C1452.95 345.808 1452.92 344.593 1452.86 343.387C1451.3 308.422 1428.92 280.573 1396.01 272.014C1396.01 272.01 1396.01 272.01 1396.01 272.014C1394.94 271.738 1393.87 271.485 1392.79 271.249H1392.78C1391.92 271.062 1391.04 270.888 1390.16 270.724C1389.87 270.67 1389.57 270.617 1389.28 270.568C1388.66 270.461 1388.04 270.363 1387.42 270.27C1387.09 270.221 1386.75 270.172 1386.41 270.127C1385.42 269.989 1384.42 269.869 1383.4 269.767C1383.06 269.731 1382.72 269.7 1382.38 269.669C1379.71 269.428 1376.98 269.304 1374.2 269.304C1323.56 269.304 1276.08 310.5 1268.15 361.324C1266.29 373.243 1266.78 384.637 1269.27 395.092H1269.27C1277.41 429.203 1306.92 453.339 1345.82 453.339C1382.03 453.339 1416.56 432.42 1436.21 402.008C1437.95 399.324 1439.56 396.565 1441.05 393.743C1441.42 393.044 1441.79 392.337 1442.14 391.629C1442.66 390.583 1443.17 389.528 1443.66 388.465C1443.93 387.881 1444.19 387.298 1444.44 386.711C1445.85 383.524 1447.09 380.266 1448.16 376.946C1448.35 376.358 1448.53 375.766 1448.72 375.17C1449.44 372.784 1450.08 370.372 1450.63 367.929C1450.79 367.163 1450.96 366.393 1451.11 365.623C1451.4 364.181 1451.65 362.735 1451.87 361.279C1452.01 360.349 1452.14 359.419 1452.25 358.493Z" stroke="#0D0D0D" stroke-width="2.67047" stroke-miterlimit="10" stroke-linecap="round"/>
<path d="M1305.85 361.324C1303.38 377.231 1305.09 392.199 1310.16 405.253C1147.81 405.32 965.717 402.885 905.685 402.008" stroke="#0D0D0D" stroke-width="5.34094" stroke-miterlimit="10" stroke-linecap="round"/>
<path d="M1419.38 361.324C1417.55 373.314 1406.35 383.035 1394.38 383.035C1382.4 383.035 1374.19 373.314 1376.04 361.324C1377.89 349.333 1389.08 339.608 1401.04 339.608C1413.01 339.608 1421.22 349.333 1419.38 361.324Z" stroke="#0D0D0D" stroke-width="4.0057" stroke-miterlimit="10" stroke-linecap="round" stroke-linejoin="round"/>
<path d="M833.796 188.518H555.76" stroke="#0D0D0D" stroke-width="2.22539" stroke-miterlimit="10" stroke-linecap="round"/>
<path d="M703.494 243.574H449.706" stroke="#0D0D0D" stroke-width="2.67047" stroke-miterlimit="10" stroke-linecap="round"/>
<path d="M1666 195H1536" stroke="#0D0D0D" stroke-width="4.01608" stroke-miterlimit="10" stroke-linecap="round"/>
<path d="M1536 156H1405" stroke="#0D0D0D" stroke-width="3" stroke-miterlimit="10" stroke-linecap="round"/>
<path d="M1784.44 118.511H1471.44" stroke="#0D0D0D" stroke-width="3.11555" stroke-miterlimit="10" stroke-linecap="round" stroke-dasharray="11.02 11.02"/>
<path d="M1052.87 179.109L1020.61 207.95" stroke="#0D0D0D" stroke-width="2.67047" stroke-miterlimit="10" stroke-linecap="round"/>
<path d="M1154.96 144.637C1154.45 144.624 1153.93 144.611 1153.39 144.606" stroke="#0D0D0D" stroke-width="1.2845" stroke-miterlimit="10" stroke-linecap="round" stroke-linejoin="round"/>
<path d="M1085.18 201.603C1077.68 211.426 1055.64 240.227 1044.22 255.141" stroke="#0D0D0D" stroke-width="2.67047" stroke-miterlimit="10" stroke-linecap="round" stroke-linejoin="round"/>
<path d="M1018.68 222.851C1018.68 222.851 949.543 278.775 961.062 288.829" stroke="#0D0D0D" stroke-width="1.78031" stroke-miterlimit="10" stroke-linecap="round"/>
<path d="M1204.19 240.445L1188.07 258.502" stroke="#0D0D0D" stroke-width="1.87908" stroke-miterlimit="10" stroke-linecap="round"/>
<path d="M1063.02 144.272C1048.64 146.377 1048.75 137.658 1034.36 139.763C1019.97 141.869 1019.85 150.592 1005.45 152.697C991.06 154.803 991.18 146.084 976.786 148.189C971.935 148.897 968.708 150.356 966.002 152.065" stroke="#0D0D0D" stroke-width="1.33523" stroke-miterlimit="10" stroke-linecap="round"/>
<path d="M1089.17 158.377L1088.23 159.022" stroke="#0D0D0D" stroke-width="2.24578" stroke-miterlimit="10"/>
<path d="M883.573 426.554C891.883 419.437 899.222 411.15 905.222 402.008C906.985 399.324 908.631 396.565 910.154 393.743C910.532 393.044 910.901 392.336 911.262 391.629C911.796 390.583 912.317 389.528 912.815 388.464C913.091 387.881 913.363 387.298 913.621 386.711C915.054 383.524 916.331 380.266 917.439 376.946C917.635 376.358 917.827 375.766 918.014 375.17C918.761 372.784 919.425 370.372 919.999 367.928C920.177 367.163 920.346 366.393 920.506 365.623C920.809 364.181 921.076 362.734 921.312 361.279C921.463 360.349 921.601 359.418 921.721 358.493C921.761 358.23 921.792 357.972 921.819 357.714C921.868 357.336 921.917 356.962 921.953 356.588C922.042 355.827 922.117 355.066 922.18 354.313C922.22 353.877 922.255 353.446 922.286 353.014C922.362 351.977 922.424 350.94 922.464 349.912C922.5 348.946 922.527 347.989 922.536 347.032C922.549 345.808 922.531 344.593 922.491 343.387C921.289 308.421 899.205 280.573 866.385 272.014C866.38 272.01 866.38 272.01 866.376 272.014C865.316 271.738 864.244 271.484 863.167 271.248H863.162C862.299 271.062 861.426 270.888 860.55 270.723C860.256 270.67 859.958 270.616 859.664 270.567C859.045 270.461 858.431 270.363 857.812 270.269C857.479 270.22 857.145 270.171 856.806 270.127C855.814 269.989 854.808 269.869 853.798 269.766C853.459 269.731 853.121 269.7 852.778 269.668C850.104 269.428 847.38 269.303 844.602 269.303C825.615 269.303 807.016 275.098 790.735 285.019M790.726 285.019C763.58 301.554 742.875 329.558 737.588 361.323C735.603 373.243 735.972 384.637 738.353 395.091H738.358C746.142 429.202 775.397 453.339 814.297 453.339C824.739 453.339 835.06 451.599 844.945 448.394M847.291 345.968C850.566 349.898 852.098 355.328 851.114 361.323C849.147 373.314 837.842 383.034 825.869 383.034C813.896 383.034 805.792 373.314 807.772 361.323C809.245 352.386 815.908 344.704 824.156 341.375" stroke="#0D0D0D" stroke-width="4.89586" stroke-miterlimit="10" stroke-linecap="round"/>
<path d="M1348.19 291.882C1366.46 277.818 1388.82 269.303 1411.84 269.303C1414.25 269.303 1416.61 269.397 1418.95 269.579C1419.99 269.66 1421.02 269.757 1422.05 269.878C1422.71 269.953 1423.36 270.033 1424 270.122C1424.65 270.211 1425.29 270.305 1425.92 270.407C1425.93 270.403 1425.93 270.403 1425.93 270.407C1426.84 270.55 1427.74 270.71 1428.63 270.883C1428.63 270.883 1428.63 270.883 1428.63 270.883C1464.33 277.818 1488.95 306.748 1490.56 343.52V343.525C1490.59 344.108 1490.61 344.695 1490.62 345.283C1490.62 345.287 1490.62 345.292 1490.62 345.292C1490.63 345.91 1490.64 346.529 1490.65 347.148C1490.65 347.459 1490.65 347.771 1490.64 348.082C1490.64 348.087 1490.64 348.087 1490.64 348.091C1490.64 348.75 1490.63 349.409 1490.6 350.072C1490.59 350.406 1490.58 350.739 1490.57 351.073C1490.57 351.078 1490.57 351.078 1490.57 351.082C1490.54 351.781 1490.5 352.48 1490.46 353.183C1490.43 353.535 1490.41 353.886 1490.38 354.242C1490.35 354.629 1490.32 355.021 1490.28 355.413C1490.25 355.8 1490.21 356.187 1490.17 356.574C1490.17 356.588 1490.17 356.601 1490.16 356.619C1490.13 356.966 1490.09 357.318 1490.05 357.669C1490.04 357.736 1490.03 357.798 1490.03 357.865C1489.99 358.226 1489.94 358.586 1489.9 358.947C1489.85 359.343 1489.79 359.739 1489.73 360.135C1489.68 360.531 1489.62 360.927 1489.56 361.323C1489.34 362.765 1489.09 364.203 1488.81 365.632C1488.62 366.584 1488.42 367.528 1488.2 368.471C1487.99 369.415 1487.76 370.358 1487.51 371.293C1487.15 372.695 1486.76 374.088 1486.33 375.472C1486.33 375.472 1486.33 375.472 1486.33 375.477C1486.05 376.398 1485.76 377.315 1485.45 378.227C1482.37 387.356 1478.02 396.017 1472.63 403.984C1470.42 407.26 1468.03 410.42 1465.49 413.447C1462.71 416.749 1459.75 419.896 1456.63 422.864C1453.9 425.464 1451.04 427.925 1448.08 430.239M1436.65 438.095C1433.05 440.262 1429.33 442.225 1425.52 443.966C1421.82 445.652 1418.04 447.134 1414.18 448.39M1311.97 339.181C1309.12 346.275 1307.04 353.69 1305.86 361.323C1303.39 377.231 1305.09 392.198 1310.16 405.253C1321.31 433.898 1348.67 453.339 1383.58 453.339C1388.8 453.339 1393.99 452.903 1399.11 452.066M1321.03 321.542C1317.49 327.132 1314.44 333.034 1311.98 339.181M1336.15 302.529C1333.57 305.155 1331.11 307.901 1328.79 310.762" stroke="#0D0D0D" stroke-width="4.89586" stroke-miterlimit="10" stroke-linecap="round"/>
<path d="M1151.63 130.034L1159.5 138.94C1159.56 138.989 1159.66 138.94 1159.67 138.856C1159.67 138.856 1167.31 131.338 1167.73 131.539L1199.7 146.889C1199.8 146.938 1199.91 146.778 1199.82 146.716L1165.92 124.092C1165.86 124.066 1165.77 124.026 1165.71 123.999C1163.5 122.321 1158.07 122.655 1154.14 122.682H1154.08C1140.48 122.561 1126.55 127.319 1118.81 130.488C1118.79 130.497 1118.77 130.502 1118.75 130.51C1115.66 131.966 1112.54 133.666 1109.45 135.651L1109.43 135.664L1109.41 135.678L1099.3 143.28C1099.29 143.293 1099.27 143.306 1099.25 143.324C1098.66 143.841 1098.07 144.375 1097.49 144.918C1095.96 146.337 1094.62 147.748 1093.46 149.146C1093.46 149.15 1093.46 149.155 1093.45 149.159C1093.32 149.311 1093.2 149.457 1093.08 149.609C1093.05 149.649 1093.02 149.684 1093 149.729C1092.41 150.864 1090.69 154.247 1089.48 156.877C1089.19 157.504 1088.93 158.088 1088.72 158.586C1088.24 159.743 1088.02 160.46 1088.35 160.228L1130.61 130.626C1130.89 130.435 1131.23 130.444 1131.43 130.648L1139.79 140.654C1139.83 140.689 1140.9 140.654 1140.9 140.654C1140.93 140.689 1141 140.681 1141.04 140.636L1151.02 130.31C1151.27 130.079 1151.63 130.034 1151.86 130.212" fill="#F9AC12"/>
<path d="M1151.63 130.034L1159.5 138.94C1159.56 138.989 1159.66 138.94 1159.67 138.856C1159.67 138.856 1167.31 131.338 1167.73 131.539L1199.7 146.889C1199.8 146.938 1199.91 146.778 1199.82 146.716L1165.92 124.092C1165.86 124.066 1165.77 124.026 1165.71 123.999C1163.5 122.321 1158.07 122.655 1154.14 122.682H1154.08C1140.48 122.561 1126.55 127.319 1118.81 130.488C1118.79 130.497 1118.77 130.502 1118.75 130.51C1115.66 131.966 1112.54 133.666 1109.45 135.651L1109.43 135.664L1109.41 135.678L1099.3 143.28C1099.29 143.293 1099.27 143.306 1099.25 143.324C1098.66 143.841 1098.07 144.375 1097.49 144.918C1095.96 146.337 1094.62 147.748 1093.46 149.146C1093.46 149.15 1093.46 149.155 1093.45 149.159C1093.32 149.311 1093.2 149.457 1093.08 149.609C1093.05 149.649 1093.02 149.684 1093 149.729C1092.41 150.864 1090.69 154.247 1089.48 156.877C1089.19 157.504 1088.93 158.088 1088.72 158.586C1088.24 159.743 1088.02 160.46 1088.35 160.228L1130.61 130.626C1130.89 130.435 1131.23 130.444 1131.43 130.648L1139.79 140.654C1139.83 140.689 1140.9 140.654 1140.9 140.654C1140.93 140.689 1141 140.681 1141.04 140.636L1151.02 130.31C1151.27 130.079 1151.63 130.034 1151.86 130.212" stroke="#0D0D0D" stroke-width="2.24578" stroke-miterlimit="10"/>
<path d="M2028 269.863L1770 269.863" stroke="#0D0D0D" stroke-width="2" stroke-miterlimit="10" stroke-linecap="round"/>
<path d="M1786 244H1696" stroke="#0D0D0D" stroke-width="2" stroke-miterlimit="10" stroke-linecap="round"/>
<path d="M304.129 292H1" stroke="#0D0D0D" stroke-width="2" stroke-miterlimit="10" stroke-linecap="round"/>
<path d="M1915 163L1657 163" stroke="#0D0D0D" stroke-width="3" stroke-miterlimit="10" stroke-linecap="round" stroke-dasharray="40 40"/>
<path d="M2084 194L1826 194" stroke="#0D0D0D" stroke-width="5" stroke-miterlimit="10" stroke-linecap="round"/>
<path d="M2112 103L1854 103" stroke="#0D0D0D" stroke-width="3" stroke-miterlimit="10" stroke-linecap="round"/>
<path d="M319 167H19" stroke="#0D0D0D" stroke-width="6" stroke-miterlimit="10" stroke-linecap="round" stroke-dasharray="70 70"/>
<path d="M269 116H37" stroke="#0D0D0D" stroke-width="3.11555" stroke-miterlimit="10" stroke-linecap="round"/>
<path d="M120 240L338 240" stroke="#0D0D0D" stroke-width="4.0057" stroke-miterlimit="10" stroke-linecap="round" stroke-dasharray="22.25 22.25"/>
</svg>
