<svg width="390" height="662" viewBox="0 0 390 662" fill="none" xmlns="http://www.w3.org/2000/svg">
<path d="M203.56 57.4333C209.942 56.3696 215.28 63.4905 217.151 67.184C206.16 64.5838 197.601 70.9267 194.695 74.4232C190.322 80.2145 195.335 85.5035 198.389 87.4241C196.261 88.0151 195.04 87.6704 194.695 87.4241C191.002 88.0151 185.831 74.1277 185.683 72.6503C185.565 71.4684 182.285 66.4453 180.66 64.0815C181.487 62.7814 192.824 59.6001 198.389 58.172L203.56 57.4333Z" fill="#FF4412"/>
<path d="M188.952 81.8392C183.856 82.7006 183.827 80.1085 178.733 80.9699C173.637 81.8313 173.664 84.4234 168.566 85.2848C163.467 86.1462 163.442 83.5541 158.345 84.4155C153.246 85.2769 153.27 87.869 148.17 88.7303C143.068 89.5917 143.047 86.9997 137.946 87.8611C132.845 88.7225 129.294 91.9011 127.763 92.1759C127.24 92.2627 126.864 92.2167 126.723 92.1917C126.693 92.1864 126.682 92.1509 126.703 92.1246L128.921 89.1775C128.942 89.1485 128.93 89.1117 128.897 89.1091L124.537 88.7054C124.504 88.7027 124.491 88.6633 124.515 88.6357L129.088 85.2427C129.11 85.2151 129.101 85.1796 129.07 85.173L122.235 82.4442C122.204 82.4389 122.195 82.4021 122.216 82.3758L124.913 79.0091C124.936 78.9815 124.925 78.9447 124.894 78.9394L120.096 78.1359C120.055 78.1293 120.054 78.0728 120.095 78.0517C120.722 77.723 123.593 76.2224 123.857 76.1238C124.153 76.0133 128.97 72.8952 133.978 72.2758C138.986 71.6564 138.884 74.2669 143.892 73.6475C148.898 73.028 148.999 70.4189 154.005 69.7995C159.01 69.1801 158.911 71.7905 163.917 71.1711C168.922 70.5517 169.019 67.9425 174.023 67.3231C179.027 66.7037 180.263 71.8721 185.269 71.2527L186.216 74.1617L188.952 81.8392Z" fill="#F9AC12" stroke="#0D0D0D" stroke-width="0.65755" stroke-miterlimit="10"/>
<path d="M170.167 108.687C191.046 108.649 204.432 101.434 207.257 99.9873" stroke="#0D0D0D" stroke-width="0.449344" stroke-miterlimit="10" stroke-linecap="round"/>
<path d="M209.646 99.6774C209.464 99.4485 209.558 99.0777 209.845 98.8949C217.252 94.1776 222.876 89.5116 224.541 89.3657C225.73 89.2618 226.744 89.5971 226.744 89.5971C227.398 89.8141 228.362 90.1324 228.767 91.024C228.892 91.3002 228.931 91.5619 228.592 93.9764C228.306 96.0043 228.267 96.1621 228.154 96.3791C228.035 96.604 227.708 97.159 226.886 97.7087C225.952 98.3333 224.828 98.3873 223.968 97.923C223.479 97.6587 222.895 97.5509 222.519 98.1768C221.911 99.1882 216.252 102.464 214.087 103.694C213.6 103.97 213.037 103.898 212.734 103.521L209.646 99.6774Z" stroke="#0D0D0D" stroke-width="0.78906" stroke-miterlimit="10" stroke-linecap="round"/>
<path d="M333.757 148.642C327.4 149.297 310.09 149.729 295.873 149.996C296.072 149.701 296.267 149.404 296.456 149.104C296.549 148.953 296.644 148.801 296.736 148.65C296.919 148.348 297.098 148.043 297.273 147.735C297.278 147.726 297.283 147.716 297.287 147.707C297.362 147.574 297.436 147.442 297.508 147.307C297.53 147.268 297.55 147.23 297.571 147.19C297.626 147.089 297.68 146.988 297.733 146.885C297.775 146.808 297.814 146.731 297.854 146.654C297.878 146.608 297.903 146.562 297.924 146.516C297.975 146.417 298.025 146.317 298.073 146.219C298.077 146.211 298.081 146.203 298.085 146.195C298.095 146.177 298.104 146.158 298.112 146.14C298.171 146.02 298.229 145.9 298.287 145.779C298.484 145.362 298.673 144.944 298.851 144.523C298.91 144.383 298.969 144.242 299.026 144.101C299.082 143.961 299.139 143.82 299.194 143.679C299.361 143.252 299.517 142.82 299.666 142.385C299.757 142.115 299.845 141.845 299.928 141.572C299.928 141.571 299.928 141.571 299.928 141.571C300.053 141.162 300.17 140.75 300.278 140.336C300.35 140.06 300.418 139.781 300.481 139.502C300.517 139.351 300.55 139.201 300.581 139.05C300.613 138.9 300.645 138.75 300.673 138.6C300.696 138.484 300.719 138.367 300.739 138.252C300.755 138.162 300.772 138.072 300.788 137.982C300.804 137.891 300.818 137.801 300.834 137.71C300.861 137.539 300.886 137.369 300.911 137.198C300.919 137.146 300.927 137.092 300.935 137.039C300.943 136.98 300.951 136.921 300.959 136.862C300.981 136.697 301.002 136.533 301.022 136.368C301.023 136.349 301.026 136.33 301.029 136.311C301.035 136.258 301.04 136.207 301.046 136.155C301.051 136.103 301.056 136.052 301.061 136C301.061 135.999 301.061 135.998 301.063 135.996C301.063 135.994 301.064 135.991 301.063 135.988C301.064 135.977 301.065 135.966 301.067 135.954C301.077 135.849 301.088 135.742 301.097 135.637C301.105 135.554 301.111 135.472 301.118 135.389C301.126 135.282 301.135 135.177 301.142 135.07C301.151 134.923 301.16 134.777 301.168 134.63C301.205 133.895 301.213 133.162 301.189 132.435C301.155 131.367 301.056 130.307 300.889 129.266C300.739 128.313 300.531 127.375 300.27 126.454C300.226 126.3 300.18 126.148 300.134 125.995C300.09 125.849 300.042 125.703 299.995 125.558C299.991 125.548 299.987 125.537 299.984 125.525C299.941 125.393 299.896 125.261 299.848 125.13C299.84 125.105 299.832 125.08 299.821 125.055C299.792 124.969 299.762 124.885 299.731 124.801C299.692 124.696 299.653 124.59 299.612 124.487C299.611 124.483 299.61 124.479 299.607 124.475C299.552 124.329 299.494 124.184 299.435 124.041C299.374 123.895 299.314 123.75 299.251 123.605C299.189 123.461 299.124 123.317 299.057 123.175C298.993 123.033 298.924 122.891 298.857 122.751C298.789 122.61 298.719 122.469 298.647 122.331C298.576 122.192 298.504 122.054 298.43 121.917C298.356 121.78 298.28 121.643 298.204 121.508C298.127 121.372 298.05 121.238 297.97 121.105C297.968 121.103 297.968 121.1 297.966 121.098C297.887 120.966 297.809 120.836 297.728 120.707C297.655 120.591 297.582 120.476 297.507 120.36C297.476 120.311 297.444 120.264 297.411 120.215C297.358 120.134 297.303 120.052 297.25 119.972C297.191 119.886 297.132 119.801 297.071 119.715C297.064 119.705 297.057 119.693 297.048 119.682C296.998 119.61 296.946 119.538 296.894 119.467C296.849 119.405 296.806 119.343 296.76 119.283C296.72 119.227 296.678 119.172 296.637 119.118C296.628 119.108 296.622 119.096 296.612 119.085C296.487 118.921 296.36 118.757 296.231 118.596C296.176 118.528 296.121 118.459 296.065 118.392C296.002 118.316 295.939 118.24 295.876 118.165C295.818 118.095 295.76 118.027 295.701 117.961C295.689 117.947 295.676 117.932 295.664 117.918C295.652 117.904 295.641 117.89 295.629 117.878C295.57 117.808 295.509 117.741 295.449 117.674C295.43 117.653 295.413 117.634 295.393 117.613C295.339 117.552 295.285 117.493 295.232 117.435C295.226 117.428 295.22 117.423 295.213 117.417C295.197 117.399 295.18 117.381 295.164 117.364C295.115 117.31 295.066 117.257 295.016 117.206C295.013 117.202 295.012 117.2 295.008 117.197C294.936 117.121 294.862 117.044 294.787 116.968C294.712 116.892 294.637 116.816 294.561 116.741L294.54 116.721C294.436 116.618 294.332 116.517 294.225 116.417C292.661 114.931 290.869 113.674 288.886 112.685C288.602 112.544 288.315 112.409 288.025 112.278C287.879 112.214 287.733 112.15 287.584 112.088C287.437 112.026 287.288 111.965 287.138 111.906C287.015 111.856 286.891 111.809 286.766 111.763C286.691 111.733 286.615 111.705 286.539 111.679C286.507 111.667 286.477 111.655 286.445 111.645C286.307 111.595 286.169 111.546 286.03 111.499C286.028 111.499 286.027 111.499 286.026 111.497C285.883 111.449 285.738 111.401 285.593 111.355C285.58 111.353 285.568 111.349 285.556 111.343C285.412 111.299 285.264 111.254 285.12 111.211C284.854 111.133 284.586 111.059 284.316 110.99C284.314 110.988 284.31 110.988 284.307 110.987C283.496 110.779 282.671 110.612 281.835 110.487C281.827 110.486 281.819 110.485 281.812 110.483C281.66 110.461 281.507 110.44 281.355 110.42C281.222 110.402 281.088 110.386 280.952 110.37C280.793 110.352 280.633 110.336 280.471 110.319C280.339 110.307 280.207 110.295 280.074 110.286C280.055 110.283 280.038 110.282 280.02 110.281C279.855 110.268 279.691 110.257 279.525 110.248C279.521 110.247 279.516 110.247 279.512 110.247C279.258 110.232 279.003 110.22 278.747 110.212C278.738 110.212 278.727 110.211 278.718 110.211C278.485 110.205 278.25 110.202 278.013 110.201C277.92 110.201 277.825 110.199 277.732 110.201C277.668 110.199 277.605 110.199 277.542 110.202C277.459 110.203 277.378 110.205 277.296 110.207C277.116 110.211 276.936 110.216 276.754 110.224C276.679 110.227 276.604 110.231 276.527 110.235C276.468 110.237 276.407 110.241 276.347 110.245C276.238 110.251 276.127 110.258 276.015 110.266C275.939 110.27 275.863 110.277 275.788 110.282C275.664 110.293 275.539 110.303 275.416 110.314C275.303 110.324 275.189 110.335 275.076 110.347C275.053 110.349 275.03 110.351 275.007 110.354C274.945 110.36 274.886 110.366 274.825 110.374C274.803 110.376 274.782 110.378 274.759 110.381C274.471 110.414 274.182 110.452 273.894 110.493C273.724 110.518 273.555 110.544 273.385 110.571C273.021 110.631 272.657 110.698 272.291 110.773C271.81 110.87 271.327 110.979 270.846 111.101C270.677 111.145 270.509 111.19 270.339 111.236C270.171 111.282 270.003 111.329 269.833 111.379C269.695 111.42 269.556 111.46 269.416 111.504C269.364 111.52 269.311 111.535 269.258 111.553C269.139 111.591 269.018 111.629 268.897 111.668C268.828 111.691 268.757 111.713 268.688 111.738C268.636 111.755 268.584 111.772 268.532 111.789V111.791C268.486 111.805 268.442 111.821 268.396 111.837C268.242 111.889 268.088 111.944 267.935 112C267.864 112.026 267.793 112.052 267.722 112.079C267.518 112.154 267.313 112.232 267.109 112.314C266.925 112.386 266.741 112.463 266.557 112.539C266.43 112.591 266.303 112.647 266.177 112.701C266.128 112.722 266.08 112.743 266.031 112.764C263.676 113.797 261.437 115.116 259.37 116.677C259.307 116.725 259.244 116.772 259.181 116.821C259.158 116.837 259.136 116.854 259.115 116.871C258.578 117.282 258.052 117.712 257.532 118.164C256.422 119.126 255.391 120.144 254.44 121.207C252.583 123.278 251.031 125.519 249.797 127.855C249.74 127.962 249.684 128.07 249.628 128.179C249.571 128.29 249.515 128.399 249.459 128.509C249.406 128.617 249.352 128.726 249.3 128.836C249.261 128.917 249.223 128.997 249.183 129.078C249.139 129.172 249.094 129.268 249.049 129.363C249.006 129.456 248.964 129.548 248.922 129.642C248.919 129.647 248.916 129.654 248.914 129.659C248.872 129.751 248.831 129.844 248.79 129.936C248.748 130.032 248.706 130.128 248.665 130.224C248.582 130.416 248.502 130.61 248.424 130.802C248.152 131.476 247.905 132.155 247.683 132.837C247.684 132.839 247.683 132.84 247.683 132.841C247.588 133.135 247.497 133.429 247.412 133.724C247.355 133.92 247.3 134.117 247.247 134.313C247.22 134.412 247.195 134.51 247.17 134.608C247.144 134.706 247.12 134.805 247.095 134.903C247.046 135.101 246.999 135.298 246.956 135.495C246.815 136.121 246.694 136.752 246.594 137.389C246.572 137.536 246.549 137.682 246.529 137.828C246.507 137.976 246.489 138.122 246.472 138.267C246.453 138.412 246.435 138.558 246.42 138.703C246.404 138.844 246.391 138.984 246.377 139.124C246.376 139.137 246.376 139.15 246.373 139.163C246.361 139.299 246.349 139.435 246.34 139.571C246.33 139.693 246.322 139.814 246.315 139.936C246.31 139.992 246.307 140.046 246.306 140.099C246.301 140.164 246.298 140.228 246.295 140.293C246.29 140.368 246.287 140.441 246.286 140.515C246.284 140.558 246.282 140.603 246.281 140.648C246.274 140.791 246.27 140.936 246.269 141.079C246.265 141.173 246.264 141.266 246.264 141.359C246.262 141.488 246.261 141.617 246.262 141.747C246.264 142.005 246.269 142.263 246.277 142.518C246.277 142.526 246.278 142.535 246.278 142.544C246.284 142.684 246.29 142.822 246.298 142.96C246.303 143.099 246.312 143.236 246.323 143.374C246.33 143.49 246.337 143.605 246.348 143.72C246.355 143.796 246.361 143.872 246.369 143.947C246.377 144.042 246.386 144.135 246.395 144.23C246.406 144.345 246.419 144.458 246.433 144.571C246.436 144.594 246.439 144.618 246.443 144.642C246.457 144.763 246.472 144.884 246.489 145.003V145.005C246.506 145.134 246.524 145.261 246.544 145.389C246.652 146.112 246.794 146.822 246.963 147.518C246.983 147.598 247.003 147.678 247.025 147.757C247.048 147.847 247.071 147.935 247.095 148.024C247.095 148.026 247.096 148.027 247.096 148.028C247.125 148.131 247.153 148.233 247.182 148.337C247.186 148.353 247.19 148.369 247.195 148.385C247.228 148.498 247.259 148.611 247.295 148.723C247.324 148.817 247.353 148.912 247.382 149.005C247.388 149.026 247.393 149.046 247.401 149.067C247.438 149.18 247.475 149.295 247.513 149.408H247.512L236.319 149.272L229.083 149.184L141.065 148.118L129.098 147.973C129.292 147.642 129.482 147.306 129.664 146.968C129.776 146.762 129.887 146.553 129.992 146.344C130.15 146.034 130.303 145.723 130.451 145.408C130.532 145.236 130.613 145.064 130.689 144.89C131.114 143.949 131.491 142.986 131.818 142.005C131.878 141.831 131.933 141.657 131.988 141.48C132.209 140.775 132.406 140.063 132.576 139.341C132.629 139.114 132.679 138.887 132.727 138.659C132.817 138.233 132.896 137.806 132.967 137.376C133.011 137.101 133.052 136.826 133.088 136.553C133.099 136.475 133.109 136.399 133.118 136.322C133.132 136.211 133.147 136.1 133.157 135.99C133.184 135.765 133.206 135.54 133.226 135.318C133.237 135.189 133.248 135.061 133.257 134.934C133.28 134.627 133.298 134.321 133.31 134.017C133.322 133.732 133.33 133.449 133.331 133.166C133.335 132.805 133.331 132.446 133.318 132.089C132.969 121.758 126.45 113.529 116.754 111C116.753 110.999 116.753 110.999 116.751 111C116.438 110.919 116.121 110.844 115.803 110.774H115.802C115.547 110.719 115.289 110.667 115.03 110.619C114.943 110.603 114.855 110.587 114.77 110.573C114.587 110.541 114.405 110.512 114.222 110.485C114.124 110.47 114.025 110.456 113.925 110.443C113.632 110.402 113.335 110.366 113.036 110.336C112.936 110.326 112.836 110.316 112.735 110.307C111.945 110.236 111.14 110.199 110.319 110.199C104.708 110.199 99.2106 111.912 94.3999 114.843C86.3752 119.729 80.2507 128.003 78.6818 137.389C78.0927 140.911 78.1992 144.278 78.9001 147.367C61.3291 147.357 38.6212 145.056 37.4916 137.432C36.0621 130.978 39.9968 121.958 57.6941 112.136C78.6384 100.498 120.916 95.1098 120.916 95.1098H120.92C124.866 94.3589 159.626 91.2974 162.623 90.695C163.664 90.4873 161.016 93.1319 156.992 96.5301C145.046 106.842 126.131 123.521 176.944 118.196C190.21 115.969 208.365 109.417 215.142 106.134C228.363 99.7272 239.964 93.629 242.463 94.8692C244.799 96.0278 301.685 106.05 317.812 115.69C330.959 123.538 337.623 133.7 337.974 142.305C338.091 144.98 336.856 148.323 333.757 148.642Z" fill="#8A0EE2"/>
<path d="M228.784 99.3272C234.746 87.8477 240.386 77.4768 241.246 77.7596C241.261 77.7648 241.27 77.7701 241.276 77.7753C242.176 78.4053 248.72 87.2125 253.52 93.7393" stroke="#0D0D0D" stroke-width="2" stroke-miterlimit="10" stroke-linecap="round"/>
<path d="M77.0024 134.978H-54" stroke="#0D0D0D" stroke-width="1.3151" stroke-miterlimit="10" stroke-linecap="round"/>
<path d="M118.105 85.8047H35.9517" stroke="#0D0D0D" stroke-width="0.39453" stroke-miterlimit="10" stroke-linecap="round"/>
<path d="M68.7731 116.347H-20.7944" stroke="#0D0D0D" stroke-width="0.590953" stroke-miterlimit="10" stroke-linecap="round"/>
<path d="M27.4558 124.614H-41.0947" stroke="#0D0D0D" stroke-width="0.92057" stroke-miterlimit="10" stroke-linecap="round"/>
<path d="M121.622 92.5967H-16.0747" stroke="#0D0D0D" stroke-width="1.05208" stroke-miterlimit="10" stroke-linecap="round" stroke-dasharray="3.97 3.97"/>
<path d="M227.375 89.7045C228.22 88.7024 230.594 85.871 231.185 84.982C232.664 82.7608 234.306 83.8694 234.306 83.8694C235.302 84.8965 229.039 93.1527 229.039 93.1527" stroke="#0D0D0D" stroke-width="0.555222" stroke-miterlimit="10" stroke-linecap="round"/>
<path d="M-3.71387 139.541H123.89" stroke="#0D0D0D" stroke-width="1.18359" stroke-miterlimit="10" stroke-linecap="round" stroke-dasharray="6.58 6.58"/>
<path d="M212.072 94.0947C208.878 96.2936 205.578 98.5911 202.918 100.449" stroke="#0D0D0D" stroke-width="0.52604" stroke-miterlimit="10" stroke-linecap="round"/>
<path d="M230.257 85.2266C230.257 85.2266 225.482 85.6448 223.571 86.3405C222.868 86.5969 219.102 89.1008 214.625 92.1611" stroke="#0D0D0D" stroke-width="0.65755" stroke-miterlimit="10" stroke-linecap="round"/>
<path d="M182.838 83.0244L173.306 91.5463" stroke="#0D0D0D" stroke-width="0.78906" stroke-miterlimit="10" stroke-linecap="round"/>
<path d="M204.553 74.5299C206.026 74.7285 208.267 74.5378 211.659 73.3858C211.659 73.3858 208.694 72.7045 204.706 72.7769" stroke="#0D0D0D" stroke-width="0.52604" stroke-miterlimit="10" stroke-linecap="round" stroke-linejoin="round"/>
<path d="M210.951 73.0908C210.865 73.6261 210.417 74.0587 209.95 74.0587C209.482 74.0587 209.171 73.6248 209.257 73.0908" fill="#0D0D0D"/>
<path d="M213.003 72.8383C212.851 72.8344 212.697 72.8304 212.539 72.8291" stroke="#0D0D0D" stroke-width="0.379538" stroke-miterlimit="10" stroke-linecap="round" stroke-linejoin="round"/>
<path d="M213.421 74.4946C214.59 74.342 216.014 74.0133 217.75 73.4228C217.75 73.4228 215.584 72.9243 212.482 72.8389" stroke="#0D0D0D" stroke-width="0.379538" stroke-miterlimit="10" stroke-linecap="round" stroke-linejoin="round"/>
<path d="M217.196 73.1357C217.113 73.6539 216.733 74.0747 216.347 74.0747C215.96 74.0747 215.713 73.6539 215.796 73.1357" fill="#0D0D0D"/>
<path d="M212.778 72.9619L217.939 81.8099L212.261 79.7847C212.261 79.7847 209.756 86.3417 207.05 87.0072C205.879 87.2952 200.195 85.3988 197.441 84.7334" stroke="#0D0D0D" stroke-width="0.886429" stroke-miterlimit="10" stroke-linecap="round" stroke-linejoin="round"/>
<path d="M206.921 80.0352C206.921 80.0352 210.289 82.28 211.256 81.9802" stroke="#0D0D0D" stroke-width="0.78906" stroke-miterlimit="10" stroke-linecap="round" stroke-linejoin="round"/>
<path d="M197.208 73.6973L204.058 73.809" stroke="#0D0D0D" stroke-width="0.92057" stroke-miterlimit="10" stroke-linecap="round" stroke-linejoin="round"/>
<path d="M204.718 72.7276C205.467 71.2205 207.183 70.125 209.005 70.125C211.242 70.125 212.794 71.7781 212.469 73.8165C212.145 75.8549 210.067 77.508 207.829 77.508C205.591 77.508 204.039 75.8549 204.365 73.8165C204.424 73.4377 204.545 73.0721 204.718 72.7276Z" stroke="#0D0D0D" stroke-width="0.52604" stroke-miterlimit="10" stroke-linecap="round" stroke-linejoin="round"/>
<path d="M213.984 70.5528C214.538 70.132 215.172 69.8848 215.812 69.8848C217.469 69.8848 218.55 71.5378 218.227 73.5763C217.948 75.3385 216.711 76.8114 215.31 77.1783" stroke="#0D0D0D" stroke-width="0.394044" stroke-miterlimit="10" stroke-linecap="round" stroke-linejoin="round"/>
<path d="M196.451 58.4216C200.325 57.4195 203.955 56.8487 206.034 57.426C213.025 59.3698 216.889 66.3806 216.889 66.3806" stroke="#0D0D0D" stroke-width="0.92057" stroke-miterlimit="10" stroke-linecap="round" stroke-linejoin="round"/>
<path d="M193.284 77.0888C191.498 82.9475 198.732 87.4531 198.732 87.4531C198.732 87.4531 190.232 91.4746 185.6 71.6179C185.6 71.6179 183.87 68.4959 180.692 63.8417C180.692 63.8417 184.531 62.2281 189.322 60.5908" stroke="#0D0D0D" stroke-width="0.535404" stroke-miterlimit="10" stroke-linecap="round" stroke-linejoin="round"/>
<path d="M199.302 85.0566C199.302 85.0566 198.596 85.7102 197.773 86.5098" stroke="#0D0D0D" stroke-width="0.471976" stroke-miterlimit="10" stroke-linecap="round" stroke-linejoin="round"/>
<path d="M199.404 87.9756C199.899 88.3307 200.327 88.6673 200.516 88.8856C201.099 89.5642 203.489 98.0532 203.489 98.0532" stroke="#0D0D0D" stroke-width="0.52604" stroke-miterlimit="10" stroke-linecap="round" stroke-linejoin="round"/>
<path d="M212.664 103.578L214.382 106.072C214.603 106.281 214.501 106.682 214.188 106.84L198.109 114.749" stroke="#0D0D0D" stroke-width="0.78906" stroke-miterlimit="10" stroke-linecap="round"/>
<path d="M172.736 95.9492C172.736 95.9492 152.308 112.473 155.711 115.444" stroke="#0D0D0D" stroke-width="0.52604" stroke-miterlimit="10" stroke-linecap="round"/>
<path d="M225.78 98.2197C222.808 102.174 218.672 107.352 215.627 109.873" stroke="#0D0D0D" stroke-width="0.692243" stroke-miterlimit="10" stroke-linecap="round"/>
<path d="M220.104 100.942C219.003 102.307 217.574 104.03 216.068 105.719" stroke="#0D0D0D" stroke-width="0.555222" stroke-miterlimit="10" stroke-linecap="round"/>
<path d="M227.547 101.147L222.786 106.483" stroke="#0D0D0D" stroke-width="0.555222" stroke-miterlimit="10" stroke-linecap="round"/>
<path d="M130.334 87.3716C134.312 86.5904 134.167 84.022 138.083 83.2527C142.011 82.4807 142.123 85.0543 146.051 84.2824C147.261 84.0443 148.088 83.6354 148.768 83.1606" stroke="#0D0D0D" stroke-width="0.26302" stroke-miterlimit="10" stroke-linecap="round"/>
<path d="M166.74 80.001C165.688 80.9202 164.576 81.8132 162.414 82.238C157.826 83.1401 157.694 80.1325 153.108 81.0346" stroke="#0D0D0D" stroke-width="0.52604" stroke-miterlimit="10" stroke-linecap="round"/>
<path d="M186.449 75.0283C181.516 75.9489 181.699 78.9434 178.002 79.6325C173.91 80.3966 173.556 77.7295 169.837 78.1504" stroke="#0D0D0D" stroke-width="0.26302" stroke-miterlimit="10" stroke-linecap="round"/>
<path d="M153.838 77.168C153.277 77.4008 152.621 77.5889 151.812 77.7072C147.556 78.3293 147.596 75.753 143.341 76.375C139.086 76.9971 139.046 79.5747 134.789 80.1967C130.532 80.8188 130.574 78.2425 126.317 78.8645" stroke="#0D0D0D" stroke-width="0.39453" stroke-miterlimit="10" stroke-linecap="round"/>
<path d="M185.837 72.7307C181.586 73.3527 181.618 70.7764 177.367 71.3985C173.115 72.0205 173.08 74.5981 168.826 75.2202C164.573 75.8422 164.609 73.2659 160.356 73.888C158.922 74.0971 157.969 74.5284 157.169 75.0334" stroke="#0D0D0D" stroke-width="0.39453" stroke-miterlimit="10" stroke-linecap="round"/>
<path d="M210.73 72.0917L205.715 71.4814" stroke="#0D0D0D" stroke-width="0.39453" stroke-miterlimit="10" stroke-linecap="round" stroke-linejoin="round"/>
<path d="M216.153 72.2767L212.367 71.8164" stroke="#0D0D0D" stroke-width="0.39453" stroke-miterlimit="10" stroke-linecap="round" stroke-linejoin="round"/>
<path d="M90.0414 146.841C72.3914 146.841 49.1339 143.797 48.4895 136.907C47.8464 130.017 50.9842 121.432 68.6723 111.611C89.6074 99.9726 131.88 94.5846 131.88 94.5846H131.884C135.828 93.8337 170.585 90.7721 173.583 90.1698C174.623 89.9607 171.979 92.6067 167.957 96.0049C156.019 106.315 137.117 122.996 187.923 117.671C201.188 115.443 219.338 108.892 226.114 105.609C239.329 99.2019 250.926 93.1038 253.426 94.3439C255.761 95.5025 312.652 105.525 328.786 115.165C341.938 123.013 348.607 133.175 348.966 141.78C349.078 144.453 347.846 147.796 344.747 148.116C338.39 148.771 321.082 149.202 306.866 149.469" stroke="#0D0D0D" stroke-width="2.5" stroke-miterlimit="10" stroke-linecap="round"/>
<path d="M133.447 136.028C133.459 135.951 133.468 135.874 133.478 135.798C133.492 135.686 133.507 135.576 133.517 135.465C133.543 135.24 133.566 135.015 133.585 134.793C133.597 134.664 133.608 134.537 133.617 134.409C133.639 134.103 133.658 133.796 133.67 133.493C133.681 133.207 133.689 132.924 133.691 132.642C133.695 132.28 133.691 131.921 133.677 131.565C133.329 121.233 126.81 113.005 117.114 110.476C117.112 110.474 117.112 110.474 117.111 110.476C116.798 110.394 116.481 110.319 116.163 110.25H116.162C115.907 110.194 115.649 110.143 115.39 110.094C115.303 110.079 115.215 110.063 115.129 110.048C114.946 110.017 114.765 109.988 114.582 109.96C114.484 109.946 114.385 109.931 114.285 109.918C113.992 109.877 113.695 109.842 113.396 109.812C113.296 109.801 113.196 109.792 113.095 109.783C112.304 109.712 111.5 109.675 110.679 109.675C95.7171 109.675 81.5521 121.847 79.0429 136.865C78.4538 140.386 78.5603 143.753 79.2612 146.842H79.2626C81.5561 156.921 90.195 164.053 101.689 164.053C112.389 164.053 122.661 157.872 128.566 148.886C129.086 148.093 129.574 147.277 130.024 146.444C130.136 146.237 130.246 146.028 130.353 145.819C130.511 145.51 130.665 145.198 130.812 144.884C130.893 144.712 130.974 144.539 131.05 144.366C131.475 143.424 131.852 142.462 132.18 141.481C132.239 141.307 132.294 141.132 132.349 140.956C132.571 140.251 132.767 139.538 132.937 138.816C132.99 138.59 133.04 138.362 133.088 138.135C133.178 137.709 133.257 137.281 133.328 136.851C133.37 136.576 133.412 136.302 133.447 136.028Z" stroke="#0D0D0D" stroke-width="0.78906" stroke-miterlimit="10" stroke-linecap="round"/>
<path d="M125.75 136.028C125.762 135.951 125.771 135.874 125.78 135.798C125.794 135.686 125.809 135.576 125.821 135.465C125.847 135.24 125.869 135.015 125.889 134.793C125.901 134.664 125.912 134.537 125.921 134.409C125.943 134.103 125.963 133.796 125.973 133.493C125.985 133.207 125.993 132.924 125.994 132.642C125.998 132.28 125.994 131.921 125.983 131.565C125.639 121.233 119.124 113.005 109.429 110.476C109.428 110.474 109.428 110.474 109.427 110.476C109.114 110.394 108.797 110.319 108.479 110.25H108.477C108.222 110.194 107.964 110.143 107.705 110.094C107.618 110.079 107.53 110.063 107.445 110.048C107.262 110.017 107.081 109.988 106.898 109.96C106.799 109.946 106.701 109.931 106.601 109.918C106.307 109.877 106.01 109.842 105.712 109.812C105.612 109.801 105.512 109.792 105.41 109.783C104.62 109.712 103.815 109.675 102.995 109.675C88.0327 109.675 73.8625 121.847 71.3454 136.865C70.7549 140.386 70.8588 143.753 71.5597 146.842H71.5611C73.8493 156.921 82.4843 164.053 93.9783 164.053C104.678 164.053 114.953 157.872 120.863 148.886C121.385 148.093 121.872 147.277 122.323 146.444C122.434 146.237 122.545 146.028 122.651 145.819C122.809 145.51 122.963 145.198 123.11 144.884C123.192 144.712 123.272 144.539 123.348 144.366C123.773 143.424 124.152 142.462 124.479 141.481C124.539 141.307 124.594 141.132 124.649 140.956C124.871 140.251 125.069 139.538 125.238 138.816C125.291 138.59 125.342 138.362 125.389 138.135C125.479 137.709 125.558 137.281 125.629 136.851C125.674 136.576 125.714 136.302 125.75 136.028Z" stroke="#0D0D0D" stroke-width="0.39453" stroke-miterlimit="10" stroke-linecap="round" stroke-linejoin="round"/>
<path d="M170.167 108.687C191.046 108.649 204.432 101.434 207.257 99.9873" stroke="#0D0D0D" stroke-width="0.92057" stroke-miterlimit="10" stroke-linecap="round"/>
<path d="M293.644 136.028C293.655 135.951 293.664 135.874 293.672 135.798C293.685 135.686 293.698 135.576 293.709 135.465C293.733 135.24 293.752 135.015 293.769 134.793C293.78 134.664 293.789 134.537 293.797 134.409C293.817 134.103 293.831 133.796 293.84 133.493C293.848 133.207 293.854 132.924 293.852 132.642C293.852 132.28 293.844 131.921 293.829 131.565C293.371 121.233 286.764 113.005 277.041 110.476C277.04 110.474 277.04 110.474 277.039 110.476C276.724 110.394 276.407 110.319 276.088 110.25H276.087C275.83 110.194 275.572 110.143 275.312 110.094C275.225 110.079 275.137 110.063 275.05 110.048C274.867 110.017 274.685 109.988 274.502 109.96C274.403 109.946 274.305 109.931 274.205 109.918C273.911 109.877 273.614 109.842 273.314 109.812C273.214 109.801 273.114 109.792 273.013 109.783C272.223 109.712 271.417 109.675 270.596 109.675C255.634 109.675 241.599 121.847 239.249 136.865C238.698 140.386 238.84 143.753 239.574 146.842H239.575C241.975 156.921 250.689 164.053 262.183 164.053C272.883 164.053 283.089 157.872 288.9 148.886C289.412 148.093 289.891 147.277 290.332 146.444C290.441 146.237 290.549 146.028 290.653 145.819C290.808 145.51 290.958 145.198 291.102 144.884C291.183 144.712 291.26 144.539 291.335 144.366C291.749 143.424 292.118 142.462 292.435 141.481C292.491 141.307 292.545 141.132 292.599 140.956C292.813 140.251 293.003 139.538 293.164 138.816C293.214 138.59 293.263 138.362 293.308 138.135C293.393 137.709 293.467 137.281 293.533 136.851C293.573 136.576 293.612 136.302 293.644 136.028Z" stroke="#0D0D0D" stroke-width="0.39453" stroke-miterlimit="10" stroke-linecap="round" stroke-linejoin="round"/>
<path d="M300.845 136.028C300.855 135.951 300.864 135.874 300.872 135.798C300.886 135.686 300.899 135.576 300.909 135.465C300.933 135.24 300.953 135.015 300.97 134.793C300.98 134.664 300.989 134.537 300.997 134.409C301.017 134.103 301.032 133.796 301.039 133.493C301.047 133.207 301.053 132.924 301.051 132.642C301.051 132.28 301.043 131.921 301.026 131.565C300.563 121.233 293.952 113.005 284.228 110.476C284.227 110.474 284.227 110.474 284.226 110.476C283.912 110.394 283.595 110.319 283.275 110.25H283.274C283.017 110.194 282.76 110.143 282.499 110.094C282.412 110.079 282.324 110.063 282.237 110.048C282.055 110.017 281.872 109.988 281.689 109.96C281.59 109.946 281.492 109.931 281.392 109.918C281.099 109.877 280.801 109.842 280.501 109.812C280.402 109.801 280.302 109.792 280.2 109.783C279.41 109.712 278.604 109.675 277.783 109.675C262.821 109.675 248.792 121.847 246.448 136.865C245.899 140.386 246.042 143.753 246.778 146.842H246.78C249.185 156.921 257.903 164.053 269.397 164.053C280.096 164.053 290.3 157.872 296.105 148.886C296.618 148.093 297.095 147.277 297.536 146.444C297.645 146.237 297.753 146.028 297.857 145.819C298.012 145.51 298.162 145.198 298.305 144.884C298.386 144.712 298.463 144.539 298.538 144.366C298.952 143.424 299.319 142.462 299.636 141.481C299.693 141.307 299.747 141.132 299.801 140.956C300.015 140.251 300.203 139.538 300.365 138.816C300.415 138.59 300.463 138.362 300.508 138.135C300.592 137.709 300.667 137.281 300.733 136.851C300.775 136.576 300.813 136.302 300.845 136.028Z" stroke="#0D0D0D" stroke-width="0.78906" stroke-miterlimit="10" stroke-linecap="round"/>
<path d="M257.589 136.864C256.859 141.564 257.364 145.987 258.862 149.844C210.89 149.864 157.086 149.145 139.348 148.886" stroke="#0D0D0D" stroke-width="1.57812" stroke-miterlimit="10" stroke-linecap="round"/>
<path d="M291.134 136.865C290.592 140.407 287.282 143.28 283.744 143.28C280.207 143.28 277.78 140.407 278.326 136.865C278.872 133.322 282.179 130.448 285.714 130.448C289.249 130.448 291.676 133.322 291.134 136.865Z" stroke="#0D0D0D" stroke-width="1.18359" stroke-miterlimit="10" stroke-linecap="round" stroke-linejoin="round"/>
<path d="M118.105 85.8047H35.9517" stroke="#0D0D0D" stroke-width="0.65755" stroke-miterlimit="10" stroke-linecap="round"/>
<path d="M79.6046 102.072H4.61621" stroke="#0D0D0D" stroke-width="0.78906" stroke-miterlimit="10" stroke-linecap="round"/>
<path d="M364.003 87.7197H325.591" stroke="#0D0D0D" stroke-width="1.18665" stroke-miterlimit="10" stroke-linecap="round"/>
<path d="M325.591 76.1963H286.884" stroke="#0D0D0D" stroke-width="0.886429" stroke-miterlimit="10" stroke-linecap="round"/>
<path d="M399 65.1191H306.516" stroke="#0D0D0D" stroke-width="0.92057" stroke-miterlimit="10" stroke-linecap="round" stroke-dasharray="3.25 3.25"/>
<path d="M182.838 83.0244L173.306 91.5463" stroke="#0D0D0D" stroke-width="0.78906" stroke-miterlimit="10" stroke-linecap="round"/>
<path d="M213.003 72.8383C212.851 72.8344 212.697 72.8304 212.539 72.8291" stroke="#0D0D0D" stroke-width="0.379538" stroke-miterlimit="10" stroke-linecap="round" stroke-linejoin="round"/>
<path d="M192.383 89.6709C190.168 92.5733 183.656 101.083 180.283 105.49" stroke="#0D0D0D" stroke-width="0.78906" stroke-miterlimit="10" stroke-linecap="round" stroke-linejoin="round"/>
<path d="M172.736 95.9492C172.736 95.9492 152.308 112.473 155.711 115.444" stroke="#0D0D0D" stroke-width="0.52604" stroke-miterlimit="10" stroke-linecap="round"/>
<path d="M227.547 101.147L222.786 106.483" stroke="#0D0D0D" stroke-width="0.555222" stroke-miterlimit="10" stroke-linecap="round"/>
<path d="M185.837 72.7307C181.586 73.3527 181.618 70.7764 177.367 71.3985C173.115 72.0205 173.08 74.5981 168.826 75.2202C164.573 75.8422 164.609 73.2659 160.356 73.888C158.922 74.0971 157.969 74.5284 157.169 75.0334" stroke="#0D0D0D" stroke-width="0.39453" stroke-miterlimit="10" stroke-linecap="round"/>
<path d="M193.561 76.8984L193.284 77.0889" stroke="#0D0D0D" stroke-width="0.663574" stroke-miterlimit="10"/>
<path d="M132.812 156.138C135.267 154.035 137.435 151.586 139.208 148.885C139.729 148.092 140.216 147.276 140.665 146.443C140.777 146.236 140.886 146.027 140.993 145.818C141.151 145.509 141.304 145.197 141.452 144.883C141.533 144.711 141.613 144.538 141.69 144.365C142.113 143.423 142.491 142.461 142.818 141.48C142.876 141.306 142.933 141.131 142.988 140.955C143.209 140.25 143.405 139.537 143.574 138.815C143.627 138.589 143.677 138.361 143.724 138.134C143.814 137.708 143.893 137.28 143.962 136.85C144.007 136.576 144.048 136.301 144.083 136.027C144.095 135.95 144.104 135.873 144.112 135.797C144.127 135.685 144.141 135.575 144.152 135.464C144.178 135.239 144.2 135.015 144.219 134.792C144.231 134.663 144.241 134.536 144.25 134.408C144.273 134.102 144.291 133.795 144.303 133.492C144.313 133.206 144.321 132.923 144.324 132.641C144.328 132.279 144.323 131.92 144.311 131.564C143.956 121.232 137.43 113.004 127.733 110.475C127.731 110.473 127.731 110.473 127.73 110.475C127.417 110.393 127.1 110.318 126.782 110.249H126.78C126.525 110.193 126.268 110.142 126.008 110.093C125.922 110.078 125.834 110.062 125.747 110.047C125.564 110.016 125.383 109.987 125.2 109.959C125.101 109.945 125.002 109.93 124.902 109.917C124.609 109.876 124.312 109.841 124.013 109.811C123.914 109.8 123.814 109.791 123.712 109.782C122.922 109.711 122.117 109.674 121.296 109.674C115.686 109.674 110.19 111.386 105.38 114.317M105.377 114.317C97.3564 119.203 91.2385 127.478 89.6762 136.864C89.0897 140.385 89.1988 143.752 89.9024 146.841H89.9037C92.2038 156.92 100.848 164.052 112.342 164.052C115.427 164.052 118.477 163.538 121.398 162.591M122.091 132.326C123.059 133.488 123.511 135.092 123.22 136.864C122.639 140.406 119.299 143.279 115.761 143.279C112.224 143.279 109.829 140.406 110.414 136.864C110.849 134.223 112.818 131.953 115.255 130.969" stroke="#0D0D0D" stroke-width="2" stroke-miterlimit="10" stroke-linecap="round"/>
<path d="M270.093 116.345C275.493 112.19 282.099 109.674 288.901 109.674C289.612 109.674 290.312 109.701 291.001 109.755C291.309 109.779 291.615 109.808 291.919 109.843C292.112 109.866 292.304 109.89 292.495 109.916C292.685 109.942 292.875 109.97 293.063 110C293.064 109.999 293.066 109.999 293.066 110C293.333 110.042 293.598 110.089 293.861 110.141C293.861 110.141 293.862 110.141 293.864 110.141C304.41 112.19 311.685 120.738 312.162 131.603V131.604C312.169 131.777 312.175 131.95 312.179 132.124C312.179 132.125 312.179 132.127 312.179 132.127C312.183 132.309 312.186 132.492 312.187 132.675C312.187 132.767 312.187 132.859 312.186 132.951C312.186 132.952 312.186 132.952 312.186 132.954C312.184 133.148 312.181 133.343 312.174 133.539C312.171 133.638 312.167 133.736 312.163 133.835C312.163 133.836 312.163 133.836 312.163 133.837C312.154 134.044 312.144 134.25 312.131 134.458C312.124 134.562 312.116 134.666 312.108 134.771C312.1 134.886 312.09 135.001 312.079 135.117C312.069 135.231 312.058 135.346 312.046 135.46C312.046 135.464 312.046 135.468 312.044 135.473C312.035 135.576 312.023 135.68 312.011 135.784C312.008 135.804 312.006 135.822 312.004 135.842C311.992 135.948 311.978 136.055 311.965 136.161C311.95 136.278 311.935 136.395 311.918 136.512C311.9 136.629 311.885 136.746 311.866 136.864C311.802 137.29 311.728 137.714 311.644 138.137C311.587 138.418 311.528 138.697 311.464 138.976C311.402 139.254 311.334 139.533 311.261 139.809C311.155 140.224 311.038 140.635 310.913 141.044C310.913 141.044 310.913 141.044 310.913 141.046C310.829 141.318 310.742 141.589 310.651 141.858C309.741 144.556 308.455 147.115 306.864 149.469C306.21 150.437 305.505 151.37 304.753 152.265C303.934 153.24 303.059 154.17 302.136 155.047C301.328 155.815 300.485 156.543 299.608 157.227M296.232 159.548C295.168 160.188 294.069 160.768 292.943 161.282C291.852 161.781 290.733 162.219 289.594 162.59M259.392 130.321C258.551 132.417 257.937 134.608 257.585 136.864C256.856 141.564 257.361 145.986 258.858 149.844C262.153 158.308 270.237 164.052 280.552 164.052C282.095 164.052 283.628 163.923 285.139 163.676M262.07 125.109C261.023 126.761 260.122 128.505 259.394 130.321M266.537 119.491C265.775 120.267 265.047 121.078 264.362 121.924" stroke="#0D0D0D" stroke-width="2" stroke-miterlimit="10" stroke-linecap="round"/>
<path d="M212.019 68.5235L214.343 71.1551C214.361 71.1695 214.391 71.1551 214.394 71.1301C214.394 71.1301 216.652 68.9089 216.776 68.968L226.221 73.5038C226.252 73.5183 226.285 73.471 226.256 73.4525L216.24 66.7679C216.223 66.76 216.196 66.7482 216.179 66.7403C215.526 66.2445 213.921 66.3431 212.761 66.351H212.742C208.723 66.3155 204.608 67.7213 202.32 68.6577C202.315 68.6603 202.31 68.6616 202.304 68.6643C201.392 69.0943 200.47 69.5967 199.554 70.1832L199.549 70.1871L199.544 70.1911L196.557 72.4373C196.552 72.4412 196.547 72.4452 196.542 72.4504C196.368 72.603 196.193 72.7608 196.021 72.9212C195.57 73.3408 195.174 73.7576 194.831 74.1706C194.829 74.1719 194.829 74.1732 194.828 74.1745C194.79 74.2192 194.753 74.2626 194.719 74.3074C194.71 74.3192 194.702 74.3297 194.695 74.3429C194.52 74.6782 194.013 75.6777 193.655 76.4549C193.569 76.6403 193.493 76.8126 193.43 76.9599C193.288 77.3018 193.224 77.5136 193.32 77.4452L205.809 68.6984C205.891 68.6419 205.992 68.6445 206.051 68.705L208.521 71.6614C208.533 71.6719 208.847 71.6614 208.847 71.6614C208.857 71.6719 208.877 71.6693 208.889 71.6561L211.837 68.6051C211.912 68.5367 212.018 68.5235 212.087 68.5761" fill="#F9AC12"/>
<path d="M212.019 68.5235L214.343 71.1551C214.361 71.1695 214.391 71.1551 214.394 71.1301C214.394 71.1301 216.652 68.9089 216.776 68.968L226.221 73.5038C226.252 73.5183 226.285 73.471 226.256 73.4525L216.24 66.7679C216.223 66.76 216.196 66.7482 216.179 66.7403C215.526 66.2445 213.921 66.3431 212.761 66.351H212.742C208.723 66.3155 204.608 67.7213 202.32 68.6577C202.315 68.6603 202.31 68.6616 202.304 68.6643C201.392 69.0943 200.47 69.5967 199.554 70.1832L199.549 70.1871L199.544 70.1911L196.557 72.4373C196.552 72.4412 196.547 72.4452 196.542 72.4504C196.368 72.603 196.193 72.7608 196.021 72.9212C195.57 73.3408 195.174 73.7576 194.831 74.1706C194.829 74.1719 194.829 74.1732 194.828 74.1745C194.79 74.2192 194.753 74.2626 194.719 74.3074C194.71 74.3192 194.702 74.3297 194.695 74.3429C194.52 74.6782 194.013 75.6777 193.655 76.4549C193.569 76.6403 193.493 76.8126 193.43 76.9599C193.288 77.3018 193.224 77.5136 193.32 77.4452L205.809 68.6984C205.891 68.6419 205.992 68.6445 206.051 68.705L208.521 71.6614C208.533 71.6719 208.847 71.6614 208.847 71.6614C208.857 71.6719 208.877 71.6693 208.889 71.6561L211.837 68.6051C211.912 68.5367 212.018 68.5235 212.087 68.5761" stroke="#0D0D0D" stroke-width="0.663574" stroke-miterlimit="10"/>
<path d="M293 1H458" stroke="#0D0D0D" stroke-width="2" stroke-linecap="round" stroke-dasharray="10 10"/>
<path d="M-51 51.5H114" stroke="#0D0D0D" stroke-linecap="round" stroke-dasharray="30 30"/>
<path d="M236 17.5H295" stroke="#0D0D0D" stroke-linecap="round" stroke-dasharray="30 30"/>
<path d="M301 32.25H360" stroke="#0D0D0D" stroke-width="1.5" stroke-linecap="round"/>
<path d="M64 12.25H162" stroke="#0D0D0D" stroke-width="1.5" stroke-linecap="round" stroke-dasharray="20 20"/>
<path d="M4 25.5H102" stroke="#0D0D0D" stroke-linecap="round"/>
<path d="M210 193L16 193" stroke="#0D0D0D" stroke-width="2" stroke-linecap="round" stroke-dasharray="6 6"/>
<path d="M328 170H226" stroke="#0D0D0D" stroke-width="2" stroke-linecap="round"/>
<line x1="112" y1="419" x2="278" y2="419" stroke="#0D0D0D" stroke-width="2" stroke-linecap="round" stroke-dasharray="15 15"/>
<path d="M462 567.457L89 567.457" stroke="black" stroke-width="3" stroke-linecap="round"/>
<path d="M348 617H154" stroke="black" stroke-width="3" stroke-linecap="round" stroke-dasharray="6 6"/>
<path d="M181 597H-13" stroke="#FFCB46" stroke-width="5" stroke-linecap="round"/>
<path d="M422 659H228" stroke="#FFCB46" stroke-width="5" stroke-linecap="round"/>
<path d="M254 541.457L-119 541.457" stroke="black" stroke-width="3" stroke-linecap="round" stroke-dasharray="20 20"/>
</svg>
