<svg width="1920" height="456" viewBox="0 0 1920 456" fill="none" xmlns="http://www.w3.org/2000/svg">
<path d="M1034 92.5C1055.6 88.9 1073.67 113 1080 125.5C1042.8 116.7 1013.83 138.167 1004 150C989.2 169.6 1006.17 187.5 1016.5 194C1009.3 196 1005.17 194.833 1004 194C991.5 196 974 149 973.5 144C973.1 140 962 123 956.5 115C959.3 110.6 997.667 99.8333 1016.5 95L1034 92.5Z" fill="#FF4412"/>
<path d="M984.569 175.098C967.322 178.013 967.224 169.241 949.982 172.156C932.735 175.071 932.828 183.844 915.573 186.759C898.317 189.675 898.232 180.902 880.981 183.817C863.725 186.733 863.805 195.505 846.545 198.42C829.281 201.336 829.21 192.563 811.945 195.478C794.68 198.394 782.663 209.151 777.483 210.081C775.711 210.375 774.438 210.219 773.962 210.135C773.86 210.117 773.824 209.997 773.895 209.908L781.399 199.934C781.47 199.836 781.43 199.711 781.319 199.702L766.565 198.336C766.453 198.327 766.409 198.193 766.489 198.1L781.964 186.617C782.04 186.523 782.009 186.403 781.907 186.381L758.771 177.146C758.669 177.128 758.638 177.003 758.709 176.914L767.838 165.52C767.913 165.427 767.878 165.302 767.771 165.284L751.534 162.565C751.396 162.543 751.392 162.351 751.53 162.28C753.653 161.167 763.369 156.089 764.264 155.755C765.265 155.381 781.568 144.828 798.517 142.732C815.466 140.636 815.118 149.471 832.067 147.374C849.011 145.278 849.354 136.448 866.293 134.351C883.233 132.255 882.899 141.09 899.839 138.993C916.779 136.897 917.108 128.067 934.043 125.97C950.979 123.874 955.162 141.366 972.102 139.269L975.306 149.115L984.569 175.098Z" fill="#F9AC12" stroke="#0D0D0D" stroke-width="2.22539" stroke-miterlimit="10"/>
<path d="M920.984 265.961C991.645 265.832 1036.95 241.415 1046.51 236.519" stroke="#0D0D0D" stroke-width="1.52074" stroke-miterlimit="10" stroke-linecap="round"/>
<path d="M1054.6 235.469C1053.98 234.694 1054.3 233.439 1055.27 232.821C1080.34 216.856 1099.38 201.064 1105.01 200.57C1109.03 200.219 1112.47 201.354 1112.47 201.354C1114.68 202.088 1117.94 203.165 1119.31 206.183C1119.73 207.117 1119.87 208.003 1118.72 216.175C1117.75 223.038 1117.62 223.572 1117.24 224.306C1116.84 225.067 1115.73 226.946 1112.95 228.806C1109.79 230.92 1105.98 231.103 1103.07 229.532C1101.41 228.637 1099.44 228.272 1098.17 230.391C1096.11 233.813 1076.96 244.9 1069.63 249.062C1067.98 249.996 1066.08 249.751 1065.05 248.478L1054.6 235.469Z" stroke="#0D0D0D" stroke-width="2.67047" stroke-miterlimit="10" stroke-linecap="round"/>
<path d="M1474.64 401.185C1453.12 403.401 1394.54 404.861 1346.43 405.765C1347.1 404.768 1347.76 403.762 1348.4 402.747C1348.71 402.235 1349.03 401.723 1349.35 401.212C1349.96 400.188 1350.57 399.155 1351.16 398.114C1351.18 398.083 1351.2 398.052 1351.21 398.02C1351.46 397.571 1351.71 397.121 1351.96 396.667C1352.03 396.534 1352.1 396.405 1352.17 396.271C1352.36 395.928 1352.54 395.586 1352.72 395.239C1352.86 394.976 1353 394.718 1353.13 394.455C1353.21 394.299 1353.29 394.144 1353.36 393.988C1353.54 393.654 1353.71 393.316 1353.87 392.982C1353.89 392.955 1353.9 392.929 1353.91 392.902C1353.94 392.84 1353.97 392.777 1354 392.715C1354.2 392.31 1354.4 391.905 1354.59 391.495C1355.26 390.085 1355.9 388.669 1356.5 387.245C1356.7 386.769 1356.9 386.293 1357.09 385.816C1357.29 385.34 1357.48 384.864 1357.66 384.388C1358.23 382.941 1358.76 381.481 1359.26 380.008C1359.57 379.096 1359.87 378.179 1360.15 377.257C1360.15 377.253 1360.15 377.253 1360.15 377.253C1360.57 375.869 1360.97 374.476 1361.33 373.074C1361.58 372.139 1361.81 371.195 1362.02 370.252C1362.14 369.74 1362.25 369.233 1362.36 368.721C1362.47 368.213 1362.57 367.706 1362.67 367.199C1362.75 366.807 1362.83 366.411 1362.89 366.019C1362.95 365.717 1363 365.409 1363.06 365.107C1363.11 364.8 1363.16 364.493 1363.21 364.186C1363.31 363.607 1363.39 363.033 1363.48 362.454C1363.5 362.276 1363.53 362.094 1363.56 361.916C1363.58 361.715 1363.61 361.515 1363.64 361.315C1363.71 360.758 1363.78 360.202 1363.85 359.646C1363.85 359.579 1363.86 359.517 1363.87 359.45C1363.89 359.272 1363.91 359.098 1363.93 358.925C1363.95 358.747 1363.97 358.573 1363.98 358.399C1363.98 358.395 1363.98 358.391 1363.99 358.386C1363.99 358.377 1363.99 358.368 1363.99 358.359C1363.99 358.319 1364 358.284 1364 358.244C1364.04 357.888 1364.07 357.527 1364.1 357.171C1364.13 356.891 1364.15 356.61 1364.18 356.33C1364.2 355.969 1364.23 355.613 1364.26 355.253C1364.29 354.754 1364.32 354.26 1364.34 353.762C1364.47 351.274 1364.5 348.795 1364.42 346.333C1364.3 342.719 1363.97 339.132 1363.4 335.607C1362.89 332.385 1362.19 329.207 1361.3 326.091C1361.16 325.57 1361 325.054 1360.85 324.538C1360.69 324.044 1360.53 323.55 1360.37 323.06C1360.36 323.025 1360.35 322.989 1360.34 322.949C1360.19 322.499 1360.04 322.054 1359.88 321.609C1359.85 321.525 1359.82 321.44 1359.79 321.356C1359.69 321.066 1359.59 320.781 1359.48 320.497C1359.35 320.141 1359.22 319.785 1359.08 319.433C1359.07 319.42 1359.07 319.406 1359.06 319.393C1358.87 318.899 1358.68 318.409 1358.48 317.924C1358.27 317.43 1358.07 316.94 1357.86 316.451C1357.65 315.961 1357.43 315.476 1357.2 314.995C1356.98 314.515 1356.75 314.034 1356.52 313.558C1356.29 313.082 1356.06 312.605 1355.81 312.138C1355.57 311.666 1355.33 311.199 1355.08 310.736C1354.83 310.273 1354.57 309.81 1354.31 309.352C1354.05 308.893 1353.79 308.439 1353.52 307.99C1353.52 307.981 1353.52 307.972 1353.51 307.963C1353.24 307.518 1352.98 307.078 1352.7 306.641C1352.46 306.25 1352.21 305.858 1351.95 305.466C1351.85 305.302 1351.74 305.141 1351.63 304.977C1351.45 304.701 1351.26 304.425 1351.09 304.153C1350.89 303.864 1350.69 303.575 1350.48 303.285C1350.45 303.25 1350.43 303.21 1350.4 303.174C1350.23 302.929 1350.06 302.685 1349.88 302.444C1349.73 302.235 1349.58 302.026 1349.43 301.821C1349.29 301.634 1349.15 301.447 1349.01 301.265C1348.98 301.229 1348.96 301.189 1348.93 301.154C1348.5 300.597 1348.07 300.041 1347.64 299.498C1347.45 299.266 1347.26 299.035 1347.08 298.808C1346.86 298.55 1346.65 298.292 1346.43 298.038C1346.24 297.802 1346.04 297.571 1345.84 297.348C1345.8 297.299 1345.76 297.25 1345.72 297.201C1345.68 297.157 1345.64 297.108 1345.6 297.068C1345.4 296.832 1345.19 296.605 1344.99 296.378C1344.93 296.307 1344.87 296.24 1344.8 296.169C1344.62 295.964 1344.44 295.764 1344.25 295.568C1344.24 295.546 1344.21 295.528 1344.19 295.505C1344.14 295.448 1344.08 295.385 1344.03 295.327C1343.86 295.145 1343.69 294.967 1343.52 294.793C1343.51 294.78 1343.51 294.771 1343.5 294.762C1343.25 294.504 1343 294.246 1342.75 293.988C1342.5 293.73 1342.24 293.471 1341.98 293.218L1341.91 293.151C1341.56 292.804 1341.21 292.461 1340.85 292.123C1335.55 287.094 1329.49 282.839 1322.78 279.492C1321.82 279.015 1320.85 278.557 1319.86 278.116C1319.37 277.898 1318.88 277.68 1318.37 277.471C1317.87 277.262 1317.37 277.057 1316.86 276.857C1316.45 276.688 1316.03 276.527 1315.6 276.372C1315.35 276.269 1315.09 276.176 1314.83 276.087C1314.73 276.047 1314.62 276.007 1314.52 275.971C1314.05 275.802 1313.58 275.637 1313.11 275.477C1313.11 275.477 1313.1 275.477 1313.1 275.473C1312.61 275.308 1312.12 275.148 1311.63 274.992C1311.59 274.983 1311.55 274.97 1311.51 274.952C1311.02 274.8 1310.52 274.649 1310.03 274.502C1309.13 274.24 1308.22 273.99 1307.31 273.755C1307.3 273.75 1307.29 273.75 1307.28 273.746C1304.53 273.042 1301.74 272.477 1298.91 272.054C1298.89 272.05 1298.86 272.045 1298.84 272.041C1298.32 271.965 1297.81 271.894 1297.29 271.827C1296.84 271.765 1296.39 271.712 1295.93 271.658C1295.39 271.596 1294.85 271.542 1294.3 271.485C1293.85 271.445 1293.4 271.404 1292.95 271.373C1292.89 271.364 1292.83 271.36 1292.77 271.356C1292.22 271.311 1291.66 271.275 1291.1 271.244C1291.08 271.24 1291.07 271.24 1291.05 271.24C1290.19 271.191 1289.33 271.151 1288.46 271.124C1288.43 271.124 1288.4 271.12 1288.37 271.12C1287.58 271.097 1286.78 271.088 1285.98 271.084C1285.66 271.084 1285.34 271.08 1285.03 271.084C1284.81 271.08 1284.6 271.08 1284.39 271.088C1284.11 271.093 1283.83 271.097 1283.55 271.106C1282.94 271.12 1282.33 271.137 1281.72 271.164C1281.47 271.173 1281.21 271.186 1280.95 271.2C1280.75 271.209 1280.55 271.222 1280.34 271.235C1279.97 271.253 1279.6 271.28 1279.22 271.307C1278.96 271.32 1278.7 271.342 1278.45 271.36C1278.03 271.396 1277.61 271.431 1277.19 271.467C1276.81 271.502 1276.42 271.538 1276.04 271.578C1275.96 271.587 1275.89 271.591 1275.81 271.605C1275.6 271.623 1275.4 271.645 1275.19 271.672C1275.12 271.676 1275.04 271.685 1274.97 271.694C1273.99 271.805 1273.01 271.934 1272.04 272.072C1271.47 272.157 1270.89 272.246 1270.32 272.339C1269.08 272.539 1267.85 272.766 1266.61 273.02C1264.99 273.349 1263.35 273.719 1261.72 274.133C1261.15 274.28 1260.58 274.431 1260.01 274.587C1259.44 274.743 1258.87 274.903 1258.3 275.072C1257.83 275.21 1257.36 275.348 1256.88 275.495C1256.71 275.548 1256.53 275.602 1256.35 275.659C1255.95 275.788 1255.54 275.918 1255.13 276.051C1254.9 276.127 1254.65 276.202 1254.42 276.287C1254.25 276.345 1254.07 276.403 1253.89 276.461V276.465C1253.74 276.514 1253.59 276.567 1253.43 276.621C1252.91 276.799 1252.39 276.986 1251.87 277.173C1251.63 277.262 1251.39 277.351 1251.15 277.44C1250.46 277.693 1249.77 277.961 1249.08 278.236C1248.46 278.481 1247.83 278.739 1247.21 278.998C1246.78 279.176 1246.35 279.362 1245.92 279.545C1245.76 279.616 1245.59 279.687 1245.43 279.759C1237.46 283.257 1229.88 287.721 1222.89 293.004C1222.67 293.164 1222.46 293.325 1222.24 293.489C1222.17 293.543 1222.09 293.601 1222.02 293.658C1220.21 295.051 1218.43 296.507 1216.66 298.034C1212.91 301.291 1209.42 304.736 1206.2 308.333C1199.91 315.343 1194.66 322.927 1190.49 330.831C1190.29 331.196 1190.11 331.561 1189.91 331.931C1189.72 332.305 1189.53 332.674 1189.34 333.048C1189.16 333.413 1188.98 333.782 1188.81 334.152C1188.67 334.428 1188.54 334.699 1188.41 334.971C1188.26 335.291 1188.11 335.616 1187.96 335.936C1187.81 336.252 1187.67 336.564 1187.52 336.88C1187.51 336.898 1187.51 336.92 1187.5 336.938C1187.35 337.249 1187.22 337.565 1187.08 337.877C1186.94 338.202 1186.79 338.527 1186.66 338.852C1186.38 339.501 1186.1 340.156 1185.84 340.806C1184.92 343.089 1184.08 345.385 1183.33 347.695C1183.34 347.7 1183.33 347.704 1183.33 347.709C1183.01 348.701 1182.7 349.698 1182.41 350.695C1182.22 351.358 1182.04 352.026 1181.86 352.689C1181.76 353.023 1181.68 353.357 1181.6 353.686C1181.51 354.02 1181.43 354.354 1181.34 354.688C1181.18 355.355 1181.02 356.023 1180.87 356.69C1180.39 358.809 1179.98 360.945 1179.65 363.1C1179.57 363.598 1179.49 364.092 1179.43 364.586C1179.35 365.085 1179.29 365.579 1179.23 366.073C1179.17 366.562 1179.11 367.056 1179.06 367.546C1179.01 368.022 1178.96 368.498 1178.91 368.97C1178.91 369.015 1178.91 369.059 1178.9 369.104C1178.86 369.562 1178.82 370.025 1178.79 370.483C1178.75 370.897 1178.72 371.307 1178.7 371.721C1178.68 371.908 1178.68 372.09 1178.67 372.273C1178.65 372.491 1178.64 372.709 1178.64 372.927C1178.62 373.181 1178.61 373.43 1178.6 373.679C1178.6 373.826 1178.59 373.977 1178.59 374.129C1178.56 374.614 1178.55 375.103 1178.55 375.588C1178.53 375.904 1178.53 376.22 1178.53 376.536C1178.52 376.973 1178.52 377.409 1178.52 377.849C1178.53 378.722 1178.55 379.594 1178.57 380.458C1178.57 380.484 1178.58 380.515 1178.58 380.547C1178.6 381.018 1178.62 381.486 1178.64 381.953C1178.66 382.425 1178.69 382.888 1178.73 383.355C1178.75 383.747 1178.78 384.138 1178.81 384.526C1178.84 384.784 1178.86 385.042 1178.88 385.296C1178.91 385.616 1178.94 385.932 1178.97 386.252C1179.01 386.64 1179.05 387.022 1179.1 387.405C1179.11 387.485 1179.12 387.565 1179.13 387.646C1179.18 388.055 1179.23 388.465 1179.29 388.87V388.874C1179.35 389.31 1179.41 389.742 1179.48 390.174C1179.84 392.622 1180.32 395.025 1180.9 397.379C1180.96 397.651 1181.03 397.922 1181.11 398.189C1181.18 398.492 1181.26 398.79 1181.34 399.093C1181.34 399.097 1181.35 399.102 1181.35 399.106C1181.44 399.454 1181.54 399.801 1181.64 400.152C1181.65 400.206 1181.66 400.259 1181.68 400.312C1181.79 400.695 1181.9 401.078 1182.02 401.456C1182.12 401.777 1182.21 402.097 1182.31 402.413C1182.33 402.484 1182.35 402.551 1182.38 402.622C1182.5 403.005 1182.63 403.392 1182.76 403.775H1182.75L1144.87 403.317L1120.38 403.019L822.497 399.409L781.995 398.919C782.654 397.798 783.295 396.663 783.914 395.519C784.292 394.82 784.666 394.113 785.022 393.405C785.556 392.359 786.077 391.304 786.575 390.24C786.851 389.657 787.123 389.074 787.381 388.487C788.818 385.3 790.096 382.042 791.204 378.722C791.404 378.134 791.591 377.542 791.778 376.946C792.526 374.56 793.193 372.148 793.768 369.704C793.946 368.939 794.115 368.169 794.279 367.399C794.582 365.957 794.849 364.51 795.089 363.055C795.241 362.125 795.379 361.195 795.499 360.269C795.539 360.006 795.57 359.748 795.601 359.49C795.65 359.112 795.699 358.738 795.735 358.364C795.824 357.603 795.9 356.842 795.966 356.09C796.006 355.653 796.042 355.222 796.073 354.79C796.149 353.753 796.211 352.716 796.251 351.688C796.291 350.722 796.318 349.765 796.322 348.808C796.336 347.584 796.322 346.369 796.278 345.163C795.098 310.198 773.036 282.349 740.22 273.79C740.216 273.786 740.216 273.786 740.211 273.79C739.152 273.514 738.079 273.26 737.002 273.025H736.998C736.134 272.838 735.262 272.664 734.385 272.499C734.091 272.446 733.793 272.393 733.504 272.344C732.885 272.237 732.271 272.139 731.652 272.045C731.319 271.996 730.985 271.947 730.647 271.903C729.654 271.765 728.648 271.645 727.638 271.542C727.3 271.507 726.961 271.476 726.619 271.445C723.944 271.204 721.22 271.08 718.443 271.08C699.451 271.08 680.847 276.874 664.566 286.795C637.407 303.33 616.68 331.334 611.37 363.1C609.376 375.019 609.737 386.413 612.109 396.868C552.642 396.836 475.79 389.048 471.967 363.246C467.129 341.402 480.446 310.874 540.34 277.636C611.223 238.246 754.307 220.011 754.307 220.011H754.32C767.673 217.47 885.316 207.108 895.459 205.07C898.98 204.367 890.02 213.317 876.401 224.818C835.97 259.717 771.954 316.166 943.924 298.145C988.823 290.605 1050.27 268.431 1073.2 257.322C1117.94 235.638 1157.21 215 1165.67 219.197C1173.57 223.118 1366.09 257.037 1420.67 289.662C1465.17 316.224 1487.72 350.615 1488.91 379.737C1489.3 388.789 1485.13 400.103 1474.64 401.185Z" fill="#8A0EE2"/>
<path d="M1119.37 234.285C1139.55 195.434 1158.64 160.335 1161.55 161.292C1161.6 161.31 1161.63 161.328 1161.65 161.345C1164.7 163.477 1186.84 193.284 1203.09 215.374" stroke="#0D0D0D" stroke-width="2.49587" stroke-miterlimit="10" stroke-linecap="round"/>
<path d="M605.686 354.937H162.326" stroke="#0D0D0D" stroke-width="4.45078" stroke-miterlimit="10" stroke-linecap="round"/>
<path d="M744.796 188.518H466.76" stroke="#0D0D0D" stroke-width="1.33523" stroke-miterlimit="10" stroke-linecap="round"/>
<path d="M577.834 291.883H274.704" stroke="#0D0D0D" stroke-width="2" stroke-miterlimit="10" stroke-linecap="round"/>
<path d="M342.499 259.369H198.258" stroke="#0D0D0D" stroke-width="2" stroke-miterlimit="10" stroke-linecap="round"/>
<path d="M438 319.863H206" stroke="#0D0D0D" stroke-width="3.11555" stroke-miterlimit="10" stroke-linecap="round"/>
<path d="M756.693 211.506H290.678" stroke="#0D0D0D" stroke-width="3.56063" stroke-miterlimit="10" stroke-linecap="round" stroke-dasharray="13.43 13.43"/>
<path d="M1114.6 201.718C1117.46 198.327 1125.49 188.744 1127.5 185.736C1132.5 178.218 1138.06 181.97 1138.06 181.97C1141.43 185.446 1120.23 213.388 1120.23 213.388" stroke="#0D0D0D" stroke-width="1.87908" stroke-miterlimit="10" stroke-linecap="round"/>
<path d="M332.511 370.381H764.37" stroke="#0D0D0D" stroke-width="4.0057" stroke-miterlimit="10" stroke-linecap="round" stroke-dasharray="22.25 22.25"/>
<path d="M1062.81 216.575C1052 224.017 1040.83 231.792 1031.83 238.081" stroke="#0D0D0D" stroke-width="1.78031" stroke-miterlimit="10" stroke-linecap="round"/>
<path d="M1124.36 186.564C1124.36 186.564 1108.2 187.979 1101.73 190.334C1099.35 191.201 1086.61 199.676 1071.45 210.033" stroke="#0D0D0D" stroke-width="2.22539" stroke-miterlimit="10" stroke-linecap="round"/>
<path d="M963.872 179.109L931.612 207.95" stroke="#0D0D0D" stroke-width="2.67047" stroke-miterlimit="10" stroke-linecap="round"/>
<path d="M1037.36 150.361C1042.35 151.033 1049.93 150.388 1061.41 146.489C1061.41 146.489 1051.38 144.183 1037.88 144.428" stroke="#0D0D0D" stroke-width="1.78031" stroke-miterlimit="10" stroke-linecap="round" stroke-linejoin="round"/>
<path d="M1059.01 145.492C1058.72 147.303 1057.21 148.768 1055.63 148.768C1054.04 148.768 1052.99 147.299 1053.28 145.492" fill="#0D0D0D"/>
<path d="M1065.96 144.637C1065.45 144.624 1064.93 144.611 1064.39 144.606" stroke="#0D0D0D" stroke-width="1.2845" stroke-miterlimit="10" stroke-linecap="round" stroke-linejoin="round"/>
<path d="M1067.38 150.241C1071.34 149.724 1076.16 148.612 1082.03 146.613C1082.03 146.613 1074.7 144.927 1064.2 144.637" stroke="#0D0D0D" stroke-width="1.2845" stroke-miterlimit="10" stroke-linecap="round" stroke-linejoin="round"/>
<path d="M1080.15 145.643C1079.87 147.397 1078.59 148.821 1077.28 148.821C1075.97 148.821 1075.13 147.397 1075.41 145.643" fill="#0D0D0D"/>
<path d="M1065.2 145.056L1082.66 175.001L1063.45 168.146C1063.45 168.146 1054.97 190.338 1045.81 192.59C1041.85 193.565 1022.61 187.147 1013.29 184.895" stroke="#0D0D0D" stroke-width="3" stroke-miterlimit="10" stroke-linecap="round" stroke-linejoin="round"/>
<path d="M1045.38 168.992C1045.38 168.992 1056.78 176.589 1060.05 175.575" stroke="#0D0D0D" stroke-width="2.67047" stroke-miterlimit="10" stroke-linecap="round" stroke-linejoin="round"/>
<path d="M1012.51 147.543L1035.69 147.922" stroke="#0D0D0D" stroke-width="3.11555" stroke-miterlimit="10" stroke-linecap="round" stroke-linejoin="round"/>
<path d="M1037.92 144.263C1040.46 139.163 1046.26 135.455 1052.43 135.455C1060 135.455 1065.25 141.05 1064.15 147.949C1063.06 154.847 1056.03 160.442 1048.45 160.442C1040.87 160.442 1035.62 154.847 1036.73 147.949C1036.93 146.667 1037.34 145.43 1037.92 144.263Z" stroke="#0D0D0D" stroke-width="1.78031" stroke-miterlimit="10" stroke-linecap="round" stroke-linejoin="round"/>
<path d="M1069.28 136.902C1071.15 135.478 1073.3 134.641 1075.47 134.641C1081.07 134.641 1084.73 140.235 1083.64 147.134C1082.69 153.098 1078.51 158.083 1073.77 159.325" stroke="#0D0D0D" stroke-width="1.33359" stroke-miterlimit="10" stroke-linecap="round" stroke-linejoin="round"/>
<path d="M1009.95 95.8432C1023.06 92.4517 1035.34 90.5201 1042.38 92.474C1066.04 99.0523 1079.12 122.779 1079.12 122.779" stroke="#0D0D0D" stroke-width="3.11555" stroke-miterlimit="10" stroke-linecap="round" stroke-linejoin="round"/>
<path d="M999.229 159.022C993.184 178.85 1017.67 194.099 1017.67 194.099C1017.67 194.099 988.898 207.709 973.223 140.507C973.223 140.507 967.37 129.941 956.612 114.189C956.612 114.189 969.604 108.728 985.818 103.187" stroke="#0D0D0D" stroke-width="1.812" stroke-miterlimit="10" stroke-linecap="round" stroke-linejoin="round"/>
<path d="M957.485 130.008C954.699 125.379 950.24 118.231 944.267 109.476C944.267 109.476 987.288 91.3925 1014.45 87.6494" stroke="#0D0D0D" stroke-width="1.33523" stroke-miterlimit="10" stroke-linecap="round" stroke-linejoin="round"/>
<path d="M1019.6 185.989C1019.6 185.989 1017.21 188.201 1014.42 190.907" stroke="#0D0D0D" stroke-width="1.59734" stroke-miterlimit="10" stroke-linecap="round" stroke-linejoin="round"/>
<path d="M1019.94 195.866C1021.61 197.067 1023.06 198.207 1023.7 198.946C1025.68 201.242 1033.76 229.972 1033.76 229.972" stroke="#0D0D0D" stroke-width="1.78031" stroke-miterlimit="10" stroke-linecap="round" stroke-linejoin="round"/>
<path d="M1064.81 248.67L1070.63 257.109C1071.38 257.816 1071.03 259.174 1069.97 259.708L1015.55 286.475" stroke="#0D0D0D" stroke-width="2.67047" stroke-miterlimit="10" stroke-linecap="round"/>
<path d="M929.682 222.851C929.682 222.851 860.543 278.775 872.062 288.829" stroke="#0D0D0D" stroke-width="1.78031" stroke-miterlimit="10" stroke-linecap="round"/>
<path d="M1109.2 230.537C1099.15 243.921 1085.15 261.444 1074.84 269.976" stroke="#0D0D0D" stroke-width="2.3428" stroke-miterlimit="10" stroke-linecap="round"/>
<path d="M1090 239.75C1086.27 244.37 1081.44 250.201 1076.34 255.916" stroke="#0D0D0D" stroke-width="1.87908" stroke-miterlimit="10" stroke-linecap="round"/>
<path d="M1115.19 240.445L1099.07 258.502" stroke="#0D0D0D" stroke-width="1.87908" stroke-miterlimit="10" stroke-linecap="round"/>
<path d="M786.179 193.823C799.642 191.179 799.153 182.487 812.403 179.883C825.697 177.27 826.076 185.981 839.37 183.368C843.465 182.562 846.264 181.178 848.565 179.571" stroke="#0D0D0D" stroke-width="0.890157" stroke-miterlimit="10" stroke-linecap="round"/>
<path d="M909.39 168.876C905.829 171.987 902.064 175.009 894.747 176.447C879.222 179.5 878.773 169.321 863.253 172.375" stroke="#0D0D0D" stroke-width="1.78031" stroke-miterlimit="10" stroke-linecap="round"/>
<path d="M976.099 152.048C959.404 155.163 960.023 165.298 947.512 167.63C933.661 170.216 932.464 161.19 919.877 162.614" stroke="#0D0D0D" stroke-width="0.890157" stroke-miterlimit="10" stroke-linecap="round"/>
<path d="M865.724 159.289C863.823 160.077 861.602 160.714 858.865 161.114C844.462 163.219 844.596 154.5 830.197 156.606C815.795 158.711 815.661 167.434 801.254 169.54C786.847 171.645 786.989 162.926 772.582 165.031" stroke="#0D0D0D" stroke-width="1.33523" stroke-miterlimit="10" stroke-linecap="round"/>
<path d="M974.025 144.272C959.635 146.377 959.746 137.658 945.357 139.763C930.968 141.869 930.848 150.592 916.454 152.697C902.06 154.803 902.18 146.084 887.786 148.189C882.935 148.897 879.708 150.356 877.002 152.065" stroke="#0D0D0D" stroke-width="1.33523" stroke-miterlimit="10" stroke-linecap="round"/>
<path d="M1058.27 142.109L1041.3 140.044" stroke="#0D0D0D" stroke-width="1.33523" stroke-miterlimit="10" stroke-linecap="round" stroke-linejoin="round"/>
<path d="M1076.62 142.737L1063.8 141.179" stroke="#0D0D0D" stroke-width="1.33523" stroke-miterlimit="10" stroke-linecap="round" stroke-linejoin="round"/>
<path d="M649.82 395.092C590.086 395.092 511.374 384.788 509.193 361.47C507.017 338.153 517.636 309.098 577.499 275.86C648.351 236.47 791.417 218.235 791.417 218.235H791.431C804.778 215.694 922.408 205.333 932.556 203.294C936.077 202.586 927.126 211.541 913.516 223.042C873.111 257.936 809.14 314.39 981.087 296.369C1025.98 288.829 1087.41 266.655 1110.34 255.546C1155.06 233.862 1194.31 213.224 1202.77 217.421C1210.68 221.342 1403.22 255.261 1457.82 287.886C1502.33 314.448 1524.9 348.839 1526.12 377.961C1526.5 387.009 1522.32 398.323 1511.84 399.405C1490.32 401.621 1431.75 403.081 1383.63 403.984" stroke="#0D0D0D" stroke-width="6" stroke-miterlimit="10" stroke-linecap="round"/>
<path d="M796.718 358.493C796.758 358.23 796.789 357.972 796.82 357.714C796.869 357.336 796.918 356.962 796.954 356.588C797.043 355.827 797.119 355.066 797.185 354.314C797.225 353.877 797.261 353.446 797.292 353.014C797.368 351.977 797.43 350.94 797.47 349.912C797.51 348.946 797.537 347.989 797.541 347.032C797.555 345.808 797.541 344.593 797.497 343.387C796.317 308.422 774.255 280.573 741.439 272.014C741.435 272.01 741.435 272.01 741.43 272.014C740.371 271.738 739.299 271.485 738.221 271.249H738.217C737.354 271.062 736.481 270.888 735.604 270.724C735.311 270.67 735.012 270.617 734.723 270.568C734.104 270.461 733.49 270.363 732.872 270.27C732.538 270.221 732.204 270.172 731.866 270.127C730.873 269.989 729.867 269.869 728.857 269.767C728.519 269.731 728.18 269.7 727.838 269.669C725.163 269.428 722.439 269.304 719.662 269.304C669.025 269.304 621.086 310.5 612.594 361.324C610.6 373.243 610.96 384.637 613.332 395.092H613.337C621.099 429.203 650.336 453.339 689.236 453.339C725.448 453.339 760.213 432.42 780.197 402.008C781.959 399.324 783.61 396.565 785.133 393.743C785.511 393.044 785.885 392.337 786.245 391.629C786.779 390.583 787.3 389.528 787.799 388.465C788.075 387.881 788.346 387.298 788.604 386.711C790.042 383.524 791.319 380.266 792.427 376.946C792.628 376.358 792.815 375.766 793.002 375.17C793.754 372.784 794.417 370.372 794.991 367.929C795.169 367.163 795.338 366.393 795.503 365.623C795.806 364.181 796.073 362.735 796.313 361.279C796.455 360.349 796.598 359.419 796.718 358.493Z" stroke="#0D0D0D" stroke-width="2.67047" stroke-miterlimit="10" stroke-linecap="round"/>
<path d="M770.669 358.493C770.709 358.23 770.74 357.972 770.771 357.714C770.82 357.336 770.869 356.962 770.909 356.588C770.998 355.827 771.074 355.066 771.14 354.314C771.181 353.877 771.216 353.446 771.247 353.014C771.323 351.977 771.39 350.94 771.425 349.912C771.465 348.946 771.492 347.989 771.497 347.032C771.51 345.808 771.497 344.593 771.456 343.387C770.295 308.422 748.246 280.573 715.434 272.014C715.43 272.01 715.43 272.01 715.426 272.014C714.366 271.738 713.294 271.485 712.217 271.249H712.212C711.349 271.062 710.476 270.888 709.599 270.724C709.306 270.67 709.008 270.617 708.718 270.568C708.1 270.461 707.485 270.363 706.867 270.27C706.533 270.221 706.199 270.172 705.861 270.127C704.868 269.989 703.862 269.869 702.852 269.767C702.514 269.731 702.176 269.7 701.833 269.669C699.158 269.428 696.434 269.304 693.657 269.304C643.02 269.304 595.063 310.5 586.544 361.324C584.546 373.243 584.897 384.637 587.27 395.092H587.274C595.019 429.203 624.242 453.339 663.142 453.339C699.354 453.339 734.128 432.42 754.13 402.008C755.897 399.324 757.543 396.565 759.07 393.743C759.448 393.044 759.822 392.337 760.183 391.629C760.717 390.583 761.237 389.528 761.736 388.465C762.012 387.881 762.283 387.298 762.542 386.711C763.979 383.524 765.261 380.266 766.369 376.946C766.57 376.358 766.756 375.766 766.943 375.17C767.696 372.784 768.363 370.372 768.937 367.929C769.115 367.163 769.289 366.393 769.449 365.623C769.752 364.181 770.019 362.735 770.259 361.279C770.411 360.349 770.548 359.419 770.669 358.493Z" stroke="#0D0D0D" stroke-width="1.33523" stroke-miterlimit="10" stroke-linecap="round" stroke-linejoin="round"/>
<path d="M920.984 265.961C991.645 265.832 1036.95 241.415 1046.51 236.519" stroke="#0D0D0D" stroke-width="3.11555" stroke-miterlimit="10" stroke-linecap="round"/>
<path d="M1338.89 358.493C1338.92 358.23 1338.95 357.972 1338.98 357.714C1339.02 357.336 1339.07 356.962 1339.11 356.588C1339.19 355.827 1339.25 355.066 1339.31 354.314C1339.35 353.877 1339.38 353.446 1339.4 353.014C1339.47 351.977 1339.52 350.94 1339.55 349.912C1339.58 348.946 1339.59 347.989 1339.59 347.032C1339.59 345.808 1339.56 344.593 1339.51 343.387C1337.96 308.422 1315.6 280.573 1282.7 272.014C1282.69 272.01 1282.69 272.01 1282.69 272.014C1281.62 271.738 1280.55 271.485 1279.47 271.249H1279.46C1278.6 271.062 1277.72 270.888 1276.84 270.724C1276.55 270.67 1276.25 270.617 1275.96 270.568C1275.34 270.461 1274.72 270.363 1274.1 270.27C1273.77 270.221 1273.43 270.172 1273.1 270.127C1272.1 269.989 1271.1 269.869 1270.08 269.767C1269.74 269.731 1269.41 269.7 1269.06 269.669C1266.39 269.428 1263.66 269.304 1260.88 269.304C1210.25 269.304 1162.75 310.5 1154.79 361.324C1152.93 373.243 1153.41 384.637 1155.89 395.092H1155.9C1164.02 429.203 1193.51 453.339 1232.41 453.339C1268.62 453.339 1303.16 432.42 1322.83 402.008C1324.56 399.324 1326.18 396.565 1327.68 393.743C1328.04 393.044 1328.41 392.337 1328.76 391.629C1329.29 390.583 1329.79 389.528 1330.28 388.465C1330.56 387.881 1330.82 387.298 1331.07 386.711C1332.47 383.524 1333.72 380.266 1334.79 376.946C1334.98 376.358 1335.17 375.766 1335.35 375.17C1336.07 372.784 1336.72 370.372 1337.26 367.929C1337.43 367.163 1337.6 366.393 1337.75 365.623C1338.04 364.181 1338.29 362.735 1338.51 361.279C1338.65 360.349 1338.78 359.419 1338.89 358.493Z" stroke="#0D0D0D" stroke-width="1.33523" stroke-miterlimit="10" stroke-linecap="round" stroke-linejoin="round"/>
<path d="M1363.25 358.493C1363.29 358.23 1363.32 357.972 1363.34 357.714C1363.39 357.336 1363.43 356.962 1363.47 356.588C1363.55 355.827 1363.61 355.066 1363.67 354.314C1363.71 353.877 1363.74 353.446 1363.77 353.014C1363.83 351.977 1363.88 350.94 1363.91 349.912C1363.94 348.946 1363.95 347.989 1363.95 347.032C1363.95 345.808 1363.92 344.593 1363.86 343.387C1362.3 308.422 1339.92 280.573 1307.01 272.014C1307.01 272.01 1307.01 272.01 1307.01 272.014C1305.94 271.738 1304.87 271.485 1303.79 271.249H1303.78C1302.92 271.062 1302.04 270.888 1301.16 270.724C1300.87 270.67 1300.57 270.617 1300.28 270.568C1299.66 270.461 1299.04 270.363 1298.42 270.27C1298.09 270.221 1297.75 270.172 1297.41 270.127C1296.42 269.989 1295.42 269.869 1294.4 269.767C1294.06 269.731 1293.72 269.7 1293.38 269.669C1290.71 269.428 1287.98 269.304 1285.2 269.304C1234.56 269.304 1187.08 310.5 1179.15 361.324C1177.29 373.243 1177.78 384.637 1180.27 395.092H1180.27C1188.41 429.203 1217.92 453.339 1256.82 453.339C1293.03 453.339 1327.56 432.42 1347.21 402.008C1348.95 399.324 1350.56 396.565 1352.05 393.743C1352.42 393.044 1352.79 392.337 1353.14 391.629C1353.66 390.583 1354.17 389.528 1354.66 388.465C1354.93 387.881 1355.19 387.298 1355.44 386.711C1356.85 383.524 1358.09 380.266 1359.16 376.946C1359.35 376.358 1359.53 375.766 1359.72 375.17C1360.44 372.784 1361.08 370.372 1361.63 367.929C1361.79 367.163 1361.96 366.393 1362.11 365.623C1362.4 364.181 1362.65 362.735 1362.87 361.279C1363.01 360.349 1363.14 359.419 1363.25 358.493Z" stroke="#0D0D0D" stroke-width="2.67047" stroke-miterlimit="10" stroke-linecap="round"/>
<path d="M1216.85 361.324C1214.38 377.231 1216.09 392.199 1221.16 405.253C1058.81 405.32 876.717 402.885 816.685 402.008" stroke="#0D0D0D" stroke-width="5.34094" stroke-miterlimit="10" stroke-linecap="round"/>
<path d="M1330.38 361.324C1328.55 373.314 1317.35 383.035 1305.38 383.035C1293.4 383.035 1285.19 373.314 1287.04 361.324C1288.89 349.333 1300.08 339.608 1312.04 339.608C1324.01 339.608 1332.22 349.333 1330.38 361.324Z" stroke="#0D0D0D" stroke-width="4.0057" stroke-miterlimit="10" stroke-linecap="round" stroke-linejoin="round"/>
<path d="M744.796 188.518H466.76" stroke="#0D0D0D" stroke-width="2.22539" stroke-miterlimit="10" stroke-linecap="round"/>
<path d="M614.494 243.574H360.706" stroke="#0D0D0D" stroke-width="2.67047" stroke-miterlimit="10" stroke-linecap="round"/>
<path d="M1577 195H1447" stroke="#0D0D0D" stroke-width="4.01608" stroke-miterlimit="10" stroke-linecap="round"/>
<path d="M1447 156H1316" stroke="#0D0D0D" stroke-width="3" stroke-miterlimit="10" stroke-linecap="round"/>
<path d="M1695.44 118.511H1382.44" stroke="#0D0D0D" stroke-width="3.11555" stroke-miterlimit="10" stroke-linecap="round" stroke-dasharray="11.02 11.02"/>
<path d="M963.872 179.109L931.612 207.95" stroke="#0D0D0D" stroke-width="2.67047" stroke-miterlimit="10" stroke-linecap="round"/>
<path d="M1065.96 144.637C1065.45 144.624 1064.93 144.611 1064.39 144.606" stroke="#0D0D0D" stroke-width="1.2845" stroke-miterlimit="10" stroke-linecap="round" stroke-linejoin="round"/>
<path d="M996.176 201.603C988.677 211.426 966.641 240.227 955.225 255.141" stroke="#0D0D0D" stroke-width="2.67047" stroke-miterlimit="10" stroke-linecap="round" stroke-linejoin="round"/>
<path d="M929.682 222.851C929.682 222.851 860.543 278.775 872.062 288.829" stroke="#0D0D0D" stroke-width="1.78031" stroke-miterlimit="10" stroke-linecap="round"/>
<path d="M1115.19 240.445L1099.07 258.502" stroke="#0D0D0D" stroke-width="1.87908" stroke-miterlimit="10" stroke-linecap="round"/>
<path d="M974.025 144.272C959.635 146.377 959.746 137.658 945.357 139.763C930.968 141.869 930.848 150.592 916.454 152.697C902.06 154.803 902.18 146.084 887.786 148.189C882.935 148.897 879.708 150.356 877.002 152.065" stroke="#0D0D0D" stroke-width="1.33523" stroke-miterlimit="10" stroke-linecap="round"/>
<path d="M1000.17 158.377L999.229 159.022" stroke="#0D0D0D" stroke-width="2.24578" stroke-miterlimit="10"/>
<path d="M794.573 426.554C802.883 419.437 810.222 411.15 816.222 402.008C817.985 399.324 819.631 396.565 821.154 393.743C821.532 393.044 821.901 392.336 822.262 391.629C822.796 390.583 823.317 389.528 823.815 388.464C824.091 387.881 824.363 387.298 824.621 386.711C826.054 383.524 827.331 380.266 828.439 376.946C828.635 376.358 828.827 375.766 829.014 375.17C829.761 372.784 830.425 370.372 830.999 367.928C831.177 367.163 831.346 366.393 831.506 365.623C831.809 364.181 832.076 362.734 832.312 361.279C832.463 360.349 832.601 359.418 832.721 358.493C832.761 358.23 832.792 357.972 832.819 357.714C832.868 357.336 832.917 356.962 832.953 356.588C833.042 355.827 833.117 355.066 833.18 354.313C833.22 353.877 833.255 353.446 833.286 353.014C833.362 351.977 833.424 350.94 833.464 349.912C833.5 348.946 833.527 347.989 833.536 347.032C833.549 345.808 833.531 344.593 833.491 343.387C832.289 308.421 810.205 280.573 777.385 272.014C777.38 272.01 777.38 272.01 777.376 272.014C776.316 271.738 775.244 271.484 774.167 271.248H774.162C773.299 271.062 772.426 270.888 771.55 270.723C771.256 270.67 770.958 270.616 770.664 270.567C770.045 270.461 769.431 270.363 768.812 270.269C768.479 270.22 768.145 270.171 767.806 270.127C766.814 269.989 765.808 269.869 764.798 269.766C764.459 269.731 764.121 269.7 763.778 269.668C761.104 269.428 758.38 269.303 755.602 269.303C736.615 269.303 718.016 275.098 701.735 285.019M701.726 285.019C674.58 301.554 653.875 329.558 648.588 361.323C646.603 373.243 646.972 384.637 649.353 395.091H649.358C657.142 429.202 686.397 453.339 725.297 453.339C735.739 453.339 746.06 451.599 755.945 448.394M758.291 345.968C761.566 349.898 763.098 355.328 762.114 361.323C760.147 373.314 748.842 383.034 736.869 383.034C724.896 383.034 716.792 373.314 718.772 361.323C720.245 352.386 726.908 344.704 735.156 341.375" stroke="#0D0D0D" stroke-width="4.89586" stroke-miterlimit="10" stroke-linecap="round"/>
<path d="M1259.19 291.882C1277.46 277.818 1299.82 269.303 1322.84 269.303C1325.25 269.303 1327.61 269.397 1329.95 269.579C1330.99 269.66 1332.02 269.757 1333.05 269.878C1333.71 269.953 1334.36 270.033 1335 270.122C1335.65 270.211 1336.29 270.305 1336.92 270.407C1336.93 270.403 1336.93 270.403 1336.93 270.407C1337.84 270.55 1338.74 270.71 1339.63 270.883C1339.63 270.883 1339.63 270.883 1339.63 270.883C1375.33 277.818 1399.95 306.748 1401.56 343.52V343.525C1401.59 344.108 1401.61 344.695 1401.62 345.283C1401.62 345.287 1401.62 345.292 1401.62 345.292C1401.63 345.91 1401.64 346.529 1401.65 347.148C1401.65 347.459 1401.65 347.771 1401.64 348.082C1401.64 348.087 1401.64 348.087 1401.64 348.091C1401.64 348.75 1401.63 349.409 1401.6 350.072C1401.59 350.406 1401.58 350.739 1401.57 351.073C1401.57 351.078 1401.57 351.078 1401.57 351.082C1401.54 351.781 1401.5 352.48 1401.46 353.183C1401.43 353.535 1401.41 353.886 1401.38 354.242C1401.35 354.629 1401.32 355.021 1401.28 355.413C1401.25 355.8 1401.21 356.187 1401.17 356.574C1401.17 356.588 1401.17 356.601 1401.16 356.619C1401.13 356.966 1401.09 357.318 1401.05 357.669C1401.04 357.736 1401.03 357.798 1401.03 357.865C1400.99 358.226 1400.94 358.586 1400.9 358.947C1400.85 359.343 1400.79 359.739 1400.73 360.135C1400.68 360.531 1400.62 360.927 1400.56 361.323C1400.34 362.765 1400.09 364.203 1399.81 365.632C1399.62 366.584 1399.42 367.528 1399.2 368.471C1398.99 369.415 1398.76 370.358 1398.51 371.293C1398.15 372.695 1397.76 374.088 1397.33 375.472C1397.33 375.472 1397.33 375.472 1397.33 375.477C1397.05 376.398 1396.76 377.315 1396.45 378.227C1393.37 387.356 1389.02 396.017 1383.63 403.984C1381.42 407.26 1379.03 410.42 1376.49 413.447C1373.71 416.749 1370.75 419.896 1367.63 422.864C1364.9 425.464 1362.04 427.925 1359.08 430.239M1347.65 438.095C1344.05 440.262 1340.33 442.225 1336.52 443.966C1332.82 445.652 1329.04 447.134 1325.18 448.39M1222.97 339.181C1220.12 346.275 1218.04 353.69 1216.86 361.323C1214.39 377.231 1216.09 392.198 1221.16 405.253C1232.31 433.898 1259.67 453.339 1294.58 453.339C1299.8 453.339 1304.99 452.903 1310.11 452.066M1232.03 321.542C1228.49 327.132 1225.44 333.034 1222.98 339.181M1247.15 302.529C1244.57 305.155 1242.11 307.901 1239.79 310.762" stroke="#0D0D0D" stroke-width="4.89586" stroke-miterlimit="10" stroke-linecap="round"/>
<path d="M1062.63 130.034L1070.5 138.94C1070.56 138.989 1070.66 138.94 1070.67 138.856C1070.67 138.856 1078.31 131.338 1078.73 131.539L1110.7 146.889C1110.8 146.938 1110.91 146.778 1110.82 146.716L1076.92 124.092C1076.86 124.066 1076.77 124.026 1076.71 123.999C1074.5 122.321 1069.07 122.655 1065.14 122.682H1065.08C1051.48 122.561 1037.55 127.319 1029.81 130.488C1029.79 130.497 1029.77 130.502 1029.75 130.51C1026.66 131.966 1023.54 133.666 1020.45 135.651L1020.43 135.664L1020.41 135.678L1010.3 143.28C1010.29 143.293 1010.27 143.306 1010.25 143.324C1009.66 143.841 1009.07 144.375 1008.49 144.918C1006.96 146.337 1005.62 147.748 1004.46 149.146C1004.46 149.15 1004.46 149.155 1004.45 149.159C1004.32 149.311 1004.2 149.457 1004.08 149.609C1004.05 149.649 1004.02 149.684 1004 149.729C1003.41 150.864 1001.69 154.247 1000.48 156.877C1000.19 157.504 999.933 158.088 999.72 158.586C999.239 159.743 999.021 160.46 999.346 160.228L1041.61 130.626C1041.89 130.435 1042.23 130.444 1042.43 130.648L1050.79 140.654C1050.83 140.689 1051.9 140.654 1051.9 140.654C1051.93 140.689 1052 140.681 1052.04 140.636L1062.02 130.31C1062.27 130.079 1062.63 130.034 1062.86 130.212" fill="#F9AC12"/>
<path d="M1062.63 130.034L1070.5 138.94C1070.56 138.989 1070.66 138.94 1070.67 138.856C1070.67 138.856 1078.31 131.338 1078.73 131.539L1110.7 146.889C1110.8 146.938 1110.91 146.778 1110.82 146.716L1076.92 124.092C1076.86 124.066 1076.77 124.026 1076.71 123.999C1074.5 122.321 1069.07 122.655 1065.14 122.682H1065.08C1051.48 122.561 1037.55 127.319 1029.81 130.488C1029.79 130.497 1029.77 130.502 1029.75 130.51C1026.66 131.966 1023.54 133.666 1020.45 135.651L1020.43 135.664L1020.41 135.678L1010.3 143.28C1010.29 143.293 1010.27 143.306 1010.25 143.324C1009.66 143.841 1009.07 144.375 1008.49 144.918C1006.96 146.337 1005.62 147.748 1004.46 149.146C1004.46 149.15 1004.46 149.155 1004.45 149.159C1004.32 149.311 1004.2 149.457 1004.08 149.609C1004.05 149.649 1004.02 149.684 1004 149.729C1003.41 150.864 1001.69 154.247 1000.48 156.877C1000.19 157.504 999.933 158.088 999.72 158.586C999.239 159.743 999.021 160.46 999.346 160.228L1041.61 130.626C1041.89 130.435 1042.23 130.444 1042.43 130.648L1050.79 140.654C1050.83 140.689 1051.9 140.654 1051.9 140.654C1051.93 140.689 1052 140.681 1052.04 140.636L1062.02 130.31C1062.27 130.079 1062.63 130.034 1062.86 130.212" stroke="#0D0D0D" stroke-width="2.24578" stroke-miterlimit="10"/>
<path d="M1939 269.863L1681 269.863" stroke="#0D0D0D" stroke-width="2" stroke-miterlimit="10" stroke-linecap="round"/>
<path d="M1697 244H1607" stroke="#0D0D0D" stroke-width="2" stroke-miterlimit="10" stroke-linecap="round"/>
<path d="M215.129 292H-88" stroke="#0D0D0D" stroke-width="2" stroke-miterlimit="10" stroke-linecap="round"/>
<path d="M1826 163L1568 163" stroke="#0D0D0D" stroke-width="3" stroke-miterlimit="10" stroke-linecap="round" stroke-dasharray="40 40"/>
<path d="M1995 194L1737 194" stroke="#0D0D0D" stroke-width="5" stroke-miterlimit="10" stroke-linecap="round"/>
<path d="M2023 103L1765 103" stroke="#0D0D0D" stroke-width="3" stroke-miterlimit="10" stroke-linecap="round"/>
<path d="M230 167H-70" stroke="#0D0D0D" stroke-width="6" stroke-miterlimit="10" stroke-linecap="round" stroke-dasharray="70 70"/>
<path d="M180 116H-52" stroke="#0D0D0D" stroke-width="3.11555" stroke-miterlimit="10" stroke-linecap="round"/>
<path d="M31 240L249 240" stroke="#0D0D0D" stroke-width="4.0057" stroke-miterlimit="10" stroke-linecap="round" stroke-dasharray="22.25 22.25"/>
</svg>
