<svg width="1920" height="371" viewBox="0 0 1920 371" fill="none" xmlns="http://www.w3.org/2000/svg">
<path d="M1031.77 6.85055C1053.37 3.25055 1071.44 27.3505 1077.77 39.8505C1040.57 31.0505 1011.61 52.5172 1001.77 64.3506C986.973 83.9506 1003.94 101.851 1014.27 108.351C1007.07 110.351 1002.94 109.184 1001.77 108.351C989.273 110.351 971.773 63.3506 971.273 58.3506C970.873 54.3506 959.773 37.3506 954.273 29.3506C957.073 24.9506 995.44 14.1839 1014.27 9.35059L1031.77 6.85055Z" fill="#FF4412"/>
<path d="M982.342 89.4488C965.095 92.3641 964.997 83.5916 947.755 86.5068C930.508 89.4221 930.602 98.1946 913.346 101.11C896.09 104.025 896.006 95.2526 878.754 98.1679C861.499 101.083 861.579 109.856 844.319 112.771C827.054 115.686 826.983 106.914 809.718 109.829C792.454 112.744 780.437 123.502 775.256 124.432C773.485 124.726 772.212 124.57 771.735 124.485C771.633 124.468 771.597 124.347 771.669 124.258L779.173 114.284C779.244 114.186 779.204 114.062 779.093 114.053L764.338 112.686C764.227 112.677 764.182 112.544 764.263 112.45L779.738 100.967C779.814 100.874 779.782 100.754 779.68 100.732L756.545 91.4962C756.442 91.4783 756.411 91.3537 756.483 91.2647L765.611 79.8707C765.687 79.7772 765.651 79.6526 765.544 79.6348L749.308 76.9154C749.17 76.8931 749.165 76.7017 749.303 76.6305C751.426 75.5178 761.143 70.4395 762.037 70.1057C763.039 69.7318 779.342 59.179 796.29 57.0827C813.239 54.9864 812.892 63.8212 829.84 61.7249C846.785 59.6285 847.127 50.7982 864.067 48.7019C881.007 46.6055 880.673 55.4404 897.612 53.344C914.552 51.2477 914.881 42.4174 931.817 40.321C948.752 38.2247 952.936 55.7163 969.875 53.62L973.08 63.4651L982.342 89.4488Z" fill="#F9AC12" stroke="#0D0D0D" stroke-width="2.22539" stroke-miterlimit="10"/>
<path d="M918.758 180.312C989.418 180.183 1034.72 155.766 1044.28 150.87" stroke="#0D0D0D" stroke-width="1.52074" stroke-miterlimit="10" stroke-linecap="round"/>
<path d="M1052.37 149.819C1051.76 149.045 1052.08 147.79 1053.05 147.171C1078.11 131.206 1097.15 115.415 1102.78 114.921C1106.81 114.569 1110.24 115.704 1110.24 115.704C1112.45 116.439 1115.71 117.516 1117.08 120.533C1117.51 121.468 1117.64 122.354 1116.49 130.525C1115.53 137.388 1115.39 137.922 1115.01 138.657C1114.61 139.418 1113.5 141.296 1110.72 143.157C1107.56 145.271 1103.75 145.453 1100.84 143.882C1099.19 142.987 1097.21 142.623 1095.94 144.741C1093.88 148.164 1074.73 159.251 1067.4 163.412C1065.75 164.347 1063.85 164.102 1062.82 162.829L1052.37 149.819Z" stroke="#0D0D0D" stroke-width="2.67047" stroke-miterlimit="10" stroke-linecap="round"/>
<path d="M1472.41 315.535C1450.9 317.752 1392.31 319.212 1344.2 320.115C1344.87 319.118 1345.53 318.112 1346.17 317.098C1346.49 316.586 1346.81 316.074 1347.12 315.562C1347.74 314.538 1348.34 313.506 1348.93 312.464C1348.95 312.433 1348.97 312.402 1348.98 312.371C1349.24 311.921 1349.49 311.472 1349.73 311.018C1349.81 310.884 1349.87 310.755 1349.95 310.622C1350.13 310.279 1350.31 309.936 1350.49 309.589C1350.63 309.327 1350.77 309.068 1350.9 308.806C1350.98 308.65 1351.07 308.494 1351.14 308.339C1351.31 308.005 1351.48 307.666 1351.65 307.333C1351.66 307.306 1351.67 307.279 1351.69 307.253C1351.72 307.19 1351.75 307.128 1351.77 307.066C1351.97 306.661 1352.17 306.256 1352.37 305.846C1353.03 304.435 1353.67 303.02 1354.28 301.596C1354.48 301.119 1354.68 300.643 1354.87 300.167C1355.06 299.691 1355.25 299.214 1355.44 298.738C1356 297.292 1356.53 295.832 1357.04 294.359C1357.34 293.446 1357.64 292.529 1357.92 291.608C1357.92 291.604 1357.92 291.604 1357.92 291.604C1358.34 290.219 1358.74 288.826 1359.1 287.424C1359.35 286.49 1359.58 285.546 1359.79 284.603C1359.91 284.091 1360.03 283.583 1360.13 283.071C1360.24 282.564 1360.35 282.057 1360.44 281.549C1360.52 281.158 1360.6 280.761 1360.67 280.37C1360.72 280.067 1360.78 279.76 1360.83 279.457C1360.89 279.15 1360.93 278.843 1360.99 278.536C1361.08 277.957 1361.17 277.383 1361.25 276.805C1361.28 276.627 1361.3 276.444 1361.33 276.266C1361.36 276.066 1361.38 275.866 1361.41 275.665C1361.49 275.109 1361.56 274.553 1361.62 273.996C1361.63 273.93 1361.64 273.867 1361.65 273.8C1361.67 273.622 1361.69 273.449 1361.7 273.275C1361.72 273.097 1361.74 272.924 1361.76 272.75C1361.76 272.746 1361.76 272.741 1361.76 272.737C1361.76 272.728 1361.77 272.719 1361.76 272.71C1361.77 272.67 1361.77 272.634 1361.78 272.594C1361.81 272.238 1361.85 271.878 1361.88 271.522C1361.9 271.241 1361.93 270.961 1361.95 270.68C1361.98 270.32 1362.01 269.964 1362.03 269.603C1362.06 269.105 1362.09 268.611 1362.12 268.112C1362.24 265.624 1362.27 263.145 1362.19 260.684C1362.07 257.07 1361.74 253.483 1361.17 249.958C1360.67 246.735 1359.96 243.557 1359.08 240.442C1358.93 239.921 1358.78 239.405 1358.62 238.889C1358.47 238.394 1358.31 237.9 1358.15 237.411C1358.13 237.375 1358.12 237.34 1358.11 237.3C1357.97 236.85 1357.81 236.405 1357.65 235.96C1357.62 235.875 1357.6 235.791 1357.56 235.706C1357.46 235.417 1357.36 235.132 1357.25 234.847C1357.12 234.491 1356.99 234.135 1356.85 233.783C1356.85 233.77 1356.84 233.757 1356.83 233.743C1356.65 233.249 1356.45 232.76 1356.25 232.275C1356.05 231.781 1355.84 231.291 1355.63 230.801C1355.42 230.312 1355.2 229.827 1354.97 229.346C1354.76 228.865 1354.52 228.385 1354.3 227.908C1354.07 227.432 1353.83 226.956 1353.59 226.489C1353.35 226.017 1353.1 225.55 1352.85 225.087C1352.6 224.624 1352.34 224.161 1352.09 223.702C1351.83 223.244 1351.57 222.79 1351.29 222.341C1351.29 222.332 1351.29 222.323 1351.28 222.314C1351.01 221.869 1350.75 221.428 1350.47 220.992C1350.23 220.6 1349.98 220.209 1349.73 219.817C1349.62 219.652 1349.51 219.492 1349.4 219.327C1349.22 219.051 1349.04 218.775 1348.86 218.504C1348.66 218.215 1348.46 217.925 1348.25 217.636C1348.23 217.6 1348.2 217.56 1348.17 217.525C1348 217.28 1347.83 217.035 1347.65 216.795C1347.5 216.586 1347.35 216.376 1347.2 216.172C1347.07 215.985 1346.92 215.798 1346.79 215.615C1346.75 215.58 1346.73 215.54 1346.7 215.504C1346.28 214.948 1345.85 214.391 1345.41 213.848C1345.22 213.617 1345.04 213.386 1344.85 213.159C1344.64 212.9 1344.42 212.642 1344.21 212.389C1344.01 212.153 1343.82 211.921 1343.62 211.699C1343.58 211.65 1343.53 211.601 1343.49 211.552C1343.45 211.507 1343.41 211.458 1343.37 211.418C1343.17 211.182 1342.97 210.955 1342.76 210.728C1342.7 210.657 1342.64 210.59 1342.57 210.519C1342.39 210.314 1342.21 210.114 1342.03 209.918C1342.01 209.896 1341.99 209.878 1341.96 209.856C1341.91 209.798 1341.85 209.736 1341.8 209.678C1341.63 209.496 1341.47 209.318 1341.3 209.144C1341.29 209.131 1341.28 209.122 1341.27 209.113C1341.03 208.855 1340.78 208.597 1340.52 208.338C1340.27 208.08 1340.02 207.822 1339.76 207.568L1339.69 207.502C1339.33 207.154 1338.98 206.812 1338.62 206.473C1333.33 201.444 1327.26 197.189 1320.55 193.842C1319.59 193.366 1318.62 192.907 1317.64 192.467C1317.14 192.249 1316.65 192.031 1316.15 191.821C1315.65 191.612 1315.14 191.408 1314.64 191.207C1314.22 191.038 1313.8 190.878 1313.38 190.722C1313.12 190.62 1312.87 190.526 1312.61 190.437C1312.5 190.397 1312.4 190.357 1312.29 190.322C1311.82 190.152 1311.36 189.988 1310.89 189.828C1310.88 189.828 1310.88 189.828 1310.87 189.823C1310.39 189.658 1309.9 189.498 1309.41 189.342C1309.36 189.333 1309.32 189.32 1309.28 189.302C1308.79 189.151 1308.29 189 1307.81 188.853C1306.91 188.59 1306 188.341 1305.09 188.105C1305.08 188.101 1305.06 188.101 1305.05 188.096C1302.31 187.393 1299.52 186.828 1296.69 186.405C1296.66 186.4 1296.63 186.396 1296.61 186.392C1296.1 186.316 1295.58 186.245 1295.06 186.178C1294.61 186.116 1294.16 186.062 1293.7 186.009C1293.16 185.946 1292.62 185.893 1292.07 185.835C1291.63 185.795 1291.18 185.755 1290.73 185.724C1290.67 185.715 1290.61 185.711 1290.54 185.706C1289.99 185.662 1289.43 185.626 1288.87 185.595C1288.86 185.59 1288.84 185.59 1288.83 185.59C1287.97 185.541 1287.1 185.501 1286.24 185.475C1286.21 185.475 1286.17 185.47 1286.14 185.47C1285.35 185.448 1284.55 185.439 1283.75 185.435C1283.44 185.435 1283.12 185.43 1282.8 185.435C1282.59 185.43 1282.37 185.43 1282.16 185.439C1281.88 185.444 1281.6 185.448 1281.33 185.457C1280.72 185.47 1280.11 185.488 1279.49 185.515C1279.24 185.524 1278.99 185.537 1278.72 185.55C1278.52 185.559 1278.32 185.573 1278.11 185.586C1277.74 185.604 1277.37 185.63 1276.99 185.657C1276.73 185.671 1276.48 185.693 1276.22 185.711C1275.8 185.746 1275.38 185.782 1274.96 185.817C1274.58 185.853 1274.2 185.889 1273.81 185.929C1273.73 185.938 1273.66 185.942 1273.58 185.955C1273.37 185.973 1273.17 185.995 1272.96 186.022C1272.89 186.027 1272.82 186.035 1272.74 186.044C1271.77 186.156 1270.79 186.285 1269.81 186.423C1269.24 186.507 1268.66 186.596 1268.09 186.69C1266.86 186.89 1265.63 187.117 1264.39 187.371C1262.76 187.7 1261.13 188.069 1259.5 188.483C1258.93 188.63 1258.36 188.782 1257.78 188.937C1257.21 189.093 1256.64 189.253 1256.07 189.423C1255.6 189.561 1255.13 189.698 1254.66 189.845C1254.48 189.899 1254.3 189.952 1254.12 190.01C1253.72 190.139 1253.31 190.268 1252.9 190.402C1252.67 190.477 1252.43 190.553 1252.19 190.638C1252.02 190.695 1251.84 190.753 1251.67 190.811V190.816C1251.51 190.865 1251.36 190.918 1251.2 190.971C1250.68 191.149 1250.16 191.336 1249.65 191.523C1249.41 191.612 1249.17 191.701 1248.93 191.79C1248.24 192.044 1247.54 192.311 1246.85 192.587C1246.23 192.832 1245.61 193.09 1244.98 193.348C1244.55 193.526 1244.12 193.713 1243.7 193.896C1243.53 193.967 1243.37 194.038 1243.2 194.109C1235.23 197.608 1227.66 202.072 1220.66 207.355C1220.45 207.515 1220.23 207.675 1220.02 207.84C1219.94 207.893 1219.87 207.951 1219.8 208.009C1217.98 209.402 1216.2 210.857 1214.44 212.384C1210.68 215.642 1207.19 219.087 1203.97 222.683C1197.69 229.693 1192.44 237.277 1188.26 245.182C1188.07 245.547 1187.88 245.912 1187.69 246.281C1187.5 246.655 1187.3 247.025 1187.12 247.398C1186.94 247.763 1186.75 248.133 1186.58 248.502C1186.45 248.778 1186.32 249.05 1186.18 249.321C1186.03 249.642 1185.88 249.967 1185.73 250.287C1185.58 250.603 1185.44 250.915 1185.3 251.231C1185.29 251.248 1185.28 251.271 1185.27 251.288C1185.13 251.6 1184.99 251.916 1184.85 252.228C1184.71 252.552 1184.57 252.877 1184.43 253.202C1184.15 253.852 1183.88 254.506 1183.61 255.156C1182.69 257.439 1181.86 259.736 1181.1 262.046C1181.11 262.05 1181.1 262.055 1181.1 262.059C1180.78 263.052 1180.48 264.049 1180.19 265.046C1180 265.709 1179.81 266.377 1179.63 267.04C1179.54 267.374 1179.45 267.707 1179.37 268.037C1179.28 268.37 1179.2 268.704 1179.12 269.038C1178.95 269.706 1178.79 270.373 1178.64 271.041C1178.17 273.16 1177.76 275.296 1177.42 277.45C1177.34 277.949 1177.27 278.443 1177.2 278.937C1177.13 279.435 1177.06 279.929 1177.01 280.423C1176.94 280.913 1176.88 281.407 1176.83 281.896C1176.78 282.373 1176.73 282.849 1176.69 283.321C1176.68 283.365 1176.68 283.41 1176.67 283.454C1176.63 283.913 1176.59 284.376 1176.56 284.834C1176.52 285.248 1176.5 285.657 1176.48 286.071C1176.46 286.258 1176.45 286.441 1176.44 286.623C1176.43 286.841 1176.42 287.059 1176.41 287.277C1176.39 287.531 1176.38 287.78 1176.38 288.03C1176.37 288.176 1176.36 288.328 1176.36 288.479C1176.34 288.964 1176.32 289.454 1176.32 289.939C1176.31 290.255 1176.3 290.571 1176.3 290.887C1176.3 291.323 1176.29 291.759 1176.3 292.2C1176.3 293.072 1176.32 293.945 1176.35 294.808C1176.35 294.835 1176.35 294.866 1176.35 294.897C1176.37 295.369 1176.39 295.836 1176.42 296.304C1176.44 296.775 1176.47 297.238 1176.5 297.706C1176.52 298.097 1176.55 298.489 1176.59 298.876C1176.61 299.134 1176.63 299.392 1176.66 299.646C1176.69 299.967 1176.72 300.283 1176.75 300.603C1176.78 300.99 1176.83 301.373 1176.88 301.756C1176.89 301.836 1176.89 301.916 1176.91 301.996C1176.96 302.406 1177.01 302.815 1177.06 303.22V303.225C1177.12 303.661 1177.18 304.092 1177.25 304.524C1177.62 306.972 1178.1 309.376 1178.67 311.73C1178.74 312.002 1178.8 312.273 1178.88 312.54C1178.95 312.843 1179.04 313.141 1179.12 313.444C1179.12 313.448 1179.12 313.452 1179.12 313.457C1179.22 313.804 1179.31 314.151 1179.41 314.503C1179.42 314.556 1179.44 314.61 1179.45 314.663C1179.56 315.046 1179.67 315.429 1179.79 315.807C1179.89 316.127 1179.99 316.448 1180.09 316.764C1180.11 316.835 1180.13 316.902 1180.15 316.973C1180.28 317.356 1180.4 317.743 1180.53 318.126H1180.53L1142.65 317.667L1118.16 317.369L820.271 313.76L779.769 313.27C780.427 312.148 781.068 311.013 781.687 309.87C782.065 309.171 782.439 308.463 782.795 307.755C783.329 306.71 783.85 305.655 784.349 304.591C784.625 304.008 784.896 303.425 785.154 302.837C786.592 299.651 787.869 296.393 788.977 293.072C789.178 292.485 789.365 291.893 789.551 291.296C790.299 288.911 790.967 286.499 791.541 284.055C791.719 283.29 791.888 282.52 792.053 281.75C792.355 280.307 792.623 278.861 792.863 277.406C793.014 276.475 793.152 275.545 793.272 274.619C793.312 274.357 793.344 274.099 793.375 273.841C793.424 273.462 793.473 273.088 793.508 272.714C793.597 271.953 793.673 271.192 793.74 270.44C793.78 270.004 793.815 269.572 793.847 269.14C793.922 268.103 793.984 267.066 794.025 266.038C794.065 265.072 794.091 264.116 794.096 263.159C794.109 261.935 794.096 260.72 794.051 259.513C792.872 224.548 770.809 196.7 737.994 188.141C737.989 188.136 737.989 188.136 737.985 188.141C736.925 187.865 735.853 187.611 734.776 187.375H734.771C733.908 187.188 733.035 187.015 732.159 186.85C731.865 186.797 731.567 186.743 731.277 186.694C730.659 186.587 730.045 186.489 729.426 186.396C729.092 186.347 728.758 186.298 728.42 186.254C727.427 186.116 726.422 185.995 725.411 185.893C725.073 185.857 724.735 185.826 724.392 185.795C721.717 185.555 718.993 185.43 716.216 185.43C697.224 185.43 678.62 191.225 662.339 201.146C635.181 217.681 614.453 245.685 609.143 277.45C607.149 289.369 607.51 300.763 609.882 311.218C550.415 311.187 473.564 303.398 469.74 277.597C464.902 255.753 478.219 225.225 538.113 191.986C608.997 152.597 752.08 134.362 752.08 134.362H752.094C765.446 131.82 883.089 121.459 893.232 119.421C896.753 118.717 887.794 127.668 874.174 139.169C833.743 174.067 769.728 230.517 941.697 212.495C986.597 204.956 1048.04 182.782 1070.97 171.673C1115.72 149.989 1154.98 129.35 1163.44 133.547C1171.34 137.469 1363.87 171.388 1418.45 204.012C1462.94 230.574 1485.49 264.966 1486.68 294.087C1487.08 303.14 1482.9 314.454 1472.41 315.535Z" fill="#8A0EE2"/>
<path d="M1117.15 148.636C1137.32 109.785 1156.41 74.6857 1159.32 75.6427C1159.37 75.6605 1159.4 75.6783 1159.42 75.6961C1162.47 77.828 1184.62 107.635 1200.86 129.724" stroke="#0D0D0D" stroke-width="2.49587" stroke-miterlimit="10" stroke-linecap="round"/>
<path d="M603.46 269.287H160.1" stroke="#0D0D0D" stroke-width="4.45078" stroke-miterlimit="10" stroke-linecap="round"/>
<path d="M742.569 102.868H464.533" stroke="#0D0D0D" stroke-width="1.33523" stroke-miterlimit="10" stroke-linecap="round"/>
<path d="M575.607 206.233H272.478" stroke="#0D0D0D" stroke-width="2" stroke-miterlimit="10" stroke-linecap="round"/>
<path d="M340.272 173.72H196.031" stroke="#0D0D0D" stroke-width="2" stroke-miterlimit="10" stroke-linecap="round"/>
<path d="M435.773 234.214H203.773" stroke="#0D0D0D" stroke-width="3.11555" stroke-miterlimit="10" stroke-linecap="round"/>
<path d="M754.466 125.856H288.451" stroke="#0D0D0D" stroke-width="3.56063" stroke-miterlimit="10" stroke-linecap="round" stroke-dasharray="13.43 13.43"/>
<path d="M1112.38 116.069C1115.23 112.677 1123.27 103.095 1125.27 100.086C1130.27 92.5688 1135.83 96.3209 1135.83 96.3209C1139.2 99.7969 1118.01 127.739 1118.01 127.739" stroke="#0D0D0D" stroke-width="1.87908" stroke-miterlimit="10" stroke-linecap="round"/>
<path d="M330.284 284.731H762.144" stroke="#0D0D0D" stroke-width="4.0057" stroke-miterlimit="10" stroke-linecap="round" stroke-dasharray="22.25 22.25"/>
<path d="M1060.58 130.926C1049.78 138.367 1038.6 146.143 1029.6 152.432" stroke="#0D0D0D" stroke-width="1.78031" stroke-miterlimit="10" stroke-linecap="round"/>
<path d="M1122.13 100.914C1122.13 100.914 1105.97 102.33 1099.5 104.684C1097.12 105.552 1084.38 114.026 1069.22 124.383" stroke="#0D0D0D" stroke-width="2.22539" stroke-miterlimit="10" stroke-linecap="round"/>
<path d="M961.645 93.4592L929.386 122.3" stroke="#0D0D0D" stroke-width="2.67047" stroke-miterlimit="10" stroke-linecap="round"/>
<path d="M1035.14 64.7116C1040.12 65.3837 1047.71 64.7383 1059.18 60.8394C1059.18 60.8394 1049.15 58.5339 1035.65 58.7787" stroke="#0D0D0D" stroke-width="1.78031" stroke-miterlimit="10" stroke-linecap="round" stroke-linejoin="round"/>
<path d="M1056.79 59.8425C1056.5 61.654 1054.98 63.1183 1053.4 63.1183C1051.81 63.1183 1050.76 61.6495 1051.05 59.8425" fill="#0D0D0D"/>
<path d="M1063.74 58.9879C1063.22 58.9746 1062.7 58.9612 1062.17 58.9568" stroke="#0D0D0D" stroke-width="1.2845" stroke-miterlimit="10" stroke-linecap="round" stroke-linejoin="round"/>
<path d="M1065.15 64.5913C1069.11 64.075 1073.93 62.9623 1079.8 60.9639C1079.8 60.9639 1072.47 59.2771 1061.97 58.9878" stroke="#0D0D0D" stroke-width="1.2845" stroke-miterlimit="10" stroke-linecap="round" stroke-linejoin="round"/>
<path d="M1077.93 59.9937C1077.65 61.7473 1076.36 63.1715 1075.05 63.1715C1073.74 63.1715 1072.91 61.7473 1073.19 59.9937" fill="#0D0D0D"/>
<path d="M1062.97 59.4062L1080.44 89.3511L1061.22 82.4969C1061.22 82.4969 1052.74 104.689 1043.58 106.941C1039.62 107.915 1020.39 101.497 1011.07 99.2452" stroke="#0D0D0D" stroke-width="3" stroke-miterlimit="10" stroke-linecap="round" stroke-linejoin="round"/>
<path d="M1043.15 83.3425C1043.15 83.3425 1054.55 90.94 1057.82 89.9252" stroke="#0D0D0D" stroke-width="2.67047" stroke-miterlimit="10" stroke-linecap="round" stroke-linejoin="round"/>
<path d="M1010.28 61.894L1033.46 62.2724" stroke="#0D0D0D" stroke-width="3.11555" stroke-miterlimit="10" stroke-linecap="round" stroke-linejoin="round"/>
<path d="M1035.69 58.614C1038.23 53.5134 1044.04 49.8059 1050.2 49.8059C1057.77 49.8059 1063.03 55.4005 1061.93 62.2993C1060.83 69.198 1053.8 74.7926 1046.22 74.7926C1038.65 74.7926 1033.4 69.198 1034.5 62.2993C1034.7 61.0174 1035.11 59.7801 1035.69 58.614Z" stroke="#0D0D0D" stroke-width="1.78031" stroke-miterlimit="10" stroke-linecap="round" stroke-linejoin="round"/>
<path d="M1067.05 51.2524C1068.93 49.8282 1071.07 48.9915 1073.24 48.9915C1078.85 48.9915 1082.51 54.5861 1081.41 61.4848C1080.47 67.4488 1076.28 72.4337 1071.54 73.6755" stroke="#0D0D0D" stroke-width="1.33359" stroke-miterlimit="10" stroke-linecap="round" stroke-linejoin="round"/>
<path d="M1007.72 10.1938C1020.83 6.80232 1033.12 4.87069 1040.15 6.82458C1063.81 13.4028 1076.89 37.13 1076.89 37.13" stroke="#0D0D0D" stroke-width="3.11555" stroke-miterlimit="10" stroke-linecap="round" stroke-linejoin="round"/>
<path d="M997.002 73.3727C990.958 93.2009 1015.44 108.449 1015.44 108.449C1015.44 108.449 986.672 122.06 970.996 54.8574C970.996 54.8574 965.143 44.2913 954.386 28.5399C954.386 28.5399 967.378 23.0788 983.592 17.5376" stroke="#0D0D0D" stroke-width="1.812" stroke-miterlimit="10" stroke-linecap="round" stroke-linejoin="round"/>
<path d="M955.259 44.3581C952.473 39.7293 948.013 32.5813 942.04 23.8266C942.04 23.8266 985.061 5.74311 1012.22 2" stroke="#0D0D0D" stroke-width="1.33523" stroke-miterlimit="10" stroke-linecap="round" stroke-linejoin="round"/>
<path d="M1017.37 100.34C1017.37 100.34 1014.98 102.552 1012.19 105.258" stroke="#0D0D0D" stroke-width="1.59734" stroke-miterlimit="10" stroke-linecap="round" stroke-linejoin="round"/>
<path d="M1017.71 110.216C1019.39 111.418 1020.84 112.557 1021.47 113.296C1023.45 115.593 1031.54 144.323 1031.54 144.323" stroke="#0D0D0D" stroke-width="1.78031" stroke-miterlimit="10" stroke-linecap="round" stroke-linejoin="round"/>
<path d="M1062.58 163.021L1068.4 171.459C1069.15 172.167 1068.8 173.524 1067.74 174.058L1013.33 200.825" stroke="#0D0D0D" stroke-width="2.67047" stroke-miterlimit="10" stroke-linecap="round"/>
<path d="M927.455 137.201C927.455 137.201 858.317 193.125 869.836 203.18" stroke="#0D0D0D" stroke-width="1.78031" stroke-miterlimit="10" stroke-linecap="round"/>
<path d="M1106.98 144.888C1096.92 158.271 1082.92 175.794 1072.62 184.326" stroke="#0D0D0D" stroke-width="2.3428" stroke-miterlimit="10" stroke-linecap="round"/>
<path d="M1087.77 154.101C1084.05 158.721 1079.21 164.552 1074.11 170.266" stroke="#0D0D0D" stroke-width="1.87908" stroke-miterlimit="10" stroke-linecap="round"/>
<path d="M1112.96 154.795L1096.85 172.852" stroke="#0D0D0D" stroke-width="1.87908" stroke-miterlimit="10" stroke-linecap="round"/>
<path d="M783.952 108.173C797.416 105.53 796.926 96.8373 810.176 94.2336C823.471 91.621 823.849 100.331 837.143 97.7186C841.238 96.913 844.038 95.5288 846.339 93.9221" stroke="#0D0D0D" stroke-width="0.890157" stroke-miterlimit="10" stroke-linecap="round"/>
<path d="M907.163 83.2268C903.603 86.3379 899.837 89.36 892.52 90.7976C876.996 93.8508 876.546 83.6719 861.026 86.7251" stroke="#0D0D0D" stroke-width="1.78031" stroke-miterlimit="10" stroke-linecap="round"/>
<path d="M973.873 66.3984C957.178 69.514 957.796 79.6484 945.285 81.9806C931.434 84.5665 930.237 75.5403 917.65 76.9646" stroke="#0D0D0D" stroke-width="0.890157" stroke-miterlimit="10" stroke-linecap="round"/>
<path d="M863.497 73.64C861.597 74.4277 859.376 75.0642 856.638 75.4648C842.236 77.57 842.369 68.8509 827.971 70.9561C813.568 73.0613 813.435 81.7849 799.027 83.8901C784.62 85.9953 784.763 77.2762 770.355 79.3815" stroke="#0D0D0D" stroke-width="1.33523" stroke-miterlimit="10" stroke-linecap="round"/>
<path d="M971.798 58.6227C957.409 60.7279 957.52 52.0089 943.131 54.1141C928.741 56.2193 928.621 64.9428 914.227 67.0481C899.833 69.1533 899.953 60.4342 885.56 62.5394C880.708 63.2471 877.481 64.7069 874.775 66.4161" stroke="#0D0D0D" stroke-width="1.33523" stroke-miterlimit="10" stroke-linecap="round"/>
<path d="M1056.05 56.4597L1039.08 54.3945" stroke="#0D0D0D" stroke-width="1.33523" stroke-miterlimit="10" stroke-linecap="round" stroke-linejoin="round"/>
<path d="M1074.39 57.0873L1061.58 55.5295" stroke="#0D0D0D" stroke-width="1.33523" stroke-miterlimit="10" stroke-linecap="round" stroke-linejoin="round"/>
<path d="M647.593 309.442C587.86 309.442 509.147 299.139 506.967 275.821C504.79 252.503 515.41 223.449 575.273 190.21C646.125 150.821 789.191 132.586 789.191 132.586H789.204C802.552 130.045 920.182 119.683 930.329 117.645C933.85 116.937 924.899 125.892 911.289 137.393C870.885 172.287 806.914 228.741 978.861 210.719C1023.76 203.18 1085.18 181.006 1108.11 169.897C1152.84 148.213 1192.08 127.574 1200.55 131.771C1208.45 135.693 1400.99 169.612 1455.59 202.236C1500.11 228.799 1522.68 263.19 1523.89 292.311C1524.27 301.36 1520.1 312.674 1509.61 313.755C1488.1 315.972 1429.52 317.431 1381.41 318.335" stroke="#0D0D0D" stroke-width="6" stroke-miterlimit="10" stroke-linecap="round"/>
<path d="M794.491 272.844C794.532 272.581 794.563 272.323 794.594 272.065C794.643 271.686 794.692 271.312 794.727 270.939C794.816 270.178 794.892 269.416 794.959 268.664C794.999 268.228 795.034 267.796 795.066 267.365C795.141 266.328 795.204 265.291 795.244 264.262C795.284 263.297 795.31 262.34 795.315 261.383C795.328 260.159 795.315 258.944 795.27 257.738C794.091 222.772 772.028 194.924 739.213 186.365C739.208 186.36 739.208 186.36 739.204 186.365C738.145 186.089 737.072 185.835 735.995 185.599H735.99C735.127 185.412 734.255 185.239 733.378 185.074C733.084 185.021 732.786 184.967 732.497 184.918C731.878 184.811 731.264 184.714 730.645 184.62C730.311 184.571 729.977 184.522 729.639 184.478C728.647 184.34 727.641 184.22 726.63 184.117C726.292 184.082 725.954 184.05 725.611 184.019C722.936 183.779 720.212 183.654 717.435 183.654C666.798 183.654 618.859 224.851 610.367 275.674C608.373 287.593 608.734 298.987 611.106 309.442H611.11C618.872 343.553 648.11 367.69 687.01 367.69C723.221 367.69 757.986 346.771 777.97 316.359C779.733 313.675 781.384 310.916 782.906 308.094C783.284 307.395 783.658 306.687 784.019 305.98C784.553 304.934 785.074 303.879 785.572 302.815C785.848 302.232 786.12 301.649 786.378 301.061C787.815 297.875 789.093 294.617 790.201 291.296C790.401 290.709 790.588 290.117 790.775 289.521C791.527 287.135 792.19 284.723 792.765 282.279C792.943 281.514 793.112 280.744 793.276 279.974C793.579 278.532 793.846 277.085 794.086 275.63C794.229 274.699 794.371 273.769 794.491 272.844Z" stroke="#0D0D0D" stroke-width="2.67047" stroke-miterlimit="10" stroke-linecap="round"/>
<path d="M768.442 272.844C768.482 272.581 768.513 272.323 768.545 272.065C768.593 271.686 768.642 271.312 768.682 270.939C768.771 270.178 768.847 269.416 768.914 268.664C768.954 268.228 768.99 267.796 769.021 267.365C769.096 266.328 769.163 265.291 769.199 264.262C769.239 263.297 769.266 262.34 769.27 261.383C769.283 260.159 769.27 258.944 769.23 257.738C768.068 222.772 746.019 194.924 713.208 186.365C713.203 186.36 713.203 186.36 713.199 186.365C712.14 186.089 711.067 185.835 709.99 185.599H709.986C709.122 185.412 708.25 185.239 707.373 185.074C707.079 185.021 706.781 184.967 706.492 184.918C705.873 184.811 705.259 184.714 704.64 184.62C704.306 184.571 703.973 184.522 703.634 184.478C702.642 184.34 701.636 184.22 700.626 184.117C700.287 184.082 699.949 184.05 699.606 184.019C696.931 183.779 694.208 183.654 691.43 183.654C640.794 183.654 592.836 224.851 584.318 275.674C582.319 287.593 582.671 298.987 585.043 309.442H585.048C592.792 343.553 622.016 367.69 660.916 367.69C697.127 367.69 731.901 346.771 751.903 316.359C753.67 313.675 755.317 310.916 756.843 308.094C757.222 307.395 757.596 306.687 757.956 305.98C758.49 304.934 759.011 303.879 759.509 302.815C759.785 302.232 760.057 301.649 760.315 301.061C761.753 297.875 763.034 294.617 764.143 291.296C764.343 290.709 764.53 290.117 764.717 289.521C765.469 287.135 766.137 284.723 766.711 282.279C766.889 281.514 767.062 280.744 767.223 279.974C767.525 278.532 767.792 277.085 768.033 275.63C768.184 274.699 768.322 273.769 768.442 272.844Z" stroke="#0D0D0D" stroke-width="1.33523" stroke-miterlimit="10" stroke-linecap="round" stroke-linejoin="round"/>
<path d="M918.758 180.312C989.418 180.183 1034.72 155.766 1044.28 150.87" stroke="#0D0D0D" stroke-width="3.11555" stroke-miterlimit="10" stroke-linecap="round"/>
<path d="M1336.66 272.844C1336.7 272.581 1336.73 272.323 1336.75 272.065C1336.8 271.686 1336.84 271.312 1336.88 270.939C1336.96 270.178 1337.03 269.416 1337.08 268.664C1337.12 268.228 1337.15 267.796 1337.18 267.365C1337.24 266.328 1337.29 265.291 1337.32 264.262C1337.35 263.297 1337.37 262.34 1337.36 261.383C1337.36 260.159 1337.34 258.944 1337.28 257.738C1335.73 222.772 1313.37 194.924 1280.47 186.365C1280.46 186.36 1280.46 186.36 1280.46 186.365C1279.4 186.089 1278.32 185.835 1277.24 185.599H1277.24C1276.37 185.412 1275.5 185.239 1274.62 185.074C1274.32 185.021 1274.02 184.967 1273.73 184.918C1273.11 184.811 1272.49 184.714 1271.87 184.62C1271.54 184.571 1271.21 184.522 1270.87 184.478C1269.88 184.34 1268.87 184.22 1267.86 184.117C1267.52 184.082 1267.18 184.05 1266.84 184.019C1264.16 183.779 1261.43 183.654 1258.66 183.654C1208.02 183.654 1160.52 224.851 1152.57 275.674C1150.7 287.593 1151.18 298.987 1153.67 309.442H1153.67C1161.79 343.553 1191.28 367.69 1230.18 367.69C1266.4 367.69 1300.94 346.771 1320.6 316.359C1322.34 313.675 1323.96 310.916 1325.45 308.094C1325.82 307.395 1326.18 306.687 1326.53 305.98C1327.06 304.934 1327.57 303.879 1328.06 302.815C1328.33 302.232 1328.59 301.649 1328.84 301.061C1330.25 297.875 1331.49 294.617 1332.57 291.296C1332.76 290.709 1332.94 290.117 1333.12 289.521C1333.85 287.135 1334.49 284.723 1335.04 282.279C1335.21 281.514 1335.37 280.744 1335.52 279.974C1335.81 278.532 1336.06 277.085 1336.28 275.63C1336.42 274.699 1336.55 273.769 1336.66 272.844Z" stroke="#0D0D0D" stroke-width="1.33523" stroke-miterlimit="10" stroke-linecap="round" stroke-linejoin="round"/>
<path d="M1361.02 272.844C1361.06 272.581 1361.09 272.323 1361.12 272.065C1361.16 271.686 1361.21 271.312 1361.24 270.939C1361.32 270.178 1361.39 269.416 1361.45 268.664C1361.48 268.228 1361.51 267.796 1361.54 267.365C1361.61 266.328 1361.66 265.291 1361.68 264.262C1361.71 263.297 1361.73 262.34 1361.72 261.383C1361.72 260.159 1361.7 258.944 1361.64 257.738C1360.07 222.772 1337.7 194.924 1304.79 186.365C1304.78 186.36 1304.78 186.36 1304.78 186.365C1303.72 186.089 1302.64 185.835 1301.56 185.599H1301.56C1300.69 185.412 1299.82 185.239 1298.93 185.074C1298.64 185.021 1298.34 184.967 1298.05 184.918C1297.43 184.811 1296.81 184.714 1296.19 184.62C1295.86 184.571 1295.53 184.522 1295.19 184.478C1294.19 184.34 1293.19 184.22 1292.17 184.117C1291.84 184.082 1291.5 184.05 1291.15 184.019C1288.48 183.779 1285.75 183.654 1282.97 183.654C1232.34 183.654 1184.86 224.851 1176.93 275.674C1175.07 287.593 1175.55 298.987 1178.04 309.442H1178.05C1186.19 343.553 1215.69 367.69 1254.59 367.69C1290.8 367.69 1325.34 346.771 1344.98 316.359C1346.72 313.675 1348.33 310.916 1349.83 308.094C1350.19 307.395 1350.56 306.687 1350.91 305.98C1351.44 304.934 1351.94 303.879 1352.43 302.815C1352.7 302.232 1352.96 301.649 1353.22 301.061C1354.62 297.875 1355.86 294.617 1356.93 291.296C1357.12 290.709 1357.31 290.117 1357.49 289.521C1358.21 287.135 1358.85 284.723 1359.4 282.279C1359.57 281.514 1359.73 280.744 1359.88 279.974C1360.17 278.532 1360.42 277.085 1360.64 275.63C1360.79 274.699 1360.92 273.769 1361.02 272.844Z" stroke="#0D0D0D" stroke-width="2.67047" stroke-miterlimit="10" stroke-linecap="round"/>
<path d="M1214.63 275.674C1212.16 291.581 1213.87 306.549 1218.94 319.604C1056.58 319.67 874.49 317.236 814.458 316.359" stroke="#0D0D0D" stroke-width="5.34094" stroke-miterlimit="10" stroke-linecap="round"/>
<path d="M1328.16 275.674C1326.32 287.665 1315.12 297.385 1303.15 297.385C1291.18 297.385 1282.97 287.665 1284.81 275.674C1286.66 263.684 1297.85 253.959 1309.82 253.959C1321.78 253.959 1329.99 263.684 1328.16 275.674Z" stroke="#0D0D0D" stroke-width="4.0057" stroke-miterlimit="10" stroke-linecap="round" stroke-linejoin="round"/>
<path d="M742.569 102.868H464.533" stroke="#0D0D0D" stroke-width="2.22539" stroke-miterlimit="10" stroke-linecap="round"/>
<path d="M612.268 157.924H358.479" stroke="#0D0D0D" stroke-width="2.67047" stroke-miterlimit="10" stroke-linecap="round"/>
<path d="M1574.77 109.351H1444.77" stroke="#0D0D0D" stroke-width="4.01608" stroke-miterlimit="10" stroke-linecap="round"/>
<path d="M1444.77 70.3506H1313.77" stroke="#0D0D0D" stroke-width="3" stroke-miterlimit="10" stroke-linecap="round"/>
<path d="M1693.22 32.8616H1380.21" stroke="#0D0D0D" stroke-width="3.11555" stroke-miterlimit="10" stroke-linecap="round" stroke-dasharray="11.02 11.02"/>
<path d="M961.645 93.4592L929.386 122.3" stroke="#0D0D0D" stroke-width="2.67047" stroke-miterlimit="10" stroke-linecap="round"/>
<path d="M1063.74 58.9879C1063.22 58.9746 1062.7 58.9612 1062.17 58.9568" stroke="#0D0D0D" stroke-width="1.2845" stroke-miterlimit="10" stroke-linecap="round" stroke-linejoin="round"/>
<path d="M993.95 115.953C986.45 125.776 964.414 154.577 952.998 169.492" stroke="#0D0D0D" stroke-width="2.67047" stroke-miterlimit="10" stroke-linecap="round" stroke-linejoin="round"/>
<path d="M927.455 137.201C927.455 137.201 858.317 193.125 869.836 203.18" stroke="#0D0D0D" stroke-width="1.78031" stroke-miterlimit="10" stroke-linecap="round"/>
<path d="M1112.96 154.795L1096.85 172.852" stroke="#0D0D0D" stroke-width="1.87908" stroke-miterlimit="10" stroke-linecap="round"/>
<path d="M971.798 58.6227C957.409 60.7279 957.52 52.0089 943.131 54.1141C928.741 56.2193 928.621 64.9428 914.227 67.0481C899.833 69.1533 899.953 60.4342 885.56 62.5394C880.708 63.2471 877.481 64.7069 874.775 66.4161" stroke="#0D0D0D" stroke-width="1.33523" stroke-miterlimit="10" stroke-linecap="round"/>
<path d="M997.942 72.7275L997.003 73.3729" stroke="#0D0D0D" stroke-width="2.24578" stroke-miterlimit="10"/>
<path d="M792.347 340.905C800.657 333.788 807.996 325.5 813.996 316.359C815.758 313.675 817.405 310.915 818.927 308.093C819.305 307.395 819.675 306.687 820.035 305.979C820.569 304.933 821.09 303.879 821.589 302.815C821.865 302.232 822.136 301.649 822.394 301.061C823.827 297.874 825.105 294.617 826.213 291.296C826.409 290.709 826.6 290.117 826.787 289.52C827.535 287.135 828.198 284.722 828.772 282.279C828.95 281.513 829.119 280.743 829.28 279.973C829.582 278.531 829.849 277.085 830.085 275.629C830.236 274.699 830.374 273.769 830.495 272.843C830.535 272.581 830.566 272.323 830.592 272.064C830.641 271.686 830.69 271.312 830.726 270.938C830.815 270.177 830.891 269.416 830.953 268.664C830.993 268.228 831.029 267.796 831.06 267.364C831.135 266.327 831.198 265.29 831.238 264.262C831.273 263.296 831.3 262.339 831.309 261.383C831.322 260.159 831.305 258.944 831.265 257.737C830.063 222.772 807.978 194.923 775.158 186.365C775.154 186.36 775.154 186.36 775.149 186.365C774.09 186.089 773.017 185.835 771.94 185.599H771.936C771.072 185.412 770.2 185.239 769.323 185.074C769.029 185.02 768.731 184.967 768.437 184.918C767.819 184.811 767.204 184.713 766.586 184.62C766.252 184.571 765.918 184.522 765.58 184.477C764.587 184.339 763.582 184.219 762.571 184.117C762.233 184.081 761.895 184.05 761.552 184.019C758.877 183.779 756.153 183.654 753.376 183.654C734.389 183.654 715.789 189.449 699.508 199.37M699.499 199.37C672.354 215.904 651.649 243.909 646.361 275.674C644.376 287.593 644.746 298.987 647.127 309.442H647.131C654.916 343.553 684.171 367.689 723.07 367.689C733.512 367.689 743.833 365.949 753.719 362.745M756.064 260.319C759.34 264.249 760.871 269.679 759.887 275.674C757.92 287.664 746.615 297.385 734.643 297.385C722.67 297.385 714.565 287.664 716.546 275.674C718.019 266.737 724.682 259.055 732.929 255.726" stroke="#0D0D0D" stroke-width="4.89586" stroke-miterlimit="10" stroke-linecap="round"/>
<path d="M1256.96 206.233C1275.24 192.168 1297.59 183.654 1320.61 183.654C1323.02 183.654 1325.39 183.748 1327.72 183.93C1328.76 184.01 1329.8 184.108 1330.83 184.228C1331.48 184.304 1332.13 184.384 1332.77 184.473C1333.42 184.562 1334.06 184.655 1334.7 184.758C1334.7 184.753 1334.71 184.753 1334.71 184.758C1335.61 184.9 1336.51 185.06 1337.4 185.234C1337.4 185.234 1337.4 185.234 1337.41 185.234C1373.1 192.168 1397.72 221.098 1399.34 257.871V257.875C1399.36 258.458 1399.38 259.046 1399.39 259.633C1399.39 259.638 1399.39 259.642 1399.39 259.642C1399.41 260.261 1399.42 260.88 1399.42 261.498C1399.42 261.81 1399.42 262.121 1399.42 262.433C1399.42 262.437 1399.42 262.437 1399.42 262.442C1399.41 263.101 1399.4 263.759 1399.38 264.422C1399.37 264.756 1399.35 265.09 1399.34 265.424C1399.34 265.428 1399.34 265.428 1399.34 265.433C1399.31 266.132 1399.27 266.83 1399.23 267.534C1399.21 267.885 1399.18 268.237 1399.15 268.593C1399.13 268.98 1399.09 269.372 1399.06 269.763C1399.02 270.151 1398.98 270.538 1398.94 270.925C1398.94 270.938 1398.94 270.952 1398.94 270.97C1398.9 271.317 1398.86 271.668 1398.82 272.02C1398.82 272.087 1398.81 272.149 1398.8 272.216C1398.76 272.576 1398.71 272.937 1398.67 273.297C1398.62 273.693 1398.57 274.09 1398.51 274.486C1398.45 274.882 1398.4 275.278 1398.33 275.674C1398.12 277.116 1397.87 278.554 1397.58 279.982C1397.39 280.935 1397.19 281.878 1396.97 282.822C1396.76 283.766 1396.53 284.709 1396.29 285.644C1395.93 287.046 1395.53 288.439 1395.11 289.823C1395.11 289.823 1395.11 289.823 1395.11 289.827C1394.82 290.749 1394.53 291.666 1394.22 292.578C1391.14 301.707 1386.79 310.368 1381.4 318.335C1379.19 321.611 1376.81 324.771 1374.26 327.797C1371.49 331.1 1368.53 334.246 1365.4 337.215C1362.67 339.814 1359.82 342.275 1356.85 344.59M1345.42 352.446C1341.82 354.613 1338.1 356.576 1334.29 358.316C1330.6 360.003 1326.81 361.485 1322.96 362.74M1220.74 253.531C1217.9 260.626 1215.82 268.041 1214.63 275.674C1212.16 291.581 1213.87 306.549 1218.94 319.603C1230.09 348.248 1257.45 367.689 1292.36 367.689C1297.58 367.689 1302.77 367.253 1307.88 366.417M1229.81 235.893C1226.26 241.483 1223.21 247.385 1220.75 253.531M1244.93 216.879C1242.34 219.505 1239.88 222.251 1237.56 225.113" stroke="#0D0D0D" stroke-width="4.89586" stroke-miterlimit="10" stroke-linecap="round"/>
<path d="M1060.4 44.3848L1068.27 53.2909C1068.33 53.3398 1068.43 53.2909 1068.44 53.2063C1068.44 53.2063 1076.08 45.6889 1076.5 45.8892L1108.47 61.2399C1108.58 61.2889 1108.69 61.1287 1108.59 61.0664L1074.69 38.443C1074.63 38.4163 1074.54 38.3763 1074.48 38.3496C1072.28 36.6716 1066.84 37.0054 1062.92 37.0321H1062.85C1049.25 36.912 1035.32 41.6699 1027.58 44.8388C1027.56 44.8477 1027.54 44.8522 1027.53 44.8611C1024.44 46.3165 1021.32 48.0167 1018.22 50.0017L1018.2 50.0151L1018.18 50.0284L1008.08 57.6304C1008.06 57.6437 1008.04 57.6571 1008.02 57.6749C1007.44 58.1912 1006.84 58.7253 1006.26 59.2683C1004.73 60.6881 1003.39 62.099 1002.23 63.4965C1002.23 63.5009 1002.23 63.5054 1002.22 63.5099C1002.1 63.6612 1001.97 63.8081 1001.85 63.9594C1001.82 63.9994 1001.8 64.035 1001.77 64.0795C1001.18 65.2145 999.465 68.5971 998.254 71.2275C997.965 71.8551 997.707 72.4381 997.493 72.9366C997.012 74.0938 996.794 74.8104 997.119 74.5789L1039.39 44.9768C1039.66 44.7854 1040.01 44.7943 1040.21 44.999L1048.57 55.0044C1048.61 55.04 1049.67 55.0044 1049.67 55.0044C1049.71 55.04 1049.77 55.0311 1049.81 54.9866L1059.79 44.6608C1060.04 44.4293 1060.4 44.3848 1060.64 44.5629" fill="#F9AC12"/>
<path d="M1060.4 44.3848L1068.27 53.2909C1068.33 53.3398 1068.43 53.2909 1068.44 53.2063C1068.44 53.2063 1076.08 45.6889 1076.5 45.8892L1108.47 61.2399C1108.58 61.2889 1108.69 61.1287 1108.59 61.0664L1074.69 38.443C1074.63 38.4163 1074.54 38.3763 1074.48 38.3496C1072.28 36.6716 1066.84 37.0054 1062.92 37.0321H1062.85C1049.25 36.912 1035.32 41.6699 1027.58 44.8388C1027.56 44.8477 1027.54 44.8522 1027.53 44.8611C1024.44 46.3165 1021.32 48.0167 1018.22 50.0017L1018.2 50.0151L1018.18 50.0284L1008.08 57.6304C1008.06 57.6437 1008.04 57.6571 1008.02 57.6749C1007.44 58.1912 1006.84 58.7253 1006.26 59.2683C1004.73 60.6881 1003.39 62.099 1002.23 63.4965C1002.23 63.5009 1002.23 63.5054 1002.22 63.5099C1002.1 63.6612 1001.97 63.8081 1001.85 63.9594C1001.82 63.9994 1001.8 64.035 1001.77 64.0795C1001.18 65.2145 999.465 68.5971 998.254 71.2275C997.965 71.8551 997.707 72.4381 997.493 72.9366C997.012 74.0938 996.794 74.8104 997.119 74.5789L1039.39 44.9768C1039.66 44.7854 1040.01 44.7943 1040.21 44.999L1048.57 55.0044C1048.61 55.04 1049.67 55.0044 1049.67 55.0044C1049.71 55.04 1049.77 55.0311 1049.81 54.9866L1059.79 44.6608C1060.04 44.4293 1060.4 44.3848 1060.64 44.5629" stroke="#0D0D0D" stroke-width="2.24578" stroke-miterlimit="10"/>
<path d="M1783.22 184.845H1693.22" stroke="#0D0D0D" stroke-width="2" stroke-miterlimit="10" stroke-linecap="round"/>
<path d="M2038.79 218.887L1766.32 218.887" stroke="#0D0D0D" stroke-width="2" stroke-miterlimit="10" stroke-linecap="round"/>
<path d="M215.129 203H-88" stroke="#0D0D0D" stroke-width="2" stroke-miterlimit="10" stroke-linecap="round"/>
<path d="M1826 74L1568 74" stroke="#0D0D0D" stroke-width="3" stroke-miterlimit="10" stroke-linecap="round" stroke-dasharray="40 40"/>
<path d="M1995 105L1737 105" stroke="#0D0D0D" stroke-width="5" stroke-miterlimit="10" stroke-linecap="round"/>
<path d="M2023 14L1765 14" stroke="#0D0D0D" stroke-width="3" stroke-miterlimit="10" stroke-linecap="round"/>
<path d="M230 78H-70" stroke="#0D0D0D" stroke-width="6" stroke-miterlimit="10" stroke-linecap="round" stroke-dasharray="70 70"/>
<path d="M180 27H-52" stroke="#0D0D0D" stroke-width="3.11555" stroke-miterlimit="10" stroke-linecap="round"/>
<path d="M31 151L249 151" stroke="#0D0D0D" stroke-width="4.0057" stroke-miterlimit="10" stroke-linecap="round" stroke-dasharray="22.25 22.25"/>
</svg>
