<svg width="1383" height="828" viewBox="0 0 1383 828" fill="none" xmlns="http://www.w3.org/2000/svg">
<path d="M461.33 75.14C466.93 71.53 472.62 68.06 478.39 64.71" stroke="#0D0D0D" stroke-width="6" stroke-miterlimit="10" stroke-linecap="round"/>
<path d="M522.6 42.4697C545.1 32.7597 568.65 24.9297 593.03 19.1797" stroke="#0D0D0D" stroke-width="6" stroke-miterlimit="10" stroke-linecap="round" stroke-dasharray="49.52 49.52"/>
<path d="M617.271 14.2C623.811 13.05 630.4 12.06 637.05 11.21" stroke="#0D0D0D" stroke-width="6" stroke-miterlimit="10" stroke-linecap="round"/>
<path d="M354.72 173.841C379.48 141.131 409.13 112.151 442.6 87.9307" stroke="#0D0D0D" stroke-width="8" stroke-miterlimit="10" stroke-linecap="round"/>
<path d="M357.31 662.4C319.79 613.89 293.1 556.96 280.74 495.03" stroke="#0D0D0D" stroke-width="9" stroke-miterlimit="10" stroke-linecap="round"/>
<path d="M481.66 770.03C475.85 766.74 470.13 763.31 464.5 759.75" stroke="#0D0D0D" stroke-width="9" stroke-miterlimit="10" stroke-linecap="round"/>
<path d="M437.04 740.841C426.64 733.051 416.621 724.791 407.021 716.101" stroke="#0D0D0D" stroke-width="9" stroke-miterlimit="10" stroke-linecap="round" stroke-dasharray="22.23 33.35"/>
<path d="M394.89 704.66C390.13 699.99 385.48 695.21 380.95 690.32" stroke="#0D0D0D" stroke-width="9" stroke-miterlimit="10" stroke-linecap="round"/>
<path d="M1096.23 522.65C1066.84 629.49 994.19 719.05 897.72 772.33" stroke="#0D0D0D" stroke-width="9" stroke-miterlimit="10" stroke-linecap="round"/>
<path d="M756.819 12.6602C763.439 13.6702 770.009 14.8302 776.519 16.1302" stroke="#0D0D0D" stroke-width="6" stroke-miterlimit="10" stroke-linecap="round"/>
<path d="M796.539 20.6504C822.299 27.1304 847.109 35.9404 870.699 46.8404" stroke="#0D0D0D" stroke-width="6" stroke-miterlimit="10" stroke-linecap="round" stroke-dasharray="25.14 20.52 20.52 25.14"/>
<path d="M882.029 52.2803C918.109 70.2703 951.159 93.2203 980.249 120.2" stroke="#0D0D0D" stroke-width="6" stroke-miterlimit="10" stroke-linecap="round" stroke-dasharray="20.52 20.52 25.14 20.52 20.52 25.14"/>
<path d="M989.329 128.891C994.079 133.571 998.719 138.371 1003.23 143.271" stroke="#0D0D0D" stroke-width="6" stroke-miterlimit="10" stroke-linecap="round"/>
<path d="M810.62 6.15039C908.53 33.1104 992.48 92.5504 1049.48 171.8" stroke="#91CE6B" stroke-width="11" stroke-miterlimit="10" stroke-linecap="round"/>
<path d="M923.149 120.931C965.559 151.611 1002.02 189.561 1030.67 232.811" stroke="#68BF30" stroke-width="8" stroke-miterlimit="10" stroke-linecap="round"/>
<path d="M798.37 58.0703C831.7 68.6503 863.22 83.0103 892.44 100.61" stroke="#72CD3B" stroke-width="11" stroke-miterlimit="10" stroke-linecap="round" stroke-dasharray="40 40 49 40 40 49"/>
<path d="M448.71 139.4C416.35 166.39 388.1 197.87 364.96 232.81" stroke="#72CD3B" stroke-width="11" stroke-miterlimit="10" stroke-linecap="round" stroke-dasharray="20 20 49 20 20 49"/>
<path d="M597.259 58.0703C560.959 69.5903 526.799 85.6003 495.439 105.4" stroke="#68BF30" stroke-width="7" stroke-miterlimit="10" stroke-linecap="round"/>
<path d="M240.229 418.941C240.229 280.541 301.53 156.121 399.09 70.1309" stroke="#72CD3B" stroke-width="14" stroke-miterlimit="10" stroke-linecap="round"/>
<path d="M346.74 713.72C295.43 651.63 259.97 576.53 246.39 494.29" stroke="#72CD3B" stroke-width="17" stroke-miterlimit="10" stroke-linecap="round"/>
<path d="M507.989 803.24C455.699 779.54 409.029 746.04 370.439 705.16" stroke="#91CE6B" stroke-width="6" stroke-miterlimit="10" stroke-linecap="round"/>
<path d="M540.47 770.77C537.43 769.39 534.41 767.98 531.41 766.54" stroke="#68BF30" stroke-width="6" stroke-miterlimit="10" stroke-linecap="round"/>
<path d="M519.211 760.44C505.041 753.07 491.331 744.97 478.141 736.17" stroke="#68BF30" stroke-width="6" stroke-miterlimit="10" stroke-linecap="round" stroke-dasharray="13.64 13.64 13.64 13.64"/>
<path d="M472.49 732.34C451.83 718.09 432.49 702.14 414.69 684.69" stroke="#68BF30" stroke-width="6" stroke-miterlimit="10" stroke-linecap="round" stroke-dasharray="13.64 13.64 13.64 13.64 13.64 13.64"/>
<path d="M409.86 679.88C407.52 677.51 405.2 675.11 402.91 672.69" stroke="#68BF30" stroke-width="6" stroke-miterlimit="10" stroke-linecap="round"/>
<path d="M843.38 770.771C849.47 768.011 855.47 765.121 861.4 762.101" stroke="#91CE6B" stroke-width="6" stroke-miterlimit="10" stroke-linecap="round"/>
<path d="M882.359 750.701C908.919 735.301 933.659 717.241 956.199 696.881" stroke="#91CE6B" stroke-width="6" stroke-miterlimit="10" stroke-linecap="round" stroke-dasharray="29.22 23.85 23.85 29.22"/>
<path d="M966.88 686.91C971.68 682.28 976.37 677.53 980.94 672.69" stroke="#91CE6B" stroke-width="6" stroke-miterlimit="10" stroke-linecap="round"/>
<path d="M1113.97 545.891C1076.36 663.971 988.64 760.511 875.08 811.831" stroke="#72CD3B" stroke-width="11" stroke-miterlimit="10" stroke-linecap="round" stroke-dasharray="40 40 49 40 40 49"/>
<path d="M1078.83 206.511C1114 268.771 1134.01 340.331 1134.01 416.451C1134.01 426.541 1133.66 436.551 1132.97 446.461" stroke="#91CE6B" stroke-width="8" stroke-miterlimit="10" stroke-linecap="round"/>
<path d="M1197.79 460.101C1191.08 536.291 1166.72 607.551 1128.71 669.971" stroke="#68BF30" stroke-width="9" stroke-miterlimit="10" stroke-linecap="round"/>
<path d="M1037.7 54.1309C1079.75 92.0109 1115.11 136.761 1141.88 186.541" stroke="#72CD3B" stroke-width="19" stroke-miterlimit="10" stroke-linecap="round"/>
<path d="M206.59 269.681C234.78 181.241 287.66 103.411 357.36 43.8906" stroke="#0D0D0D" stroke-width="9" stroke-miterlimit="10" stroke-linecap="round" stroke-dasharray="40 40 49 40 40 49"/>
<path d="M265.64 820.5C219.27 773.93 180.84 719.79 152.5 660.16" stroke="#0D0D0D" stroke-width="5" stroke-miterlimit="10" stroke-linecap="round"/>
<path d="M1180.08 746.83C1160.46 774.4 1138.45 800.22 1114.35 824.02" stroke="#0D0D0D" stroke-width="6" stroke-miterlimit="10" stroke-linecap="round"/>
<path d="M1279.08 328.29C1283.57 357.03 1285.9 386.47 1285.9 416.43C1285.9 429.89 1285.43 443.25 1284.5 456.49" stroke="#0D0D0D" stroke-width="6" stroke-miterlimit="10" stroke-linecap="round" stroke-dasharray="20 40"/>
<path d="M1168.48 70.3008C1211.71 126.921 1244.61 191.511 1264.43 261.391" stroke="#0D0D0D" stroke-width="7" stroke-miterlimit="10" stroke-linecap="round"/>
<path d="M127.87 233.24C150.73 166.19 185.79 104.58 230.49 50.9199" stroke="#0D0D0D" stroke-width="8" stroke-miterlimit="10" stroke-linecap="round"/>
<path d="M98.5594 449.54C97.9294 438.58 97.6094 427.54 97.6094 416.43C97.6094 378.46 101.349 341.34 108.489 305.4" stroke="#0D0D0D" stroke-width="6" stroke-miterlimit="10" stroke-linecap="round" stroke-dasharray="20 40"/>
<path d="M154.55 529.82C178.28 636.32 234.73 730.9 313.11 803.03" stroke="#0D0D0D" stroke-width="6" stroke-miterlimit="10" stroke-linecap="round" stroke-dasharray="40 40 49 40 40 49"/>
<path d="M1223.71 529.82C1199.98 636.32 1143.53 730.9 1065.15 803.03" stroke="#0D0D0D" stroke-width="8" stroke-miterlimit="10" stroke-linecap="round" stroke-dasharray="40 40 49 40 40 49"/>
<path d="M18.8496 541.311C19.3196 543.771 19.8096 546.221 20.3096 548.671" stroke="#0D0D0D" stroke-width="6" stroke-miterlimit="10" stroke-linecap="round"/>
<path d="M29.0996 586.021C36.5696 614.021 45.8396 641.31 56.7996 667.76" stroke="#0D0D0D" stroke-width="6" stroke-miterlimit="10" stroke-linecap="round" stroke-dasharray="14.39 38.38"/>
<path d="M64.3994 685.381C65.4194 687.661 66.4594 689.941 67.5094 692.201" stroke="#0D0D0D" stroke-width="6" stroke-miterlimit="10" stroke-linecap="round"/>
<path d="M24.2398 267.471C12.9898 315.561 7.0498 365.621 7.0498 417.031C7.0498 435.041 7.77981 452.881 9.20981 470.531" stroke="#72CD3B" stroke-width="13" stroke-miterlimit="10" stroke-linecap="round"/>
<path d="M1365.7 541.311C1365.23 543.771 1364.74 546.221 1364.24 548.671" stroke="#0D0D0D" stroke-width="9" stroke-miterlimit="10" stroke-linecap="round"/>
<path d="M1355.45 586.021C1347.98 614.021 1338.71 641.31 1327.75 667.76" stroke="#0D0D0D" stroke-width="9" stroke-miterlimit="10" stroke-linecap="round" stroke-dasharray="14.39 38.38"/>
<path d="M1320.15 685.381C1319.13 687.661 1318.09 689.941 1317.04 692.201" stroke="#0D0D0D" stroke-width="9" stroke-miterlimit="10" stroke-linecap="round"/>
<path d="M1360.31 267.471C1361.83 273.951 1363.24 280.461 1364.57 287.011" stroke="#68BF30" stroke-width="10" stroke-miterlimit="10" stroke-linecap="round"/>
<path d="M1373.89 347.94C1376.28 370.65 1377.5 393.7 1377.5 417.03C1377.5 417.94 1377.5 418.85 1377.49 419.75" stroke="#68BF30" stroke-width="10" stroke-miterlimit="10" stroke-linecap="round" stroke-dasharray="41.11 61.66"/>
<path d="M1376.65 450.57C1376.31 457.25 1375.87 463.9 1375.34 470.53" stroke="#68BF30" stroke-width="10" stroke-miterlimit="10" stroke-linecap="round"/>
<path d="M1182.6 34.4102C1200.71 59.7202 1217.06 86.3102 1231.5 114.02" stroke="#68BF30" stroke-width="9" stroke-miterlimit="10" stroke-linecap="round"/>
<path d="M202.33 34.4102C199.42 38.4802 196.56 42.5802 193.74 46.7102" stroke="#91CE6B" stroke-width="13" stroke-miterlimit="10" stroke-linecap="round"/>
<path d="M181.06 66.0098C175.92 74.1398 170.95 82.3798 166.16 90.7298" stroke="#91CE6B" stroke-width="13" stroke-miterlimit="10" stroke-linecap="round" stroke-dasharray="17.32 23.09"/>
</svg>
