<svg width="2188" height="720" viewBox="0 0 2188 720" fill="none" xmlns="http://www.w3.org/2000/svg">
<line x1="130.5" y1="159.5" x2="412.5" y2="159.5" stroke="#0D0D0D" stroke-width="5" stroke-linecap="round" stroke-dasharray="60 60"/>
<line x1="141.5" y1="1.5" x2="259.5" y2="1.5" stroke="#0D0D0D" stroke-width="3" stroke-linecap="round"/>
<line x1="1441.5" y1="20.5" x2="1559.5" y2="20.5" stroke="#0D0D0D" stroke-width="3" stroke-linecap="round"/>
<line x1="520" y1="423" x2="2185" y2="423" stroke="#0D0D0D" stroke-width="6" stroke-linecap="round" stroke-dasharray="40 40"/>
<line x1="267" y1="533" x2="681" y2="533" stroke="#FFBA07" stroke-width="6" stroke-linecap="round"/>
<line x1="671" y1="717" x2="1981" y2="717" stroke="#FFBA07" stroke-width="6" stroke-linecap="round" stroke-dasharray="12 12"/>
<line x1="5.5" y1="476.5" x2="340.5" y2="476.5" stroke="#FFBA07" stroke-width="11" stroke-linecap="round"/>
<line x1="1640.5" y1="93.5" x2="1975.5" y2="93.5" stroke="#FFBA07" stroke-width="11" stroke-linecap="round"/>
<line x1="378" y1="317" x2="1893" y2="317" stroke="#FFBA07" stroke-width="6" stroke-linecap="round"/>
<line x1="24.5" y1="686.5" x2="508.5" y2="686.5" stroke="#0D0D0D" stroke-width="5" stroke-linecap="round" stroke-dasharray="40 40"/>
<line x1="37" y1="371" x2="390" y2="371" stroke="#FFBA07" stroke-width="6" stroke-linecap="round" stroke-dasharray="12 12"/>
<path d="M458.45 558.224C458.383 558.224 458.304 558.213 458.237 558.202C457.957 558.135 457.721 557.933 457.62 557.663C457.53 557.439 455.466 552.055 456.308 544.023C457.082 536.653 460.582 525.57 472.865 514.655C473.1 514.442 473.448 514.375 473.751 514.476C474.379 514.678 474.974 516.102 475.512 518.705C476.825 525.054 477.857 541.6 459.045 558.011C458.876 558.146 458.663 558.224 458.45 558.224ZM473.168 516.775C462.073 527.017 458.843 537.247 458.102 544.113C457.519 549.553 458.36 553.771 458.899 555.768C469.858 545.806 473.201 535.913 474.076 529.294C474.861 523.203 473.807 518.66 473.168 516.775Z" fill="#0D0D0D"/>
<mask id="mask0_0_1" style="mask-type:luminance" maskUnits="userSpaceOnUse" x="342" y="116" width="137" height="138">
<path d="M462.151 253H358.849C349.549 253 342 245.462 342 236.151V132.849C342 123.549 349.538 116 358.849 116H462.151C471.451 116 479 123.538 479 132.849V236.151C479 245.451 471.462 253 462.151 253Z" fill="white"/>
</mask>
<g mask="url(#mask0_0_1)">
<path d="M488.21 107.553H335.102V264.633H488.21V107.553Z" fill="url(#paint0_linear_0_1)"/>
</g>
<mask id="mask1_0_1" style="mask-type:luminance" maskUnits="userSpaceOnUse" x="342" y="116" width="137" height="138">
<path d="M462.151 253H358.849C349.549 253 342 245.462 342 236.151V132.849C342 123.549 349.538 116 358.849 116H462.151C471.451 116 479 123.538 479 132.849V236.151C479 245.451 471.462 253 462.151 253Z" fill="white"/>
</mask>
<g mask="url(#mask1_0_1)">
<path d="M472.056 167.824L471.675 167.611V172.356L475.5 173.949L472.056 167.824Z" fill="#FF8E25"/>
<path d="M438.797 134.183C459.056 151.772 462.118 162.092 462.118 162.092L482.568 173.949L491.744 100.553L337.289 104.378L340.699 150.112C353.745 144.391 380.701 136.987 396.35 131.906C420.288 124.121 438.797 134.183 438.797 134.183Z" fill="#FF8E25"/>
<path d="M459.056 171.268C461.345 171.268 466.325 175.475 466.325 175.475C470.913 191.146 456.768 196.115 456.768 196.115L465.562 211.405L446.829 204.529C436.509 232.819 425.807 228.613 425.807 228.613L402.867 223.262L397.517 227.85L407.455 235.882L413.76 252.955L492.26 255.501L484.61 179.547L461.737 168.206L459.056 171.268Z" fill="#FF8E25"/>
<path d="M340.352 152.03L335.259 171.392L356.606 176.619L340.352 152.03Z" fill="#FF8E25"/>
<path d="M368.272 211.551C351.087 214.456 350.997 205.718 333.812 208.623C316.626 211.528 316.716 220.267 299.531 223.172C282.345 226.077 282.256 217.339 265.07 220.244C247.885 223.15 247.964 231.888 230.767 234.794C213.57 237.699 213.492 228.96 196.295 231.866C179.099 234.771 167.13 245.484 161.958 246.415C160.197 246.707 158.93 246.55 158.447 246.471C158.346 246.449 158.313 246.336 158.38 246.247L165.851 236.308C165.918 236.207 165.885 236.084 165.772 236.084L151.077 234.715C150.965 234.704 150.92 234.569 150.999 234.479L166.412 223.038C166.49 222.948 166.457 222.824 166.356 222.802L143.304 213.604C143.203 213.581 143.169 213.458 143.247 213.368L152.345 202.016C152.423 201.926 152.39 201.803 152.278 201.78L136.102 199.066C135.967 199.043 135.956 198.852 136.091 198.785C138.211 197.675 147.892 192.615 148.778 192.29C149.776 191.92 166.019 181.409 182.902 179.323C199.784 177.236 199.436 186.031 216.319 183.944C233.201 181.858 233.538 173.063 250.42 170.977C267.291 168.89 266.966 177.685 283.837 175.598C300.709 173.512 301.045 164.717 317.916 162.631C334.788 160.544 338.96 177.965 355.832 175.879L359.029 185.683L368.272 211.551Z" fill="#F9AC12"/>
<path d="M159.951 247.458C159.165 247.458 158.593 247.38 158.302 247.324C157.954 247.268 157.673 247.032 157.539 246.707C157.404 246.37 157.46 246 157.685 245.697L164.37 236.813L151.01 235.579C150.64 235.545 150.315 235.31 150.169 234.962C150.023 234.614 150.09 234.199 150.337 233.907L150.404 233.829L164.819 223.127L143.034 214.434C142.743 214.344 142.507 214.12 142.395 213.828C142.272 213.491 142.339 213.11 142.563 212.818L150.876 202.442L135.956 199.941C135.53 199.873 135.193 199.537 135.126 199.111C135.059 198.662 135.283 198.224 135.687 198.011C139.232 196.16 147.578 191.808 148.475 191.471C148.576 191.426 149.081 191.135 149.608 190.832C161.869 183.821 173.041 179.648 182.801 178.448C191.472 177.382 195.779 179.132 199.952 180.815C204.092 182.497 208.007 184.09 216.229 183.069C224.474 182.049 228.58 179.457 232.921 176.709C237.24 173.983 241.693 171.156 250.331 170.091C258.991 169.025 263.309 170.775 267.482 172.458C271.621 174.14 275.536 175.733 283.759 174.712C292.004 173.692 296.098 171.1 300.439 168.352C304.747 165.626 309.212 162.799 317.838 161.734C326.621 160.645 332.107 164.65 337.424 168.52C342.685 172.357 347.665 175.98 355.753 174.982L356.471 174.892L358.961 186.558L369.461 212.224L368.429 212.403C359.623 213.895 355.125 212.37 350.773 210.9C346.443 209.431 342.348 208.051 333.969 209.464C325.567 210.889 321.495 213.66 317.176 216.599C312.891 219.515 308.471 222.533 299.688 224.014C290.871 225.505 286.373 223.98 282.031 222.51C277.701 221.052 273.607 219.661 265.227 221.075C256.826 222.499 252.742 225.27 248.424 228.209C244.138 231.125 239.707 234.143 230.924 235.624C222.107 237.116 217.609 235.59 213.256 234.121C208.926 232.662 204.832 231.271 196.453 232.685C185.448 234.547 176.687 239.606 170.293 243.297C166.692 245.383 164.09 246.886 162.127 247.234C161.285 247.413 160.556 247.458 159.951 247.458ZM159.894 245.697C160.422 245.697 161.072 245.663 161.824 245.54C163.473 245.248 166.098 243.734 169.418 241.816C175.924 238.058 184.842 232.909 196.161 230.991C204.978 229.499 209.476 231.025 213.829 232.494C218.159 233.952 222.253 235.343 230.633 233.93C239.046 232.505 243.118 229.734 247.436 226.795C251.722 223.879 256.152 220.861 264.936 219.381C273.753 217.889 278.251 219.414 282.592 220.884C286.922 222.353 291.017 223.733 299.396 222.32C307.798 220.895 311.87 218.124 316.189 215.185C320.474 212.269 324.894 209.251 333.677 207.77C342.483 206.279 346.981 207.804 351.334 209.274C355.484 210.676 359.421 212 367.094 210.867L358.221 185.997L355.237 176.844C346.869 177.629 341.541 173.736 336.381 169.978C331.119 166.142 326.139 162.519 318.051 163.517C309.817 164.538 305.712 167.129 301.382 169.878C297.074 172.603 292.61 175.43 283.983 176.496C275.323 177.562 271.005 175.823 266.832 174.129C262.692 172.446 258.777 170.853 250.566 171.874C242.321 172.895 238.227 175.486 233.886 178.235C229.567 180.96 225.113 183.787 216.476 184.853C207.805 185.919 203.497 184.169 199.324 182.486C195.185 180.803 191.27 179.211 183.048 180.231C173.524 181.409 162.575 185.504 150.517 192.402C149.619 192.918 149.316 193.087 149.126 193.154C148.576 193.356 143.64 195.902 138.458 198.606L152.457 200.95C152.816 201.006 153.097 201.242 153.231 201.578C153.366 201.915 153.299 202.308 153.063 202.599L144.582 213.177L166.67 221.994C166.973 222.084 167.197 222.308 167.309 222.611C167.433 222.948 167.365 223.34 167.13 223.621L167.062 223.699L153.13 234.031L165.885 235.209C166.244 235.242 166.569 235.467 166.715 235.803C166.861 236.14 166.816 236.544 166.591 236.846L159.894 245.697Z" fill="#0D0D0D"/>
<path d="M424.539 187.848C423.205 187.848 421.959 187.769 420.782 187.612C420.4 187.556 420.131 187.209 420.176 186.816C420.232 186.434 420.58 186.165 420.972 186.21C426.334 186.928 433.401 185.93 442.028 183.226C438.202 182.576 430.586 181.532 421.41 181.701C421.017 181.701 420.703 181.398 420.692 181.005C420.681 180.613 420.995 180.298 421.387 180.287C434.77 180.052 444.899 182.34 445 182.363C445.303 182.43 445.527 182.699 445.55 183.013C445.561 183.327 445.37 183.619 445.068 183.72C436.968 186.468 430.092 187.848 424.539 187.848Z" fill="#0D0D0D"/>
<path d="M442.431 182.06C442.139 183.866 440.636 185.324 439.054 185.324C437.472 185.324 436.429 183.866 436.721 182.06" fill="#0D0D0D"/>
<path d="M449.363 181.712H449.352C448.836 181.701 448.32 181.69 447.793 181.679C447.512 181.679 447.288 181.443 447.288 181.163C447.288 180.882 447.524 180.658 447.793 180.658C447.793 180.658 447.793 180.658 447.804 180.658C448.331 180.669 448.859 180.68 449.375 180.691C449.655 180.703 449.879 180.938 449.868 181.219C449.857 181.499 449.633 181.712 449.363 181.712Z" fill="#0D0D0D"/>
<path d="M450.765 187.298C450.518 187.298 450.294 187.108 450.26 186.861C450.226 186.58 450.417 186.322 450.697 186.289C454.444 185.806 458.696 184.797 463.362 183.305C460.546 182.8 454.792 181.925 447.579 181.723C447.299 181.712 447.074 181.476 447.085 181.196C447.097 180.915 447.332 180.691 447.613 180.702C458 180.994 465.404 182.665 465.482 182.677C465.707 182.733 465.864 182.923 465.875 183.148C465.886 183.372 465.751 183.585 465.527 183.653C460.075 185.503 455.128 186.726 450.832 187.287C450.81 187.298 450.787 187.298 450.765 187.298Z" fill="#0D0D0D"/>
<path d="M463.239 182.677C462.958 184.427 461.938 185.369 460.636 185.369C459.335 185.369 458.505 183.956 458.774 182.206" fill="#0D0D0D"/>
<path d="M428.23 230.138C424.674 230.138 417.383 228.141 407.163 225.225C403.204 224.092 399.457 223.026 396.641 222.342C396.069 222.207 395.721 221.635 395.867 221.063C396.002 220.491 396.574 220.143 397.146 220.289C400.006 220.985 403.776 222.05 407.758 223.194C416.137 225.584 426.57 228.568 429.049 227.962C437.529 225.875 445.808 204.472 445.886 204.259C446.088 203.721 446.683 203.451 447.232 203.642L463.644 209.498L447.704 182.161C447.412 181.656 447.58 181.005 448.085 180.713C448.59 180.422 449.24 180.59 449.532 181.095L466.931 210.934C467.155 211.315 467.11 211.797 466.83 212.145C466.549 212.482 466.078 212.616 465.663 212.47L447.479 205.987C445.696 210.373 438.079 227.928 429.554 230.026C429.183 230.093 428.746 230.138 428.23 230.138Z" fill="#0D0D0D"/>
<path d="M442.835 213.166C438.718 213.166 430.081 207.557 428.263 206.346C427.781 206.02 427.647 205.37 427.972 204.876C428.297 204.394 428.948 204.259 429.441 204.585C433.984 207.613 441.242 211.607 443.16 211.012C443.721 210.844 444.305 211.147 444.484 211.708C444.652 212.269 444.349 212.852 443.789 213.031C443.508 213.121 443.183 213.166 442.835 213.166Z" fill="#0D0D0D"/>
<path d="M419.199 185.717C419.188 185.717 419.188 185.717 419.177 185.717L396.08 185.335C395.396 185.324 394.857 184.763 394.868 184.079C394.88 183.395 395.44 182.845 396.125 182.868L419.222 183.249C419.906 183.26 420.444 183.821 420.433 184.505C420.422 185.178 419.872 185.717 419.199 185.717Z" fill="#0D0D0D"/>
<path d="M431.908 197.652C427.892 197.652 424.269 196.104 421.958 193.39C419.861 190.922 418.997 187.725 419.524 184.382C419.737 183.058 420.152 181.757 420.78 180.512C423.506 175.027 429.575 171.347 435.868 171.347C439.873 171.347 443.496 172.895 445.807 175.599C447.904 178.066 448.779 181.263 448.241 184.606C447.108 191.808 439.772 197.652 431.908 197.652ZM435.868 172.772C430.181 172.772 424.505 176.216 422.048 181.151C421.487 182.273 421.117 183.44 420.926 184.618C420.455 187.545 421.207 190.339 423.035 192.481C425.077 194.87 428.307 196.239 431.908 196.239C439.11 196.239 445.818 190.922 446.861 184.393C447.332 181.465 446.57 178.672 444.741 176.53C442.7 174.14 439.469 172.772 435.868 172.772Z" fill="#0D0D0D"/>
<path d="M457.125 196.362C456.889 196.362 456.676 196.205 456.62 195.969C456.542 195.689 456.71 195.397 457.001 195.33C461.589 194.13 465.56 189.194 466.447 183.608C467.019 179.962 466.245 176.586 464.315 174.32C462.891 172.648 460.995 171.773 458.819 171.773C456.844 171.773 454.825 172.514 452.974 173.916C452.739 174.095 452.413 174.05 452.234 173.815C452.055 173.579 452.099 173.254 452.335 173.074C454.365 171.526 456.609 170.719 458.819 170.719C461.264 170.719 463.508 171.751 465.112 173.635C467.243 176.126 468.107 179.827 467.479 183.776C466.514 189.856 462.307 195.027 457.259 196.351C457.215 196.362 457.17 196.362 457.125 196.362Z" fill="#0D0D0D"/>
<path d="M462.454 160.668C462.016 160.668 461.601 160.432 461.377 160.029C461.254 159.793 448.309 136.763 425.526 130.425C419.558 128.765 408.901 129.898 393.858 133.791C393.197 133.959 392.524 133.566 392.355 132.904C392.187 132.243 392.58 131.57 393.241 131.401C408.711 127.397 419.793 126.275 426.187 128.047C438.639 131.514 448.129 139.691 453.906 145.951C460.143 152.715 463.407 158.582 463.542 158.828C463.867 159.423 463.654 160.174 463.06 160.5C462.869 160.612 462.656 160.668 462.454 160.668Z" fill="#0D0D0D"/>
<path d="M395.104 232.337C392.512 232.337 389.293 231.821 385.737 230.105C380.139 227.401 375.002 222.331 370.447 215.028C364.76 205.886 358.938 192.459 355.236 176.597C354.653 175.554 349.886 166.019 339.824 151.279C339.7 151.099 339.667 150.875 339.723 150.673C339.779 150.471 339.936 150.303 340.138 150.213C340.272 150.157 353.285 144.705 369.281 139.231C369.651 139.108 370.066 139.298 370.189 139.68C370.313 140.05 370.122 140.465 369.741 140.589C356.078 145.255 344.58 149.922 341.506 151.189C351.815 166.333 356.796 175.542 356.852 175.655C356.885 175.711 356.818 175.733 356.829 175.8C365.074 211.169 377.806 224.642 386.32 228.781C392.333 231.698 397.37 230.901 399.647 230.273C397.583 228.837 393.242 225.55 389.259 220.873C382.103 212.482 379.657 203.642 382.192 195.319C382.304 194.938 382.708 194.725 383.09 194.848C383.471 194.96 383.684 195.364 383.561 195.745C381.138 203.676 383.415 211.809 390.325 219.919C395.541 226.033 401.565 229.836 401.621 229.869C401.845 230.004 401.969 230.262 401.958 230.52C401.946 230.778 401.789 231.013 401.554 231.126C401.386 231.215 398.929 232.337 395.104 232.337Z" fill="#0D0D0D"/>
<path d="M341.292 167.163C341.113 167.163 340.933 167.073 340.844 166.905C338.163 162.44 333.698 155.272 327.685 146.477C327.596 146.343 327.573 146.186 327.618 146.029C327.663 145.872 327.775 145.748 327.921 145.692C328.347 145.513 371.154 127.609 397.964 123.908C398.255 123.874 398.524 124.065 398.558 124.356C398.603 124.648 398.401 124.917 398.109 124.951C373.162 128.383 334.214 144.223 328.919 146.41C334.753 154.98 339.105 161.969 341.741 166.355C341.887 166.602 341.808 166.927 341.562 167.084C341.472 167.14 341.382 167.163 341.292 167.163Z" fill="#0D0D0D"/>
<path d="M398.01 227.94C397.842 227.94 397.685 227.872 397.561 227.749C397.315 227.502 397.326 227.098 397.573 226.851C398.941 225.528 400.568 223.946 402.744 221.938C403.002 221.703 403.395 221.714 403.641 221.972C403.877 222.23 403.866 222.622 403.608 222.869C403.585 222.892 401.196 225.102 398.459 227.76C398.324 227.872 398.167 227.94 398.01 227.94Z" fill="#0D0D0D"/>
<path d="M417.281 266.932C416.978 266.932 416.686 266.73 416.608 266.416C413.388 254.974 408.093 237.362 406.725 235.769C406.366 235.343 405.435 234.491 403.102 232.808C402.788 232.584 402.709 232.146 402.945 231.821C403.169 231.507 403.606 231.428 403.932 231.664C405.928 233.1 407.196 234.143 407.802 234.85C409.821 237.194 417.146 263.084 417.976 266.023C418.077 266.393 417.864 266.786 417.494 266.887C417.404 266.921 417.337 266.932 417.281 266.932Z" fill="#0D0D0D"/>
<path d="M326.688 204.932C322.19 204.932 319.262 203.497 316.402 202.094C312.958 200.4 309.705 198.819 303.872 199.469C303.681 199.492 303.501 199.357 303.479 199.155C303.457 198.965 303.591 198.785 303.793 198.763C309.839 198.078 313.328 199.795 316.716 201.455C320.541 203.328 324.153 205.101 331.299 203.766C336.986 202.7 339.936 199.974 343.055 197.069C346.667 193.715 350.761 189.923 359.78 188.241C359.971 188.207 360.15 188.33 360.195 188.521C360.229 188.712 360.105 188.891 359.915 188.936C351.098 190.585 347.261 194.141 343.537 197.596C340.34 200.569 337.311 203.362 331.433 204.461C329.65 204.787 328.09 204.932 326.688 204.932Z" fill="#0D0D0D"/>
<path d="M441.691 179.222C441.668 179.222 441.646 179.222 441.623 179.222L424.718 177.169C424.427 177.135 424.225 176.866 424.259 176.585C424.292 176.294 424.561 176.092 424.842 176.125L441.747 178.178C442.038 178.212 442.24 178.481 442.207 178.762C442.184 179.02 441.96 179.222 441.691 179.222Z" fill="#0D0D0D"/>
<path d="M459.974 179.85C459.952 179.85 459.929 179.85 459.907 179.85L447.141 178.302C446.85 178.268 446.648 177.999 446.681 177.718C446.715 177.427 446.984 177.225 447.265 177.259L460.03 178.807C460.322 178.84 460.524 179.109 460.49 179.39C460.468 179.648 460.243 179.85 459.974 179.85Z" fill="#0D0D0D"/>
<path d="M765.833 441.69C764.689 441.69 763.746 440.771 763.724 439.615C763.701 438.448 764.633 437.484 765.799 437.461C833.452 436.194 876.36 434.657 893.343 432.907C902.934 431.92 905.974 420.904 905.671 413.736C904.392 382.899 879.332 349.998 838.657 325.723C797.949 301.403 677.539 275.895 619.679 263.623C596.941 258.81 586.8 256.634 584.714 255.591C582.897 254.693 577.266 255.075 560.776 262.019C547.965 267.414 531.15 275.659 513.337 284.375C507.223 287.37 500.907 290.466 494.48 293.585C472.785 304.096 411.021 326.733 365.141 334.439L365.007 334.462C328.718 338.264 300.764 338.926 281.907 336.436C264.452 334.125 254.312 329.167 250.901 321.292C243.173 303.423 273.752 277.005 296.086 257.711C304.847 250.307 310.198 245.226 312.935 242.287C302.861 243.577 277.835 246.022 251.586 248.591C217.899 251.878 183.08 255.288 176.237 256.589L175.968 256.623C173.556 256.937 138.681 261.536 96.1551 270.578C55.7494 279.17 -0.0243378 293.63 -36.2459 313.765C-63.1344 328.696 -82.1369 344.064 -92.7375 359.466C-101.027 371.502 -104.46 383.785 -103.226 397.011C-102.351 406.344 -85.7154 414.712 -56.3702 420.59C-31.3662 425.593 2.70155 428.588 34.7614 428.588C35.928 428.588 36.8702 429.531 36.8702 430.697C36.8702 431.864 35.928 432.806 34.7614 432.806C1.94997 432.806 -31.5681 429.867 -57.2003 424.729C-89.4396 418.268 -106.344 409.081 -107.433 397.392C-108.767 383.146 -105.099 369.954 -96.2262 357.065C-85.0984 340.9 -66.1519 325.521 -38.3099 310.063C-1.61723 289.67 54.6052 275.076 95.3026 266.427C138.905 257.161 174.51 252.54 175.542 252.416C182.777 251.07 217.54 247.671 251.171 244.384C280.729 241.49 311.286 238.506 316.02 237.553C317.657 237.228 318.667 238.002 319.071 238.843C319.845 240.436 319.228 242.096 313.518 247.727C309.94 251.261 304.858 255.826 298.823 260.919C288.873 269.512 275.232 281.29 265.787 292.373C255.759 304.152 252.046 313.316 254.772 319.598C257.497 325.914 266.819 330.154 282.456 332.229C300.965 334.675 328.572 334.013 364.491 330.255C409.967 322.605 471.136 300.192 492.618 289.782C499.034 286.675 505.35 283.579 511.452 280.584C529.31 271.834 546.182 263.567 559.104 258.126C574.338 251.71 582.549 249.825 586.565 251.811C588.27 252.652 603.212 255.826 620.532 259.495C650.18 265.776 694.994 275.278 737.385 286.237C788.156 299.362 822.953 311.432 840.811 322.1C862.08 334.787 879.658 350.166 891.627 366.578C902.934 382.058 909.238 398.301 909.878 413.557C910.326 424.393 904.942 435.958 893.758 437.114C876.662 438.875 833.632 440.412 765.855 441.69C765.855 441.69 765.844 441.69 765.833 441.69Z" fill="#0D0D0D"/>
<path d="M449.363 181.712H449.352C448.836 181.701 448.32 181.69 447.793 181.679C447.512 181.679 447.288 181.443 447.288 181.163C447.288 180.882 447.524 180.658 447.793 180.658C447.793 180.658 447.793 180.658 447.804 180.658C448.331 180.669 448.859 180.68 449.375 180.691C449.655 180.703 449.879 180.938 449.868 181.219C449.857 181.499 449.633 181.712 449.363 181.712Z" fill="#0D0D0D"/>
<path d="M296.199 190.092C291.566 190.092 288.694 188.757 285.901 187.467C282.322 185.806 278.935 184.236 271.924 185.268C266.685 186.031 263.544 187.691 261.39 189.048C261.144 189.205 260.818 189.127 260.661 188.88C260.504 188.633 260.583 188.308 260.83 188.151C264.161 186.053 267.538 184.83 271.778 184.214C279.103 183.137 282.794 184.853 286.361 186.502C289.939 188.162 293.327 189.733 300.338 188.701C307.371 187.669 310.837 185.088 314.494 182.363C318.095 179.67 321.831 176.888 329.133 175.823C336.458 174.746 340.149 176.462 343.716 178.111C347.306 179.771 349.695 181.185 356.706 180.164C356.998 180.119 357.267 180.321 357.301 180.613C357.346 180.904 357.144 181.174 356.852 181.207C349.527 182.284 346.823 180.725 343.256 179.065C339.678 177.404 336.29 175.834 329.279 176.866C322.246 177.898 318.78 180.478 315.123 183.204C311.522 185.896 307.786 188.678 300.484 189.744C298.902 189.991 297.477 190.092 296.199 190.092Z" fill="#0D0D0D"/>
<path d="M383.316 194.203L382.382 194.844L383.385 196.306L384.319 195.664L383.316 194.203Z" fill="#0D0D0D"/>
<path d="M446.031 166.658L453.872 175.531C453.939 175.576 454.04 175.531 454.04 175.441C454.04 175.441 461.657 167.948 462.072 168.15L493.918 183.439C494.031 183.484 494.131 183.327 494.042 183.271L460.277 160.735C460.221 160.713 460.131 160.668 460.064 160.645C457.865 158.974 452.447 159.31 448.543 159.333H448.476C434.925 159.209 421.049 163.954 413.331 167.107C413.309 167.118 413.298 167.118 413.275 167.129C410.202 168.576 407.094 170.27 403.998 172.244L403.976 172.255L403.953 172.267L393.88 179.839C393.858 179.85 393.846 179.861 393.824 179.883C393.241 180.399 392.646 180.927 392.063 181.476C390.537 182.89 389.214 184.292 388.047 185.694L388.036 185.705C387.901 185.851 387.789 186.008 387.666 186.154C387.632 186.188 387.609 186.233 387.587 186.277C386.992 187.41 385.287 190.776 384.076 193.401C383.784 194.029 383.526 194.612 383.313 195.106C382.831 196.261 382.618 196.968 382.943 196.743L425.054 167.252C425.323 167.062 425.671 167.073 425.873 167.275L434.196 177.247C434.23 177.281 435.295 177.247 435.295 177.247C435.329 177.281 435.396 177.27 435.441 177.225L445.38 166.938C445.627 166.703 445.986 166.669 446.221 166.837" fill="#F9AC12"/>
<path d="M382.899 197.674C382.663 197.674 382.45 197.585 382.315 197.473C381.676 196.957 381.968 196.149 382.551 194.769C382.798 194.197 383.056 193.614 383.325 193.03C384.537 190.405 386.253 187.018 386.847 185.874C386.892 185.784 386.948 185.694 387.016 185.616C387.128 185.47 387.251 185.324 387.375 185.178L387.453 185.088C388.642 183.664 389.999 182.228 391.503 180.848C392.041 180.343 392.624 179.827 393.275 179.244C393.309 179.21 393.353 179.177 393.387 179.154L403.539 171.515C406.512 169.608 409.675 167.869 412.917 166.344L413.007 166.299C420.298 163.315 434.6 158.323 448.488 158.458H448.544C449.037 158.458 449.554 158.447 450.092 158.435C453.951 158.368 458.326 158.301 460.524 159.882L460.782 160.006L494.973 181.891C495.4 182.161 495.108 183.372 494.861 183.832C494.603 184.292 494.042 184.483 493.571 184.269L462.117 169.159C461.063 169.967 457.742 173.086 454.792 175.98C454.68 176.148 454.523 176.283 454.332 176.361C454.007 176.507 453.626 176.451 453.345 176.238L453.222 176.126L445.863 167.791L436.149 177.842C435.958 178.044 435.7 178.156 435.419 178.156C435.363 178.156 435.296 178.145 435.24 178.133C434.197 178.167 433.95 178.167 433.658 177.898L433.58 177.819L425.469 168.105L383.527 197.484C383.291 197.618 383.089 197.674 382.899 197.674ZM388.709 186.334C388.597 186.457 388.496 186.592 388.395 186.715C387.812 187.825 386.118 191.179 384.918 193.771C384.794 194.029 384.682 194.287 384.57 194.545L424.583 166.523C425.211 166.086 426.03 166.131 426.535 166.647L426.58 166.703L434.657 176.372C434.78 176.372 434.926 176.372 435.072 176.361L444.809 166.288C445.381 165.76 446.211 165.704 446.783 166.131L446.76 166.164L453.94 174.297C461.478 166.905 461.803 167.062 462.443 167.365L484.283 177.853L459.818 161.531L459.582 161.43L459.504 161.363C457.832 160.084 453.536 160.163 450.092 160.208C449.554 160.219 449.026 160.23 448.522 160.23H448.454C434.847 160.107 420.814 165.009 413.646 167.937C410.46 169.44 407.375 171.134 404.47 173.007L394.419 180.568C393.78 181.14 393.208 181.645 392.68 182.138C391.233 183.484 389.921 184.864 388.777 186.233L388.709 186.334ZM493.538 184.011C493.549 184.011 493.549 184.023 493.56 184.023L493.538 184.011Z" fill="#0D0D0D"/>
</g>
<path d="M462.152 253H358.85C349.55 253 342.001 245.462 342.001 236.151V132.849C342.001 123.549 349.539 116 358.85 116H462.152C471.452 116 479.001 123.538 479.001 132.849V236.151C479.001 245.451 471.463 253 462.152 253Z" stroke="#0D0D0D" stroke-width="3" stroke-miterlimit="10"/>
<mask id="mask2_0_1" style="mask-type:luminance" maskUnits="userSpaceOnUse" x="1508" y="116" width="138" height="138">
<path d="M1524.85 253H1628.15C1637.45 253 1645 245.462 1645 236.151V132.849C1645 123.549 1637.46 116 1628.15 116H1524.85C1515.55 116 1508 123.538 1508 132.849V236.151C1508.01 245.451 1515.55 253 1524.85 253Z" fill="white"/>
</mask>
<g mask="url(#mask2_0_1)">
<path d="M1503.08 100.935H1655.95V257.767H1503.08V100.935Z" fill="url(#paint1_linear_0_1)"/>
</g>
<mask id="mask3_0_1" style="mask-type:luminance" maskUnits="userSpaceOnUse" x="1508" y="116" width="138" height="138">
<path d="M1524.85 253H1628.15C1637.45 253 1645 245.462 1645 236.151V132.849C1645 123.549 1637.46 116 1628.15 116H1524.85C1515.55 116 1508 123.538 1508 132.849V236.151C1508.01 245.451 1515.55 253 1524.85 253Z" fill="white"/>
</mask>
<g mask="url(#mask3_0_1)">
<path d="M1658.41 252.248L1620.94 217.07C1620.94 217.07 1650.95 138.457 1565.11 127.06C1565.11 127.06 1534.72 131.233 1529.4 150.606L1527.89 155.542C1527.89 155.542 1522.19 157.819 1522.19 162.373C1522.19 166.928 1527.13 165.795 1527.13 165.795L1523.32 185.549L1533.21 176.059L1537.01 187.837L1534.14 188.813L1536.25 188.981L1537.18 192.19L1527.89 192.784C1527.89 192.784 1531.6 196.755 1538.02 195.229L1547.64 212.448L1545.75 217.093L1548.83 215.657C1548.83 215.657 1559.04 228.86 1563.22 228.86C1567.4 228.86 1571.96 227.637 1571.96 227.637L1577.28 234.558L1552.47 245.451L1511.01 259.708L1503.6 242.915L1500.94 123.661L1511.2 106.566L1562.47 99.7343L1612.96 96.6831C1612.96 96.6831 1649.04 103.515 1650.18 103.515C1651.33 103.515 1668.03 128.586 1668.03 133.14C1668.03 137.695 1678.66 199.223 1678.66 201.5C1678.66 203.777 1665.37 240.997 1665.37 240.997L1658.41 252.248Z" fill="#FFCF52"/>
</g>
<mask id="mask4_0_1" style="mask-type:luminance" maskUnits="userSpaceOnUse" x="1508" y="116" width="138" height="138">
<path d="M1524.85 253H1628.15C1637.45 253 1645 245.462 1645 236.151V132.849C1645 123.549 1637.46 116 1628.15 116H1524.85C1515.55 116 1508 123.538 1508 132.849V236.151C1508.01 245.451 1515.55 253 1524.85 253Z" fill="white"/>
</mask>
<g mask="url(#mask4_0_1)">
<path d="M1528.57 151.672C1528.98 151.672 1529.36 151.425 1529.51 151.021C1529.54 150.965 1531.78 145.199 1537.41 139.624C1544.93 132.187 1554.61 128.575 1566.17 128.889C1567.24 128.99 1595.6 131.929 1609 147.914C1609.36 148.34 1609.99 148.396 1610.42 148.037C1610.84 147.678 1610.9 147.05 1610.54 146.624C1603.14 137.796 1591.49 132.894 1583.02 130.336C1573.9 127.588 1566.62 126.904 1566.31 126.881C1566.29 126.881 1566.26 126.881 1566.24 126.881C1551.06 126.455 1541.37 132.838 1535.91 138.256C1530 144.134 1527.7 150.057 1527.61 150.303C1527.41 150.819 1527.67 151.403 1528.19 151.605C1528.33 151.661 1528.45 151.672 1528.57 151.672Z" fill="#0D0D0D"/>
<path d="M1668.66 233.459C1668.01 233.392 1667.67 234.099 1668.1 234.637C1672.54 240.336 1677.86 248.906 1678.2 258.654C1679.35 290.871 1625.36 314.742 1580.05 314.607C1547 314.506 1515.59 301.55 1505.93 297.568C1493.16 292.295 1489.61 289.48 1471.35 280.528C1435.72 263.051 1404.49 246.416 1397.58 249.803C1391.13 252.967 1250.31 274.078 1205.67 300.372C1169.3 321.775 1152.01 355.72 1150.48 379.187C1150.01 386.478 1153.15 395.598 1161.59 396.473C1178.89 398.257 1209.41 399.434 1248.17 400.164C1243.98 393.747 1240.64 386.759 1238.34 379.411C1238.12 378.671 1237.89 377.942 1237.68 377.19C1237.36 376.08 1237.07 374.947 1236.8 373.825C1236.62 373.073 1236.46 372.31 1236.31 371.548C1236.15 370.785 1236.01 370.022 1235.87 369.259C1235.67 368.104 1235.5 366.948 1235.34 365.782L1235.3 365.412C1235.28 365.21 1235.25 365.019 1235.23 364.817C1235.2 364.503 1235.15 364.178 1235.13 363.864C1235.1 363.572 1235.08 363.28 1235.04 362.989C1235.03 362.888 1235.02 362.809 1235.03 362.686C1235.05 362.45 1234.99 362.203 1234.95 361.968C1234.95 361.957 1234.95 361.957 1234.95 361.945C1234.93 361.631 1234.91 361.317 1234.88 361.014C1234.86 360.7 1234.84 360.386 1234.83 360.072C1234.82 359.78 1234.79 359.5 1234.78 359.219C1234.76 358.647 1234.75 358.087 1234.74 357.526C1234.74 357.526 1234.74 357.526 1234.74 357.514C1234.73 357.245 1234.73 356.976 1234.73 356.707C1234.73 356.168 1234.73 355.641 1234.74 355.114C1234.74 355.114 1234.74 355.114 1234.74 355.103C1234.74 354.856 1234.75 354.598 1234.75 354.351C1234.76 353.846 1234.78 353.353 1234.81 352.859C1234.81 352.859 1234.81 352.859 1234.81 352.848C1234.83 352.377 1234.85 351.906 1234.88 351.435C1236.86 321.708 1257.24 298.443 1286.22 292.901H1286.23C1286.95 292.767 1287.67 292.632 1288.4 292.52C1288.4 292.52 1288.4 292.52 1288.41 292.52C1288.93 292.43 1289.45 292.363 1289.97 292.295C1290.5 292.228 1291.02 292.161 1291.56 292.094C1292.39 291.993 1293.23 291.914 1294.07 291.858C1295.95 291.712 1297.86 291.634 1299.8 291.634C1340.62 291.634 1378.05 324.838 1383.43 365.793C1385.11 378.615 1383.44 390.674 1379.1 401.196C1509.95 401.252 1656.76 399.289 1705.16 398.582C1703.79 396.417 1702.52 394.196 1701.34 391.919C1701.05 391.358 1700.77 390.786 1700.49 390.214C1700.08 389.372 1699.68 388.52 1699.3 387.667C1699.09 387.196 1698.89 386.725 1698.69 386.254C1697.6 383.685 1696.63 381.06 1695.8 378.379C1695.66 377.908 1695.51 377.426 1695.38 376.943C1694.82 375.025 1694.33 373.073 1693.92 371.11C1693.8 370.493 1693.67 369.876 1693.56 369.248C1693.35 368.081 1693.16 366.915 1693 365.748C1692.9 364.997 1692.8 364.245 1692.73 363.505C1692.71 363.291 1692.68 363.09 1692.66 362.876C1692.63 362.574 1692.6 362.271 1692.57 361.968C1692.52 361.351 1692.47 360.745 1692.44 360.139C1692.42 359.792 1692.39 359.444 1692.38 359.096C1692.34 358.266 1692.31 357.425 1692.3 356.595C1692.29 355.821 1692.29 355.047 1692.3 354.273C1692.31 353.285 1692.36 352.309 1692.42 351.334C1692.44 350.896 1692.47 350.447 1692.51 350.01C1694.58 322.818 1712.21 301.258 1737.82 294.146C1738.24 294.034 1738.65 293.922 1739.07 293.81C1739.07 293.81 1739.07 293.81 1739.08 293.81C1739.94 293.585 1740.81 293.384 1741.68 293.193C1742.38 293.036 1743.09 292.901 1743.8 292.767C1744.04 292.722 1744.29 292.677 1744.52 292.643C1745.03 292.553 1745.52 292.475 1746.02 292.408C1746.29 292.363 1746.56 292.329 1746.84 292.295C1747.65 292.183 1748.46 292.082 1749.28 292.004C1749.55 291.97 1749.83 291.948 1750.1 291.925C1752.34 291.723 1754.62 291.622 1756.94 291.634C1798.15 291.768 1835.84 325.32 1841.22 366.657C1842.43 375.945 1841.87 384.829 1839.8 393.007C1887.95 393.007 1918.58 388.385 1938.06 382.395C1945.96 379.961 1951.84 373.937 1953.83 365.916C1958.18 348.316 1948.09 323.705 1900.49 296.917C1844.17 265.171 1727.37 242.288 1727.37 242.288H1727.36C1716.65 240.235 1705.48 238.339 1693.9 236.668C1685.21 235.4 1676.81 234.345 1668.66 233.459Z" fill="#2E29FF"/>
<path d="M1577.96 196.217C1584.41 196.217 1590.85 195.667 1592.11 193.57C1592.43 193.345 1592.41 193.054 1592.39 192.93C1592.29 192.504 1592.15 191.921 1582.08 191.977C1580.42 192.022 1565.88 192.448 1563.19 194.59L1562.92 194.803L1563.02 195.129C1563.14 195.521 1563.14 195.521 1566.67 195.779C1569.45 195.97 1573.71 196.217 1577.96 196.217ZM1591.08 193.278C1590.32 194.041 1587.53 195.252 1577.28 195.196C1572.6 195.174 1567.92 194.882 1565.43 194.68C1569.4 193.558 1578.39 193.076 1582.09 192.986C1585.69 192.953 1589.64 193.065 1591.08 193.278Z" fill="#0D0D0D"/>
<path d="M1563.04 190.833C1563.07 190.833 1563.09 190.833 1563.11 190.833L1588.97 188.264C1589.34 188.23 1589.61 187.894 1589.57 187.535C1589.54 187.164 1589.2 186.895 1588.84 186.929L1562.99 189.498C1562.62 189.531 1562.35 189.868 1562.38 190.227C1562.42 190.575 1562.71 190.833 1563.04 190.833Z" fill="#0D0D0D"/>
<path d="M1552.21 190.025C1552.57 190.025 1552.86 189.744 1552.88 189.386C1552.89 189.015 1552.61 188.701 1552.24 188.69L1531.12 187.849C1530.75 187.837 1530.43 188.118 1530.42 188.488C1530.41 188.858 1530.69 189.172 1531.06 189.184L1552.19 190.025C1552.19 190.025 1552.2 190.025 1552.21 190.025Z" fill="#0D0D0D"/>
<path d="M1540.92 195.869C1547.42 195.869 1553.81 195.174 1553.92 195.151C1554.25 195.084 1554.34 194.871 1554.36 194.747L1554.43 194.422L1554.16 194.231C1551.15 192.066 1537.13 191.651 1536.54 191.629C1527.59 191.562 1527.46 192.145 1527.36 192.56C1527.33 192.695 1527.32 192.997 1527.7 193.244C1529.28 195.308 1535.15 195.869 1540.92 195.869ZM1552.02 194.366C1546.74 194.86 1531.7 195.589 1528.74 192.896C1530.1 192.706 1533.46 192.605 1536.53 192.627C1539.89 192.728 1548.18 193.222 1552.02 194.366Z" fill="#0D0D0D"/>
<path d="M1546.41 217.508C1546.57 217.508 1546.72 217.474 1546.88 217.418L1562.33 211.114C1562.75 210.934 1562.97 210.452 1562.79 210.026C1562.61 209.6 1562.12 209.386 1561.7 209.566L1547.1 215.522L1557.22 193.267C1557.41 192.84 1557.22 192.347 1556.81 192.156C1556.38 191.966 1555.89 192.156 1555.7 192.571L1545.2 215.668C1544.98 216.139 1545.08 216.7 1545.47 217.093C1545.71 217.362 1546.06 217.508 1546.41 217.508Z" fill="#0D0D0D"/>
<path d="M1561.78 220.02C1564.15 220.02 1566.66 219.695 1568.07 218.529C1568.36 218.293 1568.39 217.867 1568.16 217.586C1567.92 217.306 1567.5 217.261 1567.22 217.496C1566.14 218.383 1563.99 218.686 1561.62 218.686C1571.19 216.722 1575.42 213.279 1575.62 213.099C1575.9 212.864 1575.94 212.437 1575.7 212.157C1575.46 211.876 1575.04 211.832 1574.75 212.067C1574.7 212.112 1569.1 216.655 1556.35 218.158C1556 218.203 1555.74 218.484 1555.73 218.843C1555.72 219.19 1555.98 219.504 1556.32 219.561C1557.33 219.718 1559.5 220.02 1561.78 220.02Z" fill="#0D0D0D"/>
<path d="M1565.98 229.668C1567.89 229.668 1570.22 229.443 1572.99 229.006L1573.07 228.995C1577.42 228.299 1581.16 227.323 1581.32 227.29C1581.86 227.144 1582.17 226.594 1582.04 226.067C1581.89 225.528 1581.34 225.214 1580.81 225.349C1580.78 225.36 1577.05 226.325 1572.84 226.998L1572.75 227.009C1564.65 228.31 1562.3 227.312 1561.66 226.83C1559.62 225.259 1555.95 221.972 1552.32 217.867C1551.95 217.452 1551.32 217.418 1550.91 217.777C1550.49 218.147 1550.46 218.775 1550.82 219.19C1554.54 223.397 1558.33 226.785 1560.44 228.411C1561.53 229.253 1563.36 229.668 1565.98 229.668Z" fill="#0D0D0D"/>
<path d="M1546.09 210.62C1546.32 210.62 1546.55 210.542 1546.74 210.385C1547.17 210.026 1547.22 209.386 1546.87 208.971C1543.45 204.933 1541.08 201.029 1539.81 197.383C1539.63 196.856 1539.06 196.576 1538.53 196.766C1538.01 196.946 1537.73 197.518 1537.92 198.045C1539.26 201.927 1541.75 206.043 1545.33 210.272C1545.52 210.497 1545.8 210.62 1546.09 210.62Z" fill="#0D0D0D"/>
<path d="M1562.07 188.858C1562.1 188.858 1562.12 188.858 1562.16 188.858C1562.57 188.858 1562.97 188.623 1563.17 188.264L1568.98 178.213C1569.43 178.897 1569.95 179.727 1570.46 180.501C1575.44 188.208 1575.45 188.208 1576.27 188.241C1576.65 188.264 1577.02 188.084 1577.26 187.781C1577.31 187.714 1577.35 187.647 1577.39 187.568L1581.5 178.807C1583.52 180.097 1585.59 181.612 1587.6 183.081C1590.02 184.854 1592.54 186.693 1594.98 188.163C1595.4 188.421 1595.93 188.376 1596.32 188.073C1596.7 187.77 1596.85 187.254 1596.7 186.794L1593.55 177.069C1593.34 176.452 1592.68 176.115 1592.06 176.317C1591.45 176.519 1591.11 177.181 1591.31 177.798L1593.46 184.394C1591.96 183.373 1590.46 182.274 1588.98 181.197C1586.56 179.424 1584.04 177.596 1581.6 176.115C1581.32 175.947 1580.97 175.902 1580.66 175.992C1580.34 176.093 1580.07 176.317 1579.94 176.62L1576.09 184.82C1575.06 183.294 1573.5 180.883 1572.43 179.234C1571.75 178.179 1571.12 177.214 1570.66 176.508C1569.73 175.083 1569.55 174.836 1568.88 174.848C1568.47 174.859 1568.1 175.072 1567.89 175.42L1562.05 185.538C1560.66 183.418 1558.01 179.144 1555.62 175.229C1555.39 174.848 1554.97 174.634 1554.52 174.668C1553.78 174.724 1553.55 175.285 1553.31 175.88C1553.18 176.194 1553 176.631 1552.8 177.158C1552.4 178.202 1551.87 179.593 1551.36 180.984C1550.91 182.173 1550.47 183.362 1550.11 184.338C1548.82 182.094 1546.72 178.258 1545.18 175.386C1545.03 175.106 1544.76 174.881 1544.43 174.803C1543.6 174.59 1543.19 175.207 1542.92 175.622C1542.77 175.846 1542.56 176.16 1542.31 176.553C1541.81 177.327 1541.14 178.392 1540.41 179.525C1539.51 180.928 1538.35 182.734 1537.46 184.113L1535.37 175.465C1535.27 175.049 1534.96 174.724 1534.54 174.612C1533.81 174.41 1533.81 174.41 1528.95 178.987C1527.41 180.445 1525.79 181.982 1524.37 183.351C1524.98 179.94 1525.95 174.859 1526.77 171.763C1526.94 171.135 1526.55 170.495 1525.93 170.327C1525.3 170.159 1524.66 170.54 1524.49 171.168C1523.16 176.239 1521.49 186.099 1521.43 186.514C1521.35 187.019 1521.6 187.512 1522.04 187.748C1522.49 187.983 1523.04 187.905 1523.41 187.546C1526.33 184.697 1531.19 180.097 1533.55 177.921L1535.8 187.243C1535.89 187.636 1536.18 187.961 1536.57 188.096C1537.45 188.387 1537.87 187.759 1538.37 187.03C1538.64 186.637 1539.01 186.065 1539.44 185.403C1540.3 184.091 1541.39 182.375 1542.39 180.804C1542.95 179.929 1543.56 178.987 1544.04 178.224C1549.4 188.174 1549.55 188.163 1550.41 188.14C1550.85 188.129 1551.27 187.86 1551.46 187.467C1551.47 187.434 1551.48 187.4 1551.5 187.378C1552.5 184.685 1553.94 180.815 1554.84 178.46C1555.52 179.559 1556.4 180.995 1557.29 182.408C1561.16 188.612 1561.32 188.858 1562.07 188.858Z" fill="#0D0D0D"/>
<path d="M1624.49 230.823C1624.8 230.823 1625.1 230.722 1625.36 230.509C1625.93 230.038 1626 229.185 1625.53 228.624C1625.22 228.265 1618.11 219.785 1614.64 217.126C1614.7 216.251 1615.24 214.21 1615.76 212.236C1617.19 206.716 1619.6 197.473 1619.61 186.772C1619.63 173.838 1616.14 162.014 1609.23 151.649C1608.81 151.032 1607.98 150.864 1607.36 151.279C1606.75 151.694 1606.58 152.524 1606.99 153.141C1622.36 176.216 1616.15 200.087 1613.16 211.562C1612.03 215.892 1611.57 217.687 1612.38 218.787C1612.58 219.067 1612.86 219.269 1613.16 219.381C1616.45 221.995 1623.39 230.262 1623.47 230.352C1623.73 230.666 1624.11 230.823 1624.49 230.823Z" fill="#0D0D0D"/>
<path d="M1633.13 230.038C1633.29 230.038 1633.43 229.982 1633.56 229.881C1633.84 229.645 1633.88 229.219 1633.64 228.939C1633.33 228.58 1625.36 220.144 1621.98 217.609C1621.92 217.564 1621.86 217.53 1621.8 217.508C1621.69 216.824 1622.32 214.412 1622.92 212.067C1624.35 206.571 1626.75 197.384 1626.75 186.772C1626.76 173.973 1623.3 162.273 1616.47 152.031C1616.27 151.728 1615.86 151.638 1615.54 151.84C1615.24 152.042 1615.15 152.457 1615.35 152.771C1630.89 176.093 1624.63 200.166 1621.62 211.731C1620.5 216.05 1620.14 217.586 1620.72 218.383C1620.87 218.574 1621.06 218.708 1621.3 218.764C1624.61 221.333 1632.54 229.701 1632.6 229.791C1632.75 229.959 1632.94 230.038 1633.13 230.038Z" fill="#0D0D0D"/>
<path d="M1585.62 171.92C1588.5 171.92 1590.94 171.695 1592.73 171.538C1593.74 171.448 1594.53 171.37 1595.05 171.37H1595.23C1597.76 171.37 1602.63 168.992 1603.84 166.053C1604.37 164.785 1604.18 163.506 1603.31 162.373C1600.35 158.492 1587.92 155.598 1578.79 155.598C1577.5 155.598 1576.26 155.654 1575.11 155.766C1571.8 156.08 1568.68 156.529 1566.16 156.877C1563.91 157.202 1562.12 157.449 1561.32 157.449C1561.15 157.449 1561.09 157.438 1561.09 157.438C1560 157.18 1555.65 156.495 1555.47 156.473L1555.4 156.462H1555.34C1554.9 156.473 1551.03 156.54 1549.67 157.011C1549.67 157.011 1549.64 157.011 1549.58 157.011C1549.04 157.011 1547.83 156.708 1546.42 156.361C1543.51 155.643 1539.14 154.566 1534.74 154.566C1534.23 154.566 1533.72 154.577 1533.24 154.611C1525.62 155.059 1522.43 156.978 1521.85 161.442C1521.74 162.34 1522.01 163.181 1522.64 163.877C1524.33 165.761 1528.59 166.602 1536.44 166.602C1537.23 166.602 1538.03 166.591 1538.8 166.58C1544.61 166.479 1547.88 163.641 1549.83 161.947C1550.4 161.442 1550.91 161.016 1551.25 160.848C1552.45 160.276 1553.86 159.973 1555.3 159.973C1557.45 159.973 1559.42 160.691 1560.09 161.712C1562.44 165.256 1566.79 167.825 1566.97 167.937L1567 167.96L1567.04 167.971C1572.48 170.596 1578.75 171.92 1585.62 171.92Z" fill="#F2C553"/>
<path d="M1534.83 155.374C1534.35 155.374 1533.86 155.385 1533.37 155.419C1525.85 155.867 1523.13 157.707 1522.63 161.667C1522.18 165.2 1529.47 165.828 1536.3 165.828C1537.1 165.828 1537.88 165.817 1538.65 165.806C1546.03 165.683 1549.06 160.96 1550.79 160.141C1552.16 159.491 1553.7 159.188 1555.16 159.188C1557.59 159.188 1559.82 160.007 1560.71 161.341C1562.95 164.74 1567.27 167.264 1567.27 167.264C1573.82 170.394 1580.36 171.123 1585.52 171.123C1590 171.123 1593.44 170.573 1594.95 170.573C1594.98 170.573 1595.03 170.573 1595.06 170.573C1595.08 170.573 1595.1 170.573 1595.13 170.573C1598.21 170.573 1605.5 166.468 1602.71 162.8C1600.21 159.524 1588.58 156.394 1578.91 156.394C1577.66 156.394 1576.45 156.451 1575.29 156.552C1568.93 157.157 1563.21 158.245 1561.42 158.245C1561.24 158.245 1561.1 158.234 1561 158.212C1559.93 157.954 1555.44 157.258 1555.44 157.258C1555.44 157.258 1551.29 157.326 1550.01 157.763C1549.93 157.797 1549.82 157.808 1549.68 157.808C1547.84 157.819 1541.39 155.374 1534.83 155.374ZM1534.62 153.781C1539.12 153.781 1543.56 154.869 1546.5 155.598C1547.71 155.901 1548.97 156.204 1549.43 156.226C1550.94 155.766 1554.49 155.688 1555.2 155.677H1555.34L1555.47 155.699C1555.93 155.766 1559.93 156.394 1561.1 156.664C1561.13 156.664 1561.15 156.664 1561.19 156.664C1561.94 156.664 1563.8 156.406 1565.94 156.103C1568.46 155.744 1571.59 155.306 1574.92 154.981C1576.1 154.869 1577.36 154.813 1578.68 154.813C1588.04 154.813 1600.7 157.752 1603.92 161.958C1604.98 163.338 1605.21 164.931 1604.58 166.445C1603.24 169.721 1598.04 172.178 1595.34 172.178C1595.31 172.178 1595.27 172.178 1595.24 172.178H1595.16C1594.68 172.178 1593.86 172.256 1592.92 172.335C1591.12 172.503 1588.65 172.727 1585.74 172.727C1578.74 172.727 1572.34 171.37 1566.73 168.689L1566.67 168.655L1566.6 168.61C1566.41 168.498 1561.87 165.806 1559.41 162.082C1558.99 161.442 1557.44 160.769 1555.38 160.769C1554.05 160.769 1552.76 161.05 1551.65 161.577C1551.38 161.7 1550.87 162.149 1550.38 162.575C1548.36 164.336 1544.98 167.276 1538.9 167.376C1538.05 167.388 1537.28 167.399 1536.53 167.399C1528.3 167.399 1523.97 166.49 1522.06 164.359C1521.25 163.462 1520.9 162.373 1521.05 161.229C1521.36 158.75 1522.47 156.978 1524.41 155.8C1526.28 154.667 1529.03 154.039 1533.06 153.792C1533.56 153.792 1534.09 153.781 1534.62 153.781Z" fill="#0D0D0D"/>
<path d="M1501.39 261.2C1501.45 261.2 1501.51 261.189 1501.57 261.178C1504.09 260.516 1563.46 244.879 1572.08 236.746C1572.37 236.477 1572.38 236.039 1572.12 235.748C1571.85 235.467 1571.41 235.456 1571.12 235.714C1562.76 243.6 1501.83 259.641 1501.22 259.809C1500.85 259.91 1500.62 260.292 1500.72 260.673C1500.8 260.998 1501.08 261.2 1501.39 261.2Z" fill="#0D0D0D"/>
<path d="M1578.82 233.886C1579.02 233.886 1579.23 233.818 1579.41 233.695C1590.97 225.214 1603.81 209.835 1606.01 196.856C1606.1 196.307 1605.73 195.791 1605.19 195.701C1604.64 195.611 1604.12 195.981 1604.03 196.52C1602.17 207.502 1591.32 222.455 1578.23 232.068C1577.78 232.394 1577.69 233.022 1578.02 233.47C1578.21 233.74 1578.51 233.886 1578.82 233.886Z" fill="#0D0D0D"/>
<path d="M1577.75 249.916C1577.94 249.916 1578.13 249.86 1578.29 249.736C1580.06 248.379 1580.98 246.494 1581.05 244.161C1581.23 237.419 1574.01 228.928 1572.06 227.256L1571.82 227.043H1571.49C1571.01 227.043 1570.6 227.436 1570.6 227.918C1570.6 228.21 1570.74 228.456 1570.95 228.625C1572.76 230.206 1579.44 238.126 1579.29 244.116C1579.24 245.922 1578.56 247.302 1577.21 248.345C1576.83 248.637 1576.75 249.198 1577.05 249.579C1577.22 249.792 1577.48 249.916 1577.75 249.916Z" fill="#0D0D0D"/>
<path d="M1570.83 193.682C1570.83 193.682 1572 195.701 1573.11 195.701C1574.22 195.701 1574.83 193.682 1574.83 193.682H1570.83Z" fill="#0D0D0D"/>
<path d="M1573.11 196.363C1574.67 196.363 1575.4 194.13 1575.47 193.872L1575.74 193.009H1569.66L1570.25 194.018C1570.48 194.411 1571.69 196.363 1573.11 196.363ZM1573.81 194.355C1573.59 194.736 1573.33 195.028 1573.12 195.028C1572.88 195.028 1572.51 194.747 1572.16 194.355H1573.81Z" fill="#0D0D0D"/>
<path d="M1533.61 192.762C1533.61 192.762 1534.78 194.781 1535.89 194.781C1537 194.781 1537.61 192.762 1537.61 192.762H1533.61Z" fill="#0D0D0D"/>
<path d="M1535.89 195.443C1537.45 195.443 1538.17 193.21 1538.25 192.952L1538.52 192.089H1532.44L1533.03 193.098C1533.26 193.491 1534.46 195.443 1535.89 195.443ZM1536.58 193.424C1536.36 193.805 1536.1 194.097 1535.88 194.097C1535.64 194.097 1535.27 193.816 1534.92 193.424H1536.58Z" fill="#0D0D0D"/>
</g>
<path d="M1524.85 253H1628.15C1637.45 253 1645 245.462 1645 236.151V132.849C1645 123.549 1637.46 116 1628.15 116H1524.85C1515.55 116 1508 123.538 1508 132.849V236.151C1508.01 245.451 1515.55 253 1524.85 253Z" stroke="#0D0D0D" stroke-width="3" stroke-miterlimit="10"/>
<mask id="mask5_0_1" style="mask-type:luminance" maskUnits="userSpaceOnUse" x="1509" y="510" width="137" height="139">
<path d="M1525.85 648.01H1629.15C1638.45 648.01 1646 640.472 1646 631.161V526.849C1646 517.549 1638.46 510 1629.15 510H1525.85C1516.55 510 1509 517.538 1509 526.849V631.161C1509 640.46 1516.55 648.01 1525.85 648.01Z" fill="white"/>
</mask>
<g mask="url(#mask5_0_1)">
<path d="M1495.25 496.988H1649.49V655.223H1495.25V496.988Z" fill="url(#paint2_linear_0_1)"/>
</g>
<mask id="mask6_0_1" style="mask-type:luminance" maskUnits="userSpaceOnUse" x="1509" y="510" width="137" height="139">
<path d="M1525.85 648.01H1629.15C1638.45 648.01 1646 640.472 1646 631.161V526.849C1646 517.549 1638.46 510 1629.15 510H1525.85C1516.55 510 1509 517.538 1509 526.849V631.161C1509 640.46 1516.55 648.01 1525.85 648.01Z" fill="white"/>
</mask>
<g mask="url(#mask6_0_1)">
<path d="M1646.93 606.123L1624.59 599.909L1626.37 598.507C1626.37 598.507 1645.44 570.115 1620.74 539.547C1596.03 508.979 1548.34 528.195 1548.34 528.195C1548.34 528.195 1527.97 537.808 1529.7 564.876L1527.53 562.689C1527.53 562.689 1513.66 574.041 1514.09 588.018L1526.67 574.916L1529.27 584.53L1536.64 576.666L1540.97 587.581L1530.13 613.785L1552.68 608.546L1576.96 629.949L1566.98 638.25L1567.85 651.79C1567.85 651.79 1486.34 656.591 1485.05 656.591C1483.75 656.591 1461.64 517.718 1461.64 517.718C1461.64 517.718 1510.63 474.923 1520.16 477.099C1529.7 479.286 1675.24 483.504 1675.24 483.504C1675.24 483.504 1649.67 568.23 1644.9 577.833C1640.13 587.446 1632.76 585.259 1632.76 585.259L1627.56 597.048C1627.56 597.048 1636.67 601.412 1644.04 600.111C1651.4 598.798 1646.93 606.123 1646.93 606.123Z" fill="#FFAA00"/>
</g>
<mask id="mask7_0_1" style="mask-type:luminance" maskUnits="userSpaceOnUse" x="1509" y="510" width="137" height="139">
<path d="M1525.85 648.01H1629.15C1638.45 648.01 1646 640.472 1646 631.161V526.849C1646 517.549 1638.46 510 1629.15 510H1525.85C1516.55 510 1509 517.538 1509 526.849V631.161C1509 640.46 1516.55 648.01 1525.85 648.01Z" fill="white"/>
</mask>
<g mask="url(#mask7_0_1)">
<mask id="mask8_0_1" style="mask-type:luminance" maskUnits="userSpaceOnUse" x="1507" y="510" width="139" height="141">
<path d="M1507.15 650.186H1645.88V606.079V510.438H1507.15V650.186Z" fill="white"/>
</mask>
<g mask="url(#mask8_0_1)">
<path d="M1114.85 800.95C1115.53 797.731 1116.52 794.119 1117.9 790.339C1120.91 782.127 1127.11 766.355 1141.54 749.978C1160.17 728.822 1184.52 717.256 1213.72 705.074C1272.16 680.676 1395.95 650.983 1419.02 648.178C1422.01 647.819 1425.17 648.549 1427.96 650.242C1439.24 657.108 1468.42 688.943 1501.09 703.369C1521.89 712.545 1675.08 706.846 1712.89 706.846C1790.35 706.846 1666.98 636.467 1682.58 638.083C1682.64 638.094 1682.68 638.094 1682.68 638.094C1685.61 638.442 1856.69 650.231 2010.35 724.806C2042.91 740.611 2073.78 766.815 2066.74 792.818C2058.36 823.711 1964.73 815.578 1934.4 815.668H1932.4H1931.45C1932.79 807.76 1932.95 799.358 1931.76 790.642C1925.35 743.539 1882.25 705.366 1835.5 705.366C1832.94 705.366 1830.42 705.478 1827.94 705.702C1827.62 705.736 1827.31 705.758 1827 705.792C1826.05 705.882 1825.13 705.994 1824.2 706.128C1823.89 706.173 1823.57 706.218 1823.27 706.263C1822.7 706.353 1822.13 706.442 1821.56 706.543C1821.29 706.588 1821.01 706.633 1820.74 706.689C1819.92 706.846 1819.11 707.003 1818.31 707.172C1817.32 707.385 1816.32 707.62 1815.33 707.878C1815.33 707.878 1815.33 707.878 1815.32 707.878C1784.81 715.809 1763.74 741.621 1761.79 774.017C1761.72 775.139 1761.68 776.261 1761.65 777.394C1761.63 778.28 1761.64 779.166 1761.65 780.063C1761.67 781.017 1761.7 781.982 1761.74 782.935C1761.77 783.339 1761.79 783.732 1761.81 784.135C1761.86 784.831 1761.9 785.538 1761.97 786.244C1761.99 786.592 1762.02 786.94 1762.07 787.287C1762.09 787.523 1762.11 787.77 1762.15 788.005C1762.24 788.858 1762.34 789.722 1762.46 790.585C1762.64 791.932 1762.85 793.278 1763.1 794.613C1763.24 795.33 1763.37 796.037 1763.52 796.744C1763.99 799.01 1764.54 801.242 1765.16 803.452C1765.32 804.002 1765.48 804.551 1765.65 805.101C1766.59 808.175 1767.69 811.192 1768.93 814.154C1769.15 814.681 1769.37 815.197 1769.61 815.713L1584.28 815.78C1523 815.803 1462 815.825 1409.1 815.847C1410.51 807.793 1410.69 799.212 1409.49 790.327C1403.08 743.225 1359.99 705.051 1313.24 705.051C1311.02 705.051 1308.83 705.141 1306.68 705.309C1305.72 705.388 1304.76 705.478 1303.81 705.59C1303.2 705.657 1302.61 705.736 1302 705.814C1301.41 705.893 1300.81 705.983 1300.23 706.083H1300.22C1299.38 706.218 1298.55 706.364 1297.73 706.521C1297.73 706.521 1297.73 706.521 1297.72 706.521C1264.67 712.949 1241.53 739.759 1239.53 773.838C1239.5 774.376 1239.48 774.926 1239.45 775.464V775.475C1239.43 776.047 1239.42 776.62 1239.41 777.192C1239.4 777.483 1239.4 777.764 1239.4 778.055C1239.4 778.055 1239.4 778.055 1239.4 778.067C1239.39 778.672 1239.4 779.289 1239.41 779.906C1239.41 780.22 1239.42 780.523 1239.43 780.837C1239.43 780.837 1239.43 780.837 1239.43 780.849C1239.45 781.499 1239.48 782.139 1239.5 782.8C1239.51 783.126 1239.53 783.451 1239.55 783.788C1239.58 784.147 1239.6 784.506 1239.63 784.876C1239.66 785.235 1239.69 785.594 1239.72 785.953C1239.72 785.964 1239.72 785.975 1239.72 785.997C1239.75 786.323 1239.78 786.648 1239.81 786.973C1239.81 787.029 1239.82 787.097 1239.82 787.153C1239.86 787.489 1239.89 787.826 1239.94 788.151C1239.97 788.521 1240.01 788.88 1240.07 789.251C1240.12 789.621 1240.16 789.98 1240.22 790.35C1240.4 791.685 1240.61 793.02 1240.84 794.343C1241 795.23 1241.18 796.105 1241.37 796.979C1241.55 797.854 1241.75 798.729 1241.97 799.593C1242.28 800.894 1242.63 802.184 1243 803.463C1243.24 804.316 1243.5 805.168 1243.77 806.01C1244.86 809.397 1246.13 812.706 1247.58 815.926C1224.24 814.905 1149.93 814.49 1126.05 814.355C1119.15 814.311 1113.46 807.468 1114.85 800.95Z" fill="#F9AC12"/>
<path d="M1964.92 818.708C2002.91 818.708 2045.64 815.062 2051.52 793.379C2059.03 765.649 2026.74 738.783 1994 722.899C1852.67 654.303 1708.19 638.531 1680.66 636.063C1680.2 636.018 1679.92 635.996 1679.82 635.985L1679.58 635.974C1677.39 635.974 1666.47 635.974 1665.42 635.962C1663.22 635.76 1662.39 636.748 1662.08 637.611C1661.32 639.698 1663.27 641.403 1667.56 644.521C1670.75 646.832 1675.25 649.838 1680.46 653.305C1691.39 660.585 1704.98 669.649 1715.55 678.387C1730.87 691.063 1732.01 696.773 1731.32 699.05C1730.68 701.17 1727.04 704.715 1709.77 704.715C1701.69 704.715 1687.94 704.973 1670.53 705.298C1611.15 706.397 1500.61 708.462 1484.68 701.428C1461.81 691.332 1440.69 675 1426.72 664.197C1420.7 659.542 1415.94 655.862 1412.54 653.787C1409.34 651.846 1405.69 651.016 1402.24 651.431C1391.25 652.766 1355.06 659.317 1312.28 669.144C1276.57 677.344 1227.35 689.885 1195.65 703.122C1167.18 715.013 1142.03 726.634 1122.68 748.587C1107.28 766.053 1101.01 783.182 1098.64 789.621C1097.35 793.121 1096.3 796.789 1095.5 800.513C1094.71 804.181 1095.73 808.096 1098.28 811.259C1100.94 814.557 1104.75 816.464 1108.75 816.487L1110.33 816.498C1136.87 816.655 1207.37 817.07 1230.18 818.057H1230.27H1233.55L1232.21 815.051C1230.78 811.888 1229.54 808.623 1228.48 805.359C1228.24 804.574 1227.99 803.777 1227.75 802.981L1227.72 802.857C1227.36 801.601 1227.02 800.333 1226.71 799.077C1226.49 798.157 1226.3 797.327 1226.14 796.531C1225.96 795.689 1225.79 794.848 1225.62 793.951C1225.4 792.694 1225.19 791.382 1225.01 790.058C1224.96 789.699 1224.92 789.34 1224.87 788.981C1224.83 788.634 1224.78 788.275 1224.75 787.927C1224.71 787.59 1224.68 787.276 1224.65 786.962C1224.65 786.917 1224.64 786.884 1224.64 786.839L1224.62 786.76C1224.6 786.525 1224.58 786.3 1224.56 786.065L1224.55 785.93C1224.55 785.896 1224.55 785.874 1224.53 785.84L1224.5 785.493C1224.48 785.235 1224.46 784.988 1224.44 784.73C1224.41 784.36 1224.39 784.012 1224.38 783.664C1224.36 783.328 1224.33 783.014 1224.32 782.699C1224.29 782.06 1224.27 781.432 1224.25 780.792L1224.24 780.624C1224.23 780.377 1224.23 780.131 1224.23 779.884C1224.22 779.177 1224.22 778.627 1224.22 778.111V777.921V777.91C1224.22 777.696 1224.22 777.472 1224.23 777.259C1224.24 776.698 1224.25 776.137 1224.28 775.576V775.419C1224.3 774.937 1224.32 774.466 1224.34 773.983L1224.36 773.86C1226.33 741.093 1248.93 714.923 1280.63 708.675L1280.82 708.641C1281.43 708.529 1282 708.417 1282.55 708.327L1283.26 708.215C1283.83 708.125 1284.41 708.035 1284.99 707.957C1285.57 707.878 1286.15 707.8 1286.74 707.732C1287.62 707.631 1288.56 707.542 1289.53 707.463C1291.64 707.295 1293.79 707.216 1295.93 707.216C1341.58 707.216 1383.81 744.649 1390.07 790.653C1391.23 799.144 1391.1 807.513 1389.7 815.522L1389.26 818.024L1566.98 817.956C1568.16 817.956 1569.12 817.003 1569.12 815.825C1569.12 814.647 1568.16 813.694 1566.98 813.694L1394.29 813.761C1395.39 806.088 1395.39 798.135 1394.29 790.081C1391.13 766.793 1379.16 744.919 1360.59 728.474C1342.03 712.018 1319.05 702.965 1295.92 702.965C1293.68 702.965 1291.41 703.055 1289.19 703.223C1288.17 703.301 1287.17 703.402 1286.24 703.503C1285.63 703.571 1285.01 703.649 1284.4 703.739C1284.14 703.773 1283.89 703.806 1283.63 703.851L1283.3 703.537L1282.24 704.064C1281.58 704.176 1280.9 704.289 1280.2 704.423L1279.98 704.457C1263.3 707.699 1248.8 716 1238.04 728.44C1227.29 740.869 1221.09 756.54 1220.08 773.737L1220.07 773.927V773.938C1220.05 774.432 1220.03 774.926 1220 775.408L1219.99 775.587V775.599C1219.97 776.126 1219.96 776.642 1219.95 777.169C1219.94 777.472 1219.94 777.764 1219.94 778.067V778.201C1219.94 778.717 1219.94 779.256 1219.95 779.951C1219.95 780.276 1219.96 780.59 1219.97 780.905V781.017C1219.99 781.645 1220.01 782.273 1220.04 782.901C1220.05 783.238 1220.07 783.574 1220.09 783.911C1220.11 784.27 1220.14 784.651 1220.17 785.033C1220.19 785.358 1220.22 785.706 1220.25 786.042C1220.25 786.11 1220.26 786.177 1220.27 786.244C1220.29 786.536 1220.33 786.839 1220.35 787.13C1220.35 787.175 1220.36 787.209 1220.36 787.254L1220.37 787.332C1220.41 787.68 1220.44 788.017 1220.48 788.364C1220.52 788.723 1220.57 789.116 1220.62 789.497C1220.66 789.867 1220.71 790.249 1220.77 790.619C1220.96 792.01 1221.17 793.39 1221.42 794.702C1221.58 795.656 1221.76 796.531 1221.95 797.406C1222.12 798.236 1222.32 799.111 1222.56 800.075C1222.86 801.332 1223.21 802.611 1223.57 803.867L1223.61 804.035C1223.86 804.899 1224.13 805.774 1224.41 806.638C1225.16 808.993 1226.02 811.338 1226.96 813.649C1201.18 812.74 1135.69 812.359 1110.32 812.213L1108.74 812.202C1106.07 812.19 1103.38 810.822 1101.57 808.556C1099.83 806.391 1099.12 803.766 1099.64 801.365C1100.39 797.832 1101.4 794.354 1102.61 791.045C1104.9 784.808 1110.98 768.229 1125.84 751.358C1144.59 730.078 1169.28 718.681 1197.25 707.003C1254 683.312 1377.83 658.644 1402.71 655.616C1405.22 655.313 1407.91 655.941 1410.29 657.388C1413.48 659.329 1418.16 662.952 1424.07 667.529C1438.21 678.455 1459.58 694.978 1482.92 705.287C1490.39 708.585 1515.45 710.335 1559.52 710.649C1596.28 710.907 1639.21 710.11 1670.58 709.527C1687.97 709.202 1701.7 708.944 1709.74 708.944C1725.42 708.944 1733.57 706.184 1735.36 700.261C1737.18 694.249 1731.74 686.251 1718.23 675.078C1707.5 666.194 1693.8 657.074 1682.79 649.738C1677.71 646.35 1672.18 642.659 1668.87 640.191C1670.98 640.191 1674.28 640.191 1679.44 640.191C1679.61 640.203 1679.88 640.236 1680.26 640.27C1707.65 642.727 1851.45 658.42 1992.12 726.701C2009.57 735.171 2024.64 745.726 2034.53 756.417C2046.11 768.924 2050.44 780.972 2047.38 792.246C2044.54 802.7 2029.83 809.543 2003.65 812.561C1980.82 815.197 1954.02 814.434 1934.46 813.873C1927.58 813.671 1921.64 813.514 1917.08 813.525H1915.08C1913.9 813.525 1912.95 814.479 1912.95 815.657C1912.95 816.834 1913.9 817.788 1915.08 817.788H1917.08C1921.58 817.766 1927.49 817.945 1934.33 818.136C1943.51 818.405 1954.01 818.708 1964.92 818.708Z" fill="#0D0D0D"/>
<path d="M1543.83 567.445C1543.83 567.445 1552.2 518.537 1618.46 542.408L1626.61 547.063C1626.61 547.063 1608.47 515.777 1574.9 519.692C1536.62 524.168 1528.73 549.968 1528.92 559.874C1529.11 569.768 1529.88 566.862 1529.88 566.862L1543.83 567.445Z" fill="#F9AC12"/>
<path d="M1550.24 587.211C1550.36 587.211 1550.49 587.177 1550.61 587.11C1552.91 585.696 1574.44 579.605 1579.6 580.996C1579.99 581.097 1580.37 580.873 1580.47 580.491C1580.57 580.11 1580.34 579.729 1579.96 579.628C1574.38 578.124 1552.27 584.429 1549.86 585.909C1549.52 586.111 1549.42 586.549 1549.62 586.885C1549.77 587.087 1550 587.211 1550.24 587.211Z" fill="#0D0D0D"/>
<path d="M1546.65 594.042C1546.66 594.042 1546.67 594.042 1546.67 594.042C1576.24 592.865 1583.25 584.507 1583.53 584.16C1583.69 583.958 1583.72 583.7 1583.61 583.464C1583.5 583.229 1583.27 583.094 1583.01 583.094C1565.72 583.094 1546.53 592.707 1546.34 592.808C1546.07 592.943 1545.93 593.257 1546.01 593.56C1546.09 593.84 1546.34 594.042 1546.65 594.042ZM1581.26 584.44C1578.38 586.605 1569.95 591.328 1549.98 592.573C1555.74 590.026 1568.82 584.9 1581.26 584.44Z" fill="#0D0D0D"/>
<path d="M1560.57 588.119C1561.35 590.094 1560.47 592.113 1558.58 592.629C1556.7 593.156 1554.53 591.978 1553.75 590.015" fill="#0D0D0D"/>
<path d="M1562.83 617.408C1562.89 617.408 1562.95 617.397 1563 617.386C1567.88 616.309 1574.15 614.458 1576.29 611.743C1576.56 611.407 1576.51 610.925 1576.17 610.655C1575.83 610.386 1575.35 610.442 1575.08 610.779C1573.65 612.596 1569.13 614.447 1562.67 615.871C1562.25 615.961 1561.98 616.376 1562.08 616.791C1562.16 617.161 1562.49 617.408 1562.83 617.408Z" fill="#0D0D0D"/>
<path d="M1564.99 615.939C1565.13 615.939 1565.28 615.883 1565.39 615.759C1567.3 613.583 1570.62 610.05 1571.58 609.646C1571.82 610.061 1571.8 611.811 1571.54 613.471C1571.49 613.763 1571.7 614.032 1571.98 614.077C1572.27 614.122 1572.54 613.92 1572.58 613.639C1572.77 612.428 1573.12 609.534 1572.22 608.782C1571.97 608.558 1571.63 608.502 1571.28 608.625C1569.84 609.107 1565.45 614.077 1564.58 615.064C1564.39 615.288 1564.42 615.625 1564.63 615.816C1564.74 615.905 1564.86 615.939 1564.99 615.939Z" fill="#0D0D0D"/>
<path d="M1514.16 588.198C1514.44 588.198 1514.72 588.086 1514.93 587.873L1526.65 575.623L1528.67 584.081C1528.75 584.462 1529.05 584.765 1529.43 584.866C1529.81 584.967 1530.21 584.844 1530.48 584.552L1536.91 577.53L1539.53 585.921C1539.68 586.493 1540.26 586.829 1540.84 586.683C1541.41 586.538 1541.74 585.954 1541.6 585.382L1538.49 575.084C1538.39 574.703 1538.1 574.411 1537.72 574.322C1537.34 574.232 1536.94 574.344 1536.67 574.636L1530.28 581.624L1528.28 573.211C1528.19 572.83 1527.9 572.527 1527.53 572.426C1527.15 572.325 1526.76 572.437 1526.49 572.718L1515.84 583.868C1516.67 579.583 1518.78 572.493 1526.46 563.127C1526.83 562.667 1526.76 562.005 1526.31 561.623C1525.85 561.253 1525.19 561.321 1524.81 561.769C1515.3 573.346 1514 581.658 1513.36 585.651C1513.29 586.145 1513.22 586.582 1513.15 586.908C1513.05 587.379 1513.27 587.85 1513.69 588.074C1513.82 588.164 1513.99 588.198 1514.16 588.198Z" fill="#0D0D0D"/>
<path d="M1546.46 564.978C1556.46 564.978 1571.87 563.362 1593.6 556.923C1594.03 556.8 1594.28 556.34 1594.15 555.914C1594.03 555.487 1593.57 555.241 1593.14 555.364C1550.91 567.872 1532.44 561.837 1532.27 561.781C1531.84 561.635 1531.38 561.859 1531.23 562.285C1531.09 562.712 1531.31 563.172 1531.74 563.317C1532.1 563.452 1536.73 564.978 1546.46 564.978Z" fill="#0D0D0D"/>
<path d="M1641.34 578.282C1641.73 578.282 1642.03 577.99 1642.05 577.609C1642.99 558.079 1635.85 544.057 1629.68 535.733C1622.99 526.703 1616.17 522.362 1615.89 522.183C1606.88 516.058 1596.47 513.085 1584.99 513.377C1584.6 513.388 1584.28 513.713 1584.29 514.106C1584.3 514.498 1584.63 514.824 1585.02 514.801C1596.21 514.521 1606.33 517.404 1615.12 523.372C1615.21 523.428 1622.05 527.791 1628.58 536.631C1634.59 544.763 1641.57 558.46 1640.64 577.552C1640.62 577.945 1640.92 578.282 1641.31 578.293C1641.32 578.282 1641.33 578.282 1641.34 578.282Z" fill="#0D0D0D"/>
<path d="M1634.59 585.618C1638.13 585.618 1644.69 583.666 1646.88 576.924C1647.13 576.139 1647.46 575.657 1647.89 575.455C1648.69 575.073 1650.02 575.601 1651.43 576.162C1654.49 577.373 1658.68 579.022 1661.48 572.729C1664.35 566.279 1665.52 566.324 1668.64 566.425C1670.29 566.481 1672.34 566.548 1675.27 565.841C1679.38 564.854 1680.85 561.5 1682.28 558.258C1684.11 554.097 1685.68 550.507 1692.39 551.259C1705.36 552.728 1712.98 543.709 1713.31 543.328C1713.55 543.025 1713.51 542.576 1713.22 542.329C1712.91 542.083 1712.47 542.116 1712.22 542.419C1712.14 542.509 1704.75 551.225 1692.55 549.845C1684.81 548.97 1682.78 553.603 1680.99 557.686C1679.64 560.737 1678.39 563.632 1674.94 564.45C1672.21 565.112 1670.25 565.045 1668.69 564.989C1664.96 564.865 1663.32 565.09 1660.19 572.134C1657.95 577.182 1655.03 576.038 1651.96 574.827C1650.25 574.154 1648.65 573.514 1647.29 574.165C1646.49 574.546 1645.91 575.298 1645.53 576.476C1643.45 582.858 1636.71 584.429 1633.95 584.16C1633.56 584.126 1633.21 584.406 1633.18 584.799C1633.15 585.192 1633.43 585.539 1633.82 585.573C1634.05 585.607 1634.31 585.618 1634.59 585.618Z" fill="#0D0D0D"/>
<path d="M1641.69 601.244C1643.38 601.244 1644.94 601.031 1646.21 600.56C1647.87 599.943 1649 598.922 1649.53 597.542C1649.79 596.88 1650.1 596.477 1650.43 596.342C1651.13 596.061 1652.43 596.645 1653.7 597.206C1656.66 598.529 1661.13 600.537 1664.42 594.132C1667.53 588.086 1668.56 588.176 1671.61 588.422C1673.2 588.557 1675.38 588.736 1678.4 588.164C1682.76 587.357 1684.52 583.868 1686.08 580.806C1688.07 576.891 1689.78 573.503 1696.24 574.546C1709.39 576.666 1717.65 567.973 1718 567.602C1718.4 567.176 1718.37 566.503 1717.94 566.099C1717.51 565.696 1716.84 565.729 1716.44 566.155C1716.35 566.256 1708.57 574.389 1696.59 572.448C1688.61 571.158 1686.26 575.769 1684.2 579.841C1682.67 582.847 1681.35 585.45 1678.03 586.067C1675.29 586.571 1673.36 586.414 1671.8 586.291C1667.99 585.977 1666.16 586.134 1662.55 593.145C1660.18 597.755 1657.59 596.589 1654.58 595.243C1652.83 594.457 1651.18 593.717 1649.65 594.356C1648.74 594.738 1648.05 595.523 1647.57 596.757C1647.26 597.553 1646.58 598.148 1645.5 598.552C1641.6 599.999 1633.99 598.395 1629.59 596.05C1629.07 595.77 1628.42 595.972 1628.15 596.488C1627.87 597.004 1628.08 597.654 1628.59 597.924C1632.09 599.808 1637.31 601.244 1641.69 601.244Z" fill="#0D0D0D"/>
<path d="M1534.82 667.888C1542.97 667.888 1563.44 660.608 1571.87 657.489C1572.6 657.22 1572.99 656.401 1572.72 655.661C1572.45 654.931 1571.63 654.55 1570.89 654.819C1564.43 657.22 1542.73 665.05 1534.82 665.05C1527.43 665.05 1492.47 651.196 1473.8 643.377C1468.06 640.517 1453.47 633.304 1451.39 632.788C1451.2 632.743 1450.88 632.631 1450.53 632.496C1447.19 631.262 1439.35 628.379 1428.37 640.921C1428.32 640.977 1428.28 641.033 1428.25 641.089C1428.16 641.235 1426.01 644.679 1427.9 650.568C1428.13 651.319 1428.94 651.723 1429.68 651.488C1430.43 651.252 1430.84 650.444 1430.6 649.704C1429.27 645.554 1430.35 643.142 1430.6 642.682C1440.24 631.733 1446.53 634.044 1449.56 635.155C1450 635.312 1450.37 635.446 1450.7 635.536C1452.09 635.884 1462.59 640.977 1470.84 645.071C1470.96 645.206 1471.11 645.307 1471.28 645.396L1474.66 646.978C1474.9 647.09 1475.15 647.135 1475.39 647.102C1488.11 652.374 1526.31 667.888 1534.82 667.888Z" fill="#0D0D0D"/>
<path d="M1643.07 632.496C1643.08 632.496 1643.08 632.496 1643.1 632.496C1645.31 632.44 1697.37 630.914 1713.43 622.883C1720.28 619.45 1723.68 616.141 1725.94 613.954C1729.02 610.958 1730.05 609.949 1735.56 612.484C1751.1 619.641 1764.36 618.676 1771.93 609.837C1772.16 609.567 1772.13 609.152 1771.86 608.917C1771.59 608.681 1771.18 608.715 1770.94 608.984C1763.77 617.352 1751.08 618.194 1736.1 611.306C1729.78 608.401 1728.29 609.848 1725.03 613.022C1722.71 615.288 1719.52 618.384 1712.85 621.727C1697.03 629.636 1643.6 631.195 1643.06 631.206C1642.7 631.217 1642.42 631.509 1642.43 631.868C1642.43 632.216 1642.71 632.496 1643.07 632.496Z" fill="#0D0D0D"/>
<path d="M1656.11 608.378C1660.4 608.378 1664.64 607.559 1668.14 605.237C1671.87 602.758 1673.64 600.122 1675.2 597.811C1676.89 595.31 1678.35 593.145 1681.96 591.485C1687.8 588.804 1692.95 590.419 1698.39 592.124C1703.71 593.795 1709.22 595.523 1715.92 593.672C1716.28 593.571 1716.64 593.47 1717 593.347C1717.56 593.167 1717.86 592.561 1717.68 592.001C1717.5 591.44 1716.9 591.137 1716.33 591.316C1716.01 591.417 1715.68 591.518 1715.36 591.608C1709.27 593.291 1704.06 591.664 1699.03 590.082C1693.44 588.332 1687.66 586.515 1681.08 589.533C1676.92 591.44 1675.22 593.952 1673.44 596.611C1671.91 598.877 1670.34 601.21 1666.97 603.454C1658.32 609.208 1643.41 604.43 1637.8 602.624L1637.26 602.455C1636.2 602.119 1635.19 601.749 1634.21 601.39C1629.22 599.561 1624.7 597.71 1618.49 602.567C1618.04 602.926 1617.96 603.6 1618.32 604.059C1618.67 604.519 1619.35 604.609 1619.81 604.239C1625.07 600.111 1628.55 601.58 1633.47 603.386C1634.47 603.757 1635.5 604.127 1636.61 604.486L1637.15 604.654C1641.21 605.966 1648.73 608.378 1656.11 608.378Z" fill="#0D0D0D"/>
<path d="M1575.4 658.476C1576.74 658.476 1578.29 658.083 1579.96 656.95C1581.35 656.008 1582.75 655.077 1584.12 654.146C1588.32 651.33 1592.65 648.425 1596.83 645.363C1600.67 642.547 1610.65 638.823 1621.66 636.097C1634.41 632.934 1641.95 632.698 1643.76 633.853L1643.91 633.954C1644.23 634.156 1644.54 634.369 1644.91 634.549C1646.91 635.547 1654.09 639.204 1662.6 644.454C1663.11 644.757 1663.76 644.611 1664.07 644.106C1664.38 643.602 1664.23 642.951 1663.72 642.637C1655.14 637.342 1647.89 633.652 1645.87 632.642C1645.61 632.519 1645.35 632.35 1645.08 632.171L1644.91 632.07C1640.94 629.512 1626.98 632.597 1621.15 634.033C1612.47 636.187 1600.57 639.989 1595.58 643.646C1591.43 646.686 1587.12 649.581 1582.94 652.385C1581.54 653.316 1580.15 654.247 1578.76 655.189C1576.91 656.446 1575.08 656.681 1573.31 655.885C1570.91 654.819 1569.39 652.183 1569.1 650.141C1568.79 647.808 1568.59 646.002 1568.42 644.409C1568.27 643.029 1568.13 641.717 1567.93 640.259C1567.6 637.869 1568.72 636.49 1572.91 634.1C1573.87 633.551 1574.87 633.012 1575.85 632.496C1579.13 630.735 1582.54 628.918 1585.07 626.192C1588.14 622.871 1593.12 618.149 1599.53 617.24C1600.11 617.162 1600.51 616.623 1600.44 616.04C1600.36 615.457 1599.82 615.053 1599.23 615.131C1591.91 616.163 1586.57 621.447 1583.51 624.745C1581.23 627.201 1578.12 628.862 1574.85 630.623C1573.86 631.15 1572.85 631.688 1571.86 632.261C1567.56 634.728 1565.31 636.77 1565.83 640.55C1566.02 641.975 1566.17 643.265 1566.31 644.634C1566.49 646.238 1566.68 648.066 1567.01 650.422C1567.43 653.529 1569.68 656.58 1572.46 657.825C1573.24 658.196 1574.24 658.476 1575.4 658.476Z" fill="#0D0D0D"/>
<path d="M1528.54 568.949C1528.6 568.949 1528.67 568.949 1528.72 568.937C1529.5 568.836 1530.04 568.13 1529.96 567.356C1529.94 567.266 1529.05 559.649 1531.71 550.81C1535.25 539.054 1543.09 530.753 1555.04 526.154C1555.06 526.142 1555.08 526.142 1555.11 526.131C1555.18 526.097 1562.89 522.743 1573.55 521.566C1583.29 520.489 1597.61 521.05 1610.42 529.889C1611.07 530.338 1611.94 530.169 1612.39 529.53C1612.84 528.879 1612.67 528.004 1612.03 527.556C1598.48 518.2 1583.41 517.606 1573.15 518.761C1562.33 519.973 1554.65 523.248 1554.01 523.529C1538.03 529.698 1531.58 541.387 1528.98 550.114C1526.17 559.526 1527.12 567.401 1527.16 567.726C1527.23 568.421 1527.84 568.949 1528.54 568.949Z" fill="#0D0D0D"/>
<path d="M1578.04 631.105C1578.39 631.105 1578.74 630.937 1578.94 630.612C1579.26 630.118 1579.12 629.456 1578.63 629.142C1569.58 623.32 1553.77 606.943 1553.61 606.774C1553.36 606.505 1552.96 606.393 1552.6 606.483L1531.46 611.553L1546.01 578.169L1546.34 577.485L1556.69 582.197C1557.14 582.399 1557.67 582.264 1557.98 581.871C1558.28 581.479 1558.27 580.929 1557.95 580.548L1554.63 576.554L1570.89 578.517C1571.4 578.585 1571.89 578.259 1572.03 577.754C1572.18 577.25 1571.94 576.722 1571.47 576.498L1567.25 574.479L1583.58 576.038C1583.99 576.072 1584.39 575.87 1584.61 575.5C1584.81 575.13 1584.79 574.681 1584.53 574.344L1581.78 570.654L1594.97 578.405L1598.66 617.857C1598.7 618.239 1598.94 618.575 1599.29 618.732C1599.64 618.889 1600.05 618.844 1600.36 618.609L1628.97 597.206C1629.14 597.071 1629.28 596.892 1629.34 596.69L1633.38 584.653C1633.39 584.631 1633.39 584.608 1633.4 584.586C1637.28 569.947 1632.73 556.396 1628.23 547.613C1623.38 538.134 1617.69 532.189 1617.45 531.931C1617.05 531.504 1616.38 531.493 1615.95 531.897C1615.52 532.301 1615.51 532.974 1615.92 533.4C1615.97 533.456 1621.66 539.413 1626.37 548.622C1630.69 557.058 1635.05 570.026 1631.36 583.991L1627.45 595.68L1600.63 615.748L1597.1 578.001C1597.15 577.788 1597.13 577.564 1597.04 577.351C1597 577.171 1596.94 577.003 1596.81 576.857L1587.42 565.213C1587.05 564.753 1586.39 564.686 1585.93 565.045C1585.47 565.415 1585.4 566.077 1585.76 566.537L1591.66 573.952L1578.34 566.122C1577.9 565.864 1577.34 565.954 1577 566.335C1576.67 566.716 1576.64 567.277 1576.95 567.681L1581.42 573.671L1561.52 571.775C1561.01 571.731 1560.53 572.056 1560.4 572.549C1560.27 573.043 1560.5 573.57 1560.96 573.795L1564.75 575.612L1552.24 574.097C1551.82 574.041 1551.39 574.266 1551.18 574.647C1550.97 575.029 1551.02 575.5 1551.29 575.836L1553.36 578.315L1546.31 575.107C1545.78 574.872 1545.17 575.085 1544.92 575.601L1544.11 577.227C1544.1 577.238 1544.1 577.261 1544.09 577.272L1528.68 612.641C1528.52 613.011 1528.58 613.438 1528.83 613.752C1529.09 614.066 1529.51 614.2 1529.9 614.099L1552.52 608.67C1555.17 611.396 1568.98 625.429 1577.5 630.914C1577.64 631.049 1577.84 631.105 1578.04 631.105Z" fill="#0D0D0D"/>
</g>
</g>
<path d="M1525.85 648.01H1629.15C1638.45 648.01 1646 640.472 1646 631.161V526.849C1646 517.549 1638.46 510 1629.15 510H1525.85C1516.55 510 1509 517.538 1509 526.849V631.161C1509 640.46 1516.55 648.01 1525.85 648.01Z" stroke="#0D0D0D" stroke-width="3" stroke-miterlimit="10"/>
<mask id="mask9_0_1" style="mask-type:luminance" maskUnits="userSpaceOnUse" x="342" y="510" width="137" height="138">
<path d="M462.151 647H358.849C349.549 647 342 639.462 342 630.152V526.849C342 517.55 349.538 510 358.849 510H462.151C471.451 510 479 517.538 479 526.849V630.152C479 639.462 471.451 647 462.151 647Z" fill="white"/>
</mask>
<g mask="url(#mask9_0_1)">
<path d="M481.087 508.228H325.836V665.891H481.087V508.228Z" fill="url(#paint3_linear_0_1)"/>
</g>
<mask id="mask10_0_1" style="mask-type:luminance" maskUnits="userSpaceOnUse" x="342" y="510" width="137" height="138">
<path d="M462.151 647H358.849C349.549 647 342 639.462 342 630.152V526.849C342 517.55 349.538 510 358.849 510H462.151C471.451 510 479 517.538 479 526.849V630.152C479 639.462 471.451 647 462.151 647Z" fill="white"/>
</mask>
<g mask="url(#mask10_0_1)">
<path d="M452.797 653.047L483.174 631.419L482.983 653.821L452.797 653.047Z" fill="#FFDB8C"/>
</g>
<mask id="mask11_0_1" style="mask-type:luminance" maskUnits="userSpaceOnUse" x="342" y="510" width="137" height="138">
<path d="M462.151 647H358.849C349.549 647 342 639.462 342 630.152V526.849C342 517.55 349.538 510 358.849 510H462.151C471.451 510 479 517.538 479 526.849V630.152C479 639.462 471.451 647 462.151 647Z" fill="white"/>
</mask>
<g mask="url(#mask11_0_1)">
<path d="M332.578 613.931L347.318 604.62C347.318 604.62 351.199 599.965 351.199 586.01C351.199 572.056 352.366 530.551 395.408 520.859C438.45 511.167 457.463 549.553 457.463 549.553L456.297 560.804L446.605 568.556L473.359 601.906L441.949 597.25L411.696 616.253H405.492L394.241 611.216L388.812 621.682L427.546 631.139L478.743 607.873L484.105 486.028H339.062C339.062 486.028 332.96 613.538 332.578 613.931Z" fill="#FFDB8C"/>
</g>
<mask id="mask12_0_1" style="mask-type:luminance" maskUnits="userSpaceOnUse" x="342" y="510" width="137" height="138">
<path d="M462.151 647H358.849C349.549 647 342 639.462 342 630.152V526.849C342 517.55 349.538 510 358.849 510H462.151C471.451 510 479 517.538 479 526.849V630.152C479 639.462 471.451 647 462.151 647Z" fill="white"/>
</mask>
<g mask="url(#mask12_0_1)">
<path d="M351.345 594.614C353.599 587.155 348.058 576.935 354.968 558.359C359.298 546.726 365.064 537.842 373.062 531.65C386.501 521.229 401.319 520.96 407.993 520.892C439.279 520.567 455.803 540.736 457.867 550.17C459.931 559.604 457.665 561.926 457.665 561.926C457.665 561.926 455.085 559.705 444.608 557.282H444.237C434.938 555.14 418.145 551.382 392.67 550.361L351.345 594.614Z" fill="#F4B311"/>
</g>
<mask id="mask13_0_1" style="mask-type:luminance" maskUnits="userSpaceOnUse" x="342" y="510" width="137" height="138">
<path d="M462.151 647H358.849C349.549 647 342 639.462 342 630.152V526.849C342 517.55 349.538 510 358.849 510H462.151C471.451 510 479 517.538 479 526.849V630.152C479 639.462 471.451 647 462.151 647Z" fill="white"/>
</mask>
<g mask="url(#mask13_0_1)">
<path d="M428.152 640.774C427.894 640.774 426.851 640.573 418.483 638.98C405.773 636.557 382.104 632.047 367.533 629.422C367.05 629.332 366.725 628.873 366.815 628.39C366.904 627.908 367.364 627.594 367.858 627.684C382.441 630.308 406.11 634.818 418.831 637.241C424.024 638.228 427.793 638.946 428.186 639.013C428.567 639.058 428.893 639.339 428.971 639.731C429.061 640.214 428.736 640.673 428.253 640.763C428.22 640.774 428.197 640.774 428.152 640.774Z" fill="#0D0D0D"/>
</g>
<mask id="mask14_0_1" style="mask-type:luminance" maskUnits="userSpaceOnUse" x="342" y="510" width="137" height="138">
<path d="M462.151 647H358.849C349.549 647 342 639.462 342 630.152V526.849C342 517.55 349.538 510 358.849 510H462.151C471.451 510 479 517.538 479 526.849V630.152C479 639.462 471.451 647 462.151 647Z" fill="white"/>
</mask>
<g mask="url(#mask14_0_1)">
<path d="M432.571 640.405C432.111 640.405 431.662 640.147 431.449 639.709C431.146 639.092 431.393 638.352 432.021 638.049L468.445 620.269C468.647 620.157 468.893 620.033 469.151 619.91C469.365 619.798 469.6 619.686 469.791 619.596L478.204 612.854C478.743 612.428 479.528 612.506 479.965 613.034C480.403 613.561 480.313 614.346 479.775 614.772L471.26 621.593C471.171 621.66 471.081 621.727 470.98 621.772C470.789 621.862 470.531 621.985 470.273 622.109C470.015 622.232 469.78 622.355 469.6 622.456C469.589 622.468 469.567 622.468 469.555 622.479L433.109 640.27C432.952 640.36 432.762 640.405 432.571 640.405Z" fill="#0D0D0D"/>
</g>
<mask id="mask15_0_1" style="mask-type:luminance" maskUnits="userSpaceOnUse" x="342" y="510" width="137" height="138">
<path d="M462.151 647H358.849C349.549 647 342 639.462 342 630.152V526.849C342 517.55 349.538 510 358.849 510H462.151C471.451 510 479 517.538 479 526.849V630.152C479 639.462 471.451 647 462.151 647Z" fill="white"/>
</mask>
<g mask="url(#mask15_0_1)">
<path d="M445.258 580.043C444.832 580.043 444.114 579.998 442.891 579.919C441.781 579.852 439.459 579.684 436.385 579.392C431.718 578.944 424.999 578.181 419.503 577.025C411.751 575.399 410.282 573.817 410.035 572.707C409.878 572.527 409.855 572.348 409.867 572.213C409.878 572.101 409.956 571.809 410.36 571.686C412.738 570.934 442.039 575.029 445.942 579.134C446.099 579.302 446.133 579.56 446.021 579.762C445.898 579.953 445.853 580.043 445.258 580.043ZM411.134 572.639C411.561 573.492 414.096 575.489 427.77 577.351C434.164 578.226 440.659 578.742 443.71 578.921C440.962 577.575 435.129 576.038 427.332 574.658C419.424 573.234 412.963 572.572 411.134 572.639Z" fill="#0D0D0D"/>
</g>
<mask id="mask16_0_1" style="mask-type:luminance" maskUnits="userSpaceOnUse" x="342" y="510" width="137" height="138">
<path d="M462.151 647H358.849C349.549 647 342 639.462 342 630.152V526.849C342 517.55 349.538 510 358.849 510H462.151C471.451 510 479 517.538 479 526.849V630.152C479 639.462 471.451 647 462.151 647Z" fill="white"/>
</mask>
<g mask="url(#mask16_0_1)">
<path d="M435.151 601.334C431.92 601.311 428.7 600.997 425.582 600.403C416.731 598.731 415.654 598.316 412.222 596.241C411.717 595.938 411.56 595.287 411.863 594.783C412.177 594.278 412.828 594.121 413.332 594.435C416.417 596.297 417.18 596.656 425.975 598.327C428.97 598.899 432.054 599.191 435.151 599.214C435.745 599.214 436.216 599.696 436.216 600.279C436.216 600.863 435.734 601.334 435.151 601.334Z" fill="#0D0D0D"/>
</g>
<mask id="mask17_0_1" style="mask-type:luminance" maskUnits="userSpaceOnUse" x="342" y="510" width="137" height="138">
<path d="M462.151 647H358.849C349.549 647 342 639.462 342 630.152V526.849C342 517.55 349.538 510 358.849 510H462.151C471.451 510 479 517.538 479 526.849V630.152C479 639.462 471.451 647 462.151 647Z" fill="white"/>
</mask>
<g mask="url(#mask17_0_1)">
<path d="M350.459 599.595C350.324 599.595 350.19 599.572 350.044 599.539C349.292 599.314 348.855 598.529 349.09 597.778C349.853 595.265 349.718 591.541 349.561 587.211C349.281 579.414 348.9 568.724 353.375 556.688C357.941 544.438 363.998 535.498 371.918 529.35C385.895 518.514 401.185 518.357 407.713 518.29C407.96 518.29 408.218 518.29 408.465 518.29C425.706 518.29 437.541 524.392 444.484 529.563C453.593 536.35 458.002 544.113 459 548.689C459.168 549.452 458.675 550.204 457.912 550.372C457.138 550.54 456.375 550.058 456.218 549.295C454.109 539.637 437.204 520.814 407.758 521.128C401.521 521.195 386.905 521.341 373.702 531.583C366.208 537.393 360.442 545.919 356.068 557.675C351.782 569.195 352.141 579.134 352.422 587.121C352.59 591.877 352.725 595.635 351.839 598.596C351.648 599.202 351.076 599.595 350.459 599.595Z" fill="#0D0D0D"/>
</g>
<mask id="mask18_0_1" style="mask-type:luminance" maskUnits="userSpaceOnUse" x="342" y="510" width="137" height="138">
<path d="M462.151 647H358.849C349.549 647 342 639.462 342 630.152V526.849C342 517.55 349.538 510 358.849 510H462.151C471.451 510 479 517.538 479 526.849V630.152C479 639.462 471.451 647 462.151 647Z" fill="white"/>
</mask>
<g mask="url(#mask18_0_1)">
<path d="M409.452 617.375C408.543 617.375 407.646 617.229 406.793 616.926L394.016 612.417C393.366 612.192 393.029 611.474 393.265 610.835C393.5 610.196 394.207 609.859 394.858 610.083L407.634 614.593C409.833 615.367 412.368 614.694 414.589 612.753C414.634 612.72 414.679 612.686 414.724 612.652L440.693 595.602C440.85 595.411 441.063 595.254 441.332 595.164C441.702 595.041 442.095 595.086 442.398 595.265L471.182 599.853C466.717 594.065 453.537 578.226 445.898 570.115C445.426 569.61 445.46 568.836 445.965 568.365C446.47 567.894 447.266 567.928 447.726 568.433C451.809 572.774 458.203 580.11 464.822 588.063C467.626 591.44 470.172 594.558 471.99 596.869C472.921 598.047 473.639 598.989 474.132 599.662C474.872 600.683 475.321 601.3 474.951 602.063C474.727 602.523 474.222 602.803 473.706 602.77C473.672 602.77 473.639 602.758 473.605 602.758L441.994 597.71L416.16 614.683C414.118 616.444 411.74 617.375 409.452 617.375Z" fill="#0D0D0D"/>
</g>
<mask id="mask19_0_1" style="mask-type:luminance" maskUnits="userSpaceOnUse" x="342" y="510" width="137" height="138">
<path d="M462.151 647H358.849C349.549 647 342 639.462 342 630.152V526.849C342 517.55 349.538 510 358.849 510H462.151C471.451 510 479 517.538 479 526.849V630.152C479 639.462 471.451 647 462.151 647Z" fill="white"/>
</mask>
<g mask="url(#mask19_0_1)">
<path d="M389.372 621.514C389.305 621.514 389.227 621.503 389.159 621.492C388.767 621.391 388.486 621.043 388.486 620.628L388.565 599.707C387.824 599.068 387.028 598.507 386.187 598.025C381.565 595.366 371.637 593.594 371.536 593.571C371.054 593.482 370.729 593.022 370.819 592.55C370.908 592.068 371.368 591.754 371.851 591.833C372.266 591.911 382.193 593.683 387.084 596.488C388.15 597.094 389.148 597.823 390.057 598.653C390.247 598.821 390.348 599.057 390.348 599.303L390.281 617.072L393.658 610.824C393.893 610.398 394.432 610.229 394.869 610.465C395.307 610.689 395.464 611.228 395.239 611.665L390.169 621.054C390.001 621.346 389.687 621.514 389.372 621.514Z" fill="#0D0D0D"/>
</g>
<mask id="mask20_0_1" style="mask-type:luminance" maskUnits="userSpaceOnUse" x="342" y="510" width="137" height="138">
<path d="M462.151 647H358.849C349.549 647 342 639.462 342 630.152V526.849C342 517.55 349.538 510 358.849 510H462.151C471.451 510 479 517.538 479 526.849V630.152C479 639.462 471.451 647 462.151 647Z" fill="white"/>
</mask>
<g mask="url(#mask20_0_1)">
<path d="M333.587 614.75C333.139 614.75 332.701 614.537 332.421 614.155C331.961 613.516 332.118 612.641 332.757 612.181L339.869 607.2C342.203 605.563 344.536 603.925 346.869 602.287C347.576 601.02 350.56 595.646 352.265 591.653C352.433 591.272 352.59 590.879 352.77 590.419C353.05 589.712 353.846 589.342 354.564 589.589L355.069 589.757L375.53 596.824C376.27 597.082 376.663 597.89 376.405 598.63C376.147 599.371 375.328 599.752 374.588 599.494L354.912 592.696C354.901 592.719 354.901 592.73 354.89 592.752C352.882 597.43 349.348 603.667 349.202 603.936C349.101 604.116 348.956 604.273 348.787 604.396C346.364 606.09 343.941 607.795 341.518 609.489L334.406 614.481C334.16 614.671 333.879 614.75 333.587 614.75Z" fill="#0D0D0D"/>
</g>
<mask id="mask21_0_1" style="mask-type:luminance" maskUnits="userSpaceOnUse" x="342" y="510" width="137" height="138">
<path d="M462.151 647H358.849C349.549 647 342 639.462 342 630.152V526.849C342 517.55 349.538 510 358.849 510H462.151C471.451 510 479 517.538 479 526.849V630.152C479 639.462 471.451 647 462.151 647Z" fill="white"/>
</mask>
<g mask="url(#mask21_0_1)">
<path d="M443.89 548.555C443.867 548.555 443.856 548.555 443.833 548.555C443.441 548.522 443.149 548.185 443.183 547.792C443.598 542.801 431.584 527.309 411.101 521.521C410.719 521.409 410.506 521.027 410.607 520.646C410.719 520.276 411.112 520.051 411.493 520.164C420.725 522.766 429.464 527.691 436.093 534.017C441.444 539.121 444.865 544.708 444.607 547.905C444.574 548.275 444.26 548.555 443.89 548.555Z" fill="#0D0D0D"/>
</g>
<mask id="mask22_0_1" style="mask-type:luminance" maskUnits="userSpaceOnUse" x="342" y="510" width="137" height="138">
<path d="M462.151 647H358.849C349.549 647 342 639.462 342 630.152V526.849C342 517.55 349.538 510 358.849 510H462.151C471.451 510 479 517.538 479 526.849V630.152C479 639.462 471.451 647 462.151 647Z" fill="white"/>
</mask>
<g mask="url(#mask22_0_1)">
<path d="M333.586 602.433C333.373 602.433 333.16 602.332 333.014 602.152C332.779 601.838 332.835 601.401 333.16 601.165L340.261 595.882C340.979 593.279 340.855 589.746 340.698 585.315C340.418 577.575 340.036 566.974 344.467 555.061C348.988 542.935 354.978 534.095 362.786 528.038C363.1 527.802 363.549 527.847 363.784 528.161C364.031 528.464 363.975 528.913 363.661 529.148C356.066 535.038 350.222 543.675 345.802 555.543C341.472 567.187 341.831 577.205 342.123 585.259C342.291 589.948 342.426 593.661 341.562 596.499C341.517 596.645 341.428 596.768 341.304 596.858L334.013 602.287C333.889 602.388 333.732 602.433 333.586 602.433Z" fill="#0D0D0D"/>
</g>
<mask id="mask23_0_1" style="mask-type:luminance" maskUnits="userSpaceOnUse" x="342" y="510" width="137" height="138">
<path d="M462.151 647H358.849C349.549 647 342 639.462 342 630.152V526.849C342 517.55 349.538 510 358.849 510H462.151C471.451 510 479 517.538 479 526.849V630.152C479 639.462 471.451 647 462.151 647Z" fill="white"/>
</mask>
<g mask="url(#mask23_0_1)">
<path d="M472.046 640.808C471.597 640.808 471.216 640.483 471.159 640.034L468.826 621.11C468.77 620.628 469.118 620.19 469.6 620.123C470.094 620.067 470.531 620.403 470.599 620.897L472.932 639.821C472.988 640.303 472.64 640.741 472.158 640.808C472.113 640.808 472.079 640.808 472.046 640.808Z" fill="#0D0D0D"/>
</g>
<mask id="mask24_0_1" style="mask-type:luminance" maskUnits="userSpaceOnUse" x="342" y="510" width="137" height="138">
<path d="M462.151 647H358.849C349.549 647 342 639.462 342 630.152V526.849C342 517.55 349.538 510 358.849 510H462.151C471.451 510 479 517.538 479 526.849V630.152C479 639.462 471.451 647 462.151 647Z" fill="white"/>
</mask>
<g mask="url(#mask24_0_1)">
<path d="M452.425 621.514C452.111 621.514 451.809 621.346 451.64 621.065C451.405 620.639 451.551 620.1 451.988 619.865C452.762 619.439 470.946 609.433 478.675 606.505C479.134 606.325 479.651 606.561 479.83 607.01C480.009 607.469 479.774 607.974 479.314 608.154C471.697 611.037 453.042 621.312 452.863 621.413C452.728 621.48 452.571 621.514 452.425 621.514Z" fill="#0D0D0D"/>
</g>
<mask id="mask25_0_1" style="mask-type:luminance" maskUnits="userSpaceOnUse" x="342" y="510" width="137" height="138">
<path d="M462.151 647H358.849C349.549 647 342 639.462 342 630.152V526.849C342 517.55 349.538 510 358.849 510H462.151C471.451 510 479 517.538 479 526.849V630.152C479 639.462 471.451 647 462.151 647Z" fill="white"/>
</mask>
<g mask="url(#mask25_0_1)">
<path d="M433.446 629.793C433.076 629.793 432.728 629.557 432.605 629.187C432.448 628.727 432.695 628.222 433.166 628.065L443.205 623.376C443.677 623.219 444.181 623.466 444.338 623.937C444.495 624.397 444.249 624.902 443.778 625.059L433.738 629.748C433.637 629.781 433.547 629.793 433.446 629.793Z" fill="#0D0D0D"/>
</g>
<mask id="mask26_0_1" style="mask-type:luminance" maskUnits="userSpaceOnUse" x="342" y="510" width="137" height="138">
<path d="M462.151 647H358.849C349.549 647 342 639.462 342 630.152V526.849C342 517.55 349.538 510 358.849 510H462.151C471.451 510 479 517.538 479 526.849V630.152C479 639.462 471.451 647 462.151 647Z" fill="white"/>
</mask>
<g mask="url(#mask26_0_1)">
<path d="M427.568 631.756C427.198 631.756 426.85 631.52 426.727 631.15C426.57 630.69 426.817 630.185 427.288 630.028L433.177 628.065C433.648 627.908 434.153 628.155 434.31 628.626C434.467 629.086 434.22 629.591 433.749 629.748L427.86 631.711C427.759 631.733 427.658 631.756 427.568 631.756Z" fill="#0D0D0D"/>
</g>
<mask id="mask27_0_1" style="mask-type:luminance" maskUnits="userSpaceOnUse" x="342" y="510" width="137" height="138">
<path d="M462.151 647H358.849C349.549 647 342 639.462 342 630.152V526.849C342 517.55 349.538 510 358.849 510H462.151C471.451 510 479 517.538 479 526.849V630.152C479 639.462 471.451 647 462.151 647Z" fill="white"/>
</mask>
<g mask="url(#mask27_0_1)">
<path d="M422.105 630.589C422.049 630.589 421.992 630.578 421.948 630.567L414.836 628.94C414.454 628.85 414.207 628.469 414.297 628.087C414.387 627.706 414.768 627.47 415.15 627.56L422.262 629.187C422.643 629.276 422.89 629.658 422.8 630.039C422.722 630.376 422.43 630.589 422.105 630.589ZM404.56 626.573C404.504 626.573 404.448 626.562 404.403 626.551L393.971 624.161C393.59 624.072 393.343 623.69 393.433 623.309C393.522 622.927 393.904 622.692 394.285 622.782L404.717 625.171C405.099 625.261 405.346 625.642 405.256 626.023C405.177 626.36 404.886 626.573 404.56 626.573Z" fill="#0D0D0D"/>
</g>
<mask id="mask28_0_1" style="mask-type:luminance" maskUnits="userSpaceOnUse" x="342" y="510" width="137" height="138">
<path d="M462.151 647H358.849C349.549 647 342 639.462 342 630.152V526.849C342 517.55 349.538 510 358.849 510H462.151C471.451 510 479 517.538 479 526.849V630.152C479 639.462 471.451 647 462.151 647Z" fill="white"/>
</mask>
<g mask="url(#mask28_0_1)">
<path d="M440.984 573.099C440.861 573.099 440.726 573.065 440.614 572.998C438.842 571.921 419.2 566.335 414.623 567.558C414.241 567.659 413.849 567.434 413.748 567.064C413.647 566.683 413.871 566.301 414.253 566.2C419.278 564.854 439.189 570.485 441.365 571.798C441.702 572 441.803 572.437 441.601 572.774C441.466 572.976 441.231 573.099 440.984 573.099Z" fill="#0D0D0D"/>
</g>
<mask id="mask29_0_1" style="mask-type:luminance" maskUnits="userSpaceOnUse" x="342" y="510" width="137" height="138">
<path d="M462.151 647H358.849C349.549 647 342 639.462 342 630.152V526.849C342 517.55 349.538 510 358.849 510H462.151C471.451 510 479 517.538 479 526.849V630.152C479 639.462 471.451 647 462.151 647Z" fill="white"/>
</mask>
<g mask="url(#mask29_0_1)">
<path d="M380.611 580.884C380.297 580.884 379.971 580.761 379.736 580.525C379.242 580.043 379.242 579.258 379.725 578.775L405.94 552.504C406.265 552.178 406.748 552.055 407.185 552.19C407.623 552.324 407.959 552.683 408.049 553.132L409.047 558.113C410.663 557.608 412.211 557.036 413.714 556.475C415.666 555.757 417.674 555.017 419.861 554.388C420.209 554.287 420.579 554.343 420.882 554.534C421.185 554.725 421.387 555.039 421.443 555.387C421.6 556.408 421.88 557.597 422.149 558.741C422.318 559.447 422.486 560.165 422.621 560.861L436.003 556.632C436.396 556.508 436.833 556.587 437.159 556.834C437.484 557.092 437.663 557.484 437.63 557.888C437.551 559.021 437.361 560.457 437.17 561.848C437.091 562.431 437.013 563.026 436.945 563.598C438.303 562.97 439.705 562.241 441.074 561.534C443.16 560.457 445.314 559.335 447.367 558.539C447.782 558.382 448.253 558.449 448.601 558.718C448.948 558.988 449.128 559.425 449.072 559.863L448.275 565.729L456.195 559.93C456.744 559.526 457.53 559.638 457.945 560.188C458.36 560.737 458.236 561.512 457.687 561.915L447.4 569.454C446.996 569.745 446.458 569.779 446.02 569.521C445.583 569.263 445.347 568.78 445.415 568.287L446.312 561.691C444.977 562.308 443.598 563.026 442.251 563.721C440.165 564.798 438.011 565.92 435.958 566.716C435.554 566.874 435.106 566.817 434.758 566.559C434.41 566.313 434.22 565.898 434.253 565.471C434.332 564.338 434.522 562.902 434.713 561.512C434.803 560.85 434.893 560.177 434.971 559.537L422.049 563.62C421.701 563.733 421.319 563.688 421.005 563.497C420.691 563.306 420.489 562.992 420.433 562.633C420.276 561.612 419.996 560.423 419.726 559.279C419.558 558.573 419.39 557.843 419.244 557.148C417.64 557.653 416.103 558.225 414.6 558.774C412.648 559.492 410.64 560.233 408.453 560.861C408.116 560.962 407.757 560.906 407.454 560.726C407.152 560.547 406.95 560.255 406.882 559.907L406.075 555.869L381.508 580.48C381.25 580.761 380.925 580.884 380.611 580.884Z" fill="#0D0D0D"/>
</g>
<mask id="mask30_0_1" style="mask-type:luminance" maskUnits="userSpaceOnUse" x="342" y="510" width="137" height="138">
<path d="M462.151 647H358.849C349.549 647 342 639.462 342 630.152V526.849C342 517.55 349.538 510 358.849 510H462.151C471.451 510 479 517.538 479 526.849V630.152C479 639.462 471.451 647 462.151 647Z" fill="white"/>
</mask>
<g mask="url(#mask30_0_1)">
<path d="M443.99 556.991C443.923 556.991 443.856 556.98 443.789 556.968C435.555 555.073 418.437 551.113 392.39 550.069C391.896 550.047 391.515 549.643 391.537 549.15C391.56 548.667 391.975 548.297 392.468 548.297C418.684 549.352 435.914 553.323 444.192 555.241C444.675 555.353 444.966 555.824 444.854 556.306C444.764 556.722 444.394 556.991 443.99 556.991Z" fill="#0D0D0D"/>
</g>
<mask id="mask31_0_1" style="mask-type:luminance" maskUnits="userSpaceOnUse" x="342" y="510" width="137" height="138">
<path d="M462.151 647H358.849C349.549 647 342 639.462 342 630.152V526.849C342 517.55 349.538 510 358.849 510H462.151C471.451 510 479 517.538 479 526.849V630.152C479 639.462 471.451 647 462.151 647Z" fill="white"/>
</mask>
<g mask="url(#mask31_0_1)">
<path d="M457.407 561.635C457.205 561.635 456.992 561.567 456.824 561.422C456.768 561.377 454.075 559.257 444.148 556.968C443.665 556.856 443.374 556.385 443.486 555.903C443.598 555.431 444.08 555.128 444.563 555.241C455.13 557.675 457.889 559.986 458.001 560.075C458.372 560.401 458.416 560.95 458.091 561.321C457.9 561.534 457.654 561.635 457.407 561.635Z" fill="#0D0D0D"/>
</g>
<mask id="mask32_0_1" style="mask-type:luminance" maskUnits="userSpaceOnUse" x="342" y="510" width="137" height="138">
<path d="M462.151 647H358.849C349.549 647 342 639.462 342 630.152V526.849C342 517.55 349.538 510 358.849 510H462.151C471.451 510 479 517.538 479 526.849V630.152C479 639.462 471.451 647 462.151 647Z" fill="white"/>
</mask>
<g mask="url(#mask32_0_1)">
<path d="M436.375 576.06C435.769 577.99 434.154 579.358 432.763 579.1C431.361 578.842 430.721 577.07 431.316 575.141" fill="#0D0D0D"/>
<path d="M433.111 579.493C432.976 579.493 432.83 579.482 432.696 579.46C432.079 579.347 431.563 578.988 431.204 578.405C430.677 577.541 430.587 576.285 430.968 575.04C431.024 574.849 431.226 574.748 431.417 574.804C431.608 574.86 431.709 575.062 431.652 575.242C431.327 576.296 431.383 577.339 431.81 578.024C432.056 578.416 432.404 578.674 432.819 578.742C434.019 578.955 435.489 577.676 436.027 575.948C436.083 575.758 436.285 575.657 436.476 575.713C436.667 575.769 436.768 575.971 436.712 576.15C436.117 578.113 434.58 579.493 433.111 579.493Z" fill="#0D0D0D"/>
</g>
<path d="M462.152 647H358.85C349.55 647 342.001 639.462 342.001 630.151V526.849C342.001 517.549 349.539 510 358.85 510H462.152C471.452 510 479.001 517.538 479.001 526.849V630.151C479.001 639.462 471.452 647 462.152 647Z" stroke="#0D0D0D" stroke-width="3" stroke-miterlimit="10"/>
<defs>
<linearGradient id="paint0_linear_0_1" x1="411.656" y1="107.553" x2="411.656" y2="264.633" gradientUnits="userSpaceOnUse">
<stop offset="0.046344" stop-color="#FFF1DB"/>
<stop offset="0.177083" stop-color="#FFFBF3"/>
</linearGradient>
<linearGradient id="paint1_linear_0_1" x1="1579.51" y1="100.935" x2="1579.51" y2="257.767" gradientUnits="userSpaceOnUse">
<stop offset="0.046344" stop-color="#FFF1DB"/>
<stop offset="0.177083" stop-color="#FFFBF3"/>
</linearGradient>
<linearGradient id="paint2_linear_0_1" x1="1572.37" y1="496.988" x2="1572.37" y2="655.223" gradientUnits="userSpaceOnUse">
<stop offset="0.046344" stop-color="#FFF1DB"/>
<stop offset="0.177083" stop-color="#FFFBF3"/>
</linearGradient>
<linearGradient id="paint3_linear_0_1" x1="403.462" y1="508.228" x2="403.462" y2="665.891" gradientUnits="userSpaceOnUse">
<stop offset="0.046344" stop-color="#FFF1DB"/>
<stop offset="0.177083" stop-color="#FFFBF3"/>
</linearGradient>
</defs>
</svg>
