<svg width="228" height="228" viewBox="0 0 228 228" fill="none" xmlns="http://www.w3.org/2000/svg">
    <g clip-path="url(#clip0_342_1207)">
        <path
            d="M220.143 72.4018C204.697 35.4836 177.569 12.0837 138.59 2.7274C132.862 1.35228 126.913 0.886292 121.066 0H106.903C101.873 0.726394 96.8114 1.26091 91.8271 2.20659C72.3607 5.90252 55.0963 14.3086 40.0887 27.1918C19.0461 45.2603 6.20404 68.0709 1.46649 95.3951C0.781216 99.3515 0.479694 103.372 0 107.36V121.066C1.4939 129.335 2.11979 137.878 4.63704 145.818C18.0274 188.109 46.4526 214.702 89.6068 225.264C95.2535 226.649 101.133 227.092 106.903 227.969H120.609C125.794 227.247 131.025 226.763 136.155 225.758C158.555 221.386 177.875 211.07 194.093 195.039C211.678 177.66 222.386 156.663 226.543 132.318C227.178 128.595 227.498 124.816 227.969 121.066V107.36C226.909 95.3586 224.812 83.5581 220.143 72.4018ZM132.185 159.583V133.912H18.0228V130.691C18.0228 119.426 18.0776 108.155 17.9771 96.889C17.9588 94.7144 18.5436 94.0703 20.773 94.0748C56.7044 94.1388 92.6403 94.1159 128.572 94.1159H131.984V68.2719C158.144 83.6266 183.832 98.7119 209.841 113.98C183.864 129.234 158.208 144.301 132.185 159.583Z"
            fill="#003399" />
        <path
            d="M18.0223 133.912C18.0223 132.624 18.0223 131.655 18.0223 130.692C18.0223 119.426 18.0772 108.155 17.9721 96.8891C17.9538 94.7099 18.5386 94.0657 20.768 94.0703C56.6994 94.1388 92.6353 94.116 128.567 94.1114C129.617 94.1114 130.673 94.1114 131.979 94.1114C131.979 85.5729 131.979 77.2399 131.979 68.2673C158.139 83.6267 183.827 98.7073 209.836 113.98C183.859 129.234 158.203 144.301 132.176 159.583C132.176 150.875 132.176 142.556 132.176 133.917C94.0653 133.912 56.2014 133.912 18.0223 133.912Z"
            fill="white" />
    </g>
    <defs>
        <clipPath id="clip0_342_1207">
            <rect width="227.969" height="227.969" fill="white" />
        </clipPath>
    </defs>
</svg>