<svg width="1920" height="382" viewBox="0 0 1920 382" fill="none" xmlns="http://www.w3.org/2000/svg">
<path d="M1468.94 300.427C1468.22 297.067 1467.19 293.299 1465.73 289.349C1462.56 280.778 1456.04 264.3 1440.86 247.201C1421.26 225.115 1395.65 213.034 1364.93 200.307C1303.45 174.832 1173.23 143.826 1148.97 140.897C1145.83 140.518 1142.5 141.285 1139.57 143.051C1127.71 150.217 1097.02 183.467 1062.65 198.533C1040.77 208.12 879.626 202.159 839.851 202.159C758.372 202.159 888.145 128.666 871.731 130.358C871.671 130.367 871.628 130.371 871.624 130.371C868.544 130.733 688.574 143.046 526.947 220.92C492.694 237.425 460.215 264.791 467.627 291.938C476.435 324.192 574.939 315.699 606.837 315.794H608.951H609.942C608.542 307.529 608.378 298.756 609.623 289.668C616.368 240.487 661.703 200.622 710.875 200.622C713.571 200.622 716.22 200.742 718.826 200.975C719.157 201.005 719.485 201.035 719.816 201.07C720.803 201.169 721.78 201.285 722.749 201.419C723.081 201.462 723.404 201.509 723.731 201.556C724.334 201.647 724.937 201.742 725.54 201.845C725.829 201.892 726.117 201.944 726.402 201.996C727.259 202.155 728.112 202.323 728.956 202.504H728.96C730.015 202.732 731.062 202.978 732.096 203.245C732.1 203.24 732.1 203.24 732.104 203.245C764.2 211.527 786.359 238.476 788.409 272.311C788.482 273.478 788.525 274.654 788.547 275.838C788.568 276.764 788.564 277.69 788.551 278.625C788.538 279.62 788.504 280.623 788.456 281.627C788.439 282.045 788.413 282.462 788.387 282.884C788.344 283.612 788.288 284.349 788.224 285.085C788.198 285.447 788.159 285.809 788.12 286.175C788.099 286.425 788.073 286.675 788.043 286.929C787.948 287.825 787.84 288.725 787.715 289.625C787.522 291.033 787.302 292.433 787.044 293.828C786.906 294.574 786.764 295.319 786.609 296.059C786.118 298.424 785.532 300.758 784.869 303.067C784.705 303.644 784.533 304.217 784.356 304.785C783.37 307.998 782.211 311.151 780.902 314.235C780.674 314.782 780.437 315.32 780.196 315.863L975.141 315.936C1039.61 315.962 1103.77 315.983 1159.43 316.005C1157.94 307.593 1157.75 298.635 1159.02 289.354C1165.76 240.172 1211.09 200.307 1260.27 200.307C1262.6 200.307 1264.9 200.398 1267.17 200.574C1268.19 200.652 1269.2 200.747 1270.2 200.863C1270.83 200.936 1271.46 201.014 1272.09 201.1C1272.72 201.186 1273.34 201.276 1273.96 201.375C1273.97 201.371 1273.97 201.371 1273.97 201.375C1274.85 201.513 1275.73 201.668 1276.59 201.836C1276.59 201.836 1276.6 201.836 1276.6 201.836C1311.37 208.547 1335.71 236.542 1337.81 272.126V272.13C1337.84 272.694 1337.87 273.263 1337.89 273.831C1337.89 273.836 1337.89 273.84 1337.89 273.84C1337.92 274.439 1337.93 275.037 1337.95 275.636C1337.95 275.937 1337.95 276.239 1337.95 276.54C1337.95 276.545 1337.95 276.545 1337.95 276.549C1337.96 277.186 1337.95 277.824 1337.95 278.466C1337.94 278.789 1337.93 279.112 1337.92 279.435C1337.92 279.439 1337.92 279.439 1337.92 279.443C1337.9 280.119 1337.88 280.796 1337.85 281.476C1337.83 281.816 1337.81 282.157 1337.79 282.501C1337.76 282.876 1337.74 283.255 1337.71 283.634C1337.68 284.009 1337.65 284.383 1337.62 284.758C1337.62 284.771 1337.62 284.784 1337.61 284.801C1337.59 285.137 1337.55 285.477 1337.52 285.818C1337.52 285.882 1337.51 285.942 1337.51 286.007C1337.47 286.356 1337.43 286.705 1337.39 287.054C1337.36 287.437 1337.31 287.82 1337.26 288.204C1337.21 288.587 1337.16 288.97 1337.11 289.354C1336.92 290.749 1336.69 292.14 1336.44 293.523C1336.27 294.444 1336.09 295.357 1335.89 296.27C1335.7 297.184 1335.49 298.097 1335.27 299.001C1334.93 300.358 1334.57 301.706 1334.18 303.045C1334.18 303.045 1334.18 303.045 1334.18 303.05C1333.92 303.941 1333.65 304.828 1333.36 305.711C1332.23 309.243 1330.89 312.701 1329.36 316.07C1329.36 316.07 1329.36 316.07 1329.36 316.07C1353.91 315.006 1432.08 314.571 1457.19 314.424C1464.41 314.381 1470.4 307.236 1468.94 300.427Z" fill="#F9AC12"/>
<path d="M798.461 313.92C799.771 310.837 800.929 307.684 801.915 304.471C802.092 303.902 802.26 303.33 802.428 302.752C803.091 300.444 803.677 298.11 804.168 295.745C804.323 295.004 804.465 294.259 804.603 293.514C804.857 292.119 805.081 290.719 805.275 289.31C805.4 288.41 805.507 287.51 805.602 286.614C805.632 286.36 805.658 286.11 805.68 285.861C805.718 285.495 805.753 285.133 805.783 284.771C805.848 284.034 805.904 283.298 805.947 282.57C805.973 282.148 805.998 281.73 806.016 281.312C806.063 280.309 806.097 279.305 806.11 278.311C806.123 277.376 806.123 276.45 806.106 275.524C806.089 274.34 806.041 273.164 805.968 271.997C803.914 238.161 781.759 211.213 749.659 202.93C749.655 202.926 749.655 202.926 749.651 202.93C748.617 202.663 747.566 202.418 746.515 202.19H746.511C745.667 202.009 744.814 201.841 743.957 201.681C743.672 201.63 743.38 201.578 743.095 201.531C742.492 201.427 741.889 201.332 741.286 201.242C740.959 201.195 740.636 201.147 740.304 201.104C739.335 200.971 738.358 200.854 737.371 200.755C737.04 200.721 736.712 200.691 736.381 200.661C733.775 200.428 731.126 200.307 728.43 200.307C679.253 200.307 633.919 240.173 627.178 289.354C625.916 298.558 626.093 307.443 627.544 315.794" stroke="#0D0D0D" stroke-width="5.16834" stroke-miterlimit="10" stroke-linecap="round"/>
<path d="M983.475 327.965C979.887 327.965 976.295 327.961 972.708 327.961" stroke="#0D0D0D" stroke-width="5.16834" stroke-linecap="round" stroke-linejoin="round"/>
<path d="M949.743 327.953C874.031 327.922 799.039 327.892 731.587 327.866" stroke="#0D0D0D" stroke-width="5.16834" stroke-linecap="round" stroke-linejoin="round" stroke-dasharray="22.96 22.96"/>
<path d="M720.105 327.862C716.491 327.862 712.904 327.858 709.337 327.858C709.393 327.741 709.441 327.634 709.492 327.522" stroke="#0D0D0D" stroke-width="5.16834" stroke-linecap="round" stroke-linejoin="round"/>
<path d="M627.109 315.794H624.994C593.097 315.699 494.597 324.192 485.785 291.938C478.369 264.791 510.847 237.425 545.105 220.92C706.736 143.046 871.804 130.733 874.884 130.371C874.888 130.371 889.829 130.367 889.889 130.358C906.303 128.666 761.632 202.159 843.111 202.159C882.886 202.159 1058.92 208.12 1080.8 198.533C1115.18 183.467 1145.1 155.817 1156.96 148.65C1159.89 146.884 1163.22 146.117 1166.36 146.496C1190.63 149.425 1321.61 174.832 1383.09 200.307C1413.8 213.034 1439.42 225.115 1459.02 247.201C1474.2 264.3 1480.72 280.778 1483.89 289.349C1485.35 293.299 1486.38 297.067 1487.1 300.427C1488.56 307.236 1482.57 314.381 1475.35 314.424C1450.24 314.571 1372.07 315.006 1347.52 316.07C1347.52 316.07 1347.52 316.07 1347.52 316.07C1349.04 312.701 1350.38 309.243 1351.52 305.711C1351.81 304.828 1352.08 303.941 1352.34 303.05C1352.34 303.045 1352.34 303.045 1352.34 303.045C1352.73 301.706 1353.09 300.358 1353.42 299.001C1353.65 298.097 1353.86 297.184 1354.05 296.27C1354.25 295.357 1354.43 294.444 1354.6 293.523C1354.85 292.14 1355.07 290.749 1355.26 289.354C1355.32 288.97 1355.36 288.587 1355.41 288.204C1355.46 287.82 1355.51 287.437 1355.55 287.054C1355.59 286.705 1355.63 286.356 1355.66 286.007C1355.67 285.942 1355.68 285.882 1355.68 285.818C1355.72 285.477 1355.75 285.137 1355.77 284.801C1355.78 284.784 1355.78 284.771 1355.78 284.758C1355.81 284.383 1355.84 284.009 1355.87 283.634C1355.9 283.255 1355.92 282.876 1355.94 282.501C1355.97 282.157 1355.99 281.816 1356 281.476C1356.04 280.796 1356.06 280.119 1356.08 279.443C1356.08 279.439 1356.08 279.439 1356.08 279.435C1356.09 279.112 1356.1 278.789 1356.1 278.466C1356.11 277.824 1356.12 277.186 1356.11 276.549C1356.11 276.545 1356.11 276.545 1356.11 276.54C1356.11 276.239 1356.11 275.937 1356.1 275.636C1356.09 275.037 1356.07 274.439 1356.05 273.84C1356.05 273.84 1356.05 273.836 1356.05 273.831C1356.03 273.263 1356 272.694 1355.97 272.13V272.126C1353.87 236.542 1329.53 208.547 1294.76 201.836C1294.76 201.836 1294.75 201.836 1294.75 201.836C1293.88 201.668 1293.01 201.513 1292.13 201.375C1292.13 201.371 1292.12 201.371 1292.12 201.375C1291.5 201.276 1290.87 201.186 1290.25 201.1C1289.62 201.014 1288.99 200.936 1288.36 200.863C1287.36 200.747 1286.35 200.652 1285.33 200.574C1283.07 200.398 1280.77 200.307 1278.42 200.307C1229.25 200.307 1183.92 240.172 1177.18 289.354C1175.91 298.635 1176.09 307.593 1177.58 316.005C1121.93 315.983 1057.77 315.962 993.299 315.936" stroke="#0D0D0D" stroke-width="6" stroke-miterlimit="10" stroke-linecap="round"/>
<path d="M638.893 345.073C652.395 365.565 675.756 378.706 703.988 378.706C739.029 378.706 772.124 358.463 790.687 329.033C792.328 326.436 793.852 323.766 795.256 321.035C795.605 320.359 795.946 319.674 796.277 318.99C796.768 317.978 797.246 316.957 797.698 315.927C797.953 315.363 798.198 314.799 798.435 314.23C799.744 311.147 800.903 307.994 801.889 304.781C802.066 304.213 802.234 303.64 802.402 303.063C803.065 300.754 803.651 298.42 804.142 296.055C804.297 295.314 804.439 294.569 804.577 293.824C804.831 292.429 805.055 291.029 805.249 289.621C805.373 288.72 805.481 287.82 805.576 286.924C805.606 286.67 805.632 286.42 805.653 286.171C805.692 285.805 805.727 285.443 805.757 285.081C805.821 284.345 805.877 283.608 805.92 282.88C805.946 282.458 805.972 282.04 805.989 281.623C806.037 280.619 806.071 279.616 806.084 278.621C806.097 277.686 806.097 276.76 806.08 275.834C806.063 274.65 806.015 273.474 805.942 272.307C803.888 238.471 781.733 211.523 749.637 203.24C749.633 203.236 749.633 203.236 749.629 203.24C748.591 202.973 747.544 202.728 746.493 202.5H746.489C745.645 202.319 744.792 202.151 743.935 201.991C743.651 201.94 743.358 201.888 743.073 201.841C742.47 201.737 741.867 201.642 741.264 201.552C740.941 201.505 740.614 201.457 740.282 201.414C739.313 201.281 738.336 201.164 737.349 201.065C737.018 201.031 736.69 201.001 736.359 200.971C733.753 200.738 731.104 200.617 728.408 200.617C679.231 200.617 633.897 240.483 627.156 289.664C625.575 301.198 626.256 312.223 628.862 322.34H628.866M713.317 310.673C701.714 310.673 693.595 301.267 695.189 289.664C696.778 278.061 707.476 268.65 719.079 268.65C730.682 268.65 738.797 278.061 737.207 289.664C735.618 301.267 724.92 310.673 713.317 310.673Z" stroke="#0D0D0D" stroke-width="5.16834" stroke-miterlimit="10" stroke-linecap="round" stroke-linejoin="round"/>
<path d="M770.655 286.924C770.686 286.67 770.711 286.42 770.733 286.171C770.772 285.805 770.806 285.443 770.836 285.081C770.901 284.345 770.957 283.608 771 282.88C771.026 282.458 771.052 282.04 771.069 281.623C771.116 280.619 771.151 279.616 771.164 278.621C771.177 277.686 771.177 276.76 771.159 275.834C771.142 274.65 771.095 273.474 771.021 272.307C768.967 238.471 746.812 211.523 714.712 203.24C714.708 203.236 714.708 203.236 714.704 203.24C713.67 202.973 712.619 202.728 711.568 202.5H711.564C710.72 202.319 709.867 202.151 709.01 201.991C708.726 201.94 708.433 201.888 708.149 201.841C707.546 201.737 706.943 201.642 706.34 201.552C706.012 201.505 705.689 201.457 705.358 201.414C704.389 201.281 703.411 201.164 702.425 201.065C702.093 201.031 701.766 201.001 701.434 200.971C698.828 200.738 696.18 200.617 693.483 200.617C644.307 200.617 598.972 240.483 592.231 289.664C590.651 301.198 591.331 312.223 593.937 322.34H593.941C602.443 355.349 631.429 378.706 669.072 378.706C704.113 378.706 737.208 358.463 755.771 329.033C757.412 326.436 758.936 323.766 760.34 321.035C760.689 320.359 761.029 319.674 761.361 318.99C761.852 317.978 762.33 316.957 762.782 315.927C763.036 315.363 763.282 314.799 763.519 314.23C764.828 311.147 765.987 307.994 766.973 304.781C767.15 304.213 767.317 303.64 767.485 303.063C768.149 300.754 768.734 298.42 769.225 296.055C769.381 295.314 769.523 294.569 769.66 293.824C769.915 292.429 770.139 291.029 770.332 289.621C770.453 288.72 770.565 287.82 770.655 286.924Z" stroke="#0D0D0D" stroke-width="3.01486" stroke-miterlimit="10" stroke-linecap="round"/>
<path d="M738.512 286.924C738.543 286.67 738.568 286.42 738.59 286.171C738.629 285.805 738.663 285.443 738.693 285.081C738.758 284.345 738.814 283.608 738.857 282.88C738.883 282.458 738.909 282.04 738.926 281.623C738.973 280.619 739.008 279.616 739.021 278.621C739.034 277.686 739.034 276.76 739.016 275.834C738.999 274.65 738.952 273.474 738.878 272.307C736.824 238.471 714.669 211.523 682.574 203.24C682.569 203.236 682.569 203.236 682.565 203.24C681.527 202.973 680.481 202.728 679.43 202.5H679.425C678.581 202.319 677.728 202.151 676.871 201.991C676.587 201.94 676.294 201.888 676.01 201.841C675.407 201.737 674.804 201.642 674.201 201.552C673.878 201.505 673.551 201.457 673.219 201.414C672.25 201.281 671.272 201.164 670.286 201.065C669.954 201.031 669.627 201.001 669.295 200.971C666.69 200.738 664.041 200.617 661.345 200.617C612.168 200.617 566.833 240.483 560.093 289.664C558.512 301.198 559.193 312.223 561.798 322.34H561.803C570.304 355.349 599.29 378.706 636.933 378.706C671.974 378.706 705.069 358.463 723.632 329.033C725.273 326.436 726.797 323.766 728.202 321.035C728.55 320.359 728.891 319.674 729.222 318.99C729.713 317.978 730.191 316.957 730.644 315.927C730.898 315.363 731.143 314.799 731.38 314.23C732.689 311.147 733.848 307.994 734.834 304.781C735.011 304.213 735.179 303.64 735.347 303.063C736.01 300.754 736.596 298.42 737.087 296.055C737.242 295.314 737.384 294.569 737.522 293.824C737.776 292.429 738 291.029 738.194 289.621C738.31 288.72 738.422 287.82 738.512 286.924Z" stroke="#0D0D0D" stroke-width="2.15348" stroke-miterlimit="10" stroke-linecap="round" stroke-linejoin="round"/>
<path d="M1205.66 363.127C1218.63 372.956 1235.18 378.706 1253.86 378.706C1288.9 378.706 1321.99 358.463 1340.56 329.033C1342.2 326.436 1343.72 323.766 1345.12 321.035C1345.47 320.359 1345.81 319.674 1346.15 318.99C1346.64 317.978 1347.11 316.957 1347.57 315.927C1347.82 315.363 1348.07 314.799 1348.3 314.23C1349.61 311.147 1350.77 307.994 1351.76 304.781C1351.93 304.213 1352.1 303.64 1352.27 303.063C1352.93 300.754 1353.52 298.42 1354.01 296.055C1354.17 295.314 1354.31 294.569 1354.45 293.824C1354.7 292.429 1354.92 291.029 1355.12 289.621C1355.24 288.72 1355.35 287.82 1355.44 286.924C1355.47 286.67 1355.5 286.42 1355.52 286.171C1355.56 285.805 1355.6 285.443 1355.63 285.081C1355.69 284.345 1355.75 283.608 1355.79 282.88C1355.81 282.458 1355.84 282.04 1355.86 281.623C1355.91 280.619 1355.94 279.616 1355.95 278.621C1355.97 277.686 1355.97 276.76 1355.95 275.834C1355.93 274.65 1355.88 273.474 1355.81 272.307C1353.76 238.471 1331.6 211.523 1299.5 203.24C1299.5 203.236 1299.5 203.236 1299.49 203.24C1298.45 202.973 1297.41 202.728 1296.36 202.5H1296.35C1295.51 202.319 1294.66 202.151 1293.8 201.991C1293.51 201.94 1293.22 201.888 1292.94 201.841C1292.33 201.737 1291.73 201.642 1291.13 201.552C1290.81 201.505 1290.48 201.457 1290.15 201.414C1289.18 201.281 1288.2 201.164 1287.21 201.065C1286.88 201.031 1286.55 201.001 1286.22 200.971C1283.62 200.738 1280.97 200.617 1278.27 200.617C1229.1 200.617 1183.76 240.483 1177.02 289.664C1175.44 301.198 1176.12 312.223 1178.73 322.34H1178.73C1180.48 329.141 1183.11 335.537 1186.49 341.399M1263.19 310.673C1251.58 310.673 1243.46 301.267 1245.06 289.664C1246.65 278.061 1257.35 268.65 1268.95 268.65C1280.55 268.65 1288.67 278.061 1287.08 289.664C1285.48 301.267 1274.79 310.673 1263.19 310.673Z" stroke="#0D0D0D" stroke-width="5.16834" stroke-miterlimit="10" stroke-linecap="round" stroke-linejoin="round"/>
<path d="M1320.52 286.924C1320.55 286.67 1320.58 286.42 1320.6 286.171C1320.64 285.805 1320.67 285.443 1320.7 285.081C1320.77 284.345 1320.83 283.608 1320.87 282.88C1320.89 282.458 1320.92 282.04 1320.94 281.623C1320.98 280.619 1321.02 279.616 1321.03 278.621C1321.04 277.686 1321.04 276.76 1321.03 275.834C1321.01 274.65 1320.96 273.474 1320.89 272.307C1318.84 238.471 1296.68 211.523 1264.58 203.24C1264.58 203.236 1264.58 203.236 1264.57 203.24C1263.53 202.973 1262.49 202.728 1261.44 202.5H1261.43C1260.59 202.319 1259.74 202.151 1258.88 201.991C1258.59 201.94 1258.3 201.888 1258.02 201.841C1257.41 201.737 1256.81 201.642 1256.21 201.552C1255.88 201.505 1255.56 201.457 1255.23 201.414C1254.26 201.281 1253.28 201.164 1252.29 201.065C1251.96 201.031 1251.63 201.001 1251.3 200.971C1248.7 200.738 1246.05 200.617 1243.35 200.617C1194.17 200.617 1148.84 240.483 1142.1 289.664C1140.52 301.198 1141.2 312.223 1143.81 322.34H1143.81C1152.31 355.349 1181.3 378.706 1218.94 378.706C1253.98 378.706 1287.08 358.463 1305.64 329.033C1307.28 326.436 1308.8 323.766 1310.21 321.035C1310.56 320.359 1310.9 319.674 1311.23 318.99C1311.72 317.978 1312.2 316.957 1312.65 315.927C1312.9 315.363 1313.15 314.799 1313.39 314.23C1314.7 311.147 1315.85 307.994 1316.84 304.781C1317.02 304.213 1317.19 303.64 1317.35 303.063C1318.02 300.754 1318.6 298.42 1319.09 296.055C1319.25 295.314 1319.39 294.569 1319.53 293.824C1319.78 292.429 1320.01 291.029 1320.2 289.621C1320.32 288.72 1320.43 287.82 1320.52 286.924Z" stroke="#0D0D0D" stroke-width="3.01486" stroke-miterlimit="10" stroke-linecap="round"/>
<path d="M1288.38 286.924C1288.41 286.67 1288.44 286.42 1288.46 286.171C1288.5 285.805 1288.53 285.443 1288.56 285.081C1288.63 284.345 1288.68 283.608 1288.73 282.88C1288.75 282.458 1288.78 282.04 1288.79 281.623C1288.84 280.619 1288.88 279.616 1288.89 278.621C1288.9 277.686 1288.9 276.76 1288.88 275.834C1288.87 274.65 1288.82 273.474 1288.75 272.307C1286.69 238.471 1264.54 211.523 1232.44 203.24C1232.44 203.236 1232.44 203.236 1232.43 203.24C1231.4 202.973 1230.35 202.728 1229.3 202.5H1229.29C1228.45 202.319 1227.6 202.151 1226.74 201.991C1226.46 201.94 1226.16 201.888 1225.88 201.841C1225.28 201.737 1224.67 201.642 1224.07 201.552C1223.75 201.505 1223.42 201.457 1223.09 201.414C1222.12 201.281 1221.14 201.164 1220.15 201.065C1219.82 201.031 1219.5 201.001 1219.16 200.971C1216.56 200.738 1213.91 200.617 1211.21 200.617C1162.04 200.617 1116.7 240.483 1109.96 289.664C1108.38 301.198 1109.06 312.223 1111.67 322.34H1111.67C1120.17 355.349 1149.16 378.706 1186.8 378.706C1221.84 378.706 1254.94 358.463 1273.5 329.033C1275.14 326.436 1276.67 323.766 1278.07 321.035C1278.42 320.359 1278.76 319.674 1279.09 318.99C1279.58 317.978 1280.06 316.957 1280.51 315.927C1280.77 315.363 1281.01 314.799 1281.25 314.23C1282.56 311.147 1283.72 307.994 1284.7 304.781C1284.88 304.213 1285.05 303.64 1285.22 303.063C1285.88 300.754 1286.46 298.42 1286.96 296.055C1287.11 295.314 1287.25 294.569 1287.39 293.824C1287.64 292.429 1287.87 291.029 1288.06 289.621C1288.18 288.72 1288.29 287.82 1288.38 286.924Z" stroke="#0D0D0D" stroke-width="2.15348" stroke-miterlimit="10" stroke-linecap="round" stroke-linejoin="round"/>
<path d="M797.053 341.399H1029.31" stroke="#0D0D0D" stroke-width="3.44556" stroke-miterlimit="10" stroke-linecap="round"/>
<path d="M1504.08 59.3279H1497.86" stroke="#0D0D0D" stroke-width="3.73206" stroke-miterlimit="10" stroke-linecap="round"/>
<path d="M1486.01 59.3279H1278.79" stroke="#0D0D0D" stroke-width="3.73206" stroke-miterlimit="10" stroke-linecap="round" stroke-dasharray="11.84 11.84"/>
<path d="M1272.87 59.3279H1266.65" stroke="#0D0D0D" stroke-width="3.73206" stroke-miterlimit="10" stroke-linecap="round"/>
<path d="M916.997 184.462H656.612" stroke="#0D0D0D" stroke-width="3.01486" stroke-miterlimit="10" stroke-linecap="round" stroke-dasharray="12.44 12.44"/>
<path d="M709.63 279.887H426.315" stroke="#0D0D0D" stroke-width="4" stroke-miterlimit="10" stroke-linecap="round"/>
<path d="M638 116H431" stroke="#0D0D0D" stroke-width="3" stroke-miterlimit="10" stroke-linecap="round"/>
<path d="M509.684 79H125" stroke="#0D0D0D" stroke-width="4" stroke-miterlimit="10" stroke-linecap="round"/>
<path d="M536 188L-2 188" stroke="#0D0D0D" stroke-width="7" stroke-miterlimit="10" stroke-linecap="round" stroke-dasharray="70 70"/>
<path d="M272.036 263.641H599.997" stroke="#0D0D0D" stroke-width="3.3667" stroke-miterlimit="10" stroke-linecap="round" stroke-dasharray="18.7 18.7"/>
<path d="M1017.68 56.6061C1017.68 56.6061 1008.87 5.53 939.178 30.4586L930.607 35.3212C930.607 35.3212 949.7 2.48498 984.991 6.74456C1020.28 10.9998 1033.56 38.3619 1033.35 48.6986C1033.15 59.0352 1032.35 55.9945 1032.35 55.9945L1017.68 56.6061Z" fill="#F9AC12"/>
<path d="M1135.45 166.717C1151.61 134.445 1166.94 105.287 1169.39 106.08C1169.44 106.093 1169.46 106.11 1169.48 106.123C1172.06 107.893 1191.06 132.654 1204.99 151.006" stroke="#0D0D0D" stroke-width="2.15348" stroke-miterlimit="10" stroke-linecap="round"/>
<path d="M979.853 70.0307C985.482 68.5319 1008.46 74.988 1010.94 76.504" stroke="#0D0D0D" stroke-width="1.71679" stroke-miterlimit="10" stroke-linecap="round" stroke-linejoin="round"/>
<path d="M976.454 73.6272C976.454 73.6272 983.569 82.4608 1014.72 83.6925C1014.72 83.6969 994.69 73.6272 976.454 73.6272Z" stroke="#0D0D0D" stroke-width="1.58858" stroke-miterlimit="10" stroke-linecap="round" stroke-linejoin="round"/>
<path d="M1000.07 78.1968C999.238 80.2512 1000.17 82.3616 1002.15 82.9086C1004.13 83.4556 1006.41 82.2324 1007.24 80.178" fill="#0D0D0D"/>
<path d="M997.683 107.967C993.523 107.053 986.373 105.137 984.159 102.359" stroke="#0D0D0D" stroke-width="1.87878" stroke-miterlimit="10" stroke-linecap="round" stroke-linejoin="round"/>
<path d="M995.422 106.691C995.422 106.691 990.056 100.61 988.613 100.123C987.17 99.6366 987.984 104.749 987.984 104.749" stroke="#0D0D0D" stroke-width="1.28791" stroke-miterlimit="10" stroke-linecap="round" stroke-linejoin="round"/>
<path d="M1021.97 74.2644L1024.4 64.871L1032.55 73.7131L1035.15 62.8898L1048.88 77.163C1048.23 74.118 1047.99 64.871 1036.85 51.3945" stroke="#0D0D0D" stroke-width="2.58417" stroke-miterlimit="10" stroke-linecap="round" stroke-linejoin="round"/>
<path d="M1030.13 51.4936C1030.13 51.4936 1010.88 58.122 965.566 44.8049" stroke="#0D0D0D" stroke-width="1.97392" stroke-miterlimit="10" stroke-linecap="round" stroke-linejoin="round"/>
<path d="M915.097 67.1752C913.189 28.1241 942.274 9.95737 942.274 9.95737C953.037 2.69155 964.399 0.632826 974.369 0.882629" stroke="#0D0D0D" stroke-width="1.72278" stroke-miterlimit="10" stroke-linecap="round" stroke-linejoin="round"/>
<path d="M839.976 30.9453C839.976 30.9453 847.918 40.4723 861.321 38.9692C874.724 37.466 870.413 52.0149 879.587 54.2072C888.76 56.3994 889.829 51.1708 894.601 61.8132C899.373 72.4557 907.689 59.2291 909.994 66.2666C912.298 73.3042 919.676 75.1131 922.949 74.7987" stroke="#0D0D0D" stroke-width="1.72278" stroke-miterlimit="10" stroke-linecap="round" stroke-linejoin="round"/>
<path d="M884.803 64.3413C889.118 64.2939 890.587 63.3679 894.106 71.2065C897.086 77.8522 901.471 75.0225 904.852 73.8553" stroke="#0D0D0D" stroke-width="1.72278" stroke-miterlimit="10" stroke-linecap="round" stroke-linejoin="round"/>
<path d="M873.794 66.3784C876.077 66.766 877.834 66.7359 879.268 66.6239" stroke="#0D0D0D" stroke-width="1.72278" stroke-miterlimit="10" stroke-linecap="round" stroke-linejoin="round"/>
<path d="M843.572 49.7192C843.572 49.7192 851.562 58.1221 863.974 55.8954C865.525 55.6155 866.834 55.5896 867.954 55.7576" stroke="#0D0D0D" stroke-width="1.72278" stroke-miterlimit="10" stroke-linecap="round" stroke-linejoin="round"/>
<path d="M835.312 56.0073C835.312 56.0073 843.788 65.0692 857.187 62.9243C870.585 60.7751 867.002 75.4231 876.34 77.1458C885.677 78.8729 886.482 73.6314 891.832 83.9594C897.181 94.2832 904.86 80.7551 907.539 87.6246C909.555 92.793 921.718 90.7946 928.027 87.461" stroke="#0D0D0D" stroke-width="2.58417" stroke-miterlimit="10" stroke-linecap="round" stroke-linejoin="round"/>
<path d="M1138.2 142.943C1140 137.383 1138.01 134.295 1138.01 134.295C1125.75 120.396 1117.78 125.646 1115.28 126.262C1112.78 126.878 1089.8 138.309 1089.8 138.309L1093.36 136.65C1093.36 136.65 1037.53 160.003 1027.15 160.003C1018.71 160.003 996.658 152.164 988.699 149.231" stroke="#0D0D0D" stroke-width="3.44556" stroke-miterlimit="10" stroke-linecap="round" stroke-linejoin="round"/>
<path d="M1093.33 147.689C1093.33 147.689 1104.14 158.069 1102.62 161.032" stroke="#0D0D0D" stroke-width="1.57527" stroke-miterlimit="10" stroke-linecap="round" stroke-linejoin="round"/>
<path d="M1106.54 154.064C1106.54 154.064 1130.85 136.272 1131.89 142.202" stroke="#0D0D0D" stroke-width="2.58417" stroke-miterlimit="10" stroke-linecap="round" stroke-linejoin="round"/>
<path d="M1000.25 141.397C1010.99 144.998 1028.92 150.528 1034.18 149.257C1034.18 149.257 1059.57 145.178 1080.47 133.321C1080.47 133.321 1102.28 122.942 1106.42 125.168" stroke="#0D0D0D" stroke-width="2.15348" stroke-miterlimit="10" stroke-linecap="round" stroke-linejoin="round"/>
<path d="M1098.1 158.892C1098.1 158.892 1052.69 190.027 1021.88 192.99C1021.88 192.99 981.601 196.724 938.842 179.823" stroke="#0D0D0D" stroke-width="3.87626" stroke-miterlimit="10" stroke-linecap="round" stroke-linejoin="round"/>
<path d="M1110.39 155.735C1110.39 155.735 1107.8 174.638 1097.72 180.568" stroke="#0D0D0D" stroke-width="1.72278" stroke-miterlimit="10" stroke-linecap="round" stroke-linejoin="round"/>
<path d="M815.805 73.4117C822.658 78.7136 823.872 80.4363 827.451 81.8835C829.389 82.6673 832.469 83.5546 836.914 83.4124C855.287 84.0671 860.244 75.4575 872.799 81.1857C880.573 84.7304 879.608 90.4457 887.494 95.6614C897.194 102.079 909.873 96.9836 919.297 94.8431C919.56 94.7828 919.805 94.688 920.042 94.5545C922.045 93.4261 932.433 87.9606 936.869 93.6113C936.973 93.7448 937.089 93.874 937.214 93.986C944.661 100.632 946.655 101.687 946.999 101.377C947.615 100.825 948.571 100.877 949.347 101.161C952.271 102.225 956.509 107.635 956.841 107.682C963.999 108.69 971.794 114.233 975.085 117.76C978.375 121.288 983.173 123.303 987.609 125.823C992.046 128.343 993.85 130.104 993.402 133.382C992.954 136.659 992.782 139.175 992.162 143.71C991.542 148.245 986.253 153.788 980.266 149.757C974.275 145.725 968.004 142.301 962.552 137.663C955.889 131.999 934.165 127.421 932.502 127.076C932.433 127.063 932.369 127.046 932.304 127.029C931.081 126.68 918.573 123.196 906.187 123.346C906.135 123.346 906.083 123.346 906.032 123.342C897.383 122.864 856.471 122.838 839.558 114.427C822.597 105.989 827.029 99.8994 815.68 103.539C796.032 109.836 803.418 95.7691 800.167 88.4817C796.609 80.5096 783.417 78.9117 783.96 78.4336C784.998 77.5205 799.943 67.1666 809.31 68.6913C810.167 68.8334 812.002 70.4701 815.805 73.4117Z" fill="#FF4412"/>
<path d="M1134.12 147.582C1134.12 147.582 1131.8 159.072 1125.18 166.855" stroke="#0D0D0D" stroke-width="3.01486" stroke-miterlimit="10" stroke-linecap="round" stroke-linejoin="round"/>
<path d="M913.285 123.846C913.285 123.846 856.549 122.3 839.584 113.876C822.623 105.451 826.418 98.1036 815.706 103.005C799.495 110.417 785.932 109.306 778.257 100.412" stroke="#0D0D0D" stroke-width="1.57527" stroke-miterlimit="10" stroke-linecap="round" stroke-linejoin="round"/>
<path d="M938.221 94.4337C930.986 88.8089 926.623 92.052 919.74 94.2313C913.822 96.1048 897.37 101.644 887.529 95.1444C879.643 89.933 880.607 84.2306 872.833 80.6903C860.274 74.9706 850.963 86.7545 836.948 82.9127C836.577 82.8093 836.216 82.7016 835.867 82.5896" stroke="#0D0D0D" stroke-width="2.58417" stroke-miterlimit="10" stroke-linecap="round" stroke-linejoin="round"/>
<path d="M892.146 136.074C901.07 130.612 908.551 126.818 910.842 125.685C911.23 125.496 911.583 125.255 911.949 125.022C917.733 121.331 953.614 130.552 962.581 137.077C968.383 141.298 974.309 145.127 980.296 149.154C986.287 153.181 991.571 147.646 992.192 143.115C992.812 138.585 992.984 136.074 993.432 132.8C993.88 129.531 992.075 127.77 987.639 125.255C983.203 122.739 978.405 120.728 975.115 117.205C971.824 113.682 964.028 108.147 956.87 107.144" stroke="#0D0D0D" stroke-width="2.58417" stroke-miterlimit="10" stroke-linecap="round" stroke-linejoin="round"/>
<path d="M1033.76 56.6922C1033.76 56.6922 1037.9 24.136 1006.43 12.0981C1006.43 12.0981 973.668 -2.25269 946.801 16.1552" stroke="#0D0D0D" stroke-width="3.44556" stroke-miterlimit="10" stroke-linecap="round" stroke-linejoin="round"/>
<path d="M941.082 20.2898C941.082 20.2898 916.842 45.2658 924.573 74.2085L928.815 86.7805L958.912 109.125L962.862 67.1451L972.738 54.9823L962.784 67.3992L981.993 56.2011L975.778 64.4619L999.225 62.2395L989.108 67.0547L1009.01 64.6686L1003.71 70.9912L1015.57 65.6291L1016.42 67.3303L1032.63 104.262L1008.21 98.4394C1008.21 98.4394 991.426 115.736 981.688 121.96" stroke="#0D0D0D" stroke-width="3" stroke-miterlimit="10" stroke-linecap="round" stroke-linejoin="round"/>
<path d="M446 239L160 239" stroke="#0D0D0D" stroke-width="6" stroke-miterlimit="10" stroke-linecap="round"/>
<path d="M1953 5.99997L1663 6" stroke="#0D0D0D" stroke-width="4" stroke-miterlimit="10" stroke-linecap="round"/>
<path d="M1942 181H1619" stroke="#0D0D0D" stroke-width="4" stroke-miterlimit="10" stroke-linecap="round" stroke-dasharray="40 40"/>
<path d="M1887 224H1654" stroke="#0D0D0D" stroke-width="3" stroke-miterlimit="10" stroke-linecap="round"/>
<path d="M154 148H-79" stroke="#0D0D0D" stroke-width="3" stroke-miterlimit="10" stroke-linecap="round"/>
<path d="M1886 110.06L1492 116" stroke="#0D0D0D" stroke-width="7" stroke-miterlimit="10" stroke-linecap="round" stroke-dasharray="40 40"/>
</svg>
