<svg width="22" height="22" viewBox="0 0 22 22" fill="none" xmlns="http://www.w3.org/2000/svg">
<path d="M12.6718 2.25901L14.4232 5.76185C14.662 6.24946 15.2989 6.71717 15.8363 6.80674L19.0107 7.33415C21.0408 7.67249 21.5184 9.14524 20.0556 10.5981L17.5877 13.066C17.1697 13.484 16.9409 14.29 17.0702 14.8672L17.7768 17.9222C18.334 20.3404 17.0503 21.2758 14.9108 20.012L11.9354 18.2506C11.398 17.9322 10.5123 17.9322 9.96502 18.2506L6.98959 20.012C4.86002 21.2758 3.56636 20.3304 4.12363 17.9222L4.83017 14.8672C4.95954 14.29 4.73066 13.484 4.3127 13.066L1.84479 10.5981C0.391911 9.14524 0.85962 7.67249 2.88968 7.33415L6.06412 6.80674C6.59154 6.71717 7.22842 6.24946 7.46725 5.76185L9.21868 2.25901C10.174 0.358324 11.7264 0.358324 12.6718 2.25901Z" stroke="#0D0D0D" stroke-width="1.57932" stroke-linecap="round" stroke-linejoin="round"/>
</svg>
