

<svg width="1882" height="505" viewBox="0 0 1920 386" fill="none" xmlns="http://www.w3.org/2000/svg">
<g clip-path="url(#clip0_0_1)">
<path d="M1049 158L1083 74.5L1134 63L1113.5 111C1100 123 1065.1 146.778 1049 158Z" fill="#FF4412"/>
<path d="M893.805 25.0995C911.043 4.54788 947.295 1.28711 947.295 1.28711C982.551 0.300067 993.562 29.2724 993.562 29.2724" stroke="#0D0D0D" stroke-width="3" stroke-miterlimit="10" stroke-linecap="round" stroke-linejoin="round"/>
<path d="M821.473 130.964C822.271 130.876 822.689 131.744 822.169 132.414C816.714 139.412 810.184 149.947 809.756 161.915C808.342 201.49 874.676 230.823 930.334 230.647C970.931 230.519 1009.52 214.608 1021.38 209.716C1037.08 203.239 1041.43 199.784 1063.86 188.786C1107.63 167.318 1145.99 146.885 1154.47 151.04C1162.4 154.922 1335.4 180.863 1390.23 213.162C1434.92 239.46 1456.15 281.149 1458.03 309.981C1458.61 318.939 1454.75 330.14 1444.39 331.211C1423.14 333.405 1385.65 334.851 1338.04 335.745C1343.18 327.858 1347.29 319.283 1350.11 310.245C1350.4 309.342 1350.67 308.434 1350.93 307.522C1350.93 307.518 1350.93 307.518 1350.93 307.518C1351.31 306.147 1351.67 304.768 1352 303.38C1352.22 302.455 1352.42 301.52 1352.61 300.586C1352.8 299.652 1352.98 298.718 1353.14 297.775C1353.39 296.36 1353.6 294.937 1353.78 293.509L1353.84 293.06C1353.87 292.818 1353.9 292.575 1353.93 292.333C1353.97 291.941 1354.02 291.549 1354.05 291.156C1354.09 290.799 1354.13 290.443 1354.16 290.086C1354.17 289.967 1354.19 289.861 1354.17 289.715C1354.15 289.425 1354.23 289.129 1354.27 288.83C1354.27 288.821 1354.27 288.817 1354.27 288.808C1354.3 288.424 1354.32 288.041 1354.34 287.658C1354.37 287.27 1354.39 286.882 1354.42 286.499C1354.43 286.146 1354.45 285.798 1354.46 285.45C1354.49 284.754 1354.51 284.062 1354.52 283.37C1354.52 283.366 1354.52 283.366 1354.52 283.361C1354.53 283.031 1354.53 282.7 1354.53 282.37C1354.54 281.713 1354.54 281.061 1354.53 280.409C1354.53 280.405 1354.53 280.405 1354.53 280.4C1354.52 280.092 1354.52 279.783 1354.51 279.475C1354.49 278.858 1354.47 278.25 1354.44 277.637C1354.44 277.637 1354.44 277.633 1354.44 277.629C1354.41 277.047 1354.38 276.47 1354.34 275.888V275.884C1351.92 239.359 1326.88 210.783 1291.28 203.97C1291.28 203.97 1291.27 203.97 1291.27 203.97C1290.39 203.799 1289.49 203.64 1288.59 203.499C1288.59 203.495 1288.59 203.495 1288.58 203.499C1287.95 203.393 1287.31 203.301 1286.67 203.217C1286.03 203.129 1285.39 203.05 1284.74 202.975C1283.72 202.856 1282.69 202.759 1281.66 202.679C1279.34 202.499 1277 202.406 1274.61 202.406C1224.47 202.406 1178.47 243.192 1171.88 293.509C1169.82 309.258 1171.87 324.077 1177.21 337.001C1016.46 337.067 836.107 334.657 776.651 333.789C778.329 331.132 779.894 328.4 781.33 325.606C781.687 324.914 782.04 324.214 782.379 323.513C782.881 322.477 783.37 321.433 783.838 320.38C784.098 319.803 784.349 319.225 784.591 318.644C785.935 315.489 787.12 312.263 788.134 308.976C788.315 308.394 788.491 307.808 788.658 307.218C789.341 304.856 789.941 302.468 790.447 300.049C790.606 299.291 790.756 298.528 790.897 297.766C791.161 296.338 791.39 294.906 791.589 293.465C791.716 292.544 791.831 291.623 791.928 290.707C791.959 290.447 791.985 290.191 792.007 289.936C792.047 289.561 792.082 289.191 792.113 288.821C792.183 288.068 792.236 287.314 792.285 286.569C792.316 286.137 792.338 285.71 792.355 285.283C792.404 284.256 792.439 283.229 792.452 282.211C792.465 281.255 792.47 280.308 792.452 279.36C792.435 278.149 792.39 276.946 792.316 275.751C792.285 275.209 792.249 274.667 792.205 274.13C789.663 240.725 768.001 214.237 736.539 205.499C736.032 205.358 735.525 205.222 735.01 205.09C735.005 205.085 735.005 205.085 735.001 205.09C733.943 204.817 732.877 204.561 731.802 204.332H731.797C730.938 204.142 730.07 203.97 729.198 203.812C728.907 203.759 728.612 203.706 728.321 203.658C727.708 203.552 727.091 203.455 726.479 203.362C726.148 203.314 725.818 203.265 725.479 203.221C724.492 203.085 723.496 202.966 722.491 202.864C722.152 202.829 721.821 202.798 721.482 202.768C718.732 202.521 715.93 202.397 713.079 202.406C662.444 202.569 616.155 243.787 609.545 294.571C608.06 305.989 608.739 316.903 611.277 326.941C552.133 326.941 514.502 321.27 490.58 313.898C480.881 310.911 473.641 303.503 471.209 293.655C465.86 272.028 478.268 241.804 536.728 208.897C605.919 169.9 749.401 141.791 749.401 141.791H749.414C762.572 139.275 776.285 136.948 790.522 134.891C801.128 133.357 811.457 132.057 821.473 130.964Z" fill="#2E29FF"/>
<path d="M915.965 81.5196C913.947 80.5326 927.823 80.6251 927.823 80.6251C927.823 80.6251 947.405 81.123 950.652 83.7008C950.824 83.8374 918.379 86.6223 915.965 81.5196Z" stroke="#0D0D0D" stroke-width="1.2598" stroke-miterlimit="10" stroke-linecap="round"/>
<path d="M951.212 77.7876L919.441 74.6238" stroke="#0D0D0D" stroke-width="1.67974" stroke-miterlimit="10" stroke-linecap="round"/>
<path d="M964.528 76.7916L990.469 75.7605" stroke="#0D0D0D" stroke-width="1.67974" stroke-miterlimit="10" stroke-linecap="round"/>
<path d="M994.214 81.1014C996.281 80.1144 983.789 80.2069 983.789 80.2069C983.789 80.2069 966.057 80.7048 962.475 83.2826C962.285 83.4192 990.733 86.2041 994.214 81.1014Z" stroke="#0D0D0D" stroke-width="1.2598" stroke-miterlimit="10" stroke-linecap="round"/>
<path d="M959.324 81.1631L972.217 109.532C972.416 109.968 971.909 110.488 971.464 110.307L952.494 102.561" stroke="#0D0D0D" stroke-width="2.5" stroke-miterlimit="10" stroke-linecap="round"/>
<path d="M936.292 105.328C936.292 105.328 943.175 111.092 959.333 113.004C959.382 113.008 959.377 113.079 959.329 113.088C957.619 113.365 948.771 114.639 945.559 112.004" stroke="#0D0D0D" stroke-width="1.67974" stroke-miterlimit="10" stroke-linecap="round"/>
<path d="M929.074 122.2C929.074 122.2 933.74 123.425 939.085 124.271H939.09H939.094C944.783 125.183 951.238 125.664 953.653 123.804C955.878 122.094 960.518 118.04 965.308 112.634" stroke="#0D0D0D" stroke-width="2.51961" stroke-miterlimit="10" stroke-linecap="round"/>
<path d="M972.041 101.675C975.69 97.3653 979.113 92.3023 980.933 87.0498" stroke="#0D0D0D" stroke-width="2.51961" stroke-miterlimit="10" stroke-linecap="round"/>
<path d="M997.171 54.7903C998.81 61.0298 1000.91 73.5133 1000.91 73.5133C996.298 69.0055 986.639 59.9018 986.6 60.056L983.282 73.8394C983.313 74.2403 974.442 60.1221 974.434 60.2895C974.434 60.2895 966.943 74.2271 966.753 73.8305C966.753 73.8305 961.65 60.0251 961.567 60.175C961.567 60.175 952.494 75.0555 952.309 74.7295L944.033 60.4041C943.937 60.2455 935.15 74.3064 934.903 73.9804L929.166 61.7569C923.266 65.3173 917.137 70.5433 911.236 74.1037C912.527 70.1203 913.823 66.1369 915.114 62.149" stroke="#0D0D0D" stroke-width="2.9395" stroke-miterlimit="10" stroke-linecap="round" stroke-linejoin="round"/>
<path d="M875.725 126.091C875.725 126.091 884.802 115.255 888.922 112.153C893.28 111.995 869.851 70.455 895.867 31.3962" stroke="#0D0D0D" stroke-width="3.35943" stroke-miterlimit="10" stroke-linecap="round" stroke-linejoin="round"/>
<path d="M866.097 126.091C866.097 126.091 875.179 115.255 879.295 112.153C883.652 111.995 860.232 70.455 886.252 31.3962" stroke="#0D0D0D" stroke-width="1.67974" stroke-miterlimit="10" stroke-linecap="round" stroke-linejoin="round"/>
<path d="M923.469 55.3765C919.939 55.3765 916.934 55.1033 914.744 54.905C913.506 54.7904 912.532 54.7023 911.897 54.7023H911.673C908.557 54.7023 902.578 51.772 901.097 48.1675C900.454 46.6076 900.679 45.0434 901.745 43.6509C905.385 38.8876 920.653 35.3227 931.872 35.3227C933.458 35.3227 934.983 35.3932 936.397 35.5254C940.464 35.9132 944.302 36.4552 947.387 36.8958C950.163 37.288 952.353 37.6009 953.349 37.6009C953.552 37.6009 953.626 37.5877 953.631 37.5877C954.97 37.2704 960.315 36.4332 960.54 36.3979L960.624 36.3847H960.708C961.245 36.3935 965.991 36.4816 967.661 37.0589C967.67 37.0589 967.705 37.0633 967.767 37.0633C968.423 37.0633 969.922 36.6931 971.658 36.2657C975.222 35.3888 980.603 34.0625 986.005 34.0625C986.631 34.0625 987.256 34.0801 987.856 34.1154C997.215 34.6706 1001.14 37.0236 1001.84 42.5141C1001.98 43.6157 1001.65 44.6512 1000.88 45.5104C998.797 47.8282 993.571 48.8593 983.934 48.8593C982.951 48.8593 981.978 48.8505 981.03 48.8329C973.887 48.7095 969.882 45.2196 967.489 43.1354C966.78 42.5185 966.172 41.9853 965.744 41.7826C964.268 41.0776 962.549 40.703 960.769 40.703C958.134 40.703 955.715 41.5799 954.887 42.8313C952.009 47.1849 946.664 50.3487 946.44 50.4809L946.395 50.5074L946.351 50.5294C939.618 53.7461 931.92 55.3765 923.469 55.3765Z" fill="#F4B311"/>
<path d="M985.873 35.0449C986.472 35.0449 987.067 35.0625 987.666 35.0977C996.92 35.6441 1000.24 37.9134 1000.86 42.7694C1001.42 47.1185 992.452 47.8808 984.062 47.8808C983.088 47.8808 982.119 47.872 981.176 47.8544C972.116 47.6958 968.384 41.9057 966.255 40.8878C964.577 40.0858 962.691 39.7201 960.897 39.7201C957.905 39.7201 955.169 40.7292 954.085 42.3728C951.331 46.5457 946.025 49.6522 946.025 49.6522C937.975 53.499 929.938 54.3936 923.601 54.3936C918.097 54.3936 913.872 53.7194 912.03 53.7194C911.981 53.7194 911.937 53.7194 911.889 53.7194C911.862 53.7194 911.831 53.7194 911.801 53.7194C908.007 53.7194 899.048 48.674 902.49 44.1706C905.561 40.1475 919.86 36.3007 931.731 36.3007C933.26 36.3007 934.749 36.3668 936.168 36.499C943.976 37.2437 951.009 38.5744 953.212 38.5744C953.433 38.5744 953.605 38.5612 953.724 38.5348C955.041 38.2219 960.558 37.3626 960.558 37.3626C960.558 37.3626 965.652 37.442 967.229 37.9884C967.331 38.0236 967.467 38.0412 967.635 38.0412C969.882 38.0456 977.805 35.0449 985.873 35.0449ZM986.137 33.084C980.616 33.084 975.157 34.428 971.548 35.3181C970.058 35.6838 968.525 36.0627 967.948 36.0848C966.092 35.5163 961.73 35.4194 960.853 35.4062L960.686 35.4018L960.514 35.4282C959.95 35.5163 955.045 36.2831 953.591 36.618C953.569 36.618 953.534 36.6224 953.477 36.6224C952.551 36.6224 950.278 36.3007 947.651 35.9305C944.558 35.4943 940.707 34.9479 936.618 34.5557C935.172 34.4191 933.621 34.3486 932 34.3486C920.503 34.3486 904.944 37.9531 900.987 43.1307C899.696 44.8183 899.41 46.7792 900.176 48.6431C901.829 52.6618 908.209 55.6846 911.536 55.6846C911.58 55.6846 911.62 55.6846 911.664 55.6846H911.761C912.351 55.6846 913.356 55.7772 914.519 55.8829C916.731 56.0856 919.759 56.3588 923.332 56.3588C931.938 56.3588 939.79 54.6932 946.669 51.4016L946.757 51.3619L946.841 51.3134C947.079 51.1768 952.653 47.872 955.68 43.2937C956.196 42.5138 958.104 41.6854 960.628 41.6854C962.268 41.6854 963.854 42.0291 965.216 42.6812C965.542 42.8354 966.167 43.3863 966.775 43.915C969.256 46.0742 973.403 49.6875 980.872 49.8197C981.92 49.8373 982.877 49.8461 983.789 49.8461C993.893 49.8461 999.207 48.7313 1001.56 46.1138C1002.56 45.0078 1002.99 43.6771 1002.81 42.2714C1002.41 39.231 1001.06 37.0498 998.665 35.6089C996.36 34.2208 992.981 33.4409 988.032 33.1457C987.428 33.1016 986.785 33.084 986.137 33.084Z" fill="#0D0D0D"/>
<path d="M940.703 134.388C951.252 144.338 1026.95 164.193 1026.95 164.193" stroke="#0D0D0D" stroke-width="1.76258" stroke-miterlimit="10" stroke-linecap="round"/>
<path d="M899.652 85.7898C902.15 100.578 916.696 119.138 931.837 130.255" stroke="#0D0D0D" stroke-width="2.51961" stroke-miterlimit="10" stroke-linecap="round"/>
<path d="M940.848 124.165C937.472 127.056 924.39 143.351 933.15 150.102" stroke="#0D0D0D" stroke-width="2.20322" stroke-miterlimit="10" stroke-linecap="round"/>
<path d="M901.64 199.974C968.115 222.055 1014.7 207.222 1024.98 203.671" stroke="#0D0D0D" stroke-width="1.76258" stroke-miterlimit="10" stroke-linecap="round"/>
<path d="M1067.97 143.906C1092.94 127.14 1111.81 110.32 1117.52 109.677C1121.49 109.232 1124.96 110.263 1124.96 110.263C1127.19 110.933 1130.48 111.911 1131.99 114.854C1132.46 115.767 1132.64 116.635 1131.91 124.721C1131.29 131.511 1131.19 132.04 1130.84 132.771C1130.27 133.978 1128.06 138.024 1120.13 140.487" stroke="#0D0D0D" stroke-width="3.52516" stroke-miterlimit="10" stroke-linecap="round"/>
<path d="M910.29 142.567C910.29 142.567 946.321 189.108 1000.89 178.025C1021.35 173.87 1041.63 163.691 1059.53 152.53" stroke="#0D0D0D" stroke-width="2.64387" stroke-miterlimit="10" stroke-linecap="round"/>
<path d="M792.963 356.769C801.014 349.723 808.069 341.518 813.779 332.467C815.458 329.81 817.018 327.078 818.455 324.284C818.811 323.592 819.16 322.892 819.499 322.191C820.001 321.156 820.49 320.111 820.957 319.058C821.217 318.481 821.469 317.904 821.711 317.322C823.05 314.167 824.236 310.942 825.245 307.654C825.426 307.073 825.597 306.487 825.769 305.896C826.452 303.534 827.047 301.146 827.549 298.727C827.708 297.969 827.854 297.207 827.995 296.444C828.259 295.017 828.484 293.585 828.682 292.144C828.81 291.223 828.92 290.302 829.017 289.385C829.048 289.125 829.074 288.87 829.096 288.614C829.136 288.24 829.171 287.869 829.202 287.499C829.272 286.746 829.325 285.992 829.369 285.248C829.396 284.816 829.422 284.388 829.44 283.961C829.488 282.934 829.524 281.908 829.537 280.89C829.55 279.933 829.55 278.986 829.532 278.039C829.515 276.827 829.471 275.624 829.396 274.43C827.325 239.813 804.759 212.242 772.041 203.768C772.037 203.764 772.037 203.764 772.033 203.768C770.975 203.495 769.909 203.244 768.834 203.01H768.829C767.97 202.825 767.102 202.653 766.225 202.49C765.934 202.437 765.639 202.384 765.348 202.336C764.736 202.23 764.119 202.133 763.506 202.041C763.176 201.992 762.845 201.944 762.506 201.9C761.519 201.763 760.523 201.644 759.518 201.543C759.179 201.507 758.849 201.477 758.509 201.446C755.857 201.208 753.155 201.084 750.406 201.084C731.604 201.084 713.334 206.822 697.462 216.644C671.002 233.014 651.208 260.739 646.779 292.188C645.118 303.988 645.77 315.269 648.392 325.619H648.397C656.967 359.39 686.539 383.287 725.051 383.287C735.389 383.287 745.568 381.564 755.271 378.391M755.011 276.986C758.351 280.876 760.007 286.252 759.183 292.188C757.535 304.059 746.59 313.682 734.732 313.682C722.874 313.682 714.608 304.059 716.265 292.188C717.498 283.34 723.901 275.734 731.982 272.438" stroke="#0D0D0D" stroke-width="5.28773" stroke-miterlimit="10" stroke-linecap="round" stroke-linejoin="round"/>
<path d="M793.814 289.385C793.845 289.125 793.871 288.87 793.893 288.614C793.933 288.24 793.968 287.869 793.999 287.499C794.07 286.746 794.122 285.992 794.171 285.248C794.202 284.816 794.224 284.388 794.241 283.961C794.29 282.934 794.325 281.908 794.338 280.89C794.352 279.933 794.356 278.986 794.338 278.039C794.321 276.827 794.277 275.624 794.202 274.43C792.153 239.813 769.605 212.242 736.896 203.768C736.892 203.764 736.891 203.764 736.887 203.768C735.83 203.495 734.763 203.244 733.692 203.01H733.688C732.829 202.825 731.961 202.653 731.088 202.49C730.797 202.437 730.502 202.384 730.211 202.336C729.599 202.23 728.982 202.133 728.369 202.041C728.039 201.992 727.708 201.944 727.369 201.9C726.382 201.763 725.386 201.644 724.382 201.543C724.042 201.507 723.712 201.477 723.372 201.446C720.72 201.208 718.019 201.084 715.269 201.084C665.128 201.084 618.702 241.871 611.581 292.188C609.911 303.988 610.554 315.269 613.172 325.619H613.176C621.725 359.39 651.279 383.287 689.791 383.287C725.642 383.287 759.532 362.576 778.554 332.467C780.233 329.81 781.798 327.078 783.234 324.284C783.591 323.592 783.944 322.892 784.278 322.191C784.781 321.156 785.27 320.111 785.737 319.058C785.997 318.481 786.248 317.904 786.49 317.322C787.834 314.167 789.02 310.942 790.029 307.654C790.209 307.073 790.386 306.487 790.553 305.896C791.236 303.534 791.835 301.146 792.338 298.727C792.496 297.969 792.646 297.207 792.783 296.444C793.047 295.017 793.276 293.585 793.475 292.144C793.607 291.223 793.721 290.302 793.814 289.385Z" stroke="#0D0D0D" stroke-width="2.64387" stroke-miterlimit="10" stroke-linecap="round"/>
<path d="M767.586 289.385C767.617 289.125 767.644 288.87 767.666 288.614C767.705 288.24 767.741 287.869 767.771 287.499C767.842 286.746 767.895 285.992 767.943 285.248C767.974 284.816 767.996 284.388 768.018 283.961C768.067 282.934 768.106 281.908 768.12 280.89C768.133 279.933 768.137 278.986 768.12 278.039C768.102 276.827 768.058 275.624 767.987 274.43C765.956 239.813 743.421 212.242 710.712 203.768C710.708 203.764 710.708 203.764 710.704 203.768C709.65 203.495 708.58 203.244 707.509 203.01H707.504C706.645 202.825 705.777 202.653 704.905 202.49C704.614 202.437 704.319 202.384 704.028 202.336C703.415 202.23 702.798 202.133 702.186 202.041C701.855 201.992 701.525 201.944 701.186 201.9C700.199 201.763 699.203 201.644 698.198 201.543C697.859 201.507 697.528 201.477 697.189 201.446C694.536 201.208 691.835 201.084 689.086 201.084C638.945 201.084 592.501 241.871 585.353 292.188C583.679 303.988 584.313 315.269 586.927 325.619H586.931C595.462 359.39 625.007 383.287 663.519 383.287C699.37 383.287 733.273 362.576 752.309 332.467C753.988 329.81 755.552 327.078 756.993 324.284C757.35 323.592 757.703 322.892 758.042 322.191C758.549 321.156 759.033 320.111 759.501 319.058C759.76 318.481 760.012 317.904 760.254 317.322C761.598 314.167 762.783 310.942 763.801 307.654C763.982 307.073 764.158 306.487 764.326 305.896C765.009 303.534 765.608 301.146 766.115 298.727C766.273 297.969 766.423 297.207 766.564 296.444C766.828 295.017 767.058 293.585 767.256 292.144C767.375 291.223 767.489 290.302 767.586 289.385Z" stroke="#0D0D0D" stroke-width="2" stroke-miterlimit="10" stroke-linecap="round" stroke-linejoin="round"/>
<path d="M1330.19 289.385C1330.22 289.125 1330.25 288.87 1330.26 288.614C1330.3 288.24 1330.33 287.869 1330.36 287.499C1330.42 286.746 1330.47 285.992 1330.51 285.248C1330.53 284.816 1330.55 284.388 1330.56 283.961C1330.6 282.934 1330.63 281.908 1330.63 280.89C1330.63 279.933 1330.63 278.986 1330.6 278.039C1330.57 276.827 1330.51 275.624 1330.43 274.43C1328.03 239.813 1305.2 212.242 1272.41 203.768C1272.41 203.764 1272.41 203.764 1272.4 203.768C1271.35 203.495 1270.27 203.244 1269.2 203.01H1269.19C1268.33 202.825 1267.46 202.653 1266.59 202.49C1266.3 202.437 1266 202.384 1265.7 202.336C1265.09 202.23 1264.48 202.133 1263.86 202.041C1263.53 201.992 1263.19 201.944 1262.86 201.9C1261.87 201.763 1260.87 201.644 1259.87 201.543C1259.53 201.507 1259.19 201.477 1258.86 201.446C1256.2 201.208 1253.5 201.084 1250.75 201.084C1200.61 201.084 1154.59 241.871 1147.98 292.188C1146.43 303.988 1147.18 315.269 1149.9 325.619H1149.91C1158.8 359.39 1188.59 383.287 1227.1 383.287C1262.96 383.287 1296.64 362.576 1315.36 332.467C1317.01 329.81 1318.54 327.078 1319.95 324.284C1320.3 323.592 1320.64 322.892 1320.98 322.191C1321.47 321.156 1321.95 320.111 1322.41 319.058C1322.66 318.481 1322.9 317.904 1323.14 317.322C1324.45 314.167 1325.61 310.942 1326.58 307.654C1326.76 307.073 1326.93 306.487 1327.09 305.896C1327.75 303.534 1328.32 301.146 1328.81 298.727C1328.95 297.969 1329.1 297.207 1329.23 296.444C1329.47 295.017 1329.69 293.585 1329.88 292.144C1330 291.223 1330.11 290.302 1330.19 289.385Z" stroke="#0D0D0D" stroke-width="2" stroke-miterlimit="10" stroke-linecap="round" stroke-linejoin="round"/>
<path d="M1354.32 289.385C1354.35 289.125 1354.38 288.87 1354.39 288.614C1354.43 288.24 1354.46 287.869 1354.49 287.499C1354.55 286.746 1354.6 285.992 1354.63 285.248C1354.65 284.816 1354.67 284.388 1354.69 283.961C1354.73 282.934 1354.75 281.908 1354.75 280.89C1354.76 279.933 1354.75 278.986 1354.72 278.039C1354.69 276.827 1354.64 275.624 1354.55 274.43C1352.14 239.813 1329.3 212.242 1296.5 203.768C1296.5 203.764 1296.5 203.764 1296.49 203.768C1295.43 203.495 1294.36 203.244 1293.29 203.01H1293.28C1292.42 202.825 1291.55 202.653 1290.68 202.49C1290.38 202.437 1290.09 202.384 1289.79 202.336C1289.18 202.23 1288.57 202.133 1287.95 202.041C1287.62 201.992 1287.28 201.944 1286.95 201.9C1285.96 201.763 1284.96 201.644 1283.96 201.543C1283.62 201.507 1283.28 201.477 1282.95 201.446C1280.29 201.208 1277.59 201.084 1274.84 201.084C1224.7 201.084 1178.7 241.871 1172.11 292.188C1170.56 303.988 1171.32 315.269 1174.05 325.619H1174.05C1182.95 359.39 1212.76 383.287 1251.27 383.287C1287.12 383.287 1320.8 362.576 1339.5 332.467C1341.16 329.81 1342.69 327.078 1344.1 324.284C1344.44 323.592 1344.79 322.892 1345.12 322.191C1345.61 321.156 1346.09 320.111 1346.55 319.058C1346.8 318.481 1347.04 317.904 1347.28 317.322C1348.59 314.167 1349.74 310.942 1350.72 307.654C1350.89 307.073 1351.06 306.487 1351.22 305.896C1351.88 303.534 1352.45 301.146 1352.93 298.727C1353.08 297.969 1353.23 297.207 1353.36 296.444C1353.6 295.017 1353.82 293.585 1354.01 292.144C1354.13 291.223 1354.23 290.302 1354.32 289.385Z" stroke="#0D0D0D" stroke-width="2.64387" stroke-miterlimit="10" stroke-linecap="round"/>
<path d="M1249.62 223.438C1267.37 209.514 1289.3 201.084 1312.1 201.084C1314.48 201.084 1316.83 201.177 1319.14 201.358C1320.18 201.437 1321.2 201.534 1322.23 201.653C1322.87 201.728 1323.52 201.807 1324.16 201.895C1324.8 201.983 1325.43 202.076 1326.07 202.177C1326.07 202.173 1326.08 202.173 1326.08 202.177C1326.98 202.318 1327.87 202.477 1328.76 202.649C1328.76 202.649 1328.76 202.649 1328.76 202.649C1364.28 209.514 1389.37 238.156 1391.87 274.562V274.566C1391.91 275.144 1391.95 275.725 1391.98 276.307C1391.98 276.311 1391.98 276.316 1391.98 276.316C1392 276.928 1392.03 277.541 1392.05 278.153C1392.05 278.462 1392.06 278.77 1392.06 279.079C1392.06 279.083 1392.06 279.083 1392.06 279.087C1392.08 279.74 1392.08 280.392 1392.07 281.048C1392.07 281.379 1392.07 281.709 1392.06 282.04C1392.06 282.044 1392.06 282.044 1392.06 282.049C1392.05 282.74 1392.03 283.432 1392 284.128C1391.99 284.476 1391.97 284.825 1391.95 285.177C1391.94 285.56 1391.91 285.948 1391.89 286.336C1391.87 286.719 1391.84 287.103 1391.81 287.486C1391.81 287.499 1391.81 287.513 1391.8 287.53C1391.78 287.874 1391.75 288.222 1391.72 288.57C1391.72 288.636 1391.71 288.698 1391.7 288.764C1391.67 289.121 1391.63 289.478 1391.6 289.835C1391.56 290.227 1391.51 290.619 1391.47 291.011C1391.42 291.403 1391.38 291.796 1391.33 292.188C1391.15 293.615 1390.94 295.039 1390.69 296.453C1390.53 297.396 1390.35 298.33 1390.16 299.264C1389.97 300.199 1389.77 301.133 1389.55 302.058C1389.22 303.446 1388.86 304.825 1388.48 306.196C1388.48 306.196 1388.48 306.196 1388.48 306.2C1388.23 307.112 1387.96 308.02 1387.67 308.923C1384.85 317.961 1380.75 326.536 1375.61 334.424C1373.5 337.667 1371.22 340.795 1368.78 343.792C1366.11 347.061 1363.25 350.177 1360.24 353.116M1351.95 360.417C1354.83 358.126 1357.6 355.689 1360.24 353.116M1340.83 368.195C1337.32 370.34 1333.69 372.284 1329.95 374.007C1326.34 375.677 1322.62 377.144 1318.84 378.387M1304 382.026C1298.96 382.855 1293.83 383.287 1288.66 383.287C1254.1 383.287 1226.53 364.039 1214.79 335.679C1209.45 322.755 1207.38 307.936 1209.44 292.188C1210.43 284.631 1212.3 277.29 1214.95 270.266C1217.24 264.18 1220.11 258.337 1223.48 252.803M1237.98 233.979C1235.49 236.578 1233.12 239.297 1230.9 242.131" stroke="#0D0D0D" stroke-width="5.28773" stroke-miterlimit="10" stroke-linecap="round" stroke-linejoin="round"/>
<path d="M1209.44 292.187C1207.39 307.935 1209.45 322.754 1214.79 335.678C1054.05 335.744 873.703 333.334 814.242 332.466" stroke="#0D0D0D" stroke-width="5.28773" stroke-miterlimit="10" stroke-linecap="round"/>
<path d="M648.855 325.619C589.716 325.619 552.076 319.948 528.149 312.576C518.446 309.588 511.206 302.181 508.765 292.333C503.403 270.706 515.789 240.482 574.223 207.575C643.387 168.578 786.843 140.469 786.843 140.469H786.856C800.009 137.953 813.722 135.626 827.959 133.569C838.579 132.035 848.908 130.735 858.923 129.642C859.721 129.554 860.14 130.422 859.62 131.092C854.169 138.09 847.647 148.625 847.229 160.593C845.845 200.168 912.193 229.501 967.851 229.325C1008.44 229.197 1047.03 213.286 1058.87 208.394C1074.57 201.917 1078.92 198.462 1101.34 187.464C1145.1 165.996 1183.45 145.563 1191.93 149.718C1199.86 153.6 1372.88 179.541 1427.73 211.84C1472.44 238.138 1493.69 279.827 1495.59 308.659C1496.18 317.617 1492.33 328.818 1481.97 329.889C1460.72 332.083 1423.23 333.529 1375.62 334.423" stroke="#0D0D0D" stroke-width="6" stroke-miterlimit="10" stroke-linecap="round"/>
<path d="M1118.43 166.414C1135.38 132.119 1151.45 101.133 1154.04 101.983C1154.09 101.997 1154.12 102.014 1154.14 102.032C1156.87 103.913 1177.09 130.224 1191.93 149.723" stroke="#0D0D0D" stroke-width="2.20322" stroke-miterlimit="10" stroke-linecap="round"/>
<path d="M1321.85 292.186C1320.33 304.057 1309.47 313.681 1297.62 313.681C1285.77 313.681 1277.39 304.057 1278.93 292.186C1280.46 280.315 1291.31 270.687 1303.15 270.687C1314.99 270.687 1323.37 280.315 1321.85 292.186Z" stroke="#0D0D0D" stroke-width="3.08451" stroke-miterlimit="10" stroke-linecap="round" stroke-linejoin="round"/>
<path d="M604.143 285.863H165.15" stroke="#0D0D0D" stroke-width="4.40645" stroke-miterlimit="10" stroke-linecap="round"/>
<path d="M574.959 223.438H274.8" stroke="#0D0D0D" stroke-width="5" stroke-miterlimit="10" stroke-linecap="round"/>
<path d="M643.999 145.753H637.42" stroke="#0D0D0D" stroke-width="3.9658" stroke-miterlimit="10" stroke-linecap="round"/>
<path d="M624.893 145.753H405.667" stroke="#0D0D0D" stroke-width="3.9658" stroke-miterlimit="10" stroke-linecap="round" stroke-dasharray="12.58 12.58"/>
<path d="M399.406 145.753H392.823" stroke="#0D0D0D" stroke-width="3.9658" stroke-miterlimit="10" stroke-linecap="round"/>
<path d="M1085.34 138.363C1085.34 138.363 1095.51 146.568 1101.96 146.092" stroke="#0D0D0D" stroke-width="2.64387" stroke-miterlimit="10" stroke-linecap="round"/>
<path d="M941.645 82.1057C941.645 82.1057 940.209 84.5821 938.847 84.5821C937.485 84.5821 936.723 82.1057 936.723 82.1057H941.645Z" fill="#0D0D0D" stroke="#0D0D0D" stroke-width="1.67974" stroke-miterlimit="10" stroke-linecap="round"/>
<path d="M987.376 80.969C987.376 80.969 985.939 83.4454 984.578 83.4454C983.216 83.4454 982.449 80.969 982.449 80.969H987.376Z" fill="#0D0D0D" stroke="#0D0D0D" stroke-width="1.67974" stroke-miterlimit="10" stroke-linecap="round"/>
<path d="M459.051 293.959C452.86 273.843 463.228 244.761 517.507 210.88C581.749 170.733 717.56 137.182 717.56 137.182H717.573C730.026 134.164 743.025 131.295 756.535 128.655C766.612 126.686 776.425 124.954 785.948 123.429" stroke="#0D0D0D" stroke-width="2.20322" stroke-miterlimit="10" stroke-linecap="round"/>
<path d="M1121.73 148.304C1124.14 153.755 1107.23 168.331 1083.93 180.868C1060.63 193.404 1040.23 195.757 1037.38 193.699" stroke="#0D0D0D" stroke-width="5" stroke-miterlimit="10" stroke-linecap="round"/>
<path d="M1119.22 139.812C1121.63 145.263 1104.72 159.84 1081.42 172.376C1058.12 184.912 1039.39 188.786 1034.87 185.208" stroke="#0D0D0D" stroke-width="1.76258" stroke-miterlimit="10" stroke-linecap="round"/>
<path d="M1120.13 140.491C1120.13 140.491 1116.35 134.891 1110.03 140.491C1103.72 146.092 1087.64 157.606 1059.64 171.557" stroke="#0D0D0D" stroke-width="1.76258" stroke-miterlimit="10" stroke-linecap="round"/>
<path d="M334.054 301.153H761.646" stroke="#0D0D0D" stroke-width="3.9658" stroke-miterlimit="10" stroke-linecap="round" stroke-dasharray="22.03 22.03"/>
<path d="M1077.76 70.5301L1091.85 41.9763C1091.85 41.9763 1133.83 62.506 1134.31 62.2372C1134.34 62.2239 1134.37 62.246 1134.36 62.2768" stroke="#0D0D0D" stroke-width="1.76258" stroke-miterlimit="10" stroke-linecap="round"/>
<path d="M1072.8 76.2054L1095.3 71.4641L1108.7 68.6352L1122.11 65.8106L1134.68 63.158L1131.54 70.2656L1128.2 77.8358L1124.85 85.4105L1113.2 111.765" stroke="#0D0D0D" stroke-width="3.08451" stroke-miterlimit="10" stroke-linecap="round" stroke-linejoin="round"/>
<path d="M1042.69 153.622L1072.54 82.1631" stroke="#0D0D0D" stroke-width="2.20322" stroke-miterlimit="10" stroke-linecap="round" stroke-linejoin="round"/>
<path d="M1121.67 65.8106L1093.1 52.3225" stroke="#0D0D0D" stroke-width="1.32193" stroke-miterlimit="10" stroke-linecap="round" stroke-linejoin="round"/>
<path d="M1108.27 68.6352L1088.98 59.5315" stroke="#0D0D0D" stroke-width="1.32193" stroke-miterlimit="10" stroke-linecap="round" stroke-linejoin="round"/>
<path d="M1094.86 71.4642L1084.86 66.7405" stroke="#0D0D0D" stroke-width="1.32193" stroke-miterlimit="10" stroke-linecap="round" stroke-linejoin="round"/>
<path d="M1488.7 57.9849H1345.36" stroke="#0D0D0D" stroke-width="3.52516" stroke-miterlimit="10" stroke-linecap="round"/>
<path d="M1753.15 137L1458.15 137" stroke="#0D0D0D" stroke-width="3.08451" stroke-miterlimit="10" stroke-linecap="round" stroke-dasharray="40 40"/>
<path d="M990.15 360L452.15 360" stroke="#0D0D0D" stroke-width="7" stroke-miterlimit="10" stroke-linecap="round" stroke-dasharray="70 70"/>
</g>
<path d="M1962 199L1667 199" stroke="#0D0D0D" stroke-width="3.08451" stroke-miterlimit="10" stroke-linecap="round"/>
<path d="M2060 231L1765 231" stroke="#0D0D0D" stroke-width="6" stroke-miterlimit="10" stroke-linecap="round"/>
<path d="M2040.55 87L1635 88.7758" stroke="#0D0D0D" stroke-width="5" stroke-miterlimit="10" stroke-linecap="round" stroke-dasharray="80 80"/>
<path d="M1828 52H1667" stroke="#0D0D0D" stroke-width="3" stroke-miterlimit="10" stroke-linecap="round"/>
<path d="M246 148H-119" stroke="#0D0D0D" stroke-width="3.08451" stroke-miterlimit="10" stroke-linecap="round"/>
<path d="M192.62 199H-22" stroke="#0D0D0D" stroke-width="6" stroke-miterlimit="10" stroke-linecap="round" stroke-dasharray="70 70"/>
<path d="M314 58H-153" stroke="#0D0D0D" stroke-width="5" stroke-miterlimit="10" stroke-linecap="round"/>
<defs>
<clipPath id="clip0_0_1">
<rect width="1624.15" height="385.93" fill="white" transform="translate(131)"/>
</clipPath>
</defs>
</svg>
