<svg width="1419" height="416" viewBox="0 0 1419 416" fill="none" xmlns="http://www.w3.org/2000/svg">
    <g clip-path="url(#clip0_456_1836)">
        <path
            d="M675.174 145.324C676.008 145.231 676.582 146.149 676.125 146.858C671.352 154.26 665.964 165.404 667.264 178.063C671.566 219.923 746.226 250.951 805.243 250.765C848.287 250.63 886.959 233.799 898.845 228.625C914.585 221.774 918.71 218.119 940.966 206.486C984.411 183.777 1022.29 162.165 1031.89 166.56C1040.85 170.666 1228.17 198.105 1290.74 232.27C1341.69 260.087 1369.76 304.184 1375.59 334.681C1377.4 344.157 1374.8 356.005 1363.98 357.137C1341.77 359.459 1302.27 360.987 1251.98 361.934C1256.36 353.59 1259.55 344.52 1261.32 334.961C1261.5 334.005 1261.66 333.045 1261.81 332.08C1261.81 332.075 1261.81 332.075 1261.81 332.075C1262.04 330.626 1262.23 329.167 1262.39 327.699C1262.49 326.72 1262.59 325.732 1262.66 324.744C1262.74 323.756 1262.8 322.767 1262.84 321.77C1262.91 320.274 1262.95 318.768 1262.95 317.258V316.783C1262.95 316.526 1262.94 316.27 1262.94 316.014C1262.93 315.599 1262.93 315.184 1262.91 314.769C1262.9 314.392 1262.89 314.014 1262.88 313.637C1262.87 313.511 1262.88 313.399 1262.84 313.245C1262.77 312.938 1262.82 312.625 1262.82 312.308C1262.82 312.299 1262.82 312.294 1262.82 312.285C1262.8 311.879 1262.78 311.474 1262.75 311.068C1262.73 310.658 1262.7 310.248 1262.67 309.843C1262.64 309.47 1262.61 309.102 1262.58 308.733C1262.51 307.997 1262.44 307.265 1262.36 306.533C1262.36 306.529 1262.36 306.529 1262.36 306.524C1262.32 306.174 1262.28 305.825 1262.24 305.475C1262.15 304.781 1262.06 304.091 1261.96 303.401C1261.96 303.397 1261.96 303.396 1261.96 303.392C1261.92 303.066 1261.87 302.739 1261.82 302.413C1261.72 301.761 1261.61 301.117 1261.5 300.469C1261.5 300.469 1261.5 300.465 1261.5 300.46C1261.39 299.845 1261.28 299.234 1261.16 298.619V298.614C1253.64 259.98 1223.2 229.753 1184.49 222.547C1184.48 222.547 1184.48 222.547 1184.48 222.547C1183.51 222.366 1182.54 222.198 1181.57 222.049C1181.57 222.044 1181.56 222.044 1181.56 222.049C1180.88 221.937 1180.19 221.839 1179.5 221.75C1178.8 221.657 1178.11 221.573 1177.41 221.494C1176.31 221.368 1175.2 221.266 1174.09 221.182C1171.61 220.991 1169.11 220.893 1166.58 220.893C1113.36 220.893 1070.22 264.035 1070.22 317.258C1070.22 333.917 1074.45 349.591 1081.89 363.262C911.713 363.332 720.432 360.782 657.355 359.864C658.744 357.054 659.998 354.164 661.112 351.209C661.387 350.477 661.657 349.736 661.914 348.995C662.296 347.899 662.659 346.795 663 345.681C663.191 345.07 663.372 344.46 663.545 343.844C664.505 340.507 665.288 337.095 665.88 333.618C665.987 333.003 666.085 332.383 666.178 331.759C666.556 329.26 666.84 326.734 667.022 324.175C667.078 323.373 667.124 322.567 667.162 321.761C667.232 320.251 667.264 318.736 667.264 317.212C667.264 316.237 667.25 315.263 667.218 314.294C667.213 314.019 667.204 313.749 667.19 313.478C667.176 313.082 667.162 312.69 667.138 312.299C667.101 311.502 667.05 310.705 666.989 309.917C666.957 309.46 666.919 309.008 666.877 308.556C666.78 307.47 666.668 306.384 666.533 305.308C666.407 304.296 666.272 303.294 666.113 302.292C665.917 301.01 665.694 299.738 665.442 298.475C665.33 297.901 665.214 297.328 665.088 296.759C657.495 261.424 630.62 233.407 595.942 224.165C595.383 224.016 594.824 223.871 594.26 223.731C594.255 223.727 594.255 223.727 594.25 223.731C593.09 223.442 591.92 223.172 590.745 222.93H590.741C589.799 222.729 588.853 222.547 587.902 222.38C587.585 222.324 587.263 222.268 586.947 222.216C586.28 222.105 585.613 222.002 584.947 221.904C584.588 221.853 584.229 221.802 583.866 221.755C582.798 221.61 581.722 221.485 580.64 221.377C580.277 221.34 579.918 221.308 579.554 221.275C576.599 221.014 573.607 220.883 570.582 220.893C516.864 221.065 473.927 264.664 474.543 318.382C474.682 330.458 477.036 342.003 481.231 352.621C418.606 352.621 377.897 346.622 351.442 338.825C340.712 335.664 331.917 327.829 327.834 317.412C318.862 294.536 327.396 262.566 384.399 227.758C451.951 186.509 600.17 156.776 600.17 156.776H600.184C613.789 154.115 628.019 151.654 642.845 149.477C653.906 147.855 664.691 146.48 675.174 145.324Z"
            fill="#2E29FF" />
        <path
            d="M770.747 90.4836C768.342 89.3883 783.844 89.4908 783.844 89.4908C783.844 89.4908 805.778 90.0455 809.796 92.9073C810.011 93.0565 774.214 96.1467 770.747 90.4836Z"
            stroke="black" stroke-width="1.39829" stroke-miterlimit="10" stroke-linecap="round" />
        <path d="M809.526 86.34L773.576 82.8303" stroke="black" stroke-width="1.86439"
            stroke-miterlimit="10" stroke-linecap="round" />
        <path d="M824.241 85.2352L853.046 84.0886" stroke="black" stroke-width="1.86439"
            stroke-miterlimit="10" stroke-linecap="round" />
        <path
            d="M858.028 90.0176C860.191 88.9222 846.255 89.0248 846.255 89.0248C846.255 89.0248 826.539 89.5794 822.931 92.4413C822.74 92.5904 854.91 95.6806 858.028 90.0176Z"
            stroke="black" stroke-width="1.39829" stroke-miterlimit="10" stroke-linecap="round" />
        <path
            d="M819.091 90.0872L837.768 121.577C838.057 122.061 837.567 122.639 837.04 122.434L814.705 113.839"
            stroke="black" stroke-width="2.33048" stroke-miterlimit="10" stroke-linecap="round" />
        <path
            d="M797.049 116.906C797.049 116.906 805.597 123.301 823.919 125.422C823.971 125.426 823.98 125.506 823.929 125.51C822.064 125.818 812.383 127.235 808.403 124.303"
            stroke="black" stroke-width="1.86439" stroke-miterlimit="10" stroke-linecap="round" />
        <path
            d="M791.554 135.634C791.554 135.634 796.942 136.991 803.034 137.937H803.038H803.043C809.526 138.948 816.797 139.484 819.212 137.419C821.435 135.518 825.998 131.025 830.524 125.021"
            stroke="black" stroke-width="2.79658" stroke-miterlimit="10" stroke-linecap="round" />
        <path d="M836.383 112.851C839.804 108.065 842.862 102.448 844.097 96.6218" stroke="black"
            stroke-width="2.79658" stroke-miterlimit="10" stroke-linecap="round" />
        <path
            d="M857.367 60.8118C860.14 67.738 864.359 81.595 864.359 81.595C858.532 76.5891 846.377 66.4842 846.358 66.6566L844.736 81.9539C844.834 82.3967 832.795 66.7265 832.809 66.913C832.809 66.913 826.553 82.3827 826.283 81.9399C826.283 81.9399 818.499 66.6147 818.425 66.7825C818.425 66.7825 810.548 83.2963 810.291 82.9374L798.877 67.0388C798.746 66.8617 791.07 82.4713 790.743 82.1077L782.479 68.5397C776.434 72.4922 770.384 78.2904 764.339 82.2476C765.173 77.8243 766.012 73.401 766.846 68.9778"
            stroke="black" stroke-width="3.26268" stroke-miterlimit="10" stroke-linecap="round"
            stroke-linejoin="round" />
        <path
            d="M737.389 27.8589C753.511 5.0481 793.539 1.42653 793.539 1.42653C832.803 0.331203 849.49 32.4872 849.49 32.4872"
            stroke="black" stroke-width="2.79658" stroke-miterlimit="10" stroke-linecap="round"
            stroke-linejoin="round" />
        <path
            d="M732.644 139.955C732.644 139.955 741.118 127.925 745.233 124.485C750.071 124.313 717.57 78.2018 740.647 34.8501"
            stroke="black" stroke-width="3.72877" stroke-miterlimit="10" stroke-linecap="round"
            stroke-linejoin="round" />
        <path
            d="M721.905 139.955C721.905 139.955 730.378 127.925 734.494 124.485C739.332 124.313 706.831 78.2018 729.908 34.8501"
            stroke="black" stroke-width="1.86439" stroke-miterlimit="10" stroke-linecap="round"
            stroke-linejoin="round" />
        <path
            d="M851.55 36.9428C852.216 36.9428 852.888 36.9661 853.559 37.0174C863.976 37.7865 868.036 40.9652 869.462 47.7656C870.739 53.8575 860.839 54.9295 851.471 54.9295C850.38 54.9295 849.299 54.9155 848.241 54.8922C838.094 54.6731 833.05 46.5584 830.524 45.1321C828.525 44.0042 826.367 43.5008 824.362 43.5008C821.02 43.5008 818.117 44.9131 817.152 47.2203C814.705 53.0651 809.256 57.4185 809.256 57.4185C800.848 62.8112 792.011 64.065 784.931 64.065C778.783 64.065 773.963 63.1188 771.903 63.1188C771.852 63.1188 771.796 63.1188 771.749 63.1188C771.717 63.1188 771.684 63.1188 771.652 63.1188C767.415 63.1188 756.639 56.0481 759.794 49.7372C762.614 44.1021 777.995 38.7093 791.26 38.7093C792.966 38.7093 794.639 38.7979 796.247 38.989C805.085 40.033 813.139 41.8974 815.6 41.8974C815.847 41.8974 816.033 41.8788 816.164 41.8368C817.59 41.3987 823.621 40.1915 823.621 40.1915C823.621 40.1915 829.326 40.3034 831.172 41.0678C831.293 41.119 831.442 41.1424 831.629 41.1424C834.141 41.1424 842.536 36.9428 851.55 36.9428ZM851.55 34.1462C845.216 34.1462 839.231 36.0572 835.269 37.325C834.006 37.7305 832.463 38.2199 831.801 38.3318C829.466 37.5721 825.048 37.4276 823.677 37.4043L823.374 37.3996L823.076 37.4602C822.47 37.5814 817.343 38.6114 815.567 39.1102C814.593 39.1009 811.96 38.6394 809.168 38.1547C805.63 37.5394 801.23 36.7704 796.574 36.2204C794.9 36.0246 793.111 35.9221 791.26 35.9221C784.637 35.9221 777.137 37.2178 770.687 39.4784C766.664 40.886 759.575 43.9343 757.296 48.4927C755.939 51.21 756.196 54.3329 758.023 57.2926C761.024 62.154 767.816 65.9201 771.652 65.9201C771.707 65.9201 771.763 65.9201 771.819 65.9201H771.903C772.5 65.9201 773.609 66.0459 774.896 66.1904C777.422 66.4747 780.88 66.8662 784.931 66.8662C794.737 66.8662 803.43 64.4798 810.766 59.7769L810.888 59.6977L810.999 59.6091C811.246 59.4133 817.04 54.7337 819.729 48.3063C820.144 47.3135 821.869 46.3067 824.358 46.3067C826.012 46.3067 827.672 46.7448 829.149 47.5792C829.457 47.7563 830.282 48.558 830.944 49.2058C834.122 52.31 839.436 57.5117 848.18 57.6981C849.364 57.7261 850.441 57.7354 851.471 57.7354C862.233 57.7354 868.222 56.2719 870.888 52.9905C872.203 51.3732 872.659 49.369 872.203 47.2016C870.445 38.8305 865.109 35.0738 853.768 34.2395C853.046 34.1695 852.3 34.1462 851.55 34.1462Z"
            fill="black" />
        <path d="M802.386 148.946C815.031 159.471 898.285 180.473 898.285 180.473" stroke="black"
            stroke-width="1.86439" stroke-miterlimit="10" stroke-linecap="round" />
        <path d="M753.185 95.2192C758.228 111.635 777.282 132.237 795.856 144.57" stroke="black"
            stroke-width="2.79658" stroke-miterlimit="10" stroke-linecap="round" />
        <path d="M801.063 138.133C797.893 141.19 786.343 158.426 796.625 165.567" stroke="black"
            stroke-width="2.33048" stroke-miterlimit="10" stroke-linecap="round" />
        <path d="M770.375 218.32C844.097 241.676 891.411 225.987 901.814 222.23" stroke="black"
            stroke-width="1.86439" stroke-miterlimit="10" stroke-linecap="round" />
        <path
            d="M938.985 159.014C963.147 141.279 980.831 123.488 986.806 122.807C990.973 122.337 994.8 123.427 994.8 123.427C997.266 124.136 1000.91 125.17 1002.93 128.284C1003.55 129.249 1003.87 130.167 1004.22 138.72C1004.53 145.902 1004.49 146.462 1004.22 147.236C1003.79 148.513 1002 152.791 993.924 155.397"
            stroke="black" stroke-width="3.72877" stroke-miterlimit="10" stroke-linecap="round" />
        <path
            d="M771.246 157.597C771.246 157.597 816.233 206.826 872.584 195.103C893.717 190.708 913.806 179.941 931.233 168.135"
            stroke="black" stroke-width="2.79658" stroke-miterlimit="10" stroke-linecap="round" />
        <path
            d="M677.984 384.171C685.475 376.718 691.748 368.039 696.474 358.466C697.863 355.655 699.117 352.765 700.231 349.81C700.506 349.079 700.777 348.338 701.033 347.596C701.415 346.501 701.779 345.396 702.119 344.282C702.31 343.672 702.492 343.061 702.664 342.446C703.624 339.109 704.407 335.697 704.999 332.22C705.107 331.605 705.204 330.985 705.298 330.36C705.675 327.862 705.959 325.336 706.141 322.777C706.197 321.975 706.244 321.169 706.281 320.362C706.351 318.852 706.384 317.337 706.384 315.813C706.384 314.839 706.37 313.865 706.337 312.896C706.332 312.621 706.323 312.35 706.309 312.08C706.295 311.684 706.281 311.292 706.258 310.901C706.221 310.104 706.169 309.307 706.109 308.519C706.076 308.062 706.039 307.61 705.997 307.158C705.899 306.072 705.787 304.986 705.652 303.909C705.526 302.898 705.391 301.896 705.232 300.894C705.037 299.612 704.813 298.339 704.561 297.076C697.318 260.46 669.343 231.296 633.379 222.333C633.374 222.328 633.374 222.328 633.37 222.333C632.209 222.044 631.039 221.778 629.865 221.531H629.86C628.918 221.335 627.972 221.154 627.021 220.981C626.704 220.925 626.383 220.869 626.066 220.818C625.399 220.706 624.733 220.604 624.066 220.506C623.707 220.455 623.348 220.403 622.985 220.357C621.918 220.212 620.841 220.086 619.76 219.979C619.396 219.942 619.037 219.909 618.674 219.877C615.821 219.625 612.936 219.494 610.018 219.494C590.06 219.494 571.518 225.563 556.142 235.952M556.137 235.952C530.502 253.268 513.648 282.595 513.648 315.86C513.648 328.342 516.02 340.274 520.341 351.223H520.346C534.445 386.944 569.277 412.221 610.013 412.221C620.948 412.221 631.459 410.398 641.261 407.042M626.094 299.78C630.209 303.895 632.754 309.582 632.754 315.86C632.754 328.417 622.575 338.596 610.018 338.596C597.461 338.596 587.282 328.417 587.282 315.86C587.282 306.501 592.94 298.456 601.022 294.969"
            stroke="black" stroke-width="5.59316" stroke-miterlimit="10" stroke-linecap="round"
            stroke-linejoin="round" />
        <path
            d="M669.035 312.896C669.03 312.621 669.021 312.35 669.007 312.08C668.993 311.684 668.979 311.292 668.956 310.901C668.918 310.104 668.867 309.307 668.807 308.519C668.774 308.062 668.737 307.61 668.695 307.158C668.597 306.072 668.485 304.986 668.35 303.909C668.224 302.898 668.089 301.896 667.93 300.894C667.735 299.612 667.511 298.339 667.259 297.076C660.016 260.46 632.041 231.296 596.077 222.333C596.072 222.328 596.072 222.328 596.068 222.333C594.907 222.044 593.737 221.778 592.562 221.531H592.558C591.616 221.335 590.67 221.154 589.719 220.981C589.402 220.925 589.081 220.869 588.764 220.818C588.097 220.706 587.431 220.604 586.764 220.506C586.405 220.455 586.046 220.403 585.683 220.357C584.616 220.212 583.539 220.086 582.458 219.979C582.094 219.942 581.735 219.909 581.372 219.877C578.519 219.625 575.634 219.494 572.716 219.494C519.497 219.494 476.351 262.636 476.351 315.86C476.351 328.342 478.723 340.274 483.044 351.223H483.048C497.148 386.944 531.979 412.221 572.716 412.221C610.638 412.221 643.451 390.314 659.172 358.466C660.561 355.655 661.815 352.765 662.929 349.81C663.204 349.079 663.474 348.338 663.731 347.596C664.113 346.501 664.477 345.396 664.817 344.282C665.008 343.672 665.19 343.061 665.362 342.446C666.322 339.109 667.105 335.697 667.697 332.22C667.805 331.605 667.902 330.985 667.996 330.36C668.373 327.862 668.657 325.336 668.839 322.777C668.895 321.975 668.942 321.169 668.979 320.362C669.049 318.852 669.082 317.337 669.082 315.813C669.082 314.839 669.068 313.865 669.035 312.896Z"
            stroke="black" stroke-width="2.79658" stroke-miterlimit="10" stroke-linecap="round" />
        <path
            d="M641.243 312.896C641.238 312.621 641.229 312.35 641.215 312.08C641.201 311.684 641.187 311.292 641.163 310.901C641.126 310.104 641.075 309.307 641.014 308.519C640.982 308.062 640.944 307.61 640.902 307.158C640.804 306.072 640.693 304.986 640.557 303.909C640.432 302.898 640.296 301.896 640.138 300.894C639.942 299.612 639.718 298.339 639.467 297.076C632.224 260.46 604.248 231.296 568.284 222.333C568.28 222.328 568.28 222.328 568.275 222.333C567.114 222.044 565.945 221.778 564.77 221.531H564.765C563.824 221.335 562.878 221.154 561.927 220.981C561.61 220.925 561.288 220.869 560.971 220.818C560.305 220.706 559.638 220.604 558.972 220.506C558.613 220.455 558.254 220.403 557.89 220.357C556.823 220.212 555.746 220.086 554.665 219.979C554.302 219.942 553.943 219.909 553.579 219.877C550.727 219.625 547.841 219.494 544.924 219.494C491.705 219.494 448.558 262.636 448.558 315.86C448.558 328.342 450.931 340.274 455.251 351.223H455.256C469.355 386.944 504.187 412.221 544.924 412.221C582.845 412.221 615.658 390.314 631.38 358.466C632.769 355.655 634.023 352.765 635.137 349.81C635.412 349.079 635.682 348.338 635.938 347.596C636.321 346.501 636.684 345.396 637.024 344.282C637.215 343.672 637.397 343.061 637.57 342.446C638.53 339.109 639.313 335.697 639.905 332.22C640.012 331.605 640.11 330.985 640.203 330.36C640.581 327.862 640.865 325.336 641.047 322.777C641.103 321.975 641.149 321.169 641.187 320.362C641.257 318.852 641.289 317.337 641.289 315.813C641.289 314.839 641.275 313.865 641.243 312.896Z"
            stroke="black" stroke-width="1.39829" stroke-miterlimit="10" stroke-linecap="round"
            stroke-linejoin="round" />
        <path
            d="M1237.39 312.896C1237.39 312.621 1237.38 312.35 1237.37 312.08C1237.35 311.684 1237.34 311.292 1237.32 310.901C1237.28 310.104 1237.23 309.307 1237.17 308.519C1237.13 308.062 1237.1 307.61 1237.05 307.158C1236.96 306.072 1236.84 304.986 1236.71 303.909C1236.58 302.898 1236.45 301.896 1236.29 300.894C1236.09 299.612 1235.87 298.339 1235.62 297.076C1228.38 260.46 1200.4 231.296 1164.44 222.333C1164.43 222.328 1164.43 222.328 1164.43 222.333C1163.27 222.044 1162.1 221.778 1160.92 221.531H1160.92C1159.98 221.335 1159.03 221.154 1158.08 220.981C1157.76 220.925 1157.44 220.869 1157.12 220.818C1156.46 220.706 1155.79 220.604 1155.12 220.506C1154.76 220.455 1154.41 220.403 1154.04 220.357C1152.97 220.212 1151.9 220.086 1150.82 219.979C1150.45 219.942 1150.09 219.909 1149.73 219.877C1146.88 219.625 1143.99 219.494 1141.08 219.494C1087.86 219.494 1044.71 262.636 1044.71 315.86C1044.71 328.342 1047.08 340.274 1051.4 351.223H1051.41C1065.51 386.944 1100.34 412.221 1141.08 412.221C1179 412.221 1211.81 390.314 1227.53 358.466C1228.92 355.655 1230.17 352.765 1231.29 349.81C1231.56 349.079 1231.83 348.338 1232.09 347.596C1232.47 346.501 1232.84 345.396 1233.18 344.282C1233.37 343.672 1233.55 343.061 1233.72 342.446C1234.68 339.109 1235.46 335.697 1236.06 332.22C1236.16 331.605 1236.26 330.985 1236.36 330.36C1236.73 327.862 1237.02 325.336 1237.2 322.777C1237.25 321.975 1237.3 321.169 1237.34 320.362C1237.41 318.852 1237.44 317.337 1237.44 315.813C1237.44 314.839 1237.43 313.865 1237.39 312.896Z"
            stroke="black" stroke-width="1.39829" stroke-miterlimit="10" stroke-linecap="round"
            stroke-linejoin="round" />
        <path
            d="M1262.96 312.896C1262.96 312.621 1262.95 312.35 1262.93 312.08C1262.92 311.684 1262.9 311.292 1262.88 310.901C1262.84 310.104 1262.79 309.307 1262.73 308.519C1262.7 308.062 1262.66 307.61 1262.62 307.158C1262.52 306.072 1262.41 304.986 1262.27 303.909C1262.15 302.898 1262.01 301.896 1261.86 300.894C1261.66 299.612 1261.44 298.339 1261.18 297.076C1253.94 260.46 1225.97 231.296 1190 222.333C1190 222.328 1190 222.328 1189.99 222.333C1188.83 222.044 1187.66 221.778 1186.49 221.531H1186.48C1185.54 221.335 1184.59 221.154 1183.64 220.981C1183.33 220.925 1183.01 220.869 1182.69 220.818C1182.02 220.706 1181.36 220.604 1180.69 220.506C1180.33 220.455 1179.97 220.403 1179.61 220.357C1178.54 220.212 1177.46 220.086 1176.38 219.979C1176.02 219.942 1175.66 219.909 1175.3 219.877C1172.44 219.625 1169.56 219.494 1166.64 219.494C1113.42 219.494 1070.28 262.636 1070.28 315.86C1070.28 328.342 1072.65 340.274 1076.97 351.223H1076.97C1091.07 386.944 1125.9 412.221 1166.64 412.221C1204.56 412.221 1237.38 390.314 1253.1 358.466C1254.49 355.655 1255.74 352.765 1256.85 349.81C1257.13 349.079 1257.4 348.338 1257.66 347.596C1258.04 346.501 1258.4 345.396 1258.74 344.282C1258.93 343.672 1259.11 343.061 1259.29 342.446C1260.25 339.109 1261.03 335.697 1261.62 332.22C1261.73 331.605 1261.83 330.985 1261.92 330.36C1262.3 327.862 1262.58 325.336 1262.76 322.777C1262.82 321.975 1262.87 321.169 1262.9 320.362C1262.97 318.852 1263.01 317.337 1263.01 315.813C1263.01 314.839 1262.99 313.865 1262.96 312.896Z"
            stroke="black" stroke-width="2.79658" stroke-miterlimit="10" stroke-linecap="round" />
        <path
            d="M1142.96 243.139C1159.88 228.411 1181.99 219.494 1206.19 219.494C1208.72 219.494 1211.22 219.592 1213.7 219.783C1214.81 219.867 1215.92 219.97 1217.02 220.096C1217.72 220.175 1218.41 220.259 1219.1 220.352C1219.79 220.445 1220.48 220.543 1221.17 220.65C1221.17 220.646 1221.18 220.646 1221.18 220.65C1222.15 220.799 1223.12 220.967 1224.09 221.149C1224.09 221.149 1224.09 221.149 1224.1 221.149C1262.72 228.411 1293.21 258.707 1300.76 297.216V297.221C1300.88 297.831 1301 298.447 1301.1 299.062C1301.1 299.066 1301.1 299.071 1301.1 299.071C1301.22 299.719 1301.32 300.367 1301.43 301.015C1301.48 301.341 1301.52 301.667 1301.57 301.994C1301.57 301.998 1301.57 301.998 1301.57 302.003C1301.67 302.693 1301.76 303.382 1301.85 304.077C1301.89 304.427 1301.93 304.776 1301.97 305.126C1301.97 305.13 1301.97 305.13 1301.97 305.135C1302.05 305.867 1302.12 306.599 1302.19 307.335C1302.22 307.703 1302.25 308.071 1302.27 308.444C1302.31 308.85 1302.34 309.26 1302.36 309.67C1302.39 310.076 1302.41 310.481 1302.43 310.887C1302.43 310.901 1302.43 310.915 1302.43 310.933C1302.45 311.297 1302.47 311.665 1302.48 312.033C1302.48 312.103 1302.48 312.168 1302.49 312.238C1302.5 312.616 1302.51 312.993 1302.52 313.371C1302.54 313.786 1302.54 314.201 1302.55 314.615C1302.55 315.03 1302.55 315.445 1302.55 315.86C1302.55 317.37 1302.52 318.876 1302.45 320.372C1302.41 321.369 1302.34 322.357 1302.27 323.345C1302.2 324.334 1302.1 325.322 1302 326.3C1301.84 327.769 1301.65 329.228 1301.42 330.677C1301.42 330.677 1301.42 330.677 1301.42 330.682C1301.27 331.647 1301.11 332.607 1300.93 333.562C1299.16 343.122 1295.97 352.192 1291.59 360.535C1289.79 363.966 1287.8 367.275 1285.61 370.445C1283.23 373.903 1280.63 377.198 1277.83 380.307C1275.38 383.029 1272.78 385.607 1270.04 388.03M1259.33 396.257C1255.9 398.527 1252.32 400.582 1248.61 402.405C1245.01 404.171 1241.28 405.723 1237.44 407.038M1222.24 410.888C1217.02 411.764 1211.66 412.221 1206.19 412.221C1169.63 412.221 1137.83 391.862 1121.49 361.864C1114.06 348.193 1109.83 332.518 1109.83 315.86C1109.83 307.866 1110.8 300.101 1112.63 292.672C1114.22 286.235 1116.46 280.054 1119.27 274.2M1132.06 254.289C1129.77 257.038 1127.64 259.914 1125.66 262.911"
            stroke="black" stroke-width="5.59316" stroke-miterlimit="10" stroke-linecap="round"
            stroke-linejoin="round" />
        <path
            d="M1109.83 315.86C1109.83 332.518 1114.06 348.193 1121.49 361.864C951.322 361.934 760.041 359.384 696.964 358.466"
            stroke="black" stroke-width="5.59316" stroke-miterlimit="10" stroke-linecap="round" />
        <path
            d="M520.836 351.223C458.211 351.223 417.502 345.224 391.046 337.426C380.317 334.266 371.521 326.431 367.438 316.014C358.466 293.138 367 261.168 424.004 226.36C491.555 185.11 639.774 155.378 639.774 155.378H639.788C653.394 152.717 667.623 150.256 682.45 148.079C693.511 146.457 704.296 145.082 714.783 143.926C715.617 143.833 716.191 144.751 715.734 145.459C710.961 152.861 705.573 164.005 706.873 176.665C711.176 218.525 785.835 249.553 844.852 249.366C887.896 249.231 926.568 232.401 938.454 227.227C954.194 220.375 958.319 216.721 980.575 205.087C1024.02 182.379 1061.9 160.766 1071.5 165.161C1080.46 169.268 1267.77 196.707 1330.35 230.872C1381.3 258.688 1409.37 302.786 1415.2 333.283C1417.01 342.758 1414.41 354.606 1403.59 355.739C1381.38 358.06 1341.88 359.589 1291.59 360.535"
            stroke="black" stroke-width="5.59316" stroke-miterlimit="10" stroke-linecap="round" />
        <path
            d="M995.76 182.822C1008.95 146.546 1021.69 113.77 1024.57 114.669C1024.61 114.683 1024.64 114.702 1024.67 114.72C1027.85 116.711 1053.02 144.541 1071.5 165.166"
            stroke="black" stroke-width="2.33048" stroke-miterlimit="10" stroke-linecap="round" />
        <path
            d="M1228.93 315.86C1228.93 328.417 1218.75 338.596 1206.19 338.596C1193.63 338.596 1183.45 328.417 1183.45 315.86C1183.45 303.303 1193.63 293.119 1206.19 293.119C1218.75 293.119 1228.93 303.303 1228.93 315.86Z"
            stroke="black" stroke-width="3.26268" stroke-miterlimit="10" stroke-linecap="round"
            stroke-linejoin="round" />
        <path d="M467.523 309.171H2.33057" stroke="black" stroke-width="4.66097"
            stroke-miterlimit="10" stroke-linecap="round" />
        <path d="M558.198 135.881H265.517" stroke="black" stroke-width="1.39829"
            stroke-miterlimit="10" stroke-linecap="round" />
        <path d="M427.183 243.139H108.736" stroke="black" stroke-width="1.39829"
            stroke-miterlimit="10" stroke-linecap="round" />
        <path d="M488.781 160.967H481.79" stroke="black" stroke-width="4.19487"
            stroke-miterlimit="10" stroke-linecap="round" />
        <path d="M468.483 160.967H235.561" stroke="black" stroke-width="4.19487"
            stroke-miterlimit="10" stroke-linecap="round" stroke-dasharray="13.31 13.31" />
        <path d="M228.905 160.967H221.914" stroke="black" stroke-width="4.19487"
            stroke-miterlimit="10" stroke-linecap="round" />
        <path d="M310.188 196.907H158.562" stroke="black" stroke-width="4.66097"
            stroke-miterlimit="10" stroke-linecap="round" />
        <path d="M477.069 212.382H325.443" stroke="black" stroke-width="5.59316"
            stroke-miterlimit="10" stroke-linecap="round" />
        <path d="M474.002 272.75H41.6182" stroke="black" stroke-width="3.26268"
            stroke-miterlimit="10" stroke-linecap="round" />
        <path d="M956.654 153.15C956.654 153.15 968.619 161.829 975.405 161.325" stroke="black"
            stroke-width="2.79658" stroke-miterlimit="10" stroke-linecap="round" />
        <path
            d="M799.501 91.1316C799.501 91.1316 798.27 93.8816 796.751 93.8816C795.231 93.8816 794.001 91.1316 794.001 91.1316H799.501Z"
            fill="black" stroke="black" stroke-width="1.86439" stroke-miterlimit="10"
            stroke-linecap="round" />
        <path
            d="M850.371 89.8728C850.371 89.8728 849.14 92.6228 847.621 92.6228C846.101 92.6228 844.871 89.8728 844.871 89.8728H850.371Z"
            fill="black" stroke="black" stroke-width="1.86439" stroke-miterlimit="10"
            stroke-linecap="round" />
        <path
            d="M315.012 317.733C305.373 296.456 311.908 265.694 364.316 229.856C426.418 187.389 565.66 151.901 565.66 151.901H565.674C578.459 148.708 591.85 145.674 605.814 142.882C616.236 140.798 626.407 138.967 636.302 137.354"
            stroke="black" stroke-width="2.33048" stroke-miterlimit="10" stroke-linecap="round" />
        <path
            d="M996.725 163.665C1000.05 169.431 984.131 184.849 961.166 198.11C938.197 211.37 916.883 213.859 913.555 211.683"
            stroke="black" stroke-width="4.19487" stroke-miterlimit="10" stroke-linecap="round" />
        <path
            d="M992.861 154.684C996.189 160.449 980.267 175.873 957.303 189.128C934.334 202.389 915 206.486 909.691 202.701"
            stroke="black" stroke-width="1.86439" stroke-miterlimit="10" stroke-linecap="round" />
        <path
            d="M993.924 155.401C993.924 155.401 989.114 149.477 983.194 155.401C977.275 161.326 961.819 173.505 934.054 188.261"
            stroke="black" stroke-width="1.86439" stroke-miterlimit="10" stroke-linecap="round" />
        <path d="M183.694 325.345H636.679" stroke="black" stroke-width="4.19487"
            stroke-miterlimit="10" stroke-linecap="round" stroke-dasharray="23.3 23.3" />
        <path
            d="M938.985 81.3991L949.934 51.196C949.934 51.196 997.517 72.9115 997.988 72.6272C998.016 72.6132 998.049 72.6365 998.044 72.6691"
            stroke="black" stroke-width="1.86439" stroke-miterlimit="10" stroke-linecap="round" />
        <path
            d="M934.515 87.4027L957.778 82.3875L971.64 79.3951L985.502 76.4075L998.51 73.6016L996.17 81.1197L993.677 89.1272L991.183 97.1395L982.504 125.017"
            stroke="black" stroke-width="3.26268" stroke-miterlimit="10" stroke-linecap="round"
            stroke-linejoin="round" />
        <path d="M916.397 158.874L932.184 92.9958" stroke="black" stroke-width="4.66097"
            stroke-miterlimit="10" stroke-linecap="round" stroke-linejoin="round" />
        <path d="M985.035 76.4074L952.73 62.1401" stroke="black" stroke-width="1.39829"
            stroke-miterlimit="10" stroke-linecap="round" stroke-linejoin="round" />
        <path d="M971.173 79.3952L949.365 69.7656" stroke="black" stroke-width="1.39829"
            stroke-miterlimit="10" stroke-linecap="round" stroke-linejoin="round" />
        <path d="M957.312 82.3872L946 77.3906" stroke="black" stroke-width="1.39829"
            stroke-miterlimit="10" stroke-linecap="round" stroke-linejoin="round" />
    </g>
    <defs>
        <clipPath id="clip0_456_1836">
            <rect width="1418.52" height="415.017" fill="white" />
        </clipPath>
    </defs>
</svg>