<svg width="390" height="675" viewBox="0 0 390 675" fill="none" xmlns="http://www.w3.org/2000/svg">
<mask id="mask0_1522_14412" style="mask-type:luminance" maskUnits="userSpaceOnUse" x="17" y="28" width="65" height="65">
<path d="M73.1954 92.0756H24.8803C20.5309 92.0756 17 88.55 17 84.1954V35.8803C17 31.5309 20.5257 28 24.8803 28H73.1954C77.5447 28 81.0756 31.5257 81.0756 35.8803V84.1954C81.0756 88.5447 77.55 92.0756 73.1954 92.0756Z" fill="white"/>
</mask>
<g mask="url(#mask0_1522_14412)">
<path d="M85.3841 24.0488H13.7744V97.5157H85.3841V24.0488Z" fill="url(#paint0_linear_1522_14412)"/>
</g>
<mask id="mask1_1522_14412" style="mask-type:luminance" maskUnits="userSpaceOnUse" x="17" y="28" width="65" height="65">
<path d="M73.1954 92.0756H24.8803C20.5309 92.0756 17 88.55 17 84.1954V35.8803C17 31.5309 20.5257 28 24.8803 28H73.1954C77.5447 28 81.0756 31.5257 81.0756 35.8803V84.1954C81.0756 88.5447 77.55 92.0756 73.1954 92.0756Z" fill="white"/>
</mask>
<g mask="url(#mask1_1522_14412)">
<path d="M77.8288 52.2374L77.6504 52.1377V54.357L79.4395 55.102L77.8288 52.2374Z" fill="#FF8E25"/>
<path d="M62.2725 36.5025C71.7477 44.729 73.1801 49.5558 73.1801 49.5558L82.7444 55.1014L87.0361 20.7734L14.7969 22.5625L16.3918 43.9525C22.4935 41.2768 35.1009 37.8141 42.4198 35.4374C53.6158 31.7964 62.2725 36.5025 62.2725 36.5025Z" fill="#FF8E25"/>
<path d="M71.7482 53.8483C72.8185 53.8483 75.1479 55.8158 75.1479 55.8158C77.2937 63.1451 70.6779 65.4693 70.6779 65.4693L74.7912 72.6203L66.0295 69.4042C61.2027 82.6359 56.1975 80.6685 56.1975 80.6685L45.4684 78.1659L42.9658 80.3117L47.6142 84.0682L50.5628 92.0534L87.2779 93.2444L83.6997 57.7202L73.0021 52.416L71.7482 53.8483Z" fill="#FF8E25"/>
<path d="M16.2296 44.8506L13.8477 53.9061L23.8318 56.3509L16.2296 44.8506Z" fill="#FF8E25"/>
<path d="M29.2873 72.6899C21.2497 74.0487 21.2077 69.9617 13.1701 71.3205C5.13241 72.6794 5.17438 76.7664 -2.86327 78.1252C-10.9009 79.4841 -10.9429 75.3971 -18.9806 76.7559C-27.0182 78.1148 -26.9815 82.2018 -35.0244 83.5606C-43.0673 84.9195 -43.104 80.8324 -51.1469 82.1913C-59.1898 83.5501 -64.7878 88.5606 -67.2065 88.996C-68.0302 89.1324 -68.623 89.059 -68.8486 89.0223C-68.8959 89.0118 -68.9116 88.9593 -68.8801 88.9173L-65.3859 84.2689C-65.3544 84.2217 -65.3702 84.164 -65.4227 84.164L-72.2956 83.5239C-72.3481 83.5187 -72.3691 83.4557 -72.3323 83.4137L-65.1236 78.0623C-65.0869 78.0203 -65.1026 77.9626 -65.1499 77.9521L-75.9314 73.65C-75.9787 73.6395 -75.9944 73.5818 -75.9577 73.5398L-71.7027 68.2303C-71.666 68.1884 -71.6818 68.1307 -71.7342 68.1202L-79.2997 66.8505C-79.3626 66.84 -79.3679 66.7508 -79.3049 66.7193C-78.3133 66.1999 -73.7856 63.8338 -73.3711 63.6816C-72.9042 63.5085 -65.3073 58.5925 -57.4113 57.6166C-49.5153 56.6408 -49.6779 60.7541 -41.7819 59.7782C-33.8859 58.8024 -33.7285 54.6891 -25.8325 53.7132C-17.9418 52.7374 -18.0939 56.8507 -10.2031 55.8748C-2.31239 54.899 -2.15499 50.7857 5.73576 49.8098C13.6265 48.834 15.5782 56.9818 23.469 56.006L24.9642 60.5914L29.2873 72.6899Z" fill="#F9AC12"/>
<path d="M-68.1437 89.4833C-68.511 89.4833 -68.7785 89.4466 -68.915 89.4204C-69.0776 89.3941 -69.2088 89.284 -69.2717 89.1318C-69.3347 88.9744 -69.3084 88.8013 -69.2035 88.6596L-66.0766 84.5044L-72.3252 83.9273C-72.4983 83.9115 -72.6505 83.8014 -72.7187 83.6387C-72.7869 83.4761 -72.7554 83.2819 -72.64 83.1455L-72.6085 83.1088L-65.8667 78.1036L-76.0555 74.0376C-76.1919 73.9956 -76.302 73.8907 -76.3545 73.7543C-76.4122 73.5969 -76.3807 73.4185 -76.2758 73.2821L-72.3881 68.4291L-79.366 67.2591C-79.5654 67.2276 -79.7228 67.0702 -79.7542 66.8709C-79.7857 66.661 -79.6808 66.4564 -79.4919 66.3567C-77.834 65.491 -73.9306 63.4554 -73.5109 63.298C-73.4637 63.277 -73.2276 63.1406 -72.981 62.9989C-67.2466 59.7199 -62.021 57.7682 -57.4566 57.2068C-53.401 56.7084 -51.3864 57.5268 -49.4347 58.3138C-47.4987 59.1008 -45.6677 59.8458 -41.822 59.3684C-37.9658 58.8909 -36.0456 57.679 -34.0152 56.3936C-31.9953 55.1187 -29.9124 53.7966 -25.8726 53.2981C-21.8223 52.7997 -19.8024 53.6182 -17.8507 54.4052C-15.9147 55.1921 -14.0837 55.9371 -10.238 55.4597C-6.38178 54.9823 -4.46681 53.7703 -2.43641 52.4849C-0.421753 51.21 1.66637 49.8879 5.70094 49.3895C9.80895 48.8806 12.3745 50.7536 14.8613 52.5636C17.3219 54.3579 19.6514 56.0526 23.4341 55.5856L23.7699 55.5436L24.9346 61L29.8454 73.004L29.3627 73.088C25.2442 73.7858 23.1403 73.0722 21.1047 72.3849C19.0795 71.6977 17.1646 71.0523 13.2454 71.7134C9.31578 72.3797 7.41128 73.6756 5.39137 75.0502C3.38721 76.4143 1.3201 77.8256 -2.78792 78.5181C-6.91167 79.2159 -9.01556 78.5024 -11.046 77.8151C-13.0711 77.133 -14.9861 76.4825 -18.9052 77.1435C-22.8349 77.8098 -24.7446 79.1057 -26.7645 80.4803C-28.7686 81.8444 -30.841 83.2557 -34.9491 83.9483C-39.0728 84.646 -41.1767 83.9325 -43.2123 83.2452C-45.2375 82.5632 -47.1524 81.9126 -51.0716 82.5737C-56.2184 83.4446 -60.3159 85.8108 -63.3064 87.5369C-64.9906 88.5127 -66.2077 89.2158 -67.1259 89.3784C-67.5194 89.4623 -67.8604 89.4833 -68.1437 89.4833ZM-68.17 88.6596C-67.9234 88.6596 -67.6191 88.6439 -67.2675 88.5862C-66.4963 88.4498 -65.2686 87.7415 -63.7156 86.8443C-60.6727 85.0868 -56.5017 82.6786 -51.208 81.7814C-47.0842 81.0837 -44.9804 81.7972 -42.9447 82.4845C-40.9196 83.1665 -39.0046 83.8171 -35.0854 83.156C-31.1506 82.4897 -29.2461 81.1938 -27.2262 79.8193C-25.222 78.4552 -23.1496 77.0439 -19.0416 76.3513C-14.9179 75.6535 -12.814 76.3671 -10.7836 77.0543C-8.75848 77.7416 -6.84348 78.387 -2.92433 77.7259C1.0053 77.0596 2.90977 75.7637 4.92968 74.3891C6.93385 73.025 9.00098 71.6137 13.109 70.9212C17.2275 70.2234 19.3314 70.9369 21.367 71.6242C23.3082 72.28 25.1497 72.8991 28.7383 72.3692L24.5884 60.7377L23.1928 56.4565C19.2789 56.8238 16.7868 55.0033 14.3734 53.2457C11.9128 51.4514 9.58335 49.7567 5.80061 50.2237C1.94968 50.7011 0.0294342 51.9131 -1.99572 53.1985C-4.01038 54.4734 -6.09846 55.7955 -10.133 56.2939C-14.1833 56.7923 -16.2033 55.9791 -18.155 55.1869C-20.0909 54.3999 -21.922 53.6549 -25.7624 54.1323C-29.6186 54.6098 -31.5336 55.8217 -33.564 57.1071C-35.5839 58.382 -37.6667 59.7041 -41.7066 60.2026C-45.7621 60.701 -47.7768 59.8825 -49.7285 59.0955C-51.6644 58.3086 -53.4955 57.5636 -57.3412 58.041C-61.7954 58.5919 -66.916 60.5068 -72.556 63.7334C-72.9758 63.9748 -73.1174 64.0535 -73.2066 64.085C-73.4637 64.1794 -75.7721 65.3704 -78.196 66.6348L-71.6484 67.7313C-71.4805 67.7575 -71.3493 67.8677 -71.2864 68.0251C-71.2234 68.1825 -71.2549 68.3661 -71.3651 68.5025L-75.3314 73.45L-65.001 77.5737C-64.8594 77.6157 -64.7545 77.7206 -64.702 77.8623C-64.6443 78.0197 -64.6758 78.2033 -64.786 78.3345L-64.8174 78.3712L-71.3336 83.2033L-65.3683 83.7541C-65.2004 83.7699 -65.0483 83.8748 -64.9801 84.0322C-64.9119 84.1896 -64.9328 84.3785 -65.0378 84.5201L-68.17 88.6596Z" fill="#0D0D0D"/>
<path d="M55.6047 61.6027C54.9804 61.6027 54.398 61.566 53.8471 61.4925C53.6687 61.4663 53.5428 61.3036 53.5638 61.12C53.59 60.9416 53.7527 60.8157 53.9363 60.8367C56.4442 61.1725 59.7494 60.7055 63.784 59.4411C61.9949 59.1368 58.4326 58.6489 54.1409 58.7276C53.9573 58.7276 53.8104 58.586 53.8052 58.4023C53.7999 58.2187 53.9468 58.0718 54.1304 58.0666C60.3895 57.9564 65.1271 59.0267 65.1743 59.0372C65.316 59.0686 65.4209 59.1945 65.4314 59.3414C65.4367 59.4884 65.3475 59.6248 65.2058 59.672C61.4178 60.9574 58.2017 61.6027 55.6047 61.6027Z" fill="#0D0D0D"/>
<path d="M63.9707 58.8955C63.8343 59.7402 63.1312 60.4222 62.3915 60.4222C61.6517 60.4222 61.1638 59.7402 61.3002 58.8955" fill="#0D0D0D"/>
<path d="M67.2138 58.7334H67.2085C66.9672 58.7282 66.7258 58.7229 66.4793 58.7177C66.3481 58.7177 66.2432 58.6075 66.2432 58.4763C66.2432 58.3452 66.3533 58.2402 66.4793 58.2402C66.4793 58.2402 66.4793 58.2402 66.4845 58.2402C66.7311 58.2455 66.9777 58.2507 67.219 58.256C67.3502 58.2612 67.4551 58.3714 67.4499 58.5026C67.4446 58.6337 67.3397 58.7334 67.2138 58.7334Z" fill="#0D0D0D"/>
<path d="M67.8705 61.3459C67.755 61.3459 67.6501 61.2567 67.6344 61.1413C67.6186 61.0101 67.7078 60.8894 67.839 60.8737C69.5913 60.6481 71.5797 60.1759 73.7623 59.4781C72.4454 59.242 69.754 58.8328 66.3805 58.7384C66.2493 58.7331 66.1444 58.6229 66.1496 58.4918C66.1548 58.3606 66.265 58.2557 66.3962 58.2609C71.2545 58.3973 74.7172 59.1791 74.7539 59.1843C74.8588 59.2105 74.9323 59.2997 74.9375 59.4047C74.9428 59.5096 74.8798 59.6093 74.7749 59.6408C72.2251 60.5064 69.9114 61.0783 67.902 61.3406C67.8915 61.3459 67.881 61.3459 67.8705 61.3459Z" fill="#0D0D0D"/>
<path d="M73.7046 59.1842C73.5734 60.0027 73.096 60.4434 72.4874 60.4434C71.8788 60.4434 71.4906 59.7823 71.6165 58.9639" fill="#0D0D0D"/>
<path d="M57.3285 81.3822C55.6653 81.3822 52.2551 80.4483 47.4755 79.0842C45.6235 78.5543 43.8712 78.0559 42.5543 77.7359C42.2867 77.6729 42.1241 77.4053 42.1923 77.1378C42.2553 76.8702 42.5228 76.7076 42.7904 76.7758C44.1282 77.101 45.8911 77.5995 47.7536 78.1346C51.6727 79.2521 56.552 80.6477 57.7115 80.3644C61.6778 79.3885 65.5497 69.3782 65.5865 69.2785C65.6809 69.0267 65.959 68.9007 66.2161 68.9899L73.8917 71.7286L66.4364 58.9429C66.3 58.7068 66.3787 58.4025 66.6148 58.2661C66.8509 58.1297 67.1552 58.2084 67.2916 58.4445L75.4289 72.4002C75.5339 72.5785 75.5129 72.8041 75.3817 72.9668C75.2506 73.1242 75.0302 73.1871 74.8361 73.1189L66.3315 70.0865C65.4973 72.1378 61.9349 80.3486 57.9476 81.3297C57.7744 81.3612 57.5698 81.3822 57.3285 81.3822Z" fill="#0D0D0D"/>
<path d="M64.1637 73.4435C62.2383 73.4435 58.1985 70.8202 57.3485 70.2536C57.1229 70.1014 57.06 69.7971 57.2121 69.5663C57.3643 69.3407 57.6685 69.2777 57.8994 69.4299C60.0242 70.8464 63.4187 72.7142 64.3159 72.4361C64.5782 72.3574 64.851 72.4991 64.9349 72.7614C65.0136 73.0237 64.872 73.2966 64.6097 73.3805C64.4785 73.4225 64.3264 73.4435 64.1637 73.4435Z" fill="#0D0D0D"/>
<path d="M53.1083 60.6064C53.103 60.6064 53.103 60.6064 53.0978 60.6064L42.2952 60.428C41.9752 60.4227 41.7233 60.1604 41.7286 59.8404C41.7338 59.5203 41.9962 59.2633 42.3162 59.2737L53.1188 59.4521C53.4388 59.4574 53.6906 59.7197 53.6854 60.0397C53.6801 60.3545 53.4231 60.6064 53.1083 60.6064Z" fill="#0D0D0D"/>
<path d="M59.0512 66.1888C57.173 66.1888 55.4784 65.4648 54.3976 64.1951C53.4165 63.0409 53.0125 61.5456 53.2591 59.9822C53.3588 59.3631 53.5529 58.7545 53.8467 58.1721C55.1216 55.6066 57.96 53.8857 60.9032 53.8857C62.7763 53.8857 64.4709 54.6098 65.5516 55.8742C66.5327 57.0284 66.942 58.5237 66.6902 60.0871C66.1603 63.4554 62.7291 66.1888 59.0512 66.1888ZM60.9032 54.552C58.2433 54.552 55.5885 56.1627 54.4395 58.4712C54.1772 58.9958 54.0041 59.5415 53.9149 60.0924C53.6945 61.4617 54.0461 62.7681 54.9012 63.7702C55.8561 64.8877 57.3671 65.5277 59.0512 65.5277C62.4195 65.5277 65.5569 63.0409 66.0448 59.9874C66.2652 58.6181 65.9084 57.3117 65.0533 56.3096C64.0984 55.1921 62.5874 54.552 60.9032 54.552Z" fill="#0D0D0D"/>
<path d="M70.8448 65.5853C70.7346 65.5853 70.6349 65.5119 70.6087 65.4017C70.5719 65.2705 70.6506 65.1341 70.7871 65.1026C72.9329 64.5413 74.7901 62.2328 75.2046 59.62C75.4722 57.9149 75.1102 56.3357 74.2078 55.2759C73.5415 54.4942 72.6548 54.085 71.637 54.085C70.7136 54.085 69.7692 54.4312 68.9035 55.087C68.7934 55.171 68.6412 55.15 68.5573 55.0398C68.4733 54.9297 68.4943 54.7775 68.6045 54.6936C69.5541 53.9695 70.6034 53.5918 71.637 53.5918C72.7807 53.5918 73.83 54.0745 74.5803 54.9559C75.5771 56.1206 75.9811 57.852 75.6873 59.6987C75.2361 62.5423 73.2686 64.961 70.9077 65.5801C70.8867 65.5853 70.8657 65.5853 70.8448 65.5853Z" fill="#0D0D0D"/>
<path d="M73.3378 48.8907C73.1332 48.8907 72.9391 48.7805 72.8341 48.5916C72.7764 48.4814 66.722 37.7104 56.0663 34.7461C53.2752 33.9696 48.291 34.4995 41.2554 36.32C40.9458 36.3987 40.6311 36.2151 40.5524 35.9056C40.4737 35.596 40.6573 35.2812 40.9668 35.2025C48.2018 33.3295 53.3853 32.8049 56.3758 33.6338C62.1995 35.255 66.638 39.0797 69.34 42.0073C72.257 45.1709 73.7837 47.9148 73.8467 48.0302C73.9989 48.3083 73.8992 48.6598 73.6211 48.812C73.5319 48.8644 73.4322 48.8907 73.3378 48.8907Z" fill="#0D0D0D"/>
<path d="M41.8352 82.4092C40.6233 82.4092 39.1175 82.1679 37.4544 81.3652C34.8364 80.1007 32.4335 77.7293 30.3034 74.3138C27.6434 70.0379 24.9204 63.7579 23.1891 56.3393C22.9163 55.8514 20.6865 51.3918 15.9804 44.4979C15.9227 44.414 15.907 44.309 15.9332 44.2146C15.9594 44.1202 16.0329 44.0415 16.1273 43.9995C16.1903 43.9733 22.2762 41.4235 29.7577 38.8632C29.9309 38.8055 30.125 38.8946 30.1827 39.073C30.2404 39.2462 30.1512 39.4403 29.9728 39.498C23.5826 41.6806 18.2049 43.8631 16.7674 44.456C21.5889 51.5387 23.9184 55.8461 23.9446 55.8986C23.9603 55.9248 23.9289 55.9353 23.9341 55.9668C27.7903 72.509 33.7451 78.8101 37.7272 80.7461C40.5393 82.1101 42.895 81.7377 43.96 81.4439C42.9947 80.7723 40.9643 79.2351 39.1018 77.0473C35.7545 73.1229 34.6108 68.9886 35.7965 65.0957C35.8489 64.9173 36.0378 64.8177 36.2162 64.8754C36.3946 64.9278 36.4943 65.1167 36.4365 65.2951C35.3033 69.0044 36.3683 72.8081 39.6002 76.6013C42.0398 79.4607 44.8572 81.2392 44.8834 81.255C44.9884 81.3179 45.0461 81.4386 45.0408 81.5593C45.0356 81.6799 44.9621 81.7901 44.852 81.8426C44.7733 81.8846 43.6243 82.4092 41.8352 82.4092Z" fill="#0D0D0D"/>
<path d="M16.6716 51.9277C16.5877 51.9277 16.5037 51.8857 16.4618 51.807C15.2079 49.7189 13.1197 46.3664 10.3076 42.2531C10.2656 42.1901 10.2551 42.1167 10.2761 42.0432C10.2971 41.9698 10.3496 41.9121 10.4178 41.8858C10.6172 41.8019 30.6378 33.4285 43.177 31.6971C43.3134 31.6814 43.4393 31.7706 43.455 31.907C43.476 32.0434 43.3816 32.1693 43.2452 32.185C31.577 33.7905 13.3611 41.1985 10.8847 42.2216C13.6129 46.2299 15.6486 49.4985 16.8815 51.5499C16.9497 51.6653 16.913 51.8175 16.7975 51.8909C16.7556 51.9172 16.7136 51.9277 16.6716 51.9277Z" fill="#0D0D0D"/>
<path d="M43.1952 80.3525C43.1165 80.3525 43.0431 80.3211 42.9854 80.2634C42.8699 80.1479 42.8752 79.9591 42.9906 79.8436C43.6307 79.2245 44.3914 78.4848 45.4093 77.5457C45.5299 77.4355 45.7135 77.4407 45.829 77.5614C45.9391 77.6821 45.9339 77.8657 45.8132 77.9811C45.8027 77.9916 44.6852 79.0252 43.4051 80.2686C43.3421 80.3211 43.2687 80.3525 43.1952 80.3525Z" fill="#0D0D0D"/>
<path d="M52.2095 98.5903C52.0679 98.5903 51.9315 98.4959 51.8947 98.349C50.389 92.9976 47.9126 84.7605 47.2726 84.0155C47.1047 83.8162 46.6692 83.4174 45.5779 82.6305C45.431 82.5255 45.3943 82.3209 45.5045 82.1688C45.6094 82.0219 45.814 81.9851 45.9662 82.0953C46.9001 82.7669 47.4929 83.2548 47.7762 83.5853C48.7206 84.6818 52.1466 96.7908 52.5348 98.1654C52.582 98.3385 52.4823 98.5221 52.3092 98.5693C52.2672 98.5851 52.2357 98.5903 52.2095 98.5903Z" fill="#0D0D0D"/>
<path d="M9.83859 69.5945C7.73474 69.5945 6.36541 68.923 5.02755 68.2672C3.41687 67.475 1.89539 66.7352 -0.832791 67.0395C-0.921982 67.05 -1.00595 66.987 -1.01644 66.8926C-1.02693 66.8034 -0.963958 66.7195 -0.869521 66.709C1.95835 66.3889 3.59002 67.1916 5.17447 67.9681C6.96353 68.8443 8.65291 69.6732 11.9949 69.0489C14.6549 68.5505 16.0347 67.2756 17.4933 65.9167C19.1826 64.348 21.0976 62.5747 25.3158 61.7877C25.405 61.772 25.489 61.8297 25.51 61.9189C25.5257 62.0081 25.468 62.092 25.3788 62.113C21.255 62.8843 19.4607 64.5474 17.7189 66.1633C16.2236 67.5537 14.8071 68.86 12.0579 69.3742C11.2237 69.5263 10.4944 69.5945 9.83859 69.5945Z" fill="#0D0D0D"/>
<path d="M63.6255 57.5679C63.615 57.5679 63.6045 57.5679 63.594 57.5679L55.6875 56.6078C55.5511 56.5921 55.4567 56.4661 55.4724 56.335C55.4882 56.1986 55.614 56.1041 55.7452 56.1199L63.6517 57.08C63.7881 57.0957 63.8826 57.2216 63.8668 57.3528C63.8563 57.4735 63.7514 57.5679 63.6255 57.5679Z" fill="#0D0D0D"/>
<path d="M72.1778 57.8621C72.1673 57.8621 72.1568 57.8621 72.1463 57.8621L66.1758 57.1381C66.0394 57.1223 65.945 56.9964 65.9607 56.8653C65.9764 56.7288 66.1024 56.6344 66.2335 56.6501L72.2041 57.3742C72.3405 57.3899 72.4349 57.5158 72.4191 57.647C72.4087 57.7677 72.3037 57.8621 72.1778 57.8621Z" fill="#0D0D0D"/>
<path d="M215.23 180.326C214.695 180.326 214.254 179.896 214.243 179.355C214.233 178.81 214.668 178.359 215.214 178.348C246.856 177.755 266.924 177.036 274.867 176.218C279.353 175.756 280.775 170.604 280.633 167.252C280.035 152.829 268.314 137.441 249.29 126.088C230.251 114.713 173.935 102.783 146.873 97.0429C136.238 94.7921 131.496 93.7743 130.52 93.2864C129.67 92.8667 127.036 93.045 119.324 96.2926C113.332 98.8162 105.468 102.672 97.1361 106.749C94.2768 108.15 91.323 109.598 88.3167 111.056C78.17 115.972 49.2827 126.56 27.8245 130.164L27.7615 130.175C10.7891 131.953 -2.28525 132.263 -11.1046 131.098C-19.2682 130.017 -24.011 127.698 -25.606 124.015C-29.2208 115.657 -14.9188 103.302 -4.47302 94.278C-0.375504 90.8153 2.12709 88.4386 3.40724 87.064C-1.30412 87.6674 -13.0091 88.8111 -25.2859 90.0125C-41.0412 91.5498 -57.3264 93.1447 -60.5267 93.7533L-60.6527 93.769C-61.7807 93.9159 -78.092 96.067 -97.9816 100.296C-116.879 104.315 -142.965 111.077 -159.906 120.495C-172.482 127.478 -181.37 134.666 -186.328 141.869C-190.205 147.499 -191.81 153.243 -191.233 159.429C-190.824 163.794 -183.043 167.708 -169.318 170.457C-157.624 172.797 -141.69 174.198 -126.696 174.198C-126.15 174.198 -125.709 174.639 -125.709 175.184C-125.709 175.73 -126.15 176.171 -126.696 176.171C-142.042 176.171 -157.718 174.796 -169.707 172.393C-184.785 169.371 -192.692 165.074 -193.2 159.608C-193.825 152.944 -192.109 146.775 -187.959 140.746C-182.755 133.186 -173.893 125.993 -160.871 118.763C-143.71 109.225 -117.415 102.4 -98.3803 98.3545C-77.9871 94.0209 -61.3347 91.8593 -60.852 91.8016C-57.468 91.172 -41.2091 89.5823 -25.48 88.0451C-11.6555 86.6915 2.636 85.2959 4.85002 84.85C5.61601 84.6978 6.0882 85.0598 6.27707 85.4533C6.63907 86.1983 6.35051 86.9748 3.68004 89.6086C2.00639 91.2612 -0.370255 93.3965 -3.19289 95.7785C-7.84653 99.7973 -14.2263 105.306 -18.6439 110.49C-23.3342 115.999 -25.0708 120.285 -23.7959 123.223C-22.521 126.177 -18.1612 128.16 -10.8475 129.131C-2.19081 130.274 10.7209 129.965 27.5202 128.207C48.7895 124.629 77.3988 114.146 87.4458 109.278C90.4468 107.824 93.4006 106.376 96.2547 104.976C104.607 100.883 112.498 97.0166 118.542 94.4721C125.667 91.4711 129.507 90.5897 131.385 91.5183C132.183 91.9118 139.171 93.3965 147.272 95.1121C161.138 98.0502 182.098 102.494 201.925 107.62C225.67 113.758 241.945 119.403 250.297 124.393C260.245 130.327 268.466 137.52 274.064 145.195C279.353 152.436 282.301 160.032 282.6 167.168C282.81 172.236 280.292 177.645 275.061 178.185C267.065 179.009 246.94 179.728 215.24 180.326C215.24 180.326 215.235 180.326 215.23 180.326Z" fill="#0D0D0D"/>
<path d="M67.2138 58.7334H67.2085C66.9672 58.7282 66.7258 58.7229 66.4793 58.7177C66.3481 58.7177 66.2432 58.6075 66.2432 58.4763C66.2432 58.3452 66.3533 58.2402 66.4793 58.2402C66.4793 58.2402 66.4793 58.2402 66.4845 58.2402C66.7311 58.2455 66.9777 58.2507 67.219 58.256C67.3502 58.2612 67.4551 58.3714 67.4499 58.5026C67.4446 58.6337 67.3397 58.7334 67.2138 58.7334Z" fill="#0D0D0D"/>
<path d="M-4.42116 62.6519C-6.58797 62.6519 -7.93107 62.0275 -9.23745 61.4242C-10.9111 60.6477 -12.4955 59.9132 -15.7746 60.3959C-18.2247 60.7526 -19.6937 61.5291 -20.7011 62.1639C-20.8165 62.2374 -20.9686 62.2007 -21.0421 62.0852C-21.1155 61.9698 -21.0788 61.8177 -20.9634 61.7442C-19.4052 60.7631 -17.826 60.1913 -15.8428 59.9027C-12.4168 59.399 -10.6907 60.2017 -9.02232 60.973C-7.34869 61.7495 -5.76426 62.484 -2.48519 62.0013C0.804369 61.5186 2.42554 60.3119 4.1359 59.037C5.82003 57.7779 7.56714 56.4767 10.9826 55.9783C14.4086 55.4746 16.1347 56.2774 17.8031 57.0486C19.482 57.8251 20.5995 58.4861 23.8785 58.0087C24.0149 57.9877 24.1409 58.0821 24.1566 58.2186C24.1776 58.355 24.0831 58.4809 23.9467 58.4966C20.5208 59.0003 19.2564 58.271 17.588 57.4945C15.9143 56.7181 14.3299 55.9835 11.0508 56.4662C7.76124 56.9489 6.14007 58.1556 4.4297 59.4305C2.74557 60.6897 0.998493 61.9908 -2.41699 62.4892C-3.15674 62.6046 -3.82305 62.6519 -4.42116 62.6519Z" fill="#0D0D0D"/>
<path d="M36.3236 64.5761L35.8867 64.876L36.3559 65.5594L36.7928 65.2594L36.3236 64.5761Z" fill="#0D0D0D"/>
<path d="M65.6544 51.6928L69.3217 55.8428C69.3532 55.8638 69.4005 55.8428 69.4005 55.8008C69.4005 55.8008 72.9628 52.2962 73.1569 52.3906L88.0518 59.5416C88.1043 59.5626 88.1515 59.4891 88.1095 59.4629L72.3175 48.9227C72.2913 48.9122 72.2493 48.8912 72.2178 48.8807C71.1895 48.099 68.6554 48.2564 66.8297 48.2669H66.7982C60.4604 48.2091 53.9705 50.4284 50.3609 51.9027C50.3504 51.9079 50.3451 51.9079 50.3346 51.9132C48.8971 52.59 47.4438 53.3822 45.9958 54.3056L45.9853 54.3108L45.9748 54.3161L41.2634 57.8575C41.2529 57.8627 41.2477 57.868 41.2372 57.8785C40.9644 58.1198 40.6863 58.3664 40.4135 58.6235C39.7 59.2845 39.0809 59.9403 38.5352 60.5962L38.53 60.6014C38.467 60.6696 38.4146 60.7431 38.3569 60.8113C38.3411 60.827 38.3306 60.848 38.3201 60.869C38.0421 61.3989 37.2446 62.9728 36.678 64.2005C36.5416 64.4943 36.4209 64.7671 36.3212 64.998C36.0956 65.5384 35.9959 65.8689 36.1481 65.764L55.8435 51.9709C55.9694 51.8817 56.132 51.887 56.2265 51.9814L60.1194 56.6455C60.1351 56.6613 60.6335 56.6455 60.6335 56.6455C60.6493 56.6613 60.6807 56.656 60.7017 56.635L65.3501 51.824C65.4656 51.7138 65.6334 51.6981 65.7436 51.7768" fill="#F9AC12"/>
<path d="M36.1274 66.199C36.0172 66.199 35.9175 66.157 35.8545 66.1046C35.5555 65.8632 35.6919 65.4855 35.9647 64.8402C36.0801 64.5726 36.2008 64.2998 36.3267 64.0269C36.8933 62.7993 37.696 61.2148 37.9741 60.6797C37.9951 60.6377 38.0213 60.5957 38.0528 60.559C38.1053 60.4908 38.163 60.4226 38.2207 60.3544L38.2574 60.3124C38.8136 59.6461 39.4484 58.9746 40.1514 58.3292C40.4033 58.0931 40.6761 57.8518 40.9804 57.579C40.9961 57.5632 41.0171 57.5475 41.0328 57.537L45.7809 53.9641C47.1712 53.0722 48.6508 52.259 50.167 51.5455L50.209 51.5245C53.6192 50.1289 60.3085 47.7942 66.8037 47.8572H66.8299C67.0608 47.8572 67.3021 47.8519 67.5539 47.8467C69.3587 47.8152 71.4049 47.7837 72.4332 48.5235L72.5539 48.5812L88.5452 58.8172C88.7446 58.9431 88.6082 59.5097 88.4928 59.7248C88.3721 59.9399 88.1098 60.0291 87.8894 59.9294L73.1782 52.8624C72.685 53.2401 71.1321 54.6986 69.7522 56.0522C69.6998 56.1309 69.6263 56.1939 69.5371 56.2306C69.385 56.2988 69.2066 56.2726 69.0754 56.1729L69.0177 56.1205L65.576 52.2223L61.0325 56.9232C60.9433 57.0176 60.8227 57.0701 60.6915 57.0701C60.6653 57.0701 60.6338 57.0648 60.6076 57.0596C60.1196 57.0753 60.0042 57.0753 59.8678 56.9494L59.8311 56.9127L56.0378 52.3692L36.4212 66.1098C36.311 66.1728 36.2165 66.199 36.1274 66.199ZM38.845 60.8948C38.7926 60.9525 38.7453 61.0154 38.6981 61.0732C38.4253 61.5926 37.6331 63.1613 37.0717 64.3732C37.014 64.4939 36.9615 64.6146 36.9091 64.7352L55.6234 51.6294C55.9172 51.4248 56.3002 51.4458 56.5363 51.6872L56.5573 51.7134L60.3347 56.2359C60.3924 56.2359 60.4607 56.2359 60.5289 56.2306L65.0828 51.5193C65.3504 51.2727 65.7386 51.2464 66.0062 51.4458L65.9957 51.4615L69.3535 55.2653C72.8791 51.8078 73.0313 51.8813 73.3303 52.0229L83.5453 56.9284L72.1027 49.2947L71.9925 49.2475L71.9558 49.216C71.174 48.6179 69.1646 48.6547 67.5539 48.6757C67.3021 48.6809 67.0555 48.6861 66.8194 48.6861H66.788C60.4239 48.6284 53.8605 50.9212 50.508 52.2905C49.018 52.9935 47.5752 53.7858 46.2164 54.6619L41.5155 58.1981C41.2165 58.4656 40.9489 58.7017 40.7023 58.9326C40.0255 59.5622 39.4117 60.2075 38.8765 60.8476L38.845 60.8948ZM87.8737 59.8087C87.8789 59.8087 87.8789 59.814 87.8842 59.814L87.8737 59.8087Z" fill="#0D0D0D"/>
</g>
<path d="M73.1973 92.0756H24.8822C20.5329 92.0756 17.002 88.55 17.002 84.1954V35.8803C17.002 31.5309 20.5276 28 24.8822 28H73.1973C77.5467 28 81.0776 31.5257 81.0776 35.8803V84.1954C81.0776 88.5447 77.5519 92.0756 73.1973 92.0756Z" stroke="#0D0D0D" stroke-miterlimit="10"/>
<mask id="mask2_1522_14412" style="mask-type:luminance" maskUnits="userSpaceOnUse" x="114" y="27" width="65" height="65">
<path d="M170.198 91.0756H121.883C117.534 91.0756 114.003 87.55 114.003 83.1954V34.8803C114.003 30.5309 117.529 27 121.883 27H170.198C174.548 27 178.079 30.5257 178.079 34.8803V83.1954C178.073 87.5447 174.548 91.0756 170.198 91.0756Z" fill="white"/>
</mask>
<g mask="url(#mask2_1522_14412)">
<path d="M180.38 19.9531H108.881V93.3046H180.38V19.9531Z" fill="url(#paint1_linear_1522_14412)"/>
</g>
<mask id="mask3_1522_14412" style="mask-type:luminance" maskUnits="userSpaceOnUse" x="114" y="27" width="65" height="65">
<path d="M170.198 91.0756H121.883C117.534 91.0756 114.003 87.55 114.003 83.1954V34.8803C114.003 30.5309 117.529 27 121.883 27H170.198C174.548 27 178.079 30.5257 178.079 34.8803V83.1954C178.073 87.5447 174.548 91.0756 170.198 91.0756Z" fill="white"/>
</mask>
<g mask="url(#mask3_1522_14412)">
<path d="M107.732 90.7235L125.255 74.2704C125.255 74.2704 111.221 37.5028 151.367 32.1724C151.367 32.1724 165.58 34.1241 168.067 43.1848L168.775 45.4933C168.775 45.4933 171.44 46.5583 171.44 48.6884C171.44 50.8185 169.132 50.2886 169.132 50.2886L170.91 59.5277L166.288 55.0892L164.51 60.598L165.853 61.0544L164.867 61.1331L164.431 62.6336L168.775 62.9117C168.775 62.9117 167.039 64.769 164.038 64.0554L159.536 72.1088L160.423 74.2809L158.98 73.6093C158.98 73.6093 154.206 79.7845 152.249 79.7845C150.297 79.7845 148.162 79.2126 148.162 79.2126L145.675 82.4497L157.28 87.5441L176.671 94.2124L180.134 86.3584L181.377 30.5827L176.582 22.587L152.6 19.3919L128.986 17.9648C128.986 17.9648 112.113 21.16 111.578 21.16C111.043 21.16 103.231 32.8859 103.231 35.016C103.231 37.1461 98.2568 65.9232 98.2568 66.9882C98.2568 68.0533 104.474 85.4612 104.474 85.4612L107.732 90.7235Z" fill="#FFCF52"/>
</g>
<mask id="mask4_1522_14412" style="mask-type:luminance" maskUnits="userSpaceOnUse" x="114" y="27" width="65" height="65">
<path d="M170.198 91.0756H121.883C117.534 91.0756 114.003 87.55 114.003 83.1954V34.8803C114.003 30.5309 117.529 27 121.883 27H170.198C174.548 27 178.079 30.5257 178.079 34.8803V83.1954C178.073 87.5447 174.548 91.0756 170.198 91.0756Z" fill="white"/>
</mask>
<g mask="url(#mask4_1522_14412)">
<path d="M168.458 43.6834C168.269 43.6834 168.09 43.5679 168.017 43.3791C168.006 43.3528 166.957 40.6561 164.323 38.0486C160.808 34.5702 156.28 32.8808 150.871 33.0277C150.373 33.0749 137.11 34.4495 130.84 41.9258C130.672 42.1252 130.378 42.1514 130.179 41.9835C129.98 41.8156 129.954 41.5218 130.121 41.3224C133.584 37.1934 139.03 34.9007 142.991 33.7045C147.257 32.4191 150.661 32.0991 150.808 32.0886C150.819 32.0886 150.829 32.0886 150.84 32.0886C157.938 31.8892 162.471 34.8745 165.026 37.4085C167.791 40.1577 168.867 42.9279 168.909 43.0433C169.003 43.2846 168.877 43.5574 168.636 43.6519C168.573 43.6781 168.515 43.6834 168.458 43.6834Z" fill="#0D0D0D"/>
<path d="M102.939 81.9347C103.243 81.9032 103.401 82.2338 103.201 82.4856C101.124 85.1508 98.6369 89.1591 98.4742 93.7184C97.9391 108.786 123.191 119.951 144.381 119.888C159.837 119.841 174.528 113.781 179.045 111.919C185.021 109.453 186.679 108.136 195.22 103.949C211.883 95.775 226.489 87.9944 229.721 89.5789C232.738 91.0584 298.602 100.932 319.478 113.23C336.493 123.24 344.578 139.116 345.291 150.092C345.511 153.502 344.042 157.768 340.097 158.177C332.007 159.011 317.731 159.562 299.604 159.903C301.561 156.902 303.125 153.633 304.2 150.197C304.305 149.851 304.41 149.51 304.51 149.158C304.657 148.639 304.793 148.109 304.919 147.584C305.003 147.233 305.082 146.876 305.15 146.519C305.224 146.162 305.292 145.806 305.355 145.449C305.449 144.909 305.528 144.368 305.601 143.823L305.622 143.649C305.633 143.555 305.643 143.466 305.654 143.371C305.669 143.224 305.69 143.072 305.701 142.925C305.717 142.789 305.727 142.653 305.743 142.516C305.748 142.469 305.753 142.432 305.748 142.374C305.738 142.264 305.769 142.149 305.785 142.039C305.785 142.033 305.785 142.033 305.785 142.028C305.795 141.881 305.806 141.734 305.816 141.593C305.827 141.446 305.837 141.299 305.843 141.152C305.848 141.016 305.858 140.884 305.864 140.753C305.874 140.486 305.879 140.223 305.884 139.961C305.884 139.961 305.884 139.961 305.884 139.956C305.89 139.83 305.89 139.704 305.89 139.578C305.89 139.326 305.89 139.08 305.884 138.833C305.884 138.833 305.884 138.833 305.884 138.828C305.884 138.712 305.879 138.592 305.879 138.476C305.874 138.24 305.864 138.009 305.853 137.779C305.853 137.779 305.853 137.779 305.853 137.773C305.843 137.553 305.832 137.333 305.816 137.112C304.893 123.209 295.36 112.328 281.808 109.736H281.803C281.467 109.673 281.126 109.61 280.785 109.558C280.785 109.558 280.785 109.558 280.78 109.558C280.539 109.516 280.297 109.484 280.051 109.453C279.804 109.421 279.563 109.39 279.311 109.358C278.923 109.311 278.529 109.274 278.136 109.248C277.254 109.18 276.362 109.143 275.455 109.143C256.363 109.143 238.855 124.673 236.342 143.828C235.555 149.825 236.337 155.465 238.367 160.386C177.167 160.412 108.506 159.494 85.8669 159.163C86.507 158.151 87.0998 157.112 87.6507 156.047C87.7871 155.785 87.9183 155.517 88.0494 155.249C88.2436 154.856 88.4272 154.457 88.6056 154.058C88.7052 153.838 88.7997 153.618 88.8941 153.397C89.403 152.196 89.8542 150.968 90.2425 149.714C90.3107 149.494 90.3789 149.268 90.4418 149.043C90.7042 148.146 90.9298 147.233 91.1239 146.315C91.1816 146.026 91.2393 145.738 91.2918 145.444C91.3915 144.898 91.4806 144.352 91.5541 143.807C91.6013 143.455 91.6485 143.104 91.68 142.757C91.6905 142.658 91.701 142.563 91.7115 142.464C91.7272 142.322 91.743 142.18 91.7535 142.039C91.7797 141.75 91.8007 141.467 91.8164 141.184C91.8269 141.021 91.8374 140.858 91.8427 140.696C91.8636 140.307 91.8741 139.914 91.8794 139.526C91.8846 139.164 91.8846 138.802 91.8794 138.44C91.8741 137.978 91.8532 137.521 91.8269 137.065C91.8164 136.86 91.8007 136.651 91.7849 136.446C90.8143 123.728 82.5668 113.645 70.5891 110.318C70.3949 110.266 70.2008 110.213 70.0067 110.161C70.0067 110.161 70.0067 110.161 70.0014 110.161C69.5974 110.056 69.1935 109.962 68.7843 109.872C68.459 109.799 68.1284 109.736 67.7927 109.673C67.6825 109.652 67.5671 109.631 67.4569 109.615C67.2208 109.573 66.99 109.537 66.7539 109.505C66.628 109.484 66.502 109.468 66.3708 109.453C65.9931 109.4 65.6154 109.353 65.2324 109.316C65.1064 109.301 64.9753 109.29 64.8494 109.28C63.8001 109.185 62.735 109.138 61.649 109.143C42.3733 109.206 24.745 124.898 22.232 144.232C21.6653 148.576 21.9277 152.731 22.893 156.556C0.375004 156.556 -13.9532 154.394 -23.0612 151.593C-26.7547 150.454 -29.5091 147.637 -30.4377 143.885C-32.4734 135.654 -27.7515 124.143 -5.4906 111.614C20.8521 96.7666 75.4788 86.0637 75.4788 86.0637H75.484C80.4945 85.1036 85.7147 84.2169 91.1344 83.4352C95.1952 82.8424 99.1248 82.3492 102.939 81.9347Z" fill="#2E29FF"/>
<path d="M145.36 64.5162C142.343 64.5162 139.332 64.2591 138.744 63.278C138.592 63.1731 138.602 63.0367 138.613 62.979C138.66 62.7796 138.723 62.5068 143.434 62.533C144.211 62.554 151.01 62.7534 152.269 63.7554L152.395 63.8551L152.348 64.0073C152.29 64.1909 152.29 64.1909 150.643 64.3116C149.342 64.4008 147.348 64.5162 145.36 64.5162ZM139.227 63.1416C139.578 63.4984 140.885 64.065 145.68 64.0388C147.868 64.0283 150.055 63.8919 151.22 63.7974C149.363 63.2728 145.16 63.0472 143.429 63.0052C141.745 62.9895 139.898 63.0419 139.227 63.1416Z" fill="#0D0D0D"/>
<path d="M152.337 61.998C152.327 61.998 152.316 61.998 152.306 61.998L140.212 60.7966C140.039 60.7808 139.913 60.6234 139.929 60.4555C139.945 60.2824 140.102 60.1565 140.27 60.1722L152.363 61.3737C152.536 61.3894 152.662 61.5468 152.647 61.7147C152.631 61.8773 152.494 61.998 152.337 61.998Z" fill="#0D0D0D"/>
<path d="M157.407 61.6205C157.239 61.6205 157.102 61.4894 157.092 61.3215C157.087 61.1483 157.218 61.0014 157.391 60.9962L167.27 60.6027C167.443 60.5974 167.59 60.7286 167.595 60.9017C167.601 61.0749 167.47 61.2218 167.296 61.227L157.417 61.6205C157.417 61.6205 157.412 61.6205 157.407 61.6205Z" fill="#0D0D0D"/>
<path d="M162.683 64.3548C159.645 64.3548 156.655 64.0295 156.602 64.019C156.45 63.9876 156.408 63.8879 156.398 63.8302L156.366 63.678L156.492 63.5888C157.898 62.5763 164.456 62.3821 164.734 62.3716C168.921 62.3402 168.979 62.613 169.026 62.8071C169.042 62.8701 169.047 63.0117 168.869 63.1271C168.129 64.0925 165.385 64.3548 162.683 64.3548ZM157.494 63.6518C159.96 63.8826 166.996 64.2237 168.381 62.9645C167.746 62.8753 166.172 62.8281 164.74 62.8386C163.166 62.8858 159.288 63.1166 157.494 63.6518Z" fill="#0D0D0D"/>
<path d="M160.117 74.4748C160.043 74.4748 159.97 74.4591 159.896 74.4328L152.672 71.4843C152.472 71.4004 152.373 71.1748 152.457 70.9754C152.541 70.776 152.766 70.6763 152.966 70.7603L159.791 73.5462L155.059 63.1371C154.97 62.9377 155.059 62.7069 155.253 62.6177C155.452 62.5285 155.683 62.6177 155.772 62.8118L160.683 73.6144C160.783 73.8347 160.736 74.0971 160.557 74.2807C160.442 74.4066 160.279 74.4748 160.117 74.4748Z" fill="#0D0D0D"/>
<path d="M152.928 75.6502C151.816 75.6502 150.646 75.4981 149.985 74.9524C149.848 74.8422 149.833 74.6429 149.943 74.5117C150.053 74.3805 150.252 74.3596 150.384 74.4697C150.887 74.8842 151.895 75.0259 153.002 75.0259C148.526 74.1077 146.548 72.497 146.454 72.4131C146.323 72.3029 146.302 72.1036 146.417 71.9724C146.527 71.8412 146.727 71.8202 146.858 71.9304C146.884 71.9514 149.502 74.0762 155.467 74.7793C155.63 74.8003 155.751 74.9314 155.756 75.0993C155.761 75.262 155.641 75.4089 155.478 75.4351C155.006 75.5085 153.993 75.6502 152.928 75.6502Z" fill="#0D0D0D"/>
<path d="M150.962 80.1623C150.07 80.1623 148.979 80.0574 147.683 79.8527L147.646 79.8475C145.61 79.5222 143.863 79.0658 143.79 79.05C143.538 78.9818 143.391 78.7247 143.454 78.4782C143.522 78.2263 143.779 78.0794 144.026 78.1424C144.042 78.1476 145.783 78.5988 147.756 78.9136L147.798 78.9189C151.586 79.5275 152.683 79.0605 152.982 78.8349C153.937 78.1004 155.652 76.5632 157.352 74.643C157.525 74.4488 157.819 74.4331 158.013 74.601C158.207 74.7741 158.223 75.0679 158.055 75.262C156.313 77.2295 154.54 78.8139 153.554 79.5747C153.045 79.9682 152.189 80.1623 150.962 80.1623Z" fill="#0D0D0D"/>
<path d="M160.262 71.2545C160.157 71.2545 160.046 71.2178 159.957 71.1443C159.758 70.9765 159.737 70.6774 159.9 70.4833C161.5 68.5945 162.607 66.7688 163.2 65.0636C163.284 64.8171 163.551 64.6859 163.798 64.7751C164.044 64.859 164.175 65.1266 164.086 65.3732C163.457 67.1885 162.292 69.114 160.618 71.0919C160.529 71.1968 160.398 71.2545 160.262 71.2545Z" fill="#0D0D0D"/>
<path d="M152.794 61.0765C152.778 61.0765 152.767 61.0765 152.752 61.0765C152.557 61.0765 152.374 60.9663 152.279 60.7984L149.562 56.0975C149.352 56.4176 149.105 56.8058 148.869 57.1678C146.54 60.7722 146.534 60.7722 146.151 60.7879C145.973 60.7984 145.8 60.7145 145.69 60.5728C145.664 60.5413 145.648 60.5098 145.627 60.4731L143.707 56.3756C142.762 56.9789 141.792 57.6872 140.852 58.3745C139.719 59.2035 138.544 60.0639 137.4 60.7512C137.206 60.8719 136.954 60.8509 136.776 60.7092C136.598 60.5676 136.524 60.3262 136.598 60.1111L138.072 55.5624C138.166 55.2738 138.476 55.1164 138.764 55.2109C139.053 55.3053 139.21 55.6149 139.116 55.9034L138.114 58.9884C138.812 58.5109 139.515 57.9968 140.207 57.4931C141.34 56.6642 142.516 55.809 143.659 55.1164C143.791 55.0377 143.953 55.0167 144.1 55.0587C144.247 55.1059 144.373 55.2109 144.436 55.3525L146.235 59.1877C146.718 58.4742 147.447 57.3462 147.946 56.575C148.266 56.0818 148.56 55.6306 148.775 55.3001C149.21 54.6338 149.294 54.5183 149.609 54.5236C149.798 54.5288 149.971 54.6285 150.071 54.7912L152.804 59.5235C153.455 58.5319 154.693 56.533 155.81 54.702C155.915 54.5236 156.115 54.4239 156.324 54.4396C156.671 54.4659 156.776 54.7282 156.891 55.0063C156.949 55.1532 157.033 55.3578 157.127 55.6044C157.316 56.0923 157.563 56.7429 157.804 57.3934C158.014 57.9496 158.218 58.5057 158.386 58.9621C158.99 57.9128 159.971 56.1185 160.695 54.7754C160.763 54.6442 160.889 54.5393 161.041 54.5026C161.429 54.4029 161.623 54.6915 161.749 54.8856C161.818 54.9905 161.917 55.1374 162.033 55.321C162.269 55.6831 162.584 56.1815 162.925 56.7114C163.344 57.3672 163.885 58.2119 164.304 58.8572L165.28 54.8121C165.327 54.618 165.474 54.4659 165.668 54.4134C166.01 54.319 166.009 54.319 168.281 56.4595C169.005 57.1416 169.761 57.8604 170.427 58.5004C170.139 56.9055 169.687 54.5288 169.304 53.0808C169.226 52.787 169.404 52.4879 169.698 52.4092C169.992 52.3305 170.291 52.5089 170.369 52.8027C170.994 55.1741 171.77 59.7858 171.802 59.98C171.838 60.216 171.723 60.4469 171.513 60.5571C171.303 60.6672 171.046 60.6305 170.873 60.4626C169.509 59.13 167.237 56.9789 166.13 55.9611L165.081 60.321C165.039 60.5046 164.902 60.6567 164.719 60.7197C164.31 60.8561 164.11 60.5623 163.879 60.2213C163.754 60.0377 163.58 59.7701 163.376 59.4605C162.977 58.8467 162.463 58.044 161.996 57.3095C161.734 56.9002 161.45 56.4595 161.225 56.1028C158.717 60.7564 158.649 60.7512 158.245 60.7407C158.04 60.7354 157.846 60.6095 157.757 60.4259C157.751 60.4102 157.746 60.3944 157.736 60.3839C157.269 59.1248 156.597 57.3147 156.172 56.213C155.858 56.7271 155.443 57.3987 155.029 58.0597C153.219 60.961 153.145 61.0765 152.794 61.0765Z" fill="#0D0D0D"/>
<path d="M123.595 80.7022C123.454 80.7022 123.312 80.655 123.191 80.5553C122.924 80.3349 122.892 79.9362 123.113 79.6739C123.254 79.506 126.581 75.5396 128.202 74.2962C128.176 73.887 127.924 72.9321 127.682 72.0087C127.011 69.4275 125.883 65.1043 125.878 60.0992C125.872 54.0499 127.504 48.5201 130.736 43.6723C130.93 43.3838 131.318 43.3051 131.607 43.4992C131.895 43.6933 131.974 44.0816 131.78 44.3701C124.592 55.1622 127.499 66.3268 128.894 71.6939C129.424 73.7191 129.639 74.5585 129.262 75.0727C129.167 75.2039 129.036 75.2983 128.894 75.3508C127.357 76.5732 124.11 80.4399 124.073 80.4818C123.952 80.6287 123.774 80.7022 123.595 80.7022Z" fill="#0D0D0D"/>
<path d="M119.556 80.335C119.482 80.335 119.414 80.3088 119.356 80.2616C119.225 80.1514 119.204 79.952 119.32 79.8209C119.461 79.653 123.191 75.7076 124.771 74.5219C124.797 74.5009 124.828 74.4852 124.855 74.4747C124.907 74.1546 124.613 73.0266 124.33 71.9301C123.664 69.3593 122.541 65.0624 122.541 60.0992C122.536 54.113 124.152 48.6409 127.347 43.8508C127.441 43.7091 127.635 43.6672 127.782 43.7616C127.924 43.856 127.966 44.0502 127.871 44.1971C120.605 55.1046 123.532 66.3636 124.939 71.7727C125.463 73.7926 125.631 74.5114 125.358 74.8839C125.29 74.9731 125.201 75.0361 125.091 75.0623C123.543 76.2637 119.834 80.1776 119.802 80.2196C119.734 80.2983 119.645 80.335 119.556 80.335Z" fill="#0D0D0D"/>
<path d="M141.775 53.1535C140.432 53.1535 139.289 53.0485 138.454 52.9751C137.982 52.9331 137.61 52.8964 137.368 52.8964H137.284C136.099 52.8964 133.822 51.7841 133.255 50.4095C133.008 49.8167 133.098 49.2186 133.502 48.6887C134.887 46.8734 140.7 45.5198 144.97 45.5198C145.574 45.5198 146.156 45.546 146.691 45.5985C148.239 45.7454 149.703 45.9552 150.878 46.1179C151.933 46.27 152.767 46.3855 153.145 46.3855C153.223 46.3855 153.249 46.3802 153.249 46.3802C153.758 46.2595 155.794 45.9395 155.878 45.929L155.909 45.9238H155.941C156.146 45.929 157.956 45.9605 158.59 46.1808C158.59 46.1808 158.606 46.1808 158.632 46.1808C158.884 46.1808 159.451 46.0392 160.112 45.8766C161.471 45.5408 163.517 45.0371 165.574 45.0371C165.815 45.0371 166.051 45.0424 166.277 45.0581C169.839 45.268 171.334 46.1651 171.602 48.2532C171.654 48.6729 171.528 49.0664 171.235 49.3917C170.442 50.2731 168.449 50.6666 164.781 50.6666C164.409 50.6666 164.036 50.6614 163.674 50.6561C160.957 50.6089 159.43 49.2815 158.517 48.4893C158.249 48.2532 158.013 48.0539 157.851 47.9752C157.289 47.7076 156.633 47.5659 155.957 47.5659C154.955 47.5659 154.031 47.9017 153.716 48.3791C152.62 50.037 150.584 51.2385 150.5 51.2909L150.485 51.3014L150.469 51.3067C147.924 52.5344 144.991 53.1535 141.775 53.1535Z" fill="#F2C553"/>
<path d="M165.532 45.4149C165.758 45.4149 165.989 45.4202 166.214 45.4359C169.735 45.6458 171.004 46.5062 171.24 48.3582C171.45 50.0109 168.04 50.3047 164.845 50.3047C164.472 50.3047 164.105 50.2994 163.748 50.2942C160.296 50.2365 158.88 48.0277 158.066 47.6447C157.426 47.3404 156.707 47.1987 156.025 47.1987C154.887 47.1987 153.843 47.5817 153.428 48.2061C152.379 49.7958 150.359 50.9762 150.359 50.9762C147.295 52.44 144.237 52.781 141.823 52.781C139.73 52.781 138.119 52.524 137.416 52.524C137.4 52.524 137.379 52.524 137.364 52.524C137.353 52.524 137.343 52.524 137.332 52.524C135.889 52.524 132.479 50.6037 133.785 48.8881C134.955 47.3561 140.396 45.8924 144.919 45.8924C145.501 45.8924 146.068 45.9186 146.608 45.9658C149.583 46.2491 152.258 46.758 153.098 46.758C153.182 46.758 153.245 46.7528 153.292 46.7423C153.796 46.6216 155.894 46.2963 155.894 46.2963C155.894 46.2963 157.836 46.3278 158.434 46.5324C158.47 46.5482 158.523 46.5534 158.586 46.5534C159.446 46.5587 162.463 45.4149 165.532 45.4149ZM165.632 44.6699C163.528 44.6699 161.45 45.1788 160.076 45.5199C159.509 45.6615 158.922 45.8032 158.706 45.8137C157.998 45.5986 156.34 45.5618 156.004 45.5566H155.942L155.879 45.5671C155.663 45.5986 153.796 45.8924 153.245 46.0183C153.234 46.0183 153.224 46.0183 153.203 46.0183C152.851 46.0183 151.986 45.8976 150.984 45.7559C149.803 45.5881 148.339 45.3834 146.781 45.2313C146.23 45.1788 145.643 45.1526 145.024 45.1526C140.648 45.1526 134.725 46.5272 133.219 48.4946C132.726 49.1399 132.616 49.885 132.909 50.5932C133.539 52.1252 135.968 53.2742 137.232 53.2742C137.248 53.2742 137.264 53.2742 137.28 53.2742H137.316C137.542 53.2742 137.925 53.3109 138.366 53.3477C139.205 53.4264 140.359 53.5313 141.723 53.5313C144.997 53.5313 147.988 52.8965 150.611 51.6425L150.643 51.6268L150.674 51.6058C150.763 51.5533 152.888 50.2942 154.037 48.5523C154.231 48.2533 154.96 47.9385 155.921 47.9385C156.545 47.9385 157.148 48.0697 157.668 48.3162C157.794 48.374 158.03 48.5838 158.26 48.7832C159.205 49.6069 160.784 50.9815 163.628 51.0287C164.026 51.0339 164.388 51.0392 164.74 51.0392C168.586 51.0392 170.611 50.6142 171.508 49.6174C171.886 49.1977 172.048 48.6888 171.98 48.1536C171.833 46.9941 171.314 46.1652 170.406 45.6143C169.53 45.0844 168.245 44.7906 166.361 44.6752C166.125 44.6752 165.878 44.6699 165.632 44.6699Z" fill="#0D0D0D"/>
<path d="M181.171 94.9111C181.145 94.9111 181.113 94.9059 181.087 94.9006C179.906 94.5911 152.142 87.2774 148.107 83.4737C147.976 83.3478 147.971 83.1432 148.092 83.0068C148.218 82.8756 148.422 82.8704 148.559 82.991C152.467 86.6793 180.966 94.1818 181.25 94.2605C181.423 94.3078 181.533 94.4861 181.486 94.6645C181.449 94.8167 181.318 94.9111 181.171 94.9111Z" fill="#0D0D0D"/>
<path d="M144.959 82.1349C144.865 82.1349 144.765 82.1034 144.681 82.0457C139.277 78.0794 133.27 70.8864 132.242 64.8162C132.2 64.5591 132.373 64.3178 132.625 64.2758C132.882 64.2338 133.123 64.407 133.165 64.6588C134.036 69.7951 139.109 76.7887 145.232 81.285C145.442 81.4371 145.484 81.7309 145.332 81.9408C145.242 82.0667 145.101 82.1349 144.959 82.1349Z" fill="#0D0D0D"/>
<path d="M145.459 89.6322C145.37 89.6322 145.281 89.606 145.207 89.5483C144.378 88.9134 143.948 88.032 143.917 86.9407C143.833 83.7876 147.206 79.816 148.119 79.0343L148.234 78.9346H148.387C148.612 78.9346 148.801 79.1182 148.801 79.3438C148.801 79.4802 148.738 79.5956 148.638 79.6743C147.794 80.4141 144.667 84.1181 144.74 86.9198C144.761 87.7644 145.081 88.4098 145.711 88.8977C145.889 89.0341 145.926 89.2964 145.784 89.4748C145.706 89.5745 145.585 89.6322 145.459 89.6322Z" fill="#0D0D0D"/>
<path d="M148.695 63.332C148.695 63.332 148.15 64.2764 147.63 64.2764C147.111 64.2764 146.822 63.332 146.822 63.332H148.695Z" fill="#0D0D0D"/>
<path d="M147.63 64.5863C146.901 64.5863 146.56 63.5422 146.523 63.4216L146.397 63.0176H149.241L148.968 63.4898C148.858 63.6734 148.291 64.5863 147.63 64.5863ZM147.3 63.6472C147.405 63.8255 147.525 63.9619 147.625 63.9619C147.735 63.9619 147.908 63.8308 148.071 63.6472H147.3Z" fill="#0D0D0D"/>
<path d="M166.102 62.8994C166.102 62.8994 165.556 63.8438 165.036 63.8438C164.517 63.8438 164.229 62.8994 164.229 62.8994H166.102Z" fill="#0D0D0D"/>
<path d="M165.037 64.1546C164.307 64.1546 163.966 63.1106 163.93 62.9899L163.804 62.5859H166.647L166.374 63.0581C166.264 63.2418 165.703 64.1546 165.037 64.1546ZM164.711 63.2103C164.816 63.3887 164.937 63.5251 165.042 63.5251C165.152 63.5251 165.325 63.3939 165.488 63.2103H164.711Z" fill="#0D0D0D"/>
</g>
<path d="M170.195 91.0756H121.88C117.531 91.0756 114 87.55 114 83.1954V34.8803C114 30.5309 117.526 27 121.88 27H170.195C174.545 27 178.076 30.5257 178.076 34.8803V83.1954C178.07 87.5447 174.545 91.0756 170.195 91.0756Z" stroke="#0D0D0D" stroke-miterlimit="10"/>
<mask id="mask5_1522_14412" style="mask-type:luminance" maskUnits="userSpaceOnUse" x="211" y="28" width="65" height="65">
<path d="M267.196 92.5478H218.881C214.532 92.5478 211.001 89.0222 211.001 84.6675V35.8803C211.001 31.5309 214.527 28 218.881 28H267.196C271.546 28 275.077 31.5256 275.077 35.8803V84.6675C275.077 89.0169 271.546 92.5478 267.196 92.5478Z" fill="white"/>
</mask>
<g mask="url(#mask5_1522_14412)">
<path d="M281.508 21.9141H209.368V95.9213H281.508V21.9141Z" fill="url(#paint2_linear_1522_14412)"/>
</g>
<mask id="mask6_1522_14412" style="mask-type:luminance" maskUnits="userSpaceOnUse" x="211" y="28" width="65" height="65">
<path d="M267.196 92.5478H218.881C214.532 92.5478 211.001 89.0222 211.001 84.6675V35.8803C211.001 31.5309 214.527 28 218.881 28H267.196C271.546 28 275.077 31.5256 275.077 35.8803V84.6675C275.077 89.0169 271.546 92.5478 267.196 92.5478Z" fill="white"/>
</mask>
<g mask="url(#mask6_1522_14412)">
<path d="M210.565 72.9561L221.016 70.0496L220.182 69.3938C220.182 69.3938 211.263 56.1148 222.816 41.8181C234.374 27.5214 256.677 36.5086 256.677 36.5086C256.677 36.5086 266.205 41.0049 265.397 53.6647L266.409 52.6417C266.409 52.6417 272.899 57.9511 272.695 64.4883L266.813 58.3604L265.596 62.8566L262.149 59.1788L260.124 64.2837L265.192 76.5395L254.647 74.0894L243.293 84.0997L247.957 87.9822L247.553 94.3147C247.553 94.3147 285.674 96.5602 286.278 96.5602C286.886 96.5602 297.227 31.6084 297.227 31.6084C297.227 31.6084 274.316 11.593 269.856 12.6108C265.397 13.6339 197.323 15.6065 197.323 15.6065C197.323 15.6065 209.285 55.2334 211.515 59.7244C213.745 64.2207 217.192 63.1976 217.192 63.1976L219.626 68.7117C219.626 68.7117 215.366 70.7526 211.919 70.144C208.477 69.5302 210.565 72.9561 210.565 72.9561Z" fill="#FFAA00"/>
</g>
<mask id="mask7_1522_14412" style="mask-type:luminance" maskUnits="userSpaceOnUse" x="211" y="28" width="65" height="65">
<path d="M267.196 92.5478H218.881C214.532 92.5478 211.001 89.0222 211.001 84.6675V35.8803C211.001 31.5309 214.527 28 218.881 28H267.196C271.546 28 275.077 31.5256 275.077 35.8803V84.6675C275.077 89.0169 271.546 92.5478 267.196 92.5478Z" fill="white"/>
</mask>
<g mask="url(#mask7_1522_14412)">
<mask id="mask8_1522_14412" style="mask-type:luminance" maskUnits="userSpaceOnUse" x="211" y="28" width="65" height="66">
<path d="M275.944 93.5651H211.061V72.9358V28.2041H275.944V93.5651Z" fill="white"/>
</mask>
<g mask="url(#mask8_1522_14412)">
<path d="M459.422 164.078C459.102 162.572 458.64 160.882 457.995 159.114C456.589 155.274 453.687 147.897 446.94 140.237C438.226 130.342 426.836 124.933 413.179 119.236C385.845 107.824 327.95 93.9369 317.158 92.6253C315.762 92.4574 314.282 92.7984 312.976 93.5906C307.703 96.8015 294.057 111.691 278.774 118.438C269.047 122.73 197.401 120.065 179.715 120.065C143.488 120.065 201.189 87.1479 193.891 87.9034C193.865 87.9087 193.844 87.9087 193.844 87.9087C192.474 88.0713 112.46 93.5854 40.593 128.464C25.3624 135.857 10.924 148.112 14.2188 160.274C18.138 174.723 61.9306 170.919 76.1119 170.961H77.051H77.4917C76.8674 167.262 76.7939 163.333 77.3501 159.256C80.3458 137.226 100.503 119.372 122.37 119.372C123.567 119.372 124.747 119.424 125.907 119.529C126.053 119.545 126.2 119.556 126.347 119.571C126.788 119.613 127.218 119.666 127.654 119.729C127.801 119.75 127.947 119.771 128.089 119.792C128.357 119.834 128.624 119.876 128.892 119.923C129.018 119.944 129.149 119.965 129.275 119.991C129.658 120.065 130.036 120.138 130.408 120.217C130.875 120.316 131.342 120.427 131.804 120.547C131.804 120.547 131.804 120.547 131.809 120.547C146.079 124.256 155.932 136.329 156.845 151.481C156.877 152.005 156.898 152.53 156.908 153.06C156.919 153.474 156.913 153.889 156.908 154.309C156.903 154.754 156.887 155.206 156.866 155.652C156.856 155.84 156.845 156.024 156.835 156.213C156.814 156.538 156.793 156.869 156.761 157.199C156.751 157.362 156.735 157.525 156.714 157.687C156.704 157.797 156.693 157.913 156.677 158.023C156.635 158.422 156.588 158.826 156.53 159.23C156.446 159.859 156.347 160.489 156.231 161.113C156.168 161.449 156.105 161.78 156.037 162.11C155.817 163.17 155.56 164.214 155.266 165.247C155.193 165.505 155.119 165.762 155.04 166.019C154.6 167.456 154.086 168.868 153.503 170.253C153.403 170.499 153.299 170.741 153.188 170.982L239.866 171.013C268.528 171.024 297.058 171.034 321.801 171.045C321.14 167.278 321.056 163.264 321.617 159.109C324.613 137.079 344.77 119.225 366.632 119.225C367.671 119.225 368.694 119.267 369.701 119.346C370.153 119.382 370.599 119.424 371.044 119.477C371.328 119.508 371.606 119.545 371.889 119.582C372.167 119.619 372.445 119.661 372.718 119.708H372.723C373.117 119.771 373.505 119.839 373.888 119.912C373.888 119.912 373.888 119.912 373.893 119.912C389.35 122.919 400.173 135.458 401.107 151.397C401.123 151.649 401.133 151.906 401.144 152.157V152.163C401.154 152.43 401.159 152.698 401.165 152.965C401.17 153.102 401.17 153.233 401.17 153.369C401.17 153.369 401.17 153.369 401.17 153.375C401.175 153.658 401.17 153.947 401.165 154.235C401.165 154.382 401.159 154.524 401.154 154.671C401.154 154.671 401.154 154.671 401.154 154.676C401.144 154.98 401.133 155.279 401.123 155.589C401.117 155.741 401.107 155.893 401.096 156.05C401.086 156.218 401.075 156.386 401.06 156.559C401.049 156.727 401.034 156.895 401.018 157.063C401.018 157.068 401.018 157.073 401.018 157.084C401.007 157.236 400.992 157.388 400.976 157.54C400.976 157.567 400.971 157.598 400.971 157.624C400.955 157.782 400.939 157.939 400.918 158.091C400.902 158.264 400.881 158.432 400.855 158.605C400.834 158.779 400.813 158.946 400.787 159.12C400.703 159.744 400.603 160.368 400.493 160.987C400.42 161.402 400.336 161.811 400.247 162.22C400.163 162.629 400.068 163.039 399.968 163.443C399.822 164.051 399.659 164.655 399.486 165.253C399.37 165.651 399.25 166.05 399.124 166.444C398.615 168.028 398.022 169.576 397.345 171.082C408.258 170.604 443.016 170.41 454.181 170.347C457.413 170.326 460.072 167.126 459.422 164.078Z" fill="#F9AC12"/>
<path d="M61.8426 172.384C44.0727 172.384 24.0888 170.679 21.3396 160.537C17.8244 147.568 32.9291 135.002 48.2384 127.573C114.339 95.4909 181.914 88.1143 194.789 86.96C195.004 86.9391 195.135 86.9286 195.183 86.9233L195.298 86.9181C196.321 86.9181 201.426 86.9181 201.919 86.9128C202.948 86.8184 203.336 87.2801 203.483 87.6841C203.834 88.6599 202.927 89.4574 200.917 90.9159C199.427 91.9967 197.323 93.4028 194.884 95.0239C189.774 98.4289 183.415 102.668 178.473 106.755C171.306 112.684 170.776 115.354 171.096 116.419C171.395 117.411 173.1 119.069 181.174 119.069C184.957 119.069 191.384 119.189 199.527 119.341C227.302 119.856 279.001 120.821 286.451 117.531C297.149 112.81 307.028 105.171 313.56 100.118C316.377 97.941 318.602 96.2201 320.191 95.2495C321.687 94.3419 323.397 93.9536 325.008 94.1478C330.149 94.7721 347.074 97.836 367.085 102.432C383.784 106.267 406.806 112.133 421.633 118.324C434.948 123.885 446.711 129.32 455.761 139.588C462.965 147.757 465.897 155.768 467.004 158.78C467.608 160.416 468.101 162.132 468.473 163.874C468.841 165.589 468.363 167.421 467.172 168.9C465.929 170.442 464.145 171.334 462.277 171.345L461.538 171.35C449.124 171.424 416.15 171.618 405.484 172.079H405.442H403.905L404.534 170.673C405.201 169.194 405.783 167.667 406.276 166.14C406.391 165.773 406.507 165.401 406.617 165.028L406.633 164.97C406.801 164.383 406.958 163.79 407.105 163.202C407.21 162.772 407.299 162.384 407.373 162.011C407.456 161.618 407.535 161.224 407.614 160.805C407.719 160.217 407.819 159.603 407.902 158.984C407.923 158.816 407.944 158.648 407.965 158.48C407.986 158.318 408.007 158.15 408.023 157.987C408.039 157.83 408.055 157.683 408.07 157.536C408.07 157.515 408.076 157.499 408.076 157.478L408.081 157.442C408.091 157.331 408.102 157.227 408.112 157.116L408.118 157.053C408.118 157.038 408.118 157.027 408.123 157.011L408.139 156.849C408.149 156.728 408.16 156.613 408.165 156.492C408.181 156.319 408.191 156.156 408.196 155.994C408.207 155.836 408.217 155.689 408.222 155.542C408.238 155.243 408.249 154.95 408.254 154.65L408.259 154.572C408.264 154.456 408.264 154.341 408.264 154.226C408.27 153.895 408.27 153.638 408.27 153.397V153.307V153.302C408.27 153.202 408.27 153.098 408.264 152.998C408.259 152.736 408.254 152.473 408.243 152.211V152.137C408.233 151.912 408.223 151.691 408.212 151.466L408.207 151.408C407.283 136.083 396.712 123.843 381.885 120.921L381.796 120.905C381.512 120.852 381.245 120.8 380.988 120.758L380.657 120.706C380.39 120.664 380.117 120.622 379.849 120.585C379.577 120.548 379.304 120.511 379.031 120.48C378.616 120.433 378.176 120.391 377.725 120.354C376.738 120.275 375.731 120.239 374.729 120.239C353.381 120.239 333.628 137.746 330.7 159.262C330.16 163.234 330.217 167.148 330.873 170.894L331.078 172.064L247.957 172.032C247.406 172.032 246.96 171.586 246.96 171.035C246.96 170.484 247.406 170.039 247.957 170.039L328.727 170.07C328.213 166.481 328.213 162.762 328.727 158.995C330.207 148.103 335.805 137.872 344.488 130.181C353.171 122.484 363.916 118.25 374.734 118.25C375.783 118.25 376.843 118.292 377.882 118.371C378.359 118.408 378.826 118.455 379.262 118.502C379.55 118.534 379.839 118.57 380.122 118.612C380.243 118.628 380.363 118.644 380.484 118.665L380.636 118.518L381.135 118.764C381.444 118.817 381.759 118.869 382.09 118.932L382.189 118.948C389.991 120.464 396.775 124.347 401.806 130.165C406.832 135.978 409.733 143.308 410.206 151.35L410.211 151.44V151.445C410.221 151.676 410.232 151.907 410.242 152.132L410.248 152.216V152.221C410.258 152.468 410.263 152.709 410.269 152.956C410.274 153.098 410.274 153.234 410.274 153.376V153.439C410.274 153.68 410.274 153.932 410.269 154.257C410.269 154.409 410.263 154.556 410.258 154.703V154.755C410.248 155.049 410.237 155.343 410.227 155.637C410.221 155.794 410.211 155.952 410.2 156.109C410.19 156.277 410.179 156.455 410.164 156.634C410.153 156.786 410.143 156.948 410.127 157.106C410.127 157.137 410.122 157.169 410.116 157.2C410.106 157.337 410.09 157.478 410.08 157.615C410.08 157.636 410.074 157.652 410.074 157.672L410.069 157.709C410.054 157.872 410.038 158.029 410.017 158.192C410.001 158.36 409.975 158.543 409.954 158.722C409.933 158.895 409.912 159.073 409.886 159.246C409.796 159.897 409.697 160.542 409.581 161.156C409.503 161.602 409.419 162.011 409.329 162.421C409.251 162.809 409.156 163.218 409.046 163.669C408.905 164.257 408.742 164.855 408.574 165.443L408.553 165.521C408.438 165.925 408.312 166.334 408.181 166.738C407.829 167.84 407.43 168.937 406.99 170.018C419.046 169.593 449.675 169.414 461.543 169.346L462.283 169.341C463.531 169.335 464.785 168.695 465.635 167.636C466.448 166.623 466.779 165.395 466.537 164.273C466.186 162.62 465.714 160.994 465.147 159.446C464.077 156.529 461.233 148.774 454.282 140.884C445.515 130.931 433.967 125.601 420.882 120.139C394.34 109.058 336.424 97.5213 324.787 96.1047C323.617 95.963 322.358 96.2569 321.246 96.9337C319.751 97.8413 317.563 99.5359 314.798 101.677C308.187 106.787 298.193 114.515 287.275 119.336C283.781 120.879 272.06 121.697 251.446 121.844C234.253 121.965 214.175 121.592 199.506 121.319C191.374 121.167 184.952 121.047 181.19 121.047C173.856 121.047 170.047 119.756 169.207 116.986C168.357 114.174 170.902 110.433 177.219 105.207C182.24 101.052 188.646 96.7868 193.792 93.3555C196.169 91.7711 198.756 90.045 200.303 88.8908C199.317 88.8908 197.774 88.8908 195.361 88.8908C195.282 88.896 195.156 88.9117 194.978 88.9275C182.166 90.0765 114.911 97.4163 49.1199 129.352C40.9563 133.313 33.9102 138.25 29.2828 143.25C23.8684 149.1 21.8433 154.734 23.2756 160.007C24.6029 164.897 31.4811 168.097 43.7264 169.509C54.4031 170.742 66.937 170.385 76.0869 170.122C79.303 170.028 82.0837 169.955 84.2138 169.96H85.1529C85.7038 169.96 86.1497 170.406 86.1497 170.957C86.1497 171.508 85.7038 171.953 85.1529 171.953H84.2138C82.1099 171.943 79.345 172.027 76.1499 172.116C71.853 172.242 66.9423 172.384 61.8426 172.384Z" fill="#0D0D0D"/>
<path d="M258.786 54.867C258.786 54.867 254.872 31.9922 223.881 43.1568L220.072 45.3341C220.072 45.3341 228.556 30.7015 244.253 32.5326C262.16 34.6259 265.848 46.6929 265.759 51.3256C265.67 55.953 265.313 54.5941 265.313 54.5941L258.786 54.867Z" fill="#F9AC12"/>
<path d="M255.791 64.1112C255.734 64.1112 255.671 64.0955 255.618 64.064C254.543 63.4029 244.469 60.5541 242.056 61.2046C241.878 61.2518 241.699 61.1469 241.652 60.9685C241.605 60.7902 241.71 60.6118 241.888 60.5645C244.501 59.8615 254.842 62.8101 255.97 63.5026C256.127 63.597 256.174 63.8016 256.08 63.959C256.012 64.0535 255.901 64.1112 255.791 64.1112Z" fill="#0D0D0D"/>
<path d="M257.469 67.3061C257.463 67.3061 257.458 67.3061 257.458 67.3061C243.628 66.7553 240.349 62.8466 240.218 62.684C240.145 62.5895 240.129 62.4689 240.181 62.3587C240.234 62.2485 240.339 62.1855 240.459 62.1855C248.549 62.1855 257.521 66.6818 257.61 66.729C257.736 66.792 257.804 66.9389 257.768 67.0805C257.731 67.2117 257.61 67.3061 257.469 67.3061ZM241.278 62.8151C242.626 63.8277 246.572 66.0365 255.91 66.6189C253.214 65.4279 247.096 63.0302 241.278 62.8151Z" fill="#0D0D0D"/>
<path d="M250.96 64.5361C250.593 65.4595 251.007 66.4039 251.889 66.6452C252.77 66.8918 253.783 66.3409 254.15 65.4228" fill="#0D0D0D"/>
<path d="M249.9 78.2342C249.874 78.2342 249.847 78.229 249.821 78.2237C247.539 77.72 244.606 76.8544 243.604 75.5847C243.478 75.4273 243.504 75.2017 243.662 75.0758C243.819 74.9499 244.045 74.9761 244.171 75.1335C244.842 75.9834 246.957 76.8491 249.979 77.5154C250.173 77.5574 250.299 77.7515 250.251 77.9456C250.215 78.1188 250.063 78.2342 249.9 78.2342Z" fill="#0D0D0D"/>
<path d="M248.893 77.5483C248.825 77.5483 248.757 77.5221 248.704 77.4644C247.812 76.4466 246.259 74.7939 245.808 74.6051C245.698 74.7992 245.709 75.6176 245.829 76.3941C245.85 76.5305 245.756 76.6564 245.625 76.6774C245.488 76.6984 245.362 76.604 245.341 76.4728C245.252 75.9062 245.089 74.5526 245.509 74.2011C245.63 74.0962 245.787 74.0699 245.95 74.1276C246.621 74.3532 248.678 76.6774 249.082 77.1391C249.171 77.2441 249.161 77.4015 249.061 77.4906C249.009 77.5326 248.951 77.5483 248.893 77.5483Z" fill="#0D0D0D"/>
<path d="M272.663 64.5722C272.532 64.5722 272.401 64.5197 272.301 64.42L266.824 58.6908L265.88 62.6467C265.838 62.8251 265.701 62.9667 265.523 63.014C265.344 63.0612 265.156 63.0035 265.03 62.8671L262.023 59.5828L260.796 63.5071C260.727 63.7747 260.455 63.9321 260.187 63.8639C259.92 63.7957 259.762 63.5229 259.83 63.2553L261.284 58.439C261.331 58.2606 261.467 58.1242 261.646 58.0822C261.824 58.0403 262.008 58.0927 262.134 58.2292L265.124 61.4977L266.058 57.5628C266.1 57.3845 266.236 57.2428 266.409 57.1956C266.588 57.1484 266.771 57.2008 266.897 57.332L271.876 62.547C271.488 60.5429 270.502 57.2271 266.913 52.8462C266.74 52.6311 266.771 52.3216 266.981 52.1432C267.196 51.9701 267.506 52.0015 267.684 52.2114C272.128 57.6258 272.737 61.5135 273.036 63.3812C273.073 63.6121 273.104 63.8167 273.135 63.9688C273.183 64.1892 273.078 64.4095 272.884 64.5145C272.821 64.5564 272.742 64.5722 272.663 64.5722Z" fill="#0D0D0D"/>
<path d="M257.559 53.7123C252.879 53.7123 245.671 52.9568 235.508 49.9453C235.309 49.8876 235.193 49.6725 235.251 49.4731C235.309 49.2738 235.524 49.1583 235.723 49.216C255.477 55.0659 264.112 52.2433 264.196 52.217C264.396 52.1488 264.611 52.2538 264.679 52.4531C264.747 52.6525 264.642 52.8676 264.443 52.9358C264.275 52.9988 262.108 53.7123 257.559 53.7123Z" fill="#0D0D0D"/>
<path d="M213.178 59.9348C213 59.9348 212.858 59.7984 212.848 59.62C212.407 50.4858 215.749 43.9277 218.635 40.0348C221.762 35.8113 224.952 33.7809 225.083 33.697C229.296 30.8324 234.165 29.4421 239.537 29.5785C239.721 29.5837 239.868 29.7359 239.862 29.9195C239.857 30.1031 239.705 30.2553 239.521 30.2448C234.29 30.1136 229.553 31.462 225.445 34.2531C225.403 34.2794 222.202 36.3202 219.149 40.4545C216.337 44.2582 213.074 50.6642 213.509 59.5938C213.52 59.7774 213.378 59.9348 213.194 59.94C213.189 59.9348 213.184 59.9348 213.178 59.9348Z" fill="#0D0D0D"/>
<path d="M216.337 63.3659C214.684 63.3659 211.615 62.453 210.592 59.2998C210.471 58.9326 210.319 58.707 210.12 58.6125C209.742 58.4342 209.123 58.6808 208.462 58.9431C207.03 59.5097 205.073 60.2809 203.761 57.3376C202.418 54.3209 201.872 54.3419 200.414 54.3891C199.643 54.4153 198.682 54.4468 197.313 54.1163C195.388 53.6546 194.7 52.0859 194.034 50.5696C193.179 48.6232 192.444 46.9443 189.307 47.2958C183.237 47.9831 179.674 43.7649 179.522 43.5865C179.407 43.4449 179.428 43.235 179.564 43.1196C179.706 43.0042 179.916 43.0199 180.031 43.1616C180.068 43.2035 183.525 47.2801 189.228 46.6348C192.848 46.2255 193.798 48.3923 194.637 50.3021C195.267 51.7291 195.855 53.0827 197.465 53.4657C198.745 53.7753 199.658 53.7438 200.388 53.7175C202.135 53.6598 202.901 53.7648 204.364 57.0596C205.414 59.4205 206.778 58.8854 208.215 58.3187C209.013 58.004 209.763 57.7049 210.398 58.0092C210.77 58.1876 211.043 58.5391 211.222 59.09C212.192 62.0752 215.345 62.8098 216.636 62.6838C216.82 62.6681 216.982 62.7993 216.998 62.9829C217.014 63.1665 216.883 63.3292 216.699 63.3449C216.589 63.3606 216.468 63.3659 216.337 63.3659Z" fill="#0D0D0D"/>
<path d="M213.017 70.6737C212.23 70.6737 211.501 70.5741 210.903 70.3537C210.126 70.0651 209.601 69.5877 209.35 68.9424C209.229 68.6328 209.087 68.444 208.93 68.381C208.605 68.2498 207.996 68.5227 207.403 68.785C206.018 69.4041 203.925 70.3432 202.388 67.3474C200.934 64.5196 200.452 64.5615 199.024 64.677C198.279 64.7399 197.262 64.8239 195.85 64.5563C193.809 64.1786 192.986 62.5469 192.256 61.1146C191.328 59.2836 190.525 57.6991 187.503 58.187C181.354 59.1786 177.493 55.1126 177.33 54.9394C177.141 54.7401 177.157 54.4253 177.356 54.2364C177.556 54.0475 177.871 54.0633 178.059 54.2626C178.101 54.3099 181.737 58.1136 187.34 57.2059C191.076 56.6026 192.173 58.7589 193.138 60.6634C193.851 62.0695 194.471 63.2866 196.023 63.5752C197.304 63.8113 198.206 63.7378 198.935 63.6801C200.719 63.5332 201.574 63.6067 203.264 66.8858C204.371 69.0421 205.583 68.4964 206.989 67.8668C207.807 67.4996 208.578 67.1533 209.297 67.4524C209.722 67.6308 210.042 67.998 210.268 68.5751C210.415 68.9476 210.729 69.2257 211.238 69.4146C213.059 70.0914 216.621 69.3411 218.678 68.2446C218.919 68.1134 219.224 68.2079 219.349 68.4492C219.481 68.6906 219.386 68.9948 219.145 69.1208C217.508 70.0022 215.068 70.6737 213.017 70.6737Z" fill="#0D0D0D"/>
<path d="M263 101.844C259.191 101.844 249.617 98.4389 245.671 96.9804C245.33 96.8545 245.152 96.4715 245.278 96.1252C245.404 95.7842 245.787 95.6058 246.133 95.7317C249.155 96.8545 259.302 100.517 263 100.517C266.458 100.517 282.811 94.0371 291.541 90.3803C294.228 89.0424 301.048 85.6689 302.024 85.4276C302.113 85.4066 302.26 85.3541 302.423 85.2912C303.986 84.7141 307.653 83.3657 312.79 89.2313C312.811 89.2576 312.832 89.2838 312.848 89.31C312.89 89.3782 313.892 90.9889 313.01 93.7433C312.9 94.0948 312.522 94.2837 312.176 94.1735C311.824 94.0633 311.636 93.6856 311.746 93.3393C312.37 91.3981 311.861 90.2701 311.746 90.055C307.239 84.9344 304.296 86.0152 302.879 86.5346C302.675 86.6081 302.501 86.671 302.344 86.713C301.693 86.8756 296.783 89.2575 292.927 91.1725C292.869 91.2355 292.801 91.2827 292.722 91.3247L291.137 92.0644C291.027 92.1169 290.912 92.1379 290.796 92.1221C284.847 94.588 266.983 101.844 263 101.844Z" fill="#0D0D0D"/>
<path d="M212.374 85.2913C212.368 85.2913 212.368 85.2913 212.363 85.2913C211.329 85.2651 186.98 84.5515 179.467 80.795C176.262 79.1896 174.672 77.6419 173.618 76.6188C172.175 75.218 171.692 74.7458 169.116 75.9315C161.85 79.2788 155.648 78.8276 152.107 74.6933C151.997 74.5674 152.012 74.3733 152.138 74.2631C152.264 74.153 152.458 74.1687 152.569 74.2946C155.921 78.2085 161.86 78.602 168.864 75.3806C171.818 74.0218 172.516 74.6986 174.043 76.1833C175.129 77.2431 176.619 78.6912 179.74 80.2546C187.138 83.9534 212.127 84.6827 212.379 84.688C212.547 84.6932 212.678 84.8296 212.673 84.9975C212.673 85.1601 212.541 85.2913 212.374 85.2913Z" fill="#0D0D0D"/>
<path d="M206.274 74.011C204.265 74.011 202.282 73.628 200.645 72.542C198.903 71.3825 198.074 70.1495 197.345 69.0688C196.553 67.8988 195.871 66.8862 194.181 66.1097C191.453 64.8558 189.045 65.6113 186.5 66.4088C184.008 67.1905 181.432 67.9985 178.3 67.1328C178.132 67.0856 177.964 67.0384 177.796 66.9807C177.534 66.8967 177.392 66.6134 177.476 66.3511C177.56 66.0887 177.844 65.9471 178.106 66.031C178.258 66.0783 178.41 66.1255 178.562 66.1674C181.411 66.9544 183.846 66.1937 186.201 65.4539C188.814 64.6355 191.516 63.7855 194.596 65.1968C196.542 66.0887 197.334 67.264 198.169 68.5074C198.882 69.5672 199.617 70.6585 201.196 71.7078C205.241 74.3992 212.213 72.1642 214.837 71.3195L215.089 71.2408C215.587 71.0834 216.059 70.9103 216.516 70.7424C218.85 69.8872 220.965 69.0215 223.866 71.2933C224.081 71.4612 224.118 71.776 223.95 71.9911C223.782 72.2062 223.467 72.2482 223.252 72.075C220.791 70.1443 219.165 70.8316 216.862 71.6763C216.395 71.8494 215.912 72.0226 215.393 72.1904L215.141 72.2691C213.242 72.883 209.727 74.011 206.274 74.011Z" fill="#0D0D0D"/>
<path d="M244.024 97.4421C243.394 97.4421 242.67 97.2585 241.888 96.7286C241.238 96.2879 240.587 95.8524 239.942 95.417C237.98 94.1001 235.955 92.7413 233.998 91.309C232.203 89.9921 227.534 88.2502 222.387 86.9753C216.422 85.4958 212.896 85.3856 212.051 85.926L211.978 85.9732C211.831 86.0677 211.684 86.1674 211.511 86.2513C210.577 86.7183 207.219 88.4286 203.237 90.884C203.001 91.0256 202.697 90.9574 202.55 90.7213C202.408 90.4853 202.477 90.181 202.713 90.0341C206.726 87.5577 210.121 85.8316 211.065 85.3594C211.186 85.3017 211.306 85.223 211.432 85.1391L211.511 85.0918C213.368 83.8956 219.9 85.3384 222.623 86.01C226.684 87.0173 232.25 88.7959 234.585 90.5062C236.526 91.928 238.541 93.2816 240.498 94.5933C241.149 95.0287 241.799 95.4642 242.45 95.9049C243.315 96.4925 244.171 96.6027 244.999 96.2302C246.122 95.7318 246.836 94.4988 246.967 93.544C247.114 92.4527 247.208 91.608 247.287 90.863C247.355 90.2177 247.423 89.6038 247.518 88.9218C247.67 87.8043 247.145 87.159 245.188 86.0415C244.737 85.7844 244.27 85.5325 243.814 85.2912C242.277 84.4675 240.682 83.6176 239.501 82.3427C238.064 80.7897 235.734 78.5809 232.738 78.1559C232.466 78.1192 232.277 77.8674 232.313 77.5946C232.35 77.3218 232.602 77.1329 232.875 77.1696C236.301 77.6523 238.798 80.1234 240.23 81.6659C241.295 82.8149 242.749 83.5913 244.281 84.415C244.742 84.6616 245.215 84.9135 245.676 85.181C247.691 86.3353 248.74 87.2901 248.499 89.0582C248.41 89.7245 248.341 90.3279 248.273 90.9679C248.189 91.7182 248.1 92.5734 247.948 93.6751C247.749 95.1284 246.699 96.5555 245.398 97.1378C245.031 97.311 244.564 97.4421 244.024 97.4421Z" fill="#0D0D0D"/>
<path d="M265.935 55.5696C265.909 55.5696 265.878 55.5696 265.851 55.5643C265.489 55.5171 265.232 55.1866 265.274 54.8246C265.279 54.7826 265.699 51.2202 264.456 47.086C262.798 41.5876 259.131 37.7052 253.543 35.5541C253.533 35.5489 253.522 35.5489 253.512 35.5436C253.475 35.5279 249.87 33.9592 244.886 33.4083C240.327 32.9046 233.632 33.167 227.641 37.3012C227.337 37.5111 226.927 37.4324 226.718 37.1333C226.508 36.829 226.586 36.4198 226.885 36.2099C233.223 31.8344 240.275 31.5563 245.07 32.0967C250.133 32.6633 253.727 34.1953 254.026 34.3264C261.497 37.212 264.513 42.6789 265.731 46.7607C267.042 51.1625 266.602 54.8456 266.581 54.9977C266.549 55.323 266.266 55.5696 265.935 55.5696Z" fill="#0D0D0D"/>
<path d="M242.786 84.6405C242.624 84.6405 242.461 84.5618 242.367 84.4097C242.22 84.1788 242.283 83.8693 242.514 83.7224C246.748 80.9994 254.14 73.3395 254.213 73.2608C254.334 73.1349 254.518 73.0824 254.685 73.1244L264.575 75.4958L257.77 59.8822L257.613 59.5622L252.776 61.7657C252.566 61.8602 252.314 61.7972 252.172 61.6136C252.031 61.4299 252.036 61.1729 252.183 60.9945L253.736 59.1267L246.134 60.0449C245.892 60.0763 245.667 59.9242 245.599 59.6881C245.53 59.452 245.641 59.2054 245.861 59.1005L247.834 58.1561L240.2 58.8854C240.006 58.9011 239.817 58.8067 239.717 58.6336C239.623 58.4604 239.633 58.2506 239.754 58.0932L241.039 56.3671L234.869 59.9924L233.143 78.4444C233.128 78.6227 233.012 78.7802 232.85 78.8536C232.687 78.9271 232.493 78.9061 232.351 78.7959L218.967 68.7855C218.889 68.7226 218.826 68.6387 218.794 68.5442L216.905 62.9147C216.9 62.9042 216.9 62.8937 216.895 62.8832C215.08 56.0365 217.21 49.6987 219.313 45.5907C221.585 41.1574 224.245 38.3768 224.355 38.2561C224.544 38.0567 224.859 38.0515 225.058 38.2404C225.258 38.4292 225.263 38.744 225.074 38.9434C225.048 38.9696 222.388 41.7555 220.184 46.0629C218.165 50.0083 216.124 56.0733 217.85 62.6052L219.681 68.072L232.225 77.458L233.873 59.8035C233.852 59.7038 233.862 59.5989 233.904 59.4992C233.92 59.4153 233.951 59.3366 234.009 59.2684L238.4 53.8225C238.573 53.6074 238.883 53.5759 239.098 53.7438C239.313 53.9169 239.345 54.2265 239.177 54.4416L236.417 57.9095L242.65 54.2475C242.855 54.1268 243.117 54.1688 243.274 54.3472C243.432 54.5255 243.442 54.7879 243.301 54.9767L241.207 57.7784L250.515 56.8917C250.756 56.8707 250.976 57.0229 251.039 57.2537C251.102 57.4846 250.992 57.7312 250.777 57.8361L249.004 58.686L254.853 57.9777C255.053 57.9515 255.252 58.0564 255.352 58.2348C255.451 58.4132 255.425 58.6335 255.299 58.7909L254.334 59.9504L257.629 58.4499C257.875 58.3397 258.164 58.4394 258.279 58.6808L258.657 59.4415C258.662 59.4468 258.662 59.4573 258.668 59.4625L265.876 76.0047C265.95 76.1779 265.924 76.3773 265.803 76.5242C265.682 76.6711 265.488 76.734 265.304 76.6868L254.722 74.1475C253.484 75.4224 247.026 81.9858 243.043 84.5513C242.975 84.6143 242.881 84.6405 242.786 84.6405Z" fill="#0D0D0D"/>
</g>
</g>
<path d="M267.195 92.5478H218.88C214.531 92.5478 211 89.0222 211 84.6676V35.8803C211 31.5309 214.526 28 218.88 28H267.195C271.545 28 275.076 31.5256 275.076 35.8803V84.6676C275.076 89.0169 271.545 92.5478 267.195 92.5478Z" stroke="#0D0D0D" stroke-miterlimit="10"/>
<mask id="mask9_1522_14412" style="mask-type:luminance" maskUnits="userSpaceOnUse" x="308" y="27" width="65" height="65">
<path d="M364.195 91.0756H315.88C311.531 91.0756 308 87.55 308 83.1954V34.8803C308 30.5309 311.526 27 315.88 27H364.195C368.545 27 372.076 30.5257 372.076 34.8803V83.1954C372.076 87.55 368.545 91.0756 364.195 91.0756Z" fill="white"/>
</mask>
<g mask="url(#mask9_1522_14412)">
<path d="M373.052 26.1709H300.44V99.9106H373.052V26.1709Z" fill="url(#paint3_linear_1522_14412)"/>
</g>
<mask id="mask10_1522_14412" style="mask-type:luminance" maskUnits="userSpaceOnUse" x="308" y="27" width="65" height="65">
<path d="M364.195 91.0756H315.88C311.531 91.0756 308 87.55 308 83.1954V34.8803C308 30.5309 311.526 27 315.88 27H364.195C368.545 27 372.076 30.5257 372.076 34.8803V83.1954C372.076 87.55 368.545 91.0756 364.195 91.0756Z" fill="white"/>
</mask>
<g mask="url(#mask10_1522_14412)">
<path d="M359.82 93.9043L374.028 83.7891L373.939 94.2663L359.82 93.9043Z" fill="#FFDB8C"/>
</g>
<mask id="mask11_1522_14412" style="mask-type:luminance" maskUnits="userSpaceOnUse" x="308" y="27" width="65" height="65">
<path d="M364.195 91.0756H315.88C311.531 91.0756 308 87.55 308 83.1954V34.8803C308 30.5309 311.526 27 315.88 27H364.195C368.545 27 372.076 30.5257 372.076 34.8803V83.1954C372.076 87.55 368.545 91.0756 364.195 91.0756Z" fill="white"/>
</mask>
<g mask="url(#mask11_1522_14412)">
<path d="M303.595 75.6078L310.489 71.2532C310.489 71.2532 312.304 69.0759 312.304 62.5493C312.304 56.0226 312.85 36.6105 332.98 32.0775C353.111 27.5445 362.004 45.4981 362.004 45.4981L361.458 50.7603L356.926 54.3857L369.438 69.9836L354.748 67.8063L340.598 76.6938H337.697L332.435 74.3382L329.895 79.2332L348.012 83.656L371.957 72.7747L374.465 15.7871H306.627C306.627 15.7871 303.773 75.4242 303.595 75.6078Z" fill="#FFDB8C"/>
</g>
<mask id="mask12_1522_14412" style="mask-type:luminance" maskUnits="userSpaceOnUse" x="308" y="27" width="65" height="65">
<path d="M364.195 91.0756H315.88C311.531 91.0756 308 87.55 308 83.1954V34.8803C308 30.5309 311.526 27 315.88 27H364.195C368.545 27 372.076 30.5257 372.076 34.8803V83.1954C372.076 87.55 368.545 91.0756 364.195 91.0756Z" fill="white"/>
</mask>
<g mask="url(#mask12_1522_14412)">
<path d="M312.373 66.5737C313.428 63.0848 310.836 58.3052 314.068 49.617C316.093 44.1763 318.79 40.0211 322.53 37.125C328.816 32.251 335.746 32.1251 338.868 32.0936C353.5 31.9415 361.229 41.3747 362.194 45.787C363.159 50.1993 362.099 51.2854 362.099 51.2854C362.099 51.2854 360.893 50.2465 355.993 49.1133H355.819C351.47 48.1112 343.616 46.3536 331.701 45.8762L312.373 66.5737Z" fill="#F4B311"/>
</g>
<mask id="mask13_1522_14412" style="mask-type:luminance" maskUnits="userSpaceOnUse" x="308" y="27" width="65" height="65">
<path d="M364.195 91.0756H315.88C311.531 91.0756 308 87.55 308 83.1954V34.8803C308 30.5309 311.526 27 315.88 27H364.195C368.545 27 372.076 30.5257 372.076 34.8803V83.1954C372.076 87.55 368.545 91.0756 364.195 91.0756Z" fill="white"/>
</mask>
<g mask="url(#mask13_1522_14412)">
<path d="M348.295 88.165C348.175 88.165 347.687 88.0706 343.773 87.3256C337.829 86.1923 326.759 84.0832 319.943 82.8555C319.718 82.8135 319.566 82.5984 319.608 82.3728C319.65 82.1472 319.865 82.0003 320.095 82.0423C326.916 83.27 337.986 85.3791 343.936 86.5123C346.365 86.974 348.128 87.3098 348.311 87.3413C348.49 87.3623 348.642 87.4934 348.678 87.6771C348.72 87.9027 348.568 88.1178 348.343 88.1597C348.327 88.165 348.316 88.165 348.295 88.165Z" fill="#0D0D0D"/>
</g>
<mask id="mask14_1522_14412" style="mask-type:luminance" maskUnits="userSpaceOnUse" x="308" y="27" width="65" height="65">
<path d="M364.195 91.0756H315.88C311.531 91.0756 308 87.55 308 83.1954V34.8803C308 30.5309 311.526 27 315.88 27H364.195C368.545 27 372.076 30.5257 372.076 34.8803V83.1954C372.076 87.55 368.545 91.0756 364.195 91.0756Z" fill="white"/>
</mask>
<g mask="url(#mask14_1522_14412)">
<path d="M350.362 87.9913C350.147 87.9913 349.937 87.8706 349.838 87.666C349.696 87.3774 349.811 87.0312 350.105 86.8895L367.141 78.5738C367.235 78.5213 367.35 78.4636 367.471 78.4059C367.571 78.3534 367.681 78.301 367.77 78.259L371.705 75.1059C371.957 74.9065 372.324 74.9432 372.529 75.1898C372.733 75.4364 372.691 75.8036 372.44 76.003L368.458 79.1929C368.416 79.2244 368.374 79.2558 368.326 79.2768C368.237 79.3188 368.116 79.3765 367.996 79.4342C367.875 79.4919 367.765 79.5496 367.681 79.5969C367.676 79.6021 367.665 79.6021 367.66 79.6074L350.614 87.9283C350.541 87.9703 350.451 87.9913 350.362 87.9913Z" fill="#0D0D0D"/>
</g>
<mask id="mask15_1522_14412" style="mask-type:luminance" maskUnits="userSpaceOnUse" x="308" y="27" width="65" height="65">
<path d="M364.195 91.0756H315.88C311.531 91.0756 308 87.55 308 83.1954V34.8803C308 30.5309 311.526 27 315.88 27H364.195C368.545 27 372.076 30.5257 372.076 34.8803V83.1954C372.076 87.55 368.545 91.0756 364.195 91.0756Z" fill="white"/>
</mask>
<g mask="url(#mask15_1522_14412)">
<path d="M356.294 59.7593C356.095 59.7593 355.759 59.7383 355.187 59.7015C354.668 59.6701 353.582 59.5914 352.144 59.455C349.962 59.2451 346.819 58.8883 344.248 58.3479C340.623 57.5872 339.935 56.8474 339.82 56.328C339.747 56.2441 339.736 56.1601 339.741 56.0972C339.747 56.0447 339.783 55.9083 339.972 55.8506C341.084 55.4991 354.788 57.4141 356.614 59.3343C356.688 59.413 356.703 59.5337 356.651 59.6281C356.593 59.7173 356.572 59.7593 356.294 59.7593ZM340.334 56.2966C340.534 56.6953 341.719 57.6292 348.115 58.5001C351.105 58.9093 354.143 59.1507 355.57 59.2346C354.285 58.605 351.557 57.8862 347.91 57.2409C344.211 56.5746 341.189 56.2651 340.334 56.2966Z" fill="#0D0D0D"/>
</g>
<mask id="mask16_1522_14412" style="mask-type:luminance" maskUnits="userSpaceOnUse" x="308" y="27" width="65" height="65">
<path d="M364.195 91.0756H315.88C311.531 91.0756 308 87.55 308 83.1954V34.8803C308 30.5309 311.526 27 315.88 27H364.195C368.545 27 372.076 30.5257 372.076 34.8803V83.1954C372.076 87.55 368.545 91.0756 364.195 91.0756Z" fill="white"/>
</mask>
<g mask="url(#mask16_1522_14412)">
<path d="M351.569 69.7174C350.058 69.7069 348.552 69.56 347.094 69.2819C342.954 68.5002 342.451 68.3061 340.845 67.3355C340.609 67.1938 340.536 66.8895 340.677 66.6534C340.824 66.4173 341.129 66.3439 341.365 66.4908C342.808 67.3617 343.164 67.5296 347.278 68.3113C348.678 68.5789 350.121 68.7153 351.569 68.7258C351.847 68.7258 352.068 68.9514 352.068 69.2242C352.068 69.497 351.842 69.7174 351.569 69.7174Z" fill="#0D0D0D"/>
</g>
<mask id="mask17_1522_14412" style="mask-type:luminance" maskUnits="userSpaceOnUse" x="308" y="27" width="65" height="65">
<path d="M364.195 91.0756H315.88C311.531 91.0756 308 87.55 308 83.1954V34.8803C308 30.5309 311.526 27 315.88 27H364.195C368.545 27 372.076 30.5257 372.076 34.8803V83.1954C372.076 87.55 368.545 91.0756 364.195 91.0756Z" fill="white"/>
</mask>
<g mask="url(#mask17_1522_14412)">
<path d="M311.958 68.9037C311.895 68.9037 311.832 68.8932 311.764 68.8774C311.412 68.7725 311.208 68.4052 311.318 68.0537C311.675 66.8785 311.612 65.1367 311.538 63.1115C311.407 59.4652 311.229 54.4653 313.322 48.8358C315.457 43.1066 318.291 38.9251 321.995 36.05C328.532 30.9819 335.683 30.9084 338.736 30.877C338.852 30.877 338.972 30.877 339.088 30.877C347.152 30.877 352.687 33.7311 355.934 36.1497C360.194 39.3238 362.256 42.9544 362.723 45.095C362.802 45.4518 362.571 45.8033 362.214 45.882C361.852 45.9607 361.496 45.7351 361.422 45.3783C360.436 40.8611 352.529 32.0574 338.757 32.2043C335.84 32.2358 329.004 32.304 322.829 37.0941C319.324 39.8118 316.627 43.7991 314.581 49.2975C312.577 54.6856 312.745 59.334 312.876 63.0695C312.955 65.2941 313.018 67.0516 312.603 68.4367C312.514 68.72 312.247 68.9037 311.958 68.9037Z" fill="#0D0D0D"/>
</g>
<mask id="mask18_1522_14412" style="mask-type:luminance" maskUnits="userSpaceOnUse" x="308" y="27" width="65" height="65">
<path d="M364.195 91.0756H315.88C311.531 91.0756 308 87.55 308 83.1954V34.8803C308 30.5309 311.526 27 315.88 27H364.195C368.545 27 372.076 30.5257 372.076 34.8803V83.1954C372.076 87.55 368.545 91.0756 364.195 91.0756Z" fill="white"/>
</mask>
<g mask="url(#mask18_1522_14412)">
<path d="M339.548 77.2185C339.123 77.2185 338.704 77.1503 338.305 77.0087L332.329 74.8996C332.025 74.7946 331.867 74.4588 331.978 74.1598C332.088 73.8607 332.418 73.7033 332.723 73.8083L338.698 75.9174C339.727 76.2794 340.912 75.9646 341.951 75.0569C341.972 75.0412 341.993 75.0255 342.014 75.0097L354.16 67.035C354.233 66.9458 354.333 66.8724 354.459 66.8304C354.632 66.7727 354.816 66.7937 354.957 66.8776L368.42 69.0235C366.332 66.3163 360.167 58.9082 356.594 55.115C356.374 54.8789 356.39 54.5169 356.626 54.2965C356.862 54.0762 357.234 54.0919 357.449 54.328C359.359 56.3584 362.35 59.7896 365.445 63.5094C366.757 65.0886 367.948 66.5471 368.798 67.6279C369.233 68.1788 369.569 68.6195 369.8 68.9343C370.146 69.4117 370.356 69.7003 370.183 70.057C370.078 70.2721 369.842 70.4033 369.6 70.3876C369.585 70.3876 369.569 70.3823 369.553 70.3823L354.768 68.0214L342.686 75.9594C341.731 76.7831 340.619 77.2185 339.548 77.2185Z" fill="#0D0D0D"/>
</g>
<mask id="mask19_1522_14412" style="mask-type:luminance" maskUnits="userSpaceOnUse" x="308" y="27" width="65" height="65">
<path d="M364.195 91.0756H315.88C311.531 91.0756 308 87.55 308 83.1954V34.8803C308 30.5309 311.526 27 315.88 27H364.195C368.545 27 372.076 30.5257 372.076 34.8803V83.1954C372.076 87.55 368.545 91.0756 364.195 91.0756Z" fill="white"/>
</mask>
<g mask="url(#mask19_1522_14412)">
<path d="M330.157 79.1555C330.126 79.1555 330.089 79.1502 330.058 79.145C329.874 79.0978 329.743 78.9351 329.743 78.741L329.78 68.9562C329.433 68.6572 329.061 68.3949 328.667 68.1693C326.506 66.9258 321.863 66.0969 321.815 66.0864C321.59 66.0444 321.438 65.8293 321.48 65.609C321.522 65.3834 321.737 65.2365 321.962 65.2732C322.156 65.3099 326.8 66.1389 329.087 67.4505C329.585 67.7338 330.052 68.0748 330.477 68.4631C330.567 68.5418 330.614 68.652 330.614 68.7674L330.582 77.0778L332.162 74.1555C332.272 73.9562 332.524 73.8775 332.728 73.9876C332.933 74.0926 333.006 74.3444 332.901 74.549L330.53 78.9404C330.451 79.0768 330.304 79.1555 330.157 79.1555Z" fill="#0D0D0D"/>
</g>
<mask id="mask20_1522_14412" style="mask-type:luminance" maskUnits="userSpaceOnUse" x="308" y="27" width="65" height="65">
<path d="M364.195 91.0756H315.88C311.531 91.0756 308 87.55 308 83.1954V34.8803C308 30.5309 311.526 27 315.88 27H364.195C368.545 27 372.076 30.5257 372.076 34.8803V83.1954C372.076 87.55 368.545 91.0756 364.195 91.0756Z" fill="white"/>
</mask>
<g mask="url(#mask20_1522_14412)">
<path d="M304.066 75.9931C303.856 75.9931 303.651 75.8934 303.52 75.7151C303.305 75.416 303.379 75.0068 303.678 74.7917L307.004 72.4622C308.095 71.6962 309.186 70.9302 310.278 70.1643C310.608 69.5714 312.004 67.0583 312.801 65.1906C312.88 65.0122 312.953 64.8286 313.037 64.6134C313.169 64.2829 313.541 64.1098 313.877 64.2252L314.113 64.3039L323.683 67.6092C324.029 67.7299 324.212 68.1076 324.092 68.4539C323.971 68.8002 323.588 68.9785 323.242 68.8579L314.039 65.6785C314.034 65.689 314.034 65.6942 314.029 65.7047C313.09 67.8925 311.437 70.8096 311.369 70.9355C311.322 71.0194 311.254 71.0929 311.175 71.1506C310.042 71.9428 308.908 72.7403 307.775 73.5325L304.449 75.8672C304.333 75.9564 304.202 75.9931 304.066 75.9931Z" fill="#0D0D0D"/>
</g>
<mask id="mask21_1522_14412" style="mask-type:luminance" maskUnits="userSpaceOnUse" x="308" y="27" width="65" height="65">
<path d="M364.195 91.0756H315.88C311.531 91.0756 308 87.55 308 83.1954V34.8803C308 30.5309 311.526 27 315.88 27H364.195C368.545 27 372.076 30.5257 372.076 34.8803V83.1954C372.076 87.55 368.545 91.0756 364.195 91.0756Z" fill="white"/>
</mask>
<g mask="url(#mask21_1522_14412)">
<path d="M355.655 45.0327C355.645 45.0327 355.639 45.0327 355.629 45.0327C355.445 45.017 355.309 44.8596 355.325 44.676C355.519 42.3413 349.9 35.0958 340.32 32.3886C340.141 32.3362 340.042 32.1578 340.089 31.9794C340.141 31.8063 340.325 31.7013 340.503 31.7538C344.821 32.971 348.908 35.2742 352.009 38.2332C354.512 40.6204 356.112 43.2332 355.991 44.7284C355.975 44.9016 355.828 45.0327 355.655 45.0327Z" fill="#0D0D0D"/>
</g>
<mask id="mask22_1522_14412" style="mask-type:luminance" maskUnits="userSpaceOnUse" x="308" y="27" width="65" height="65">
<path d="M364.195 91.0756H315.88C311.531 91.0756 308 87.55 308 83.1954V34.8803C308 30.5309 311.526 27 315.88 27H364.195C368.545 27 372.076 30.5257 372.076 34.8803V83.1954C372.076 87.55 368.545 91.0756 364.195 91.0756Z" fill="white"/>
</mask>
<g mask="url(#mask22_1522_14412)">
<path d="M304.066 70.2309C303.967 70.2309 303.867 70.1837 303.799 70.0997C303.689 69.9528 303.715 69.7482 303.867 69.638L307.188 67.1669C307.524 65.9497 307.466 64.2971 307.393 62.2247C307.262 58.6046 307.083 53.6467 309.156 48.0749C311.27 42.4034 314.072 38.2691 317.723 35.436C317.87 35.3258 318.08 35.3468 318.19 35.4937C318.305 35.6354 318.279 35.8452 318.132 35.9554C314.58 38.7098 311.847 42.7497 309.78 48.3005C307.755 53.7463 307.923 58.4315 308.059 62.1985C308.138 64.3915 308.201 66.1281 307.797 67.4555C307.776 67.5237 307.734 67.5814 307.676 67.6234L304.266 70.1627C304.208 70.2099 304.135 70.2309 304.066 70.2309Z" fill="#0D0D0D"/>
</g>
<mask id="mask23_1522_14412" style="mask-type:luminance" maskUnits="userSpaceOnUse" x="308" y="27" width="65" height="65">
<path d="M364.195 91.0756H315.88C311.531 91.0756 308 87.55 308 83.1954V34.8803C308 30.5309 311.526 27 315.88 27H364.195C368.545 27 372.076 30.5257 372.076 34.8803V83.1954C372.076 87.55 368.545 91.0756 364.195 91.0756Z" fill="white"/>
</mask>
<g mask="url(#mask23_1522_14412)">
<path d="M368.823 88.1794C368.613 88.1794 368.435 88.0272 368.408 87.8174L367.317 78.9665C367.291 78.7409 367.454 78.5363 367.679 78.5048C367.91 78.4786 368.115 78.636 368.146 78.8668L369.237 87.7177C369.264 87.9433 369.101 88.1479 368.875 88.1794C368.854 88.1794 368.839 88.1794 368.823 88.1794Z" fill="#0D0D0D"/>
</g>
<mask id="mask24_1522_14412" style="mask-type:luminance" maskUnits="userSpaceOnUse" x="308" y="27" width="65" height="65">
<path d="M364.195 91.0756H315.88C311.531 91.0756 308 87.55 308 83.1954V34.8803C308 30.5309 311.526 27 315.88 27H364.195C368.545 27 372.076 30.5257 372.076 34.8803V83.1954C372.076 87.55 368.545 91.0756 364.195 91.0756Z" fill="white"/>
</mask>
<g mask="url(#mask24_1522_14412)">
<path d="M359.645 79.1565C359.498 79.1565 359.357 79.0778 359.278 78.9466C359.168 78.7473 359.236 78.4954 359.441 78.3853C359.803 78.1859 368.307 73.506 371.922 72.1367C372.137 72.0527 372.378 72.1629 372.462 72.3728C372.546 72.5879 372.436 72.824 372.221 72.9079C368.659 74.2563 359.934 79.0621 359.85 79.1093C359.787 79.1408 359.713 79.1565 359.645 79.1565Z" fill="#0D0D0D"/>
</g>
<mask id="mask25_1522_14412" style="mask-type:luminance" maskUnits="userSpaceOnUse" x="308" y="27" width="65" height="65">
<path d="M364.195 91.0756H315.88C311.531 91.0756 308 87.55 308 83.1954V34.8803C308 30.5309 311.526 27 315.88 27H364.195C368.545 27 372.076 30.5257 372.076 34.8803V83.1954C372.076 87.55 368.545 91.0756 364.195 91.0756Z" fill="white"/>
</mask>
<g mask="url(#mask25_1522_14412)">
<path d="M350.77 83.028C350.597 83.028 350.434 82.9178 350.377 82.7447C350.303 82.5296 350.419 82.2935 350.639 82.22L355.335 80.027C355.555 79.9535 355.791 80.0689 355.864 80.2893C355.938 80.5044 355.822 80.7405 355.602 80.8139L350.906 83.007C350.859 83.0227 350.817 83.028 350.77 83.028Z" fill="#0D0D0D"/>
</g>
<mask id="mask26_1522_14412" style="mask-type:luminance" maskUnits="userSpaceOnUse" x="308" y="27" width="65" height="65">
<path d="M364.195 91.0756H315.88C311.531 91.0756 308 87.55 308 83.1954V34.8803C308 30.5309 311.526 27 315.88 27H364.195C368.545 27 372.076 30.5257 372.076 34.8803V83.1954C372.076 87.55 368.545 91.0756 364.195 91.0756Z" fill="white"/>
</mask>
<g mask="url(#mask26_1522_14412)">
<path d="M348.021 83.9464C347.848 83.9464 347.685 83.8362 347.628 83.6631C347.554 83.448 347.67 83.2119 347.89 83.1385L350.644 82.2203C350.865 82.1469 351.101 82.2623 351.174 82.4827C351.248 82.6978 351.132 82.9338 350.912 83.0073L348.157 83.9254C348.11 83.9359 348.063 83.9464 348.021 83.9464Z" fill="#0D0D0D"/>
</g>
<mask id="mask27_1522_14412" style="mask-type:luminance" maskUnits="userSpaceOnUse" x="308" y="27" width="65" height="65">
<path d="M364.195 91.0756H315.88C311.531 91.0756 308 87.55 308 83.1954V34.8803C308 30.5309 311.526 27 315.88 27H364.195C368.545 27 372.076 30.5257 372.076 34.8803V83.1954C372.076 87.55 368.545 91.0756 364.195 91.0756Z" fill="white"/>
</mask>
<g mask="url(#mask27_1522_14412)">
<path d="M345.468 83.3988C345.441 83.3988 345.415 83.3935 345.394 83.3883L342.068 82.6275C341.889 82.5856 341.774 82.4072 341.816 82.2288C341.858 82.0504 342.036 81.9402 342.215 81.9822L345.541 82.743C345.719 82.7849 345.835 82.9633 345.793 83.1417C345.756 83.2991 345.62 83.3988 345.468 83.3988ZM337.262 81.5205C337.236 81.5205 337.21 81.5153 337.189 81.51L332.309 80.3925C332.131 80.3505 332.015 80.1722 332.057 79.9938C332.099 79.8154 332.278 79.7052 332.456 79.7472L337.335 80.8647C337.514 80.9067 337.629 81.0851 337.587 81.2634C337.551 81.4208 337.414 81.5205 337.262 81.5205Z" fill="#0D0D0D"/>
</g>
<mask id="mask28_1522_14412" style="mask-type:luminance" maskUnits="userSpaceOnUse" x="308" y="27" width="65" height="65">
<path d="M364.195 91.0756H315.88C311.531 91.0756 308 87.55 308 83.1954V34.8803C308 30.5309 311.526 27 315.88 27H364.195C368.545 27 372.076 30.5257 372.076 34.8803V83.1954C372.076 87.55 368.545 91.0756 364.195 91.0756Z" fill="white"/>
</mask>
<g mask="url(#mask28_1522_14412)">
<path d="M354.296 56.5116C354.238 56.5116 354.175 56.4958 354.123 56.4644C353.294 55.9607 344.107 53.3479 341.966 53.9198C341.788 53.967 341.604 53.8621 341.557 53.689C341.51 53.5106 341.615 53.3322 341.793 53.285C344.144 52.6554 353.456 55.2891 354.474 55.903C354.632 55.9974 354.679 56.202 354.584 56.3594C354.521 56.4539 354.411 56.5116 354.296 56.5116Z" fill="#0D0D0D"/>
</g>
<mask id="mask29_1522_14412" style="mask-type:luminance" maskUnits="userSpaceOnUse" x="308" y="27" width="65" height="65">
<path d="M364.195 91.0756H315.88C311.531 91.0756 308 87.55 308 83.1954V34.8803C308 30.5309 311.526 27 315.88 27H364.195C368.545 27 372.076 30.5257 372.076 34.8803V83.1954C372.076 87.55 368.545 91.0756 364.195 91.0756Z" fill="white"/>
</mask>
<g mask="url(#mask29_1522_14412)">
<path d="M326.06 60.1517C325.913 60.1517 325.761 60.094 325.65 59.9839C325.419 59.7583 325.42 59.391 325.645 59.1654L337.906 46.8781C338.058 46.7259 338.284 46.6682 338.489 46.7312C338.693 46.7941 338.851 46.962 338.893 47.1719L339.359 49.5013C340.115 49.2652 340.839 48.9977 341.542 48.7353C342.455 48.3996 343.394 48.0533 344.417 47.7595C344.58 47.7123 344.753 47.7385 344.895 47.8277C345.036 47.9169 345.131 48.0638 345.157 48.2264C345.23 48.7039 345.361 49.26 345.487 49.7951C345.566 50.1257 345.645 50.4614 345.708 50.7867L351.967 48.8088C352.15 48.7511 352.355 48.7878 352.507 48.9032C352.659 49.0239 352.743 49.2075 352.728 49.3964C352.691 49.9263 352.602 50.5979 352.512 51.2484C352.476 51.5212 352.439 51.7993 352.408 52.0669C353.042 51.7731 353.698 51.432 354.338 51.1015C355.314 50.5979 356.321 50.0732 357.282 49.7007C357.476 49.6273 357.696 49.6587 357.859 49.7846C358.021 49.9106 358.105 50.1152 358.079 50.3198L357.707 53.0637L361.411 50.3513C361.668 50.1624 362.035 50.2149 362.229 50.4719C362.423 50.729 362.365 51.091 362.108 51.2799L357.297 54.8056C357.108 54.942 356.857 54.9577 356.652 54.837C356.447 54.7164 356.337 54.4908 356.369 54.2599L356.788 51.175C356.164 51.4635 355.519 51.7993 354.889 52.1246C353.913 52.6283 352.906 53.1529 351.946 53.5254C351.757 53.5989 351.547 53.5726 351.385 53.452C351.222 53.3365 351.133 53.1424 351.148 52.943C351.185 52.4131 351.274 51.7416 351.363 51.091C351.405 50.7815 351.447 50.4667 351.484 50.1676L345.44 52.0774C345.278 52.1298 345.099 52.1088 344.952 52.0197C344.805 51.9305 344.711 51.7836 344.685 51.6157C344.611 51.1382 344.48 50.5821 344.354 50.047C344.275 49.7164 344.197 49.3754 344.129 49.0501C343.378 49.2862 342.66 49.5538 341.957 49.8109C341.044 50.1467 340.105 50.4929 339.081 50.7867C338.924 50.8339 338.756 50.8077 338.614 50.7238C338.473 50.6398 338.378 50.5034 338.347 50.3408L337.969 48.452L326.479 59.9629C326.359 60.094 326.206 60.1517 326.06 60.1517Z" fill="#0D0D0D"/>
</g>
<mask id="mask30_1522_14412" style="mask-type:luminance" maskUnits="userSpaceOnUse" x="308" y="27" width="65" height="65">
<path d="M364.195 91.0756H315.88C311.531 91.0756 308 87.55 308 83.1954V34.8803C308 30.5309 311.526 27 315.88 27H364.195C368.545 27 372.076 30.5257 372.076 34.8803V83.1954C372.076 87.55 368.545 91.0756 364.195 91.0756Z" fill="white"/>
</mask>
<g mask="url(#mask30_1522_14412)">
<path d="M355.701 48.9772C355.67 48.9772 355.638 48.9719 355.607 48.9667C351.756 48.08 343.75 46.228 331.567 45.7401C331.336 45.7296 331.158 45.5407 331.168 45.3099C331.179 45.0843 331.373 44.9111 331.604 44.9111C343.865 45.4043 351.924 47.2616 355.796 48.1587C356.021 48.2112 356.158 48.4315 356.105 48.6571C356.063 48.8513 355.89 48.9772 355.701 48.9772Z" fill="#0D0D0D"/>
</g>
<mask id="mask31_1522_14412" style="mask-type:luminance" maskUnits="userSpaceOnUse" x="308" y="27" width="65" height="65">
<path d="M364.195 91.0756H315.88C311.531 91.0756 308 87.55 308 83.1954V34.8803C308 30.5309 311.526 27 315.88 27H364.195C368.545 27 372.076 30.5257 372.076 34.8803V83.1954C372.076 87.55 368.545 91.0756 364.195 91.0756Z" fill="white"/>
</mask>
<g mask="url(#mask31_1522_14412)">
<path d="M361.975 51.1499C361.881 51.1499 361.781 51.1184 361.702 51.0502C361.676 51.0292 360.417 50.0376 355.774 48.9673C355.548 48.9149 355.412 48.6945 355.464 48.4689C355.517 48.2486 355.742 48.1069 355.968 48.1594C360.91 49.2979 362.201 50.3787 362.253 50.4206C362.426 50.5728 362.447 50.8299 362.295 51.003C362.206 51.1027 362.091 51.1499 361.975 51.1499Z" fill="#0D0D0D"/>
</g>
<mask id="mask32_1522_14412" style="mask-type:luminance" maskUnits="userSpaceOnUse" x="308" y="27" width="65" height="65">
<path d="M364.195 91.0756H315.88C311.531 91.0756 308 87.55 308 83.1954V34.8803C308 30.5309 311.526 27 315.88 27H364.195C368.545 27 372.076 30.5257 372.076 34.8803V83.1954C372.076 87.55 368.545 91.0756 364.195 91.0756Z" fill="white"/>
</mask>
<g mask="url(#mask32_1522_14412)">
<path d="M352.14 57.897C351.857 58.7994 351.101 59.4395 350.451 59.3188C349.795 59.1981 349.496 58.3692 349.774 57.4668" fill="#0D0D0D"/>
<path d="M350.613 59.502C350.55 59.502 350.482 59.4968 350.419 59.4863C350.131 59.4338 349.889 59.2659 349.721 58.9931C349.475 58.5891 349.433 58.0015 349.611 57.4192C349.638 57.33 349.732 57.2827 349.821 57.309C349.91 57.3352 349.958 57.4296 349.931 57.5136C349.779 58.0068 349.805 58.4947 350.005 58.8147C350.12 58.9984 350.283 59.119 350.477 59.1505C351.038 59.2502 351.726 58.6521 351.978 57.8441C352.004 57.7549 352.098 57.7077 352.187 57.7339C352.277 57.7602 352.324 57.8546 352.298 57.9386C352.019 58.8567 351.301 59.502 350.613 59.502Z" fill="#0D0D0D"/>
</g>
<path d="M364.197 91.0756H315.882C311.533 91.0756 308.002 87.55 308.002 83.1954V34.8803C308.002 30.5309 311.528 27 315.882 27H364.197C368.547 27 372.078 30.5257 372.078 34.8803V83.1954C372.078 87.55 368.547 91.0756 364.197 91.0756Z" stroke="#0D0D0D" stroke-miterlimit="10"/>
<path d="M333 629.543H139" stroke="black" stroke-width="3" stroke-linecap="round" stroke-dasharray="6 6"/>
<path d="M166 609.543H-28" stroke="#FFCB46" stroke-width="5" stroke-linecap="round"/>
<path d="M407 671.543H213" stroke="#FFCB46" stroke-width="5" stroke-linecap="round"/>
<path d="M407 3L213 3" stroke="#FFCB46" stroke-width="5" stroke-linecap="round"/>
<defs>
<linearGradient id="paint0_linear_1522_14412" x1="49.5792" y1="24.0488" x2="49.5792" y2="97.5157" gradientUnits="userSpaceOnUse">
<stop offset="0.046344" stop-color="#FFF1DB"/>
<stop offset="0.177083" stop-color="#FFFBF3"/>
</linearGradient>
<linearGradient id="paint1_linear_1522_14412" x1="144.631" y1="19.9531" x2="144.631" y2="93.3046" gradientUnits="userSpaceOnUse">
<stop offset="0.046344" stop-color="#FFF1DB"/>
<stop offset="0.177083" stop-color="#FFFBF3"/>
</linearGradient>
<linearGradient id="paint2_linear_1522_14412" x1="245.438" y1="21.9141" x2="245.438" y2="95.9213" gradientUnits="userSpaceOnUse">
<stop offset="0.046344" stop-color="#FFF1DB"/>
<stop offset="0.177083" stop-color="#FFFBF3"/>
</linearGradient>
<linearGradient id="paint3_linear_1522_14412" x1="336.746" y1="26.1709" x2="336.746" y2="99.9106" gradientUnits="userSpaceOnUse">
<stop offset="0.046344" stop-color="#FFF1DB"/>
<stop offset="0.177083" stop-color="#FFFBF3"/>
</linearGradient>
</defs>
</svg>
