<svg width="390" height="681" viewBox="0 0 390 681" fill="none" xmlns="http://www.w3.org/2000/svg">
<line x1="203" y1="35" x2="399" y2="35" stroke="#FFCB46" stroke-width="4" stroke-linecap="round"/>
<line x1="-48.5" y1="1.5" x2="63.5" y2="1.5" stroke="#0D0D0D" stroke-width="3" stroke-linecap="round"/>
<g clip-path="url(#clip0_1522_13843)">
<path d="M24.0968 206.356C24.992 201.068 20.0957 193.831 23.238 180.67C25.2048 172.432 28.4509 166.137 33.5288 161.747C42.0683 154.362 52.5382 154.175 57.2555 154.126C79.3916 153.897 93.0012 168.184 95.3547 174.871C97.7081 181.558 96.3225 183.203 96.3225 183.203C96.3225 183.203 94.2856 181.625 86.6362 179.913H86.3767C79.5836 178.392 67.3388 175.735 49.1935 175.011L24.0968 206.356Z" fill="#FFBB11"/>
</g>
<path d="M376.797 211.064L374.796 211.064" stroke="#0D0D0D" stroke-width="2.88513" stroke-miterlimit="10" stroke-linecap="round" stroke-dasharray="40.39 40.39"/>
<path d="M370.814 211.064L245.268 211.064" stroke="#0D0D0D" stroke-width="2.88513" stroke-miterlimit="10" stroke-linecap="round" stroke-dasharray="40.39 40.39"/>
<path d="M243.276 211.064L241.274 211.064" stroke="#0D0D0D" stroke-width="2.88513" stroke-miterlimit="10" stroke-linecap="round" stroke-dasharray="40.39 40.39"/>
<path d="M-183.313 321.643H-184.589C-203.832 321.586 -262.532 326.708 -270.511 307.257C-277.228 290.886 -245.294 266.933 -240.611 264.429C-150.27 216.147 -42.0649 216.877 -40.2364 216.659C-40.2338 216.659 -40.2078 216.656 -40.1715 216.651C-30.4133 215.63 -77.2121 255.326 -44.3246 255.235C-20.3382 255.167 65.2311 258.829 77.6334 253.048C97.1186 243.962 115.838 232.004 122.399 227.682C124.019 226.617 125.962 226.155 127.889 226.383C142.764 228.15 209.064 236.635 248.245 251.998C267.821 259.674 284.267 266.959 297.916 280.278C308.485 290.59 313.778 300.527 316.396 305.696C317.604 308.077 318.536 310.35 319.251 312.376C320.695 316.482 317.674 320.791 313.321 320.817C298.192 320.906 265.881 321.168 251.164 321.81C251.164 321.81 251.164 321.81 251.162 321.81C251.803 319.778 252.325 317.693 252.72 315.563C252.819 315.031 252.91 314.496 252.993 313.958C252.993 313.955 252.993 313.955 252.993 313.955C253.117 313.147 253.224 312.335 253.312 311.516C253.372 310.971 253.424 310.42 253.463 309.87C253.507 309.319 253.541 308.768 253.567 308.213C253.606 307.379 253.624 306.54 253.624 305.698C253.624 305.467 253.621 305.236 253.619 305.005C253.616 304.774 253.613 304.543 253.606 304.311C253.6 304.101 253.595 303.891 253.587 303.68C253.585 303.641 253.585 303.605 253.582 303.566C253.575 303.361 253.567 303.156 253.554 302.953C253.556 302.943 253.556 302.935 253.554 302.927C253.543 302.701 253.53 302.475 253.515 302.249C253.502 302.02 253.486 301.792 253.468 301.566C253.452 301.358 253.437 301.153 253.419 300.948C253.382 300.537 253.341 300.13 253.297 299.722C253.297 299.719 253.297 299.719 253.297 299.717C253.276 299.522 253.252 299.327 253.229 299.132C253.182 298.745 253.133 298.361 253.076 297.976C253.076 297.974 253.076 297.974 253.076 297.971C253.05 297.789 253.024 297.608 252.995 297.426C252.938 297.065 252.878 296.704 252.816 296.343C252.816 296.343 252.816 296.34 252.816 296.338C252.756 295.995 252.691 295.652 252.626 295.312V295.309C248.416 273.85 231.424 256.967 209.903 252.92C209.9 252.92 209.898 252.92 209.898 252.92C209.36 252.819 208.82 252.726 208.277 252.643C208.277 252.64 208.274 252.64 208.272 252.643C207.89 252.583 207.505 252.528 207.121 252.476C206.734 252.424 206.347 252.378 205.957 252.333C205.345 252.263 204.729 252.206 204.111 252.159C202.729 252.053 201.334 251.998 199.924 251.998C170.267 251.998 146.227 276.039 146.227 305.698C146.227 311.296 147.084 316.698 148.676 321.771C79.5554 321.745 -11.341 321.711 -80.7445 321.682C-80.7263 321.633 -80.7133 321.586 -80.6978 321.537C-80.5913 321.197 -80.49 320.856 -80.3938 320.514C-79.8588 318.654 -79.4224 316.753 -79.0926 314.815C-79.0328 314.472 -78.9783 314.127 -78.9263 313.779C-78.716 312.386 -78.5575 310.979 -78.4563 309.553C-78.4251 309.106 -78.3991 308.657 -78.3783 308.207C-78.3394 307.366 -78.3212 306.522 -78.3212 305.672C-78.3212 305.13 -78.329 304.587 -78.3472 304.046C-78.3497 303.893 -78.3549 303.743 -78.3627 303.592C-78.3705 303.371 -78.3783 303.153 -78.3913 302.935C-78.4121 302.491 -78.4406 302.046 -78.4744 301.608C-78.4926 301.353 -78.5134 301.101 -78.5367 300.849C-78.5913 300.244 -78.6537 299.639 -78.729 299.039C-78.7991 298.475 -78.8744 297.917 -78.9627 297.358C-79.0718 296.644 -79.1965 295.935 -79.3367 295.231C-83.373 274.826 -98.9622 258.575 -119.003 253.58C-119.006 253.578 -119.006 253.578 -119.008 253.58C-119.655 253.419 -120.307 253.271 -120.962 253.133H-120.964C-121.489 253.024 -122.016 252.923 -122.546 252.827C-122.723 252.796 -122.902 252.765 -123.079 252.736C-123.45 252.674 -123.821 252.617 -124.193 252.562C-124.393 252.533 -124.593 252.505 -124.795 252.479C-125.39 252.398 -125.99 252.328 -126.593 252.268C-126.795 252.248 -126.995 252.23 -127.198 252.211C-128.787 252.071 -130.395 251.998 -132.021 251.998C-161.678 251.998 -185.721 276.039 -185.721 305.698C-185.721 311.249 -184.88 316.607 -183.313 321.643Z" fill="#FF4412"/>
<path d="M60.5988 328.981C58.4352 328.981 56.2691 328.979 54.1055 328.979" stroke="#0D0D0D" stroke-width="3.11681" stroke-linecap="round" stroke-linejoin="round"/>
<path d="M40.2518 328.973C-5.40943 328.955 -50.6369 328.936 -91.3164 328.921" stroke="#0D0D0D" stroke-width="3.11681" stroke-linecap="round" stroke-linejoin="round" stroke-dasharray="13.85 13.85"/>
<path d="M-155.32 321.643H-156.595C-175.839 321.586 -234.539 326.708 -242.518 307.257C-249.234 290.886 -217.3 266.933 -212.617 264.429C-122.276 216.147 -14.0713 216.877 -12.2427 216.659C-12.2401 216.659 -12.2142 216.656 -12.1778 216.651C-2.41961 215.63 -49.2185 255.326 -16.331 255.235C7.65544 255.167 93.2248 258.829 105.627 253.048C125.112 243.962 143.831 232.004 150.392 227.682C152.013 226.617 153.956 226.155 155.883 226.383C170.758 228.15 237.058 236.635 276.238 251.998C295.815 259.674 312.261 266.959 325.91 280.278C336.479 290.59 341.772 300.527 344.39 305.696C345.598 308.077 346.53 310.35 347.244 312.376C348.689 316.482 345.668 320.791 341.315 320.817C326.185 320.906 293.874 321.168 279.158 321.81C279.158 321.81 279.158 321.81 279.155 321.81C279.797 319.778 280.319 317.693 280.714 315.563C280.812 315.031 280.903 314.496 280.986 313.958C280.986 313.955 280.986 313.955 280.986 313.955C281.111 313.147 281.218 312.335 281.306 311.516C281.366 310.971 281.417 310.42 281.456 309.87C281.501 309.319 281.534 308.768 281.56 308.213C281.599 307.379 281.618 306.54 281.618 305.698C281.618 305.467 281.615 305.236 281.612 305.005C281.61 304.774 281.607 304.543 281.599 304.311C281.594 304.101 281.589 303.891 281.581 303.68C281.579 303.641 281.579 303.605 281.576 303.566C281.568 303.361 281.56 303.156 281.547 302.953C281.55 302.943 281.55 302.935 281.547 302.927C281.537 302.701 281.524 302.475 281.508 302.249C281.495 302.02 281.48 301.792 281.462 301.566C281.446 301.358 281.43 301.153 281.412 300.948C281.376 300.537 281.334 300.13 281.29 299.722C281.29 299.719 281.29 299.719 281.29 299.717C281.269 299.522 281.246 299.327 281.223 299.132C281.176 298.745 281.127 298.361 281.069 297.976C281.069 297.974 281.069 297.974 281.069 297.971C281.043 297.789 281.017 297.608 280.989 297.426C280.932 297.065 280.872 296.704 280.81 296.343C280.81 296.343 280.81 296.34 280.81 296.338C280.75 295.995 280.685 295.652 280.62 295.312V295.309C276.41 273.85 259.418 256.967 237.897 252.92C237.894 252.92 237.891 252.92 237.891 252.92C237.354 252.819 236.813 252.726 236.271 252.643C236.271 252.64 236.268 252.64 236.265 252.643C235.884 252.583 235.499 252.528 235.115 252.476C234.728 252.424 234.341 252.378 233.951 252.333C233.338 252.263 232.723 252.206 232.104 252.159C230.723 252.053 229.328 251.998 227.918 251.998C198.261 251.998 174.22 276.039 174.22 305.698C174.22 311.296 175.077 316.698 176.669 321.771C143.107 321.758 104.409 321.745 65.5293 321.729" stroke="#0D0D0D" stroke-width="3.46216" stroke-miterlimit="10" stroke-linecap="round"/>
<path d="M82.3666 239.433C82.2886 239.448 53.7179 234.069 38.4741 231.389" stroke="#0D0D0D" stroke-width="1.29867" stroke-miterlimit="10" stroke-linecap="round" stroke-linejoin="round"/>
<path d="M94.1525 253.868C102.378 247.746 113.529 239.453 113.549 239.448C116.191 236.819 126.931 226.44 132.258 229.357C132.484 229.479 132.7 229.627 132.907 229.801C133.279 230.222 133.91 233.57 134.126 233.03L136.281 227.671C137.476 224.703 136.783 220.388 134.741 218.082L134.183 217.451C133.357 216.518 127.801 215.365 127.801 215.365C125.578 214.931 123.292 215.243 121.227 216.261L110.609 225.78C110.609 225.78 110.609 225.783 110.607 225.783C110.339 225.915 109.908 226.144 109.648 226.295L85.4878 238.913" stroke="#0D0D0D" stroke-width="1.81814" stroke-miterlimit="10" stroke-linecap="round" stroke-linejoin="round"/>
<path d="M63.54 191.591C61.6232 190.461 85.8408 193.643 89.0433 196.596C89.2147 196.752 64.3686 195.186 63.54 191.591Z" stroke="#0D0D0D" stroke-width="0.779201" stroke-miterlimit="10" stroke-linecap="round" stroke-linejoin="round"/>
<path d="M83.6363 211.332C81.574 211.316 79.3195 211.134 76.9066 210.687C70.421 209.49 69.7821 209.22 67.3042 207.833" stroke="#0D0D0D" stroke-width="1.5584" stroke-miterlimit="10" stroke-linecap="round" stroke-linejoin="round"/>
<path d="M23.38 209.845C24.276 204.552 19.3749 193.944 22.5203 180.771C24.489 172.524 27.7383 166.223 32.8213 161.828C41.3691 154.436 51.8494 154.249 56.5714 154.2C78.7292 153.971 92.3523 168.272 94.7081 174.966" stroke="#0D0D0D" stroke-width="2.07787" stroke-miterlimit="10" stroke-linecap="round" stroke-linejoin="round"/>
<path d="M55.8008 219.113L65.2889 222.313C67.2343 222.971 69.3044 222.428 70.9069 220.841L87.9324 208.586M87.9324 208.586C87.787 208.576 88.0493 208.47 87.9324 208.586ZM87.9324 208.586L111.176 212.218C111.734 212.259 96.5063 196.348 88.9792 189.343" stroke="#0D0D0D" stroke-width="1.73108" stroke-miterlimit="10" stroke-linecap="round" stroke-linejoin="round"/>
<path d="M37.9155 205.965C37.9155 205.965 45.2686 207.232 48.9438 209.196C49.788 209.645 50.5152 210.149 51.1386 210.65L53.0996 225.77C54.0008 223.551 54.9021 221.331 55.8034 219.113" stroke="#0D0D0D" stroke-width="1.29867" stroke-miterlimit="10" stroke-linecap="round" stroke-linejoin="round"/>
<path d="M-27.124 251.515C-10.7166 238.827 5.69335 226.139 22.1007 213.451C22.1007 213.451 24.4591 208.028 25.2955 204.714L40.8379 209.849" stroke="#0D0D0D" stroke-width="2.07787" stroke-miterlimit="10" stroke-linecap="round" stroke-linejoin="round"/>
<path d="M59.209 155C74.58 159.184 84.6811 170.309 84.8785 174.15" stroke="#0D0D0D" stroke-width="1.03893" stroke-miterlimit="10" stroke-linecap="round" stroke-linejoin="round"/>
<path d="M-27.3276 244.682C-12.7488 232.625 1.83009 220.568 16.4089 208.511C17.305 203.218 12.4039 192.61 15.5492 179.437C17.518 171.19 20.7673 164.889 25.8503 160.494" stroke="#0D0D0D" stroke-width="1.03893" stroke-miterlimit="10" stroke-linecap="round" stroke-linejoin="round"/>
<path d="M113.551 239.447L110.104 226.029" stroke="#0D0D0D" stroke-width="1.29867" stroke-miterlimit="10" stroke-linecap="round" stroke-linejoin="round"/>
<path d="M97.814 225.769C97.814 225.769 114.956 215.562 117.403 215.788L121.224 216.141" stroke="#0D0D0D" stroke-width="1.29867" stroke-miterlimit="10" stroke-linecap="round" stroke-linejoin="round"/>
<path d="M85.1421 231.639L92.7029 229.008" stroke="#0D0D0D" stroke-width="1.29867" stroke-miterlimit="10" stroke-linecap="round" stroke-linejoin="round"/>
<path d="M81.1504 233.026L85.1399 231.637" stroke="#0D0D0D" stroke-width="1.29867" stroke-miterlimit="10" stroke-linecap="round" stroke-linejoin="round"/>
<path d="M56.7344 227.791L77.1806 232.329" stroke="#0D0D0D" stroke-width="1.03893" stroke-miterlimit="10" stroke-linecap="round" stroke-linejoin="round" stroke-dasharray="7.79 7.79"/>
<path d="M337.621 193.179H335.747" stroke="#0D0D0D" stroke-width="1.92919" stroke-miterlimit="10" stroke-linecap="round"/>
<path d="M332.018 193.179H214.42" stroke="#0D0D0D" stroke-width="1.92919" stroke-miterlimit="10" stroke-linecap="round" stroke-dasharray="7.76 7.76"/>
<path d="M212.552 193.179H210.677" stroke="#0D0D0D" stroke-width="1.92919" stroke-miterlimit="10" stroke-linecap="round"/>
<path d="M65.7871 187.639C69.0675 186.73 83.5087 190.639 85.1373 191.556" stroke="#0D0D0D" stroke-width="1.03893" stroke-miterlimit="10" stroke-linecap="round" stroke-linejoin="round"/>
<path d="M95.3612 183.452L88.777 188.794L88.7952 182.574C86.1251 183.675 83.268 185.641 80.6005 186.743C80.5044 185.192 80.598 182.776 80.5018 181.226L70.4917 184.53C70.0553 183.023 69.2528 181.148 68.8164 179.644C65.897 180.511 63.536 181.691 60.614 182.558L59.118 178.075L43.0093 196.703" stroke="#0D0D0D" stroke-width="1.81814" stroke-miterlimit="10" stroke-linecap="round" stroke-linejoin="round"/>
<path d="M85.7262 180.013C78.9264 178.491 66.6695 175.831 48.5063 175.106" stroke="#0D0D0D" stroke-width="1.29867" stroke-miterlimit="10" stroke-linecap="round" stroke-linejoin="round"/>
<path d="M95.6778 183.303C95.6778 183.303 93.6389 181.724 85.9819 180.01" stroke="#0D0D0D" stroke-width="1.29867" stroke-miterlimit="10" stroke-linecap="round" stroke-linejoin="round"/>
<path d="M197.493 350.188C206.127 356.115 216.581 359.583 227.845 359.583C248.977 359.583 267.263 347.375 276.024 329.628C276.798 328.062 277.496 326.451 278.117 324.805C278.27 324.397 278.421 323.984 278.564 323.571C278.777 322.96 278.979 322.345 279.169 321.724C279.275 321.384 279.377 321.044 279.473 320.701C280.008 318.841 280.444 316.94 280.774 315.002C280.834 314.659 280.888 314.314 280.94 313.966C281.151 312.574 281.309 311.166 281.41 309.74C281.442 309.293 281.468 308.844 281.488 308.395C281.527 307.553 281.545 306.709 281.545 305.86C281.545 305.317 281.538 304.774 281.519 304.234C281.517 304.08 281.512 303.93 281.504 303.779C281.496 303.558 281.488 303.34 281.475 303.122C281.455 302.678 281.426 302.234 281.392 301.795C281.374 301.54 281.353 301.288 281.33 301.036C281.275 300.431 281.213 299.826 281.138 299.226C281.068 298.662 280.992 298.104 280.904 297.545C280.795 296.831 280.67 296.122 280.53 295.418C276.494 275.014 260.904 258.762 240.863 253.767C240.861 253.765 240.861 253.765 240.858 253.767C240.211 253.606 239.559 253.458 238.905 253.321H238.902C238.378 253.211 237.85 253.11 237.321 253.014C237.144 252.983 236.965 252.952 236.788 252.923C236.417 252.861 236.045 252.804 235.674 252.749C235.474 252.721 235.274 252.692 235.071 252.666C234.476 252.586 233.876 252.515 233.274 252.456C233.071 252.435 232.871 252.417 232.669 252.399C231.079 252.258 229.471 252.186 227.845 252.186C198.189 252.186 174.146 276.227 174.146 305.886C174.146 312.841 175.468 319.49 177.875 325.592H177.878C179.496 329.693 181.608 333.55 184.135 337.085M227.845 318.555C220.848 318.555 215.176 312.883 215.176 305.886C215.176 298.888 220.848 293.213 227.845 293.213C234.843 293.213 240.515 298.888 240.515 305.886C240.515 312.883 234.843 318.555 227.845 318.555Z" stroke="#0D0D0D" stroke-width="3.11681" stroke-miterlimit="10" stroke-linecap="round" stroke-linejoin="round"/>
<path d="M260.466 304.234C260.463 304.08 260.458 303.93 260.45 303.779C260.442 303.558 260.435 303.34 260.422 303.122C260.401 302.678 260.372 302.234 260.338 301.795C260.32 301.54 260.3 301.288 260.276 301.036C260.222 300.431 260.159 299.826 260.084 299.226C260.014 298.662 259.939 298.104 259.85 297.545C259.741 296.831 259.616 296.122 259.476 295.418C255.44 275.014 239.851 258.762 219.81 253.767C219.807 253.765 219.807 253.765 219.804 253.767C219.158 253.606 218.506 253.458 217.851 253.321H217.849C217.324 253.211 216.797 253.11 216.267 253.014C216.09 252.983 215.911 252.952 215.734 252.923C215.363 252.861 214.992 252.804 214.62 252.749C214.42 252.721 214.22 252.692 214.018 252.666C213.423 252.586 212.823 252.515 212.22 252.456C212.018 252.435 211.818 252.417 211.615 252.399C210.025 252.258 208.418 252.186 206.792 252.186C177.135 252.186 153.092 276.227 153.092 305.886C153.092 312.841 154.414 319.49 156.822 325.592H156.824C164.681 345.498 184.091 359.583 206.792 359.583C227.924 359.583 246.209 347.375 254.97 329.628C255.744 328.062 256.442 326.451 257.063 324.805C257.217 324.397 257.367 323.984 257.51 323.571C257.723 322.96 257.926 322.345 258.115 321.724C258.222 321.384 258.323 321.044 258.419 320.701C258.954 318.841 259.39 316.94 259.72 315.002C259.78 314.659 259.835 314.314 259.887 313.966C260.097 312.574 260.255 311.166 260.357 309.74C260.388 309.293 260.414 308.844 260.435 308.395C260.474 307.553 260.492 306.709 260.492 305.86C260.492 305.317 260.484 304.774 260.466 304.234Z" stroke="#0D0D0D" stroke-width="2.07787" stroke-miterlimit="10" stroke-linecap="round"/>
<path d="M241.082 304.234C241.08 304.08 241.075 303.93 241.067 303.779C241.059 303.558 241.051 303.34 241.038 303.122C241.018 302.678 240.989 302.234 240.955 301.795C240.937 301.54 240.916 301.288 240.893 301.036C240.838 300.431 240.776 299.826 240.701 299.226C240.631 298.662 240.555 298.104 240.467 297.545C240.358 296.831 240.233 296.122 240.093 295.418C236.057 275.014 220.467 258.762 200.426 253.767C200.424 253.765 200.424 253.765 200.421 253.767C199.774 253.606 199.122 253.458 198.468 253.321H198.465C197.941 253.211 197.413 253.11 196.884 253.014C196.707 252.983 196.528 252.952 196.351 252.923C195.98 252.861 195.608 252.804 195.237 252.749C195.037 252.721 194.837 252.692 194.634 252.666C194.039 252.586 193.439 252.515 192.837 252.456C192.634 252.435 192.434 252.417 192.232 252.399C190.642 252.258 189.034 252.186 187.408 252.186C157.752 252.186 133.708 276.227 133.708 305.886C133.708 312.841 135.031 319.49 137.438 325.592H137.441C145.298 345.498 164.708 359.583 187.408 359.583C208.54 359.583 226.826 347.375 235.586 329.628C236.36 328.062 237.059 326.451 237.68 324.805C237.833 324.397 237.984 323.984 238.127 323.571C238.34 322.96 238.542 322.345 238.732 321.724C238.838 321.384 238.94 321.044 239.036 320.701C239.571 318.841 240.007 316.94 240.337 315.002C240.397 314.659 240.451 314.314 240.503 313.966C240.714 312.574 240.872 311.166 240.973 309.74C241.005 309.293 241.031 308.844 241.051 308.395C241.09 307.553 241.108 306.709 241.108 305.86C241.108 305.317 241.101 304.774 241.082 304.234Z" stroke="#0D0D0D" stroke-width="1.29867" stroke-miterlimit="10" stroke-linecap="round" stroke-linejoin="round"/>
<path d="M226.97 304.234C226.967 304.08 226.962 303.93 226.954 303.779C226.946 303.558 226.938 303.34 226.926 303.122C226.905 302.678 226.876 302.234 226.842 301.795C226.824 301.54 226.803 301.288 226.78 301.036C226.725 300.431 226.663 299.826 226.588 299.226C226.518 298.662 226.442 298.104 226.354 297.545C226.245 296.831 226.12 296.122 225.98 295.418C221.944 275.014 206.355 258.762 186.314 253.767C186.311 253.765 186.311 253.765 186.308 253.767C185.662 253.606 185.01 253.458 184.355 253.321H184.353C183.828 253.211 183.301 253.11 182.771 253.014C182.594 252.983 182.415 252.952 182.238 252.923C181.867 252.861 181.495 252.804 181.124 252.749C180.924 252.721 180.724 252.692 180.521 252.666C179.927 252.586 179.327 252.515 178.724 252.456C178.521 252.435 178.322 252.417 178.119 252.399C176.529 252.258 174.922 252.186 173.296 252.186C143.639 252.186 119.596 276.227 119.596 305.886C119.596 312.841 120.918 319.49 123.326 325.592H123.328C131.185 345.498 150.595 359.583 173.296 359.583C194.428 359.583 212.713 347.375 221.474 329.628C222.248 328.062 222.946 326.451 223.567 324.805C223.72 324.397 223.871 323.984 224.014 323.571C224.227 322.96 224.429 322.345 224.619 321.724C224.726 321.384 224.827 321.044 224.923 320.701C225.458 318.841 225.894 316.94 226.224 315.002C226.284 314.659 226.338 314.314 226.39 313.966C226.601 312.574 226.759 311.166 226.861 309.74C226.892 309.293 226.918 308.844 226.939 308.395C226.977 307.553 226.996 306.709 226.996 305.86C226.996 305.317 226.988 304.774 226.97 304.234Z" stroke="#0D0D0D" stroke-width="0.779201" stroke-miterlimit="10" stroke-linecap="round" stroke-linejoin="round"/>
<path d="M-50.7178 337.084H89.3514" stroke="#0D0D0D" stroke-width="2.07787" stroke-miterlimit="10" stroke-linecap="round"/>
<path d="M82.252 194.422C82.0078 195.794 80.9896 196.76 79.9741 196.578C78.9585 196.399 78.3326 195.142 78.5767 193.771" fill="#0D0D0D"/>
<path d="M82.252 194.422C82.0078 195.794 80.9896 196.76 79.9741 196.578C78.9585 196.399 78.3326 195.142 78.5767 193.771" stroke="#0D0D0D" stroke-width="1.29867" stroke-miterlimit="10" stroke-linecap="round" stroke-linejoin="round"/>
<path d="M134.124 233.287L113.548 247.323" stroke="#0D0D0D" stroke-width="1.29867" stroke-miterlimit="10" stroke-linecap="round" stroke-linejoin="round"/>
<line x1="-6.5" y1="359.5" x2="396.5" y2="359.5" stroke="#0D0D0D" stroke-width="3" stroke-linecap="round" stroke-dasharray="15 15"/>
<path d="M462 586.457L89 586.457" stroke="black" stroke-width="3" stroke-linecap="round"/>
<path d="M348 636H154" stroke="black" stroke-width="3" stroke-linecap="round" stroke-dasharray="6 6"/>
<path d="M181 616H-13" stroke="#FFCB46" stroke-width="5" stroke-linecap="round"/>
<path d="M422 678H228" stroke="#FFCB46" stroke-width="5" stroke-linecap="round"/>
<path d="M254 560.457L-119 560.457" stroke="black" stroke-width="3" stroke-linecap="round" stroke-dasharray="20 20"/>
<defs>
<clipPath id="clip0_1522_13843">
<rect width="74.5558" height="52.2329" fill="white" transform="translate(22.1724 154.123)"/>
</clipPath>
</defs>
</svg>
