<svg width="1920" height="399" viewBox="0 0 1920 399" fill="none" xmlns="http://www.w3.org/2000/svg">
<g clip-path="url(#clip0_1520_13807)">
<path d="M1049 171L1083 87.5L1134 76L1113.5 124C1100 136 1065.1 159.778 1049 171Z" fill="#FF4412"/>
<path d="M893.805 38.0995C911.043 17.5479 947.295 14.2871 947.295 14.2871C982.551 13.3001 993.562 42.2724 993.562 42.2724" stroke="#0D0D0D" stroke-width="3" stroke-miterlimit="10" stroke-linecap="round" stroke-linejoin="round"/>
<path d="M821.473 143.964C822.271 143.876 822.689 144.744 822.169 145.414C816.714 152.412 810.184 162.947 809.756 174.915C808.342 214.49 874.676 243.823 930.334 243.647C970.931 243.519 1009.52 227.608 1021.38 222.716C1037.08 216.239 1041.43 212.784 1063.86 201.786C1107.63 180.318 1145.99 159.885 1154.47 164.04C1162.4 167.922 1335.4 193.863 1390.23 226.162C1434.92 252.46 1456.15 294.149 1458.03 322.981C1458.61 331.939 1454.75 343.14 1444.39 344.211C1423.14 346.405 1385.65 347.851 1338.04 348.745C1343.18 340.858 1347.29 332.283 1350.11 323.245C1350.4 322.342 1350.67 321.434 1350.93 320.522C1350.93 320.518 1350.93 320.518 1350.93 320.518C1351.31 319.147 1351.67 317.768 1352 316.38C1352.22 315.455 1352.42 314.52 1352.61 313.586C1352.8 312.652 1352.98 311.718 1353.14 310.775C1353.39 309.36 1353.6 307.937 1353.78 306.509L1353.84 306.06C1353.87 305.818 1353.9 305.575 1353.93 305.333C1353.97 304.941 1354.02 304.549 1354.05 304.156C1354.09 303.799 1354.13 303.443 1354.16 303.086C1354.17 302.967 1354.19 302.861 1354.17 302.715C1354.15 302.425 1354.23 302.129 1354.27 301.83C1354.27 301.821 1354.27 301.817 1354.27 301.808C1354.3 301.424 1354.32 301.041 1354.34 300.658C1354.37 300.27 1354.39 299.882 1354.42 299.499C1354.43 299.146 1354.45 298.798 1354.46 298.45C1354.49 297.754 1354.51 297.062 1354.52 296.37C1354.52 296.366 1354.52 296.366 1354.52 296.361C1354.53 296.031 1354.53 295.7 1354.53 295.37C1354.54 294.713 1354.54 294.061 1354.53 293.409C1354.53 293.405 1354.53 293.405 1354.53 293.4C1354.52 293.092 1354.52 292.783 1354.51 292.475C1354.49 291.858 1354.47 291.25 1354.44 290.637C1354.44 290.637 1354.44 290.633 1354.44 290.629C1354.41 290.047 1354.38 289.47 1354.34 288.888V288.884C1351.92 252.359 1326.88 223.783 1291.28 216.97C1291.28 216.97 1291.27 216.97 1291.27 216.97C1290.39 216.799 1289.49 216.64 1288.59 216.499C1288.59 216.495 1288.59 216.495 1288.58 216.499C1287.95 216.393 1287.31 216.301 1286.67 216.217C1286.03 216.129 1285.39 216.05 1284.74 215.975C1283.72 215.856 1282.69 215.759 1281.66 215.679C1279.34 215.499 1277 215.406 1274.61 215.406C1224.47 215.406 1178.47 256.192 1171.88 306.509C1169.82 322.258 1171.87 337.077 1177.21 350.001C1016.46 350.067 836.107 347.657 776.651 346.789C778.329 344.132 779.894 341.4 781.33 338.606C781.687 337.914 782.04 337.214 782.379 336.513C782.881 335.477 783.371 334.433 783.838 333.38C784.098 332.803 784.349 332.225 784.591 331.644C785.935 328.489 787.12 325.263 788.134 321.976C788.315 321.394 788.491 320.808 788.658 320.218C789.341 317.856 789.941 315.468 790.447 313.049C790.606 312.291 790.756 311.528 790.897 310.766C791.161 309.338 791.39 307.906 791.589 306.465C791.716 305.544 791.831 304.623 791.928 303.707C791.959 303.447 791.985 303.191 792.007 302.936C792.047 302.561 792.082 302.191 792.113 301.821C792.183 301.068 792.236 300.314 792.285 299.569C792.316 299.137 792.338 298.71 792.355 298.283C792.404 297.256 792.439 296.229 792.452 295.211C792.465 294.255 792.47 293.308 792.452 292.36C792.435 291.149 792.391 289.946 792.316 288.751C792.285 288.209 792.249 287.667 792.205 287.13C789.663 253.725 768.001 227.237 736.539 218.499C736.032 218.358 735.525 218.222 735.01 218.09C735.005 218.085 735.005 218.085 735.001 218.09C733.943 217.817 732.877 217.561 731.802 217.332H731.797C730.938 217.142 730.07 216.97 729.198 216.812C728.907 216.759 728.612 216.706 728.321 216.658C727.708 216.552 727.091 216.455 726.479 216.362C726.148 216.314 725.818 216.265 725.479 216.221C724.492 216.085 723.496 215.966 722.491 215.864C722.152 215.829 721.821 215.798 721.482 215.768C718.732 215.521 715.93 215.397 713.079 215.406C662.444 215.569 616.155 256.787 609.545 307.571C608.06 318.989 608.739 329.903 611.277 339.941C552.133 339.941 514.502 334.27 490.58 326.898C480.881 323.911 473.641 316.503 471.209 306.655C465.86 285.028 478.268 254.804 536.728 221.897C605.919 182.9 749.401 154.791 749.401 154.791H749.414C762.572 152.275 776.285 149.948 790.522 147.891C801.128 146.357 811.457 145.057 821.473 143.964Z" fill="#2E29FF"/>
<path d="M915.965 94.5196C913.947 93.5326 927.823 93.6251 927.823 93.6251C927.823 93.6251 947.405 94.123 950.652 96.7008C950.824 96.8374 918.379 99.6223 915.965 94.5196Z" stroke="#0D0D0D" stroke-width="1.2598" stroke-miterlimit="10" stroke-linecap="round"/>
<path d="M951.212 90.7876L919.441 87.6238" stroke="#0D0D0D" stroke-width="1.67974" stroke-miterlimit="10" stroke-linecap="round"/>
<path d="M964.528 89.7916L990.469 88.7605" stroke="#0D0D0D" stroke-width="1.67974" stroke-miterlimit="10" stroke-linecap="round"/>
<path d="M994.214 94.1014C996.281 93.1144 983.789 93.2069 983.789 93.2069C983.789 93.2069 966.057 93.7048 962.475 96.2826C962.285 96.4192 990.733 99.2041 994.214 94.1014Z" stroke="#0D0D0D" stroke-width="1.2598" stroke-miterlimit="10" stroke-linecap="round"/>
<path d="M959.324 94.1631L972.217 122.532C972.416 122.968 971.909 123.488 971.464 123.307L952.494 115.561" stroke="#0D0D0D" stroke-width="2.5" stroke-miterlimit="10" stroke-linecap="round"/>
<path d="M936.292 118.328C936.292 118.328 943.175 124.092 959.333 126.004C959.382 126.008 959.377 126.079 959.329 126.088C957.619 126.365 948.771 127.639 945.559 125.004" stroke="#0D0D0D" stroke-width="1.67974" stroke-miterlimit="10" stroke-linecap="round"/>
<path d="M929.074 135.2C929.074 135.2 933.74 136.425 939.085 137.271H939.09H939.094C944.783 138.183 951.238 138.664 953.653 136.804C955.878 135.094 960.518 131.04 965.308 125.634" stroke="#0D0D0D" stroke-width="2.51961" stroke-miterlimit="10" stroke-linecap="round"/>
<path d="M972.041 114.675C975.69 110.365 979.113 105.302 980.933 100.05" stroke="#0D0D0D" stroke-width="2.51961" stroke-miterlimit="10" stroke-linecap="round"/>
<path d="M997.171 67.7903C998.81 74.0298 1000.91 86.5133 1000.91 86.5133C996.298 82.0055 986.639 72.9018 986.6 73.056L983.282 86.8394C983.313 87.2403 974.442 73.1221 974.434 73.2895C974.434 73.2895 966.943 87.2271 966.753 86.8305C966.753 86.8305 961.65 73.0251 961.567 73.175C961.567 73.175 952.494 88.0555 952.309 87.7295L944.033 73.4041C943.937 73.2455 935.15 87.3064 934.903 86.9804L929.166 74.7569C923.266 78.3173 917.137 83.5433 911.236 87.1037C912.527 83.1203 913.823 79.1369 915.114 75.149" stroke="#0D0D0D" stroke-width="2.9395" stroke-miterlimit="10" stroke-linecap="round" stroke-linejoin="round"/>
<path d="M875.725 139.091C875.725 139.091 884.802 128.255 888.922 125.153C893.28 124.995 869.851 83.455 895.867 44.3962" stroke="#0D0D0D" stroke-width="3.35943" stroke-miterlimit="10" stroke-linecap="round" stroke-linejoin="round"/>
<path d="M866.097 139.091C866.097 139.091 875.179 128.255 879.295 125.153C883.652 124.995 860.232 83.455 886.252 44.3962" stroke="#0D0D0D" stroke-width="1.67974" stroke-miterlimit="10" stroke-linecap="round" stroke-linejoin="round"/>
<path d="M923.469 68.3765C919.939 68.3765 916.934 68.1033 914.744 67.905C913.506 67.7904 912.532 67.7023 911.897 67.7023H911.673C908.557 67.7023 902.578 64.772 901.097 61.1675C900.454 59.6076 900.679 58.0434 901.745 56.6509C905.385 51.8876 920.653 48.3227 931.872 48.3227C933.458 48.3227 934.983 48.3932 936.397 48.5254C940.464 48.9132 944.302 49.4552 947.387 49.8958C950.163 50.288 952.353 50.6009 953.349 50.6009C953.552 50.6009 953.626 50.5877 953.631 50.5877C954.97 50.2704 960.315 49.4332 960.54 49.3979L960.624 49.3847H960.708C961.245 49.3935 965.991 49.4816 967.661 50.0589C967.67 50.0589 967.705 50.0633 967.767 50.0633C968.423 50.0633 969.922 49.6931 971.658 49.2657C975.222 48.3888 980.603 47.0625 986.005 47.0625C986.631 47.0625 987.256 47.0801 987.856 47.1154C997.215 47.6706 1001.14 50.0236 1001.84 55.5141C1001.98 56.6157 1001.65 57.6512 1000.88 58.5104C998.797 60.8282 993.571 61.8593 983.934 61.8593C982.951 61.8593 981.978 61.8505 981.03 61.8329C973.887 61.7095 969.882 58.2196 967.489 56.1354C966.78 55.5185 966.172 54.9853 965.744 54.7826C964.268 54.0776 962.549 53.703 960.769 53.703C958.134 53.703 955.715 54.5799 954.887 55.8313C952.009 60.1849 946.664 63.3487 946.44 63.4809L946.395 63.5074L946.351 63.5294C939.618 66.7461 931.92 68.3765 923.469 68.3765Z" fill="#F4B311"/>
<path d="M985.873 48.0449C986.472 48.0449 987.067 48.0625 987.666 48.0977C996.92 48.6441 1000.24 50.9134 1000.86 55.7694C1001.42 60.1185 992.452 60.8808 984.062 60.8808C983.088 60.8808 982.119 60.872 981.176 60.8544C972.116 60.6958 968.384 54.9057 966.255 53.8878C964.577 53.0858 962.691 52.7201 960.897 52.7201C957.905 52.7201 955.169 53.7292 954.085 55.3728C951.331 59.5457 946.025 62.6522 946.025 62.6522C937.975 66.499 929.938 67.3936 923.601 67.3936C918.097 67.3936 913.872 66.7194 912.03 66.7194C911.981 66.7194 911.937 66.7194 911.889 66.7194C911.862 66.7194 911.831 66.7194 911.801 66.7194C908.007 66.7194 899.048 61.674 902.49 57.1706C905.561 53.1475 919.86 49.3007 931.731 49.3007C933.26 49.3007 934.749 49.3668 936.168 49.499C943.976 50.2437 951.009 51.5744 953.212 51.5744C953.433 51.5744 953.605 51.5612 953.724 51.5348C955.041 51.2219 960.558 50.3626 960.558 50.3626C960.558 50.3626 965.652 50.442 967.229 50.9884C967.331 51.0236 967.467 51.0412 967.635 51.0412C969.882 51.0456 977.805 48.0449 985.873 48.0449ZM986.137 46.084C980.616 46.084 975.157 47.428 971.548 48.3181C970.058 48.6838 968.525 49.0627 967.948 49.0848C966.092 48.5163 961.73 48.4194 960.853 48.4062L960.686 48.4018L960.514 48.4282C959.95 48.5163 955.045 49.2831 953.591 49.618C953.569 49.618 953.534 49.6224 953.477 49.6224C952.551 49.6224 950.278 49.3007 947.651 48.9305C944.558 48.4943 940.707 47.9479 936.618 47.5557C935.172 47.4191 933.621 47.3486 932 47.3486C920.503 47.3486 904.944 50.9531 900.987 56.1307C899.696 57.8183 899.41 59.7792 900.176 61.6431C901.829 65.6618 908.209 68.6846 911.536 68.6846C911.58 68.6846 911.62 68.6846 911.664 68.6846H911.761C912.351 68.6846 913.356 68.7772 914.519 68.8829C916.731 69.0856 919.759 69.3588 923.332 69.3588C931.938 69.3588 939.79 67.6932 946.669 64.4016L946.757 64.3619L946.841 64.3134C947.079 64.1768 952.653 60.872 955.68 56.2937C956.196 55.5138 958.104 54.6854 960.628 54.6854C962.268 54.6854 963.854 55.0291 965.216 55.6812C965.542 55.8354 966.167 56.3863 966.775 56.915C969.256 59.0742 973.403 62.6875 980.872 62.8197C981.92 62.8373 982.877 62.8461 983.789 62.8461C993.893 62.8461 999.207 61.7313 1001.56 59.1138C1002.56 58.0078 1002.99 56.6771 1002.81 55.2714C1002.41 52.231 1001.06 50.0498 998.665 48.6089C996.36 47.2208 992.981 46.4409 988.032 46.1457C987.428 46.1016 986.785 46.084 986.137 46.084Z" fill="#0D0D0D"/>
<path d="M940.703 147.388C951.252 157.338 1026.95 177.193 1026.95 177.193" stroke="#0D0D0D" stroke-width="1.76258" stroke-miterlimit="10" stroke-linecap="round"/>
<path d="M899.652 98.7898C902.15 113.578 916.696 132.138 931.837 143.255" stroke="#0D0D0D" stroke-width="2.51961" stroke-miterlimit="10" stroke-linecap="round"/>
<path d="M940.848 137.165C937.472 140.056 924.39 156.351 933.15 163.102" stroke="#0D0D0D" stroke-width="2.20322" stroke-miterlimit="10" stroke-linecap="round"/>
<path d="M901.64 212.974C968.115 235.055 1014.7 220.222 1024.98 216.671" stroke="#0D0D0D" stroke-width="1.76258" stroke-miterlimit="10" stroke-linecap="round"/>
<path d="M1067.97 156.906C1092.94 140.14 1111.81 123.32 1117.52 122.677C1121.49 122.232 1124.96 123.263 1124.96 123.263C1127.19 123.933 1130.48 124.911 1131.99 127.854C1132.46 128.767 1132.64 129.635 1131.91 137.721C1131.29 144.511 1131.19 145.04 1130.84 145.771C1130.27 146.978 1128.06 151.024 1120.13 153.487" stroke="#0D0D0D" stroke-width="3.52516" stroke-miterlimit="10" stroke-linecap="round"/>
<path d="M910.29 155.567C910.29 155.567 946.321 202.108 1000.89 191.025C1021.35 186.87 1041.63 176.691 1059.53 165.53" stroke="#0D0D0D" stroke-width="2.64387" stroke-miterlimit="10" stroke-linecap="round"/>
<path d="M792.963 369.769C801.014 362.723 808.069 354.518 813.779 345.467C815.458 342.81 817.018 340.078 818.455 337.284C818.811 336.592 819.16 335.892 819.499 335.191C820.001 334.156 820.49 333.111 820.957 332.058C821.217 331.481 821.469 330.904 821.711 330.322C823.05 327.167 824.236 323.942 825.245 320.654C825.426 320.073 825.597 319.487 825.769 318.896C826.452 316.534 827.047 314.146 827.549 311.727C827.708 310.969 827.854 310.207 827.995 309.444C828.259 308.017 828.484 306.585 828.682 305.144C828.81 304.223 828.92 303.302 829.017 302.385C829.048 302.125 829.074 301.87 829.096 301.614C829.136 301.24 829.171 300.869 829.202 300.499C829.272 299.746 829.325 298.992 829.369 298.248C829.396 297.816 829.422 297.388 829.44 296.961C829.488 295.934 829.524 294.908 829.537 293.89C829.55 292.933 829.55 291.986 829.532 291.039C829.515 289.827 829.471 288.624 829.396 287.43C827.325 252.813 804.759 225.242 772.041 216.768C772.037 216.764 772.037 216.764 772.033 216.768C770.975 216.495 769.909 216.244 768.834 216.01H768.829C767.97 215.825 767.102 215.653 766.225 215.49C765.934 215.437 765.639 215.384 765.348 215.336C764.736 215.23 764.119 215.133 763.506 215.041C763.176 214.992 762.845 214.944 762.506 214.9C761.519 214.763 760.523 214.644 759.518 214.543C759.179 214.507 758.849 214.477 758.509 214.446C755.857 214.208 753.155 214.084 750.406 214.084C731.604 214.084 713.334 219.822 697.462 229.644C671.002 246.014 651.208 273.739 646.779 305.188C645.118 316.988 645.77 328.269 648.392 338.619H648.397C656.967 372.39 686.539 396.287 725.051 396.287C735.389 396.287 745.568 394.564 755.271 391.391M755.011 289.986C758.351 293.876 760.007 299.252 759.183 305.188C757.535 317.059 746.59 326.682 734.732 326.682C722.874 326.682 714.608 317.059 716.265 305.188C717.498 296.34 723.901 288.734 731.982 285.438" stroke="#0D0D0D" stroke-width="5.28773" stroke-miterlimit="10" stroke-linecap="round" stroke-linejoin="round"/>
<path d="M793.814 302.385C793.845 302.125 793.871 301.87 793.893 301.614C793.933 301.24 793.968 300.869 793.999 300.499C794.07 299.746 794.122 298.992 794.171 298.248C794.202 297.816 794.224 297.388 794.241 296.961C794.29 295.934 794.325 294.908 794.338 293.89C794.352 292.933 794.356 291.986 794.338 291.039C794.321 289.827 794.277 288.624 794.202 287.43C792.153 252.813 769.605 225.242 736.896 216.768C736.892 216.764 736.891 216.764 736.887 216.768C735.83 216.495 734.763 216.244 733.692 216.01H733.688C732.829 215.825 731.961 215.653 731.088 215.49C730.797 215.437 730.502 215.384 730.211 215.336C729.599 215.23 728.982 215.133 728.369 215.041C728.039 214.992 727.708 214.944 727.369 214.9C726.382 214.763 725.386 214.644 724.382 214.543C724.042 214.507 723.712 214.477 723.372 214.446C720.72 214.208 718.019 214.084 715.269 214.084C665.128 214.084 618.702 254.871 611.581 305.188C609.911 316.988 610.554 328.269 613.172 338.619H613.176C621.725 372.39 651.279 396.287 689.791 396.287C725.642 396.287 759.532 375.576 778.554 345.467C780.233 342.81 781.798 340.078 783.234 337.284C783.591 336.592 783.944 335.892 784.278 335.191C784.781 334.156 785.27 333.111 785.737 332.058C785.997 331.481 786.248 330.904 786.49 330.322C787.834 327.167 789.02 323.942 790.029 320.654C790.209 320.073 790.386 319.487 790.553 318.896C791.236 316.534 791.835 314.146 792.338 311.727C792.496 310.969 792.646 310.207 792.783 309.444C793.047 308.017 793.276 306.585 793.475 305.144C793.607 304.223 793.721 303.302 793.814 302.385Z" stroke="#0D0D0D" stroke-width="2.64387" stroke-miterlimit="10" stroke-linecap="round"/>
<path d="M767.586 302.385C767.617 302.125 767.644 301.87 767.666 301.614C767.705 301.24 767.741 300.869 767.771 300.499C767.842 299.746 767.895 298.992 767.943 298.248C767.974 297.816 767.996 297.388 768.018 296.961C768.067 295.934 768.106 294.908 768.12 293.89C768.133 292.933 768.137 291.986 768.12 291.039C768.102 289.827 768.058 288.624 767.987 287.43C765.956 252.813 743.421 225.242 710.712 216.768C710.708 216.764 710.708 216.764 710.704 216.768C709.65 216.495 708.58 216.244 707.509 216.01H707.504C706.645 215.825 705.777 215.653 704.905 215.49C704.614 215.437 704.319 215.384 704.028 215.336C703.415 215.23 702.798 215.133 702.186 215.041C701.855 214.992 701.525 214.944 701.186 214.9C700.199 214.763 699.203 214.644 698.198 214.543C697.859 214.507 697.528 214.477 697.189 214.446C694.536 214.208 691.835 214.084 689.086 214.084C638.945 214.084 592.501 254.871 585.353 305.188C583.679 316.988 584.313 328.269 586.927 338.619H586.931C595.462 372.39 625.007 396.287 663.519 396.287C699.37 396.287 733.273 375.576 752.309 345.467C753.988 342.81 755.552 340.078 756.993 337.284C757.35 336.592 757.703 335.892 758.042 335.191C758.549 334.156 759.033 333.111 759.501 332.058C759.76 331.481 760.012 330.904 760.254 330.322C761.598 327.167 762.783 323.942 763.801 320.654C763.982 320.073 764.158 319.487 764.326 318.896C765.009 316.534 765.608 314.146 766.115 311.727C766.273 310.969 766.423 310.207 766.564 309.444C766.828 308.017 767.058 306.585 767.256 305.144C767.375 304.223 767.489 303.302 767.586 302.385Z" stroke="#0D0D0D" stroke-width="2" stroke-miterlimit="10" stroke-linecap="round" stroke-linejoin="round"/>
<path d="M1330.19 302.385C1330.22 302.125 1330.25 301.87 1330.26 301.614C1330.3 301.24 1330.33 300.869 1330.36 300.499C1330.42 299.746 1330.47 298.992 1330.51 298.248C1330.53 297.816 1330.55 297.388 1330.56 296.961C1330.6 295.934 1330.63 294.908 1330.63 293.89C1330.63 292.933 1330.63 291.986 1330.6 291.039C1330.57 289.827 1330.51 288.624 1330.43 287.43C1328.03 252.813 1305.2 225.242 1272.41 216.768C1272.41 216.764 1272.41 216.764 1272.4 216.768C1271.35 216.495 1270.27 216.244 1269.2 216.01H1269.19C1268.33 215.825 1267.46 215.653 1266.59 215.49C1266.3 215.437 1266 215.384 1265.7 215.336C1265.09 215.23 1264.48 215.133 1263.86 215.041C1263.53 214.992 1263.19 214.944 1262.86 214.9C1261.87 214.763 1260.87 214.644 1259.87 214.543C1259.53 214.507 1259.19 214.477 1258.86 214.446C1256.2 214.208 1253.5 214.084 1250.75 214.084C1200.61 214.084 1154.59 254.871 1147.98 305.188C1146.43 316.988 1147.18 328.269 1149.9 338.619H1149.91C1158.8 372.39 1188.59 396.287 1227.1 396.287C1262.96 396.287 1296.64 375.576 1315.36 345.467C1317.01 342.81 1318.54 340.078 1319.95 337.284C1320.3 336.592 1320.64 335.892 1320.98 335.191C1321.47 334.156 1321.95 333.111 1322.41 332.058C1322.66 331.481 1322.9 330.904 1323.14 330.322C1324.45 327.167 1325.61 323.942 1326.58 320.654C1326.76 320.073 1326.93 319.487 1327.09 318.896C1327.75 316.534 1328.32 314.146 1328.81 311.727C1328.95 310.969 1329.1 310.207 1329.23 309.444C1329.47 308.017 1329.69 306.585 1329.88 305.144C1330 304.223 1330.11 303.302 1330.19 302.385Z" stroke="#0D0D0D" stroke-width="2" stroke-miterlimit="10" stroke-linecap="round" stroke-linejoin="round"/>
<path d="M1354.32 302.385C1354.35 302.125 1354.38 301.87 1354.39 301.614C1354.43 301.24 1354.46 300.869 1354.49 300.499C1354.55 299.746 1354.6 298.992 1354.63 298.248C1354.65 297.816 1354.67 297.388 1354.69 296.961C1354.73 295.934 1354.75 294.908 1354.75 293.89C1354.76 292.933 1354.75 291.986 1354.72 291.039C1354.69 289.827 1354.64 288.624 1354.55 287.43C1352.14 252.813 1329.3 225.242 1296.5 216.768C1296.5 216.764 1296.5 216.764 1296.49 216.768C1295.43 216.495 1294.36 216.244 1293.29 216.01H1293.28C1292.42 215.825 1291.55 215.653 1290.68 215.49C1290.38 215.437 1290.09 215.384 1289.79 215.336C1289.18 215.23 1288.57 215.133 1287.95 215.041C1287.62 214.992 1287.28 214.944 1286.95 214.9C1285.96 214.763 1284.96 214.644 1283.96 214.543C1283.62 214.507 1283.28 214.477 1282.95 214.446C1280.29 214.208 1277.59 214.084 1274.84 214.084C1224.7 214.084 1178.7 254.871 1172.11 305.188C1170.56 316.988 1171.32 328.269 1174.05 338.619H1174.05C1182.95 372.39 1212.76 396.287 1251.27 396.287C1287.12 396.287 1320.8 375.576 1339.5 345.467C1341.16 342.81 1342.69 340.078 1344.1 337.284C1344.44 336.592 1344.79 335.892 1345.12 335.191C1345.61 334.156 1346.09 333.111 1346.55 332.058C1346.8 331.481 1347.04 330.904 1347.28 330.322C1348.59 327.167 1349.74 323.942 1350.72 320.654C1350.89 320.073 1351.06 319.487 1351.22 318.896C1351.88 316.534 1352.45 314.146 1352.93 311.727C1353.08 310.969 1353.23 310.207 1353.36 309.444C1353.6 308.017 1353.82 306.585 1354.01 305.144C1354.13 304.223 1354.23 303.302 1354.32 302.385Z" stroke="#0D0D0D" stroke-width="2.64387" stroke-miterlimit="10" stroke-linecap="round"/>
<path d="M1249.62 236.438C1267.37 222.514 1289.3 214.084 1312.1 214.084C1314.48 214.084 1316.83 214.177 1319.14 214.358C1320.18 214.437 1321.2 214.534 1322.23 214.653C1322.87 214.728 1323.52 214.807 1324.16 214.895C1324.8 214.983 1325.43 215.076 1326.07 215.177C1326.07 215.173 1326.08 215.173 1326.08 215.177C1326.98 215.318 1327.87 215.477 1328.76 215.649C1328.76 215.649 1328.76 215.649 1328.76 215.649C1364.28 222.514 1389.37 251.156 1391.87 287.562V287.566C1391.91 288.144 1391.95 288.725 1391.98 289.307C1391.98 289.311 1391.98 289.316 1391.98 289.316C1392 289.928 1392.03 290.541 1392.05 291.153C1392.05 291.462 1392.06 291.77 1392.06 292.079C1392.06 292.083 1392.06 292.083 1392.06 292.087C1392.08 292.74 1392.08 293.392 1392.07 294.048C1392.07 294.379 1392.07 294.709 1392.06 295.04C1392.06 295.044 1392.06 295.044 1392.06 295.049C1392.05 295.74 1392.03 296.432 1392 297.128C1391.99 297.476 1391.97 297.825 1391.95 298.177C1391.94 298.56 1391.91 298.948 1391.89 299.336C1391.87 299.719 1391.84 300.103 1391.81 300.486C1391.81 300.499 1391.81 300.513 1391.8 300.53C1391.78 300.874 1391.75 301.222 1391.72 301.57C1391.72 301.636 1391.71 301.698 1391.7 301.764C1391.67 302.121 1391.63 302.478 1391.6 302.835C1391.56 303.227 1391.51 303.619 1391.47 304.011C1391.42 304.403 1391.38 304.796 1391.33 305.188C1391.15 306.615 1390.94 308.039 1390.69 309.453C1390.53 310.396 1390.35 311.33 1390.16 312.264C1389.97 313.199 1389.77 314.133 1389.55 315.058C1389.22 316.446 1388.86 317.825 1388.48 319.196C1388.48 319.196 1388.48 319.196 1388.48 319.2C1388.23 320.112 1387.96 321.02 1387.67 321.923C1384.85 330.961 1380.75 339.536 1375.61 347.424C1373.5 350.667 1371.22 353.795 1368.78 356.792C1366.11 360.061 1363.25 363.177 1360.24 366.116M1351.95 373.417C1354.83 371.126 1357.6 368.689 1360.24 366.116M1340.83 381.195C1337.32 383.34 1333.69 385.284 1329.95 387.007C1326.34 388.677 1322.62 390.144 1318.84 391.387M1304 395.026C1298.96 395.855 1293.83 396.287 1288.66 396.287C1254.1 396.287 1226.53 377.039 1214.79 348.679C1209.45 335.755 1207.38 320.936 1209.44 305.188C1210.43 297.631 1212.3 290.29 1214.95 283.266C1217.24 277.18 1220.11 271.337 1223.48 265.803M1237.98 246.979C1235.49 249.578 1233.12 252.297 1230.9 255.131" stroke="#0D0D0D" stroke-width="5.28773" stroke-miterlimit="10" stroke-linecap="round" stroke-linejoin="round"/>
<path d="M1209.44 305.187C1207.39 320.935 1209.45 335.754 1214.79 348.678C1054.05 348.744 873.703 346.334 814.242 345.466" stroke="#0D0D0D" stroke-width="5.28773" stroke-miterlimit="10" stroke-linecap="round"/>
<path d="M648.855 338.619C589.716 338.619 552.076 332.948 528.149 325.576C518.446 322.588 511.206 315.181 508.765 305.333C503.403 283.706 515.789 253.482 574.223 220.575C643.387 181.578 786.843 153.469 786.843 153.469H786.856C800.009 150.953 813.722 148.626 827.959 146.569C838.579 145.035 848.908 143.735 858.923 142.642C859.721 142.554 860.14 143.422 859.62 144.092C854.169 151.09 847.647 161.625 847.229 173.593C845.845 213.168 912.193 242.501 967.851 242.325C1008.44 242.197 1047.03 226.286 1058.87 221.394C1074.57 214.917 1078.92 211.462 1101.34 200.464C1145.1 178.996 1183.45 158.563 1191.93 162.718C1199.86 166.6 1372.88 192.541 1427.73 224.84C1472.44 251.138 1493.69 292.827 1495.59 321.659C1496.18 330.617 1492.33 341.818 1481.97 342.889C1460.72 345.083 1423.23 346.529 1375.62 347.423" stroke="#0D0D0D" stroke-width="6" stroke-miterlimit="10" stroke-linecap="round"/>
<path d="M1118.43 179.414C1135.38 145.119 1151.45 114.133 1154.04 114.983C1154.09 114.997 1154.12 115.014 1154.14 115.032C1156.87 116.913 1177.09 143.224 1191.93 162.723" stroke="#0D0D0D" stroke-width="2.20322" stroke-miterlimit="10" stroke-linecap="round"/>
<path d="M1321.85 305.186C1320.33 317.057 1309.47 326.681 1297.62 326.681C1285.77 326.681 1277.39 317.057 1278.93 305.186C1280.46 293.315 1291.31 283.687 1303.15 283.687C1314.99 283.687 1323.37 293.315 1321.85 305.186Z" stroke="#0D0D0D" stroke-width="3.08451" stroke-miterlimit="10" stroke-linecap="round" stroke-linejoin="round"/>
<path d="M604.143 298.863H165.15" stroke="#0D0D0D" stroke-width="4.40645" stroke-miterlimit="10" stroke-linecap="round"/>
<path d="M574.959 236.438H274.8" stroke="#0D0D0D" stroke-width="5" stroke-miterlimit="10" stroke-linecap="round"/>
<path d="M643.999 158.753H637.42" stroke="#0D0D0D" stroke-width="3.9658" stroke-miterlimit="10" stroke-linecap="round"/>
<path d="M624.893 158.753H405.667" stroke="#0D0D0D" stroke-width="3.9658" stroke-miterlimit="10" stroke-linecap="round" stroke-dasharray="12.58 12.58"/>
<path d="M399.406 158.753H392.823" stroke="#0D0D0D" stroke-width="3.9658" stroke-miterlimit="10" stroke-linecap="round"/>
<path d="M1085.34 151.363C1085.34 151.363 1095.51 159.568 1101.96 159.092" stroke="#0D0D0D" stroke-width="2.64387" stroke-miterlimit="10" stroke-linecap="round"/>
<path d="M941.645 95.1057C941.645 95.1057 940.209 97.5821 938.847 97.5821C937.485 97.5821 936.723 95.1057 936.723 95.1057H941.645Z" fill="#0D0D0D" stroke="#0D0D0D" stroke-width="1.67974" stroke-miterlimit="10" stroke-linecap="round"/>
<path d="M987.376 93.969C987.376 93.969 985.939 96.4454 984.578 96.4454C983.216 96.4454 982.449 93.969 982.449 93.969H987.376Z" fill="#0D0D0D" stroke="#0D0D0D" stroke-width="1.67974" stroke-miterlimit="10" stroke-linecap="round"/>
<path d="M459.051 306.959C452.86 286.843 463.228 257.761 517.507 223.88C581.749 183.733 717.56 150.182 717.56 150.182H717.573C730.026 147.164 743.025 144.295 756.535 141.655C766.612 139.686 776.425 137.954 785.948 136.429" stroke="#0D0D0D" stroke-width="2.20322" stroke-miterlimit="10" stroke-linecap="round"/>
<path d="M1121.73 161.304C1124.14 166.755 1107.23 181.331 1083.93 193.868C1060.63 206.404 1040.23 208.757 1037.38 206.699" stroke="#0D0D0D" stroke-width="5" stroke-miterlimit="10" stroke-linecap="round"/>
<path d="M1119.22 152.812C1121.63 158.263 1104.72 172.84 1081.42 185.376C1058.12 197.912 1039.39 201.786 1034.87 198.208" stroke="#0D0D0D" stroke-width="1.76258" stroke-miterlimit="10" stroke-linecap="round"/>
<path d="M1120.13 153.491C1120.13 153.491 1116.35 147.891 1110.03 153.491C1103.72 159.092 1087.64 170.606 1059.64 184.557" stroke="#0D0D0D" stroke-width="1.76258" stroke-miterlimit="10" stroke-linecap="round"/>
<path d="M334.054 314.153H761.646" stroke="#0D0D0D" stroke-width="3.9658" stroke-miterlimit="10" stroke-linecap="round" stroke-dasharray="22.03 22.03"/>
<path d="M1077.76 83.5301L1091.85 54.9763C1091.85 54.9763 1133.83 75.506 1134.31 75.2372C1134.34 75.2239 1134.37 75.246 1134.36 75.2768" stroke="#0D0D0D" stroke-width="1.76258" stroke-miterlimit="10" stroke-linecap="round"/>
<path d="M1072.8 89.2054L1095.3 84.4641L1108.7 81.6352L1122.11 78.8106L1134.68 76.158L1131.54 83.2656L1128.2 90.8358L1124.85 98.4105L1113.2 124.765" stroke="#0D0D0D" stroke-width="3.08451" stroke-miterlimit="10" stroke-linecap="round" stroke-linejoin="round"/>
<path d="M1042.69 166.622L1072.54 95.1631" stroke="#0D0D0D" stroke-width="2.20322" stroke-miterlimit="10" stroke-linecap="round" stroke-linejoin="round"/>
<path d="M1121.67 78.8106L1093.1 65.3225" stroke="#0D0D0D" stroke-width="1.32193" stroke-miterlimit="10" stroke-linecap="round" stroke-linejoin="round"/>
<path d="M1108.27 81.6352L1088.98 72.5315" stroke="#0D0D0D" stroke-width="1.32193" stroke-miterlimit="10" stroke-linecap="round" stroke-linejoin="round"/>
<path d="M1094.86 84.4642L1084.86 79.7405" stroke="#0D0D0D" stroke-width="1.32193" stroke-miterlimit="10" stroke-linecap="round" stroke-linejoin="round"/>
<path d="M1488.7 70.9849H1345.36" stroke="#0D0D0D" stroke-width="3.52516" stroke-miterlimit="10" stroke-linecap="round"/>
<path d="M1753.15 150L1458.15 150" stroke="#0D0D0D" stroke-width="3.08451" stroke-miterlimit="10" stroke-linecap="round" stroke-dasharray="40 40"/>
<path d="M990.15 373L452.15 373" stroke="#0D0D0D" stroke-width="7" stroke-miterlimit="10" stroke-linecap="round" stroke-dasharray="70 70"/>
</g>
<path d="M1962 212L1667 212" stroke="#0D0D0D" stroke-width="3.08451" stroke-miterlimit="10" stroke-linecap="round"/>
<path d="M2060 244L1765 244" stroke="#0D0D0D" stroke-width="6" stroke-miterlimit="10" stroke-linecap="round"/>
<path d="M2040.55 100L1635 101.776" stroke="#0D0D0D" stroke-width="5" stroke-miterlimit="10" stroke-linecap="round" stroke-dasharray="80 80"/>
<path d="M1828 65H1667" stroke="#0D0D0D" stroke-width="3" stroke-miterlimit="10" stroke-linecap="round"/>
<path d="M246 161H-119" stroke="#0D0D0D" stroke-width="3.08451" stroke-miterlimit="10" stroke-linecap="round"/>
<path d="M192.62 212H-22" stroke="#0D0D0D" stroke-width="6" stroke-miterlimit="10" stroke-linecap="round" stroke-dasharray="70 70"/>
<path d="M314 71H-153" stroke="#0D0D0D" stroke-width="5" stroke-miterlimit="10" stroke-linecap="round"/>
<defs>
<clipPath id="clip0_1520_13807">
<rect width="1624.15" height="385.93" fill="white" transform="translate(131 13)"/>
</clipPath>
</defs>
</svg>
