<svg width="390" height="662" viewBox="0 0 390 662" fill="none" xmlns="http://www.w3.org/2000/svg">
<line x1="293" y1="1" x2="458" y2="1" stroke="#0D0D0D" stroke-width="2" stroke-dasharray="10 10"/>
<line x1="-51" y1="51" x2="114" y2="51" stroke="#0D0D0D" stroke-width="2" stroke-dasharray="30 30"/>
<line x1="236" y1="17.5" x2="295" y2="17.5" stroke="#0D0D0D" stroke-dasharray="30 30"/>
<line x1="301" y1="32.25" x2="360" y2="32.25" stroke="#0D0D0D" stroke-width="1.5"/>
<line x1="64" y1="12.25" x2="162" y2="12.25" stroke="#0D0D0D" stroke-width="1.5" stroke-dasharray="20 20"/>
<line x1="4" y1="25.5" x2="102" y2="25.5" stroke="#0D0D0D"/>
<path d="M210 193L16 193" stroke="#0D0D0D" stroke-width="2" stroke-linecap="round" stroke-dasharray="6 6"/>
<path d="M328 170H226" stroke="#0D0D0D" stroke-width="2" stroke-linecap="round"/>
<line x1="112" y1="419" x2="278" y2="419" stroke="#0D0D0D" stroke-width="2" stroke-linecap="round" stroke-dasharray="15 15"/>
<path d="M163.125 56.103C168.262 49.979 179.064 49.0073 179.064 49.0073C189.57 48.7132 192.851 57.3465 192.851 57.3465" stroke="#0D0D0D" stroke-miterlimit="10" stroke-linecap="round" stroke-linejoin="round"/>
<path d="M141.572 87.6493C141.809 87.6231 141.934 87.8817 141.779 88.0813C140.153 90.1664 138.208 93.3059 138.08 96.8721C137.659 108.665 157.425 117.405 174.01 117.353C186.107 117.315 197.607 112.573 201.139 111.116C205.817 109.186 207.113 108.156 213.798 104.879C226.84 98.4819 238.273 92.3933 240.799 93.6315C243.16 94.7883 294.713 102.518 311.05 112.143C324.368 119.979 330.693 132.402 331.253 140.993C331.428 143.662 330.275 147 327.189 147.319C320.858 147.973 309.685 148.404 295.498 148.67C297.03 146.32 298.254 143.765 299.097 141.072C299.181 140.802 299.261 140.532 299.339 140.26C299.339 140.259 299.339 140.259 299.339 140.259C299.454 139.851 299.56 139.44 299.658 139.026C299.723 138.75 299.785 138.472 299.84 138.193C299.898 137.915 299.95 137.637 299.999 137.356C300.073 136.934 300.136 136.51 300.191 136.085L300.208 135.951C300.217 135.879 300.225 135.806 300.233 135.734C300.246 135.617 300.26 135.5 300.271 135.384C300.281 135.277 300.293 135.171 300.302 135.065C300.305 135.029 300.31 134.998 300.306 134.954C300.298 134.868 300.322 134.78 300.334 134.69C300.334 134.688 300.334 134.686 300.334 134.684C300.343 134.569 300.351 134.455 300.358 134.341C300.365 134.225 300.372 134.11 300.379 133.996C300.384 133.891 300.389 133.787 300.393 133.683C300.401 133.476 300.406 133.27 300.41 133.063C300.41 133.062 300.41 133.062 300.41 133.061C300.413 132.962 300.413 132.864 300.414 132.765C300.415 132.57 300.415 132.375 300.411 132.181C300.411 132.18 300.411 132.18 300.411 132.178C300.41 132.087 300.409 131.995 300.406 131.903C300.402 131.719 300.396 131.538 300.385 131.355C300.385 131.355 300.385 131.354 300.385 131.353C300.377 131.179 300.368 131.007 300.356 130.834V130.833C299.634 119.949 292.173 111.434 281.565 109.404C281.564 109.404 281.563 109.404 281.563 109.404C281.299 109.353 281.032 109.305 280.764 109.263C280.764 109.262 280.763 109.262 280.762 109.263C280.574 109.232 280.384 109.204 280.193 109.179C280.001 109.153 279.81 109.129 279.617 109.107C279.312 109.072 279.006 109.043 278.698 109.019C278.008 108.965 277.31 108.938 276.598 108.938C261.657 108.938 247.951 121.091 245.987 136.085C245.373 140.778 245.983 145.193 247.573 149.044C199.674 149.064 145.932 148.346 128.215 148.087C128.716 147.295 129.182 146.481 129.61 145.649C129.716 145.443 129.821 145.234 129.922 145.025C130.072 144.717 130.218 144.405 130.357 144.092C130.434 143.92 130.509 143.748 130.581 143.574C130.982 142.634 131.335 141.673 131.637 140.694C131.691 140.52 131.743 140.346 131.793 140.17C131.997 139.466 132.175 138.754 132.326 138.033C132.374 137.807 132.418 137.58 132.46 137.353C132.539 136.928 132.607 136.501 132.667 136.072C132.705 135.797 132.739 135.523 132.768 135.25C132.777 135.172 132.785 135.096 132.791 135.02C132.803 134.908 132.814 134.798 132.823 134.688C132.844 134.463 132.86 134.239 132.874 134.017C132.883 133.888 132.89 133.761 132.895 133.633C132.909 133.327 132.92 133.021 132.924 132.718C132.928 132.433 132.929 132.151 132.924 131.869C132.919 131.507 132.905 131.149 132.883 130.793C132.874 130.632 132.863 130.47 132.85 130.31C132.093 120.356 125.638 112.463 116.263 109.859C116.112 109.817 115.961 109.777 115.807 109.737C115.806 109.736 115.806 109.736 115.804 109.737C115.489 109.656 115.172 109.58 114.851 109.511H114.85C114.594 109.455 114.335 109.404 114.075 109.356C113.989 109.341 113.901 109.325 113.814 109.311C113.631 109.279 113.448 109.25 113.265 109.223C113.167 109.208 113.068 109.194 112.967 109.181C112.673 109.14 112.376 109.104 112.077 109.074C111.976 109.064 111.877 109.054 111.776 109.045C110.957 108.972 110.122 108.935 109.272 108.938C94.1839 108.986 80.3905 121.268 78.4209 136.401C77.9784 139.803 78.1806 143.056 78.9369 146.047C61.3133 146.047 50.0999 144.357 42.9714 142.16C40.0814 141.27 37.9241 139.063 37.1993 136.128C35.6053 129.684 39.3028 120.678 56.7229 110.872C77.3403 99.2513 120.095 90.8755 120.095 90.8755H120.099C124.02 90.1257 128.106 89.4324 132.349 88.8192C135.509 88.3623 138.587 87.9749 141.572 87.6493Z" fill="#2E29FF"/>
<path d="M169.729 72.9157C169.127 72.6216 173.262 72.6491 173.262 72.6491C173.262 72.6491 179.097 72.7975 180.065 73.5656C180.116 73.6063 170.448 74.4362 169.729 72.9157Z" stroke="#0D0D0D" stroke-width="0.375398" stroke-miterlimit="10" stroke-linecap="round"/>
<path d="M180.232 71.8031L170.765 70.8604" stroke="#0D0D0D" stroke-width="0.500531" stroke-miterlimit="10" stroke-linecap="round"/>
<path d="M184.2 71.5065L191.93 71.1992" stroke="#0D0D0D" stroke-width="0.500531" stroke-miterlimit="10" stroke-linecap="round"/>
<path d="M193.046 72.7907C193.661 72.4966 189.939 72.5241 189.939 72.5241C189.939 72.5241 184.655 72.6725 183.588 73.4406C183.531 73.4813 192.008 74.3112 193.046 72.7907Z" stroke="#0D0D0D" stroke-width="0.375398" stroke-miterlimit="10" stroke-linecap="round"/>
<path d="M182.649 72.8096L186.491 81.2629C186.55 81.3929 186.399 81.5479 186.266 81.494L180.614 79.1857" stroke="#0D0D0D" stroke-width="0.744954" stroke-miterlimit="10" stroke-linecap="round"/>
<path d="M175.786 80.0098C175.786 80.0098 177.837 81.7272 182.652 82.2971C182.666 82.2984 182.665 82.3194 182.651 82.322C182.141 82.4048 179.505 82.7842 178.547 81.999" stroke="#0D0D0D" stroke-width="0.500531" stroke-miterlimit="10" stroke-linecap="round"/>
<path d="M173.635 85.0381C173.635 85.0381 175.026 85.4031 176.618 85.6552H176.62H176.621C178.316 85.927 180.24 86.0702 180.959 85.5161C181.622 85.0066 183.005 83.7986 184.432 82.1875" stroke="#0D0D0D" stroke-width="0.750796" stroke-miterlimit="10" stroke-linecap="round"/>
<path d="M186.438 78.9215C187.525 77.6373 188.545 76.1286 189.088 74.5635" stroke="#0D0D0D" stroke-width="0.750796" stroke-miterlimit="10" stroke-linecap="round"/>
<path d="M193.927 64.9502C194.416 66.8095 195.041 70.5293 195.041 70.5293C193.667 69.1861 190.789 66.4733 190.777 66.5193L189.789 70.6265C189.798 70.746 187.155 66.539 187.152 66.5889C187.152 66.5889 184.92 70.742 184.863 70.6238C184.863 70.6238 183.343 66.5101 183.318 66.5547C183.318 66.5547 180.614 70.9889 180.559 70.8917L178.093 66.623C178.064 66.5757 175.446 70.7657 175.373 70.6685L173.663 67.0261C171.905 68.087 170.078 69.6443 168.32 70.7053C168.705 69.5183 169.091 68.3313 169.476 67.143" stroke="#0D0D0D" stroke-width="0.875916" stroke-miterlimit="10" stroke-linecap="round" stroke-linejoin="round"/>
<path d="M157.737 86.1967C157.737 86.1967 160.442 82.968 161.67 82.0436C162.968 81.9963 155.987 69.6183 163.739 57.9795" stroke="#0D0D0D" stroke-width="1.00105" stroke-miterlimit="10" stroke-linecap="round" stroke-linejoin="round"/>
<path d="M154.869 86.1967C154.869 86.1967 157.575 82.968 158.801 82.0436C160.1 81.9963 153.121 69.6183 160.874 57.9795" stroke="#0D0D0D" stroke-width="0.500531" stroke-miterlimit="10" stroke-linecap="round" stroke-linejoin="round"/>
<path d="M171.966 65.1256C170.914 65.1256 170.019 65.0442 169.366 64.9851C168.997 64.951 168.707 64.9247 168.518 64.9247H168.451C167.523 64.9247 165.741 64.0515 165.3 62.9775C165.108 62.5126 165.175 62.0465 165.493 61.6316C166.577 60.2122 171.127 59.1499 174.47 59.1499C174.943 59.1499 175.397 59.171 175.819 59.2103C177.031 59.3259 178.174 59.4874 179.093 59.6187C179.921 59.7356 180.573 59.8288 180.87 59.8288C180.93 59.8288 180.953 59.8248 180.954 59.8248C181.353 59.7303 182.946 59.4808 183.013 59.4703L183.038 59.4664H183.063C183.223 59.469 184.637 59.4953 185.135 59.6673C185.137 59.6673 185.148 59.6686 185.166 59.6686C185.362 59.6686 185.808 59.5583 186.326 59.4309C187.388 59.1696 188.991 58.7744 190.601 58.7744C190.787 58.7744 190.974 58.7797 191.152 58.7902C193.941 58.9556 195.11 59.6568 195.32 61.2928C195.362 61.6211 195.263 61.9296 195.034 62.1857C194.413 62.8764 192.855 63.1836 189.984 63.1836C189.691 63.1836 189.401 63.181 189.118 63.1757C186.99 63.139 185.796 62.099 185.083 61.478C184.872 61.2941 184.691 61.1353 184.563 61.0749C184.124 60.8648 183.611 60.7532 183.081 60.7532C182.296 60.7532 181.575 61.0145 181.328 61.3874C180.471 62.6846 178.878 63.6274 178.811 63.6668L178.798 63.6747L178.785 63.6812C176.778 64.6398 174.485 65.1256 171.966 65.1256Z" fill="#F4B311"/>
<path d="M190.561 59.0667C190.74 59.0667 190.917 59.072 191.096 59.0825C193.853 59.2453 194.843 59.9215 195.028 61.3685C195.195 62.6645 192.522 62.8916 190.022 62.8916C189.732 62.8916 189.443 62.889 189.162 62.8837C186.462 62.8365 185.35 61.1111 184.716 60.8078C184.215 60.5688 183.653 60.4599 183.119 60.4599C182.228 60.4599 181.412 60.7605 181.089 61.2503C180.268 62.4938 178.688 63.4195 178.688 63.4195C176.289 64.5657 173.894 64.8323 172.005 64.8323C170.365 64.8323 169.106 64.6314 168.557 64.6314C168.543 64.6314 168.53 64.6314 168.515 64.6314C168.508 64.6314 168.498 64.6314 168.489 64.6314C167.359 64.6314 164.689 63.128 165.715 61.786C166.63 60.5872 170.891 59.4409 174.428 59.4409C174.884 59.4409 175.327 59.4606 175.75 59.5C178.077 59.7219 180.173 60.1185 180.829 60.1185C180.895 60.1185 180.946 60.1145 180.981 60.1067C181.374 60.0134 183.018 59.7574 183.018 59.7574C183.018 59.7574 184.536 59.781 185.006 59.9438C185.036 59.9543 185.077 59.9596 185.127 59.9596C185.796 59.9609 188.157 59.0667 190.561 59.0667ZM190.64 58.4824C188.995 58.4824 187.368 58.8829 186.293 59.1481C185.849 59.2571 185.392 59.37 185.22 59.3766C184.667 59.2072 183.367 59.1783 183.106 59.1744L183.056 59.1731L183.005 59.181C182.837 59.2072 181.375 59.4357 180.942 59.5355C180.935 59.5355 180.925 59.5368 180.908 59.5368C180.632 59.5368 179.955 59.4409 179.172 59.3306C178.25 59.2007 177.103 59.0378 175.884 58.921C175.454 58.8803 174.991 58.8593 174.508 58.8593C171.082 58.8593 166.446 59.9333 165.267 61.4762C164.882 61.979 164.797 62.5634 165.025 63.1188C165.518 64.3163 167.419 65.217 168.41 65.217C168.424 65.217 168.435 65.217 168.448 65.217H168.477C168.653 65.217 168.953 65.2446 169.299 65.2761C169.958 65.3365 170.861 65.4179 171.925 65.4179C174.49 65.4179 176.83 64.9216 178.879 63.9407L178.906 63.9289L178.93 63.9145C179.001 63.8738 180.662 62.889 181.564 61.5247C181.718 61.2923 182.287 61.0455 183.039 61.0455C183.527 61.0455 184 61.1479 184.406 61.3422C184.503 61.3882 184.689 61.5523 184.871 61.7099C185.61 62.3533 186.845 63.43 189.071 63.4693C189.384 63.4746 189.668 63.4772 189.94 63.4772C192.951 63.4772 194.535 63.145 195.236 62.3651C195.533 62.0355 195.661 61.639 195.607 61.2201C195.491 60.3141 195.087 59.6642 194.373 59.2348C193.686 58.8212 192.679 58.5888 191.205 58.5008C191.025 58.4877 190.833 58.4824 190.64 58.4824Z" fill="#0D0D0D"/>
<path d="M177.1 88.6699C180.244 91.6348 202.799 97.5513 202.799 97.5513" stroke="#0D0D0D" stroke-width="0.525216" stroke-miterlimit="10" stroke-linecap="round"/>
<path d="M164.868 74.1885C165.613 78.595 169.947 84.1256 174.459 87.4384" stroke="#0D0D0D" stroke-width="0.750796" stroke-miterlimit="10" stroke-linecap="round"/>
<path d="M177.144 85.623C176.138 86.4844 172.239 91.34 174.85 93.3516" stroke="#0D0D0D" stroke-width="0.65652" stroke-miterlimit="10" stroke-linecap="round"/>
<path d="M165.46 108.213C185.268 114.793 199.15 110.373 202.213 109.315" stroke="#0D0D0D" stroke-width="0.525216" stroke-miterlimit="10" stroke-linecap="round"/>
<path d="M215.024 91.5054C222.465 86.5093 228.088 81.4974 229.787 81.3057C230.973 81.1731 232.005 81.4803 232.005 81.4803C232.669 81.6799 233.651 81.9714 234.102 82.8485C234.241 83.1203 234.293 83.379 234.075 85.7884C233.893 87.8118 233.861 87.9694 233.758 88.1873C233.588 88.5471 232.928 89.7525 230.566 90.4865" stroke="#0D0D0D" stroke-width="1.05043" stroke-miterlimit="10" stroke-linecap="round"/>
<path d="M168.038 91.1064C168.038 91.1064 178.775 104.975 195.037 101.672C201.133 100.434 207.176 97.4012 212.509 94.0752" stroke="#0D0D0D" stroke-width="0.787824" stroke-miterlimit="10" stroke-linecap="round"/>
<path d="M133.077 154.935C135.476 152.835 137.578 150.391 139.28 147.694C139.78 146.902 140.245 146.088 140.673 145.255C140.779 145.049 140.883 144.84 140.984 144.632C141.134 144.323 141.279 144.012 141.419 143.698C141.496 143.526 141.571 143.354 141.643 143.181C142.042 142.24 142.395 141.279 142.696 140.3C142.75 140.127 142.801 139.952 142.852 139.776C143.056 139.072 143.233 138.36 143.383 137.64C143.43 137.414 143.473 137.187 143.515 136.959C143.594 136.534 143.661 136.107 143.72 135.678C143.758 135.403 143.791 135.129 143.82 134.856C143.829 134.778 143.837 134.702 143.844 134.626C143.856 134.515 143.866 134.404 143.875 134.294C143.896 134.069 143.912 133.845 143.925 133.623C143.933 133.494 143.941 133.367 143.946 133.24C143.961 132.934 143.971 132.628 143.975 132.324C143.979 132.039 143.979 131.757 143.974 131.475C143.968 131.114 143.955 130.755 143.933 130.399C143.316 120.084 136.592 111.869 126.842 109.344C126.841 109.342 126.841 109.342 126.84 109.344C126.525 109.262 126.207 109.187 125.887 109.118H125.885C125.629 109.063 125.371 109.011 125.109 108.963C125.023 108.947 124.935 108.931 124.848 108.917C124.665 108.885 124.482 108.856 124.299 108.829C124.201 108.814 124.102 108.8 124.001 108.787C123.707 108.746 123.41 108.711 123.111 108.681C123.01 108.67 122.911 108.661 122.81 108.652C122.02 108.581 121.215 108.544 120.395 108.544C114.793 108.544 109.349 110.254 104.619 113.18C96.7344 118.058 90.8363 126.32 89.5167 135.691C89.0216 139.207 89.216 142.569 89.9972 145.653H89.9985C92.5524 155.716 101.364 162.837 112.84 162.837C115.921 162.837 118.954 162.323 121.845 161.378M121.768 131.161C122.763 132.32 123.257 133.922 123.011 135.691C122.52 139.228 119.258 142.096 115.725 142.096C112.192 142.096 109.728 139.228 110.222 135.691C110.59 133.054 112.497 130.788 114.906 129.806" stroke="#0D0D0D" stroke-width="1.57565" stroke-miterlimit="10" stroke-linecap="round" stroke-linejoin="round"/>
<path d="M133.33 134.856C133.339 134.778 133.347 134.702 133.354 134.626C133.365 134.515 133.376 134.404 133.385 134.294C133.406 134.069 133.422 133.845 133.436 133.623C133.445 133.494 133.452 133.367 133.457 133.24C133.472 132.934 133.482 132.628 133.486 132.324C133.49 132.039 133.491 131.757 133.486 131.475C133.481 131.114 133.468 130.755 133.445 130.399C132.835 120.084 126.116 111.869 116.369 109.344C116.368 109.342 116.368 109.342 116.367 109.344C116.052 109.262 115.734 109.187 115.415 109.118H115.413C115.157 109.063 114.899 109.011 114.639 108.963C114.552 108.947 114.464 108.931 114.377 108.917C114.195 108.885 114.011 108.856 113.829 108.829C113.73 108.814 113.632 108.8 113.531 108.787C113.236 108.746 112.94 108.711 112.64 108.681C112.539 108.67 112.441 108.661 112.34 108.652C111.549 108.581 110.744 108.544 109.925 108.544C94.9839 108.544 81.1497 120.697 79.0278 135.691C78.5302 139.207 78.7219 142.569 79.5018 145.653H79.5031C82.0504 155.716 90.857 162.837 102.333 162.837C113.016 162.837 123.114 156.666 128.783 147.694C129.283 146.902 129.749 146.088 130.177 145.255C130.284 145.049 130.389 144.84 130.488 144.632C130.638 144.323 130.784 144.012 130.923 143.698C131.001 143.526 131.075 143.354 131.148 143.181C131.548 142.24 131.901 141.279 132.202 140.3C132.256 140.127 132.308 139.952 132.358 139.776C132.562 139.072 132.74 138.36 132.89 137.64C132.937 137.414 132.982 137.187 133.023 136.959C133.101 136.534 133.17 136.107 133.229 135.678C133.268 135.403 133.302 135.129 133.33 134.856Z" stroke="#0D0D0D" stroke-width="0.787824" stroke-miterlimit="10" stroke-linecap="round"/>
<path d="M125.515 134.856C125.524 134.778 125.532 134.702 125.539 134.626C125.55 134.515 125.561 134.404 125.57 134.294C125.591 134.069 125.607 133.845 125.621 133.623C125.63 133.494 125.637 133.367 125.644 133.24C125.658 132.934 125.67 132.628 125.674 132.324C125.678 132.039 125.679 131.757 125.674 131.475C125.669 131.114 125.655 130.755 125.634 130.399C125.029 120.084 118.314 111.869 108.567 109.344C108.566 109.342 108.566 109.342 108.565 109.344C108.251 109.262 107.932 109.187 107.613 109.118H107.612C107.356 109.063 107.097 109.011 106.837 108.963C106.75 108.947 106.662 108.931 106.576 108.917C106.393 108.885 106.209 108.856 106.027 108.829C105.928 108.814 105.83 108.8 105.729 108.787C105.435 108.746 105.138 108.711 104.838 108.681C104.737 108.67 104.639 108.661 104.538 108.652C103.747 108.581 102.942 108.544 102.123 108.544C87.182 108.544 73.3425 120.697 71.2128 135.691C70.7138 139.207 70.9029 142.569 71.6816 145.653H71.6828C74.2249 155.716 83.0288 162.837 94.5048 162.837C105.188 162.837 115.29 156.666 120.963 147.694C121.463 146.902 121.929 146.088 122.358 145.255C122.465 145.049 122.57 144.84 122.671 144.632C122.822 144.323 122.966 144.012 123.105 143.698C123.183 143.526 123.258 143.354 123.33 143.181C123.73 142.24 124.084 141.279 124.387 140.3C124.441 140.127 124.493 139.952 124.543 139.776C124.747 139.072 124.925 138.36 125.076 137.64C125.124 137.414 125.168 137.187 125.21 136.959C125.289 136.534 125.357 136.107 125.416 135.678C125.452 135.403 125.486 135.129 125.515 134.856Z" stroke="#0D0D0D" stroke-width="0.595963" stroke-miterlimit="10" stroke-linecap="round" stroke-linejoin="round"/>
<path d="M293.161 134.856C293.17 134.778 293.177 134.702 293.182 134.626C293.192 134.515 293.203 134.404 293.209 134.294C293.228 134.069 293.242 133.845 293.254 133.623C293.262 133.494 293.267 133.367 293.271 133.24C293.283 132.934 293.291 132.628 293.291 132.324C293.292 132.039 293.289 131.757 293.282 131.475C293.272 131.114 293.255 130.755 293.23 130.399C292.517 120.084 285.714 111.869 275.943 109.344C275.942 109.342 275.942 109.342 275.94 109.344C275.625 109.262 275.306 109.187 274.986 109.118H274.984C274.727 109.063 274.468 109.011 274.207 108.963C274.12 108.947 274.032 108.931 273.944 108.917C273.762 108.885 273.578 108.856 273.394 108.829C273.296 108.814 273.196 108.8 273.096 108.787C272.802 108.746 272.504 108.711 272.205 108.681C272.104 108.67 272.004 108.661 271.904 108.652C271.112 108.581 270.307 108.544 269.488 108.544C254.547 108.544 240.835 120.697 238.864 135.691C238.402 139.207 238.628 142.569 239.438 145.653H239.439C242.087 155.716 250.966 162.837 262.442 162.837C273.125 162.837 283.162 156.666 288.74 147.694C289.232 146.902 289.689 146.088 290.109 145.255C290.213 145.049 290.315 144.84 290.415 144.632C290.562 144.323 290.704 144.012 290.841 143.698C290.917 143.526 290.989 143.354 291.06 143.181C291.45 142.24 291.794 141.279 292.085 140.3C292.138 140.127 292.188 139.952 292.236 139.776C292.433 139.072 292.604 138.36 292.747 137.64C292.792 137.414 292.834 137.187 292.873 136.959C292.947 136.534 293.011 136.107 293.066 135.678C293.104 135.403 293.136 135.129 293.161 134.856Z" stroke="#0D0D0D" stroke-width="0.595963" stroke-miterlimit="10" stroke-linecap="round" stroke-linejoin="round"/>
<path d="M300.351 134.856C300.36 134.778 300.367 134.702 300.372 134.626C300.383 134.515 300.393 134.404 300.4 134.294C300.418 134.069 300.433 133.845 300.443 133.623C300.45 133.494 300.456 133.367 300.46 133.24C300.472 132.934 300.48 132.628 300.48 132.324C300.481 132.039 300.479 131.757 300.471 131.475C300.462 131.114 300.444 130.755 300.42 130.399C299.701 120.084 292.896 111.869 283.122 109.344C283.12 109.342 283.12 109.342 283.119 109.344C282.804 109.262 282.485 109.187 282.164 109.118H282.163C281.906 109.063 281.647 109.011 281.386 108.963C281.299 108.947 281.211 108.931 281.123 108.917C280.941 108.885 280.757 108.856 280.573 108.829C280.474 108.814 280.375 108.8 280.275 108.787C279.981 108.746 279.683 108.711 279.383 108.681C279.282 108.67 279.182 108.661 279.083 108.652C278.291 108.581 277.486 108.544 276.667 108.544C261.726 108.544 248.02 120.697 246.054 135.691C245.594 139.207 245.821 142.569 246.632 145.653H246.634C249.286 155.716 258.169 162.837 269.645 162.837C280.327 162.837 290.362 156.666 295.936 147.694C296.428 146.902 296.885 146.088 297.304 145.255C297.407 145.049 297.51 144.84 297.608 144.632C297.755 144.323 297.897 144.012 298.034 143.698C298.11 143.526 298.182 143.354 298.253 143.181C298.643 142.24 298.986 141.279 299.277 140.3C299.33 140.127 299.38 139.952 299.428 139.776C299.624 139.072 299.795 138.36 299.938 137.64C299.982 137.414 300.024 137.187 300.064 136.959C300.137 136.534 300.202 136.107 300.257 135.678C300.293 135.403 300.325 135.129 300.351 134.856Z" stroke="#0D0D0D" stroke-width="0.787824" stroke-miterlimit="10" stroke-linecap="round"/>
<path d="M269.152 115.205C274.442 111.056 280.976 108.544 287.768 108.544C288.48 108.544 289.178 108.572 289.868 108.625C290.176 108.649 290.482 108.678 290.787 108.713C290.98 108.736 291.172 108.759 291.363 108.786C291.554 108.812 291.743 108.839 291.932 108.87C291.933 108.868 291.934 108.868 291.934 108.87C292.202 108.912 292.469 108.959 292.733 109.01C292.733 109.01 292.734 109.01 292.735 109.01C303.319 111.056 310.795 119.591 311.541 130.439V130.44C311.553 130.612 311.563 130.786 311.571 130.959C311.571 130.96 311.571 130.961 311.571 130.961C311.579 131.144 311.587 131.327 311.592 131.509C311.595 131.601 311.596 131.693 311.597 131.785C311.597 131.786 311.597 131.786 311.597 131.787C311.601 131.982 311.601 132.176 311.6 132.372C311.599 132.47 311.599 132.569 311.596 132.667C311.596 132.668 311.596 132.668 311.596 132.67C311.592 132.876 311.587 133.082 311.579 133.29C311.575 133.393 311.57 133.497 311.564 133.602C311.559 133.716 311.553 133.832 311.545 133.947C311.538 134.062 311.53 134.176 311.521 134.29C311.522 134.294 311.522 134.298 311.52 134.303C311.513 134.406 311.504 134.509 311.495 134.613C311.494 134.633 311.491 134.651 311.49 134.671C311.48 134.777 311.469 134.884 311.458 134.99C311.448 135.107 311.433 135.224 311.42 135.34C311.407 135.457 311.392 135.574 311.378 135.691C311.324 136.116 311.261 136.541 311.188 136.962C311.139 137.243 311.086 137.521 311.029 137.8C310.974 138.078 310.913 138.357 310.848 138.632C310.75 139.046 310.644 139.457 310.53 139.865C310.53 139.865 310.53 139.865 310.53 139.867C310.454 140.138 310.373 140.409 310.289 140.678C309.448 143.371 308.227 145.926 306.696 148.277C306.067 149.243 305.387 150.175 304.658 151.068C303.863 152.042 303.013 152.971 302.113 153.846M299.645 156.022C300.503 155.339 301.328 154.613 302.114 153.846M296.331 158.34C295.284 158.979 294.202 159.558 293.09 160.072C292.012 160.569 290.905 161.006 289.777 161.377M285.356 162.461C283.854 162.708 282.326 162.837 280.785 162.837C270.486 162.837 262.272 157.101 258.772 148.651C257.181 144.8 256.566 140.384 257.178 135.691C257.472 133.439 258.032 131.252 258.82 129.159C259.504 127.345 260.358 125.604 261.363 123.955M265.684 118.346C264.941 119.12 264.236 119.931 263.573 120.775" stroke="#0D0D0D" stroke-width="2.5" stroke-miterlimit="10" stroke-linecap="round" stroke-linejoin="round"/>
<path d="M257.178 135.69C256.566 140.383 257.181 144.799 258.774 148.65C210.874 148.67 157.135 147.952 139.417 147.693" stroke="#0D0D0D" stroke-width="1.57565" stroke-miterlimit="10" stroke-linecap="round"/>
<path d="M90.1352 145.652C72.5129 145.652 61.2969 143.962 54.1671 141.766C51.2757 140.875 49.1184 138.668 48.391 135.734C46.793 129.289 50.484 120.283 67.8962 110.477C88.5057 98.8568 131.253 90.4809 131.253 90.4809H131.257C135.176 89.7312 139.263 89.0379 143.505 88.4247C146.669 87.9678 149.747 87.5804 152.732 87.2548C152.969 87.2285 153.094 87.4872 152.939 87.6868C151.315 89.7719 149.372 92.9114 149.247 96.4776C148.835 108.27 168.605 117.011 185.19 116.958C197.286 116.92 208.783 112.179 212.314 110.721C216.991 108.791 218.285 107.762 224.969 104.484C238.006 98.0874 249.435 91.9988 251.962 93.237C254.324 94.3938 305.881 102.124 322.224 111.748C335.548 119.584 341.882 132.007 342.448 140.598C342.624 143.268 341.475 146.606 338.389 146.925C332.058 147.578 320.886 148.009 306.699 148.276" stroke="#0D0D0D" stroke-width="2.5" stroke-miterlimit="10" stroke-linecap="round"/>
<path d="M230.061 98.2132C235.11 87.9938 239.9 78.7605 240.673 79.0139C240.686 79.0178 240.694 79.0231 240.7 79.0283C241.516 79.589 247.541 87.4292 251.961 93.2394" stroke="#0D0D0D" stroke-width="1.5" stroke-miterlimit="10" stroke-linecap="round"/>
<path d="M290.674 135.69C290.221 139.227 286.987 142.095 283.455 142.095C279.923 142.095 277.428 139.227 277.885 135.69C278.342 132.152 281.573 129.283 285.103 129.283C288.632 129.283 291.127 132.152 290.674 135.69Z" stroke="#0D0D0D" stroke-width="2" stroke-miterlimit="10" stroke-linecap="round" stroke-linejoin="round"/>
<path d="M76.8116 133.806H-54" stroke="#0D0D0D" stroke-width="1.31304" stroke-miterlimit="10" stroke-linecap="round"/>
<path d="M68.115 115.205H-21.3267" stroke="#0D0D0D" stroke-width="1.48991" stroke-miterlimit="10" stroke-linecap="round"/>
<path d="M88.6874 92.0557H86.7271" stroke="#0D0D0D" stroke-width="1.18174" stroke-miterlimit="10" stroke-linecap="round"/>
<path d="M82.995 92.0557H17.6699" stroke="#0D0D0D" stroke-width="1.18174" stroke-miterlimit="10" stroke-linecap="round" stroke-dasharray="3.75 3.75"/>
<path d="M15.804 92.0557H13.8423" stroke="#0D0D0D" stroke-width="1.18174" stroke-miterlimit="10" stroke-linecap="round"/>
<path d="M220.2 89.8535C220.2 89.8535 223.23 92.2984 225.152 92.1566" stroke="#0D0D0D" stroke-width="0.787824" stroke-miterlimit="10" stroke-linecap="round"/>
<path d="M191.008 72.751C191.008 72.751 190.579 73.4889 190.174 73.4889C189.768 73.4889 189.54 72.751 189.54 72.751H191.008Z" fill="#0D0D0D" stroke="#0D0D0D" stroke-width="0.500531" stroke-miterlimit="10" stroke-linecap="round"/>
<path d="M177.468 72.751C177.468 72.751 177.04 73.4889 176.634 73.4889C176.228 73.4889 176 72.751 176 72.751H177.468Z" fill="#0D0D0D" stroke="#0D0D0D" stroke-width="0.500531" stroke-miterlimit="10" stroke-linecap="round"/>
<path d="M231.044 92.8164C231.762 94.4406 226.721 98.7842 219.78 102.52C212.837 106.255 206.759 106.957 205.907 106.343" stroke="#0D0D0D" stroke-width="1.48991" stroke-miterlimit="10" stroke-linecap="round"/>
<path d="M230.566 90.4878C230.566 90.4878 229.439 88.8189 227.557 90.4878C225.675 92.1567 220.885 95.5877 212.541 99.7447" stroke="#0D0D0D" stroke-width="0.525216" stroke-miterlimit="10" stroke-linecap="round"/>
<path d="M-3.6709 138.362H123.744" stroke="#0D0D0D" stroke-width="1.18174" stroke-miterlimit="10" stroke-linecap="round" stroke-dasharray="6.57 6.57"/>
<path d="M217.941 69.6403L222.14 61.1318C222.14 61.1318 234.649 67.2493 234.792 67.1692C234.8 67.1653 234.81 67.1718 234.807 67.181" stroke="#0D0D0D" stroke-miterlimit="10" stroke-linecap="round"/>
<path d="M216.463 71.3322L223.166 69.9194L227.161 69.0764L231.155 68.2348L234.902 67.4443L233.966 69.5623L232.97 71.8181L231.972 74.0752L228.5 81.9285" stroke="#0D0D0D" stroke-width="0.919128" stroke-miterlimit="10" stroke-linecap="round" stroke-linejoin="round"/>
<path d="M207.49 94.401L216.385 73.1074" stroke="#0D0D0D" stroke-width="0.65652" stroke-miterlimit="10" stroke-linecap="round" stroke-linejoin="round"/>
<path d="M231.024 68.2341L222.513 64.2148" stroke="#0D0D0D" stroke-width="0.393912" stroke-miterlimit="10" stroke-linecap="round" stroke-linejoin="round"/>
<path d="M227.031 69.076L221.284 66.3633" stroke="#0D0D0D" stroke-width="0.393912" stroke-miterlimit="10" stroke-linecap="round" stroke-linejoin="round"/>
<path d="M223.037 69.9193L220.056 68.5117" stroke="#0D0D0D" stroke-width="0.393912" stroke-miterlimit="10" stroke-linecap="round" stroke-linejoin="round"/>
<path d="M340.395 65.9033H297.68" stroke="#0D0D0D" stroke-width="1.05043" stroke-miterlimit="10" stroke-linecap="round"/>
<path d="M419.196 89.4482L331.291 89.4482" stroke="#0D0D0D" stroke-miterlimit="10" stroke-linecap="round" stroke-dasharray="11.92 11.92"/>
<path d="M462 567.457L89 567.457" stroke="black" stroke-width="3" stroke-linecap="round"/>
<path d="M348 617H154" stroke="black" stroke-width="3" stroke-linecap="round" stroke-dasharray="6 6"/>
<path d="M181 597H-13" stroke="#FFCB46" stroke-width="5" stroke-linecap="round"/>
<path d="M422 659H228" stroke="#FFCB46" stroke-width="5" stroke-linecap="round"/>
<path d="M254 541.457L-119 541.457" stroke="black" stroke-width="3" stroke-linecap="round" stroke-dasharray="20 20"/>
</svg>
