<svg width="23" height="26" viewBox="0 0 23 26" fill="none" xmlns="http://www.w3.org/2000/svg">
<path d="M1.5 24.0559H21.5" stroke="#0D0D0D" stroke-width="2" stroke-linecap="round" stroke-linejoin="round"/>
<path d="M4.38887 8.92236H2.61111C2 8.92236 1.5 9.42236 1.5 10.0335V19.6113C1.5 20.2224 2 20.7224 2.61111 20.7224H4.38887C4.99998 20.7224 5.49998 20.2224 5.49998 19.6113V10.0335C5.49998 9.42236 4.99998 8.92236 4.38887 8.92236Z" stroke="#0D0D0D" stroke-width="2" stroke-linecap="round" stroke-linejoin="round"/>
<path d="M12.3888 5.37793H10.6111C10 5.37793 9.5 5.87793 9.5 6.48904V19.6112C9.5 20.2223 10 20.7223 10.6111 20.7223H12.3888C12.9999 20.7223 13.4999 20.2223 13.4999 19.6112V6.48904C13.4999 5.87793 12.9999 5.37793 12.3888 5.37793Z" stroke="#0D0D0D" stroke-width="2" stroke-linecap="round" stroke-linejoin="round"/>
<path d="M20.3889 1.8335H18.6111C18 1.8335 17.5 2.3335 17.5 2.94461V19.6113C17.5 20.2224 18 20.7224 18.6111 20.7224H20.3889C21 20.7224 21.5 20.2224 21.5 19.6113V2.94461C21.5 2.3335 21 1.8335 20.3889 1.8335Z" stroke="#0D0D0D" stroke-width="2" stroke-linecap="round" stroke-linejoin="round"/>
</svg>
