<svg width="102" height="40" viewBox="0 0 92 30" fill="none" xmlns="http://www.w3.org/2000/svg">
<g clip-path="url(#clip0_1502_730)">
<path d="M8.25436 27.6076C7.67702 26.4779 7.49937 25.2566 7.72143 23.9437C7.94209 22.6309 8.24326 21.5178 8.62213 20.6046L9.87813 17.6596C10.078 17.2266 10.2931 16.7353 10.5207 16.1871C10.6442 15.8901 10.7483 15.7139 10.8316 15.6556C10.9148 15.5987 11.0411 15.582 11.2118 15.6042C11.4311 15.6042 12.082 15.5237 13.1659 15.3641C13.5337 15.3419 13.6281 15.5473 13.4449 15.9803C13.388 16.1177 13.2853 16.312 13.1409 16.5618C12.9952 16.813 12.88 17.0406 12.794 17.2474C11.8641 19.4624 11.2896 21.175 11.0675 22.3838C10.8441 23.594 10.8801 24.4212 11.1758 24.8667C11.47 25.3122 11.971 25.5342 12.6788 25.5342C13.4657 25.5342 14.2137 25.2886 14.9257 24.7987C15.6377 24.3074 16.2483 23.7189 16.759 23.0347C17.2697 22.3491 17.657 21.6982 17.9206 21.082L22.0606 11.6295C22.3132 10.9453 22.6171 10.1917 22.9696 9.36868L24.4227 6.04759C24.6267 5.47718 24.8307 5.11773 25.0361 4.96785C25.2415 4.81935 25.4746 4.74579 25.7383 4.74579C25.8688 4.72359 26.0728 4.69444 26.3504 4.65975C26.6279 4.62505 26.8777 4.6084 27.0998 4.6084C27.3219 4.6084 27.4787 4.6195 27.5703 4.64309C27.9034 4.6653 28.0838 4.74024 28.1101 4.86515C28.1365 4.99144 28.0352 5.29399 27.8076 5.77279L23.2125 16.2524C23.1236 16.412 23.0418 16.5896 22.9682 16.7839C22.8933 16.9782 22.8225 17.1558 22.7531 17.3154L22.2785 18.4118C19.1364 25.673 15.7168 29.3022 12.0182 29.3022C10.0821 29.3036 8.82754 28.7373 8.25436 27.6076Z" fill="#0D0D0D"/>
<path d="M19.7431 28.6175C19.7722 28.5495 19.8069 28.4926 19.8472 28.4468C19.8666 28.401 19.9013 28.3441 19.9513 28.2747C19.9998 28.2067 20.0748 28.1026 20.1733 27.9666L20.9894 26.6995C21.0879 26.5621 21.2614 26.3234 21.5098 25.9806C21.7568 25.6378 21.965 25.3186 22.1343 25.0216C22.4716 24.4734 23.0225 23.6407 23.7872 22.5221L24.4437 21.5631C25.4388 20.1475 26.1119 19.1552 26.4616 18.5834L27.6746 16.7681C28.2047 16.0145 28.5336 15.5357 28.6641 15.3303C29.1041 14.6447 29.68 13.7884 30.392 12.7614L31.0234 11.8024L31.5203 11.0835C32.0629 10.3077 32.4807 9.74706 32.7721 9.40565C32.872 9.26826 33.2273 8.795 33.8366 7.98451C34.4458 7.17401 34.8983 6.52866 35.1911 6.04986C35.5742 5.50167 35.9031 5.09087 36.1765 4.81607C36.4499 4.54267 36.7163 4.40527 36.98 4.40527C37.0813 4.40527 37.1369 4.50797 37.1466 4.71337C37.1563 4.91877 37.1452 5.16997 37.1146 5.46697C37.0827 5.76397 37.0577 5.98047 37.0369 6.11786C37.005 6.55226 36.8038 7.63616 36.4332 9.37096L36.2459 10.33C36.1834 10.5131 36.0155 11.6304 35.7365 13.6857L35.4617 15.569L35.2772 17.1789C35.0218 18.9831 34.8858 20.0795 34.8705 20.4667C34.4708 22.8871 34.2155 24.3485 34.1072 24.8509C33.9767 25.4449 33.8616 26.1874 33.763 27.077C33.6645 27.9666 33.6076 28.469 33.5951 28.5842C33.5812 28.7438 33.559 28.8576 33.5285 28.927C33.4868 29.0186 33.3578 29.0644 33.1427 29.0644H31.4981C31.419 29.0644 31.3635 29.0477 31.3301 29.013C31.2968 28.9783 31.2913 28.8937 31.3135 28.7563C31.3482 28.5051 31.4259 28.0943 31.5453 27.5239C31.6258 26.9535 31.7382 26.44 31.8853 25.982C31.9797 25.6392 32.0712 25.2284 32.1587 24.7496C32.2461 24.2708 32.2961 23.9058 32.3113 23.6532C32.328 23.2202 32.3905 22.7289 32.4987 22.1807L32.6763 21.187C32.6888 20.9358 32.6847 20.7818 32.6611 20.7249C32.6361 20.668 32.5653 20.6388 32.4474 20.6388C32.031 20.6388 31.7187 20.6499 31.5119 20.6721L30.2046 20.7415C30.0353 20.7637 29.2983 20.7762 27.9924 20.7762H26.1813H26.1216C26.0036 20.7762 25.8593 20.9011 25.6886 21.1523L25.479 21.4951L25.0752 22.146C24.9752 22.2834 24.5561 22.9454 23.8206 24.132C23.5916 24.5206 23.2724 25.023 22.8657 25.6392C22.6256 26.0958 22.373 26.4733 22.1066 26.7689C22.0372 26.8369 21.9178 26.9979 21.7499 27.2477C21.5806 27.4989 21.4418 27.7043 21.3335 27.8639C21.1948 28.0471 20.9963 28.3427 20.7396 28.7549C20.709 28.7785 20.6674 28.8298 20.6133 28.9089C20.5591 28.9894 20.5092 29.0352 20.4648 29.0463C20.4204 29.0574 20.3593 29.063 20.2816 29.063H19.6945C19.521 29.063 19.5363 28.9145 19.7431 28.6175ZM30.0061 18.446C30.2643 18.4002 30.6126 18.378 31.0484 18.378L32.6416 18.4113C32.8998 18.4113 33.0649 18.3322 33.1357 18.1712C33.1871 18.0574 33.2287 17.8062 33.2634 17.4176C33.2967 17.0748 33.4036 16.4364 33.5812 15.4996C33.738 14.746 33.8477 14.0965 33.9115 13.5483C34.0156 12.8628 34.1613 12.0536 34.3473 11.1169C34.5319 10.1815 34.6651 9.57636 34.747 9.30156C34.9815 8.09137 35.0482 7.48627 34.9482 7.48627C34.8886 7.48627 34.6498 7.79437 34.2377 8.41057L33.7242 9.16556C33.3106 9.78176 32.7901 10.552 32.1615 11.4763C31.5328 12.4006 30.9873 13.1833 30.5266 13.8231C30.1449 14.4171 29.6509 15.1652 29.0444 16.0659C28.4379 16.968 28.0007 17.5897 27.7315 17.9325C27.6316 18.0699 27.576 18.1504 27.5663 18.1726C27.4955 18.3322 27.515 18.4349 27.6246 18.4807C27.7329 18.5265 27.855 18.5446 27.9896 18.5321C28.1228 18.521 28.2103 18.5154 28.2505 18.5154L30.0061 18.446Z" fill="#0D0D0D"/>
<path d="M34.2227 28.8223C34.2241 28.7307 34.2519 28.6392 34.3032 28.5489C34.3546 28.4573 34.3906 28.3893 34.4115 28.3435C34.5669 28.0007 34.9569 27.533 35.58 26.9404C36.0824 26.4838 36.4405 26.1521 36.6514 25.9467C40.0405 22.8422 42.1015 20.9811 42.8204 20.3649L46.2664 17.3505C49.2058 14.7941 50.9475 13.2869 51.4805 12.8303C52.5685 11.9171 53.9175 10.6847 55.5302 9.13171L57.7549 6.97362H55.941C54.5504 6.97362 53.6691 6.96252 53.2972 6.93893C52.6726 6.93893 52.0939 6.92782 51.5596 6.90562C49.7665 6.85982 48.2662 6.83623 47.0574 6.83623C46.19 6.83623 45.5655 6.85982 45.1825 6.90562C44.3858 6.97362 44.075 6.81402 44.2512 6.42681C44.458 5.97022 44.7009 5.52472 44.9798 5.09033C45.0936 4.88493 45.2602 4.78223 45.4836 4.78223C45.5849 4.78223 45.7432 4.81137 45.9597 4.86827C46.1762 4.92517 46.3552 4.95432 46.4967 4.95432L49.482 4.92101L52.7698 4.95432C54.871 4.95432 56.2185 4.98901 56.8125 5.05702C57.9103 5.17221 58.7014 5.22911 59.1857 5.22911C59.5091 5.22911 59.7256 5.21801 59.838 5.19441L60.0656 5.16111C60.2072 5.16111 60.2794 5.19025 60.2821 5.24715C60.2849 5.30405 60.2627 5.37345 60.2155 5.45255C60.1669 5.53305 60.1322 5.5955 60.1114 5.6413C60.0143 5.8467 59.7728 6.26999 59.3898 6.90839C59.2607 7.13739 59.0678 7.36499 58.8083 7.5926C58.5487 7.82159 58.1615 8.14079 57.6452 8.55159C57.6758 8.52939 57.3052 8.825 56.5308 9.44258C55.1888 10.6292 53.3624 12.3196 51.0558 14.511C50.5409 15.0134 48.6271 16.726 45.3226 19.6487L44.5135 20.3676C43.7613 21.0518 42.6705 22.0233 41.2424 23.2793C40.9593 23.5083 40.5179 23.9302 39.9198 24.5464L39.0996 25.368L37.659 26.8405C38.5708 26.8641 39.8115 26.8752 41.3826 26.8752L45.46 26.9099L46.6355 26.9779L48.0164 27.0473L49.9761 27.0126H50.0343C50.1912 27.0126 50.2411 27.064 50.1815 27.1667C50.1218 27.2694 50.0885 27.3318 50.0774 27.3554L49.5861 28.4518C49.4556 28.7252 49.2641 28.8626 49.0101 28.8626C48.9518 28.8626 48.8144 28.8404 48.6021 28.7946C48.0872 28.6808 47.4766 28.6461 46.7702 28.6919L43.889 28.7599L39.8462 28.8626C36.9276 28.8626 35.2095 28.8973 34.689 28.9653H34.5128C34.3171 28.9597 34.2199 28.9139 34.2227 28.8223Z" fill="#0D0D0D"/>
<path d="M68.4569 6.06133C69.4895 6.06133 70.4138 6.36527 71.2812 6.98979C72.05 7.54493 72.4705 8.65797 72.5344 10.2956C72.5982 12.0859 71.8196 14.6243 70.2222 17.8427C68.7664 20.7766 67.0496 23.0193 65.1178 24.5099C63.1776 26.0115 61.4442 26.9802 59.9661 27.3896C58.4506 27.8087 57.2612 28.0225 56.4341 28.0225C56.4271 28.0225 56.4216 28.0225 56.4146 28.0225C56.3897 28.0225 54.6035 28.0586 53.3961 28.078L63.2831 7.39088C63.29 7.377 63.2955 7.36451 63.3011 7.35063C63.4399 7.0231 63.6092 6.64839 63.8063 6.23342C64.3392 6.18485 67.9226 6.06133 68.4569 6.06133ZM60.4519 22.7057C60.5837 22.7057 60.7156 22.6793 60.8405 22.6238C61.5788 22.3004 62.3407 21.8508 63.1054 21.2859C64.7528 20.0993 65.9963 18.6657 66.7984 17.0225C67.6534 15.271 67.7227 13.793 67.0038 12.6272C66.9983 12.6175 66.9914 12.6078 66.9858 12.5994C66.6375 12.0748 66.1517 11.6793 65.5452 11.4225C65.4231 11.3712 65.2926 11.3448 65.1636 11.3448C65.0387 11.3448 64.9138 11.3684 64.7958 11.4184C64.5557 11.5183 64.3656 11.7084 64.267 11.9499C64.1213 12.2955 62.306 15.8928 61.1055 18.2729C60.3325 19.8051 59.7219 21.0167 59.5789 21.3109C59.4013 21.6773 59.4707 22.1144 59.7524 22.4087C59.9384 22.603 60.1937 22.7057 60.4519 22.7057ZM68.4569 5.08984C67.9323 5.08984 63.9451 5.22169 63.6258 5.27859C63.3053 5.33549 63.086 5.48954 62.9652 5.74074C62.7474 6.19734 62.56 6.60953 62.4059 6.97314L52.4052 27.8976C52.0346 28.6748 52.0346 29.062 52.4066 29.062C53.0325 29.062 56.4327 28.9926 56.4327 28.9926C57.3528 28.9926 58.6158 28.7705 60.2243 28.325C61.8342 27.8795 63.6619 26.8636 65.7118 25.2773C67.7672 23.691 69.5616 21.3553 71.0924 18.2729C72.7689 14.8949 73.5739 12.2233 73.5045 10.2595C73.4295 8.29575 72.8772 6.94399 71.8502 6.2015C70.8204 5.46178 69.6893 5.08984 68.4569 5.08984ZM60.4519 21.7342C60.8391 20.9348 64.9623 12.8187 65.1663 12.3163C65.598 12.4995 65.9352 12.7729 66.1781 13.1379C66.7138 14.0067 66.6291 15.1586 65.9269 16.5964C65.1913 18.1036 64.0589 19.404 62.535 20.5004C61.823 21.0264 61.1291 21.4386 60.4519 21.7342Z" fill="#0D0D0D"/>
<path d="M92.2882 18.6681L91.9732 15.9423C91.9607 15.8355 91.8649 15.7633 91.7595 15.7841C90.6714 16.0062 89.0907 16.2949 87.1574 16.5183C86.5537 16.5877 86.0624 16.6349 85.034 16.7181C84.9327 16.7265 84.8494 16.6404 84.8605 16.5405C85.0534 14.746 85.2116 13.5539 85.3338 12.9668C85.6433 11.461 85.8362 10.2383 85.9125 9.30293C86.1623 6.83674 86.3233 5.46694 86.4024 5.19354C86.4288 5.10194 86.469 4.94234 86.5245 4.71474C86.5801 4.48574 86.5703 4.32614 86.4954 4.23454C86.426 4.05274 86.2442 4.13184 85.95 4.47464C85.3254 5.22824 84.7537 5.95963 84.2332 6.66604L82.0946 9.40563C81.0107 10.799 79.8754 12.2937 78.6902 13.8925C78.3405 14.3491 78.056 14.7377 77.8353 15.0569C77.3551 15.6967 76.8291 16.4045 76.2601 17.1803C74.7987 18.9845 73.694 20.457 72.9432 21.5978C72.37 22.4666 71.0099 24.3152 68.8685 27.1464C68.534 27.5807 68.1801 28.0151 67.8082 28.4481C67.593 28.7215 67.4737 28.8825 67.4515 28.9283C67.4057 29.0199 67.4321 29.0643 67.5306 29.0643H69.2626C69.3598 29.0643 69.4527 29.0255 69.543 28.945C69.6304 28.8659 69.7747 28.6882 69.9704 28.4134L70.7046 27.4211L71.7677 25.9487C72.0105 25.5836 72.2812 25.1895 72.5823 24.7662C72.8821 24.3443 73.143 23.9738 73.3637 23.6532L73.9715 22.7969C74.0257 22.7289 74.0937 22.6317 74.1783 22.5054C74.2602 22.3805 74.3504 22.2709 74.4448 22.1807C74.5392 22.0905 74.6377 22.0433 74.7362 22.0433L76.2906 22.078C76.7445 22.078 77.0664 22.0669 77.2552 22.0433C77.8311 21.9989 78.4057 21.9753 78.9789 21.9753C79.7949 21.9753 80.2973 21.9531 80.4874 21.9087C80.4944 21.9073 80.4999 21.9059 80.5069 21.9059C80.5624 21.9003 80.6179 21.8948 80.6734 21.8906C80.6762 21.8906 80.679 21.8906 80.6817 21.8892C80.8622 21.8726 81.0356 21.8545 81.1994 21.8379C81.4187 21.8157 81.5977 21.8032 81.7351 21.8032C81.7379 21.8032 81.7407 21.8032 81.7434 21.8046C81.8767 21.806 81.9544 21.8518 81.9752 21.9406C81.9974 22.0308 81.978 22.2098 81.9183 22.4791C81.9169 22.486 81.9155 22.4915 81.9155 22.4985C81.9003 22.6831 81.8683 22.9926 81.8184 23.4311C81.767 23.8766 81.7115 24.2139 81.6532 24.4415C81.5436 24.9216 81.4117 25.5712 81.2535 26.3941C81.0953 27.2088 81.0065 27.7334 80.9871 27.9624C80.9871 27.9666 80.9857 27.9693 80.9857 27.9735C80.9662 28.0873 80.9454 28.2219 80.9218 28.3801C80.8982 28.5397 80.8844 28.6993 80.8802 28.8589C80.876 29.0199 80.9135 29.099 80.9912 29.099H83.1049C83.4574 29.099 83.6809 29.0088 83.7752 28.8256C83.8099 28.759 83.8377 28.6189 83.8571 28.4037C83.8585 28.3885 83.8571 28.3732 83.8543 28.3593C83.7919 28.0276 83.8349 27.2935 83.9848 26.154L84.075 25.2978C84.1833 23.7295 84.2762 22.4582 84.3526 21.4812C84.3581 21.4104 84.4081 21.3535 84.4775 21.3369C84.9868 21.2203 85.6044 21.0732 86.4704 20.8733C88.4953 20.4056 90.212 20.0365 91.4999 19.7672C92.0079 19.659 92.3479 19.1843 92.2882 18.6681ZM80.2335 17.1956C80.0295 17.2039 79.8393 17.2108 79.6603 17.2164C79.0635 17.2372 78.6055 17.2469 78.2849 17.2469C78.1059 17.2469 78.0504 17.1789 78.1198 17.0415C78.1892 16.9041 78.3099 16.7223 78.4862 16.4933C78.6375 16.3115 78.9123 15.9743 79.3092 15.483C79.7075 14.9917 80.0322 14.5753 80.2848 14.2325C80.7914 13.5469 81.5589 12.5435 82.59 11.2181C82.7219 11.0363 82.9106 10.774 83.1549 10.4312C83.3977 10.0884 83.5504 9.91774 83.6101 9.91774C83.6503 9.91774 83.6725 9.95244 83.6781 10.0204C83.6836 10.0884 83.6822 10.18 83.6753 10.2938C83.667 10.4076 83.6545 10.5187 83.6378 10.6311C83.6378 10.6339 83.6364 10.638 83.6364 10.6408C83.6267 10.7796 83.5837 11.028 83.5102 11.3902C83.4352 11.7538 83.3589 12.2091 83.2798 12.7545C83.2798 12.7573 83.2784 12.7614 83.2784 12.7642C83.1743 13.243 83.0619 13.955 82.9384 14.8987C82.8135 15.8466 82.7482 16.4225 82.7441 16.6279C82.733 16.7639 82.7163 16.8555 82.6927 16.9013C82.6927 16.9013 82.6927 16.9027 82.6913 16.9027C82.6677 16.9485 82.6206 16.9818 82.5512 17.004C82.4804 17.0304 81.1161 17.1623 80.2335 17.1956Z" fill="#0D0D0D"/>
<path d="M2.88102 13.631C2.11136 13.631 1.49457 13.4781 1.03066 13.1724C0.566756 12.8666 0.334803 12.3236 0.334803 11.5434C0.387519 11.0373 0.761808 10.663 1.45767 10.4205C2.15353 10.178 2.93374 10.0568 3.79829 10.0568C4.07242 10.0568 4.39927 10.0357 4.77883 9.99354C5.15839 9.95137 5.50632 9.93028 5.82262 9.93028C5.78045 8.7916 5.70664 7.90068 5.60121 7.25754C5.50632 6.60385 5.33762 6.11358 5.09513 5.78674C4.86317 5.4599 4.53106 5.29647 4.09878 5.29647C3.78248 5.29647 3.48199 5.37028 3.19732 5.51788C2.91265 5.66549 2.55945 5.89744 2.13772 6.21375C1.78979 6.46679 1.61582 6.59331 1.61582 6.59331C1.60528 6.59331 1.56838 6.61439 1.50512 6.65657C1.4524 6.6882 1.39968 6.69874 1.34696 6.6882C1.25207 6.66711 1.20463 6.61967 1.20463 6.54586C1.16246 6.4826 1.10974 6.34027 1.04648 6.11886C0.993762 5.89745 0.967404 5.73929 0.967404 5.6444C0.967404 5.58114 1.03066 5.50734 1.15718 5.42299C1.6949 5.02235 2.14826 4.72713 2.51728 4.53735C2.89684 4.33703 3.21841 4.21051 3.48199 4.15779C3.75612 4.10507 4.07242 4.07872 4.4309 4.07872C5.48523 4.07872 6.19164 4.42138 6.55011 5.10669C6.91913 5.78147 7.10364 6.68293 7.10364 7.81106C7.10364 8.10628 7.09309 8.50693 7.07201 9.01301C7.07201 9.31876 7.05092 9.76686 7.00875 10.3573L6.99293 10.7368L7.00875 11.6699C7.02983 12.0917 7.04038 12.4132 7.04038 12.6346L7.02456 13.1091C7.00348 13.3516 6.90859 13.4728 6.73989 13.4728L6.61337 13.457H5.96495C5.92278 13.457 5.88061 13.4412 5.83843 13.4096C5.8068 13.3674 5.79099 13.32 5.79099 13.2673V13.1407C5.15839 13.32 4.65231 13.4465 4.27275 13.5203C3.89319 13.5941 3.42928 13.631 2.88102 13.631ZM2.89684 12.7295C4.02498 12.7295 4.98969 12.5398 5.79099 12.1602L5.83843 10.6894C5.3429 10.6472 4.91589 10.6261 4.55742 10.6261L3.62433 10.642C3.11825 10.642 2.66488 10.7421 2.26424 10.9424C1.86359 11.1322 1.64745 11.4011 1.61582 11.749C1.61582 12.1286 1.70544 12.3869 1.88468 12.5239C2.06391 12.661 2.4013 12.7295 2.89684 12.7295ZM10.7138 13.5203C10.2921 13.5203 9.97575 13.457 9.76489 13.3305C9.55402 13.204 9.41696 13.03 9.3537 12.8086C9.29044 12.5767 9.25881 12.2656 9.25881 11.8755L9.27462 10.895L9.3537 9.02882L9.40114 7.6371V4.56898C9.40114 4.18942 9.40641 3.89421 9.41696 3.68334L9.43277 3.08237V2.40232C9.42223 2.14928 9.43804 1.98059 9.48022 1.89624C9.53293 1.80135 9.60674 1.75391 9.70163 1.75391C9.75434 1.75391 9.79652 1.75918 9.82815 1.76972H9.85978C9.88086 1.76972 9.91776 1.76972 9.97048 1.76972C10.0232 1.75918 10.0706 1.76445 10.1128 1.78554C10.3237 1.81717 10.4291 1.90679 10.4291 2.05439C10.4291 2.08602 10.4186 2.20727 10.3975 2.41814C10.3026 3.1878 10.2604 4.14725 10.271 5.29647V9.06045L10.2393 9.77213C10.2183 10.3204 10.2077 10.7474 10.2077 11.0531V11.3694C10.2077 11.7068 10.2815 11.9599 10.4291 12.1286C10.5767 12.2867 10.7718 12.3658 11.0143 12.3658C11.1303 12.3658 11.2304 12.3605 11.3148 12.35C11.3991 12.3289 11.4624 12.3183 11.5045 12.3183C11.6205 12.3183 11.6785 12.3974 11.6785 12.5556L11.7734 13.204C11.6258 13.3411 11.4782 13.4254 11.3306 13.457C11.183 13.4992 10.9774 13.5203 10.7138 13.5203ZM16.4157 13.631C14.908 13.631 13.8748 13.1776 13.316 12.2709C12.7572 11.3642 12.4778 10.1464 12.4778 8.61763C12.4778 7.82688 12.6412 7.0783 12.968 6.3719C13.3054 5.65495 13.7588 5.08033 14.3281 4.64806C14.908 4.21578 15.5459 3.99964 16.2418 3.99964C17.0852 3.99964 17.7653 4.28431 18.2819 4.85365C18.7985 5.42299 19.1623 6.14521 19.3731 7.02031C19.5945 7.88487 19.7053 8.79687 19.7053 9.75631C19.7158 9.83012 19.6894 9.87756 19.6262 9.89865C19.5629 9.91974 19.4364 9.93028 19.2466 9.93028C18.9092 9.90919 18.6351 9.89865 18.4242 9.89865C18.0763 9.89865 17.6177 9.90919 17.0483 9.93028L16.6371 9.94609H16.0994C15.3508 9.94609 14.8659 9.94082 14.6444 9.93028C14.1384 9.93028 13.7693 9.92501 13.5374 9.91446C13.6006 10.8634 13.859 11.5803 14.3123 12.0653C14.7762 12.5398 15.4563 12.777 16.3525 12.777C16.8269 12.777 17.2961 12.6505 17.76 12.3974C18.2239 12.1338 18.556 11.807 18.7564 11.4169C18.7669 11.4063 18.7827 11.4011 18.8038 11.4011C18.8565 11.4011 18.9198 11.438 18.9936 11.5118C19.0779 11.575 19.1412 11.6225 19.1834 11.6541C19.2993 11.7279 19.3837 11.7859 19.4364 11.8281C19.4891 11.8703 19.5207 11.9282 19.5313 12.002C19.2361 12.4343 18.7985 12.8139 18.2186 13.1407C17.6493 13.4676 17.0483 13.631 16.4157 13.631ZM16.8269 8.94975C17.1116 8.94975 17.391 8.94447 17.6651 8.93393C17.9498 8.91284 18.2977 8.88121 18.7089 8.83904C18.5929 7.76362 18.3452 6.8358 17.9656 6.0556C17.5966 5.27539 17.1169 4.88528 16.5264 4.88528C16.0203 4.88528 15.5459 5.06452 15.1031 5.42299C14.6603 5.77092 14.2965 6.25065 14.0118 6.86216C13.7272 7.47368 13.5637 8.15899 13.5216 8.91812C13.5954 8.91812 13.6955 8.92339 13.8221 8.93393C13.9486 8.93393 14.1278 8.92866 14.3598 8.91812L16.8269 8.94975Z" fill="#0D0D0D"/>
</g>
<defs>
<clipPath id="clip0_1502_730">
<rect width="92" height="29.5224" fill="white"/>
</clipPath>
</defs>
</svg>
