<svg width="151" height="45" viewBox="0 0 151 45" fill="none" xmlns="http://www.w3.org/2000/svg">
    <path
        d="M13.1111 41.988C12.1657 40.1381 11.8748 38.1381 12.2384 35.9883C12.5998 33.8384 13.0929 32.0157 13.7133 30.5203L15.7701 25.6979C16.0973 24.9888 16.4496 24.1843 16.8223 23.2866C17.0246 22.8003 17.195 22.5116 17.3314 22.4162C17.4677 22.323 17.6745 22.2957 17.954 22.3321C18.3131 22.3321 19.379 22.2003 21.1539 21.9389C21.7561 21.9026 21.9107 22.2389 21.6107 22.948C21.5175 23.173 21.3493 23.4911 21.113 23.9002C20.8744 24.3116 20.6857 24.6843 20.5448 25.0229C19.0222 28.65 18.0813 31.4544 17.7177 33.4338C17.3518 35.4156 17.4109 36.77 17.895 37.4995C18.3768 38.2291 19.1972 38.5927 20.3562 38.5927C21.6448 38.5927 22.8697 38.1904 24.0356 37.3882C25.2014 36.5837 26.2014 35.6201 27.0377 34.4997C27.874 33.377 28.5081 32.3112 28.9399 31.3021L35.7191 15.8233C36.1327 14.7029 36.6304 13.4689 37.2077 12.1212L39.5871 6.68287C39.9212 5.74883 40.2552 5.16022 40.5916 4.91478C40.9279 4.67161 41.3097 4.55116 41.7415 4.55116C41.9551 4.5148 42.2892 4.46707 42.7437 4.41026C43.1983 4.35344 43.6073 4.32617 43.971 4.32617C44.3346 4.32617 44.5914 4.34435 44.7414 4.38299C45.2868 4.41935 45.5822 4.54207 45.6254 4.74661C45.6686 4.95341 45.5027 5.44884 45.13 6.2329L37.6054 23.3934C37.4599 23.6548 37.3258 23.9457 37.2054 24.2638C37.0827 24.582 36.9668 24.8729 36.8531 25.1342L36.0759 26.9296C30.9307 38.8199 25.331 44.7628 19.2744 44.7628C16.1041 44.7651 14.0497 43.8379 13.1111 41.988Z"
        fill="#241600" />
    <path
        d="M31.9263 43.6422C31.974 43.5308 32.0308 43.4377 32.0967 43.3627C32.1286 43.2877 32.1854 43.1945 32.2672 43.0809C32.3467 42.9695 32.4695 42.7991 32.6308 42.5763L33.9671 40.5014C34.1285 40.2765 34.4125 39.8856 34.8193 39.3242C35.2239 38.7629 35.5648 38.2402 35.842 37.7538C36.3943 36.8562 37.2965 35.4926 38.5487 33.6609L39.6236 32.0905C41.2531 29.7724 42.3553 28.1475 42.928 27.2112L44.9143 24.2386C45.7824 23.0046 46.321 22.2205 46.5347 21.8842C47.2551 20.7615 48.1982 19.3593 49.3641 17.6776L50.3981 16.1072L51.2117 14.93C52.1003 13.6596 52.7844 12.7414 53.2616 12.1824C53.4252 11.9574 54.007 11.1824 55.0047 9.85522C56.0024 8.52801 56.7433 7.47124 57.2228 6.68719C57.85 5.78951 58.3886 5.11681 58.8363 4.66684C59.284 4.21913 59.7204 3.99414 60.1522 3.99414C60.3181 3.99414 60.409 4.16231 60.4249 4.49866C60.4408 4.83501 60.4226 5.24635 60.3726 5.73269C60.3204 6.21903 60.2794 6.57356 60.2454 6.79855C60.1931 7.50988 59.8636 9.28479 59.2568 12.1256L58.95 13.6959C58.8477 13.9959 58.5727 15.8254 58.1159 19.1911L57.6659 22.2751L57.3637 24.9113C56.9455 27.8657 56.7228 29.6611 56.6978 30.2951C56.0433 34.2586 55.6251 36.6516 55.4479 37.4743C55.2342 38.447 55.0456 39.6628 54.8843 41.1196C54.7229 42.5763 54.6297 43.399 54.6093 43.5877C54.5865 43.849 54.5502 44.0354 54.5002 44.149C54.432 44.299 54.2207 44.374 53.8684 44.374H51.1754C51.0458 44.374 50.9549 44.3467 50.9004 44.2899C50.8458 44.2331 50.8367 44.0944 50.8731 43.8695C50.9299 43.4581 51.0572 42.7854 51.2526 41.8514C51.3844 40.9173 51.5685 40.0765 51.8094 39.3265C51.9639 38.7652 52.1139 38.0925 52.2571 37.3084C52.4003 36.5244 52.4821 35.9267 52.5071 35.5131C52.5344 34.804 52.6366 33.9995 52.8139 33.1018L53.1048 31.4746C53.1253 31.0633 53.1184 30.811 53.0798 30.7178C53.0389 30.6247 52.923 30.5769 52.7298 30.5769C52.048 30.5769 51.5367 30.5951 51.1981 30.6315L49.0573 30.7451C48.78 30.7815 47.5733 30.8019 45.4347 30.8019H42.469H42.3712C42.1781 30.8019 41.9417 31.0065 41.6622 31.4178L41.319 31.9791L40.6577 33.045C40.4941 33.27 39.8077 34.354 38.6032 36.2971C38.2283 36.9334 37.7056 37.7561 37.0397 38.7652C36.6465 39.5129 36.2329 40.131 35.7966 40.6151C35.6829 40.7264 35.4875 40.9901 35.2125 41.3991C34.9352 41.8105 34.708 42.1468 34.5307 42.4082C34.3035 42.7082 33.9785 43.1922 33.558 43.8672C33.508 43.9058 33.4399 43.9899 33.3512 44.1194C33.2626 44.2513 33.1808 44.3263 33.1081 44.3444C33.0353 44.3626 32.9353 44.3717 32.8081 44.3717H31.8468C31.5627 44.3717 31.5877 44.1285 31.9263 43.6422ZM48.7323 26.9862C49.155 26.9112 49.7254 26.8748 50.439 26.8748L53.048 26.9294C53.4707 26.9294 53.7411 26.7998 53.857 26.5362C53.9411 26.3499 54.0093 25.9385 54.0661 25.3022C54.1207 24.7409 54.2957 23.6954 54.5865 22.1614C54.8434 20.9274 55.0229 19.8638 55.1274 18.9661C55.2979 17.8435 55.5365 16.5185 55.841 14.9845C56.1433 13.4528 56.3615 12.4619 56.4955 12.0119C56.8796 10.0302 56.9887 9.03935 56.8251 9.03935C56.7274 9.03935 56.3365 9.54387 55.6615 10.5529L54.8206 11.7892C54.1434 12.7983 53.2912 14.0596 52.2617 15.5731C51.2322 17.0867 50.339 18.3684 49.5845 19.4161C48.9596 20.3888 48.1505 21.6137 47.1574 23.0887C46.1642 24.5659 45.4484 25.584 45.0075 26.1453C44.8438 26.3703 44.7529 26.5021 44.737 26.5385C44.6211 26.7998 44.6529 26.968 44.8325 27.043C45.0097 27.118 45.2097 27.1476 45.4302 27.1271C45.6483 27.1089 45.7915 27.0998 45.8574 27.0998L48.7323 26.9862Z"
        fill="#241600" />
    <path
        d="M55.6358 43.9786C55.6381 43.8286 55.6836 43.6786 55.7676 43.5308C55.8517 43.3809 55.9108 43.2695 55.9449 43.1945C56.1994 42.6332 56.8381 41.8673 57.8585 40.8969C58.6811 40.1492 59.2675 39.606 59.6129 39.2697C65.1626 34.1859 68.5375 31.1383 69.7147 30.1292L75.3576 25.1931C80.171 21.007 83.0231 18.5389 83.8958 17.7912C85.6775 16.2958 87.8865 14.2777 90.5273 11.7347L94.1703 8.20076H91.2C88.9228 8.20076 87.4797 8.18258 86.8707 8.14395C85.848 8.14395 84.9003 8.12577 84.0254 8.08941C81.0891 8.01441 78.6324 7.97578 76.653 7.97578C75.2326 7.97578 74.2099 8.01441 73.5827 8.08941C72.2782 8.20076 71.7691 7.93941 72.0578 7.30535C72.3964 6.55766 72.7941 5.82815 73.2509 5.11683C73.4372 4.78048 73.71 4.6123 74.0758 4.6123C74.2417 4.6123 74.5008 4.66003 74.8554 4.75321C75.2099 4.84638 75.503 4.89411 75.7349 4.89411L80.6233 4.83957L86.0071 4.89411C89.4478 4.89411 91.6545 4.95092 92.6272 5.06228C94.4248 5.25091 95.7202 5.34409 96.5134 5.34409C97.0429 5.34409 97.3974 5.32591 97.5815 5.28727L97.9542 5.23273C98.186 5.23273 98.3042 5.28045 98.3087 5.37363C98.3133 5.46681 98.2769 5.58044 98.1997 5.70998C98.1201 5.84179 98.0633 5.94406 98.0292 6.01905C97.8701 6.3554 97.4747 7.04855 96.8475 8.09395C96.6361 8.46893 96.3202 8.84164 95.8952 9.21435C95.4702 9.58933 94.8362 10.112 93.9908 10.7847C94.0408 10.7484 93.434 11.2324 92.1659 12.2437C89.9682 14.1868 86.9775 16.9549 83.2004 20.5433C82.3573 21.366 79.2233 24.1704 73.8122 28.9566L72.4873 30.1338C71.2555 31.2542 69.4693 32.845 67.1307 34.9017C66.6671 35.2767 65.9444 35.9676 64.9649 36.9766L63.6218 38.322L61.2628 40.7333C62.7559 40.7719 64.7877 40.7901 67.3603 40.7901L74.0372 40.8469L75.9621 40.9582L78.2234 41.0719L81.4323 41.0151H81.5277C81.7846 41.0151 81.8664 41.0992 81.7686 41.2673C81.6709 41.4355 81.6164 41.5378 81.5982 41.5764L80.7937 43.3718C80.5801 43.8195 80.2665 44.0445 79.8506 44.0445C79.7551 44.0445 79.5301 44.0081 79.1824 43.9331C78.3393 43.7467 77.3393 43.6899 76.1826 43.7649L71.4646 43.8763L64.8445 44.0445C60.0652 44.0445 57.2517 44.1013 56.3994 44.2126H56.1108C55.7904 44.2035 55.6313 44.1285 55.6358 43.9786Z"
        fill="#241600" />
    <path
        d="M111.697 6.70607C113.388 6.70607 114.901 7.20377 116.322 8.22645C117.581 9.13549 118.269 10.9581 118.374 13.6398C118.478 16.5715 117.203 20.7281 114.588 25.9983C112.204 30.8026 109.392 34.4752 106.229 36.9159C103.052 39.3749 100.213 40.9612 97.7931 41.6316C95.3114 42.318 93.3637 42.6679 92.0092 42.6679C91.9979 42.6679 91.9888 42.6679 91.9774 42.6679C91.9365 42.6679 89.0117 42.727 87.0345 42.7588L103.225 8.88323C103.236 8.86051 103.245 8.84005 103.254 8.81733C103.481 8.28099 103.759 7.66738 104.081 6.98787C104.954 6.90833 110.822 6.70607 111.697 6.70607ZM98.5885 33.9615C98.8044 33.9615 99.0203 33.9184 99.2248 33.8275C100.434 33.2979 101.681 32.5616 102.934 31.6367C105.631 29.6936 107.668 27.346 108.981 24.6552C110.381 21.7871 110.495 19.3668 109.317 17.4578C109.308 17.4419 109.297 17.426 109.288 17.4124C108.718 16.5533 107.922 15.9056 106.929 15.4852C106.729 15.4011 106.515 15.3579 106.304 15.3579C106.099 15.3579 105.895 15.3965 105.702 15.4784C105.309 15.642 104.997 15.9533 104.836 16.3488C104.597 16.9147 101.625 22.8053 99.6589 26.7028C98.393 29.2118 97.3931 31.1958 97.159 31.6776C96.8681 32.2775 96.9817 32.9934 97.4431 33.4752C97.7476 33.7934 98.1658 33.9615 98.5885 33.9615ZM111.697 5.11523C110.838 5.11523 104.309 5.33113 103.786 5.42431C103.261 5.51749 102.902 5.76975 102.704 6.18109C102.347 6.92878 102.041 7.60375 101.788 8.19917L85.4118 42.4634C84.805 43.7361 84.8051 44.3701 85.4141 44.3701C86.4391 44.3701 92.007 44.2565 92.007 44.2565C93.5137 44.2565 95.5818 43.8929 98.2158 43.1634C100.852 42.4339 103.845 40.7703 107.202 38.1727C110.567 35.5751 113.506 31.7503 116.013 26.7028C118.758 21.1713 120.076 16.7965 119.962 13.5807C119.84 10.365 118.935 8.15145 117.253 6.9356C115.567 5.7243 113.715 5.11523 111.697 5.11523ZM98.5885 32.3707C99.2225 31.0617 105.974 17.7714 106.309 16.9487C107.015 17.2487 107.568 17.6964 107.965 18.2941C108.843 19.7168 108.704 21.6031 107.554 23.9575C106.349 26.4256 104.495 28.555 102 30.3504C100.834 31.2117 99.6975 31.8866 98.5885 32.3707Z"
        fill="#241600" />
    <path
        d="M150.72 27.3502L150.204 22.8868C150.184 22.7118 150.027 22.5936 149.854 22.6277C148.072 22.9913 145.484 23.464 142.318 23.8299C141.33 23.9435 140.525 24.0208 138.841 24.1571C138.675 24.1708 138.539 24.0299 138.557 23.8662C138.873 20.9278 139.132 18.9756 139.332 18.0143C139.839 15.5485 140.155 13.5463 140.28 12.0146C140.689 7.97612 140.952 5.73305 141.082 5.28534C141.125 5.13535 141.191 4.874 141.282 4.50129C141.373 4.12631 141.357 3.86496 141.234 3.71497C141.121 3.41725 140.823 3.54679 140.341 4.10813C139.318 5.34216 138.382 6.53983 137.53 7.69659L134.028 12.1827C132.253 14.4644 130.394 16.912 128.453 19.5301C127.88 20.2778 127.414 20.9141 127.053 21.4368C126.267 22.4845 125.405 23.6435 124.474 24.9139C122.081 27.8683 120.272 30.2796 119.042 32.1477C118.104 33.5703 115.876 36.5974 112.37 41.2336C111.822 41.9449 111.242 42.6562 110.633 43.3653C110.281 43.813 110.086 44.0766 110.049 44.1516C109.974 44.3016 110.018 44.3743 110.179 44.3743H113.015C113.174 44.3743 113.326 44.3107 113.474 44.1789C113.617 44.0493 113.854 43.7585 114.174 43.3085L115.376 41.6836L117.117 39.2723C117.515 38.6746 117.958 38.0292 118.451 37.336C118.942 36.6452 119.369 36.0384 119.731 35.5134L120.726 34.1112C120.815 33.9998 120.926 33.8408 121.065 33.634C121.199 33.4294 121.347 33.2499 121.501 33.1022C121.656 32.9544 121.817 32.8772 121.978 32.8772L124.524 32.934C125.267 32.934 125.794 32.9158 126.103 32.8772C127.046 32.8044 127.987 32.7658 128.926 32.7658C130.262 32.7658 131.085 32.7295 131.396 32.6567C131.407 32.6545 131.417 32.6522 131.428 32.6522C131.519 32.6431 131.61 32.634 131.701 32.6272C131.705 32.6272 131.71 32.6272 131.714 32.6249C132.01 32.5976 132.294 32.5681 132.562 32.5408C132.921 32.5045 133.214 32.484 133.439 32.484C133.444 32.484 133.448 32.484 133.453 32.4863C133.671 32.4886 133.798 32.5635 133.832 32.709C133.869 32.8567 133.837 33.1499 133.739 33.5908C133.737 33.6021 133.735 33.6112 133.735 33.6226C133.71 33.9248 133.657 34.4316 133.575 35.1498C133.491 35.8793 133.4 36.4315 133.305 36.8042C133.126 37.5906 132.91 38.6542 132.651 40.0018C132.391 41.3358 132.246 42.1949 132.214 42.5699C132.214 42.5767 132.212 42.5812 132.212 42.5881C132.18 42.7744 132.146 42.9949 132.107 43.2539C132.069 43.5153 132.046 43.7766 132.039 44.038C132.032 44.3016 132.094 44.4311 132.221 44.4311H135.682C136.259 44.4311 136.625 44.2834 136.78 43.9834C136.837 43.8744 136.882 43.6448 136.914 43.2926C136.916 43.2676 136.914 43.2426 136.909 43.2198C136.807 42.6767 136.878 41.4745 137.123 39.6087L137.271 38.2065C137.448 35.6384 137.6 33.5567 137.725 31.9568C137.734 31.8409 137.816 31.7477 137.93 31.7204C138.764 31.5295 139.775 31.2886 141.193 30.9614C144.509 30.1955 147.32 29.591 149.429 29.1501C150.261 28.9728 150.818 28.1956 150.72 27.3502ZM130.98 24.9389C130.646 24.9526 130.335 24.9639 130.042 24.973C129.064 25.0071 128.314 25.023 127.789 25.023C127.496 25.023 127.405 24.9117 127.519 24.6867C127.633 24.4617 127.83 24.164 128.119 23.789C128.367 23.4913 128.817 22.939 129.467 22.1345C130.119 21.33 130.651 20.6482 131.064 20.0869C131.894 18.9642 133.151 17.3211 134.839 15.1508C135.055 14.8531 135.364 14.4235 135.764 13.8622C136.162 13.3009 136.412 13.0213 136.509 13.0213C136.575 13.0213 136.612 13.0781 136.621 13.1895C136.63 13.3009 136.628 13.4509 136.616 13.6372C136.603 13.8236 136.582 14.0054 136.555 14.1895C136.555 14.194 136.553 14.2008 136.553 14.2054C136.537 14.4326 136.466 14.8394 136.346 15.4326C136.223 16.028 136.098 16.7734 135.969 17.6666C135.969 17.6711 135.966 17.6779 135.966 17.6825C135.796 18.4665 135.612 19.6324 135.409 21.1777C135.205 22.7299 135.098 23.6731 135.091 24.0094C135.073 24.2321 135.046 24.3821 135.007 24.4571C135.007 24.4571 135.007 24.4594 135.005 24.4594C134.966 24.5344 134.889 24.5889 134.775 24.6253C134.66 24.6685 132.426 24.8844 130.98 24.9389Z"
        fill="#241600" />
    <path
        d="M4.31458 19.5393C3.05424 19.5393 2.04424 19.2889 1.28458 18.7882C0.524918 18.2876 0.145088 17.3984 0.145088 16.1208C0.231413 15.2921 0.84432 14.6792 1.98381 14.2821C3.1233 13.885 4.40091 13.6864 5.81664 13.6864C6.26553 13.6864 6.80074 13.6519 7.42228 13.5828C8.04382 13.5138 8.61356 13.4793 9.13151 13.4793C9.06245 11.6146 8.9416 10.1557 8.76895 9.10258C8.61356 8.03215 8.33732 7.22933 7.94023 6.69412C7.5604 6.1589 7.01655 5.89129 6.30869 5.89129C5.79074 5.89129 5.29869 6.01215 4.83253 6.25386C4.36638 6.49557 3.788 6.8754 3.0974 7.39335C2.52766 7.80771 2.24278 8.01489 2.24278 8.01489C2.22552 8.01489 2.16509 8.04942 2.0615 8.11848C1.97518 8.17027 1.88885 8.18754 1.80253 8.17027C1.64714 8.13574 1.56945 8.05805 1.56945 7.9372C1.50039 7.83361 1.41406 7.60053 1.31047 7.23796C1.22415 6.8754 1.18099 6.61642 1.18099 6.46104C1.18099 6.35745 1.28458 6.2366 1.49176 6.09848C2.37227 5.44241 3.11467 4.95899 3.71894 4.64822C4.34048 4.32018 4.86706 4.113 5.29869 4.02668C5.74758 3.94035 6.26553 3.89719 6.85254 3.89719C8.57903 3.89719 9.73579 4.4583 10.3228 5.58053C10.9271 6.68548 11.2292 8.16164 11.2292 10.009C11.2292 10.4924 11.2119 11.1485 11.1774 11.9772C11.1774 12.4779 11.1429 13.2116 11.0738 14.1785L11.0479 14.8L11.0738 16.328C11.1084 17.0186 11.1256 17.5452 11.1256 17.9077L11.0997 18.6846C11.0652 19.0817 10.9098 19.2803 10.6336 19.2803L10.4264 19.2544H9.36459C9.29553 19.2544 9.22647 19.2285 9.15741 19.1767C9.10562 19.1076 9.07972 19.0299 9.07972 18.9436V18.7364C8.04382 19.0299 7.2151 19.2371 6.59356 19.358C5.97202 19.4788 5.21236 19.5393 4.31458 19.5393ZM4.34048 18.0631C6.18783 18.0631 7.76758 17.7523 9.07972 17.1308L9.15741 14.7223C8.34596 14.6533 7.64673 14.6187 7.05972 14.6187L5.53176 14.6446C4.70304 14.6446 3.96065 14.8087 3.30458 15.1367C2.64851 15.4475 2.29458 15.8877 2.24278 16.4575C2.24278 17.079 2.38954 17.502 2.68304 17.7264C2.97655 17.9509 3.52903 18.0631 4.34048 18.0631ZM17.1409 19.358C16.4503 19.358 15.9324 19.2544 15.5871 19.0472C15.2418 18.84 15.0173 18.5552 14.9137 18.1926C14.8101 17.8128 14.7583 17.3035 14.7583 16.6646L14.7842 15.059L14.9137 12.0031L14.9914 9.72412V4.70001C14.9914 4.07847 15.0001 3.59505 15.0173 3.24975L15.0432 2.26565V1.15206C15.026 0.737696 15.0519 0.461457 15.1209 0.323338C15.2072 0.167953 15.3281 0.0902605 15.4835 0.0902605C15.5698 0.0902605 15.6389 0.0988929 15.6907 0.116158H15.7425C15.777 0.116158 15.8374 0.116158 15.9237 0.116158C16.0101 0.0988929 16.0878 0.107525 16.1568 0.142055C16.5021 0.19385 16.6748 0.340603 16.6748 0.582312C16.6748 0.634107 16.6575 0.832654 16.623 1.17795C16.4676 2.4383 16.3985 4.00941 16.4158 5.89129V12.0549L16.364 13.2203C16.3295 14.1181 16.3122 14.8173 16.3122 15.318V15.8359C16.3122 16.3884 16.4331 16.8028 16.6748 17.079C16.9165 17.338 17.2359 17.4675 17.633 17.4675C17.8229 17.4675 17.9869 17.4588 18.125 17.4416C18.2631 17.407 18.3667 17.3898 18.4358 17.3898C18.6257 17.3898 18.7207 17.5193 18.7207 17.7782L18.876 18.84C18.6343 19.0645 18.3926 19.2026 18.1509 19.2544C17.9092 19.3235 17.5725 19.358 17.1409 19.358ZM26.478 19.5393C24.0091 19.5393 22.3171 18.7969 21.4021 17.3121C20.487 15.8273 20.0295 13.8332 20.0295 11.3298C20.0295 10.0349 20.2971 8.80908 20.8323 7.65232C21.3848 6.4783 22.1272 5.53736 23.0595 4.8295C24.0091 4.12163 25.0536 3.7677 26.1931 3.7677C27.5743 3.7677 28.6879 4.23386 29.5339 5.16617C30.3799 6.09848 30.9755 7.28113 31.3208 8.71412C31.6834 10.1298 31.8646 11.6233 31.8646 13.1944C31.8819 13.3152 31.8387 13.3929 31.7352 13.4275C31.6316 13.462 31.4244 13.4793 31.1136 13.4793C30.5611 13.4447 30.1122 13.4275 29.7669 13.4275C29.1972 13.4275 28.4462 13.4447 27.5139 13.4793L26.8405 13.5052H25.96C24.7342 13.5052 23.94 13.4965 23.5775 13.4793C22.7487 13.4793 22.1445 13.4706 21.7646 13.4534C21.8682 15.0072 22.2912 16.1812 23.0336 16.9754C23.7933 17.7523 24.9069 18.1408 26.3744 18.1408C27.1513 18.1408 27.9196 17.9336 28.6793 17.5193C29.4389 17.0876 29.9828 16.5524 30.3108 15.9136C30.3281 15.8964 30.354 15.8877 30.3885 15.8877C30.4748 15.8877 30.5784 15.9481 30.6993 16.069C30.8374 16.1726 30.941 16.2503 31.01 16.3021C31.1999 16.4229 31.3381 16.5179 31.4244 16.587C31.5107 16.656 31.5625 16.751 31.5798 16.8718C31.0964 17.5797 30.3799 18.2012 29.4303 18.7364C28.498 19.2717 27.5139 19.5393 26.478 19.5393ZM27.1513 11.8736C27.6175 11.8736 28.075 11.865 28.5239 11.8477C28.99 11.8132 29.5598 11.7614 30.2331 11.6923C30.0432 9.9313 29.6375 8.41198 29.0159 7.13437C28.4116 5.85676 27.6261 5.21796 26.6593 5.21796C25.8305 5.21796 25.0536 5.51147 24.3285 6.09848C23.6033 6.66822 23.0077 7.45378 22.5416 8.45515C22.0754 9.45651 21.8078 10.5787 21.7387 11.8218C21.8596 11.8218 22.0236 11.8305 22.2308 11.8477C22.438 11.8477 22.7315 11.8391 23.1113 11.8218L27.1513 11.8736Z"
        fill="#241600" />
</svg>