<svg width="1537" height="456" viewBox="0 0 1537 456" fill="none" xmlns="http://www.w3.org/2000/svg">
<g clip-path="url(#clip0_723_2194)">
<path d="M824.569 175.235C807.322 178.15 807.224 169.378 789.982 172.293C772.735 175.208 772.828 183.981 755.573 186.896C738.317 189.811 738.232 181.039 720.981 183.954C703.725 186.869 703.805 195.642 686.545 198.557C669.281 201.472 669.21 192.7 651.945 195.615C634.68 198.53 622.663 209.288 617.483 210.218C615.711 210.512 614.438 210.356 613.962 210.271C613.86 210.254 613.824 210.134 613.895 210.044L621.399 200.07C621.47 199.972 621.43 199.848 621.319 199.839L606.565 198.472C606.453 198.464 606.409 198.33 606.489 198.237L621.964 186.754C622.04 186.66 622.009 186.54 621.907 186.518L598.771 177.282C598.669 177.264 598.638 177.14 598.709 177.051L607.838 165.657C607.913 165.563 607.878 165.439 607.771 165.421L591.534 162.702C591.396 162.679 591.392 162.488 591.53 162.417C593.653 161.304 603.369 156.226 604.264 155.892C605.265 155.518 621.568 144.965 638.517 142.869C655.466 140.773 655.118 149.607 672.067 147.511C689.011 145.415 689.354 136.584 706.293 134.488C723.233 132.392 722.899 141.226 739.839 139.13C756.779 137.034 757.108 128.203 774.043 126.107C790.979 124.011 795.162 141.502 812.102 139.406L815.306 149.251L824.569 175.235Z" fill="#F9AC12" stroke="#0D0D0D" stroke-width="2.22539" stroke-miterlimit="10"/>
<path d="M760.984 266.098C831.645 265.969 876.949 241.552 886.51 236.656" stroke="#0D0D0D" stroke-width="1.52074" stroke-miterlimit="10" stroke-linecap="round"/>
<path d="M894.601 235.606C893.982 234.831 894.303 233.576 895.273 232.957C920.34 216.992 939.376 201.201 945.011 200.707C949.034 200.355 952.466 201.49 952.466 201.49C954.678 202.225 957.94 203.302 959.311 206.319C959.734 207.254 959.867 208.14 958.719 216.311C957.753 223.175 957.62 223.709 957.237 224.443C956.836 225.204 955.728 227.082 952.946 228.943C949.786 231.057 945.981 231.239 943.07 229.668C941.414 228.774 939.438 228.409 938.165 230.527C936.109 233.95 916.957 245.037 909.631 249.198C907.98 250.133 906.075 249.888 905.051 248.615L894.601 235.606Z" stroke="#0D0D0D" stroke-width="2.67047" stroke-miterlimit="10" stroke-linecap="round"/>
<path d="M1314.64 401.322C1293.12 403.538 1234.54 404.998 1186.43 405.901C1187.1 404.904 1187.76 403.899 1188.4 402.884C1188.71 402.372 1189.03 401.86 1189.35 401.348C1189.96 400.325 1190.57 399.292 1191.16 398.251C1191.18 398.219 1191.2 398.188 1191.21 398.157C1191.46 397.708 1191.71 397.258 1191.96 396.804C1192.03 396.671 1192.1 396.541 1192.17 396.408C1192.36 396.065 1192.54 395.723 1192.72 395.375C1192.86 395.113 1193 394.855 1193.13 394.592C1193.21 394.436 1193.29 394.28 1193.36 394.125C1193.54 393.791 1193.71 393.453 1193.87 393.119C1193.89 393.092 1193.9 393.065 1193.91 393.039C1193.94 392.976 1193.97 392.914 1194 392.852C1194.2 392.447 1194.4 392.042 1194.59 391.632C1195.26 390.221 1195.9 388.806 1196.5 387.382C1196.7 386.905 1196.9 386.429 1197.09 385.953C1197.29 385.477 1197.48 385.001 1197.66 384.524C1198.23 383.078 1198.76 381.618 1199.26 380.145C1199.57 379.232 1199.87 378.315 1200.15 377.394C1200.15 377.39 1200.15 377.39 1200.15 377.39C1200.57 376.006 1200.97 374.612 1201.33 373.21C1201.58 372.276 1201.81 371.332 1202.02 370.389C1202.14 369.877 1202.25 369.369 1202.36 368.858C1202.47 368.35 1202.57 367.843 1202.67 367.335C1202.75 366.944 1202.83 366.548 1202.89 366.156C1202.95 365.853 1203 365.546 1203.06 365.244C1203.11 364.936 1203.16 364.629 1203.21 364.322C1203.31 363.744 1203.39 363.169 1203.48 362.591C1203.5 362.413 1203.53 362.23 1203.56 362.052C1203.58 361.852 1203.61 361.652 1203.64 361.451C1203.71 360.895 1203.78 360.339 1203.85 359.782C1203.85 359.716 1203.86 359.653 1203.87 359.587C1203.89 359.409 1203.91 359.235 1203.93 359.061C1203.95 358.883 1203.97 358.71 1203.98 358.536C1203.98 358.532 1203.98 358.527 1203.99 358.523C1203.99 358.514 1203.99 358.505 1203.99 358.496C1203.99 358.456 1204 358.42 1204 358.38C1204.04 358.024 1204.07 357.664 1204.1 357.308C1204.13 357.027 1204.15 356.747 1204.18 356.467C1204.2 356.106 1204.23 355.75 1204.26 355.389C1204.29 354.891 1204.32 354.397 1204.34 353.898C1204.47 351.411 1204.5 348.931 1204.42 346.47C1204.3 342.856 1203.97 339.269 1203.4 335.744C1202.89 332.521 1202.19 329.344 1201.3 326.228C1201.16 325.707 1201 325.191 1200.85 324.675C1200.69 324.181 1200.53 323.687 1200.37 323.197C1200.36 323.161 1200.35 323.126 1200.34 323.086C1200.19 322.636 1200.04 322.191 1199.88 321.746C1199.85 321.661 1199.82 321.577 1199.79 321.492C1199.69 321.203 1199.59 320.918 1199.48 320.633C1199.35 320.277 1199.22 319.921 1199.08 319.57C1199.07 319.556 1199.07 319.543 1199.06 319.53C1198.87 319.035 1198.68 318.546 1198.48 318.061C1198.27 317.567 1198.07 317.077 1197.86 316.588C1197.65 316.098 1197.43 315.613 1197.2 315.132C1196.98 314.651 1196.75 314.171 1196.52 313.695C1196.29 313.218 1196.06 312.742 1195.81 312.275C1195.57 311.803 1195.33 311.336 1195.08 310.873C1194.83 310.41 1194.57 309.947 1194.31 309.489C1194.05 309.03 1193.79 308.576 1193.52 308.127C1193.52 308.118 1193.52 308.109 1193.51 308.1C1193.24 307.655 1192.98 307.214 1192.7 306.778C1192.46 306.386 1192.21 305.995 1191.95 305.603C1191.85 305.438 1191.74 305.278 1191.63 305.113C1191.45 304.838 1191.26 304.562 1191.09 304.29C1190.89 304.001 1190.69 303.711 1190.48 303.422C1190.45 303.387 1190.43 303.346 1190.4 303.311C1190.23 303.066 1190.06 302.821 1189.88 302.581C1189.73 302.372 1189.58 302.163 1189.43 301.958C1189.29 301.771 1189.15 301.584 1189.01 301.402C1188.98 301.366 1188.96 301.326 1188.93 301.29C1188.5 300.734 1188.07 300.178 1187.64 299.635C1187.45 299.403 1187.26 299.172 1187.08 298.945C1186.86 298.687 1186.65 298.428 1186.43 298.175C1186.24 297.939 1186.04 297.707 1185.84 297.485C1185.8 297.436 1185.76 297.387 1185.72 297.338C1185.68 297.293 1185.64 297.244 1185.6 297.204C1185.4 296.969 1185.19 296.742 1184.99 296.515C1184.93 296.443 1184.87 296.377 1184.8 296.305C1184.62 296.101 1184.44 295.9 1184.25 295.705C1184.24 295.682 1184.21 295.664 1184.19 295.642C1184.14 295.584 1184.08 295.522 1184.03 295.464C1183.86 295.282 1183.69 295.104 1183.52 294.93C1183.51 294.917 1183.51 294.908 1183.5 294.899C1183.25 294.641 1183 294.383 1182.75 294.124C1182.5 293.866 1182.24 293.608 1181.98 293.354L1181.91 293.288C1181.56 292.941 1181.21 292.598 1180.85 292.26C1175.55 287.23 1169.49 282.975 1162.78 279.628C1161.82 279.152 1160.85 278.694 1159.86 278.253C1159.37 278.035 1158.88 277.817 1158.37 277.608C1157.87 277.398 1157.37 277.194 1156.86 276.993C1156.45 276.824 1156.03 276.664 1155.6 276.508C1155.35 276.406 1155.09 276.312 1154.83 276.223C1154.73 276.183 1154.62 276.143 1154.52 276.108C1154.05 275.939 1153.58 275.774 1153.11 275.614C1153.11 275.614 1153.1 275.614 1153.1 275.609C1152.61 275.445 1152.12 275.284 1151.63 275.129C1151.59 275.12 1151.55 275.106 1151.51 275.088C1151.02 274.937 1150.52 274.786 1150.03 274.639C1149.13 274.376 1148.22 274.127 1147.31 273.891C1147.3 273.887 1147.29 273.887 1147.28 273.882C1144.53 273.179 1141.74 272.614 1138.91 272.191C1138.89 272.187 1138.86 272.182 1138.84 272.178C1138.32 272.102 1137.81 272.031 1137.29 271.964C1136.84 271.902 1136.39 271.848 1135.93 271.795C1135.39 271.733 1134.85 271.679 1134.3 271.621C1133.85 271.581 1133.4 271.541 1132.95 271.51C1132.89 271.501 1132.83 271.497 1132.77 271.492C1132.22 271.448 1131.66 271.412 1131.1 271.381C1131.08 271.377 1131.07 271.377 1131.05 271.377C1130.19 271.328 1129.33 271.288 1128.46 271.261C1128.43 271.261 1128.4 271.256 1128.37 271.256C1127.58 271.234 1126.78 271.225 1125.98 271.221C1125.66 271.221 1125.34 271.216 1125.03 271.221C1124.81 271.216 1124.6 271.216 1124.39 271.225C1124.11 271.23 1123.83 271.234 1123.55 271.243C1122.94 271.256 1122.33 271.274 1121.72 271.301C1121.47 271.31 1121.21 271.323 1120.95 271.336C1120.75 271.345 1120.55 271.359 1120.34 271.372C1119.97 271.39 1119.6 271.417 1119.22 271.443C1118.96 271.457 1118.7 271.479 1118.45 271.497C1118.03 271.532 1117.61 271.568 1117.19 271.604C1116.81 271.639 1116.42 271.675 1116.04 271.715C1115.96 271.724 1115.89 271.728 1115.81 271.741C1115.6 271.759 1115.4 271.782 1115.19 271.808C1115.12 271.813 1115.04 271.822 1114.97 271.831C1113.99 271.942 1113.01 272.071 1112.04 272.209C1111.47 272.293 1110.89 272.382 1110.32 272.476C1109.08 272.676 1107.85 272.903 1106.61 273.157C1104.99 273.486 1103.35 273.856 1101.72 274.27C1101.15 274.416 1100.58 274.568 1100.01 274.724C1099.44 274.879 1098.87 275.04 1098.3 275.209C1097.83 275.347 1097.36 275.485 1096.88 275.631C1096.71 275.685 1096.53 275.738 1096.35 275.796C1095.95 275.925 1095.54 276.054 1095.13 276.188C1094.9 276.263 1094.65 276.339 1094.42 276.424C1094.25 276.482 1094.07 276.539 1093.89 276.597V276.602C1093.74 276.651 1093.59 276.704 1093.43 276.758C1092.91 276.936 1092.39 277.122 1091.87 277.309C1091.63 277.398 1091.39 277.487 1091.15 277.576C1090.46 277.83 1089.77 278.097 1089.08 278.373C1088.46 278.618 1087.83 278.876 1087.21 279.134C1086.78 279.312 1086.35 279.499 1085.92 279.682C1085.76 279.753 1085.59 279.824 1085.43 279.895C1077.46 283.394 1069.88 287.858 1062.89 293.141C1062.67 293.301 1062.46 293.461 1062.24 293.626C1062.17 293.679 1062.09 293.737 1062.02 293.795C1060.21 295.188 1058.43 296.644 1056.66 298.17C1052.91 301.428 1049.42 304.873 1046.2 308.469C1039.91 315.479 1034.66 323.063 1030.49 330.968C1030.29 331.333 1030.11 331.698 1029.91 332.067C1029.72 332.441 1029.53 332.811 1029.34 333.185C1029.16 333.549 1028.98 333.919 1028.81 334.288C1028.67 334.564 1028.54 334.836 1028.41 335.107C1028.26 335.428 1028.11 335.753 1027.96 336.073C1027.81 336.389 1027.67 336.701 1027.52 337.017C1027.51 337.034 1027.51 337.057 1027.5 337.075C1027.35 337.386 1027.22 337.702 1027.08 338.014C1026.94 338.339 1026.79 338.663 1026.66 338.988C1026.38 339.638 1026.1 340.292 1025.84 340.942C1024.92 343.225 1024.08 345.522 1023.33 347.832C1023.34 347.837 1023.33 347.841 1023.33 347.845C1023.01 348.838 1022.7 349.835 1022.41 350.832C1022.22 351.495 1022.04 352.163 1021.86 352.826C1021.76 353.16 1021.68 353.493 1021.6 353.823C1021.51 354.157 1021.43 354.49 1021.34 354.824C1021.18 355.492 1021.02 356.159 1020.87 356.827C1020.39 358.946 1019.98 361.082 1019.65 363.236C1019.57 363.735 1019.49 364.229 1019.43 364.723C1019.35 365.221 1019.29 365.715 1019.23 366.209C1019.17 366.699 1019.11 367.193 1019.06 367.683C1019 368.159 1018.96 368.635 1018.91 369.107C1018.91 369.151 1018.91 369.196 1018.9 369.24C1018.86 369.699 1018.82 370.162 1018.79 370.62C1018.75 371.034 1018.72 371.443 1018.7 371.857C1018.68 372.044 1018.68 372.227 1018.67 372.409C1018.65 372.627 1018.64 372.845 1018.64 373.064C1018.62 373.317 1018.61 373.567 1018.6 373.816C1018.6 373.963 1018.59 374.114 1018.59 374.265C1018.56 374.75 1018.55 375.24 1018.55 375.725C1018.53 376.041 1018.53 376.357 1018.53 376.673C1018.52 377.109 1018.52 377.546 1018.52 377.986C1018.53 378.858 1018.55 379.731 1018.57 380.594C1018.57 380.621 1018.58 380.652 1018.58 380.683C1018.6 381.155 1018.62 381.622 1018.64 382.09C1018.66 382.562 1018.69 383.024 1018.73 383.492C1018.75 383.883 1018.78 384.275 1018.81 384.662C1018.84 384.92 1018.86 385.179 1018.88 385.432C1018.91 385.753 1018.94 386.069 1018.97 386.389C1019.01 386.776 1019.05 387.159 1019.1 387.542C1019.11 387.622 1019.12 387.702 1019.13 387.782C1019.18 388.192 1019.23 388.601 1019.29 389.006V389.011C1019.35 389.447 1019.41 389.879 1019.48 390.31C1019.84 392.758 1020.32 395.162 1020.9 397.516C1020.96 397.788 1021.03 398.059 1021.11 398.326C1021.18 398.629 1021.26 398.927 1021.34 399.23C1021.34 399.234 1021.35 399.239 1021.35 399.243C1021.44 399.59 1021.54 399.937 1021.64 400.289C1021.65 400.342 1021.66 400.396 1021.68 400.449C1021.79 400.832 1021.9 401.215 1022.02 401.593C1022.12 401.914 1022.21 402.234 1022.31 402.55C1022.33 402.621 1022.35 402.688 1022.38 402.759C1022.5 403.142 1022.63 403.529 1022.76 403.912H1022.75L984.872 403.453L960.384 403.155L662.497 399.546L621.995 399.056C622.654 397.935 623.295 396.8 623.914 395.656C624.292 394.957 624.666 394.249 625.022 393.542C625.556 392.496 626.077 391.441 626.575 390.377C626.851 389.794 627.123 389.211 627.381 388.623C628.818 385.437 630.096 382.179 631.204 378.858C631.404 378.271 631.591 377.679 631.778 377.083C632.526 374.697 633.193 372.285 633.768 369.841C633.946 369.076 634.115 368.306 634.279 367.536C634.582 366.094 634.849 364.647 635.089 363.192C635.241 362.262 635.379 361.331 635.499 360.406C635.539 360.143 635.57 359.885 635.601 359.627C635.65 359.248 635.699 358.874 635.735 358.501C635.824 357.74 635.899 356.978 635.966 356.226C636.006 355.79 636.042 355.358 636.073 354.927C636.149 353.89 636.211 352.853 636.251 351.824C636.291 350.859 636.318 349.902 636.322 348.945C636.336 347.721 636.322 346.506 636.278 345.3C635.098 310.334 613.036 282.486 580.22 273.927C580.216 273.922 580.216 273.922 580.211 273.927C579.152 273.651 578.079 273.397 577.002 273.161H576.998C576.134 272.974 575.262 272.801 574.385 272.636C574.091 272.583 573.793 272.529 573.504 272.48C572.885 272.374 572.271 272.276 571.652 272.182C571.319 272.133 570.985 272.084 570.647 272.04C569.654 271.902 568.648 271.782 567.638 271.679C567.3 271.644 566.961 271.612 566.619 271.581C563.944 271.341 561.22 271.216 558.442 271.216C539.451 271.216 520.847 277.011 504.566 286.932C477.407 303.467 456.68 331.471 451.37 363.236C449.376 375.155 449.737 386.549 452.109 397.004C392.642 396.973 315.79 389.184 311.967 363.383C307.129 341.539 320.446 311.011 380.34 277.772C451.223 238.383 594.307 220.148 594.307 220.148H594.32C607.673 217.607 725.316 207.245 735.459 205.207C738.98 204.504 730.02 213.454 716.401 224.955C675.97 259.853 611.954 316.303 783.924 298.282C828.823 290.742 890.266 268.568 913.201 257.459C957.945 235.775 997.21 215.136 1005.67 219.334C1013.57 223.255 1206.09 257.174 1260.67 289.798C1305.17 316.361 1327.72 350.752 1328.91 379.873C1329.3 388.926 1325.13 400.24 1314.64 401.322Z" fill="#8A0EE2"/>
<path d="M959.374 234.422C979.549 195.571 998.639 160.472 1001.55 161.429C1001.6 161.447 1001.63 161.464 1001.65 161.482C1004.7 163.614 1026.84 193.421 1043.09 215.51" stroke="#0D0D0D" stroke-width="2.49587" stroke-miterlimit="10" stroke-linecap="round"/>
<path d="M445.686 355.073H2.32617" stroke="#0D0D0D" stroke-width="4.45078" stroke-miterlimit="10" stroke-linecap="round"/>
<path d="M584.796 188.654H306.76" stroke="#0D0D0D" stroke-width="1.33523" stroke-miterlimit="10" stroke-linecap="round"/>
<path d="M417.834 292.019H114.704" stroke="#0D0D0D" stroke-width="1.33523" stroke-miterlimit="10" stroke-linecap="round"/>
<path d="M247.947 272.075H103.671" stroke="#0D0D0D" stroke-width="4.89586" stroke-miterlimit="10" stroke-linecap="round"/>
<path d="M182.499 259.506H38.2578" stroke="#0D0D0D" stroke-width="1.78031" stroke-miterlimit="10" stroke-linecap="round"/>
<path d="M457.676 320.295H45.8633" stroke="#0D0D0D" stroke-width="3.11555" stroke-miterlimit="10" stroke-linecap="round"/>
<path d="M596.693 211.643H130.678" stroke="#0D0D0D" stroke-width="3.56063" stroke-miterlimit="10" stroke-linecap="round" stroke-dasharray="13.43 13.43"/>
<path d="M954.603 201.855C957.46 198.464 965.494 188.881 967.496 185.872C972.499 178.355 978.058 182.107 978.058 182.107C981.427 185.583 960.233 213.525 960.233 213.525" stroke="#0D0D0D" stroke-width="1.87908" stroke-miterlimit="10" stroke-linecap="round"/>
<path d="M172.511 370.518H604.37" stroke="#0D0D0D" stroke-width="4.0057" stroke-miterlimit="10" stroke-linecap="round" stroke-dasharray="22.25 22.25"/>
<path d="M902.808 216.712C892.002 224.154 880.831 231.929 871.831 238.218" stroke="#0D0D0D" stroke-width="1.78031" stroke-miterlimit="10" stroke-linecap="round"/>
<path d="M964.358 186.7C964.358 186.7 948.197 188.116 941.73 190.47C939.349 191.338 926.606 199.812 911.451 210.169" stroke="#0D0D0D" stroke-width="2.22539" stroke-miterlimit="10" stroke-linecap="round"/>
<path d="M803.872 179.245L771.612 208.086" stroke="#0D0D0D" stroke-width="2.67047" stroke-miterlimit="10" stroke-linecap="round"/>
<path d="M877.363 150.498C882.348 151.17 889.932 150.524 901.411 146.626C901.411 146.626 891.379 144.32 877.88 144.565" stroke="#0D0D0D" stroke-width="1.78031" stroke-miterlimit="10" stroke-linecap="round" stroke-linejoin="round"/>
<path d="M899.013 145.628C898.724 147.44 897.206 148.904 895.626 148.904C894.041 148.904 892.991 147.435 893.28 145.628" fill="#0D0D0D"/>
<path d="M905.964 144.774C905.447 144.761 904.927 144.747 904.393 144.743" stroke="#0D0D0D" stroke-width="1.2845" stroke-miterlimit="10" stroke-linecap="round" stroke-linejoin="round"/>
<path d="M907.379 150.377C911.336 149.861 916.156 148.748 922.031 146.75C922.031 146.75 914.701 145.063 904.201 144.774" stroke="#0D0D0D" stroke-width="1.2845" stroke-miterlimit="10" stroke-linecap="round" stroke-linejoin="round"/>
<path d="M920.154 145.78C919.873 147.533 918.587 148.958 917.278 148.958C915.97 148.958 915.133 147.533 915.414 145.78" fill="#0D0D0D"/>
<path d="M905.199 145.192L922.664 175.137L903.45 168.283C903.45 168.283 894.971 190.475 885.811 192.727C881.85 193.701 862.614 187.283 853.294 185.031" stroke="#0D0D0D" stroke-width="2.67047" stroke-miterlimit="10" stroke-linecap="round" stroke-linejoin="round"/>
<path d="M885.379 169.129C885.379 169.129 896.777 176.726 900.049 175.711" stroke="#0D0D0D" stroke-width="2.67047" stroke-miterlimit="10" stroke-linecap="round" stroke-linejoin="round"/>
<path d="M852.505 147.68L875.685 148.058" stroke="#0D0D0D" stroke-width="3.11555" stroke-miterlimit="10" stroke-linecap="round" stroke-linejoin="round"/>
<path d="M877.919 144.4C880.456 139.3 886.265 135.592 892.429 135.592C900 135.592 905.252 141.187 904.152 148.085C903.057 154.984 896.025 160.579 888.45 160.579C880.875 160.579 875.623 154.984 876.727 148.085C876.927 146.804 877.336 145.566 877.919 144.4Z" stroke="#0D0D0D" stroke-width="1.78031" stroke-miterlimit="10" stroke-linecap="round" stroke-linejoin="round"/>
<path d="M909.28 137.039C911.154 135.614 913.299 134.778 915.467 134.778C921.075 134.778 924.733 140.372 923.639 147.271C922.695 153.235 918.507 158.22 913.767 159.462" stroke="#0D0D0D" stroke-width="1.33359" stroke-miterlimit="10" stroke-linecap="round" stroke-linejoin="round"/>
<path d="M849.947 95.98C863.059 92.5885 875.343 90.6568 882.38 92.6107C906.04 99.189 919.117 122.916 919.117 122.916" stroke="#0D0D0D" stroke-width="3.11555" stroke-miterlimit="10" stroke-linecap="round" stroke-linejoin="round"/>
<path d="M839.229 159.159C833.184 178.987 857.668 194.235 857.668 194.235C857.668 194.235 828.898 207.846 813.223 140.644C813.223 140.644 807.37 130.077 796.612 114.326C796.612 114.326 809.604 108.865 825.818 103.324" stroke="#0D0D0D" stroke-width="1.812" stroke-miterlimit="10" stroke-linecap="round" stroke-linejoin="round"/>
<path d="M797.485 130.144C794.699 125.515 790.24 118.367 784.267 109.613C784.267 109.613 827.288 91.5292 854.447 87.7861" stroke="#0D0D0D" stroke-width="1.33523" stroke-miterlimit="10" stroke-linecap="round" stroke-linejoin="round"/>
<path d="M859.596 186.126C859.596 186.126 857.206 188.338 854.42 191.044" stroke="#0D0D0D" stroke-width="1.59734" stroke-miterlimit="10" stroke-linecap="round" stroke-linejoin="round"/>
<path d="M859.938 196.002C861.612 197.204 863.063 198.344 863.699 199.082C865.676 201.379 873.763 230.109 873.763 230.109" stroke="#0D0D0D" stroke-width="1.78031" stroke-miterlimit="10" stroke-linecap="round" stroke-linejoin="round"/>
<path d="M904.811 248.807L910.629 257.245C911.376 257.953 911.029 259.31 909.97 259.845L855.555 286.612" stroke="#0D0D0D" stroke-width="2.67047" stroke-miterlimit="10" stroke-linecap="round"/>
<path d="M769.682 222.988C769.682 222.988 700.543 278.912 712.062 288.966" stroke="#0D0D0D" stroke-width="1.78031" stroke-miterlimit="10" stroke-linecap="round"/>
<path d="M949.204 230.674C939.145 244.058 925.147 261.58 914.844 270.112" stroke="#0D0D0D" stroke-width="2.3428" stroke-miterlimit="10" stroke-linecap="round"/>
<path d="M929.998 239.887C926.273 244.507 921.435 250.338 916.339 256.052" stroke="#0D0D0D" stroke-width="1.87908" stroke-miterlimit="10" stroke-linecap="round"/>
<path d="M955.185 240.582L939.073 258.638" stroke="#0D0D0D" stroke-width="1.87908" stroke-miterlimit="10" stroke-linecap="round"/>
<path d="M626.179 193.96C639.642 191.316 639.153 182.623 652.403 180.02C665.697 177.407 666.076 186.117 679.37 183.505C683.465 182.699 686.264 181.315 688.565 179.708" stroke="#0D0D0D" stroke-width="0.890157" stroke-miterlimit="10" stroke-linecap="round"/>
<path d="M749.39 169.013C745.829 172.124 742.064 175.146 734.747 176.584C719.222 179.637 718.773 169.458 703.253 172.511" stroke="#0D0D0D" stroke-width="1.78031" stroke-miterlimit="10" stroke-linecap="round"/>
<path d="M816.099 152.185C799.404 155.3 800.023 165.435 787.512 167.767C773.661 170.353 772.464 161.326 759.877 162.751" stroke="#0D0D0D" stroke-width="0.890157" stroke-miterlimit="10" stroke-linecap="round"/>
<path d="M705.724 159.426C703.823 160.214 701.602 160.85 698.865 161.251C684.462 163.356 684.596 154.637 670.197 156.742C655.795 158.847 655.661 167.571 641.254 169.676C626.847 171.781 626.989 163.062 612.582 165.168" stroke="#0D0D0D" stroke-width="1.33523" stroke-miterlimit="10" stroke-linecap="round"/>
<path d="M814.025 144.409C799.635 146.514 799.746 137.795 785.357 139.9C770.968 142.005 770.848 150.729 756.454 152.834C742.06 154.939 742.18 146.22 727.786 148.326C722.935 149.033 719.708 150.493 717.002 152.202" stroke="#0D0D0D" stroke-width="1.33523" stroke-miterlimit="10" stroke-linecap="round"/>
<path d="M898.274 142.246L881.303 140.181" stroke="#0D0D0D" stroke-width="1.33523" stroke-miterlimit="10" stroke-linecap="round" stroke-linejoin="round"/>
<path d="M916.619 142.873L903.805 141.316" stroke="#0D0D0D" stroke-width="1.33523" stroke-miterlimit="10" stroke-linecap="round" stroke-linejoin="round"/>
<path d="M489.82 395.228C430.086 395.228 351.374 384.925 349.193 361.607C347.017 338.29 357.636 309.235 417.499 275.996C488.351 236.607 631.417 218.372 631.417 218.372H631.431C644.778 215.831 762.408 205.469 772.556 203.431C776.077 202.723 767.126 211.678 753.516 223.179C713.111 258.073 649.14 314.527 821.087 296.506C865.982 288.966 927.408 266.792 950.338 255.683C995.064 233.999 1034.31 213.361 1042.77 217.558C1050.68 221.479 1243.22 255.398 1297.82 288.022C1342.33 314.585 1364.9 348.976 1366.12 378.097C1366.5 387.146 1362.32 398.46 1351.84 399.541C1330.32 401.758 1271.75 403.218 1223.63 404.121" stroke="#0D0D0D" stroke-width="5.34094" stroke-miterlimit="10" stroke-linecap="round"/>
<path d="M636.718 358.63C636.758 358.367 636.789 358.109 636.82 357.851C636.869 357.472 636.918 357.099 636.954 356.725C637.043 355.964 637.119 355.203 637.185 354.45C637.225 354.014 637.261 353.582 637.292 353.151C637.368 352.114 637.43 351.077 637.47 350.049C637.51 349.083 637.537 348.126 637.541 347.169C637.555 345.945 637.541 344.73 637.497 343.524C636.317 308.558 614.255 280.71 581.439 272.151C581.435 272.146 581.435 272.146 581.43 272.151C580.371 271.875 579.299 271.621 578.221 271.385H578.217C577.354 271.198 576.481 271.025 575.604 270.86C575.311 270.807 575.012 270.753 574.723 270.704C574.104 270.598 573.49 270.5 572.872 270.406C572.538 270.357 572.204 270.308 571.866 270.264C570.873 270.126 569.867 270.006 568.857 269.903C568.519 269.868 568.18 269.837 567.838 269.805C565.163 269.565 562.439 269.44 559.662 269.44C509.025 269.44 461.086 310.637 452.594 361.46C450.6 373.38 450.96 384.774 453.332 395.228H453.337C461.099 429.339 490.336 453.476 529.236 453.476C565.448 453.476 600.213 432.557 620.197 402.145C621.959 399.461 623.61 396.702 625.133 393.88C625.511 393.181 625.885 392.473 626.245 391.766C626.779 390.72 627.3 389.665 627.799 388.601C628.075 388.018 628.346 387.435 628.604 386.848C630.042 383.661 631.319 380.403 632.427 377.083C632.628 376.495 632.815 375.903 633.002 375.307C633.754 372.921 634.417 370.509 634.991 368.065C635.169 367.3 635.338 366.53 635.503 365.76C635.806 364.318 636.073 362.871 636.313 361.416C636.455 360.486 636.598 359.555 636.718 358.63Z" stroke="#0D0D0D" stroke-width="2.67047" stroke-miterlimit="10" stroke-linecap="round"/>
<path d="M610.669 358.63C610.709 358.367 610.74 358.109 610.771 357.851C610.82 357.472 610.869 357.099 610.909 356.725C610.998 355.964 611.074 355.203 611.14 354.45C611.181 354.014 611.216 353.582 611.247 353.151C611.323 352.114 611.39 351.077 611.425 350.049C611.465 349.083 611.492 348.126 611.497 347.169C611.51 345.945 611.497 344.73 611.456 343.524C610.295 308.558 588.246 280.71 555.434 272.151C555.43 272.146 555.43 272.146 555.426 272.151C554.366 271.875 553.294 271.621 552.217 271.385H552.212C551.349 271.198 550.476 271.025 549.599 270.86C549.306 270.807 549.008 270.753 548.718 270.704C548.1 270.598 547.485 270.5 546.867 270.406C546.533 270.357 546.199 270.308 545.861 270.264C544.868 270.126 543.862 270.006 542.852 269.903C542.514 269.868 542.176 269.837 541.833 269.805C539.158 269.565 536.434 269.44 533.657 269.44C483.02 269.44 435.063 310.637 426.544 361.46C424.546 373.38 424.897 384.774 427.27 395.228H427.274C435.019 429.339 464.242 453.476 503.142 453.476C539.354 453.476 574.128 432.557 594.13 402.145C595.897 399.461 597.543 396.702 599.07 393.88C599.448 393.181 599.822 392.473 600.183 391.766C600.717 390.72 601.237 389.665 601.736 388.601C602.012 388.018 602.283 387.435 602.542 386.848C603.979 383.661 605.261 380.403 606.369 377.083C606.57 376.495 606.756 375.903 606.943 375.307C607.696 372.921 608.363 370.509 608.937 368.065C609.115 367.3 609.289 366.53 609.449 365.76C609.752 364.318 610.019 362.871 610.259 361.416C610.411 360.486 610.548 359.555 610.669 358.63Z" stroke="#0D0D0D" stroke-width="1.33523" stroke-miterlimit="10" stroke-linecap="round" stroke-linejoin="round"/>
<path d="M760.984 266.098C831.645 265.969 876.949 241.552 886.51 236.656" stroke="#0D0D0D" stroke-width="3.11555" stroke-miterlimit="10" stroke-linecap="round"/>
<path d="M1178.89 358.63C1178.92 358.367 1178.95 358.109 1178.98 357.851C1179.02 357.472 1179.07 357.099 1179.11 356.725C1179.19 355.964 1179.25 355.203 1179.31 354.45C1179.35 354.014 1179.38 353.582 1179.4 353.151C1179.47 352.114 1179.52 351.077 1179.55 350.049C1179.58 349.083 1179.59 348.126 1179.59 347.169C1179.59 345.945 1179.56 344.73 1179.51 343.524C1177.96 308.558 1155.6 280.71 1122.7 272.151C1122.69 272.146 1122.69 272.146 1122.69 272.151C1121.62 271.875 1120.55 271.621 1119.47 271.385H1119.46C1118.6 271.198 1117.72 271.025 1116.84 270.86C1116.55 270.807 1116.25 270.753 1115.96 270.704C1115.34 270.598 1114.72 270.5 1114.1 270.406C1113.77 270.357 1113.43 270.308 1113.1 270.264C1112.1 270.126 1111.1 270.006 1110.08 269.903C1109.74 269.868 1109.41 269.837 1109.06 269.805C1106.39 269.565 1103.66 269.44 1100.88 269.44C1050.25 269.44 1002.75 310.637 994.794 361.46C992.929 373.38 993.41 384.774 995.893 395.228H995.898C1004.02 429.339 1033.51 453.476 1072.41 453.476C1108.62 453.476 1143.16 432.557 1162.83 402.145C1164.56 399.461 1166.18 396.702 1167.68 393.88C1168.04 393.181 1168.41 392.473 1168.76 391.766C1169.29 390.72 1169.79 389.665 1170.28 388.601C1170.56 388.018 1170.82 387.435 1171.07 386.848C1172.47 383.661 1173.72 380.403 1174.79 377.083C1174.98 376.495 1175.17 375.903 1175.35 375.307C1176.07 372.921 1176.72 370.509 1177.26 368.065C1177.43 367.3 1177.6 366.53 1177.75 365.76C1178.04 364.318 1178.29 362.871 1178.51 361.416C1178.65 360.486 1178.78 359.555 1178.89 358.63Z" stroke="#0D0D0D" stroke-width="1.33523" stroke-miterlimit="10" stroke-linecap="round" stroke-linejoin="round"/>
<path d="M1203.25 358.63C1203.29 358.367 1203.32 358.109 1203.34 357.851C1203.39 357.472 1203.43 357.099 1203.47 356.725C1203.55 355.964 1203.62 355.203 1203.67 354.45C1203.71 354.014 1203.74 353.582 1203.77 353.151C1203.83 352.114 1203.88 351.077 1203.91 350.049C1203.94 349.083 1203.95 348.126 1203.95 347.169C1203.95 345.945 1203.92 344.73 1203.87 343.524C1202.3 308.558 1179.92 280.71 1147.02 272.151C1147.01 272.146 1147.01 272.146 1147.01 272.151C1145.94 271.875 1144.87 271.621 1143.79 271.385H1143.78C1142.92 271.198 1142.04 271.025 1141.16 270.86C1140.87 270.807 1140.57 270.753 1140.28 270.704C1139.66 270.598 1139.04 270.5 1138.42 270.406C1138.09 270.357 1137.75 270.308 1137.41 270.264C1136.42 270.126 1135.42 270.006 1134.4 269.903C1134.06 269.868 1133.73 269.837 1133.38 269.805C1130.71 269.565 1127.98 269.44 1125.2 269.44C1074.57 269.44 1027.08 310.637 1019.15 361.46C1017.29 373.38 1017.78 384.774 1020.27 395.228H1020.27C1028.42 429.339 1057.92 453.476 1096.82 453.476C1133.03 453.476 1167.56 432.557 1187.21 402.145C1188.95 399.461 1190.56 396.702 1192.05 393.88C1192.42 393.181 1192.79 392.473 1193.14 391.766C1193.66 390.72 1194.17 389.665 1194.66 388.601C1194.93 388.018 1195.19 387.435 1195.44 386.848C1196.85 383.661 1198.09 380.403 1199.16 377.083C1199.35 376.495 1199.53 375.903 1199.72 375.307C1200.44 372.921 1201.08 370.509 1201.63 368.065C1201.8 367.3 1201.96 366.53 1202.11 365.76C1202.4 364.318 1202.65 362.871 1202.87 361.416C1203.01 360.486 1203.14 359.555 1203.25 358.63Z" stroke="#0D0D0D" stroke-width="2.67047" stroke-miterlimit="10" stroke-linecap="round"/>
<path d="M1056.85 361.46C1054.38 377.368 1056.09 392.336 1061.16 405.39C898.807 405.456 716.717 403.022 656.685 402.145" stroke="#0D0D0D" stroke-width="5.34094" stroke-miterlimit="10" stroke-linecap="round"/>
<path d="M1170.38 361.46C1168.55 373.451 1157.35 383.171 1145.38 383.171C1133.4 383.171 1125.19 373.451 1127.04 361.46C1128.89 349.47 1140.08 339.745 1152.04 339.745C1164.01 339.745 1172.22 349.47 1170.38 361.46Z" stroke="#0D0D0D" stroke-width="4.0057" stroke-miterlimit="10" stroke-linecap="round" stroke-linejoin="round"/>
<path d="M584.796 188.654H306.76" stroke="#0D0D0D" stroke-width="2.22539" stroke-miterlimit="10" stroke-linecap="round"/>
<path d="M454.494 243.71H200.706" stroke="#0D0D0D" stroke-width="2.67047" stroke-miterlimit="10" stroke-linecap="round"/>
<path d="M1409.14 199.025H1205.55" stroke="#0D0D0D" stroke-width="1.78031" stroke-miterlimit="10" stroke-linecap="round"/>
<path d="M1295.75 179.081H1198.85" stroke="#0D0D0D" stroke-width="4.01608" stroke-miterlimit="10" stroke-linecap="round"/>
<path d="M1252.25 166.511H1155.37" stroke="#0D0D0D" stroke-width="1.46039" stroke-miterlimit="10" stroke-linecap="round"/>
<path d="M1535.44 118.648H1222.44" stroke="#0D0D0D" stroke-width="3.11555" stroke-miterlimit="10" stroke-linecap="round" stroke-dasharray="11.02 11.02"/>
<path d="M1435.51 150.716H1265.05" stroke="#0D0D0D" stroke-width="2.19059" stroke-miterlimit="10" stroke-linecap="round"/>
<path d="M803.872 179.245L771.612 208.086" stroke="#0D0D0D" stroke-width="2.67047" stroke-miterlimit="10" stroke-linecap="round"/>
<path d="M905.964 144.774C905.447 144.761 904.927 144.747 904.393 144.743" stroke="#0D0D0D" stroke-width="1.2845" stroke-miterlimit="10" stroke-linecap="round" stroke-linejoin="round"/>
<path d="M836.176 201.74C828.677 211.562 806.641 240.363 795.225 255.278" stroke="#0D0D0D" stroke-width="2.67047" stroke-miterlimit="10" stroke-linecap="round" stroke-linejoin="round"/>
<path d="M769.682 222.988C769.682 222.988 700.543 278.912 712.062 288.966" stroke="#0D0D0D" stroke-width="1.78031" stroke-miterlimit="10" stroke-linecap="round"/>
<path d="M955.185 240.582L939.073 258.638" stroke="#0D0D0D" stroke-width="1.87908" stroke-miterlimit="10" stroke-linecap="round"/>
<path d="M814.025 144.409C799.635 146.514 799.746 137.795 785.357 139.9C770.968 142.005 770.848 150.729 756.454 152.834C742.06 154.939 742.18 146.22 727.786 148.326C722.935 149.033 719.708 150.493 717.002 152.202" stroke="#0D0D0D" stroke-width="1.33523" stroke-miterlimit="10" stroke-linecap="round"/>
<path d="M840.169 158.514L839.229 159.159" stroke="#0D0D0D" stroke-width="2.24578" stroke-miterlimit="10"/>
<path d="M634.573 426.691C642.883 419.574 650.222 411.287 656.222 402.145C657.985 399.461 659.631 396.701 661.154 393.88C661.532 393.181 661.901 392.473 662.262 391.765C662.796 390.72 663.317 389.665 663.815 388.601C664.091 388.018 664.363 387.435 664.621 386.847C666.054 383.661 667.331 380.403 668.439 377.082C668.635 376.495 668.827 375.903 669.014 375.306C669.761 372.921 670.425 370.509 670.999 368.065C671.177 367.3 671.346 366.53 671.506 365.76C671.809 364.318 672.076 362.871 672.312 361.416C672.463 360.485 672.601 359.555 672.721 358.629C672.761 358.367 672.792 358.109 672.819 357.851C672.868 357.472 672.917 357.098 672.953 356.724C673.042 355.963 673.117 355.202 673.18 354.45C673.22 354.014 673.255 353.582 673.286 353.151C673.362 352.113 673.424 351.076 673.464 350.048C673.5 349.082 673.527 348.126 673.536 347.169C673.549 345.945 673.531 344.73 673.491 343.523C672.289 308.558 650.205 280.71 617.385 272.151C617.38 272.146 617.38 272.146 617.376 272.151C616.316 271.875 615.244 271.621 614.167 271.385H614.162C613.299 271.198 612.426 271.025 611.55 270.86C611.256 270.807 610.958 270.753 610.664 270.704C610.045 270.597 609.431 270.499 608.812 270.406C608.479 270.357 608.145 270.308 607.806 270.264C606.814 270.126 605.808 270.005 604.798 269.903C604.459 269.867 604.121 269.836 603.778 269.805C601.104 269.565 598.38 269.44 595.602 269.44C576.615 269.44 558.016 275.235 541.735 285.156M541.726 285.156C514.58 301.691 493.875 329.695 488.588 361.46C486.603 373.379 486.972 384.773 489.353 395.228H489.358C497.142 429.339 526.397 453.476 565.297 453.476C575.739 453.476 586.06 451.735 595.945 448.531M598.291 346.105C601.566 350.035 603.098 355.465 602.114 361.46C600.147 373.451 588.842 383.171 576.869 383.171C564.896 383.171 556.792 373.451 558.772 361.46C560.245 352.523 566.908 344.841 575.156 341.512" stroke="#0D0D0D" stroke-width="4.89586" stroke-miterlimit="10" stroke-linecap="round"/>
<path d="M1099.19 292.019C1117.46 277.955 1139.82 269.44 1162.84 269.44C1165.25 269.44 1167.61 269.534 1169.95 269.716C1170.99 269.796 1172.02 269.894 1173.05 270.014C1173.71 270.09 1174.36 270.17 1175 270.259C1175.65 270.348 1176.29 270.442 1176.92 270.544C1176.93 270.54 1176.93 270.54 1176.93 270.544C1177.84 270.686 1178.74 270.847 1179.63 271.02C1179.63 271.02 1179.63 271.02 1179.63 271.02C1215.33 277.955 1239.95 306.885 1241.56 343.657V343.661C1241.59 344.244 1241.61 344.832 1241.62 345.42C1241.62 345.424 1241.62 345.428 1241.62 345.428C1241.63 346.047 1241.64 346.666 1241.65 347.284C1241.65 347.596 1241.65 347.907 1241.64 348.219C1241.64 348.223 1241.64 348.224 1241.64 348.228C1241.64 348.887 1241.63 349.545 1241.6 350.209C1241.59 350.542 1241.58 350.876 1241.57 351.21C1241.57 351.214 1241.57 351.214 1241.57 351.219C1241.54 351.918 1241.5 352.616 1241.46 353.32C1241.43 353.671 1241.41 354.023 1241.38 354.379C1241.35 354.766 1241.32 355.158 1241.28 355.549C1241.25 355.937 1241.21 356.324 1241.17 356.711C1241.17 356.724 1241.17 356.738 1241.16 356.756C1241.13 357.103 1241.09 357.454 1241.05 357.806C1241.04 357.873 1241.03 357.935 1241.03 358.002C1240.99 358.362 1240.94 358.723 1240.9 359.083C1240.85 359.48 1240.79 359.876 1240.73 360.272C1240.68 360.668 1240.62 361.064 1240.56 361.46C1240.34 362.902 1240.09 364.34 1239.81 365.768C1239.62 366.721 1239.42 367.665 1239.2 368.608C1238.99 369.552 1238.76 370.495 1238.51 371.43C1238.15 372.832 1237.76 374.225 1237.33 375.609C1237.33 375.609 1237.33 375.609 1237.33 375.614C1237.05 376.535 1236.76 377.452 1236.45 378.364C1233.37 387.493 1229.02 396.154 1223.63 404.121C1221.42 407.397 1219.03 410.557 1216.49 413.583C1213.71 416.886 1210.75 420.032 1207.63 423.001C1204.9 425.6 1202.04 428.062 1199.08 430.376M1187.65 438.232C1184.05 440.399 1180.33 442.362 1176.52 444.102C1172.82 445.789 1169.04 447.271 1165.18 448.526M1062.97 339.317C1060.12 346.412 1058.04 353.827 1056.86 361.46C1054.39 377.367 1056.09 392.335 1061.16 405.389C1072.31 434.035 1099.67 453.476 1134.58 453.476C1139.8 453.476 1144.99 453.039 1150.11 452.203M1072.03 321.679C1068.49 327.269 1065.44 333.171 1062.98 339.317M1087.15 302.665C1084.57 305.291 1082.11 308.037 1079.79 310.899" stroke="#0D0D0D" stroke-width="4.89586" stroke-miterlimit="10" stroke-linecap="round"/>
<path d="M902.631 130.171L910.496 139.077C910.558 139.126 910.661 139.077 910.67 138.992C910.67 138.992 918.312 131.475 918.73 131.675L950.695 147.026C950.802 147.075 950.914 146.915 950.816 146.853L916.918 124.229C916.861 124.202 916.767 124.162 916.709 124.136C914.502 122.458 909.067 122.792 905.142 122.818H905.079C891.478 122.698 877.551 127.456 869.807 130.625C869.789 130.634 869.771 130.638 869.754 130.647C866.665 132.103 863.545 133.803 860.447 135.788L860.429 135.801L860.411 135.815L850.304 143.417C850.286 143.43 850.268 143.443 850.25 143.461C849.663 143.977 849.071 144.511 848.488 145.054C846.961 146.474 845.621 147.885 844.46 149.283C844.455 149.287 844.455 149.292 844.451 149.296C844.322 149.447 844.197 149.594 844.081 149.746C844.05 149.786 844.024 149.821 844.001 149.866C843.409 151.001 841.691 154.383 840.481 157.014C840.191 157.641 839.933 158.224 839.72 158.723C839.239 159.88 839.021 160.597 839.346 160.365L881.615 130.763C881.891 130.572 882.234 130.58 882.434 130.785L890.792 140.791C890.832 140.826 891.896 140.791 891.896 140.791C891.932 140.826 891.999 140.817 892.039 140.773L902.017 130.447C902.271 130.215 902.627 130.171 902.863 130.349" fill="#F9AC12"/>
<path d="M902.631 130.171L910.496 139.077C910.558 139.126 910.661 139.077 910.67 138.992C910.67 138.992 918.312 131.475 918.73 131.675L950.695 147.026C950.802 147.075 950.914 146.915 950.816 146.853L916.918 124.229C916.861 124.202 916.767 124.162 916.709 124.136C914.502 122.458 909.067 122.792 905.142 122.818H905.079C891.478 122.698 877.551 127.456 869.807 130.625C869.789 130.634 869.771 130.638 869.754 130.647C866.665 132.103 863.545 133.803 860.447 135.788L860.429 135.801L860.411 135.815L850.304 143.417C850.286 143.43 850.268 143.443 850.25 143.461C849.663 143.977 849.071 144.511 848.488 145.054C846.961 146.474 845.621 147.885 844.46 149.283C844.455 149.287 844.455 149.292 844.451 149.296C844.322 149.447 844.197 149.594 844.081 149.746C844.05 149.786 844.024 149.821 844.001 149.866C843.409 151.001 841.691 154.383 840.481 157.014C840.191 157.641 839.933 158.224 839.72 158.723C839.239 159.88 839.021 160.597 839.346 160.365L881.615 130.763C881.891 130.572 882.234 130.58 882.434 130.785L890.792 140.791C890.832 140.826 891.896 140.791 891.896 140.791C891.932 140.826 891.999 140.817 892.039 140.773L902.017 130.447C902.271 130.215 902.627 130.171 902.863 130.349" stroke="#0D0D0D" stroke-width="2.24578" stroke-miterlimit="10"/>
</g>
<defs>
<clipPath id="clip0_723_2194">
<rect width="1536.9" height="455.787" fill="white" transform="translate(0.0996094 0.136719)"/>
</clipPath>
</defs>
</svg>

