<svg width="22" height="22" viewBox="0 0 22 22" fill="none" xmlns="http://www.w3.org/2000/svg">
<path d="M12.6718 2.25889L14.4232 5.76173C14.662 6.24934 15.2989 6.71705 15.8363 6.80661L19.0107 7.33403C21.0408 7.67237 21.5184 9.14512 20.0556 10.598L17.5877 13.0659C17.1697 13.4839 16.9409 14.2899 17.0702 14.8671L17.7768 17.9221C18.334 20.3403 17.0503 21.2757 14.9108 20.0119L11.9354 18.2505C11.398 17.9321 10.5123 17.9321 9.96502 18.2505L6.98959 20.0119C4.86002 21.2757 3.56636 20.3303 4.12363 17.9221L4.83017 14.8671C4.95954 14.2899 4.73066 13.4839 4.3127 13.0659L1.84479 10.598C0.391911 9.14512 0.85962 7.67237 2.88968 7.33403L6.06412 6.80661C6.59154 6.71705 7.22842 6.24934 7.46725 5.76173L9.21868 2.25889C10.174 0.358202 11.7264 0.358202 12.6718 2.25889Z" stroke="#0D0D0D" stroke-width="1.57932" stroke-linecap="round" stroke-linejoin="round"/>
</svg>
