<svg width="24" height="22" viewBox="0 0 24 22" fill="none" xmlns="http://www.w3.org/2000/svg">
<path d="M12.1236 13.8417C13.8563 13.8417 15.2609 12.4371 15.2609 10.7044C15.2609 8.97169 13.8563 7.56714 12.1236 7.56714C10.3909 7.56714 8.98633 8.97169 8.98633 10.7044C8.98633 12.4371 10.3909 13.8417 12.1236 13.8417Z" stroke="#0D0D0D" stroke-width="1.57932" stroke-miterlimit="10" stroke-linecap="round" stroke-linejoin="round"/>
<path d="M1.66602 11.6245V9.78397C1.66602 8.69638 2.55491 7.79708 3.65295 7.79708C5.54577 7.79708 6.31963 6.45851 5.36799 4.81667C4.8242 3.87549 5.14838 2.65196 6.10002 2.10817L7.90918 1.07287C8.73532 0.581366 9.80199 0.874177 10.2935 1.70032L10.4085 1.89902C11.3497 3.54085 12.8974 3.54085 13.8491 1.89902L13.9641 1.70032C14.4556 0.874177 15.5223 0.581366 16.3484 1.07287L18.1576 2.10817C19.1092 2.65196 19.4334 3.87549 18.8896 4.81667C17.938 6.45851 18.7118 7.79708 20.6046 7.79708C21.6922 7.79708 22.5916 8.68593 22.5916 9.78397V11.6245C22.5916 12.7121 21.7027 13.6114 20.6046 13.6114C18.7118 13.6114 17.938 14.95 18.8896 16.5918C19.4334 17.5435 19.1092 18.7566 18.1576 19.3003L16.3484 20.3356C15.5223 20.8271 14.4556 20.5343 13.9641 19.7082L13.8491 19.5095C12.9079 17.8677 11.3602 17.8677 10.4085 19.5095L10.2935 19.7082C9.80199 20.5343 8.73532 20.8271 7.90918 20.3356L6.10002 19.3003C5.14838 18.7566 4.8242 17.533 5.36799 16.5918C6.31963 14.95 5.54577 13.6114 3.65295 13.6114C2.55491 13.6114 1.66602 12.7121 1.66602 11.6245Z" stroke="#0D0D0D" stroke-width="1.57932" stroke-miterlimit="10" stroke-linecap="round" stroke-linejoin="round"/>
</svg>
