
		<svg
			width="20"
			height="20"
			viewBox="0 0 20 20"
			fill="#0096FF"
			xmlns="http://www.w3.org/2000/svg"
		>
			<path
				d="M11.5283 2.49376L13.085 5.60713C13.2973 6.04053 13.8633 6.45623 14.341 6.53584L17.1625 7.00461C18.9668 7.30533 19.3913 8.61433 18.0912 9.90567L15.8976 12.0992C15.5262 12.4707 15.3227 13.1871 15.4377 13.7001L16.0657 16.4154C16.561 18.5647 15.42 19.3961 13.5184 18.2729L10.8738 16.7073C10.3962 16.4243 9.60899 16.4243 9.12253 16.7073L6.47792 18.2729C4.58514 19.3961 3.43531 18.5559 3.93062 16.4154L4.5586 13.7001C4.67358 13.1871 4.47015 12.4707 4.09867 12.0992L1.90516 9.90567C0.61382 8.61433 1.02953 7.30533 2.83386 7.00461L5.65536 6.53584C6.12413 6.45623 6.6902 6.04053 6.90247 5.60713L8.45917 2.49376C9.30827 0.804406 10.6881 0.804406 11.5283 2.49376Z"
				stroke="#292D32"
				stroke-width="2"
				stroke-linecap="round"
				stroke-linejoin="round"
			/>
		</svg>

